<svg xmlns="http://www.w3.org/2000/svg" width="320" height="320"><svg transform="translate(-140 -15)"><path d="M0 160a160 160 0 1 0 320 0 160 160 0 1 0-320 0" style="fill:#1f77b4;fill-opacity:.25"/><path d="M88.095 155.415q.547 2.188.638 4.302.2 2.06.2 3.737v.51q-.036 1.66-.036 1.805-.054 1.368-.109 2.644-.018.62-.091 1.513l-.037.474-.036.419q0 .2-.018.383v.984q-.018.055-.018.091v.091q-.183.875-.985 1.258-.456.219-.838.219-.347 0-.675-.164-1.112-.547-1.112-1.55v-.145q-.018-.055.018-.146v-1.841q0-.875.019-2.516 0-.984.036-2.242v-1.295q-.383.073-.984.201-.128.018-1.86.365-3.39.674-4.265.783-.766.11-.82.11-.402.073-.766.146l-.73.145q-.346.073-.674.146-.091.018-.328.073l-.292.073q-.273.073-.528.128-.128.364-.2.528-.11.256-.238.547-.11.292-.219.602-.492 1.258-.838 2.187l-.93 2.57q-.091.165-.127.238-.2.31-.584.656-.492.437-1.075.437-.365 0-.766-.2-.784-.401-.948-1.021v-.365q.018-.073.018-.164v-.073q-.054-.054 0-.09.037-.037.019-.074-.019-.036 0-.109.036-.11.018-.128-.018-.018.018-.072l.073-.766v-.018l.018-.018q1.313-2.717 1.823-4.54 1.13-4.028 1.477-5.468.383-1.604.528-2.115.092-.364.128-.547.055-.182.073-.218.036-.183.51-1.678.237-.783.274-.893.692-2.807 3.883-6.544 1.112-1.313 2.278-2.024.565-.346 1.149-.51.583-.164 1.166-.164 3.081 0 5.214 4.885 1.002 2.316 1.55 4.448zm-12.03 1.914q-.457 1.13-.821 2.352-.091.292-.164.601-.073.31-.164.62l-.146.62q-.055.31-.128.62.219-.018.383-.037l.365-.036q.4-.037.747-.091.346-.055.656-.128.274-.055.492-.09.237-.056.42-.092.2-.037.346-.055.055-.018.091-.018.055-.018.091-.018.055-.018.092-.018.109-.019.182-.019t.127-.018q.11-.018 1.404-.255 1.841-.328 3.044-.638 1.222-.328 1.769-.638l.09-.055q.019-.018.019-.11 0-1.293-.328-2.806-.31-1.532-.948-3.3-.638-1.695-1.33-2.643-.147-.2-.31-.365-.147-.164-.292-.291-.146-.128-.292-.2-.128-.092-.274-.128l-.255-.073q-.747.273-1.531 1.166-.784.894-1.622 2.443-.839 1.531-1.714 3.7zm157.462 15.933h-.054q-.219 0-.766-.657-.182-.218-.182-.948 0-.273.055-.565.054-.291.164-.638.218-.656.492-1.33l.073-.183q.055-.09.09-.182l.074-.182q.055-.091.09-.183l.074-.182q.036-.09.073-.164.054-.091.09-.182.092-.2.165-.365.073-.164.127-.31l.037-.145q.018-.073.036-.128.639-2.042 1.112-4.211.474-2.17.748-4.375.292-2.224.437-4.448.128-2.115.128-4.156-.547.018-1.057.11-.31.054-.62.127-.31.054-.62.127-.62.146-1.221.256-.62.127-1.258.127-.365 0-.675-.11-.31-.109-.546-.327-.237-.219-.347-.51-.127-.292-.127-.657 0-.784.747-1.294.693-.474 1.768-.766 1.076-.292 2.352-.437 1.312-.146 2.552-.2 1.221-.056 2.224-.056h1.476q3.592 0 5.943.456.292.055.565.11.146.036.274.072.127.037.273.073.091.019.164.037.091.018.164.055.091.018.164.054.091.018.164.037.091.018.164.054.073.019.146.055.219.073.438.164.11.037.218.091.11.037.201.073.2.091.383.2.182.092.346.183.347.2.62.438.292.218.529.473.255.237.437.51.182.256.328.548.274.565.401 1.166.128.602.128 1.276 0 .566-.146 1.04-.146.473-.437.856-.292.383-.657.693-.364.31-.82.565-.875.51-1.987.857-1.112.328-2.224.601l-.73.183-.692.182q-.346.091-.674.182-.711.2-1.258.474.875.31 1.805.693 1.148.456 2.242 1.003 1.112.546 2.096 1.22.492.347.93.73.437.383.82.802.255.292.474.602.219.291.401.62l.11.218q.072.11.109.237l.11.219q.145.346.254.711.055.182.092.383.036.182.054.383.018.127.018.273.019.128.019.273.018.128.018.256 0 .82-.182 1.53-.165.712-.51 1.295-.694 1.167-1.824 1.95-.565.384-1.203.712-.638.31-1.367.528-1.313.42-3.008.693-1.531.255-3.026.31-1.513.055-2.716.055-.711 0-1.404-.019-1.039 0-1.276-.018-.601-.073-1.403-.11-.967-.054-1.769-.163zm10.209-12.925q-.401-.164-.784-.291-.365-.146-.693-.256-.127-.036-.273-.073-.128-.036-.292-.073-.164-.036-.346-.09-.547-.146-1.04-.256-.054-.018-.109-.018l-.109-.037q-.037-.018-.091-.018-.037-.018-.091-.018l-.073-.036q-.219-.055-.401-.073-.128-.019-.2-.037l-.037.055q-.219 1.294-.492 2.698-.274 1.44-.62 2.898-.328 1.459-.748 2.88-.182.638-.4 1.276-.22.638-.438 1.185l.2.055q.092 0 .347.018h.31q.164 0 .346.018.365 0 .693.019h.51q.529-.019 1.568-.019.51 0 1.075-.018.565-.036 1.185-.073 1.222-.09 2.516-.328.42-.073.82-.164.401-.09.784-.219.091-.036.182-.054.091-.037.183-.055.09-.036.164-.073l.182-.073q.255-.11.492-.219.237-.127.438-.273.073-.036.127-.073.073-.055.128-.11l.146-.109q.09-.073.164-.145.09-.073.164-.165.62-.638.62-1.585 0-.201-.019-.401-.018-.22-.072-.42-.092-.4-.274-.765-.365-.766-.966-1.44-.62-.675-1.422-1.222-.82-.565-1.677-1.039-.42-.237-.839-.42-.419-.2-.838-.364zm-2.37-10.937h-1.221q0 .127-.019.273 0 .146-.018.346-.036.566-.09 1.277-.037.692-.092 1.476-.036.766-.091 1.477-.037.692-.055 1.24-.018.273-.036.473 0 .182-.018.31h.054q.018-.018.055-.018.055-.018.128-.018.072-.019.145-.019.037 0 .073-.018.055-.018.091-.018.292-.055.638-.128.365-.09.766-.2.802-.2 1.768-.492.985-.292 1.969-.62 1.003-.346 1.932-.747.456-.2.857-.383.42-.2.766-.401.328-.2.601-.401.274-.2.492-.401.201-.2.292-.383.11-.2.11-.383 0-.31-.092-.547-.072-.255-.218-.456-.347-.437-.93-.729-.273-.146-.62-.255-.328-.11-.729-.182-.82-.146-1.659-.219-.219-.018-.456-.018-.218-.018-.437-.018-.219-.019-.42-.019h-.709q-.164 0-.328.019-.146 0-.292.018-.146 0-.292.018h-.291q-.347.018-.638.055-.274.018-.493.036-.109.018-.2.037-.091 0-.164.018h-.128z" aria-label="A B" class="label" style="font-size:37.3333px;font-family:Lavi;-inkscape-font-specification:Lavi;text-anchor:middle;fill:#1f77b4"/></svg></svg>