<?xml version="1.0" encoding="UTF-8" standalone="no"?>
<svg
   viewBox="0 0 300 150"
   version="1.1"
   id="svg6"
   sodipodi:docname="11.svg"
   inkscape:version="1.3.2 (091e20ef0f, 2023-11-25)"
   xmlns:inkscape="http://www.inkscape.org/namespaces/inkscape"
   xmlns:sodipodi="http://sodipodi.sourceforge.net/DTD/sodipodi-0.dtd"
   xmlns="http://www.w3.org/2000/svg"
   xmlns:svg="http://www.w3.org/2000/svg">
  <defs
     id="defs6" />
  <sodipodi:namedview
     id="namedview6"
     pagecolor="#ffffff"
     bordercolor="#000000"
     borderopacity="0.25"
     inkscape:showpageshadow="2"
     inkscape:pageopacity="0.0"
     inkscape:pagecheckerboard="0"
     inkscape:deskcolor="#d1d1d1"
     inkscape:zoom="3.22"
     inkscape:cx="150.15528"
     inkscape:cy="75"
     inkscape:window-width="1920"
     inkscape:window-height="1009"
     inkscape:window-x="0"
     inkscape:window-y="38"
     inkscape:window-maximized="1"
     inkscape:current-layer="svg6" />
  <circle
     cx="75"
     cy="75"
     r="70"
     stroke="black"
     stroke-width="2"
     fill="none"
     id="circle1" />
  <circle
     cx="225"
     cy="75"
     r="70"
     stroke="black"
     stroke-width="2"
     fill="none"
     id="circle2" />
  <path
     d="m 70.311198,48.578125 q -0.0931,-0.110026 -0.169271,-0.220052 -0.236979,-0.363932 -0.236979,-0.820964 0,-0.330078 0.203125,-0.567057 0.211588,-0.236979 0.575521,-0.236979 0.203125,0 0.414713,0.126953 0.194662,0.11849 0.431641,0.304687 0.228515,0.177735 0.499349,0.38086 0.270833,0.203125 0.592448,0.372396 0.330078,0.169271 0.727864,0.279297 0.389323,0.118489 0.863282,0.118489 0.118489,0 0.245442,-0.0085 0.135417,-0.0085 0.270834,-0.01693 0.14388,-0.01693 0.296224,-0.03386 0.457031,-0.05924 0.939453,-0.177734 0.490885,-0.126953 0.947916,-0.313151 0.228516,-0.0931 0.431641,-0.203125 0.203125,-0.11849 0.38086,-0.26237 0.355468,-0.270833 0.567057,-0.617838 0.101562,-0.169271 0.152344,-0.363933 0.05924,-0.194661 0.05924,-0.414713 0,-0.296224 -0.14388,-0.533203 -0.152344,-0.253907 -0.389323,-0.448568 -0.118489,-0.101563 -0.253906,-0.177735 -0.135417,-0.08463 -0.28776,-0.152343 -0.143881,-0.06771 -0.287761,-0.11849 -0.14388,-0.05924 -0.28776,-0.0931 l -3.833985,-0.973307 q -0.06771,-0.01693 -0.14388,-0.03385 -0.06771,-0.02539 -0.14388,-0.05078 -0.06771,-0.02539 -0.14388,-0.04232 -0.06771,-0.02539 -0.143881,-0.05078 -0.06771,-0.02539 -0.135416,-0.05078 -0.06771,-0.03385 -0.143881,-0.05924 -0.05924,-0.02539 -0.118489,-0.05078 -0.05924,-0.03385 -0.11849,-0.05925 -0.05925,-0.03385 -0.118489,-0.05924 -0.05078,-0.03385 -0.110026,-0.06771 -0.05078,-0.03385 -0.110026,-0.06771 -0.05078,-0.03385 -0.101563,-0.06771 -0.05078,-0.03385 -0.101562,-0.07617 -0.355469,-0.26237 -0.617839,-0.617839 -0.26237,-0.355469 -0.363932,-0.8125 v -0.0085 -0.0085 0 -0.507813 q 0,-0.736328 0.236979,-1.345703 0.118489,-0.304687 0.279297,-0.567057 0.160807,-0.270833 0.372396,-0.499349 0.220052,-0.228516 0.473958,-0.414714 0.26237,-0.186197 0.567057,-0.330078 0.304688,-0.14388 0.651693,-0.236979 0.110026,-0.03385 0.228516,-0.05924 0.118489,-0.02539 0.236979,-0.04232 0.126953,-0.01693 0.245443,-0.03386 h 0.0085 q 0.02539,0 0.06771,0 0.04232,0 0.101563,0 0.06771,-0.0085 0.135417,-0.0085 0.06771,0 0.135416,0 0.14388,0 0.270834,-0.0085 0.06771,0 0.110026,-0.0085 0.02539,0 0.04232,0 0.01693,0 0.03386,0 0.220052,0 0.634765,0 0.423177,0.0085 0.939453,0.05078 0.516276,0.03385 1.041016,0.110026 0.533203,0.07617 0.973307,0.228516 0.02539,0.0085 0.05078,0.01693 0.03385,0.0085 0.05924,0.01693 0.02539,0.0085 0.05078,0.02539 0.02539,0.0085 0.05078,0.01693 0.101562,0.04232 0.186198,0.0931 0.0931,0.04232 0.169271,0.0931 0.08464,0.05078 0.152343,0.110026 0.152344,0.118489 0.228516,0.279296 0.04232,0.07617 0.05925,0.160808 0.01693,0.07617 0.01693,0.169271 0,0.08464 -0.01693,0.160807 -0.0085,0.07617 -0.03385,0.14388 -0.01693,0.03385 -0.03386,0.06771 -0.0085,0.03385 -0.03385,0.06771 -0.04232,0.06771 -0.08464,0.126953 -0.101563,0.11849 -0.253906,0.177734 -0.05078,0.01693 -0.101563,0.03385 -0.05078,0.0085 -0.110026,0.01693 -0.05078,0.0085 -0.110026,0.0085 h -0.101562 -0.0085 -0.0085 q -0.930989,-0.203125 -1.853515,-0.372396 -0.152344,-0.02539 -0.304688,-0.05078 -0.152344,-0.02539 -0.313151,-0.04232 -0.152344,-0.01693 -0.304687,-0.03385 -0.236979,-0.01693 -0.473959,-0.02539 -0.228515,-0.01693 -0.465494,-0.01693 -0.0931,0 -0.186198,0.0085 -0.08464,0 -0.169271,0.0085 -0.08464,0 -0.169271,0.0085 -0.08463,0.0085 -0.169271,0.01693 -0.169271,0.01693 -0.321615,0.05078 -0.118489,0.02539 -0.228515,0.05924 -0.02539,0.0085 -0.05925,0.01693 -0.02539,0.0085 -0.05078,0.01693 -0.02539,0.0085 -0.05078,0.01693 -0.02539,0.0085 -0.05078,0.01693 -0.02539,0.0085 -0.05078,0.02539 -0.02539,0.0085 -0.05078,0.01693 -0.02539,0.0085 -0.05078,0.02539 -0.02539,0.0085 -0.04232,0.02539 -0.0931,0.05078 -0.186198,0.101563 -0.347005,0.228516 -0.55013,0.600911 -0.101563,0.186198 -0.152344,0.423178 -0.05078,0.236979 -0.05078,0.524739 0,0.220052 0.110026,0.38086 0.0085,0.0085 0.0085,0.02539 0.0085,0.0085 0.01693,0.01693 0.0085,0.0085 0.0085,0.01693 0.01693,0.02539 0.04232,0.05078 0.02539,0.02539 0.05078,0.05078 0.02539,0.02539 0.05078,0.05078 0.02539,0.02539 0.05078,0.05078 0.02539,0.01693 0.05078,0.04232 0.05924,0.04232 0.118489,0.08463 0.06771,0.03386 0.135417,0.06771 0.03385,0.01693 0.06771,0.03385 0.03385,0.01693 0.06771,0.03385 0.220052,0.0931 0.423177,0.135417 l 3.68164,0.930989 q 0.152344,0.03386 0.296224,0.08464 0.152344,0.04232 0.304688,0.101562 0.296224,0.101563 0.592448,0.23698 0.575521,0.270833 1.015625,0.651692 0.152344,0.126953 0.279297,0.279297 0.06771,0.07617 0.126953,0.152344 0.05925,0.07617 0.118489,0.152344 0.110027,0.160807 0.203125,0.338541 0.279297,0.533203 0.279297,1.201823 0,0.236979 -0.03385,0.457032 -0.02539,0.220052 -0.0931,0.423177 -0.05925,0.203125 -0.14388,0.397786 -0.135417,0.287761 -0.321615,0.541667 -0.186198,0.253906 -0.40625,0.482422 -0.110026,0.110026 -0.236979,0.220052 -0.126953,0.101562 -0.253906,0.203125 -0.26237,0.194661 -0.558594,0.355469 -0.609375,0.321614 -1.269531,0.541666 -0.330078,0.110026 -0.66862,0.186198 -0.338542,0.07617 -0.677083,0.135417 -0.330078,0.05078 -0.651693,0.07617 -0.313151,0.02539 -0.609375,0.02539 -0.321615,0 -0.761719,-0.05078 -0.440104,-0.05924 -0.914062,-0.177734 -0.06771,-0.01693 -0.135417,-0.04232 -0.03385,-0.0085 -0.07617,-0.01693 -0.03385,-0.0085 -0.06771,-0.01693 -0.06771,-0.01693 -0.135417,-0.03385 -0.06771,-0.02539 -0.135417,-0.05078 -0.02539,-0.0085 -0.05078,-0.01693 -0.01693,-0.0085 -0.04232,-0.01693 -0.01693,-0.0085 -0.03385,-0.01693 -0.06771,-0.02539 -0.135416,-0.05078 -0.06771,-0.02539 -0.126954,-0.05078 -0.465494,-0.186198 -0.829427,-0.457032 -0.118489,-0.0931 -0.228515,-0.186198 -0.05078,-0.05078 -0.110026,-0.101562 -0.05078,-0.05924 -0.0931,-0.110026 z"
     id="text2"
     style="font-size:17.3333px;font-family:Lavi;-inkscape-font-specification:Lavi;text-anchor:middle"
     aria-label="S" />
  <path
     d="m 49.727864,64.524088 q -0.04232,4.113282 -0.956381,5.13737 -0.194661,0.220052 -0.397786,0.220052 -0.203125,0 -0.363932,-0.05078 -0.152344,-0.05078 -0.279297,-0.152344 -0.203125,-0.160807 -0.203125,-0.397786 0,-0.0931 0.03385,-0.203125 0.677083,-2.403646 0.753255,-6.897787 0,-0.05078 0,-0.101562 0,-0.592448 0.194662,-0.78711 0.211588,-0.211588 0.465494,-0.211588 0.253907,0 0.423178,0.08463 0.16927,0.08464 0.245442,0.270834 l 1.421875,2.513671 q 0,0.01693 0.05078,0.101563 0.05078,0.07617 0.118489,0.177734 0.06771,0.101563 0.135417,0.203125 0.07617,0.101563 0.118489,0.152344 l 0.06771,0.07617 q 0.26237,-0.26237 0.677083,-0.651693 0.423177,-0.397786 0.888672,-0.8125 0.473958,-0.423177 0.95638,-0.829427 0.482422,-0.414713 0.880209,-0.719401 0.110026,-0.05078 0.211588,-0.0931 0.101563,-0.05078 0.211589,-0.05078 0.321614,0 0.516276,0.203125 0.135416,0.14388 0.177734,0.330078 v 0.0085 q 0.01693,0.08463 0.01693,0.16927 0,0.160808 -0.01693,1.946615 0,4.434896 -0.95638,5.501302 -0.194662,0.220052 -0.397787,0.220052 -0.203125,0 -0.363932,-0.05078 -0.152344,-0.05078 -0.279297,-0.152344 -0.203125,-0.160807 -0.203125,-0.397786 0,-0.0931 0.03385,-0.203125 0.550131,-1.963542 0.702474,-5.315104 -0.160807,0.126953 -0.330078,0.262369 -0.440104,0.363933 -0.854817,0.753256 -0.414714,0.389323 -1.760417,2.141276 -1.371094,-1.751953 -1.557292,-1.963542 l -0.372396,-0.423177 q -0.0085,0 -0.0085,-0.0085 z m 11.815105,-1.371093 q -0.279297,0 -0.609375,0.05924 -0.321615,0.05078 -0.64323,0.160808 -0.321614,0.101562 -0.626302,0.262369 -0.304687,0.152344 -0.533203,0.363933 -0.228516,0.203125 -0.372396,0.457031 -0.135416,0.245443 -0.135416,0.541667 0.126953,0 0.524739,-0.0085 0.40625,-0.01693 0.93099,-0.04232 0.533203,-0.03385 1.108724,-0.07617 0.575521,-0.05078 1.057943,-0.11849 0.490885,-0.07617 0.804036,-0.169271 0.313151,-0.0931 0.313151,-0.220052 0,-0.363932 -0.203125,-0.600911 -0.194661,-0.23698 -0.482422,-0.372396 -0.279297,-0.135417 -0.592448,-0.186198 -0.313151,-0.05078 -0.541666,-0.05078 z m -4.612631,2.445963 q 0,-0.871745 0.372396,-1.616536 0.372396,-0.753256 1.007162,-1.303386 0.634765,-0.55013 1.464192,-0.863281 0.837891,-0.321615 1.751953,-0.321615 0.634766,0 1.261068,0.152344 0.626302,0.14388 1.125651,0.482422 0.499349,0.338542 0.804037,0.888672 0.313151,0.55013 0.313151,1.345703 0,0.397787 -0.152344,0.710938 -0.152344,0.313151 -0.40625,0.55013 -0.253906,0.236979 -0.583984,0.40625 -0.330078,0.160807 -0.694011,0.270833 -0.363932,0.110026 -0.736328,0.169271 -0.372396,0.05925 -0.702474,0.07617 l -3.046875,0.169271 V 66.75 q 0,0.423177 0.203125,0.727864 0.203125,0.304688 0.516276,0.507813 0.313151,0.203125 0.685547,0.304688 0.372396,0.0931 0.719401,0.0931 0.423177,0 0.787109,-0.152343 0.372396,-0.152344 0.719402,-0.330078 0.347005,-0.186198 0.685546,-0.338542 0.347006,-0.152344 0.710938,-0.152344 0.347005,0 0.592448,0.203125 0.245443,0.194662 0.245443,0.567057 0,0.347006 -0.211589,0.626303 -0.203125,0.270833 -0.533203,0.490885 -0.330078,0.211589 -0.753255,0.363932 -0.414714,0.152344 -0.829427,0.253907 -0.414714,0.0931 -0.795573,0.135416 -0.38086,0.05078 -0.64323,0.05078 -0.973307,0 -1.701172,-0.363933 -0.727864,-0.372396 -1.210286,-0.990234 -0.482422,-0.626302 -0.727865,-1.438802 -0.236979,-0.820964 -0.236979,-1.709636 z m 9.191407,-2.69987 q -0.14388,0 -0.245443,-0.06771 -0.101562,-0.07617 -0.16927,-0.177734 -0.06771,-0.110026 -0.101563,-0.23698 -0.03385,-0.126953 -0.03385,-0.236979 0,-0.101562 0.03385,-0.220052 0.03385,-0.118489 0.101563,-0.220052 0.06771,-0.101562 0.152343,-0.169271 0.0931,-0.06771 0.211589,-0.06771 h 6.432292 q 0.126953,0 0.380859,-0.0085 0.126953,0 0.26237,0 0.14388,-0.0085 0.296224,0 0.304687,0.0085 0.609375,0.05078 0.313151,0.04232 0.567057,0.14388 0.253906,0.101562 0.414714,0.279297 0.169271,0.177734 0.169271,0.457031 0,0.304687 -0.194662,0.516276 -0.186198,0.211589 -0.507812,0.211589 -0.583985,0 -1.167969,-0.07617 -0.575521,-0.07617 -1.176432,-0.07617 L 70.79362,62.97526 v 1.184896 q 0,4.434896 -0.95638,5.501302 -0.194661,0.220052 -0.397786,0.220052 -0.203125,0 -0.363933,-0.05078 -0.152344,-0.05078 -0.279297,-0.152344 -0.203125,-0.160807 -0.203125,-0.397786 0,-0.08463 0.03386,-0.203125 0.617838,-2.192057 0.736328,-6.127604 z m 16.597006,0.169271 q -0.177734,-0.05925 -0.922526,-0.05925 -3.825521,0 -3.833984,2.928386 0,1.049479 0.236979,1.540364 0.236979,0.482422 0.685547,0.829428 0.448567,0.347005 0.947916,0.347005 0.964844,0 1.828125,-0.744792 0.871745,-0.744792 1.024089,-1.650391 z m 0,2.55599 z m -5.645182,3.266927 q -0.397787,-0.592448 -0.575521,-1.36263 -0.177735,-0.770183 -0.177735,-1.802735 0,-1.041015 0.40625,-1.921224 0.78711,-1.718099 2.869141,-2.268229 1.015625,-0.270833 2.00586,-0.270833 0.01693,0 0.02539,0 0.14388,0.0085 0.270834,0.0085 0.761718,0 0.888671,-0.02539 0.03386,-0.0085 0.07617,-0.0085 0.143881,0 0.38086,0.07617 l 0.28776,0.08463 q 0.236979,0.06771 0.473959,0.26237 0.245442,0.186198 0.245442,0.372396 l 0.0931,4.291016 q 0.0085,0.482422 0.220052,1.184896 0.38086,1.294922 0.38086,1.718099 0,0.414713 -0.220052,0.668619 -0.220052,0.253907 -0.583985,0.253907 -0.651693,0 -0.871745,-0.575521 -0.177734,-0.440104 -0.279297,-0.829427 -0.770182,0.651693 -1.277994,0.922526 -1.007162,0.524739 -1.963542,0.524739 -0.95638,0 -1.616537,-0.355468 -0.651692,-0.355469 -1.057942,-0.947917 z m 9.18294,0.617839 v -1.472657 q 0,-1.895833 0.914063,-3.630859 0.914063,-1.74349 2.784505,-3.393881 0.06771,-0.05924 0.253907,0.05078 0.194661,0.101562 0.457031,0.338541 0.26237,0.228516 0.567057,0.575521 0.313151,0.338542 0.626302,0.753255 0.321615,0.414714 0.609375,0.888672 0.296224,0.465495 0.52474,0.947917 0.228515,0.473958 0.363932,0.947917 0.135417,0.473958 0.135417,0.905599 0,0.177734 0.01693,0.533203 0.01693,0.355469 0.01693,0.787109 0,0.423177 -0.04232,0.871745 -0.03385,0.440104 -0.152343,0.8125 -0.110027,0.363932 -0.321615,0.592448 -0.203125,0.236979 -0.541667,0.236979 -0.338541,0 -0.567057,-0.220052 -0.220052,-0.220052 -0.220052,-0.567057 0,-0.38086 0.03385,-0.753255 0.03385,-0.372396 0.07617,-0.744792 0.05078,-0.380859 0.08463,-0.753255 0.03385,-0.372396 0.03385,-0.753256 0,-0.313151 -0.126953,-0.69401 -0.126953,-0.380859 -0.330078,-0.761719 -0.194661,-0.380859 -0.43164,-0.727864 -0.23698,-0.355469 -0.457032,-0.609375 -0.220052,-0.253907 -0.397786,-0.372396 -0.169271,-0.126953 -0.245443,-0.05078 -0.414713,0.43164 -0.736328,0.98177 -0.321615,0.550131 -0.567057,1.151042 -0.245443,0.600912 -0.414714,1.21875 -0.169271,0.609375 -0.270833,1.176432 -0.101563,0.558594 -0.14388,1.04948 -0.03386,0.40625 -0.03386,0.710937 v 0.11849 q -0.02539,0.110026 -0.101562,0.211588 -0.07617,0.101563 -0.186198,0.169271 -0.110026,0.06771 -0.236979,0.110026 -0.11849,0.04232 -0.228516,0.04232 -0.304687,0 -0.482422,-0.194662 -0.177734,-0.203125 -0.26237,-0.482421 z m 8.54818,0 v -1.472657 q 0,-1.895833 0.914063,-3.630859 0.914062,-1.74349 2.784505,-3.393881 0.06771,-0.05924 0.253906,0.05078 0.194662,0.101562 0.457031,0.338541 0.26237,0.228516 0.567058,0.575521 0.313148,0.338542 0.626298,0.753255 0.32162,0.414714 0.60938,0.888672 0.29622,0.465495 0.52474,0.947917 0.22851,0.473958 0.36393,0.947917 0.13542,0.473958 0.13542,0.905599 0,0.177734 0.0169,0.533203 0.0169,0.355469 0.0169,0.787109 0,0.423177 -0.0423,0.871745 -0.0339,0.440104 -0.15234,0.8125 -0.11003,0.363932 -0.32161,0.592448 -0.20313,0.236979 -0.54167,0.236979 -0.33854,0 -0.56706,-0.220052 -0.22005,-0.220052 -0.22005,-0.567057 0,-0.38086 0.0339,-0.753255 0.0339,-0.372396 0.0762,-0.744792 0.0508,-0.380859 0.0846,-0.753255 0.0339,-0.372396 0.0339,-0.753256 0,-0.313151 -0.12696,-0.69401 -0.12695,-0.380859 -0.33008,-0.761719 -0.194658,-0.380859 -0.431637,-0.727864 -0.236979,-0.355469 -0.457031,-0.609375 -0.220052,-0.253907 -0.397787,-0.372396 -0.16927,-0.126953 -0.245442,-0.05078 -0.414714,0.43164 -0.736328,0.98177 -0.321615,0.550131 -0.567058,1.151042 -0.245442,0.600912 -0.414713,1.21875 -0.169271,0.609375 -0.270834,1.176432 -0.101562,0.558594 -0.14388,1.04948 -0.03385,0.40625 -0.03385,0.710937 v 0.11849 q -0.02539,0.110026 -0.101563,0.211588 -0.07617,0.101563 -0.186197,0.169271 -0.110026,0.06771 -0.23698,0.110026 -0.118489,0.04232 -0.228515,0.04232 -0.304688,0 -0.482422,-0.194662 -0.177735,-0.203125 -0.26237,-0.482421 z"
     id="text3"
     style="font-size:17.3333px;font-family:Lavi;-inkscape-font-specification:Lavi;text-anchor:middle"
     aria-label="металл" />
  <path
     d="m 221.08561,49.018229 v -0.0085 -0.0085 -0.0085 l 0.58399,-2.166667 q 0.26237,-0.939453 0.39778,-1.921224 0.14388,-0.990235 0.21159,-1.997396 0.0677,-1.007162 0.0846,-2.014323 0.008,-0.95638 0.008,-1.895834 h -0.0339 q -0.0677,0 -0.14388,0.0085 -0.0677,0 -0.13542,0.0085 -0.0677,0.0085 -0.13542,0.02539 -0.0677,0.0085 -0.12695,0.02539 -0.27083,0.06771 -0.5332,0.14388 -0.26237,0.08463 -0.50782,0.152344 -0.26237,0.06771 -0.55013,0.06771 -0.35547,0 -0.55859,-0.186198 -0.20313,-0.186198 -0.20313,-0.55013 0,-0.380859 0.33855,-0.626302 0.31315,-0.236979 0.80403,-0.397787 0.0592,-0.01693 0.11849,-0.03385 0.0677,-0.01693 0.12696,-0.03385 0.0677,-0.01693 0.13541,-0.03385 0.0677,-0.01693 0.13542,-0.03385 0.27083,-0.05924 0.56706,-0.101563 0.60091,-0.0931 1.17643,-0.135417 0.58398,-0.04232 1.07487,-0.05078 0.24544,-0.0085 0.42318,-0.0085 0.0931,0 0.16927,0 0.0846,0 0.15234,0 0.55859,0 1.21875,0.05078 0.66016,0.05078 1.31185,0.169271 0.33008,0.06771 0.65169,0.152344 0.16081,0.04232 0.31315,0.0931 0.15235,0.05078 0.30469,0.110026 0.0339,0.0085 0.0592,0.02539 0.0339,0.0085 0.0592,0.02539 0.0339,0.0085 0.0592,0.02539 0.0254,0.0085 0.0508,0.02539 0.0339,0.0085 0.0677,0.02539 0.0339,0.01693 0.0677,0.03385 0.0339,0.01693 0.0677,0.03385 0.0339,0.01693 0.0677,0.03385 0.0339,0.01693 0.0677,0.03385 0.13541,0.07617 0.26237,0.160808 0.0592,0.04232 0.11849,0.0931 0.0592,0.04232 0.11849,0.08464 0.47396,0.372396 0.75325,0.914063 0.2793,0.541666 0.2793,1.269531 0,0.194661 -0.0254,0.380859 -0.0254,0.177735 -0.0762,0.347005 -0.0423,0.169271 -0.11849,0.321615 -0.0677,0.152344 -0.16081,0.28776 -0.0592,0.0931 -0.13542,0.177735 -0.0677,0.07617 -0.14388,0.160807 -0.15234,0.160807 -0.32161,0.296224 -0.16927,0.126953 -0.36393,0.245443 -0.28776,0.169271 -0.61784,0.28776 -0.16081,0.05925 -0.33008,0.11849 -0.16927,0.05078 -0.34701,0.0931 -0.0592,0.01693 -0.11849,0.03385 -0.0592,0.0085 -0.11849,0.02539 -0.0592,0.0085 -0.11849,0.01693 -0.0592,0.0085 -0.11848,0.02539 -0.0508,0.0085 -0.11003,0.01693 -0.0592,0.0085 -0.11849,0.01693 -0.16927,0.02539 -0.33854,0.04232 -0.16927,0.01693 -0.33854,0.02539 l -2.74219,0.14388 -0.58399,3.690104 q -0.008,0.04232 -0.0254,0.101563 -0.008,0.05078 -0.0169,0.118489 -0.008,0.06771 -0.0254,0.152344 -0.0339,0.245443 -0.0931,0.533203 -0.0592,0.287761 -0.15235,0.575521 -0.0931,0.304688 -0.23698,0.55013 -0.14388,0.253907 -0.33854,0.414714 -0.21159,0.169271 -0.48242,0.169271 -0.17773,0 -0.32161,-0.05078 -0.0677,-0.02539 -0.13542,-0.06771 -0.0592,-0.04232 -0.11003,-0.0931 -0.0508,-0.05078 -0.0846,-0.110026 -0.0339,-0.06771 -0.0592,-0.14388 -0.0508,-0.14388 -0.0508,-0.313151 z m 5.28972,-10.122396 q -0.49089,-0.05078 -0.93099,-0.05925 -0.44857,-0.0085 -0.76172,-0.0085 -0.008,0 -0.0169,0 -0.008,0 -0.0169,0 h -0.0339 q -0.0169,0 -0.0508,0 -0.008,0 -0.0254,0 -0.008,0 -0.0254,0 l -0.21159,0.0085 q -0.11003,0 -0.1862,0.0085 l -0.0423,0.0085 -0.0169,0.03385 q -0.008,0.194662 -0.0169,0.363933 0,0.0931 -0.008,0.186198 0,0.08463 0,0.16927 -0.008,0.177735 -0.0169,0.347006 -0.008,0.220052 -0.0169,0.457031 0,0.07617 -0.008,0.160807 0,0.07617 -0.008,0.152344 0,0.07617 0,0.152344 -0.008,0.220052 -0.0169,0.423177 0,0.06771 0,0.135417 0,0.05924 0,0.118489 0,0.05078 0,0.101563 v 0.423177 q 0.12695,0 0.27929,0.0085 0.16081,0 0.36394,0 h 0.28776 0.24544 q 0.2539,0 0.5332,-0.0085 0.57552,-0.01693 1.17643,-0.0931 0.29623,-0.04232 0.56706,-0.101563 0.2793,-0.06771 0.52474,-0.152344 0.48242,-0.16927 0.77865,-0.440104 0.0677,-0.06771 0.11849,-0.135416 0.0592,-0.07617 0.0931,-0.160808 0.0423,-0.08463 0.0592,-0.177734 0.0169,-0.0931 0.0169,-0.194662 0,-0.220052 -0.0592,-0.40625 -0.0508,-0.186197 -0.1608,-0.338541 -0.0339,-0.05078 -0.0762,-0.0931 -0.0423,-0.05078 -0.0931,-0.0931 -0.0423,-0.05078 -0.0931,-0.0931 -0.0169,-0.01693 -0.0339,-0.02539 -0.0169,-0.01693 -0.0339,-0.02539 -0.0169,-0.01693 -0.0339,-0.03385 -0.0508,-0.04232 -0.11002,-0.07617 -0.0254,-0.01693 -0.0592,-0.03386 -0.0254,-0.01693 -0.0592,-0.03385 -0.1862,-0.101562 -0.40625,-0.177734 -0.21159,-0.07617 -0.44857,-0.135417 -0.16081,-0.03385 -0.32162,-0.06771 -0.0846,-0.01693 -0.16927,-0.02539 -0.0762,-0.01693 -0.1608,-0.02539 -0.0762,-0.01693 -0.15235,-0.02539 -0.0762,-0.0085 -0.1608,-0.01693 z"
     id="text4"
     style="font-size:17.3333px;font-family:Lavi;-inkscape-font-specification:Lavi;text-anchor:middle"
     aria-label="P" />
  <g
     id="text5"
     style="font-size:17.3333px;font-family:Lavi;-inkscape-font-specification:Lavi;text-anchor:middle"
     aria-label="органическое&#10;тело">
    <path
       d="m 174.88737,66.292969 q 0,0.600911 0.12695,1.032552 0.12695,0.43164 0.41471,0.710937 0.28777,0.270834 0.75326,0.40625 0.46549,0.126953 1.13411,0.126953 0.60092,0 1.07487,-0.270833 0.47396,-0.279297 0.80404,-0.710937 0.33008,-0.440105 0.50781,-0.981771 0.17774,-0.550131 0.17774,-1.091797 0,-0.507813 -0.12696,-0.947917 -0.11848,-0.440104 -0.38932,-0.761719 -0.26237,-0.330078 -0.69401,-0.516276 -0.42318,-0.186198 -1.03255,-0.186198 -0.54167,0 -1.00716,0.211589 -0.45703,0.211588 -0.8125,0.567057 -0.35547,0.355469 -0.60091,0.820964 -0.23698,0.457031 -0.33008,0.947916 z m -1.72656,-0.126954 q 0,-0.922526 0.347,-1.785807 0.35547,-0.863281 0.96484,-1.531901 0.60938,-0.66862 1.43881,-1.066406 0.82942,-0.40625 1.79427,-0.40625 0.99023,0 1.70963,0.338541 0.72787,0.338542 1.19336,0.914063 0.47396,0.575521 0.70248,1.33724 0.22851,0.761718 0.22851,1.616536 0,0.414714 -0.10156,0.922526 -0.10156,0.499349 -0.29622,1.015625 -0.19467,0.516276 -0.48243,1.007162 -0.28776,0.490885 -0.66015,0.871745 -0.36393,0.372395 -0.82097,0.600911 -0.44856,0.228516 -0.96484,0.228516 h -1.59961 q -0.92253,0 -1.58268,-0.355469 -0.65169,-0.363932 -1.06641,-0.939453 -0.41471,-0.583985 -0.60937,-1.311849 -0.19466,-0.727865 -0.19466,-1.45573 z m 11.45117,-1.641927 -0.0254,0.110026 -0.008,0.07617 q -0.008,0.05925 -0.0254,0.279297 -0.0169,0.211589 -0.0508,0.507813 -0.0254,0.28776 -0.0677,0.626302 -0.0339,0.330078 -0.0592,0.626302 -0.0254,0.28776 -0.0508,0.507812 -0.0254,0.211589 -0.0254,0.270834 0.26237,0.08464 0.45703,0.126953 0.19466,0.04232 0.36393,0.06771 0.17773,0.01693 0.35547,0.04232 0.1862,0.01693 0.43164,0.05925 0.39779,0.05924 0.84635,0.0931 0.1862,0.0085 0.36394,0.01693 0.26237,0 0.52474,-0.02539 0.4401,-0.04232 0.85481,-0.160807 0.42318,-0.126953 0.76172,-0.355469 0.33854,-0.236979 0.57552,-0.592448 0.24545,-0.355469 0.33008,-0.854818 0.0423,-0.228515 0.0423,-0.448567 0,-0.135417 -0.0169,-0.26237 -0.0423,-0.338542 -0.1862,-0.609375 -0.14388,-0.279297 -0.39778,-0.457031 -0.25391,-0.186198 -0.61784,-0.253907 -0.20313,-0.03385 -0.59245,-0.05924 -0.38932,-0.03386 -0.87174,-0.03386 -0.47396,0 -0.97331,0.03386 -0.49935,0.03385 -0.92253,0.110026 -0.41471,0.07617 -0.70247,0.220052 -0.2793,0.135416 -0.31315,0.338541 z m -1.70117,-2.555989 q 0.0677,-0.347006 0.32161,-0.507813 0.19466,-0.118489 0.43164,-0.118489 0.0762,0 0.15234,0.0085 0.31316,0.05925 0.45704,0.169271 0.14388,0.110026 0.20312,0.270833 0.0677,0.160808 0.0846,0.355469 0.0169,0.194662 0.0677,0.423177 1.14258,-0.355469 2.31055,-0.372396 0.11003,0 0.21159,-0.0085 1.06641,0 2.16667,0.194661 0.66862,0.11849 1.18489,0.482422 0.51628,0.355469 0.83789,0.880208 0.32162,0.516277 0.44011,1.159506 0.0592,0.321614 0.0592,0.643229 0,0.321615 -0.0592,0.660156 -0.15235,0.880209 -0.66862,1.565755 -0.51628,0.685547 -1.24414,1.125652 -0.72787,0.457031 -1.57422,0.626302 -0.42318,0.08463 -0.82943,0.08463 h -0.0762 q -0.39779,0 -0.79557,-0.06771 l -2.42058,-0.330078 q -0.0762,0.414713 -0.11849,0.626302 -0.0339,0.211588 -0.0508,0.321614 -0.0169,0.110026 -0.0254,0.169271 -0.008,0.06771 -0.0254,0.177735 -0.0169,0.110026 -0.0592,0.321614 -0.0339,0.211589 -0.11003,0.626302 -0.0169,0.0931 -0.0592,0.321615 -0.0339,0.236979 -0.0846,0.490885 -0.0423,0.26237 -0.0846,0.490886 -0.0339,0.236979 -0.0508,0.321614 -0.12695,0.236979 -0.35547,0.347006 -0.22005,0.110026 -0.45703,0.06771 -0.30468,-0.05924 -0.47395,-0.270834 -0.16928,-0.211588 -0.19467,-0.507812 0.0423,-0.220052 0.0931,-0.473958 0.0592,-0.245443 0.11003,-0.507813 0.0592,-0.253906 0.11002,-0.507812 0.0508,-0.253907 0.0762,-0.482422 0.0339,-0.338542 0.0846,-0.854818 0.0508,-0.52474 0.10156,-1.117188 0.0593,-0.600911 0.11003,-1.210286 0.0592,-0.617839 0.10156,-1.134115 0.0423,-0.516276 0.0677,-0.871745 0.0254,-0.363932 0.0339,-0.448567 l -0.0169,-3.029948 q 0,-0.01693 0.008,-0.04232 0,-0.01693 0,-0.03385 0.008,-0.01693 0.008,-0.03385 z m 12.22981,1.447265 0.0423,0.744792 q 0.008,0.160807 0.008,0.338542 0,0.01693 0,0.03385 0,0.01693 0,0.03385 0,0.01693 0,0.03385 0,0.66862 -0.15235,1.625 -0.21159,1.396485 -0.8125,3.436198 -0.0677,0.220052 -0.39778,0.220052 -0.20313,0 -0.36394,-0.05078 -0.15234,-0.05078 -0.27929,-0.152344 -0.20313,-0.160807 -0.20313,-0.397786 0,-0.08463 0.0339,-0.203125 0.4401,-1.548828 0.6263,-3.969401 0.10156,-1.362631 0.12695,-2.928386 0.0762,-0.28776 0.59245,-0.423177 0.28776,-0.07617 0.65169,-0.07617 0.29623,0 0.64323,0.05078 0.36393,0 0.7194,-0.02539 0.35547,-0.03385 0.71094,-0.06771 0.36393,-0.04232 0.7194,-0.06771 0.35547,-0.03385 0.7194,-0.03385 0.16927,0 0.32162,0.03385 0.15234,0.03385 0.27083,0.11849 0.11849,0.07617 0.1862,0.211588 0.0762,0.126953 0.0762,0.321615 0,0.507812 -0.27083,0.702474 -0.22852,0.160807 -0.52474,0.186198 z m 11.57813,-0.347005 q -0.17773,-0.05925 -0.92253,-0.05925 -3.82552,0 -3.83398,2.928386 0,1.049479 0.23698,1.540364 0.23698,0.482422 0.68555,0.829428 0.44856,0.347005 0.94791,0.347005 0.96485,0 1.82813,-0.744792 0.87174,-0.744792 1.02409,-1.650391 z m 0,2.55599 z m -5.64518,3.266927 q -0.39779,-0.592448 -0.57552,-1.36263 -0.17774,-0.770183 -0.17774,-1.802735 0,-1.041015 0.40625,-1.921224 0.78711,-1.718099 2.86914,-2.268229 1.01563,-0.270833 2.00586,-0.270833 0.0169,0 0.0254,0 0.14388,0.0085 0.27084,0.0085 0.76171,0 0.88867,-0.02539 0.0339,-0.0085 0.0762,-0.0085 0.14388,0 0.38086,0.07617 l 0.28776,0.08463 q 0.23698,0.06771 0.47396,0.26237 0.24544,0.186198 0.24544,0.372396 l 0.0931,4.291016 q 0.008,0.482422 0.22005,1.184896 0.38086,1.294922 0.38086,1.718099 0,0.414713 -0.22005,0.668619 -0.22005,0.253907 -0.58399,0.253907 -0.65169,0 -0.87174,-0.575521 -0.17773,-0.440104 -0.2793,-0.829427 -0.77018,0.651693 -1.27799,0.922526 -1.00716,0.524739 -1.96354,0.524739 -0.95638,0 -1.61654,-0.355468 -0.65169,-0.355469 -1.05794,-0.947917 z m 11.06185,-2.894531 q -0.16927,2.84375 -0.9056,3.664713 -0.19466,0.220052 -0.39779,0.220052 -0.20312,0 -0.36393,-0.05078 -0.15235,-0.05078 -0.2793,-0.152344 -0.20312,-0.160807 -0.20312,-0.397786 0,-0.0931 0.0339,-0.203125 0.67708,-2.403646 0.75326,-6.897787 0.0762,-0.28776 0.22005,-0.423177 0.15234,-0.135417 0.44857,-0.135417 0.60937,0 0.74479,0.423178 v 2.115885 q 0,0.448568 -0.008,0.854818 0.17774,-0.05924 0.41472,-0.110026 l 1.50651,-0.05078 q 1.08333,0.11849 1.625,0.220053 0.10156,-1.320313 0.12695,-2.894532 0.0762,-0.28776 0.22005,-0.423177 0.15235,-0.135417 0.44857,-0.135417 0.60938,0 0.74479,0.423178 v 2.115885 q 0,4.434896 -0.95638,5.501302 -0.19466,0.220052 -0.39778,0.220052 -0.20313,0 -0.36394,-0.05078 -0.15234,-0.05078 -0.27929,-0.152344 -0.20313,-0.160807 -0.20313,-0.397786 0,-0.0931 0.0339,-0.203125 0.33854,-1.201823 0.52474,-2.928386 -0.38086,0.07617 -0.99024,0.07617 -0.47396,0 -0.75325,-0.0085 l -1.48112,-0.160808 q -0.14388,-0.02539 -0.26237,-0.05924 z m 8.20117,-4.045573 q 0,0.685546 -0.0762,1.36263 -0.0762,0.66862 -0.0762,1.354167 -0.008,0.203125 -0.008,0.558593 v 0.11849 q 0,0.304687 0.0169,0.660156 0.0169,0.423177 0.0846,0.854818 0.0677,0.423177 0.20313,0.778646 0.14388,0.347005 0.36393,0.575521 0.22852,0.220052 0.57552,0.220052 0.27084,0 0.53321,-0.186198 0.26237,-0.186198 0.49934,-0.482422 0.23698,-0.296224 0.44011,-0.651693 0.21159,-0.363932 0.37239,-0.710937 0.16928,-0.347006 0.28777,-0.634766 0.12695,-0.296224 0.18619,-0.448568 0.0592,-0.126953 0.15235,-0.389323 0.10156,-0.262369 0.22005,-0.583984 0.12695,-0.330078 0.26237,-0.69401 0.13542,-0.363933 0.25391,-0.685547 0.11848,-0.330079 0.21158,-0.592448 0.0931,-0.26237 0.13542,-0.389323 0.11003,-0.270834 0.28776,-0.389323 0.17774,-0.11849 0.47396,-0.11849 0.35547,0 0.55859,0.186198 0.20313,0.186198 0.20313,0.541667 v 0.211588 q -0.0254,0.110026 -0.0846,0.347006 -0.0508,0.228515 -0.11849,0.524739 -0.0677,0.296224 -0.14388,0.617839 -0.0677,0.321614 -0.13541,0.617838 -0.0592,0.296224 -0.11003,0.533203 -0.0423,0.228516 -0.0592,0.338542 -0.0169,0.08464 -0.0339,0.321615 -0.0169,0.236979 -0.0423,0.567057 -0.0254,0.321615 -0.0677,0.710938 -0.0423,0.389323 -0.10156,0.778645 -0.0592,0.389323 -0.13541,0.761719 -0.0762,0.363933 -0.1862,0.651693 -0.11003,0.279297 -0.24544,0.457031 -0.13542,0.169271 -0.31316,0.169271 -0.0846,0 -0.21158,-0.02539 -0.11849,-0.02539 -0.23698,-0.07617 -0.11003,-0.05924 -0.19467,-0.135417 -0.0846,-0.08464 -0.0846,-0.194662 v -1.159505 q -0.26237,0.0931 -0.45703,0.253906 -0.19466,0.160808 -0.36393,0.355469 -0.16928,0.194662 -0.33008,0.397787 -0.16081,0.194661 -0.36393,0.363932 -0.19467,0.160807 -0.44857,0.26237 -0.25391,0.101562 -0.60938,0.101562 -0.64323,0 -1.10026,-0.253906 -0.44857,-0.26237 -0.76172,-0.685547 -0.30468,-0.431641 -0.48242,-0.981771 -0.17773,-0.55013 -0.27083,-1.134114 -0.0931,-0.583985 -0.11849,-1.151042 -0.0254,-0.575521 -0.0254,-1.049479 0,-0.194662 -0.0254,-0.52474 -0.0254,-0.338542 -0.0339,-0.727864 v -0.194662 q 0,-0.296224 0.0169,-0.600911 0.0254,-0.40625 0.12695,-0.727865 0.11003,-0.321615 0.31315,-0.52474 0.20313,-0.211588 0.55013,-0.211588 0.29623,0 0.50782,0.220052 0.22005,0.211588 0.22005,0.541667 z m 11.76432,5.145833 -0.28776,-0.02539 q -0.84635,-0.05078 -1.88737,-0.372395 -0.71094,-0.220052 -1.21029,-0.592448 -0.54166,-0.40625 -0.89713,-1.024089 -0.35547,-0.617838 -0.35547,-1.548828 0,-0.854818 0.40625,-1.531901 0.42318,-0.567057 0.78711,-0.567057 0.0423,0 0.19466,0.05078 0.3724,0.126953 0.3724,0.43164 0,0.186198 -0.11003,0.423178 -0.30469,0.668619 -0.31315,1.227213 0,0.01693 0,0.02539 0,0.524739 0.29622,0.854817 0.2793,0.313152 0.77018,0.541667 0.53321,0.253906 1.64193,0.440104 0.34701,0.05925 0.71094,0.0931 0.0846,-1.50651 0.11003,-3.292318 0.0762,-0.355468 0.21158,-0.507812 0.14388,-0.160807 0.43164,-0.160807 0.008,0 0.0169,0 0.56706,0 0.69401,0.507812 v 2.539063 q 0,5.315104 -0.91406,6.601563 -0.1862,0.262369 -0.38086,0.262369 -0.20312,0 -0.34701,-0.05924 -0.15234,-0.06771 -0.27083,-0.186198 -0.19466,-0.203125 -0.19466,-0.473959 0,-0.110026 0.0339,-0.245442 0.31316,-1.430339 0.49089,-3.410808 z m 7.39714,-3.94401 q -0.2793,0 -0.60938,0.05924 -0.32161,0.05078 -0.64323,0.160808 -0.32161,0.101562 -0.6263,0.262369 -0.30469,0.152344 -0.5332,0.363933 -0.22852,0.203125 -0.3724,0.457031 -0.13542,0.245443 -0.13542,0.541667 0.12696,0 0.52474,-0.0085 0.40625,-0.01693 0.93099,-0.04232 0.53321,-0.03385 1.10873,-0.07617 0.57552,-0.05078 1.05794,-0.11849 0.49088,-0.07617 0.80404,-0.169271 0.31315,-0.0931 0.31315,-0.220052 0,-0.363932 -0.20313,-0.600911 -0.19466,-0.23698 -0.48242,-0.372396 -0.2793,-0.135417 -0.59245,-0.186198 -0.31315,-0.05078 -0.54166,-0.05078 z m -4.61264,2.445963 q 0,-0.871745 0.3724,-1.616536 0.3724,-0.753256 1.00716,-1.303386 0.63477,-0.55013 1.46419,-0.863281 0.8379,-0.321615 1.75196,-0.321615 0.63476,0 1.26107,0.152344 0.6263,0.14388 1.12565,0.482422 0.49935,0.338542 0.80403,0.888672 0.31315,0.55013 0.31315,1.345703 0,0.397787 -0.15234,0.710938 -0.15234,0.313151 -0.40625,0.55013 -0.25391,0.236979 -0.58398,0.40625 -0.33008,0.160807 -0.69401,0.270833 -0.36394,0.110026 -0.73633,0.169271 -0.3724,0.05925 -0.70248,0.07617 l -3.04687,0.169271 V 66.75 q 0,0.423177 0.20312,0.727864 0.20313,0.304688 0.51628,0.507813 0.31315,0.203125 0.68555,0.304688 0.37239,0.0931 0.7194,0.0931 0.42317,0 0.78711,-0.152343 0.37239,-0.152344 0.7194,-0.330078 0.347,-0.186198 0.68554,-0.338542 0.34701,-0.152344 0.71094,-0.152344 0.34701,0 0.59245,0.203125 0.24544,0.194662 0.24544,0.567057 0,0.347006 -0.21159,0.626303 -0.20312,0.270833 -0.5332,0.490885 -0.33008,0.211589 -0.75325,0.363932 -0.41472,0.152344 -0.82943,0.253907 -0.41471,0.0931 -0.79557,0.135416 -0.38086,0.05078 -0.64323,0.05078 -0.97331,0 -1.70117,-0.363933 -0.72787,-0.372396 -1.21029,-0.990234 -0.48242,-0.626302 -0.72787,-1.438802 -0.23698,-0.820964 -0.23698,-1.709636 z m 8.50587,-0.253906 q 0,-0.905599 0.2539,-1.641927 0.26237,-0.736328 0.75326,-1.261068 0.49935,-0.52474 1.21875,-0.804036 0.7194,-0.287761 1.65039,-0.287761 0.94792,0 1.85351,0.203125 0.9056,0.203125 1.77735,0.52474 0.55013,0.279297 0.55013,0.888672 0,0.372395 -0.25391,0.600911 -0.2539,0.220052 -0.60091,0.220052 -0.41471,0 -0.82096,-0.0931 -0.39779,-0.0931 -0.80404,-0.203125 -0.39779,-0.118489 -0.8125,-0.211588 -0.40625,-0.101563 -0.82943,-0.101563 -1.07487,0 -1.625,0.507813 -0.54166,0.507812 -0.54166,1.633463 0,0.583985 0.12695,1.125651 0.12695,0.541667 0.40625,0.956381 0.28776,0.40625 0.74479,0.660156 0.45703,0.245443 1.10873,0.245443 0.4401,0 0.82942,-0.160808 0.39779,-0.160807 0.76172,-0.355468 0.3724,-0.194662 0.73633,-0.355469 0.36393,-0.160808 0.75326,-0.160808 0.37239,0 0.6263,0.220053 0.26237,0.211588 0.26237,0.600911 0,0.363932 -0.22006,0.660156 -0.22005,0.296224 -0.57552,0.52474 -0.347,0.228516 -0.79557,0.389323 -0.4401,0.160807 -0.88867,0.270833 -0.44011,0.101563 -0.84636,0.152344 -0.40625,0.05078 -0.67708,0.05078 -1.03255,0 -1.8112,-0.389323 -0.77018,-0.397786 -1.28645,-1.057942 -0.50782,-0.660157 -0.77019,-1.523438 -0.2539,-0.871745 -0.2539,-1.828125 z m 11.07031,-3.207682 q -0.10156,1.421875 -0.11002,1.887369 v 0.313151 q 0.27083,-0.186198 0.58398,-0.440104 0.32161,-0.253906 0.65169,-0.533203 0.33008,-0.28776 0.6517,-0.583984 0.33007,-0.296224 0.6263,-0.567058 0.29622,-0.279297 0.54166,-0.507812 0.24545,-0.236979 0.41472,-0.397787 0.0931,-0.14388 0.23698,-0.14388 h 0.26237 q 0.36393,0 0.57552,0.169271 0.21159,0.169271 0.21159,0.541667 0,0.169271 -0.0169,0.270833 -0.0169,0.0931 -0.12695,0.228516 -0.0677,0.05924 -0.31315,0.270833 -0.23698,0.211589 -0.57553,0.507813 -0.33007,0.28776 -0.71093,0.626302 -0.38086,0.338541 -0.72787,0.651692 -0.347,0.313151 -0.61784,0.575521 -0.27083,0.253906 -0.38086,0.389323 0.60938,0.321615 1.0918,0.694011 0.48242,0.363932 0.87175,0.795573 0.39778,0.43164 0.72786,0.939453 0.33008,0.507812 0.63477,1.117187 v 0.304688 q 0,0.338541 -0.17774,0.55013 -0.17773,0.211589 -0.54166,0.211589 -0.20313,0 -0.36394,-0.05078 -0.1608,-0.05925 -0.27929,-0.26237 -0.16927,-0.330078 -0.38086,-0.685546 -0.20313,-0.363933 -0.44857,-0.702474 -0.24544,-0.347006 -0.5332,-0.651693 -0.28776,-0.313151 -0.62631,-0.541667 -0.33007,-0.236979 -0.7194,-0.372396 -0.38086,-0.14388 -0.8125,-0.14388 h -0.0339 q -0.0339,0.11849 -0.0677,0.414714 -0.0254,0.28776 -0.0677,0.651692 -0.0423,0.355469 -0.11849,0.744792 -0.0677,0.389323 -0.20312,0.710938 -0.13542,0.321614 -0.34701,0.533203 -0.20312,0.203125 -0.51627,0.203125 -0.3724,0 -0.55013,-0.245443 -0.16928,-0.245443 -0.16928,-0.592448 v -0.296224 l 0.53321,-3.029948 q 0.0762,-0.06771 0.11849,-0.516276 l 0.40625,-4.316406 q 0,-0.203125 0.0423,-0.287761 0.0592,-0.118489 0.1608,-0.203125 0.0762,-0.05078 0.23698,-0.135416 0.44011,-0.169271 0.69401,-0.169271 0.34701,0 0.36393,0.313151 v 0.194661 q 0,0.677084 -0.10156,1.565756 z m 7.21093,4.155599 q 0,0.600911 0.12696,1.032552 0.12695,0.43164 0.41471,0.710937 0.28776,0.270834 0.75326,0.40625 0.46549,0.126953 1.13411,0.126953 0.60091,0 1.07487,-0.270833 0.47396,-0.279297 0.80404,-0.710937 0.33008,-0.440105 0.50781,-0.981771 0.17773,-0.550131 0.17773,-1.091797 0,-0.507813 -0.12695,-0.947917 -0.11849,-0.440104 -0.38932,-0.761719 -0.26237,-0.330078 -0.69401,-0.516276 -0.42318,-0.186198 -1.03255,-0.186198 -0.54167,0 -1.00717,0.211589 -0.45703,0.211588 -0.8125,0.567057 -0.35546,0.355469 -0.60091,0.820964 -0.23698,0.457031 -0.33008,0.947916 z m -1.72656,-0.126954 q 0,-0.922526 0.34701,-1.785807 0.35547,-0.863281 0.96484,-1.531901 0.60938,-0.66862 1.4388,-1.066406 0.82943,-0.40625 1.79427,-0.40625 0.99024,0 1.70964,0.338541 0.72786,0.338542 1.19336,0.914063 0.47396,0.575521 0.70247,1.33724 0.22852,0.761718 0.22852,1.616536 0,0.414714 -0.10156,0.922526 -0.10157,0.499349 -0.29623,1.015625 -0.19466,0.516276 -0.48242,1.007162 -0.28776,0.490885 -0.66016,0.871745 -0.36393,0.372395 -0.82096,0.600911 -0.44857,0.228516 -0.96484,0.228516 h -1.59961 q -0.92253,0 -1.58269,-0.355469 -0.65169,-0.363932 -1.0664,-0.939453 -0.41472,-0.583985 -0.60938,-1.311849 -0.19466,-0.727865 -0.19466,-1.45573 z m 13.63477,-3.01302 q -0.27929,0 -0.60937,0.05924 -0.32162,0.05078 -0.64323,0.160808 -0.32162,0.101562 -0.6263,0.262369 -0.30469,0.152344 -0.53321,0.363933 -0.22851,0.203125 -0.37239,0.457031 -0.13542,0.245443 -0.13542,0.541667 0.12695,0 0.52474,-0.0085 0.40625,-0.01693 0.93099,-0.04232 0.5332,-0.03385 1.10872,-0.07617 0.57552,-0.05078 1.05795,-0.11849 0.49088,-0.07617 0.80403,-0.169271 0.31315,-0.0931 0.31315,-0.220052 0,-0.363932 -0.20312,-0.600911 -0.19466,-0.23698 -0.48242,-0.372396 -0.2793,-0.135417 -0.59245,-0.186198 -0.31315,-0.05078 -0.54167,-0.05078 z m -4.61263,2.445963 q 0,-0.871745 0.3724,-1.616536 0.37239,-0.753256 1.00716,-1.303386 0.63477,-0.55013 1.46419,-0.863281 0.83789,-0.321615 1.75196,-0.321615 0.63476,0 1.26106,0.152344 0.62631,0.14388 1.12565,0.482422 0.49935,0.338542 0.80404,0.888672 0.31315,0.55013 0.31315,1.345703 0,0.397787 -0.15234,0.710938 -0.15235,0.313151 -0.40625,0.55013 -0.25391,0.236979 -0.58399,0.40625 -0.33007,0.160807 -0.69401,0.270833 -0.36393,0.110026 -0.73632,0.169271 -0.3724,0.05925 -0.70248,0.07617 l -3.04687,0.169271 V 66.75 q 0,0.423177 0.20312,0.727864 0.20313,0.304688 0.51628,0.507813 0.31315,0.203125 0.68554,0.304688 0.3724,0.0931 0.7194,0.0931 0.42318,0 0.78711,-0.152343 0.3724,-0.152344 0.71941,-0.330078 0.347,-0.186198 0.68554,-0.338542 0.34701,-0.152344 0.71094,-0.152344 0.34701,0 0.59245,0.203125 0.24544,0.194662 0.24544,0.567057 0,0.347006 -0.21159,0.626303 -0.20312,0.270833 -0.5332,0.490885 -0.33008,0.211589 -0.75326,0.363932 -0.41471,0.152344 -0.82942,0.253907 -0.41472,0.0931 -0.79558,0.135416 -0.38086,0.05078 -0.64323,0.05078 -0.9733,0 -1.70117,-0.363933 -0.72786,-0.372396 -1.21028,-0.990234 -0.48243,-0.626302 -0.72787,-1.438802 -0.23698,-0.820964 -0.23698,-1.709636 z"
       id="path7" />
    <path
       d="m 207.6582,84.565756 q -0.14388,0 -0.24544,-0.06771 -0.10156,-0.07617 -0.16927,-0.177734 -0.0677,-0.110026 -0.10156,-0.236979 -0.0339,-0.126953 -0.0339,-0.236979 0,-0.101563 0.0339,-0.220052 0.0339,-0.11849 0.10156,-0.220053 0.0677,-0.101562 0.15234,-0.16927 0.0931,-0.06771 0.21159,-0.06771 h 6.43229 q 0.12696,0 0.38086,-0.0085 0.12696,0 0.26237,0 0.14388,-0.0085 0.29623,0 0.30468,0.0085 0.60937,0.05078 0.31315,0.04232 0.56706,0.14388 0.2539,0.101563 0.41471,0.279297 0.16927,0.177735 0.16927,0.457031 0,0.304688 -0.19466,0.516276 -0.1862,0.211589 -0.50781,0.211589 -0.58399,0 -1.16797,-0.07617 -0.57552,-0.07617 -1.17643,-0.07617 l -1.36263,-0.02539 v 1.184895 q 0,4.434896 -0.95638,5.501303 -0.19466,0.220052 -0.39779,0.220052 -0.20312,0 -0.36393,-0.05078 -0.15235,-0.05078 -0.2793,-0.152344 -0.20312,-0.160807 -0.20312,-0.397787 0,-0.08464 0.0339,-0.203125 0.61784,-2.192057 0.73633,-6.127604 z m 14.57422,0.253906 q -0.27929,0 -0.60937,0.05925 -0.32162,0.05078 -0.64323,0.160807 -0.32162,0.101563 -0.6263,0.26237 -0.30469,0.152344 -0.53321,0.363932 -0.22851,0.203125 -0.37239,0.457031 -0.13542,0.245443 -0.13542,0.541667 0.12695,0 0.52474,-0.0085 0.40625,-0.01693 0.93099,-0.04232 0.5332,-0.03385 1.10872,-0.07617 0.57552,-0.05078 1.05795,-0.11849 0.49088,-0.07617 0.80403,-0.16927 0.31315,-0.0931 0.31315,-0.220052 0,-0.363933 -0.20312,-0.600912 -0.19466,-0.236979 -0.48242,-0.372396 -0.2793,-0.135416 -0.59245,-0.186198 -0.31315,-0.05078 -0.54167,-0.05078 z m -4.61263,2.445964 q 0,-0.871745 0.3724,-1.616537 0.37239,-0.753255 1.00716,-1.303385 0.63476,-0.550131 1.46419,-0.863282 0.83789,-0.321614 1.75195,-0.321614 0.63477,0 1.26107,0.152344 0.6263,0.14388 1.12565,0.482421 0.49935,0.338542 0.80404,0.888672 0.31315,0.550131 0.31315,1.345704 0,0.397786 -0.15234,0.710937 -0.15235,0.313151 -0.40625,0.55013 -0.25391,0.236979 -0.58399,0.40625 -0.33007,0.160808 -0.69401,0.270834 -0.36393,0.110026 -0.73633,0.16927 -0.37239,0.05924 -0.70247,0.07617 l -3.04687,0.169271 v 0.03385 q 0,0.423177 0.20312,0.727865 0.20313,0.304687 0.51628,0.507812 0.31315,0.203125 0.68554,0.304688 0.3724,0.0931 0.7194,0.0931 0.42318,0 0.78711,-0.152344 0.3724,-0.152344 0.7194,-0.330078 0.34701,-0.186198 0.68555,-0.338542 0.34701,-0.152343 0.71094,-0.152343 0.347,0 0.59245,0.203125 0.24544,0.194661 0.24544,0.567057 0,0.347005 -0.21159,0.626302 -0.20312,0.270833 -0.5332,0.490885 -0.33008,0.211589 -0.75326,0.363933 -0.41471,0.152344 -0.82942,0.253906 -0.41472,0.0931 -0.79558,0.135417 -0.38086,0.05078 -0.64323,0.05078 -0.9733,0 -1.70117,-0.363932 -0.72786,-0.372396 -1.21028,-0.990235 -0.48243,-0.626302 -0.72787,-1.438802 -0.23698,-0.820963 -0.23698,-1.709635 z m 8.97136,3.910156 v -1.472656 q 0,-1.895834 0.91406,-3.63086 0.91406,-1.743489 2.7845,-3.39388 0.0677,-0.05925 0.25391,0.05078 0.19466,0.101563 0.45703,0.338542 0.26237,0.228515 0.56706,0.575521 0.31315,0.338541 0.6263,0.753255 0.32162,0.414713 0.60938,0.888672 0.29622,0.465495 0.52474,0.947917 0.22851,0.473958 0.36393,0.947916 0.13541,0.473959 0.13541,0.905599 0,0.177735 0.0169,0.533203 0.0169,0.355469 0.0169,0.78711 0,0.423177 -0.0423,0.871745 -0.0339,0.440104 -0.15234,0.8125 -0.11003,0.363932 -0.32162,0.592448 -0.20312,0.236979 -0.54166,0.236979 -0.33855,0 -0.56706,-0.220052 -0.22005,-0.220052 -0.22005,-0.567058 0,-0.380859 0.0339,-0.753255 0.0339,-0.372396 0.0762,-0.744792 0.0508,-0.380859 0.0846,-0.753255 0.0339,-0.372396 0.0339,-0.753255 0,-0.313151 -0.12695,-0.694011 -0.12695,-0.380859 -0.33008,-0.761718 -0.19466,-0.38086 -0.43164,-0.727865 -0.23698,-0.355469 -0.45703,-0.609375 -0.22005,-0.253906 -0.39779,-0.372396 -0.16927,-0.126953 -0.24544,-0.05078 -0.41471,0.431641 -0.73633,0.981771 -0.32161,0.55013 -0.56706,1.151042 -0.24544,0.600911 -0.41471,1.21875 -0.16927,0.609375 -0.27083,1.176432 -0.10156,0.558594 -0.14388,1.049479 -0.0339,0.40625 -0.0339,0.710938 v 0.118489 q -0.0254,0.110026 -0.10156,0.211589 -0.0762,0.101562 -0.1862,0.169271 -0.11002,0.06771 -0.23698,0.110026 -0.11849,0.04232 -0.22851,0.04232 -0.30469,0 -0.48242,-0.194661 -0.17774,-0.203125 -0.26237,-0.482422 z m 9.80078,-3.216146 q 0,0.600912 0.12695,1.032552 0.12695,0.431641 0.41472,0.710938 0.28776,0.270833 0.75325,0.40625 0.4655,0.126953 1.13411,0.126953 0.60092,0 1.07487,-0.270833 0.47396,-0.279297 0.80404,-0.710938 0.33008,-0.440104 0.50781,-0.981771 0.17774,-0.55013 0.17774,-1.091797 0,-0.507812 -0.12695,-0.947916 -0.11849,-0.440105 -0.38933,-0.761719 -0.26237,-0.330078 -0.69401,-0.516276 -0.42318,-0.186198 -1.03255,-0.186198 -0.54167,0 -1.00716,0.211588 -0.45703,0.211589 -0.8125,0.567058 -0.35547,0.355468 -0.60091,0.820963 -0.23698,0.457031 -0.33008,0.947917 z m -1.72656,-0.126953 q 0,-0.922526 0.347,-1.785807 0.35547,-0.863282 0.96484,-1.531902 0.60938,-0.668619 1.43881,-1.066406 0.82942,-0.40625 1.79427,-0.40625 0.99023,0 1.70963,0.338542 0.72787,0.338542 1.19336,0.914062 0.47396,0.575521 0.70248,1.33724 0.22851,0.761719 0.22851,1.616537 0,0.414713 -0.10156,0.922526 -0.10156,0.499349 -0.29622,1.015625 -0.19467,0.516276 -0.48243,1.007161 -0.28776,0.490886 -0.66015,0.871745 -0.36393,0.372396 -0.82097,0.600911 -0.44856,0.228516 -0.96484,0.228516 h -1.59961 q -0.92253,0 -1.58268,-0.355469 -0.65169,-0.363932 -1.06641,-0.939453 -0.41471,-0.583984 -0.60937,-1.311849 -0.19466,-0.727864 -0.19466,-1.455729 z"
       id="path8" />
  </g>
</svg>
