<?xml version="1.0" encoding="UTF-8" standalone="no"?>
<svg
   viewBox="0 0 300 200"
   version="1.1"
   id="svg4"
   sodipodi:docname="venn-diagram-svg.svg"
   inkscape:version="1.3.2 (091e20ef0f, 2023-11-25)"
   xmlns:inkscape="http://www.inkscape.org/namespaces/inkscape"
   xmlns:sodipodi="http://sodipodi.sourceforge.net/DTD/sodipodi-0.dtd"
   xmlns="http://www.w3.org/2000/svg"
   xmlns:svg="http://www.w3.org/2000/svg">
  <defs
     id="defs4" />
  <sodipodi:namedview
     id="namedview4"
     pagecolor="#ffffff"
     bordercolor="#000000"
     borderopacity="0.25"
     inkscape:showpageshadow="2"
     inkscape:pageopacity="0.0"
     inkscape:pagecheckerboard="0"
     inkscape:deskcolor="#d1d1d1"
     inkscape:zoom="3.22"
     inkscape:cx="150.15528"
     inkscape:cy="99.84472"
     inkscape:window-width="1920"
     inkscape:window-height="1009"
     inkscape:window-x="0"
     inkscape:window-y="38"
     inkscape:window-maximized="1"
     inkscape:current-layer="svg4" />
  <!-- Background circles -->
  <circle
     cx="100"
     cy="100"
     r="80"
     fill="gray"
     id="circle1" />
  <circle
     cx="180"
     cy="100"
     r="80"
     fill="white"
     stroke="black"
     stroke-width="2"
     id="circle2" />
  <!-- Intersection (white area) -->
  <path
     d="M180,100 a80,80 0 0,0 -80,-80 a80,80 0 0,1 0,160 a80,80 0 0,0 80,-80"
     fill="white"
     id="path2" />
  <!-- Additional border for left circle (as a separate layer) -->
  <circle
     cx="100"
     cy="100"
     r="80"
     fill="none"
     stroke="black"
     stroke-width="2"
     id="circle3" />
  <!-- Labels -->
  <path
     d="m 57.578125,105.63672 q -0.171875,-0.20313 -0.3125,-0.40625 -0.4375,-0.67188 -0.4375,-1.51563 0,-0.60937 0.375,-1.04687 0.390625,-0.4375 1.0625,-0.4375 0.375,0 0.765625,0.23437 0.359375,0.21875 0.796875,0.5625 0.421875,0.32813 0.921875,0.70313 0.5,0.375 1.09375,0.6875 0.609375,0.3125 1.34375,0.51562 0.71875,0.21875 1.59375,0.21875 0.21875,0 0.453125,-0.0156 0.25,-0.0156 0.5,-0.0312 0.265625,-0.0312 0.546875,-0.0625 0.84375,-0.10938 1.734375,-0.32813 0.90625,-0.23437 1.75,-0.57812 0.421875,-0.17188 0.796875,-0.375 0.375,-0.21875 0.703125,-0.48438 0.65625,-0.5 1.046875,-1.14062 0.1875,-0.3125 0.28125,-0.67188 0.109375,-0.35937 0.109375,-0.76562 0,-0.54688 -0.265625,-0.984376 -0.28125,-0.46875 -0.71875,-0.828125 Q 71.5,98.699219 71.25,98.558594 71,98.402344 70.71875,98.277344 q -0.265625,-0.125 -0.53125,-0.21875 -0.265625,-0.109375 -0.53125,-0.171875 l -7.078125,-1.796875 q -0.125,-0.03125 -0.265625,-0.0625 -0.125,-0.04687 -0.265625,-0.09375 -0.125,-0.04687 -0.265625,-0.07813 -0.125,-0.04687 -0.265625,-0.09375 -0.125,-0.04687 -0.25,-0.09375 -0.125,-0.0625 -0.265625,-0.109375 -0.109375,-0.04687 -0.21875,-0.09375 -0.109375,-0.0625 -0.21875,-0.109375 -0.109375,-0.0625 -0.21875,-0.109375 -0.09375,-0.0625 -0.203125,-0.125 -0.09375,-0.0625 -0.203125,-0.125 -0.09375,-0.0625 -0.1875,-0.125 -0.09375,-0.0625 -0.1875,-0.140625 -0.65625,-0.484375 -1.140625,-1.140625 -0.484375,-0.65625 -0.671875,-1.5 v -0.01563 -0.01563 0 -0.9375 q 0,-1.359375 0.4375,-2.484375 0.21875,-0.5625 0.515625,-1.046875 0.296875,-0.5 0.6875,-0.921875 0.40625,-0.421875 0.875,-0.765625 0.484375,-0.34375 1.046875,-0.609375 0.5625,-0.265625 1.203125,-0.4375 0.203125,-0.0625 0.421875,-0.109375 0.21875,-0.04687 0.4375,-0.07813 0.234375,-0.03125 0.453125,-0.0625 h 0.01563 q 0.04687,0 0.125,0 0.07813,0 0.1875,0 0.125,-0.01563 0.25,-0.01563 0.125,0 0.25,0 0.265625,0 0.5,-0.01563 0.125,0 0.203125,-0.01563 0.04687,0 0.07813,0 0.03125,0 0.0625,0 0.40625,0 1.171875,0 0.78125,0.01563 1.734375,0.09375 0.953125,0.0625 1.921875,0.203125 0.984375,0.140625 1.796875,0.421875 0.04687,0.01563 0.09375,0.03125 0.0625,0.01563 0.109375,0.03125 0.04687,0.01563 0.09375,0.04687 0.04687,0.01563 0.09375,0.03125 0.1875,0.07813 0.34375,0.171875 0.171875,0.07813 0.3125,0.171875 0.15625,0.09375 0.28125,0.203125 0.28125,0.21875 0.421875,0.515625 0.07813,0.140625 0.109375,0.296875 0.03125,0.140625 0.03125,0.3125 0,0.15625 -0.03125,0.296875 -0.01563,0.140625 -0.0625,0.265625 -0.03125,0.0625 -0.0625,0.125 -0.01563,0.0625 -0.0625,0.125 -0.07813,0.125 -0.15625,0.234375 -0.1875,0.21875 -0.46875,0.328125 -0.09375,0.03125 -0.1875,0.0625 -0.09375,0.01563 -0.203125,0.03125 -0.09375,0.01563 -0.203125,0.01563 h -0.1875 -0.01563 -0.01563 q -1.71875,-0.375 -3.421875,-0.6875 -0.28125,-0.04687 -0.5625,-0.09375 -0.28125,-0.04687 -0.578125,-0.07813 -0.28125,-0.03125 -0.5625,-0.0625 -0.4375,-0.03125 -0.875,-0.04687 Q 65.9375,87.574219 65.5,87.574219 q -0.171875,0 -0.34375,0.01563 -0.15625,0 -0.3125,0.01563 -0.15625,0 -0.3125,0.01563 -0.15625,0.01563 -0.3125,0.03125 -0.3125,0.03125 -0.59375,0.09375 -0.21875,0.04687 -0.421875,0.109375 -0.04687,0.01563 -0.109375,0.03125 -0.04687,0.01563 -0.09375,0.03125 -0.04687,0.01563 -0.09375,0.03125 -0.04687,0.01563 -0.09375,0.03125 -0.04687,0.01563 -0.09375,0.04687 -0.04687,0.01563 -0.09375,0.03125 -0.04687,0.01563 -0.09375,0.04687 -0.04687,0.01563 -0.07813,0.04687 -0.171875,0.09375 -0.34375,0.1875 -0.640625,0.421875 -1.015625,1.109375 -0.1875,0.34375 -0.28125,0.78125 -0.09375,0.4375 -0.09375,0.96875 0,0.40625 0.203125,0.703125 0.01563,0.01563 0.01563,0.04687 0.01563,0.01563 0.03125,0.03125 0.01563,0.01563 0.01563,0.03125 0.03125,0.04687 0.07813,0.09375 0.04687,0.04687 0.09375,0.09375 0.04687,0.04687 0.09375,0.09375 0.04687,0.04687 0.09375,0.09375 0.04687,0.03125 0.09375,0.07813 0.109375,0.07813 0.21875,0.15625 0.125,0.0625 0.25,0.125 0.0625,0.03125 0.125,0.0625 0.0625,0.03125 0.125,0.0625 0.40625,0.171875 0.78125,0.25 l 6.796875,1.71875 q 0.28125,0.0625 0.546875,0.15625 0.28125,0.07813 0.5625,0.1875 0.546875,0.1875 1.09375,0.4375 1.0625,0.5 1.875,1.203125 0.28125,0.234375 0.515625,0.515625 0.125,0.140625 0.234375,0.28125 0.109375,0.140625 0.21875,0.28125 0.203125,0.296875 0.375,0.625 0.515625,0.984375 0.515625,2.218746 0,0.4375 -0.0625,0.84375 -0.04687,0.40625 -0.171875,0.78125 -0.109375,0.375 -0.265625,0.73438 -0.25,0.53125 -0.59375,1 -0.34375,0.46875 -0.75,0.89062 -0.203125,0.20313 -0.4375,0.40625 -0.234375,0.1875 -0.46875,0.375 -0.484375,0.35938 -1.03125,0.65625 -1.125,0.59375 -2.34375,1 -0.609375,0.20313 -1.234375,0.34375 -0.625,0.14063 -1.25,0.25 -0.609375,0.0937 -1.203125,0.14063 -0.578125,0.0469 -1.125,0.0469 -0.59375,0 -1.40625,-0.0937 -0.8125,-0.10937 -1.6875,-0.32812 -0.125,-0.0312 -0.25,-0.0781 -0.0625,-0.0156 -0.140625,-0.0312 -0.0625,-0.0156 -0.125,-0.0312 -0.125,-0.0312 -0.25,-0.0625 -0.125,-0.0469 -0.25,-0.0937 -0.04687,-0.0156 -0.09375,-0.0312 -0.03125,-0.0156 -0.07813,-0.0312 -0.03125,-0.0156 -0.0625,-0.0312 -0.125,-0.0469 -0.25,-0.0937 -0.125,-0.0469 -0.234375,-0.0937 -0.859375,-0.34375 -1.53125,-0.84375 -0.21875,-0.17187 -0.421875,-0.34375 -0.09375,-0.0937 -0.203125,-0.1875 -0.09375,-0.10937 -0.171875,-0.20312 z"
     id="text3"
     style="font-size:32px;font-family:Lavi;-inkscape-font-specification:Lavi"
     aria-label="S" />
  <path
     d="m 211.07812,106.44336 v -0.0156 -0.0156 -0.0156 l 1.07813,-4 q 0.48437,-1.73437 0.73437,-3.546871 0.26563,-1.828125 0.39063,-3.6875 0.125,-1.859375 0.15625,-3.71875 0.0156,-1.765625 0.0156,-3.5 h -0.0625 q -0.125,0 -0.26562,0.01563 -0.125,0 -0.25,0.01563 -0.125,0.01563 -0.25,0.04687 -0.125,0.01563 -0.23438,0.04687 -0.5,0.125 -0.98437,0.265625 -0.48438,0.15625 -0.9375,0.28125 -0.48438,0.125 -1.01563,0.125 -0.65625,0 -1.03125,-0.34375 -0.375,-0.34375 -0.375,-1.015625 0,-0.703125 0.625,-1.15625 0.57813,-0.4375 1.48438,-0.734375 0.10937,-0.03125 0.21875,-0.0625 0.125,-0.03125 0.23437,-0.0625 0.125,-0.03125 0.25,-0.0625 0.125,-0.03125 0.25,-0.0625 0.5,-0.109375 1.04688,-0.1875 1.10937,-0.171875 2.17187,-0.25 1.07813,-0.07813 1.98438,-0.09375 0.45312,-0.01563 0.78125,-0.01563 0.17187,0 0.3125,0 0.15625,0 0.28125,0 1.03125,0 2.25,0.09375 1.21875,0.09375 2.42187,0.3125 0.60938,0.125 1.20313,0.28125 0.29687,0.07813 0.57812,0.171875 0.28125,0.09375 0.5625,0.203125 0.0625,0.01563 0.10938,0.04687 0.0625,0.01563 0.10937,0.04687 0.0625,0.01563 0.10938,0.04687 0.0469,0.01563 0.0937,0.04687 0.0625,0.01563 0.125,0.04687 0.0625,0.03125 0.125,0.0625 0.0625,0.03125 0.125,0.0625 0.0625,0.03125 0.125,0.0625 0.0625,0.03125 0.125,0.0625 0.25,0.140625 0.48437,0.296875 0.10938,0.07813 0.21875,0.171875 0.10938,0.07813 0.21875,0.15625 0.875,0.6875 1.39063,1.6875 0.51562,1 0.51562,2.34375 0,0.359375 -0.0469,0.703125 -0.0469,0.328125 -0.14063,0.640625 -0.0781,0.3125 -0.21875,0.59375 -0.125,0.28125 -0.29687,0.53125 -0.10938,0.171875 -0.25,0.328125 -0.125,0.140625 -0.26563,0.296875 -0.28125,0.296875 -0.59375,0.546875 -0.3125,0.234375 -0.67187,0.453125 -0.53125,0.3125 -1.14063,0.53125 -0.29687,0.109375 -0.60937,0.21875 -0.3125,0.09375 -0.64063,0.171875 -0.10937,0.03125 -0.21875,0.0625 -0.10937,0.01563 -0.21875,0.04687 -0.10937,0.01563 -0.21875,0.03125 -0.10937,0.01563 -0.21875,0.04687 -0.0937,0.01563 -0.20312,0.03125 -0.10938,0.01563 -0.21875,0.03125 -0.3125,0.04687 -0.625,0.07813 -0.3125,0.03125 -0.625,0.04687 l -5.0625,0.265625 -1.07813,6.812496 q -0.0156,0.0781 -0.0469,0.1875 -0.0156,0.0937 -0.0312,0.21875 -0.0156,0.125 -0.0469,0.28125 -0.0625,0.45313 -0.17187,0.98438 -0.10938,0.53125 -0.28125,1.0625 -0.17188,0.5625 -0.4375,1.01562 -0.26563,0.46875 -0.625,0.76563 -0.39063,0.3125 -0.89063,0.3125 -0.32812,0 -0.59375,-0.0937 -0.125,-0.0469 -0.25,-0.125 -0.10937,-0.0781 -0.20312,-0.17188 -0.0937,-0.0937 -0.15625,-0.20312 -0.0625,-0.125 -0.10938,-0.26563 -0.0937,-0.26562 -0.0937,-0.57812 z m 9.76563,-18.687501 q -0.90625,-0.09375 -1.71875,-0.109375 -0.82813,-0.01563 -1.40625,-0.01563 -0.0156,0 -0.0312,0 -0.0156,0 -0.0312,0 h -0.0625 q -0.0312,0 -0.0937,0 -0.0156,0 -0.0469,0 -0.0156,0 -0.0469,0 l -0.39063,0.01563 q -0.20312,0 -0.34375,0.01563 l -0.0781,0.01563 -0.0312,0.0625 q -0.0156,0.359375 -0.0312,0.671875 0,0.171875 -0.0156,0.34375 0,0.15625 0,0.3125 -0.0156,0.328125 -0.0312,0.640625 -0.0156,0.40625 -0.0312,0.84375 0,0.140625 -0.0156,0.296875 0,0.140625 -0.0156,0.28125 0,0.140625 0,0.28125 -0.0156,0.40625 -0.0312,0.78125 0,0.125 0,0.25 0,0.109375 0,0.21875 0,0.09375 0,0.1875 v 0.78125 q 0.23438,0 0.51563,0.01563 0.29687,0 0.67187,0 h 0.53125 0.45313 q 0.46875,0 0.98437,-0.01563 1.0625,-0.03125 2.17188,-0.171875 0.54687,-0.07813 1.04687,-0.1875 0.51563,-0.125 0.96875,-0.28125 0.89063,-0.3125 1.4375,-0.8125 0.125,-0.125 0.21875,-0.25 0.10938,-0.140625 0.17188,-0.296875 0.0781,-0.15625 0.10937,-0.328125 0.0312,-0.171875 0.0312,-0.359375 0,-0.40625 -0.10937,-0.75 -0.0937,-0.34375 -0.29688,-0.625 -0.0625,-0.09375 -0.14062,-0.171875 -0.0781,-0.09375 -0.17188,-0.171875 -0.0781,-0.09375 -0.17187,-0.171875 -0.0312,-0.03125 -0.0625,-0.04687 -0.0312,-0.03125 -0.0625,-0.04687 -0.0312,-0.03125 -0.0625,-0.0625 -0.0937,-0.07813 -0.20313,-0.140625 -0.0469,-0.03125 -0.10937,-0.0625 -0.0469,-0.03125 -0.10938,-0.0625 -0.34375,-0.1875 -0.75,-0.328125 -0.39062,-0.140625 -0.82812,-0.25 -0.29688,-0.0625 -0.59375,-0.125 -0.15625,-0.03125 -0.3125,-0.04687 -0.14063,-0.03125 -0.29688,-0.04687 -0.14062,-0.03125 -0.28125,-0.04687 -0.14062,-0.01563 -0.29687,-0.03125 z"
     id="text4"
     style="font-size:32px;font-family:Lavi;-inkscape-font-specification:Lavi"
     aria-label="P" />
</svg>
