<?xml version="1.0" encoding="UTF-8" standalone="no"?>
<svg
   viewBox="0 0 300 100"
   version="1.1"
   id="svg8"
   sodipodi:docname="nested-squares-diagram.svg"
   inkscape:version="1.3.2 (091e20ef0f, 2023-11-25)"
   xmlns:inkscape="http://www.inkscape.org/namespaces/inkscape"
   xmlns:sodipodi="http://sodipodi.sourceforge.net/DTD/sodipodi-0.dtd"
   xmlns="http://www.w3.org/2000/svg"
   xmlns:svg="http://www.w3.org/2000/svg">
  <defs
     id="defs8" />
  <sodipodi:namedview
     id="namedview8"
     pagecolor="#ffffff"
     bordercolor="#000000"
     borderopacity="0.25"
     inkscape:showpageshadow="2"
     inkscape:pageopacity="0.0"
     inkscape:pagecheckerboard="0"
     inkscape:deskcolor="#d1d1d1"
     inkscape:zoom="3.0066667"
     inkscape:cx="163.47007"
     inkscape:cy="55.044346"
     inkscape:window-width="1920"
     inkscape:window-height="1009"
     inkscape:window-x="0"
     inkscape:window-y="38"
     inkscape:window-maximized="1"
     inkscape:current-layer="svg8" />
  <!-- Left diagram -->
  <path
     id="rect1"
     style="fill:none;stroke:#000000"
     d="M 10,10 H 90 V 90 H 10 Z" />
  <path
     id="rect2"
     style="fill:none;stroke:#000000"
     d="M 20,20 H 80 V 80 H 20 Z" />
  <path
     id="rect3"
     style="fill:none;stroke:#000000;stroke-width:0.649514"
     d="M 37.009727,37.009727 H 62.990271 V 62.990271 H 37.009727 Z" />
  <path
     d="m 82.154297,19.320312 v -0.0059 -0.0059 -0.0059 l 0.404297,-1.5 q 0.18164,-0.65039 0.27539,-1.330078 0.09961,-0.685547 0.146485,-1.382812 0.04687,-0.697266 0.05859,-1.394531 0.0059,-0.66211 0.0059,-1.3125 h -0.02344 q -0.04687,0 -0.09961,0.0059 -0.04687,0 -0.09375,0.0059 -0.04687,0.0059 -0.09375,0.01758 -0.04687,0.0059 -0.08789,0.01758 -0.1875,0.04687 -0.36914,0.09961 -0.181641,0.05859 -0.351563,0.105469 -0.18164,0.04687 -0.380859,0.04687 -0.246094,0 -0.386719,-0.128907 -0.140625,-0.128906 -0.140625,-0.380859 0,-0.263672 0.234375,-0.433594 0.216797,-0.164062 0.556641,-0.27539 0.04102,-0.01172 0.08203,-0.02344 0.04687,-0.01172 0.08789,-0.02344 0.04687,-0.01172 0.09375,-0.02344 0.04687,-0.01172 0.09375,-0.02344 0.1875,-0.04102 0.392578,-0.07031 0.416015,-0.06445 0.814453,-0.09375 0.404297,-0.0293 0.74414,-0.03516 0.169922,-0.0059 0.292969,-0.0059 0.06445,0 0.117188,0 0.05859,0 0.105468,0 0.386719,0 0.84375,0.03516 0.457032,0.03516 0.908204,0.117187 0.228515,0.04687 0.451171,0.105469 0.111329,0.0293 0.216797,0.06445 0.105469,0.03516 0.210938,0.07617 0.02344,0.0059 0.04102,0.01758 0.02344,0.0059 0.04102,0.01758 0.02344,0.0059 0.04102,0.01758 0.01758,0.0059 0.03516,0.01758 0.02344,0.0059 0.04687,0.01758 0.02344,0.01172 0.04687,0.02344 0.02344,0.01172 0.04687,0.02344 0.02344,0.01172 0.04687,0.02344 0.02344,0.01172 0.04687,0.02344 0.09375,0.05273 0.181641,0.111328 0.04102,0.0293 0.08203,0.06445 0.04102,0.0293 0.08203,0.05859 0.328125,0.257812 0.521484,0.632812 0.19336,0.375 0.19336,0.878906 0,0.134766 -0.01758,0.263672 -0.01758,0.123047 -0.05273,0.240235 -0.0293,0.117187 -0.08203,0.222656 -0.04687,0.105469 -0.111328,0.199219 -0.04102,0.06445 -0.09375,0.123047 -0.04687,0.05273 -0.09961,0.111328 -0.105469,0.111328 -0.222657,0.205078 -0.117187,0.08789 -0.251953,0.169922 -0.199219,0.117187 -0.427734,0.199218 -0.111328,0.04102 -0.228516,0.08203 -0.117187,0.03516 -0.240234,0.06445 -0.04102,0.01172 -0.08203,0.02344 -0.04102,0.0059 -0.08203,0.01758 -0.04102,0.0059 -0.08203,0.01172 -0.04102,0.0059 -0.08203,0.01758 -0.03516,0.0059 -0.07617,0.01172 -0.04102,0.0059 -0.08203,0.01172 -0.117188,0.01758 -0.234375,0.0293 -0.117188,0.01172 -0.234375,0.01758 l -1.898438,0.09961 -0.404297,2.554688 q -0.0059,0.0293 -0.01758,0.07031 -0.0059,0.03516 -0.01172,0.08203 -0.0059,0.04687 -0.01758,0.105469 -0.02344,0.169922 -0.06445,0.369141 -0.04102,0.199218 -0.105469,0.398437 -0.06445,0.210938 -0.164062,0.38086 -0.09961,0.175781 -0.234375,0.287109 -0.146484,0.117187 -0.333984,0.117187 -0.123047,0 -0.222657,-0.03516 -0.04687,-0.01758 -0.09375,-0.04687 -0.04102,-0.0293 -0.07617,-0.06445 -0.03516,-0.03516 -0.05859,-0.07617 -0.02344,-0.04687 -0.04102,-0.09961 -0.03516,-0.09961 -0.03516,-0.216797 z M 85.816406,12.3125 q -0.339844,-0.03516 -0.644531,-0.04102 -0.310547,-0.0059 -0.527344,-0.0059 -0.0059,0 -0.01172,0 -0.0059,0 -0.01172,0 h -0.02344 q -0.01172,0 -0.03516,0 -0.0059,0 -0.01758,0 -0.0059,0 -0.01758,0 l -0.146485,0.0059 q -0.07617,0 -0.128906,0.0059 l -0.0293,0.0059 -0.01172,0.02344 q -0.0059,0.134765 -0.01172,0.251953 0,0.06445 -0.0059,0.128906 0,0.05859 0,0.117188 -0.0059,0.123046 -0.01172,0.240234 -0.0059,0.152344 -0.01172,0.316406 0,0.05274 -0.0059,0.111328 0,0.05274 -0.0059,0.105469 0,0.05273 0,0.105469 -0.0059,0.152344 -0.01172,0.292969 0,0.04687 0,0.09375 0,0.04101 0,0.08203 0,0.03516 0,0.07031 v 0.292969 q 0.08789,0 0.19336,0.0059 0.111328,0 0.251953,0 h 0.199219 0.169921 q 0.175782,0 0.369141,-0.0059 0.398438,-0.01172 0.814453,-0.06445 0.205078,-0.0293 0.392578,-0.07031 0.19336,-0.04687 0.363282,-0.105468 0.333984,-0.117188 0.539062,-0.304688 0.04687,-0.04687 0.08203,-0.09375 0.04102,-0.05273 0.06445,-0.111328 0.0293,-0.05859 0.04102,-0.123047 0.01172,-0.06445 0.01172,-0.134765 0,-0.152344 -0.04102,-0.28125 -0.03516,-0.128907 -0.111328,-0.234375 -0.02344,-0.03516 -0.05273,-0.06445 -0.0293,-0.03516 -0.06445,-0.06445 -0.0293,-0.03516 -0.06445,-0.06445 -0.01172,-0.01172 -0.02344,-0.01758 -0.01172,-0.01172 -0.02344,-0.01758 -0.01172,-0.01172 -0.02344,-0.02344 -0.03516,-0.0293 -0.07617,-0.05273 -0.01758,-0.01172 -0.04102,-0.02344 -0.01758,-0.01172 -0.04102,-0.02344 -0.128906,-0.07031 -0.28125,-0.123047 -0.146485,-0.05273 -0.310547,-0.09375 -0.111328,-0.02344 -0.222656,-0.04687 -0.05859,-0.01172 -0.117188,-0.01758 -0.05273,-0.01172 -0.111328,-0.01758 -0.05273,-0.01172 -0.105469,-0.01758 -0.05273,-0.0059 -0.111328,-0.01172 z"
     id="text3"
     style="font-size:12px;font-family:Lavi;-inkscape-font-specification:Lavi"
     aria-label="P" />
  <path
     d="m 73.666016,30.248047 q 0,1.740234 -0.738282,1.740234 -0.222656,0 -0.298828,-0.05859 -0.117187,-0.09961 -0.128906,-0.09961 -0.0059,-0.0059 -0.01758,-0.01758 -0.0059,-0.01172 -0.04687,-0.05273 -0.04102,-0.04687 -0.04102,-0.134766 V 31.25 l 0.205078,-1.751953 q 0.0293,-0.339844 0.04102,-0.761719 0.01758,-0.427734 0.0293,-0.697266 0.01172,-0.269531 0.02344,-0.621093 0.01758,-0.357422 0.02344,-0.673828 0.01172,-0.322266 0.01758,-0.533204 v -1.224609 l -2.115234,2.408203 q -0.08789,0.08789 -0.09961,0.105469 -0.210937,0.251953 -0.521484,0.251953 -0.140625,0 -0.216797,-0.03516 -0.07031,-0.04102 -0.07617,-0.04102 -0.0059,-0.0059 -0.01758,-0.0059 -0.0059,-0.0059 -0.02344,-0.01758 -0.04687,-0.0293 -0.06445,-0.05859 -0.01758,-0.03516 -0.0293,-0.05273 -0.01172,-0.01758 -0.04102,-0.05859 -0.02344,-0.04687 -0.08203,-0.134766 -0.05859,-0.09375 -0.152344,-0.240234 -0.08789,-0.152344 -0.19336,-0.316406 -0.09961,-0.169922 -0.193359,-0.316407 -0.09375,-0.146484 -0.164062,-0.263672 l -0.105469,-0.169921 q -0.06445,-0.111329 -0.269531,-0.38086 -0.205079,-0.27539 -0.263672,-0.351562 -0.08203,-0.117188 -0.09961,-0.134766 -0.01758,-0.01758 -0.01758,-0.02344 L 67.660156,28.4375 v 0.0059 q -0.0059,0.01172 -0.01172,0.03516 -0.0059,0.05859 -0.01758,0.123046 -0.01172,0.06445 -0.04102,0.210938 -0.02344,0.146484 -0.05859,0.322266 -0.0293,0.169921 -0.06445,0.333984 -0.03516,0.164062 -0.05859,0.275391 -0.02344,0.111328 -0.03516,0.169921 -0.02344,0.134766 -0.03516,0.169922 -0.01172,0.03516 -0.01758,0.05859 0,0.02344 -0.01172,0.05859 -0.0059,0.03516 -0.01758,0.111328 -0.246094,1.535156 -0.919922,1.535156 h -0.04102 l -0.181641,-0.0293 q -0.01172,-0.0059 -0.02344,-0.01172 -0.0059,-0.0059 -0.01758,-0.0059 -0.01172,-0.0059 -0.02344,-0.01172 -0.0059,-0.0059 -0.01758,-0.01172 -0.01172,-0.0059 -0.02344,-0.01172 -0.0059,-0.0059 -0.01758,-0.01172 -0.0059,-0.0059 -0.01758,-0.01172 Q 65.837891,31.625 65.837891,31.320312 v -0.140625 q 0.222656,-0.451171 0.386718,-1.253906 0.169922,-0.808594 0.310547,-1.605469 0.146485,-0.802734 0.251953,-2.080078 0.105469,-1.277343 0.105469,-2.513672 v -0.269531 q 0.07031,-0.304687 0.369141,-0.427734 Q 67.332031,23 67.53125,23 q 0.175781,0 0.398437,0.263672 h 0.0059 l 1.769531,2.373047 0.0059,0.0059 0.410157,0.626953 2.724609,-3.117187 q 0.140625,-0.140625 0.222656,-0.175782 0.08203,-0.04102 0.210938,-0.04102 0.134765,0 0.205078,0.02344 0.09375,0.0293 0.105469,0.03516 0.01172,0.0059 0.02344,0.01172 0.01758,0.0059 0.0293,0.01758 0.01172,0.0059 0.03516,0.01758 0.07617,0.03516 0.09961,0.07617 0.02344,0.04102 0.03516,0.05859 0.01758,0.01758 0.02344,0.04102 0.01172,0.02344 0.02344,0.04687 0.01172,0.04102 0.01172,0.105469 v 1.699218 l -0.199219,5.080078 z"
     id="text4"
     style="font-size:12px;font-family:Lavi;-inkscape-font-specification:Lavi"
     aria-label="M" />
  <path
     d="m 47.591797,54.015625 q -0.06445,-0.07617 -0.117188,-0.152344 -0.164062,-0.251953 -0.164062,-0.568359 0,-0.228516 0.140625,-0.392578 0.146484,-0.164063 0.398437,-0.164063 0.140625,0 0.28711,0.08789 0.134765,0.08203 0.298828,0.210937 0.158203,0.123047 0.345703,0.263672 0.1875,0.140625 0.410156,0.257813 0.228516,0.117187 0.503906,0.193359 0.269532,0.08203 0.597657,0.08203 0.08203,0 0.169922,-0.0059 0.09375,-0.0059 0.1875,-0.01172 0.09961,-0.01172 0.205078,-0.02344 0.316406,-0.04102 0.65039,-0.123047 0.339844,-0.08789 0.65625,-0.216797 0.158203,-0.06445 0.298828,-0.140625 0.140625,-0.08203 0.263672,-0.181641 0.246094,-0.1875 0.392578,-0.427734 0.07031,-0.117188 0.105469,-0.251953 0.04102,-0.134766 0.04102,-0.28711 0,-0.205078 -0.09961,-0.36914 -0.105468,-0.175781 -0.269531,-0.310547 -0.08203,-0.07031 -0.175781,-0.123047 -0.09375,-0.05859 -0.199219,-0.105469 -0.09961,-0.04687 -0.199219,-0.08203 -0.09961,-0.04102 -0.199218,-0.06445 l -2.654297,-0.673828 q -0.04687,-0.01172 -0.09961,-0.02344 -0.04687,-0.01758 -0.09961,-0.03516 -0.04687,-0.01758 -0.09961,-0.0293 -0.04687,-0.01758 -0.09961,-0.03516 -0.04687,-0.01758 -0.09375,-0.03516 -0.04687,-0.02344 -0.09961,-0.04102 -0.04102,-0.01758 -0.08203,-0.03516 -0.04102,-0.02344 -0.08203,-0.04102 -0.04102,-0.02344 -0.08203,-0.04102 -0.03516,-0.02344 -0.07617,-0.04687 -0.03516,-0.02344 -0.07617,-0.04687 -0.03516,-0.02344 -0.07031,-0.04687 -0.03516,-0.02344 -0.07031,-0.05273 -0.246093,-0.18164 -0.427734,-0.427734 -0.181641,-0.246094 -0.251953,-0.5625 v -0.0059 -0.0059 0 -0.351562 q 0,-0.509766 0.164062,-0.931641 0.08203,-0.210938 0.19336,-0.392578 0.111328,-0.1875 0.257812,-0.345703 0.152344,-0.158203 0.328125,-0.28711 0.181641,-0.128906 0.392578,-0.228515 0.210938,-0.09961 0.451172,-0.164063 0.07617,-0.02344 0.158203,-0.04102 0.08203,-0.01758 0.164063,-0.0293 0.08789,-0.01172 0.169922,-0.02344 h 0.0059 q 0.01758,0 0.04687,0 0.0293,0 0.07031,0 0.04687,-0.0059 0.09375,-0.0059 0.04687,0 0.09375,0 0.09961,0 0.1875,-0.0059 0.04687,0 0.07617,-0.0059 0.01758,0 0.0293,0 0.01172,0 0.02344,0 0.152344,0 0.439453,0 0.292969,0.0059 0.650391,0.03516 0.357422,0.02344 0.720703,0.07617 0.36914,0.05273 0.673828,0.158203 0.01758,0.0059 0.03516,0.01172 0.02344,0.0059 0.04102,0.01172 0.01758,0.0059 0.03516,0.01758 0.01758,0.0059 0.03516,0.01172 0.07031,0.0293 0.128907,0.06445 0.06445,0.0293 0.117187,0.06445 0.05859,0.03516 0.105469,0.07617 0.105469,0.08203 0.158203,0.193359 0.0293,0.05273 0.04102,0.111328 0.01172,0.05273 0.01172,0.117188 0,0.05859 -0.01172,0.111328 -0.0059,0.05273 -0.02344,0.09961 -0.01172,0.02344 -0.02344,0.04687 -0.0059,0.02344 -0.02344,0.04687 -0.0293,0.04687 -0.05859,0.08789 -0.07031,0.08203 -0.175781,0.123047 -0.03516,0.01172 -0.07031,0.02344 -0.03516,0.0059 -0.07617,0.01172 -0.03516,0.0059 -0.07617,0.0059 h -0.07031 -0.0059 -0.0059 q -0.644532,-0.140625 -1.283204,-0.257812 -0.105468,-0.01758 -0.210937,-0.03516 -0.105469,-0.01758 -0.216797,-0.0293 -0.105469,-0.01172 -0.210937,-0.02344 -0.164063,-0.01172 -0.328125,-0.01758 -0.158204,-0.01172 -0.322266,-0.01172 -0.06445,0 -0.128906,0.0059 -0.05859,0 -0.117188,0.0059 -0.05859,0 -0.117187,0.0059 -0.05859,0.0059 -0.117188,0.01172 -0.117187,0.01172 -0.222656,0.03516 -0.08203,0.01758 -0.158203,0.04102 -0.01758,0.0059 -0.04102,0.01172 -0.01758,0.0059 -0.03516,0.01172 -0.01758,0.0059 -0.03516,0.01172 -0.01758,0.0059 -0.03516,0.01172 -0.01758,0.0059 -0.03516,0.01758 -0.01758,0.0059 -0.03516,0.01172 -0.01758,0.0059 -0.03516,0.01758 -0.01758,0.0059 -0.0293,0.01758 -0.06445,0.03516 -0.128906,0.07031 -0.240235,0.158203 -0.38086,0.416015 -0.07031,0.128907 -0.105469,0.292969 -0.03516,0.164063 -0.03516,0.363281 0,0.152344 0.07617,0.263672 0.0059,0.0059 0.0059,0.01758 0.0059,0.0059 0.01172,0.01172 0.0059,0.0059 0.0059,0.01172 0.01172,0.01758 0.0293,0.03516 0.01758,0.01758 0.03516,0.03516 0.01758,0.01758 0.03516,0.03516 0.01758,0.01758 0.03516,0.03516 0.01758,0.01172 0.03516,0.0293 0.04102,0.0293 0.08203,0.05859 0.04687,0.02344 0.09375,0.04687 0.02344,0.01172 0.04687,0.02344 0.02344,0.01172 0.04687,0.02344 0.152343,0.06445 0.292968,0.09375 l 2.548829,0.644531 q 0.105468,0.02344 0.205078,0.05859 0.105468,0.0293 0.210937,0.07031 0.205078,0.07031 0.410156,0.164063 0.398438,0.1875 0.703125,0.451171 0.105469,0.08789 0.19336,0.19336 0.04687,0.05273 0.08789,0.105469 0.04102,0.05273 0.08203,0.105468 0.07617,0.111328 0.140625,0.234375 0.193359,0.369141 0.193359,0.832032 0,0.164062 -0.02344,0.316406 -0.01758,0.152344 -0.06445,0.292969 -0.04102,0.140625 -0.09961,0.27539 -0.09375,0.199219 -0.222656,0.375 -0.128906,0.175781 -0.28125,0.333985 -0.07617,0.07617 -0.164063,0.152343 -0.08789,0.07031 -0.175781,0.140625 -0.181641,0.134766 -0.386719,0.246094 -0.421875,0.222656 -0.878906,0.375 -0.228516,0.07617 -0.462891,0.128906 -0.234375,0.05273 -0.46875,0.09375 -0.228515,0.03516 -0.451171,0.05273 -0.216797,0.01758 -0.421875,0.01758 -0.222657,0 -0.527344,-0.03516 -0.304688,-0.04102 -0.632813,-0.123047 -0.04687,-0.01172 -0.09375,-0.0293 -0.02344,-0.0059 -0.05273,-0.01172 -0.02344,-0.0059 -0.04687,-0.01172 -0.04687,-0.01172 -0.09375,-0.02344 -0.04687,-0.01758 -0.09375,-0.03516 -0.01758,-0.0059 -0.03516,-0.01172 -0.01172,-0.0059 -0.0293,-0.01172 -0.01172,-0.0059 -0.02344,-0.01172 -0.04687,-0.01758 -0.09375,-0.03516 -0.04687,-0.01758 -0.08789,-0.03516 -0.322266,-0.128906 -0.574219,-0.316406 -0.08203,-0.06445 -0.158203,-0.128907 -0.03516,-0.03516 -0.07617,-0.07031 -0.03516,-0.04102 -0.06445,-0.07617 z"
     id="text5"
     style="font-size:12px;font-family:Lavi;-inkscape-font-specification:Lavi"
     aria-label="S" />
  <!-- Middle diagram -->
  <path
     id="rect5"
     style="fill:none;stroke:#000000"
     d="m 110,10 h 80 v 80 h -80 z" />
  <path
     d="m 182.1543,19.320312 v -0.0059 -0.0059 -0.0059 l 0.40429,-1.5 q 0.18164,-0.65039 0.27539,-1.330078 0.0996,-0.685547 0.14649,-1.382812 0.0469,-0.697266 0.0586,-1.394531 0.006,-0.66211 0.006,-1.3125 h -0.0234 q -0.0469,0 -0.0996,0.0059 -0.0469,0 -0.0937,0.0059 -0.0469,0.0059 -0.0937,0.01758 -0.0469,0.0059 -0.0879,0.01758 -0.1875,0.04687 -0.36914,0.09961 -0.18164,0.05859 -0.35156,0.105469 -0.18164,0.04687 -0.38086,0.04687 -0.24609,0 -0.38672,-0.128907 -0.14062,-0.128906 -0.14062,-0.380859 0,-0.263672 0.23437,-0.433594 0.2168,-0.164062 0.55664,-0.27539 0.041,-0.01172 0.082,-0.02344 0.0469,-0.01172 0.0879,-0.02344 0.0469,-0.01172 0.0937,-0.02344 0.0469,-0.01172 0.0937,-0.02344 0.1875,-0.04102 0.39257,-0.07031 0.41602,-0.06445 0.81446,-0.09375 0.40429,-0.0293 0.74414,-0.03516 0.16992,-0.0059 0.29297,-0.0059 0.0645,0 0.11718,0 0.0586,0 0.10547,0 0.38672,0 0.84375,0.03516 0.45703,0.03516 0.90821,0.117187 0.22851,0.04687 0.45117,0.105469 0.11133,0.0293 0.21679,0.06445 0.10547,0.03516 0.21094,0.07617 0.0234,0.0059 0.041,0.01758 0.0234,0.0059 0.041,0.01758 0.0234,0.0059 0.041,0.01758 0.0176,0.0059 0.0352,0.01758 0.0234,0.0059 0.0469,0.01758 0.0234,0.01172 0.0469,0.02344 0.0234,0.01172 0.0469,0.02344 0.0234,0.01172 0.0469,0.02344 0.0234,0.01172 0.0469,0.02344 0.0937,0.05273 0.18164,0.111328 0.041,0.0293 0.082,0.06445 0.041,0.0293 0.082,0.05859 0.32813,0.257812 0.52149,0.632812 0.19336,0.375 0.19336,0.878906 0,0.134766 -0.0176,0.263672 -0.0176,0.123047 -0.0527,0.240235 -0.0293,0.117187 -0.082,0.222656 -0.0469,0.105469 -0.11133,0.199219 -0.041,0.06445 -0.0937,0.123047 -0.0469,0.05273 -0.0996,0.111328 -0.10547,0.111328 -0.22266,0.205078 -0.11719,0.08789 -0.25195,0.169922 -0.19922,0.117187 -0.42774,0.199218 -0.11133,0.04102 -0.22851,0.08203 -0.11719,0.03516 -0.24024,0.06445 -0.041,0.01172 -0.082,0.02344 -0.041,0.0059 -0.082,0.01758 -0.041,0.0059 -0.082,0.01172 -0.041,0.0059 -0.082,0.01758 -0.0352,0.0059 -0.0762,0.01172 -0.041,0.0059 -0.082,0.01172 -0.11718,0.01758 -0.23437,0.0293 -0.11719,0.01172 -0.23438,0.01758 l -1.89843,0.09961 -0.4043,2.554688 q -0.006,0.0293 -0.0176,0.07031 -0.006,0.03516 -0.0117,0.08203 -0.006,0.04687 -0.0176,0.105469 -0.0234,0.169922 -0.0644,0.369141 -0.041,0.199218 -0.10547,0.398437 -0.0644,0.210938 -0.16406,0.38086 -0.0996,0.175781 -0.23438,0.287109 -0.14648,0.117187 -0.33398,0.117187 -0.12305,0 -0.22266,-0.03516 -0.0469,-0.01758 -0.0937,-0.04687 -0.041,-0.0293 -0.0762,-0.06445 -0.0352,-0.03516 -0.0586,-0.07617 -0.0234,-0.04687 -0.041,-0.09961 -0.0351,-0.09961 -0.0351,-0.216797 z m 3.66211,-7.007812 q -0.33985,-0.03516 -0.64454,-0.04102 -0.31054,-0.0059 -0.52734,-0.0059 -0.006,0 -0.0117,0 -0.006,0 -0.0117,0 h -0.0234 q -0.0117,0 -0.0352,0 -0.006,0 -0.0176,0 -0.006,0 -0.0176,0 l -0.14648,0.0059 q -0.0762,0 -0.12891,0.0059 l -0.0293,0.0059 -0.0117,0.02344 q -0.006,0.134765 -0.0117,0.251953 0,0.06445 -0.006,0.128906 0,0.05859 0,0.117188 -0.006,0.123046 -0.0117,0.240234 -0.006,0.152344 -0.0117,0.316406 0,0.05274 -0.006,0.111328 0,0.05274 -0.006,0.105469 0,0.05273 0,0.105469 -0.006,0.152344 -0.0117,0.292969 0,0.04687 0,0.09375 0,0.04101 0,0.08203 0,0.03516 0,0.07031 v 0.292969 q 0.0879,0 0.19336,0.0059 0.11133,0 0.25196,0 h 0.19922 0.16992 q 0.17578,0 0.36914,-0.0059 0.39844,-0.01172 0.81445,-0.06445 0.20508,-0.0293 0.39258,-0.07031 0.19336,-0.04687 0.36328,-0.105468 0.33398,-0.117188 0.53906,-0.304688 0.0469,-0.04687 0.082,-0.09375 0.041,-0.05273 0.0645,-0.111328 0.0293,-0.05859 0.041,-0.123047 0.0117,-0.06445 0.0117,-0.134765 0,-0.152344 -0.041,-0.28125 -0.0352,-0.128907 -0.11133,-0.234375 -0.0234,-0.03516 -0.0527,-0.06445 -0.0293,-0.03516 -0.0645,-0.06445 -0.0293,-0.03516 -0.0644,-0.06445 -0.0117,-0.01172 -0.0234,-0.01758 -0.0117,-0.01172 -0.0234,-0.01758 -0.0117,-0.01172 -0.0234,-0.02344 -0.0352,-0.0293 -0.0762,-0.05273 -0.0176,-0.01172 -0.041,-0.02344 -0.0176,-0.01172 -0.041,-0.02344 -0.1289,-0.07031 -0.28125,-0.123047 -0.14648,-0.05273 -0.31055,-0.09375 -0.11132,-0.02344 -0.22265,-0.04687 -0.0586,-0.01172 -0.11719,-0.01758 -0.0527,-0.01172 -0.11133,-0.01758 -0.0527,-0.01172 -0.10547,-0.01758 -0.0527,-0.0059 -0.11132,-0.01172 z"
     id="text6"
     style="font-size:12px;font-family:Lavi;-inkscape-font-specification:Lavi"
     aria-label="P" />
  <!-- Right diagram -->
  <path
     id="rect6"
     style="fill:none;stroke:#000000"
     d="m 210,10 h 80 v 80 h -80 z" />
  <path
     id="rect7"
     style="fill:none;stroke:#000000"
     d="m 220,20 h 60 v 60 h -60 z" />
  <path
     d="m 275.66602,32.248047 q 0,1.740234 -0.73829,1.740234 -0.22265,0 -0.29882,-0.05859 -0.11719,-0.09961 -0.12891,-0.09961 -0.006,-0.0059 -0.0176,-0.01758 -0.006,-0.01172 -0.0469,-0.05273 -0.041,-0.04687 -0.041,-0.134766 V 33.25 l 0.20508,-1.751953 q 0.0293,-0.339844 0.041,-0.761719 0.0176,-0.427734 0.0293,-0.697266 0.0117,-0.269531 0.0234,-0.621093 0.0176,-0.357422 0.0234,-0.673828 0.0117,-0.322266 0.0176,-0.533204 v -1.224609 l -2.11523,2.408203 q -0.0879,0.08789 -0.0996,0.105469 -0.21094,0.251953 -0.52148,0.251953 -0.14063,0 -0.2168,-0.03516 -0.0703,-0.04102 -0.0762,-0.04102 -0.006,-0.0059 -0.0176,-0.0059 -0.006,-0.0059 -0.0234,-0.01758 -0.0469,-0.0293 -0.0645,-0.05859 -0.0176,-0.03516 -0.0293,-0.05273 -0.0117,-0.01758 -0.041,-0.05859 -0.0234,-0.04687 -0.082,-0.134766 -0.0586,-0.09375 -0.15235,-0.240234 -0.0879,-0.152344 -0.19336,-0.316406 -0.0996,-0.169922 -0.19336,-0.316407 -0.0937,-0.146484 -0.16406,-0.263672 l -0.10547,-0.169921 q -0.0644,-0.111329 -0.26953,-0.38086 -0.20508,-0.27539 -0.26367,-0.351562 -0.082,-0.117188 -0.0996,-0.134766 -0.0176,-0.01758 -0.0176,-0.02344 l -0.32812,3.287109 v 0.0059 q -0.006,0.01172 -0.0117,0.03516 -0.006,0.05859 -0.0176,0.123046 -0.0117,0.06445 -0.041,0.210938 -0.0234,0.146484 -0.0586,0.322266 -0.0293,0.169921 -0.0645,0.333984 -0.0352,0.164062 -0.0586,0.275391 -0.0234,0.111328 -0.0352,0.169921 -0.0234,0.134766 -0.0352,0.169922 -0.0117,0.03516 -0.0176,0.05859 0,0.02344 -0.0117,0.05859 -0.006,0.03516 -0.0176,0.111328 -0.2461,1.535156 -0.91993,1.535156 h -0.041 l -0.18164,-0.0293 q -0.0117,-0.0059 -0.0234,-0.01172 -0.006,-0.0059 -0.0176,-0.0059 -0.0117,-0.0059 -0.0234,-0.01172 -0.006,-0.0059 -0.0176,-0.01172 -0.0117,-0.0059 -0.0234,-0.01172 -0.006,-0.0059 -0.0176,-0.01172 -0.006,-0.0059 -0.0176,-0.01172 -0.16992,-0.117187 -0.16992,-0.421875 v -0.140625 q 0.22266,-0.451171 0.38672,-1.253906 0.16992,-0.808594 0.31055,-1.605469 0.14648,-0.802734 0.25195,-2.080078 0.10547,-1.277343 0.10547,-2.513672 v -0.269531 q 0.0703,-0.304687 0.36914,-0.427734 Q 269.33203,25 269.53125,25 q 0.17578,0 0.39844,0.263672 h 0.006 l 1.76953,2.373047 0.006,0.0059 0.41015,0.626953 2.72461,-3.117187 q 0.14063,-0.140625 0.22266,-0.175782 0.082,-0.04102 0.21094,-0.04102 0.13476,0 0.20507,0.02344 0.0937,0.0293 0.10547,0.03516 0.0117,0.0059 0.0234,0.01172 0.0176,0.0059 0.0293,0.01758 0.0117,0.0059 0.0351,0.01758 0.0762,0.03516 0.0996,0.07617 0.0234,0.04102 0.0352,0.05859 0.0176,0.01758 0.0234,0.04102 0.0117,0.02344 0.0234,0.04687 0.0117,0.04102 0.0117,0.105469 v 1.699218 l -0.19922,5.080078 z"
     id="text7"
     style="font-size:12px;font-family:Lavi;-inkscape-font-specification:Lavi"
     aria-label="M" />
  <path
     d="m 245.5918,54.015625 q -0.0645,-0.07617 -0.11719,-0.152344 -0.16406,-0.251953 -0.16406,-0.568359 0,-0.228516 0.14062,-0.392578 0.14649,-0.164063 0.39844,-0.164063 0.14062,0 0.28711,0.08789 0.13476,0.08203 0.29883,0.210937 0.1582,0.123047 0.3457,0.263672 0.1875,0.140625 0.41016,0.257813 0.22851,0.117187 0.5039,0.193359 0.26953,0.08203 0.59766,0.08203 0.082,0 0.16992,-0.0059 0.0937,-0.0059 0.1875,-0.01172 0.0996,-0.01172 0.20508,-0.02344 0.3164,-0.04102 0.65039,-0.123047 0.33984,-0.08789 0.65625,-0.216797 0.1582,-0.06445 0.29883,-0.140625 0.14062,-0.08203 0.26367,-0.181641 0.24609,-0.1875 0.39258,-0.427734 0.0703,-0.117188 0.10547,-0.251953 0.041,-0.134766 0.041,-0.28711 0,-0.205078 -0.0996,-0.36914 -0.10547,-0.175781 -0.26953,-0.310547 -0.082,-0.07031 -0.17578,-0.123047 -0.0937,-0.05859 -0.19922,-0.105469 -0.0996,-0.04687 -0.19922,-0.08203 -0.0996,-0.04102 -0.19922,-0.06445 l -2.65429,-0.673828 q -0.0469,-0.01172 -0.0996,-0.02344 -0.0469,-0.01758 -0.0996,-0.03516 -0.0469,-0.01758 -0.0996,-0.0293 -0.0469,-0.01758 -0.0996,-0.03516 -0.0469,-0.01758 -0.0937,-0.03516 -0.0469,-0.02344 -0.0996,-0.04102 -0.041,-0.01758 -0.082,-0.03516 -0.041,-0.02344 -0.082,-0.04102 -0.041,-0.02344 -0.082,-0.04102 -0.0352,-0.02344 -0.0762,-0.04687 -0.0351,-0.02344 -0.0762,-0.04687 -0.0352,-0.02344 -0.0703,-0.04687 -0.0352,-0.02344 -0.0703,-0.05273 -0.2461,-0.18164 -0.42774,-0.427734 -0.18164,-0.246094 -0.25195,-0.5625 v -0.0059 -0.0059 0 -0.351562 q 0,-0.509766 0.16406,-0.931641 0.082,-0.210938 0.19336,-0.392578 0.11133,-0.1875 0.25781,-0.345703 0.15235,-0.158203 0.32813,-0.28711 0.18164,-0.128906 0.39258,-0.228515 0.21093,-0.09961 0.45117,-0.164063 0.0762,-0.02344 0.1582,-0.04102 0.082,-0.01758 0.16406,-0.0293 0.0879,-0.01172 0.16993,-0.02344 h 0.006 q 0.0176,0 0.0469,0 0.0293,0 0.0703,0 0.0469,-0.0059 0.0937,-0.0059 0.0469,0 0.0937,0 0.0996,0 0.1875,-0.0059 0.0469,0 0.0762,-0.0059 0.0176,0 0.0293,0 0.0117,0 0.0234,0 0.15234,0 0.43945,0 0.29297,0.0059 0.65039,0.03516 0.35743,0.02344 0.72071,0.07617 0.36914,0.05273 0.67382,0.158203 0.0176,0.0059 0.0352,0.01172 0.0234,0.0059 0.041,0.01172 0.0176,0.0059 0.0351,0.01758 0.0176,0.0059 0.0352,0.01172 0.0703,0.0293 0.12891,0.06445 0.0644,0.0293 0.11718,0.06445 0.0586,0.03516 0.10547,0.07617 0.10547,0.08203 0.1582,0.193359 0.0293,0.05273 0.041,0.111328 0.0117,0.05273 0.0117,0.117188 0,0.05859 -0.0117,0.111328 -0.006,0.05273 -0.0234,0.09961 -0.0117,0.02344 -0.0234,0.04687 -0.006,0.02344 -0.0234,0.04687 -0.0293,0.04687 -0.0586,0.08789 -0.0703,0.08203 -0.17578,0.123047 -0.0351,0.01172 -0.0703,0.02344 -0.0352,0.0059 -0.0762,0.01172 -0.0352,0.0059 -0.0762,0.0059 h -0.0703 -0.006 -0.006 q -0.64454,-0.140625 -1.28321,-0.257812 -0.10547,-0.01758 -0.21094,-0.03516 -0.10546,-0.01758 -0.21679,-0.0293 -0.10547,-0.01172 -0.21094,-0.02344 -0.16406,-0.01172 -0.32812,-0.01758 -0.15821,-0.01172 -0.32227,-0.01172 -0.0644,0 -0.12891,0.0059 -0.0586,0 -0.11718,0.0059 -0.0586,0 -0.11719,0.0059 -0.0586,0.0059 -0.11719,0.01172 -0.11719,0.01172 -0.22266,0.03516 -0.082,0.01758 -0.1582,0.04102 -0.0176,0.0059 -0.041,0.01172 -0.0176,0.0059 -0.0352,0.01172 -0.0176,0.0059 -0.0352,0.01172 -0.0176,0.0059 -0.0352,0.01172 -0.0176,0.0059 -0.0352,0.01758 -0.0176,0.0059 -0.0352,0.01172 -0.0176,0.0059 -0.0352,0.01758 -0.0176,0.0059 -0.0293,0.01758 -0.0644,0.03516 -0.1289,0.07031 -0.24024,0.158203 -0.38086,0.416015 -0.0703,0.128907 -0.10547,0.292969 -0.0352,0.164063 -0.0352,0.363281 0,0.152344 0.0762,0.263672 0.006,0.0059 0.006,0.01758 0.006,0.0059 0.0117,0.01172 0.006,0.0059 0.006,0.01172 0.0117,0.01758 0.0293,0.03516 0.0176,0.01758 0.0352,0.03516 0.0176,0.01758 0.0352,0.03516 0.0176,0.01758 0.0352,0.03516 0.0176,0.01172 0.0352,0.0293 0.041,0.0293 0.082,0.05859 0.0469,0.02344 0.0937,0.04687 0.0234,0.01172 0.0469,0.02344 0.0234,0.01172 0.0469,0.02344 0.15235,0.06445 0.29297,0.09375 l 2.54883,0.644531 q 0.10547,0.02344 0.20508,0.05859 0.10547,0.0293 0.21094,0.07031 0.20507,0.07031 0.41015,0.164063 0.39844,0.1875 0.70313,0.451171 0.10547,0.08789 0.19336,0.19336 0.0469,0.05273 0.0879,0.105469 0.041,0.05273 0.082,0.105468 0.0762,0.111328 0.14062,0.234375 0.19336,0.369141 0.19336,0.832032 0,0.164062 -0.0234,0.316406 -0.0176,0.152344 -0.0645,0.292969 -0.041,0.140625 -0.0996,0.27539 -0.0937,0.199219 -0.22265,0.375 -0.12891,0.175781 -0.28125,0.333985 -0.0762,0.07617 -0.16407,0.152343 -0.0879,0.07031 -0.17578,0.140625 -0.18164,0.134766 -0.38672,0.246094 -0.42187,0.222656 -0.8789,0.375 -0.22852,0.07617 -0.46289,0.128906 -0.23438,0.05273 -0.46875,0.09375 -0.22852,0.03516 -0.45117,0.05273 -0.2168,0.01758 -0.42188,0.01758 -0.22266,0 -0.52734,-0.03516 -0.30469,-0.04102 -0.63282,-0.123047 -0.0469,-0.01172 -0.0937,-0.0293 -0.0234,-0.0059 -0.0527,-0.01172 -0.0234,-0.0059 -0.0469,-0.01172 -0.0469,-0.01172 -0.0937,-0.02344 -0.0469,-0.01758 -0.0937,-0.03516 -0.0176,-0.0059 -0.0352,-0.01172 -0.0117,-0.0059 -0.0293,-0.01172 -0.0117,-0.0059 -0.0234,-0.01172 -0.0469,-0.01758 -0.0937,-0.03516 -0.0469,-0.01758 -0.0879,-0.03516 -0.32226,-0.128906 -0.57422,-0.316406 -0.082,-0.06445 -0.1582,-0.128907 -0.0351,-0.03516 -0.0762,-0.07031 -0.0352,-0.04102 -0.0644,-0.07617 z"
     id="text8"
     style="font-size:12px;font-family:Lavi;-inkscape-font-specification:Lavi"
     aria-label="S" />
</svg>
