<?xml version="1.0" encoding="UTF-8" standalone="no"?>
<svg
   viewBox="0 0 282 334.32031"
   version="1.1"
   id="svg16"
   sodipodi:docname="set-theory-diagrams-svg.svg"
   width="282"
   height="334.32031"
   inkscape:version="1.3.2 (091e20ef0f, 2023-11-25)"
   xmlns:inkscape="http://www.inkscape.org/namespaces/inkscape"
   xmlns:sodipodi="http://sodipodi.sourceforge.net/DTD/sodipodi-0.dtd"
   xmlns="http://www.w3.org/2000/svg"
   xmlns:svg="http://www.w3.org/2000/svg">
  <defs
     id="defs16" />
  <sodipodi:namedview
     id="namedview16"
     pagecolor="#ffffff"
     bordercolor="#000000"
     borderopacity="0.25"
     inkscape:showpageshadow="2"
     inkscape:pageopacity="0.0"
     inkscape:pagecheckerboard="0"
     inkscape:deskcolor="#d1d1d1"
     inkscape:zoom="1.0606602"
     inkscape:cx="74.953319"
     inkscape:cy="179.60512"
     inkscape:window-width="1920"
     inkscape:window-height="1009"
     inkscape:window-x="0"
     inkscape:window-y="38"
     inkscape:window-maximized="1"
     inkscape:current-layer="g16" />
  <!-- Diagram 19 -->
  <!-- Diagram 20 -->
  <!-- Diagram 21 -->
  <g
     transform="translate(-9,231)"
     id="g16">
    <path
       style="color:#000000;fill:#000000;-inkscape-stroke:none"
       d="m 50,-231 c -22.631807,0 -41,18.36819 -41,41 0,22.63181 18.368193,41 41,41 22.631807,0 41,-18.36819 41,-41 0,-22.63181 -18.368193,-41 -41,-41 z m 0,2 c 21.550928,0 39,17.44907 39,39 0,21.55093 -17.449072,39 -39,39 -21.550928,0 -39,-17.44907 -39,-39 0,-21.55093 17.449072,-39 39,-39 z"
       id="circle1" />
    <path
       style="color:#000000;fill:#000000;-inkscape-stroke:none"
       d="m 150,-231 c -22.63181,0 -41,18.36819 -41,41 0,22.63181 18.36819,41 41,41 22.63181,0 41,-18.36819 41,-41 0,-22.63181 -18.36819,-41 -41,-41 z m 0,2 c 21.55093,0 39,17.44907 39,39 0,21.55093 -17.44907,39 -39,39 -21.55093,0 -39,-17.44907 -39,-39 0,-21.55093 17.44907,-39 39,-39 z"
       id="circle2" />
    <path
       style="color:#000000;fill:#000000;-inkscape-stroke:none"
       d="m 250,-231 c -22.63181,0 -41,18.36819 -41,41 0,22.63181 18.36819,41 41,41 22.63181,0 41,-18.36819 41,-41 0,-22.63181 -18.36819,-41 -41,-41 z m 0,2 c 21.55093,0 39,17.44907 39,39 0,21.55093 -17.44907,39 -39,39 -21.55093,0 -39,-17.44907 -39,-39 0,-21.55093 17.44907,-39 39,-39 z"
       id="circle3" />
    <path
       d="m 43.986328,-186.64062 q -0.107422,-0.12696 -0.195312,-0.25391 -0.273438,-0.41992 -0.273438,-0.94727 0,-0.38086 0.234375,-0.65429 0.244141,-0.27344 0.664063,-0.27344 0.234375,0 0.478515,0.14648 0.22461,0.13672 0.498047,0.35157 0.263672,0.20507 0.576172,0.43945 0.3125,0.23437 0.683594,0.42969 0.380859,0.19531 0.839843,0.32226 0.449219,0.13672 0.996094,0.13672 0.136719,0 0.283203,-0.01 0.15625,-0.01 0.3125,-0.0195 0.166016,-0.0195 0.341797,-0.0391 0.527344,-0.0684 1.083985,-0.20508 0.566406,-0.14648 1.09375,-0.36132 0.263671,-0.10743 0.498046,-0.23438 0.234375,-0.13672 0.439454,-0.30273 0.410156,-0.3125 0.654296,-0.71289 0.117188,-0.19532 0.175782,-0.41993 0.06836,-0.22461 0.06836,-0.47851 0,-0.3418 -0.166016,-0.61524 -0.175781,-0.29297 -0.449218,-0.51757 -0.136719,-0.11719 -0.292969,-0.20508 -0.15625,-0.0977 -0.332031,-0.17578 -0.166016,-0.0781 -0.332032,-0.13672 -0.166015,-0.0684 -0.332031,-0.10742 l -4.423828,-1.12305 q -0.07813,-0.0195 -0.166016,-0.0391 -0.07813,-0.0293 -0.166015,-0.0586 -0.07813,-0.0293 -0.166016,-0.0488 -0.07813,-0.0293 -0.166015,-0.0586 -0.07813,-0.0293 -0.15625,-0.0586 -0.07813,-0.0391 -0.166016,-0.0684 -0.06836,-0.0293 -0.136719,-0.0586 -0.06836,-0.0391 -0.136719,-0.0684 -0.06836,-0.0391 -0.136718,-0.0684 -0.05859,-0.0391 -0.126953,-0.0781 -0.05859,-0.0391 -0.126954,-0.0781 -0.05859,-0.0391 -0.117187,-0.0781 -0.05859,-0.0391 -0.117188,-0.0879 -0.410156,-0.30274 -0.71289,-0.71289 -0.302735,-0.41016 -0.419922,-0.9375 v -0.01 -0.01 0 -0.58594 q 0,-0.84961 0.273437,-1.55273 0.136719,-0.35157 0.322266,-0.6543 0.185547,-0.3125 0.429688,-0.57617 0.253906,-0.26368 0.546875,-0.47852 0.302734,-0.21484 0.654296,-0.38086 0.351563,-0.16601 0.751954,-0.27344 0.126953,-0.0391 0.263671,-0.0684 0.136719,-0.0293 0.273438,-0.0488 0.146484,-0.0195 0.283203,-0.0391 h 0.0098 q 0.0293,0 0.07813,0 0.04883,0 0.117187,0 0.07813,-0.01 0.15625,-0.01 0.07813,0 0.15625,0 0.166016,0 0.3125,-0.01 0.07813,0 0.126953,-0.01 0.0293,0 0.04883,0 0.01953,0 0.03906,0 0.253906,0 0.732422,0 0.488281,0.01 1.083984,0.0586 0.595703,0.0391 1.201172,0.12695 0.615234,0.0879 1.123047,0.26368 0.0293,0.01 0.05859,0.0195 0.03906,0.01 0.06836,0.0195 0.0293,0.01 0.05859,0.0293 0.0293,0.01 0.05859,0.0195 0.117187,0.0488 0.214843,0.10742 0.107422,0.0488 0.195313,0.10742 0.09766,0.0586 0.175781,0.12695 0.175781,0.13672 0.263672,0.32227 0.04883,0.0879 0.06836,0.18555 0.01953,0.0879 0.01953,0.19531 0,0.0976 -0.01953,0.18555 -0.0098,0.0879 -0.03906,0.16601 -0.01953,0.0391 -0.03906,0.0781 -0.0098,0.0391 -0.03906,0.0781 -0.04883,0.0781 -0.09766,0.14649 -0.117188,0.13671 -0.292969,0.20507 -0.05859,0.0195 -0.117188,0.0391 -0.05859,0.01 -0.126953,0.0195 -0.05859,0.01 -0.126953,0.01 h -0.117187 -0.0098 -0.0098 q -1.074218,-0.23437 -2.138672,-0.42968 -0.175781,-0.0293 -0.351562,-0.0586 -0.175781,-0.0293 -0.361328,-0.0488 -0.175781,-0.0195 -0.351563,-0.0391 -0.273437,-0.0195 -0.546875,-0.0293 -0.263672,-0.0195 -0.537109,-0.0195 -0.107422,0 -0.214844,0.01 -0.09766,0 -0.195312,0.01 -0.09766,0 -0.195313,0.01 -0.09766,0.01 -0.195312,0.0195 -0.195313,0.0195 -0.371094,0.0586 -0.136719,0.0293 -0.263672,0.0684 -0.0293,0.01 -0.06836,0.0195 -0.0293,0.01 -0.05859,0.0195 -0.0293,0.01 -0.05859,0.0195 -0.0293,0.01 -0.05859,0.0195 -0.0293,0.01 -0.05859,0.0293 -0.0293,0.01 -0.05859,0.0195 -0.0293,0.01 -0.05859,0.0293 -0.0293,0.01 -0.04883,0.0293 -0.107422,0.0586 -0.214844,0.11719 -0.40039,0.26367 -0.634765,0.69336 -0.117188,0.21484 -0.175782,0.48828 -0.05859,0.27344 -0.05859,0.60547 0,0.2539 0.126953,0.43945 0.0098,0.01 0.0098,0.0293 0.0098,0.01 0.01953,0.0195 0.0098,0.01 0.0098,0.0195 0.01953,0.0293 0.04883,0.0586 0.0293,0.0293 0.05859,0.0586 0.0293,0.0293 0.05859,0.0586 0.0293,0.0293 0.05859,0.0586 0.0293,0.0195 0.05859,0.0488 0.06836,0.0488 0.136719,0.0977 0.07813,0.0391 0.15625,0.0781 0.03906,0.0195 0.07813,0.0391 0.03906,0.0195 0.07813,0.0391 0.253906,0.10742 0.488281,0.15625 l 4.248047,1.07422 q 0.175782,0.0391 0.341797,0.0976 0.175781,0.0488 0.351563,0.11719 0.341797,0.11719 0.683593,0.27344 0.664063,0.3125 1.171875,0.75195 0.175782,0.14649 0.322266,0.32227 0.07813,0.0879 0.146484,0.17578 0.06836,0.0879 0.136719,0.17578 0.126953,0.18555 0.234375,0.39063 0.322266,0.61523 0.322266,1.38671 0,0.27344 -0.03906,0.52735 -0.0293,0.2539 -0.107422,0.48828 -0.06836,0.23437 -0.166015,0.45898 -0.15625,0.33204 -0.371094,0.625 -0.214844,0.29297 -0.46875,0.55664 -0.126953,0.12696 -0.273437,0.25391 -0.146485,0.11719 -0.292969,0.23438 -0.302735,0.22461 -0.644531,0.41015 -0.703125,0.3711 -1.464844,0.625 -0.38086,0.12696 -0.771485,0.21485 -0.390625,0.0879 -0.78125,0.15625 -0.380859,0.0586 -0.751953,0.0879 -0.361328,0.0293 -0.703125,0.0293 -0.371093,0 -0.878906,-0.0586 -0.507812,-0.0684 -1.054687,-0.20508 -0.07813,-0.0195 -0.15625,-0.0488 -0.03906,-0.01 -0.08789,-0.0195 -0.03906,-0.01 -0.07813,-0.0195 -0.07813,-0.0195 -0.15625,-0.0391 -0.07813,-0.0293 -0.15625,-0.0586 -0.0293,-0.01 -0.05859,-0.0195 -0.01953,-0.01 -0.04883,-0.0195 -0.01953,-0.01 -0.03906,-0.0195 -0.07813,-0.0293 -0.15625,-0.0586 -0.07813,-0.0293 -0.146485,-0.0586 -0.537109,-0.21484 -0.957031,-0.52734 -0.136719,-0.10742 -0.263672,-0.21484 -0.05859,-0.0586 -0.126953,-0.11719 -0.05859,-0.0684 -0.107422,-0.12695 z"
       id="text3"
       style="-inkscape-font-specification:Lavi"
       aria-label="S" />
    <path
       d="m 146.92383,-186.13281 v -0.01 -0.01 -0.01 l 0.67383,-2.5 q 0.30273,-1.08398 0.45898,-2.2168 0.16602,-1.14257 0.24414,-2.30468 0.0781,-1.16211 0.0977,-2.32422 0.01,-1.10352 0.01,-2.1875 h -0.0391 q -0.0781,0 -0.16602,0.01 -0.0781,0 -0.15625,0.01 -0.0781,0.01 -0.15625,0.0293 -0.0781,0.01 -0.14648,0.0293 -0.3125,0.0781 -0.61523,0.16602 -0.30274,0.0976 -0.58594,0.17578 -0.30274,0.0781 -0.63477,0.0781 -0.41015,0 -0.64453,-0.21484 -0.23437,-0.21484 -0.23437,-0.63476 0,-0.43946 0.39062,-0.72266 0.36133,-0.27344 0.92774,-0.45899 0.0684,-0.0195 0.13671,-0.0391 0.0781,-0.0195 0.14649,-0.0391 0.0781,-0.0195 0.15625,-0.0391 0.0781,-0.0195 0.15625,-0.0391 0.3125,-0.0684 0.6543,-0.11718 0.69336,-0.10742 1.35742,-0.15625 0.67383,-0.0488 1.24023,-0.0586 0.28321,-0.01 0.48828,-0.01 0.10743,0 0.19532,0 0.0977,0 0.17578,0 0.64453,0 1.40625,0.0586 0.76172,0.0586 1.51367,0.19531 0.38086,0.0781 0.75195,0.17579 0.18555,0.0488 0.36133,0.10742 0.17578,0.0586 0.35156,0.12695 0.0391,0.01 0.0684,0.0293 0.0391,0.01 0.0684,0.0293 0.0391,0.01 0.0684,0.0293 0.0293,0.01 0.0586,0.0293 0.0391,0.01 0.0781,0.0293 0.0391,0.0195 0.0781,0.0391 0.0391,0.0195 0.0781,0.0391 0.0391,0.0195 0.0781,0.0391 0.0391,0.0195 0.0781,0.0391 0.15625,0.0879 0.30273,0.18555 0.0684,0.0488 0.13672,0.10742 0.0684,0.0488 0.13672,0.0977 0.54688,0.42969 0.86914,1.05469 0.32227,0.625 0.32227,1.46484 0,0.22461 -0.0293,0.43945 -0.0293,0.20508 -0.0879,0.40039 -0.0488,0.19532 -0.13672,0.3711 -0.0781,0.17578 -0.18555,0.33203 -0.0684,0.10742 -0.15625,0.20508 -0.0781,0.0879 -0.16601,0.18554 -0.17578,0.18555 -0.37109,0.3418 -0.19532,0.14649 -0.41993,0.2832 -0.33203,0.19532 -0.71289,0.33204 -0.18554,0.0684 -0.38086,0.13671 -0.19531,0.0586 -0.40039,0.10743 -0.0684,0.0195 -0.13672,0.0391 -0.0684,0.01 -0.13671,0.0293 -0.0684,0.01 -0.13672,0.0195 -0.0684,0.01 -0.13672,0.0293 -0.0586,0.01 -0.12696,0.0195 -0.0684,0.01 -0.13671,0.0195 -0.19532,0.0293 -0.39063,0.0488 -0.19531,0.0195 -0.39062,0.0293 l -3.16407,0.16602 -0.67382,4.25781 q -0.01,0.0488 -0.0293,0.11719 -0.01,0.0586 -0.0195,0.13672 -0.01,0.0781 -0.0293,0.17578 -0.0391,0.2832 -0.10742,0.61523 -0.0684,0.33203 -0.17578,0.66406 -0.10742,0.35157 -0.27344,0.63477 -0.16602,0.29297 -0.39063,0.47852 -0.24414,0.19531 -0.55664,0.19531 -0.20507,0 -0.37109,-0.0586 -0.0781,-0.0293 -0.15625,-0.0781 -0.0684,-0.0488 -0.12695,-0.10742 -0.0586,-0.0586 -0.0977,-0.12696 -0.0391,-0.0781 -0.0684,-0.16601 -0.0586,-0.16602 -0.0586,-0.36133 z m 6.10351,-11.67969 q -0.5664,-0.0586 -1.07422,-0.0684 -0.51757,-0.01 -0.8789,-0.01 -0.01,0 -0.0195,0 -0.01,0 -0.0195,0 h -0.0391 q -0.0195,0 -0.0586,0 -0.01,0 -0.0293,0 -0.01,0 -0.0293,0 l -0.24414,0.01 q -0.12696,0 -0.21485,0.01 l -0.0488,0.01 -0.0195,0.0391 q -0.01,0.22461 -0.0195,0.41993 0,0.10742 -0.01,0.21484 0,0.0977 0,0.19531 -0.01,0.20508 -0.0195,0.40039 -0.01,0.25391 -0.0195,0.52735 0,0.0879 -0.01,0.18554 0,0.0879 -0.01,0.17579 0,0.0879 0,0.17578 -0.01,0.2539 -0.0195,0.48828 0,0.0781 0,0.15625 0,0.0684 0,0.13672 0,0.0586 0,0.11718 v 0.48829 q 0.14648,0 0.32227,0.01 0.18554,0 0.41992,0 h 0.33203 0.2832 q 0.29297,0 0.61524,-0.01 0.66406,-0.0195 1.35742,-0.10743 0.3418,-0.0488 0.6543,-0.11718 0.32226,-0.0781 0.60546,-0.17579 0.55664,-0.19531 0.89844,-0.50781 0.0781,-0.0781 0.13672,-0.15625 0.0684,-0.0879 0.10742,-0.18554 0.0488,-0.0977 0.0684,-0.20508 0.0195,-0.10742 0.0195,-0.22461 0,-0.25391 -0.0684,-0.46875 -0.0586,-0.21485 -0.18554,-0.39063 -0.0391,-0.0586 -0.0879,-0.10742 -0.0488,-0.0586 -0.10743,-0.10742 -0.0488,-0.0586 -0.10742,-0.10742 -0.0195,-0.0195 -0.0391,-0.0293 -0.0195,-0.0195 -0.0391,-0.0293 -0.0195,-0.0195 -0.0391,-0.0391 -0.0586,-0.0488 -0.12695,-0.0879 -0.0293,-0.0195 -0.0684,-0.0391 -0.0293,-0.0195 -0.0684,-0.0391 -0.21484,-0.11719 -0.46875,-0.20508 -0.24414,-0.0879 -0.51758,-0.15625 -0.18554,-0.0391 -0.37109,-0.0781 -0.0977,-0.0195 -0.19531,-0.0293 -0.0879,-0.0195 -0.18555,-0.0293 -0.0879,-0.0195 -0.17578,-0.0293 -0.0879,-0.01 -0.18555,-0.0195 z"
       id="text4"
       style="font-size:20px;font-family:Lavi;-inkscape-font-specification:Lavi"
       aria-label="P" />
    <path
       d="m 255.44336,-187.91992 q 0,2.90039 -1.23047,2.90039 -0.37109,0 -0.49805,-0.0977 -0.19531,-0.16601 -0.21484,-0.16601 -0.01,-0.01 -0.0293,-0.0293 -0.01,-0.0195 -0.0781,-0.0879 -0.0684,-0.0781 -0.0684,-0.22461 v -0.625 l 0.3418,-2.91992 q 0.0488,-0.56641 0.0684,-1.26953 0.0293,-0.71289 0.0488,-1.16211 0.0195,-0.44922 0.0391,-1.03516 0.0293,-0.5957 0.0391,-1.12305 0.0195,-0.5371 0.0293,-0.88867 v -2.04101 l -3.52539,4.01367 q -0.14648,0.14648 -0.16601,0.17578 -0.35156,0.41992 -0.86914,0.41992 -0.23438,0 -0.36133,-0.0586 -0.11719,-0.0684 -0.12695,-0.0684 -0.01,-0.01 -0.0293,-0.01 -0.01,-0.01 -0.0391,-0.0293 -0.0781,-0.0488 -0.10742,-0.0977 -0.0293,-0.0586 -0.0488,-0.0879 -0.0195,-0.0293 -0.0684,-0.0977 -0.0391,-0.0781 -0.13672,-0.22461 -0.0977,-0.15625 -0.25391,-0.40039 -0.14648,-0.2539 -0.32226,-0.52734 -0.16602,-0.2832 -0.32227,-0.52734 -0.15625,-0.24414 -0.27344,-0.43946 l -0.17578,-0.2832 q -0.10742,-0.18555 -0.44922,-0.63477 -0.34179,-0.45898 -0.43945,-0.58593 -0.13672,-0.19532 -0.16601,-0.22461 -0.0293,-0.0293 -0.0293,-0.0391 l -0.54688,5.47852 v 0.01 q -0.01,0.0195 -0.0195,0.0586 -0.01,0.0977 -0.0293,0.20508 -0.0195,0.10742 -0.0684,0.35156 -0.0391,0.24414 -0.0977,0.53711 -0.0488,0.2832 -0.10742,0.55664 -0.0586,0.27344 -0.0977,0.45898 -0.0391,0.18555 -0.0586,0.28321 -0.0391,0.22461 -0.0586,0.2832 -0.0195,0.0586 -0.0293,0.0977 0,0.0391 -0.0195,0.0976 -0.01,0.0586 -0.0293,0.18555 -0.41016,2.55859 -1.5332,2.55859 h -0.0684 l -0.30274,-0.0488 q -0.0195,-0.01 -0.0391,-0.0195 -0.01,-0.01 -0.0293,-0.01 -0.0195,-0.01 -0.0391,-0.0195 -0.01,-0.01 -0.0293,-0.0195 -0.0195,-0.01 -0.0391,-0.0195 -0.01,-0.01 -0.0293,-0.0195 -0.01,-0.01 -0.0293,-0.0195 -0.28321,-0.19531 -0.28321,-0.70312 v -0.23438 q 0.3711,-0.75195 0.64454,-2.08984 0.2832,-1.34766 0.51757,-2.67578 0.24414,-1.33789 0.41993,-3.4668 0.17578,-2.12891 0.17578,-4.18945 v -0.44922 q 0.11718,-0.50781 0.61523,-0.71289 0.11719,-0.0488 0.44922,-0.0488 0.29297,0 0.66406,0.43945 h 0.01 l 2.94922,3.95508 0.01,0.01 0.6836,1.04492 4.54101,-5.19531 q 0.23438,-0.23438 0.3711,-0.29297 0.13671,-0.0684 0.35156,-0.0684 0.22461,0 0.34179,0.0391 0.15625,0.0488 0.17579,0.0586 0.0195,0.01 0.0391,0.0195 0.0293,0.01 0.0488,0.0293 0.0195,0.01 0.0586,0.0293 0.12695,0.0586 0.16602,0.12695 0.0391,0.0684 0.0586,0.0977 0.0293,0.0293 0.0391,0.0684 0.0195,0.0391 0.0391,0.0781 0.0195,0.0684 0.0195,0.17578 v 2.83204 l -0.33204,8.46679 z"
       id="text5"
       style="font-size:20px;font-family:Lavi;-inkscape-font-specification:Lavi"
       aria-label="M" />
    <path
       d="m 124.16016,-134.75781 v -0.0859 l 0.60156,-4.00781 v -0.0312 -0.0234 q -0.0703,-0.0234 -0.61719,-0.10156 -1.89062,-0.28906 -2.42187,-0.46875 -1.17188,-0.39063 -1.5625,-0.65625 -0.38282,-0.27344 -0.71094,-0.60156 -0.32031,-0.32813 -0.57031,-0.94532 -0.25,-0.61718 -0.25,-1.375 0,-1.32812 0.875,-2.15625 0.10937,-0.0859 0.25,-0.0859 0.26562,0 0.5,0.29687 0.375,0.48438 0.375,0.77344 0,0 0,0.008 0.008,0.20313 -0.16407,0.45313 -0.17187,0.24218 -0.17968,0.75781 0,0.008 0,0.0156 0,1.89063 3.14843,2.3125 0.63282,0.0859 1.40625,0.0859 0.32032,-2.28906 0.42969,-4.39062 0.0312,-0.42969 0.40625,-0.60157 0.125,-0.0547 0.22656,-0.0547 0.44532,0 0.6875,0.3125 0.0781,0.0937 0.0781,0.21093 v 0.008 q -0.10938,2.28906 -0.375,5.46093 -0.25781,3.16407 -0.375,4.16407 -0.11719,1 -0.25,1.14843 -0.125,0.14063 -0.21875,0.24219 -0.10938,0.0859 -0.20313,0.0781 -0.16406,-0.008 -0.38281,-0.008 -0.21875,0 -0.46094,-0.1875 -0.24218,-0.1875 -0.24218,-0.54687 z m 7.52343,-5.5625 q -0.25781,0 -0.5625,0.0547 -0.29687,0.0469 -0.59375,0.14843 -0.29687,0.0937 -0.57812,0.24219 -0.28125,0.14063 -0.49219,0.33594 -0.21094,0.1875 -0.34375,0.42187 -0.125,0.22657 -0.125,0.5 0.11719,0 0.48438,-0.008 0.375,-0.0156 0.85937,-0.0391 0.49219,-0.0312 1.02344,-0.0703 0.53125,-0.0469 0.97656,-0.10938 0.45313,-0.0703 0.74219,-0.15625 0.28906,-0.0859 0.28906,-0.20312 0,-0.33594 -0.1875,-0.55469 -0.17969,-0.21875 -0.44531,-0.34375 -0.25781,-0.125 -0.54688,-0.17188 -0.28906,-0.0469 -0.5,-0.0469 z m -4.25781,2.25781 q 0,-0.80469 0.34375,-1.49219 0.34375,-0.69531 0.92969,-1.20312 0.58594,-0.50781 1.35156,-0.79688 0.77344,-0.29687 1.61719,-0.29687 0.58594,0 1.16406,0.14062 0.57813,0.13282 1.03906,0.44532 0.46094,0.3125 0.74219,0.82031 0.28906,0.50781 0.28906,1.24219 0,0.36718 -0.14062,0.65625 -0.14063,0.28906 -0.375,0.50781 -0.23438,0.21875 -0.53906,0.375 -0.30469,0.14844 -0.64063,0.25 -0.33594,0.10156 -0.67969,0.15625 -0.34375,0.0547 -0.64843,0.0703 l -2.8125,0.15625 V -137 q 0,0.39063 0.1875,0.67188 0.1875,0.28125 0.47656,0.46875 0.28906,0.1875 0.63281,0.28125 0.34375,0.0859 0.66406,0.0859 0.39063,0 0.72657,-0.14062 0.34375,-0.14063 0.66406,-0.30469 0.32031,-0.17187 0.63281,-0.3125 0.32031,-0.14062 0.65625,-0.14062 0.32031,0 0.54688,0.1875 0.22656,0.17968 0.22656,0.52343 0,0.32032 -0.19531,0.57813 -0.1875,0.25 -0.49219,0.45312 -0.30469,0.19532 -0.69531,0.33594 -0.38282,0.14063 -0.76563,0.23438 -0.38281,0.0859 -0.73437,0.125 -0.35157,0.0469 -0.59375,0.0469 -0.89844,0 -1.57032,-0.33594 -0.67187,-0.34375 -1.11718,-0.91406 -0.44532,-0.57812 -0.67188,-1.32812 -0.21875,-0.75782 -0.21875,-1.57813 z m 10.10938,-0.99219 -0.0234,0.10157 -0.008,0.0703 q -0.008,0.0547 -0.0234,0.25781 -0.0156,0.19531 -0.0469,0.46875 -0.0234,0.26563 -0.0625,0.57813 -0.0312,0.30468 -0.0547,0.57812 -0.0234,0.26563 -0.0469,0.46875 -0.0234,0.19531 -0.0234,0.25 0.24219,0.0781 0.42188,0.11719 0.17969,0.0391 0.33594,0.0625 0.16406,0.0156 0.32812,0.0391 0.17188,0.0156 0.39844,0.0547 0.36719,0.0547 0.78125,0.0859 0.17187,0.008 0.33594,0.0156 0.24218,0 0.48437,-0.0234 0.40625,-0.0391 0.78906,-0.14843 0.39063,-0.11719 0.70313,-0.32813 0.3125,-0.21875 0.53125,-0.54687 0.22656,-0.32813 0.30469,-0.78907 0.0391,-0.21093 0.0391,-0.41406 0,-0.125 -0.0156,-0.24219 -0.0391,-0.3125 -0.17187,-0.5625 -0.13281,-0.25781 -0.36719,-0.42187 -0.23437,-0.17188 -0.57031,-0.23438 -0.1875,-0.0312 -0.54688,-0.0547 -0.35937,-0.0312 -0.80468,-0.0312 -0.4375,0 -0.89844,0.0312 -0.46094,0.0312 -0.85156,0.10156 -0.38282,0.0703 -0.64844,0.20312 -0.25781,0.125 -0.28906,0.3125 z m -1.57032,-2.35937 q 0.0625,-0.32031 0.29688,-0.46875 0.17969,-0.10938 0.39844,-0.10938 0.0703,0 0.14062,0.008 0.28906,0.0547 0.42188,0.15625 0.13281,0.10156 0.1875,0.25 0.0625,0.14843 0.0781,0.32812 0.0156,0.17969 0.0625,0.39063 1.05469,-0.32813 2.13281,-0.34375 0.10157,0 0.19532,-0.008 0.98437,0 2,0.17969 0.61718,0.10938 1.09375,0.44531 0.47656,0.32813 0.77343,0.8125 0.29688,0.47657 0.40625,1.07032 0.0547,0.29687 0.0547,0.59375 0,0.29687 -0.0547,0.60937 -0.14062,0.8125 -0.61718,1.44531 -0.47657,0.63282 -1.14844,1.03907 -0.67188,0.42187 -1.45313,0.57812 -0.39062,0.0781 -0.76562,0.0781 h -0.0703 q -0.36719,0 -0.73438,-0.0625 l -2.23437,-0.30469 q -0.0703,0.38281 -0.10938,0.57812 -0.0312,0.19532 -0.0469,0.29688 -0.0156,0.10156 -0.0234,0.15625 -0.008,0.0625 -0.0234,0.16406 -0.0156,0.10156 -0.0547,0.29688 -0.0312,0.19531 -0.10156,0.57812 -0.0156,0.0859 -0.0547,0.29688 -0.0312,0.21875 -0.0781,0.45312 -0.0391,0.24219 -0.0781,0.45313 -0.0312,0.21875 -0.0469,0.29687 -0.11719,0.21875 -0.32813,0.32031 -0.20312,0.10157 -0.42187,0.0625 -0.28125,-0.0547 -0.4375,-0.25 -0.15625,-0.19531 -0.17969,-0.46875 0.0391,-0.20312 0.0859,-0.4375 0.0547,-0.22656 0.10156,-0.46875 0.0547,-0.23437 0.10156,-0.46875 0.0469,-0.23437 0.0703,-0.44531 0.0312,-0.3125 0.0781,-0.78906 0.0469,-0.48438 0.0937,-1.03125 0.0547,-0.55469 0.10156,-1.11719 0.0547,-0.57031 0.0937,-1.04687 0.0391,-0.47657 0.0625,-0.80469 0.0234,-0.33594 0.0312,-0.41406 l -0.0156,-2.79688 q 0,-0.0156 0.008,-0.0391 0,-0.0156 0,-0.0312 0.008,-0.0156 0.008,-0.0312 z m 9.4375,0.85937 q -0.13281,0 -0.22656,-0.0625 -0.0937,-0.0703 -0.15625,-0.16406 -0.0625,-0.10156 -0.0937,-0.21875 -0.0312,-0.11719 -0.0312,-0.21875 0,-0.0937 0.0312,-0.20312 0.0312,-0.10938 0.0937,-0.20313 0.0625,-0.0937 0.14063,-0.15625 0.0859,-0.0625 0.19531,-0.0625 h 5.9375 q 0.11719,0 0.35156,-0.008 0.11719,0 0.24219,0 0.13281,-0.008 0.27344,0 0.28125,0.008 0.5625,0.0469 0.28906,0.0391 0.52343,0.13282 0.23438,0.0937 0.38282,0.25781 0.15625,0.16406 0.15625,0.42187 0,0.28125 -0.17969,0.47657 -0.17188,0.19531 -0.46875,0.19531 -0.53906,0 -1.07813,-0.0703 -0.53125,-0.0703 -1.08593,-0.0703 l -1.25782,-0.0234 v 1.09375 q 0,4.09375 -0.88281,5.07812 -0.17969,0.20313 -0.36719,0.20313 -0.1875,0 -0.33593,-0.0469 -0.14063,-0.0469 -0.25782,-0.14062 -0.1875,-0.14844 -0.1875,-0.36719 0,-0.0781 0.0312,-0.1875 0.57032,-2.02344 0.67969,-5.65625 z m 9.71094,5.375 q 0,-0.23437 0.0859,-0.44531 0.0937,-0.21094 0.24219,-0.36719 0.15625,-0.15625 0.36718,-0.24218 0.21094,-0.0937 0.44532,-0.0937 0.23437,0 0.44531,0.0937 0.21094,0.0859 0.36719,0.24218 0.15625,0.15625 0.24218,0.36719 0.0937,0.21094 0.0937,0.44531 0,0.23438 -0.0937,0.44532 -0.0859,0.21093 -0.24218,0.36718 -0.15625,0.14844 -0.36719,0.24219 -0.21094,0.0859 -0.44531,0.0859 -0.23438,0 -0.44532,-0.0859 -0.21093,-0.0937 -0.36718,-0.24219 -0.14844,-0.15625 -0.24219,-0.36718 -0.0859,-0.21094 -0.0859,-0.44532 z m 15.51563,-0.41406 0.9375,0.17969 q 0.17187,0.0312 0.23437,0.0703 0.10938,0.0781 0.1875,0.1875 0.0781,0.10938 0.11719,0.24219 0.0469,0.125 0.0469,0.23437 0,0.0937 -0.0391,0.21094 -0.0312,0.10938 -0.0937,0.21094 -0.0625,0.0937 -0.15625,0.16406 -0.0859,0.0703 -0.19531,0.0703 h -5.03125 q -0.1875,0 -0.375,-0.0234 -0.17969,-0.0234 -0.32813,-0.0937 -0.14062,-0.0781 -0.23437,-0.21094 -0.0859,-0.14063 -0.0859,-0.35938 0,-0.11718 0.0234,-0.25 0.0312,-0.13281 0.0937,-0.24218 0.0703,-0.10938 0.17187,-0.17969 0.10157,-0.0781 0.25,-0.0781 h 2.92969 v -7.63281 -0.14844 q -0.26562,0.20313 -0.5625,0.39844 -0.29687,0.1875 -0.61719,0.34375 -0.3125,0.14844 -0.64843,0.24219 -0.33594,0.0859 -0.6875,0.0859 h -0.26563 q -0.24219,-0.0859 -0.34375,-0.25 -0.10156,-0.17188 -0.10156,-0.42969 0,-0.21094 0.11719,-0.36719 0.11718,-0.15625 0.30468,-0.27344 0.1875,-0.11718 0.41407,-0.20312 0.23437,-0.0937 0.46875,-0.17188 0.23437,-0.0859 0.44531,-0.16406 0.21094,-0.0859 0.35156,-0.1875 0.44531,-0.32812 0.84375,-0.72656 0.39844,-0.39844 0.76563,-0.78125 0.0781,-0.0625 0.17187,-0.0859 0.0937,-0.0156 0.19531,-0.0156 0.3125,0 0.50782,0.21875 0.19531,0.21875 0.19531,0.53906 V -145 Z m 11.02343,-3.52344 q -0.14062,1.01563 -0.59375,1.9375 -0.45312,0.91407 -1.15625,1.60938 -0.70312,0.69531 -1.63281,1.10937 -0.92187,0.40625 -2.00781,0.40625 -0.15625,0 -0.38281,0.0234 -0.22657,0.0156 -0.47657,0.0234 -0.24218,0.008 -0.49218,-0.008 -0.25,-0.0234 -0.44532,-0.0937 -0.19531,-0.0703 -0.32031,-0.21094 -0.11719,-0.14063 -0.11719,-0.38281 0,-0.29688 0.21094,-0.47657 0.21094,-0.17968 0.49219,-0.17968 0.38281,0 0.75781,-0.0469 0.375,-0.0469 0.77344,-0.0469 0.47656,0 0.96094,-0.13282 0.48437,-0.13281 0.92187,-0.375 0.44531,-0.24218 0.82813,-0.57812 0.39062,-0.33594 0.67187,-0.74219 0.28125,-0.41406 0.44531,-0.88281 0.16407,-0.46875 0.16407,-0.97656 v -0.11719 q -0.3125,0.23437 -0.70313,0.45312 -0.39062,0.21094 -0.82031,0.36719 -0.42188,0.15625 -0.86719,0.25 -0.4375,0.0937 -0.84375,0.0937 -0.86719,0 -1.50781,-0.33594 -0.64063,-0.33593 -1.07031,-0.89843 -0.42188,-0.5625 -0.63282,-1.30469 -0.21093,-0.74219 -0.21093,-1.55469 0,-0.5 0.17187,-0.97656 0.17969,-0.48438 0.48438,-0.91406 0.3125,-0.4375 0.72656,-0.80469 0.41406,-0.375 0.89062,-0.64063 0.47657,-0.27343 0.99219,-0.42187 0.51563,-0.15625 1.02344,-0.15625 0.83594,0 1.4375,0.25 0.60937,0.24219 1.02344,0.67187 0.42187,0.42188 0.67968,1 0.25782,0.57813 0.39063,1.25 0.14062,0.66407 0.1875,1.39063 0.0469,0.72656 0.0469,1.44531 z m -1.39843,-2.16406 q 0,-0.65625 -0.10157,-1.27344 -0.10156,-0.61718 -0.35937,-1.09375 -0.25781,-0.47656 -0.70313,-0.76562 -0.44531,-0.28906 -1.13281,-0.28906 h -0.44531 q -0.39844,0.0937 -0.85156,0.33593 -0.45313,0.24219 -0.83594,0.57813 -0.375,0.33594 -0.625,0.74219 -0.25,0.40625 -0.25,0.83593 0,0.55469 0.10156,1.04688 0.10938,0.49219 0.34375,0.86719 0.24219,0.36718 0.64063,0.58593 0.39843,0.21875 0.98437,0.21875 0.20313,0 0.52344,-0.0625 0.32031,-0.0703 0.67969,-0.1875 0.35937,-0.125 0.71875,-0.28906 0.35937,-0.17187 0.64843,-0.36719 0.29688,-0.20312 0.47657,-0.42187 0.1875,-0.22656 0.1875,-0.46094 z m 2.8125,6.10156 q 0,-0.23437 0.0859,-0.44531 0.0937,-0.21094 0.24219,-0.36719 0.15625,-0.15625 0.36719,-0.24218 0.21094,-0.0937 0.44531,-0.0937 0.23438,0 0.44531,0.0937 0.21094,0.0859 0.36719,0.24218 0.15625,0.15625 0.24219,0.36719 0.0937,0.21094 0.0937,0.44531 0,0.23438 -0.0937,0.44532 -0.0859,0.21093 -0.24219,0.36718 -0.15625,0.14844 -0.36719,0.24219 -0.21093,0.0859 -0.44531,0.0859 -0.23437,0 -0.44531,-0.0859 -0.21094,-0.0937 -0.36719,-0.24219 -0.14844,-0.15625 -0.24219,-0.36718 -0.0859,-0.21094 -0.0859,-0.44532 z"
       id="text6"
       style="font-size:16px;font-family:Lavi;-inkscape-font-specification:Lavi"
       aria-label="Черт. 19." />
    <path
       style="color:#000000;fill:#000000;-inkscape-stroke:none"
       d="m 50,-111 c -22.631807,0 -41,18.368193 -41,41 0,22.631807 18.368193,41 41,41 22.631807,0 41,-18.368193 41,-41 0,-22.631807 -18.368193,-41 -41,-41 z m 0,2 c 21.550928,0 39,17.449072 39,39 0,21.550928 -17.449072,39 -39,39 -21.550928,0 -39,-17.449072 -39,-39 0,-21.550928 17.449072,-39 39,-39 z"
       id="circle6" />
    <path
       style="color:#000000;fill:#000000;-inkscape-stroke:none"
       d="m 90,-111 c -22.631807,0 -41,18.368193 -41,41 0,22.631807 18.368193,41 41,41 22.63181,0 41,-18.368193 41,-41 0,-22.631807 -18.36819,-41 -41,-41 z m 0,2 c 21.55093,0 39,17.449072 39,39 0,21.550928 -17.44907,39 -39,39 -21.550928,0 -39,-17.449072 -39,-39 0,-21.550928 17.449072,-39 39,-39 z"
       id="circle7" />
    <path
       style="color:#000000;fill:#000000;-inkscape-stroke:none"
       d="m 250,-111 c -22.63181,0 -41,18.368193 -41,41 0,22.631807 18.36819,41 41,41 22.63181,0 41,-18.368193 41,-41 0,-22.631807 -18.36819,-41 -41,-41 z m 0,2 c 21.55093,0 39,17.449072 39,39 0,21.550928 -17.44907,39 -39,39 -21.55093,0 -39,-17.449072 -39,-39 0,-21.550928 17.44907,-39 39,-39 z"
       id="circle8" />
    <path
       d="m 26.986328,-66.640625 q -0.107422,-0.126953 -0.195312,-0.253906 -0.273438,-0.419922 -0.273438,-0.947266 0,-0.380859 0.234375,-0.654297 0.244141,-0.273437 0.664063,-0.273437 0.234375,0 0.478515,0.146484 0.22461,0.136719 0.498047,0.351563 0.263672,0.205078 0.576172,0.439453 0.3125,0.234375 0.683594,0.429687 0.380859,0.195313 0.839843,0.322266 0.449219,0.136719 0.996094,0.136719 0.136719,0 0.283203,-0.0098 0.15625,-0.0098 0.3125,-0.01953 0.166016,-0.01953 0.341797,-0.03906 0.527344,-0.06836 1.083985,-0.205078 0.566406,-0.146484 1.09375,-0.361328 0.263671,-0.107422 0.498046,-0.234375 0.234375,-0.136719 0.439454,-0.302734 0.410156,-0.3125 0.654296,-0.712891 0.117188,-0.195312 0.175782,-0.419922 0.06836,-0.224609 0.06836,-0.478515 0,-0.341797 -0.166016,-0.615235 -0.175781,-0.292969 -0.449218,-0.517578 -0.136719,-0.117187 -0.292969,-0.205078 -0.15625,-0.09766 -0.332031,-0.175781 -0.166016,-0.07813 -0.332032,-0.136719 -0.166015,-0.06836 -0.332031,-0.107422 l -4.423828,-1.123047 q -0.07813,-0.01953 -0.166016,-0.03906 -0.07813,-0.0293 -0.166015,-0.05859 -0.07813,-0.0293 -0.166016,-0.04883 -0.07813,-0.0293 -0.166015,-0.05859 -0.07813,-0.0293 -0.15625,-0.05859 -0.07813,-0.03906 -0.166016,-0.06836 -0.06836,-0.0293 -0.136719,-0.05859 -0.06836,-0.03906 -0.136719,-0.06836 -0.06836,-0.03906 -0.136718,-0.06836 -0.05859,-0.03906 -0.126953,-0.07813 -0.05859,-0.03906 -0.126954,-0.07813 -0.05859,-0.03906 -0.117187,-0.07813 -0.05859,-0.03906 -0.117188,-0.08789 -0.410156,-0.302735 -0.71289,-0.712891 -0.302735,-0.410156 -0.419922,-0.9375 v -0.0098 -0.0098 0 -0.585938 q 0,-0.849609 0.273437,-1.552734 0.136719,-0.351562 0.322266,-0.654297 0.185547,-0.3125 0.429688,-0.576172 0.253906,-0.263672 0.546875,-0.478515 0.302734,-0.214844 0.654296,-0.38086 0.351563,-0.166015 0.751954,-0.273437 0.126953,-0.03906 0.263671,-0.06836 0.136719,-0.0293 0.273438,-0.04883 0.146484,-0.01953 0.283203,-0.03906 h 0.0098 q 0.0293,0 0.07813,0 0.04883,0 0.117187,0 0.07813,-0.0098 0.15625,-0.0098 0.07813,0 0.15625,0 0.166016,0 0.3125,-0.0098 0.07813,0 0.126953,-0.0098 0.0293,0 0.04883,0 0.01953,0 0.03906,0 0.253906,0 0.732422,0 0.488281,0.0098 1.083984,0.05859 0.595703,0.03906 1.201172,0.126953 0.615234,0.08789 1.123047,0.263672 0.0293,0.0098 0.05859,0.01953 0.03906,0.0098 0.06836,0.01953 0.0293,0.0098 0.05859,0.0293 0.0293,0.0098 0.05859,0.01953 0.117187,0.04883 0.214843,0.107422 0.107422,0.04883 0.195313,0.107422 0.09766,0.05859 0.175781,0.126953 0.175781,0.136719 0.263672,0.322266 0.04883,0.08789 0.06836,0.185547 0.01953,0.08789 0.01953,0.195312 0,0.09766 -0.01953,0.185547 -0.0098,0.08789 -0.03906,0.166016 -0.01953,0.03906 -0.03906,0.07813 -0.0098,0.03906 -0.03906,0.07813 -0.04883,0.07813 -0.09766,0.146484 -0.117188,0.136719 -0.292969,0.205078 -0.05859,0.01953 -0.117188,0.03906 -0.05859,0.0098 -0.126953,0.01953 -0.05859,0.0098 -0.126953,0.0098 h -0.117187 -0.0098 -0.0098 q -1.074218,-0.234375 -2.138672,-0.429688 -0.175781,-0.0293 -0.351562,-0.05859 -0.175781,-0.0293 -0.361328,-0.04883 -0.175781,-0.01953 -0.351563,-0.03906 -0.273437,-0.01953 -0.546875,-0.0293 -0.263672,-0.01953 -0.537109,-0.01953 -0.107422,0 -0.214844,0.0098 -0.09766,0 -0.195312,0.0098 -0.09766,0 -0.195313,0.0098 -0.09766,0.0098 -0.195312,0.01953 -0.195313,0.01953 -0.371094,0.05859 -0.136719,0.0293 -0.263672,0.06836 -0.0293,0.0098 -0.06836,0.01953 -0.0293,0.0098 -0.05859,0.01953 -0.0293,0.0098 -0.05859,0.01953 -0.0293,0.0098 -0.05859,0.01953 -0.0293,0.0098 -0.05859,0.0293 -0.0293,0.0098 -0.05859,0.01953 -0.0293,0.0098 -0.05859,0.0293 -0.0293,0.0098 -0.04883,0.0293 -0.107422,0.05859 -0.214844,0.117187 -0.40039,0.263672 -0.634765,0.69336 -0.117188,0.214843 -0.175782,0.488281 -0.05859,0.273437 -0.05859,0.605469 0,0.253906 0.126953,0.439453 0.0098,0.0098 0.0098,0.0293 0.0098,0.0098 0.01953,0.01953 0.0098,0.0098 0.0098,0.01953 0.01953,0.0293 0.04883,0.05859 0.0293,0.0293 0.05859,0.05859 0.0293,0.0293 0.05859,0.05859 0.0293,0.0293 0.05859,0.05859 0.0293,0.01953 0.05859,0.04883 0.06836,0.04883 0.136719,0.09766 0.07813,0.03906 0.15625,0.07813 0.03906,0.01953 0.07813,0.03906 0.03906,0.01953 0.07813,0.03906 0.253906,0.107422 0.488281,0.15625 l 4.248047,1.074219 q 0.175782,0.03906 0.341797,0.09766 0.175781,0.04883 0.351563,0.117188 0.341797,0.117187 0.683593,0.273437 0.664063,0.3125 1.171875,0.751954 0.175782,0.146484 0.322266,0.322265 0.07813,0.08789 0.146484,0.175781 0.06836,0.08789 0.136719,0.175782 0.126953,0.185547 0.234375,0.390625 0.322266,0.615234 0.322266,1.386718 0,0.273438 -0.03906,0.527344 -0.0293,0.253906 -0.107422,0.488281 -0.06836,0.234375 -0.166015,0.458985 -0.15625,0.332031 -0.371094,0.625 -0.214844,0.292969 -0.46875,0.55664 -0.126953,0.126954 -0.273437,0.253907 -0.146485,0.117187 -0.292969,0.234375 -0.302735,0.224609 -0.644531,0.410156 -0.703125,0.371094 -1.464844,0.625 -0.38086,0.126953 -0.771485,0.214844 -0.390625,0.08789 -0.78125,0.15625 -0.380859,0.05859 -0.751953,0.08789 -0.361328,0.0293 -0.703125,0.0293 -0.371093,0 -0.878906,-0.05859 -0.507812,-0.06836 -1.054687,-0.205078 -0.07813,-0.01953 -0.15625,-0.04883 -0.03906,-0.0098 -0.08789,-0.01953 -0.03906,-0.0098 -0.07813,-0.01953 -0.07813,-0.01953 -0.15625,-0.03906 -0.07813,-0.0293 -0.15625,-0.05859 -0.0293,-0.0098 -0.05859,-0.01953 -0.01953,-0.0098 -0.04883,-0.01953 -0.01953,-0.0098 -0.03906,-0.01953 -0.07813,-0.0293 -0.15625,-0.05859 -0.07813,-0.0293 -0.146485,-0.05859 -0.537109,-0.214844 -0.957031,-0.527344 -0.136719,-0.107421 -0.263672,-0.214843 -0.05859,-0.05859 -0.126953,-0.117188 -0.05859,-0.06836 -0.107422,-0.126953 z"
       id="text8"
       style="font-size:20px;font-family:Lavi;-inkscape-font-specification:Lavi"
       aria-label="S" />
    <path
       d="m 100.92383,-66.132812 v -0.0098 -0.0098 -0.0098 l 0.67383,-2.5 q 0.30273,-1.083985 0.45898,-2.216797 0.16602,-1.142578 0.24414,-2.304688 0.0781,-1.162109 0.0977,-2.324218 0.01,-1.103516 0.01,-2.1875 h -0.0391 q -0.0781,0 -0.16601,0.0098 -0.0781,0 -0.15625,0.0098 -0.0781,0.0098 -0.15625,0.0293 -0.0781,0.0098 -0.14649,0.0293 -0.3125,0.07813 -0.61523,0.166015 -0.30274,0.09766 -0.58594,0.175781 -0.30274,0.07813 -0.634767,0.07813 -0.410156,0 -0.644531,-0.214843 -0.234375,-0.214844 -0.234375,-0.634766 0,-0.439453 0.390625,-0.722656 0.361328,-0.273438 0.927738,-0.458985 0.0684,-0.01953 0.13672,-0.03906 0.0781,-0.01953 0.14648,-0.03906 0.0781,-0.01953 0.15625,-0.03906 0.0781,-0.01953 0.15625,-0.03906 0.3125,-0.06836 0.6543,-0.117187 0.69336,-0.107422 1.35742,-0.15625 0.67383,-0.04883 1.24023,-0.05859 0.28321,-0.0098 0.48828,-0.0098 0.10743,0 0.19532,0 0.0977,0 0.17578,0 0.64453,0 1.40625,0.05859 0.76172,0.05859 1.51367,0.195313 0.38086,0.07813 0.75195,0.175781 0.18555,0.04883 0.36133,0.107422 0.17578,0.05859 0.35156,0.126953 0.0391,0.0098 0.0684,0.0293 0.0391,0.0098 0.0684,0.0293 0.0391,0.0098 0.0684,0.0293 0.0293,0.0098 0.0586,0.0293 0.0391,0.0098 0.0781,0.0293 0.0391,0.01953 0.0781,0.03906 0.0391,0.01953 0.0781,0.03906 0.0391,0.01953 0.0781,0.03906 0.0391,0.01953 0.0781,0.03906 0.15625,0.08789 0.30273,0.185547 0.0684,0.04883 0.13672,0.107422 0.0684,0.04883 0.13672,0.09766 0.54688,0.429688 0.86914,1.054688 0.32227,0.625 0.32227,1.464844 0,0.224609 -0.0293,0.439453 -0.0293,0.205078 -0.0879,0.40039 -0.0488,0.195313 -0.13672,0.371094 -0.0781,0.175781 -0.18554,0.332031 -0.0684,0.107422 -0.15625,0.205079 -0.0781,0.08789 -0.16602,0.185546 -0.17578,0.185547 -0.37109,0.341797 -0.19532,0.146485 -0.41993,0.283203 -0.33203,0.195313 -0.71289,0.332032 -0.18554,0.06836 -0.38086,0.136718 -0.19531,0.05859 -0.40039,0.107422 -0.0684,0.01953 -0.13672,0.03906 -0.0683,0.0098 -0.13671,0.0293 -0.0684,0.0098 -0.13672,0.01953 -0.0684,0.0098 -0.13672,0.0293 -0.0586,0.0098 -0.12695,0.01953 -0.0684,0.0098 -0.13672,0.01953 -0.19532,0.0293 -0.39063,0.04883 -0.19531,0.01953 -0.39062,0.0293 l -3.16407,0.166016 -0.67382,4.257812 q -0.01,0.04883 -0.0293,0.117188 -0.01,0.05859 -0.0195,0.136719 -0.01,0.07813 -0.0293,0.175781 -0.0391,0.283203 -0.10742,0.615234 -0.0684,0.332032 -0.17578,0.664063 -0.10742,0.351562 -0.27344,0.634765 -0.16602,0.292969 -0.39062,0.478516 -0.24415,0.195313 -0.55665,0.195313 -0.20507,0 -0.37109,-0.05859 -0.0781,-0.0293 -0.15625,-0.07813 -0.0684,-0.04883 -0.12695,-0.107422 -0.0586,-0.05859 -0.0977,-0.126953 -0.0391,-0.07813 -0.0684,-0.166016 -0.0586,-0.166015 -0.0586,-0.361328 z m 6.10351,-11.679688 q -0.5664,-0.05859 -1.07421,-0.06836 -0.51758,-0.0098 -0.87891,-0.0098 -0.01,0 -0.0195,0 -0.01,0 -0.0195,0 h -0.0391 q -0.0195,0 -0.0586,0 -0.01,0 -0.0293,0 -0.01,0 -0.0293,0 l -0.24414,0.0098 q -0.12696,0 -0.21485,0.0098 l -0.0488,0.0098 -0.0195,0.03906 q -0.01,0.22461 -0.0195,0.419922 0,0.107422 -0.01,0.214844 0,0.09766 0,0.195313 -0.01,0.205078 -0.0195,0.40039 -0.01,0.253906 -0.0195,0.527344 0,0.08789 -0.01,0.185547 0,0.08789 -0.01,0.175781 0,0.08789 0,0.175781 -0.01,0.253907 -0.0195,0.488282 0,0.07813 0,0.15625 0,0.06836 0,0.136718 0,0.05859 0,0.117188 v 0.488281 q 0.14649,0 0.32227,0.0098 0.18554,0 0.41992,0 h 0.33203 0.2832 q 0.29297,0 0.61524,-0.0098 0.66406,-0.01953 1.35742,-0.107422 0.3418,-0.04883 0.6543,-0.117187 0.32226,-0.07813 0.60546,-0.175782 0.55665,-0.195312 0.89844,-0.507812 0.0781,-0.07813 0.13672,-0.15625 0.0684,-0.08789 0.10742,-0.185547 0.0488,-0.09766 0.0684,-0.205078 0.0195,-0.107422 0.0195,-0.224609 0,-0.253907 -0.0684,-0.46875 -0.0586,-0.214844 -0.18554,-0.390625 -0.0391,-0.05859 -0.0879,-0.107422 -0.0488,-0.05859 -0.10743,-0.107422 -0.0488,-0.05859 -0.10742,-0.107422 -0.0195,-0.01953 -0.0391,-0.0293 -0.0195,-0.01953 -0.0391,-0.0293 -0.0195,-0.01953 -0.0391,-0.03906 -0.0586,-0.04883 -0.12696,-0.08789 -0.0293,-0.01953 -0.0684,-0.03906 -0.0293,-0.01953 -0.0684,-0.03906 -0.21484,-0.117187 -0.46875,-0.205078 -0.24414,-0.08789 -0.51757,-0.15625 -0.18555,-0.03906 -0.3711,-0.07813 -0.0977,-0.01953 -0.19531,-0.0293 -0.0879,-0.01953 -0.18555,-0.0293 -0.0879,-0.01953 -0.17578,-0.0293 -0.0879,-0.0098 -0.18555,-0.01953 z"
       id="text9"
       style="font-size:20px;font-family:Lavi;-inkscape-font-specification:Lavi"
       aria-label="P" />
    <path
       d="m 255.44336,-67.919922 q 0,2.900391 -1.23047,2.900391 -0.37109,0 -0.49805,-0.09766 -0.19531,-0.166016 -0.21484,-0.166016 -0.01,-0.0098 -0.0293,-0.0293 -0.01,-0.01953 -0.0781,-0.08789 -0.0684,-0.07813 -0.0684,-0.224609 v -0.625 l 0.3418,-2.919922 q 0.0488,-0.566406 0.0684,-1.269531 0.0293,-0.712891 0.0488,-1.162109 0.0195,-0.449219 0.0391,-1.035157 0.0293,-0.595703 0.0391,-1.123047 0.0195,-0.537109 0.0293,-0.888671 v -2.041016 l -3.52539,4.013672 q -0.14648,0.146484 -0.16601,0.175781 -0.35156,0.419922 -0.86914,0.419922 -0.23438,0 -0.36133,-0.05859 -0.11719,-0.06836 -0.12695,-0.06836 -0.01,-0.0098 -0.0293,-0.0098 -0.01,-0.0098 -0.0391,-0.0293 -0.0781,-0.04883 -0.10742,-0.09766 -0.0293,-0.05859 -0.0488,-0.08789 -0.0195,-0.0293 -0.0684,-0.09766 -0.0391,-0.07813 -0.13672,-0.224609 -0.0977,-0.15625 -0.25391,-0.400391 -0.14648,-0.253906 -0.32226,-0.527344 -0.16602,-0.283203 -0.32227,-0.527343 -0.15625,-0.244141 -0.27344,-0.439453 l -0.17578,-0.283204 q -0.10742,-0.185546 -0.44922,-0.634765 -0.34179,-0.458985 -0.43945,-0.585938 -0.13672,-0.195312 -0.16601,-0.224609 -0.0293,-0.0293 -0.0293,-0.03906 l -0.54688,5.478516 v 0.0098 q -0.01,0.01953 -0.0195,0.05859 -0.01,0.09766 -0.0293,0.205079 -0.0195,0.107421 -0.0684,0.351562 -0.0391,0.244141 -0.0977,0.537109 -0.0488,0.283204 -0.10742,0.556641 -0.0586,0.273438 -0.0977,0.458984 -0.0391,0.185547 -0.0586,0.283204 -0.0391,0.224609 -0.0586,0.283203 -0.0195,0.05859 -0.0293,0.09766 0,0.03906 -0.0195,0.09766 -0.01,0.05859 -0.0293,0.185547 -0.41016,2.558594 -1.5332,2.558594 h -0.0684 l -0.30274,-0.04883 q -0.0195,-0.0098 -0.0391,-0.01953 -0.01,-0.0098 -0.0293,-0.0098 -0.0195,-0.0098 -0.0391,-0.01953 -0.01,-0.0098 -0.0293,-0.01953 -0.0195,-0.0098 -0.0391,-0.01953 -0.01,-0.0098 -0.0293,-0.01953 -0.01,-0.0098 -0.0293,-0.01953 -0.28321,-0.195313 -0.28321,-0.703125 v -0.234375 q 0.3711,-0.751954 0.64454,-2.089844 0.2832,-1.347656 0.51757,-2.675781 0.24414,-1.337891 0.41993,-3.466797 0.17578,-2.128907 0.17578,-4.189453 v -0.449219 q 0.11718,-0.507813 0.61523,-0.712891 Q 244.88672,-80 245.21875,-80 q 0.29297,0 0.66406,0.439453 h 0.01 l 2.94922,3.955078 0.01,0.0098 0.6836,1.044922 4.54101,-5.195313 q 0.23438,-0.234375 0.3711,-0.292968 0.13671,-0.06836 0.35156,-0.06836 0.22461,0 0.34179,0.03906 0.15625,0.04883 0.17579,0.05859 0.0195,0.0098 0.0391,0.01953 0.0293,0.0098 0.0488,0.0293 0.0195,0.0098 0.0586,0.0293 0.12695,0.05859 0.16602,0.126954 0.0391,0.06836 0.0586,0.09766 0.0293,0.0293 0.0391,0.06836 0.0195,0.03906 0.0391,0.07813 0.0195,0.06836 0.0195,0.175781 v 2.832032 l -0.33204,8.466797 z"
       id="text10"
       style="font-size:20px;font-family:Lavi;-inkscape-font-specification:Lavi"
       aria-label="M" />
    <path
       d="m 124.16016,-16.757812 v -0.08594 l 0.60156,-4.007812 v -0.03125 -0.02344 q -0.0703,-0.02344 -0.61719,-0.101562 -1.89062,-0.289063 -2.42187,-0.46875 -1.17188,-0.390625 -1.5625,-0.65625 -0.38282,-0.273438 -0.71094,-0.601563 -0.32031,-0.328125 -0.57031,-0.945312 -0.25,-0.617188 -0.25,-1.375 0,-1.328125 0.875,-2.15625 0.10937,-0.08594 0.25,-0.08594 0.26562,0 0.5,0.296875 0.375,0.484375 0.375,0.773438 0,0 0,0.0078 0.008,0.203125 -0.16407,0.453125 -0.17187,0.242188 -0.17968,0.757813 0,0.0078 0,0.01563 0,1.890625 3.14843,2.3125 0.63282,0.08594 1.40625,0.08594 0.32032,-2.289062 0.42969,-4.390625 0.0312,-0.429687 0.40625,-0.601562 0.125,-0.05469 0.22656,-0.05469 0.44532,0 0.6875,0.3125 0.0781,0.09375 0.0781,0.210938 v 0.0078 q -0.10938,2.289063 -0.375,5.460938 -0.25781,3.164062 -0.375,4.164062 -0.11719,1 -0.25,1.148438 -0.125,0.140625 -0.21875,0.242187 -0.10938,0.08594 -0.20313,0.07813 -0.16406,-0.0078 -0.38281,-0.0078 -0.21875,0 -0.46094,-0.1875 -0.24218,-0.1875 -0.24218,-0.546875 z m 7.52343,-5.5625 q -0.25781,0 -0.5625,0.05469 -0.29687,0.04687 -0.59375,0.148438 -0.29687,0.09375 -0.57812,0.242187 -0.28125,0.140625 -0.49219,0.335938 -0.21094,0.1875 -0.34375,0.421875 -0.125,0.226562 -0.125,0.5 0.11719,0 0.48438,-0.0078 0.375,-0.01563 0.85937,-0.03906 0.49219,-0.03125 1.02344,-0.07031 0.53125,-0.04687 0.97656,-0.109375 0.45313,-0.07031 0.74219,-0.15625 0.28906,-0.08594 0.28906,-0.203125 0,-0.335937 -0.1875,-0.554687 -0.17969,-0.21875 -0.44531,-0.34375 -0.25781,-0.125 -0.54688,-0.171875 -0.28906,-0.04687 -0.5,-0.04687 z m -4.25781,2.257812 q 0,-0.804687 0.34375,-1.492187 0.34375,-0.695313 0.92969,-1.203125 0.58594,-0.507813 1.35156,-0.796875 0.77344,-0.296875 1.61719,-0.296875 0.58594,0 1.16406,0.140625 0.57813,0.132812 1.03906,0.445312 0.46094,0.3125 0.74219,0.820313 0.28906,0.507812 0.28906,1.242187 0,0.367188 -0.14062,0.65625 -0.14063,0.289063 -0.375,0.507813 -0.23438,0.21875 -0.53906,0.375 -0.30469,0.148437 -0.64063,0.25 -0.33594,0.101562 -0.67969,0.15625 -0.34375,0.05469 -0.64843,0.07031 l -2.8125,0.15625 V -19 q 0,0.390625 0.1875,0.671875 0.1875,0.28125 0.47656,0.46875 0.28906,0.1875 0.63281,0.28125 0.34375,0.08594 0.66406,0.08594 0.39063,0 0.72657,-0.140625 0.34375,-0.140625 0.66406,-0.304688 0.32031,-0.171875 0.63281,-0.3125 0.32031,-0.140625 0.65625,-0.140625 0.32031,0 0.54688,0.1875 0.22656,0.179688 0.22656,0.523438 0,0.320312 -0.19531,0.578125 -0.1875,0.25 -0.49219,0.453125 -0.30469,0.195312 -0.69531,0.335937 -0.38282,0.140625 -0.76563,0.234375 -0.38281,0.08594 -0.73437,0.125 -0.35157,0.04687 -0.59375,0.04687 -0.89844,0 -1.57032,-0.335937 -0.67187,-0.34375 -1.11718,-0.914063 -0.44532,-0.578125 -0.67188,-1.328125 -0.21875,-0.757812 -0.21875,-1.578125 z m 10.10938,-0.992187 -0.0234,0.101562 -0.008,0.07031 q -0.008,0.05469 -0.0234,0.257812 -0.0156,0.195313 -0.0469,0.46875 -0.0234,0.265625 -0.0625,0.578125 -0.0312,0.304688 -0.0547,0.578125 -0.0234,0.265625 -0.0469,0.46875 -0.0234,0.195313 -0.0234,0.25 0.24219,0.07813 0.42188,0.117188 0.17969,0.03906 0.33594,0.0625 0.16406,0.01563 0.32812,0.03906 0.17188,0.01563 0.39844,0.05469 0.36719,0.05469 0.78125,0.08594 0.17187,0.0078 0.33594,0.01563 0.24218,0 0.48437,-0.02344 0.40625,-0.03906 0.78906,-0.148438 0.39063,-0.117187 0.70313,-0.328125 0.3125,-0.21875 0.53125,-0.546875 0.22656,-0.328125 0.30469,-0.789062 0.0391,-0.210938 0.0391,-0.414063 0,-0.125 -0.0156,-0.242187 -0.0391,-0.3125 -0.17187,-0.5625 -0.13281,-0.257813 -0.36719,-0.421875 -0.23437,-0.171875 -0.57031,-0.234375 -0.1875,-0.03125 -0.54688,-0.05469 -0.35937,-0.03125 -0.80468,-0.03125 -0.4375,0 -0.89844,0.03125 -0.46094,0.03125 -0.85156,0.101563 -0.38282,0.07031 -0.64844,0.203125 -0.25781,0.125 -0.28906,0.3125 z m -1.57032,-2.359375 q 0.0625,-0.320313 0.29688,-0.46875 0.17969,-0.109375 0.39844,-0.109375 0.0703,0 0.14062,0.0078 0.28906,0.05469 0.42188,0.15625 0.13281,0.101563 0.1875,0.25 0.0625,0.148438 0.0781,0.328125 0.0156,0.179688 0.0625,0.390625 1.05469,-0.328125 2.13281,-0.34375 0.10157,0 0.19532,-0.0078 0.98437,0 2,0.179687 0.61718,0.109375 1.09375,0.445313 0.47656,0.328125 0.77343,0.8125 0.29688,0.476562 0.40625,1.070312 0.0547,0.296875 0.0547,0.59375 0,0.296875 -0.0547,0.609375 -0.14062,0.8125 -0.61718,1.445313 -0.47657,0.632812 -1.14844,1.039062 -0.67188,0.421875 -1.45313,0.578125 -0.39062,0.07813 -0.76562,0.07813 h -0.0703 q -0.36719,0 -0.73438,-0.0625 l -2.23437,-0.304687 q -0.0703,0.382812 -0.10938,0.578125 -0.0312,0.195312 -0.0469,0.296874 -0.0156,0.101563 -0.0234,0.15625 -0.008,0.0625 -0.0234,0.164063 -0.0156,0.101562 -0.0547,0.296875 -0.0312,0.195312 -0.10156,0.578125 -0.0156,0.08594 -0.0547,0.296875 -0.0312,0.21875 -0.0781,0.453125 -0.0391,0.242187 -0.0781,0.453125 -0.0312,0.21875 -0.0469,0.296875 -0.11719,0.21875 -0.32813,0.320312 -0.20312,0.101563 -0.42187,0.0625 -0.28125,-0.05469 -0.4375,-0.25 -0.15625,-0.195312 -0.17969,-0.46875 0.0391,-0.203125 0.0859,-0.4375 0.0547,-0.226562 0.10156,-0.46875 0.0547,-0.234375 0.10156,-0.46875 0.0469,-0.234375 0.0703,-0.445312 0.0312,-0.3125 0.0781,-0.789062 0.0469,-0.484375 0.0937,-1.03125 0.0547,-0.554688 0.10156,-1.117188 0.0547,-0.570312 0.0937,-1.046875 0.0391,-0.476562 0.0625,-0.804687 0.0234,-0.335938 0.0312,-0.414063 l -0.0156,-2.796875 q 0,-0.01563 0.008,-0.03906 0,-0.01563 0,-0.03125 0.008,-0.01563 0.008,-0.03125 z m 9.4375,0.859375 q -0.13281,0 -0.22656,-0.0625 -0.0937,-0.07031 -0.15625,-0.164063 -0.0625,-0.101562 -0.0937,-0.21875 -0.0312,-0.117187 -0.0312,-0.21875 0,-0.09375 0.0312,-0.203125 0.0312,-0.109375 0.0937,-0.203125 0.0625,-0.09375 0.14063,-0.15625 0.0859,-0.0625 0.19531,-0.0625 h 5.9375 q 0.11719,0 0.35156,-0.0078 0.11719,0 0.24219,0 0.13281,-0.0078 0.27344,0 0.28125,0.0078 0.5625,0.04687 0.28906,0.03906 0.52343,0.132812 0.23438,0.09375 0.38282,0.257813 0.15625,0.164062 0.15625,0.421875 0,0.28125 -0.17969,0.476562 -0.17188,0.195313 -0.46875,0.195313 -0.53906,0 -1.07813,-0.07031 -0.53125,-0.07031 -1.08593,-0.07031 l -1.25782,-0.02344 v 1.09375 q 0,4.09375 -0.88281,5.078125 -0.17969,0.203125 -0.36719,0.203125 -0.1875,0 -0.33593,-0.04687 -0.14063,-0.04687 -0.25782,-0.140625 -0.1875,-0.148437 -0.1875,-0.367187 0,-0.07813 0.0312,-0.1875 0.57032,-2.023438 0.67969,-5.65625 z m 9.71094,5.375 q 0,-0.234375 0.0859,-0.445313 0.0937,-0.210937 0.24219,-0.367187 0.15625,-0.15625 0.36718,-0.242188 0.21094,-0.09375 0.44532,-0.09375 0.23437,0 0.44531,0.09375 0.21094,0.08594 0.36719,0.242188 0.15625,0.15625 0.24218,0.367187 0.0937,0.210938 0.0937,0.445313 0,0.234375 -0.0937,0.445312 -0.0859,0.210938 -0.24218,0.367188 -0.15625,0.148437 -0.36719,0.242187 -0.21094,0.08594 -0.44531,0.08594 -0.23438,0 -0.44532,-0.08594 -0.21093,-0.09375 -0.36718,-0.242187 -0.14844,-0.15625 -0.24219,-0.367188 -0.0859,-0.210937 -0.0859,-0.445312 z m 10.69531,0.492187 q 0,-0.226562 0.27344,-0.570312 0.27344,-0.34375 0.71875,-0.773438 0.45313,-0.4375 1.02344,-0.945312 0.57031,-0.515625 1.16406,-1.085938 0.60156,-0.570312 1.17188,-1.1875 0.57812,-0.617187 1.02343,-1.257812 0.45313,-0.640625 0.72657,-1.289063 0.27343,-0.65625 0.27343,-1.296875 0,-0.375 -0.21093,-0.632812 -0.20313,-0.265625 -0.52344,-0.429688 -0.3125,-0.164062 -0.67969,-0.234375 -0.36719,-0.07031 -0.6875,-0.07031 -0.49219,0 -0.90625,0.242187 -0.41406,0.234375 -0.75781,0.59375 -0.34375,0.359375 -0.625,0.773438 -0.28125,0.40625 -0.52344,0.75 -0.10937,0.148437 -0.25,0.195312 -0.13281,0.04687 -0.3125,0.04687 -0.26562,0 -0.46875,-0.179687 -0.19531,-0.171875 -0.19531,-0.421875 0,-0.02344 0,-0.03906 0.008,-0.08594 0.008,-0.148437 0,-0.07031 0.0391,-0.15625 0.39063,-0.539063 0.78907,-1.078125 0.39843,-0.546875 0.86718,-0.976563 0.46875,-0.429687 1.03907,-0.695312 0.57031,-0.273438 1.29687,-0.273438 0.625,0 1.25,0.171875 0.63281,0.164063 1.13281,0.507813 0.50782,0.335937 0.82032,0.859375 0.3125,0.515625 0.3125,1.226562 0,0.703125 -0.22657,1.40625 -0.22656,0.695313 -0.60937,1.367188 -0.375,0.671875 -0.86719,1.304687 -0.49219,0.632813 -1.02344,1.210938 -0.53125,0.570312 -1.0625,1.078125 -0.52343,0.507812 -0.97656,0.921875 h 0.0703 q 0.51563,-0.04687 1.01563,-0.07031 0.5,-0.02344 1.01562,-0.02344 0,-0.02344 0.13282,-0.02344 0.13281,0 0.40625,0.02344 0.33593,0.02344 0.72656,0.02344 0.39062,0 0.78906,0.07813 0.40625,0.07813 0.72656,0.210938 0.32032,0.125 0.52344,0.335937 0.21094,0.210938 0.21094,0.53125 0,0.296875 -0.17969,0.453125 -0.17969,0.171875 -0.40625,0.171875 -0.0391,0 -0.0781,-0.0078 -0.33594,-0.03906 -0.69532,-0.03906 -0.35156,0 -0.71875,-0.07031 -0.35937,-0.07031 -0.72656,-0.09375 -0.44531,-0.01563 -0.625,-0.01563 -0.0469,0 -0.0859,0 -0.0391,0.0078 -1.07031,0.0078 -0.47656,0.02344 -1.03906,0.02344 -0.54688,0 -1.03125,0.07813 -0.51563,0.05469 -1.03906,0.15625 h -0.23438 q -0.30469,0 -0.50781,-0.179688 -0.20313,-0.1875 -0.20313,-0.484375 z m 10.27344,-5.304687 q 0,-0.515625 0.125,-1.445313 0.0859,-0.609375 0.38281,-1.375 0.25,-0.664062 0.625,-1.234375 0.38282,-0.578125 0.89063,-0.992187 0.50781,-0.421875 1.14062,-0.664063 0.64063,-0.242187 1.40625,-0.242187 0.75782,0 1.34375,0.296875 0.59375,0.289062 1.03907,0.78125 0.44531,0.492187 0.75781,1.140625 0.3125,0.648437 0.50781,1.359375 0.19531,0.703125 0.28125,1.429687 0.0859,0.71875 0.0859,1.367188 0,0.59375 -0.10156,1.21875 -0.0937,0.625 -0.29688,1.226562 -0.20312,0.59375 -0.51562,1.140625 -0.3125,0.546875 -0.73438,0.984375 -0.42187,0.4375 -0.96094,0.742188 -0.53906,0.296874 -1.19531,0.406249 h -0.6875 q -0.88281,0 -1.53125,-0.218749 -0.64844,-0.21875 -1.10156,-0.617188 -0.45313,-0.398437 -0.74219,-0.960937 -0.28125,-0.5625 -0.47656,-1.242188 -0.1875,-0.679687 -0.21875,-1.460937 -0.0234,-0.789063 -0.0234,-1.640625 z m 1.33594,0.04687 q 0,0.65625 0.008,1.265625 0.008,0.601562 0.0937,1.132812 0.0937,0.523438 0.25781,0.960938 0.17188,0.429687 0.47657,0.742187 0.3125,0.3125 0.77343,0.484375 0.46875,0.171875 1.14844,0.171875 0.54688,0 0.99219,-0.1875 0.44531,-0.195312 0.79687,-0.523437 0.35157,-0.328125 0.60938,-0.757813 0.25781,-0.4375 0.42187,-0.921875 0.17188,-0.484375 0.25,-0.984375 0.0937,-0.539062 0.0937,-0.835937 0,-0.08594 -0.008,-0.148438 -0.0391,-0.3125 -0.0391,-1 0,-0.546875 -0.14063,-1.101562 -0.13281,-0.554688 -0.32812,-1.078125 -0.19531,-0.53125 -0.5,-0.9375 -0.29688,-0.40625 -0.71875,-0.648438 -0.41406,-0.25 -0.97656,-0.25 -0.57813,0 -1.04688,0.195313 -0.46094,0.1875 -0.82031,0.523437 -0.35938,0.335938 -0.61719,0.789063 -0.25,0.445312 -0.41406,0.960937 -0.17188,0.570313 -0.23438,1.0625 -0.0781,0.632813 -0.0781,1.085938 z m 9.26562,4.765625 q 0,-0.234375 0.0859,-0.445313 0.0937,-0.210937 0.24219,-0.367187 0.15625,-0.15625 0.36719,-0.242188 0.21093,-0.09375 0.44531,-0.09375 0.23437,0 0.44531,0.09375 0.21094,0.08594 0.36719,0.242188 0.15625,0.15625 0.24219,0.367187 0.0937,0.210938 0.0937,0.445313 0,0.234375 -0.0937,0.445312 -0.0859,0.210938 -0.24219,0.367188 -0.15625,0.148437 -0.36719,0.242187 -0.21094,0.08594 -0.44531,0.08594 -0.23438,0 -0.44531,-0.08594 -0.21094,-0.09375 -0.36719,-0.242187 -0.14844,-0.15625 -0.24219,-0.367188 -0.0859,-0.210937 -0.0859,-0.445312 z"
       id="text11"
       style="font-size:16px;font-family:Lavi;-inkscape-font-specification:Lavi"
       aria-label="Черт. 20." />
    <path
       style="color:#000000;fill:#000000;-inkscape-stroke:none"
       d="M 60,9 C 37.368193,9 19,27.368193 19,50 19,72.631807 37.368193,91 60,91 82.631807,91 101,72.631807 101,50 101,27.368193 82.631807,9 60,9 Z m 0,2 C 81.550928,11 99,28.449072 99,50 99,71.550928 81.550928,89 60,89 38.449072,89 21,71.550928 21,50 21,28.449072 38.449072,11 60,11 Z"
       id="circle11" />
    <path
       style="color:#000000;fill:#000000;-inkscape-stroke:none"
       d="m 250,9 c -22.63181,0 -41,18.368193 -41,41 0,22.631807 18.36819,41 41,41 22.63181,0 41,-18.368193 41,-41 C 291,27.368193 272.63181,9 250,9 Z m 0,2 c 21.55093,0 39,17.449072 39,39 0,21.550928 -17.44907,39 -39,39 -21.55093,0 -39,-17.449072 -39,-39 0,-21.550928 17.44907,-39 39,-39 z"
       id="circle12" />
    <path
       style="color:#000000;fill:#000000;-inkscape-stroke:none"
       d="M 60,45 C 48.413876,45 39,54.413876 39,66 39,77.586124 48.413876,87 60,87 71.586124,87 81,77.586124 81,66 81,54.413876 71.586124,45 60,45 Z m 0,2 C 70.505244,47 79,55.494756 79,66 79,76.505244 70.505244,85 60,85 49.494756,85 41,76.505244 41,66 41,55.494756 49.494756,47 60,47 Z"
       id="circle13" />
    <path
       d="m 53.986328,37.359375 q -0.107422,-0.126953 -0.195312,-0.253906 -0.273438,-0.419922 -0.273438,-0.947266 0,-0.380859 0.234375,-0.654297 0.244141,-0.273437 0.664063,-0.273437 0.234375,0 0.478515,0.146484 0.22461,0.136719 0.498047,0.351563 0.263672,0.205078 0.576172,0.439453 0.3125,0.234375 0.683594,0.429687 0.380859,0.195313 0.839843,0.322266 0.449219,0.136719 0.996094,0.136719 0.136719,0 0.283203,-0.0098 0.15625,-0.0098 0.3125,-0.01953 0.166016,-0.01953 0.341797,-0.03906 0.527344,-0.06836 1.083985,-0.205078 0.566406,-0.146484 1.09375,-0.361328 0.263671,-0.107422 0.498046,-0.234375 0.234375,-0.136719 0.439454,-0.302734 0.410156,-0.3125 0.654296,-0.712891 0.117188,-0.195313 0.175782,-0.419922 0.06836,-0.224609 0.06836,-0.478516 0,-0.341796 -0.166016,-0.615234 -0.175781,-0.292969 -0.449218,-0.517578 -0.136719,-0.117188 -0.292969,-0.205078 -0.15625,-0.09766 -0.332031,-0.175781 -0.166016,-0.07813 -0.332032,-0.136719 -0.166015,-0.06836 -0.332031,-0.107422 l -4.423828,-1.123047 q -0.07813,-0.01953 -0.166016,-0.03906 -0.07813,-0.0293 -0.166015,-0.05859 -0.07813,-0.0293 -0.166016,-0.04883 -0.07813,-0.0293 -0.166015,-0.05859 -0.07813,-0.0293 -0.15625,-0.05859 -0.07813,-0.03906 -0.166016,-0.06836 -0.06836,-0.0293 -0.136719,-0.05859 -0.06836,-0.03906 -0.136719,-0.06836 -0.06836,-0.03906 -0.136718,-0.06836 -0.05859,-0.03906 -0.126953,-0.07813 -0.05859,-0.03906 -0.126954,-0.07813 -0.05859,-0.03906 -0.117187,-0.07813 -0.05859,-0.03906 -0.117188,-0.08789 -0.410156,-0.302735 -0.71289,-0.712891 -0.302735,-0.410156 -0.419922,-0.9375 v -0.0098 -0.0098 0 -0.585938 q 0,-0.849609 0.273437,-1.552734 0.136719,-0.351563 0.322266,-0.654297 0.185547,-0.3125 0.429688,-0.576172 0.253906,-0.263672 0.546875,-0.478515 0.302734,-0.214844 0.654296,-0.38086 0.351563,-0.166015 0.751954,-0.273437 0.126953,-0.03906 0.263671,-0.06836 0.136719,-0.0293 0.273438,-0.04883 0.146484,-0.01953 0.283203,-0.03906 h 0.0098 q 0.0293,0 0.07813,0 0.04883,0 0.117187,0 0.07813,-0.0098 0.15625,-0.0098 0.07813,0 0.15625,0 0.166016,0 0.3125,-0.0098 0.07813,0 0.126953,-0.0098 0.0293,0 0.04883,0 0.01953,0 0.03906,0 0.253906,0 0.732422,0 0.488281,0.0098 1.083984,0.05859 0.595703,0.03906 1.201172,0.126953 0.615234,0.08789 1.123047,0.263672 0.0293,0.0098 0.05859,0.01953 0.03906,0.0098 0.06836,0.01953 0.0293,0.0098 0.05859,0.0293 0.0293,0.0098 0.05859,0.01953 0.117187,0.04883 0.214843,0.107422 0.107422,0.04883 0.195313,0.107422 0.09766,0.05859 0.175781,0.126953 0.175781,0.136719 0.263672,0.322266 0.04883,0.08789 0.06836,0.185547 0.01953,0.08789 0.01953,0.195312 0,0.09766 -0.01953,0.185547 -0.0098,0.08789 -0.03906,0.166016 -0.01953,0.03906 -0.03906,0.07813 -0.0098,0.03906 -0.03906,0.07813 -0.04883,0.07813 -0.09766,0.146484 -0.117188,0.136719 -0.292969,0.205078 -0.05859,0.01953 -0.117188,0.03906 -0.05859,0.0098 -0.126953,0.01953 -0.05859,0.0098 -0.126953,0.0098 h -0.117187 -0.0098 -0.0098 q -1.074218,-0.234375 -2.138672,-0.429687 -0.175781,-0.0293 -0.351562,-0.05859 -0.175781,-0.0293 -0.361328,-0.04883 -0.175781,-0.01953 -0.351563,-0.03906 -0.273437,-0.01953 -0.546875,-0.0293 -0.263672,-0.01953 -0.537109,-0.01953 -0.107422,0 -0.214844,0.0098 -0.09766,0 -0.195312,0.0098 -0.09766,0 -0.195313,0.0098 -0.09766,0.0098 -0.195312,0.01953 -0.195313,0.01953 -0.371094,0.05859 -0.136719,0.0293 -0.263672,0.06836 -0.0293,0.0098 -0.06836,0.01953 -0.0293,0.0098 -0.05859,0.01953 -0.0293,0.0098 -0.05859,0.01953 -0.0293,0.0098 -0.05859,0.01953 -0.0293,0.0098 -0.05859,0.0293 -0.0293,0.0098 -0.05859,0.01953 -0.0293,0.0098 -0.05859,0.0293 -0.0293,0.0098 -0.04883,0.0293 -0.107422,0.05859 -0.214844,0.117187 -0.40039,0.263672 -0.634765,0.693359 -0.117188,0.214844 -0.175782,0.488282 -0.05859,0.273437 -0.05859,0.605468 0,0.253907 0.126953,0.439454 0.0098,0.0098 0.0098,0.0293 0.0098,0.0098 0.01953,0.01953 0.0098,0.0098 0.0098,0.01953 0.01953,0.0293 0.04883,0.05859 0.0293,0.0293 0.05859,0.05859 0.0293,0.0293 0.05859,0.05859 0.0293,0.0293 0.05859,0.05859 0.0293,0.01953 0.05859,0.04883 0.06836,0.04883 0.136719,0.09766 0.07813,0.03906 0.15625,0.07813 0.03906,0.01953 0.07813,0.03906 0.03906,0.01953 0.07813,0.03906 0.253906,0.107422 0.488281,0.15625 l 4.248047,1.074219 q 0.175782,0.03906 0.341797,0.09766 0.175781,0.04883 0.351563,0.117188 0.341797,0.117187 0.683593,0.273437 0.664063,0.3125 1.171875,0.751953 0.175782,0.146485 0.322266,0.322266 0.07813,0.08789 0.146484,0.175781 0.06836,0.08789 0.136719,0.175782 0.126953,0.185546 0.234375,0.390625 0.322266,0.615234 0.322266,1.386718 0,0.273438 -0.03906,0.527344 -0.0293,0.253906 -0.107422,0.488281 -0.06836,0.234375 -0.166015,0.458985 -0.15625,0.332031 -0.371094,0.625 -0.214844,0.292968 -0.46875,0.55664 -0.126953,0.126953 -0.273437,0.253907 -0.146485,0.117187 -0.292969,0.234375 -0.302735,0.224609 -0.644531,0.410156 -0.703125,0.371094 -1.464844,0.625 -0.38086,0.126953 -0.771485,0.214844 -0.390625,0.08789 -0.78125,0.15625 -0.380859,0.05859 -0.751953,0.08789 -0.361328,0.0293 -0.703125,0.0293 -0.371093,0 -0.878906,-0.05859 -0.507812,-0.06836 -1.054687,-0.205078 -0.07813,-0.01953 -0.15625,-0.04883 -0.03906,-0.0098 -0.08789,-0.01953 -0.03906,-0.0098 -0.07813,-0.01953 -0.07813,-0.01953 -0.15625,-0.03906 -0.07813,-0.0293 -0.15625,-0.05859 -0.0293,-0.0098 -0.05859,-0.01953 -0.01953,-0.0098 -0.04883,-0.01953 -0.01953,-0.0098 -0.03906,-0.01953 -0.07813,-0.0293 -0.15625,-0.05859 -0.07813,-0.0293 -0.146485,-0.05859 -0.537109,-0.214844 -0.957031,-0.527344 -0.136719,-0.107422 -0.263672,-0.214843 -0.05859,-0.05859 -0.126953,-0.117188 -0.05859,-0.06836 -0.107422,-0.126953 z"
       id="text13"
       style="-inkscape-font-specification:Lavi"
       aria-label="S" />
    <path
       d="m 56.923828,71.867187 v -0.0098 -0.0098 -0.0098 l 0.673828,-2.5 q 0.302735,-1.083985 0.458985,-2.216797 0.166015,-1.142578 0.24414,-2.304688 0.07813,-1.162109 0.09766,-2.324219 0.0098,-1.103515 0.0098,-2.1875 h -0.03906 q -0.07813,0 -0.166016,0.0098 -0.07813,0 -0.15625,0.0098 -0.07813,0.0098 -0.15625,0.0293 -0.07813,0.0098 -0.146484,0.0293 -0.3125,0.07813 -0.615235,0.166016 -0.302734,0.09766 -0.585937,0.175781 -0.302735,0.07813 -0.634766,0.07813 -0.410156,0 -0.644531,-0.214843 -0.234375,-0.214844 -0.234375,-0.634766 0,-0.439453 0.390625,-0.722656 0.361328,-0.273438 0.927734,-0.458985 0.06836,-0.01953 0.136719,-0.03906 0.07813,-0.01953 0.146484,-0.03906 0.07813,-0.01953 0.15625,-0.03906 0.07813,-0.01953 0.15625,-0.03906 0.3125,-0.06836 0.654297,-0.117187 0.69336,-0.107422 1.357422,-0.15625 0.673828,-0.04883 1.240234,-0.05859 0.283204,-0.0098 0.488282,-0.0098 0.107422,0 0.195312,0 0.09766,0 0.175781,0 0.644532,0 1.40625,0.05859 0.761719,0.05859 1.513672,0.195313 0.38086,0.07813 0.751953,0.175781 0.185547,0.04883 0.361329,0.107422 0.175781,0.05859 0.351562,0.126953 0.03906,0.0098 0.06836,0.0293 0.03906,0.0098 0.06836,0.0293 0.03906,0.0098 0.06836,0.0293 0.0293,0.0098 0.05859,0.0293 0.03906,0.0098 0.07813,0.0293 0.03906,0.01953 0.07813,0.03906 0.03906,0.01953 0.07813,0.03906 0.03906,0.01953 0.07813,0.03906 0.03906,0.01953 0.07813,0.03906 0.15625,0.08789 0.302734,0.185547 0.06836,0.04883 0.136719,0.107422 0.06836,0.04883 0.136719,0.09766 0.546875,0.429688 0.86914,1.054688 0.322266,0.625 0.322266,1.464844 0,0.224609 -0.0293,0.439453 -0.0293,0.205078 -0.08789,0.40039 -0.04883,0.195313 -0.136719,0.371094 -0.07813,0.175781 -0.185547,0.332031 -0.06836,0.107422 -0.15625,0.205078 -0.07813,0.08789 -0.166016,0.185547 -0.175781,0.185547 -0.371093,0.341797 -0.195313,0.146485 -0.419922,0.283203 -0.332032,0.195313 -0.712891,0.332032 -0.185547,0.06836 -0.380859,0.136718 -0.195313,0.05859 -0.400391,0.107422 -0.06836,0.01953 -0.136719,0.03906 -0.06836,0.0098 -0.136718,0.0293 -0.06836,0.0098 -0.136719,0.01953 -0.06836,0.0098 -0.136719,0.0293 -0.05859,0.0098 -0.126953,0.01953 -0.06836,0.0098 -0.136719,0.01953 -0.195312,0.0293 -0.390625,0.04883 -0.195312,0.01953 -0.390625,0.0293 l -3.164062,0.166016 -0.673828,4.257812 q -0.0098,0.04883 -0.0293,0.117188 -0.0098,0.05859 -0.01953,0.136719 -0.0098,0.07813 -0.0293,0.175781 -0.03906,0.283203 -0.107422,0.615234 -0.06836,0.332031 -0.175782,0.664063 -0.107421,0.351562 -0.273437,0.634765 -0.166016,0.292969 -0.390625,0.478516 -0.244141,0.195312 -0.556641,0.195312 -0.205078,0 -0.371093,-0.05859 -0.07813,-0.0293 -0.15625,-0.07813 -0.06836,-0.04883 -0.126954,-0.107422 -0.05859,-0.05859 -0.09766,-0.126953 -0.03906,-0.07813 -0.06836,-0.166016 -0.05859,-0.166016 -0.05859,-0.361328 z M 63.027344,60.1875 q -0.566407,-0.05859 -1.074219,-0.06836 -0.517578,-0.0098 -0.878906,-0.0098 -0.0098,0 -0.01953,0 -0.0098,0 -0.01953,0 h -0.03906 q -0.01953,0 -0.05859,0 -0.0098,0 -0.0293,0 -0.0098,0 -0.0293,0 l -0.24414,0.0098 q -0.126954,0 -0.214844,0.0098 l -0.04883,0.0098 -0.01953,0.03906 q -0.0098,0.22461 -0.01953,0.419922 0,0.107422 -0.0098,0.214844 0,0.09766 0,0.195312 -0.0098,0.205079 -0.01953,0.400391 -0.0098,0.253906 -0.01953,0.527344 0,0.08789 -0.0098,0.185547 0,0.08789 -0.0098,0.175781 0,0.08789 0,0.175781 -0.0098,0.253906 -0.01953,0.488281 0,0.07813 0,0.15625 0,0.06836 0,0.136719 0,0.05859 0,0.117188 v 0.488281 q 0.146484,0 0.322265,0.0098 0.185547,0 0.419922,0 h 0.332031 0.283203 q 0.292969,0 0.615235,-0.0098 0.664062,-0.01953 1.357422,-0.107422 0.341797,-0.04883 0.654297,-0.117187 0.322265,-0.07813 0.605468,-0.175782 0.556641,-0.195312 0.898438,-0.507812 0.07813,-0.07813 0.136719,-0.15625 0.06836,-0.08789 0.107421,-0.185547 0.04883,-0.09766 0.06836,-0.205078 0.01953,-0.107422 0.01953,-0.22461 0,-0.253906 -0.06836,-0.46875 -0.05859,-0.214843 -0.185547,-0.390625 -0.03906,-0.05859 -0.08789,-0.107421 -0.04883,-0.05859 -0.107422,-0.107422 -0.04883,-0.05859 -0.107422,-0.107422 -0.01953,-0.01953 -0.03906,-0.0293 -0.01953,-0.01953 -0.03906,-0.0293 -0.01953,-0.01953 -0.03906,-0.03906 -0.05859,-0.04883 -0.126953,-0.08789 -0.0293,-0.01953 -0.06836,-0.03906 -0.0293,-0.01953 -0.06836,-0.03906 -0.214844,-0.117188 -0.46875,-0.205078 -0.244141,-0.08789 -0.517578,-0.15625 -0.185547,-0.03906 -0.371094,-0.07813 -0.09766,-0.01953 -0.195312,-0.0293 -0.08789,-0.01953 -0.185547,-0.0293 -0.08789,-0.01953 -0.175781,-0.0293 -0.08789,-0.0098 -0.185547,-0.01953 z"
       id="text14"
       style="-inkscape-font-specification:Lavi"
       aria-label="P" />
    <path
       d="m 255.44336,52.080078 q 0,2.900391 -1.23047,2.900391 -0.37109,0 -0.49805,-0.09766 -0.19531,-0.166015 -0.21484,-0.166015 -0.01,-0.0098 -0.0293,-0.0293 -0.01,-0.01953 -0.0781,-0.08789 -0.0684,-0.07813 -0.0684,-0.224609 V 53.75 l 0.3418,-2.919922 q 0.0488,-0.566406 0.0684,-1.269531 0.0293,-0.712891 0.0488,-1.16211 0.0195,-0.449218 0.0391,-1.035156 0.0293,-0.595703 0.0391,-1.123047 0.0195,-0.537109 0.0293,-0.888672 v -2.041015 l -3.52539,4.013672 q -0.14648,0.146484 -0.16601,0.175781 -0.35156,0.419922 -0.86914,0.419922 -0.23438,0 -0.36133,-0.05859 -0.11719,-0.06836 -0.12695,-0.06836 -0.01,-0.0098 -0.0293,-0.0098 -0.01,-0.0098 -0.0391,-0.0293 -0.0781,-0.04883 -0.10742,-0.09766 -0.0293,-0.05859 -0.0488,-0.08789 -0.0195,-0.0293 -0.0684,-0.09766 -0.0391,-0.07813 -0.13672,-0.224609 -0.0977,-0.15625 -0.25391,-0.400391 -0.14648,-0.253906 -0.32226,-0.527344 -0.16602,-0.283203 -0.32227,-0.527343 -0.15625,-0.244141 -0.27344,-0.439454 l -0.17578,-0.283203 q -0.10742,-0.185547 -0.44922,-0.634765 -0.34179,-0.458985 -0.43945,-0.585938 -0.13672,-0.195312 -0.16601,-0.224609 -0.0293,-0.0293 -0.0293,-0.03906 l -0.54688,5.478516 v 0.0098 q -0.01,0.01953 -0.0195,0.05859 -0.01,0.09766 -0.0293,0.205078 -0.0195,0.107422 -0.0684,0.351563 -0.0391,0.244141 -0.0977,0.537109 -0.0488,0.283203 -0.10742,0.556641 -0.0586,0.273437 -0.0977,0.458984 -0.0391,0.185547 -0.0586,0.283203 -0.0391,0.22461 -0.0586,0.283204 -0.0195,0.05859 -0.0293,0.09766 0,0.03906 -0.0195,0.09766 -0.01,0.05859 -0.0293,0.185547 -0.41016,2.558594 -1.5332,2.558594 h -0.0684 l -0.30274,-0.04883 q -0.0195,-0.0098 -0.0391,-0.01953 -0.01,-0.0098 -0.0293,-0.0098 -0.0195,-0.0098 -0.0391,-0.01953 -0.01,-0.0098 -0.0293,-0.01953 -0.0195,-0.0098 -0.0391,-0.01953 -0.01,-0.0098 -0.0293,-0.01953 -0.01,-0.0098 -0.0293,-0.01953 -0.28321,-0.195312 -0.28321,-0.703125 v -0.234375 q 0.3711,-0.751953 0.64454,-2.089843 0.2832,-1.347657 0.51757,-2.675782 0.24414,-1.33789 0.41993,-3.466796 0.17578,-2.128907 0.17578,-4.189454 v -0.449218 q 0.11718,-0.507813 0.61523,-0.712891 Q 244.88672,40 245.21875,40 q 0.29297,0 0.66406,0.439453 h 0.01 l 2.94922,3.955078 0.01,0.0098 0.6836,1.044922 4.54101,-5.195313 q 0.23438,-0.234375 0.3711,-0.292969 0.13671,-0.06836 0.35156,-0.06836 0.22461,0 0.34179,0.03906 0.15625,0.04883 0.17579,0.05859 0.0195,0.0098 0.0391,0.01953 0.0293,0.0098 0.0488,0.0293 0.0195,0.0098 0.0586,0.0293 0.12695,0.05859 0.16602,0.126953 0.0391,0.06836 0.0586,0.09766 0.0293,0.0293 0.0391,0.06836 0.0195,0.03906 0.0391,0.07813 0.0195,0.06836 0.0195,0.175781 v 2.832032 l -0.33204,8.466796 z"
       id="text15"
       style="-inkscape-font-specification:Lavi"
       aria-label="M" />
    <path
       d="m 124.16016,99.242187 v -0.08594 l 0.60156,-4.007813 v -0.03125 -0.02344 q -0.0703,-0.02344 -0.61719,-0.101563 -1.89062,-0.289062 -2.42187,-0.46875 -1.17188,-0.390625 -1.5625,-0.65625 -0.38282,-0.273437 -0.71094,-0.601562 -0.32031,-0.328125 -0.57031,-0.945313 -0.25,-0.617187 -0.25,-1.375 0,-1.328125 0.875,-2.15625 0.10937,-0.08594 0.25,-0.08594 0.26562,0 0.5,0.296875 0.375,0.484375 0.375,0.773437 0,0 0,0.0078 0.008,0.203125 -0.16407,0.453125 -0.17187,0.242187 -0.17968,0.757812 0,0.0078 0,0.01563 0,1.890625 3.14843,2.3125 0.63282,0.08594 1.40625,0.08594 0.32032,-2.289063 0.42969,-4.390625 0.0312,-0.429688 0.40625,-0.601563 0.125,-0.05469 0.22656,-0.05469 0.44532,0 0.6875,0.3125 0.0781,0.09375 0.0781,0.210937 v 0.0078 q -0.10938,2.289062 -0.375,5.460937 -0.25781,3.164063 -0.375,4.164063 -0.11719,1 -0.25,1.148437 -0.125,0.140625 -0.21875,0.242188 -0.10938,0.08594 -0.20313,0.07813 -0.16406,-0.0078 -0.38281,-0.0078 -0.21875,0 -0.46094,-0.1875 -0.24218,-0.1875 -0.24218,-0.546875 z m 7.52343,-5.5625 q -0.25781,0 -0.5625,0.05469 -0.29687,0.04687 -0.59375,0.148437 -0.29687,0.09375 -0.57812,0.242188 -0.28125,0.140625 -0.49219,0.335937 -0.21094,0.1875 -0.34375,0.421875 -0.125,0.226563 -0.125,0.5 0.11719,0 0.48438,-0.0078 0.375,-0.01563 0.85937,-0.03906 0.49219,-0.03125 1.02344,-0.07031 0.53125,-0.04687 0.97656,-0.109375 0.45313,-0.07031 0.74219,-0.15625 0.28906,-0.08594 0.28906,-0.203125 0,-0.335938 -0.1875,-0.554688 -0.17969,-0.21875 -0.44531,-0.34375 -0.25781,-0.125 -0.54688,-0.171875 -0.28906,-0.04687 -0.5,-0.04687 z m -4.25781,2.257813 q 0,-0.804688 0.34375,-1.492188 0.34375,-0.695312 0.92969,-1.203125 0.58594,-0.507812 1.35156,-0.796875 0.77344,-0.296875 1.61719,-0.296875 0.58594,0 1.16406,0.140625 0.57813,0.132813 1.03906,0.445313 0.46094,0.3125 0.74219,0.820312 0.28906,0.507813 0.28906,1.242188 0,0.367187 -0.14062,0.65625 -0.14063,0.289062 -0.375,0.507812 -0.23438,0.21875 -0.53906,0.375 -0.30469,0.148438 -0.64063,0.25 -0.33594,0.101563 -0.67969,0.15625 -0.34375,0.05469 -0.64843,0.07031 l -2.8125,0.15625 V 97 q 0,0.390625 0.1875,0.671875 0.1875,0.28125 0.47656,0.46875 0.28906,0.1875 0.63281,0.28125 0.34375,0.08594 0.66406,0.08594 0.39063,0 0.72657,-0.140625 0.34375,-0.140625 0.66406,-0.304687 0.32031,-0.171875 0.63281,-0.3125 0.32031,-0.140625 0.65625,-0.140625 0.32031,0 0.54688,0.1875 0.22656,0.179687 0.22656,0.523437 0,0.320313 -0.19531,0.578125 -0.1875,0.25 -0.49219,0.453125 -0.30469,0.195313 -0.69531,0.335938 -0.38282,0.140625 -0.76563,0.234375 -0.38281,0.08594 -0.73437,0.125005 -0.35157,0.0469 -0.59375,0.0469 -0.89844,0 -1.57032,-0.335938 -0.67187,-0.34375 -1.11718,-0.914062 -0.44532,-0.578125 -0.67188,-1.328125 -0.21875,-0.757813 -0.21875,-1.578125 z m 10.10938,-0.992188 -0.0234,0.101563 -0.008,0.07031 q -0.008,0.05469 -0.0234,0.257813 -0.0156,0.195312 -0.0469,0.46875 -0.0234,0.265625 -0.0625,0.578125 -0.0312,0.304687 -0.0547,0.578125 -0.0234,0.265625 -0.0469,0.46875 -0.0234,0.195312 -0.0234,0.25 0.24219,0.07813 0.42188,0.117187 0.17969,0.03906 0.33594,0.0625 0.16406,0.01563 0.32812,0.03906 0.17188,0.01563 0.39844,0.05469 0.36719,0.05469 0.78125,0.08594 0.17187,0.0078 0.33594,0.01563 0.24218,0 0.48437,-0.02344 0.40625,-0.03906 0.78906,-0.148437 0.39063,-0.117188 0.70313,-0.328125 0.3125,-0.21875 0.53125,-0.546875 0.22656,-0.328125 0.30469,-0.789063 0.0391,-0.210937 0.0391,-0.414062 0,-0.125 -0.0156,-0.242188 -0.0391,-0.3125 -0.17187,-0.5625 -0.13281,-0.257812 -0.36719,-0.421875 -0.23437,-0.171875 -0.57031,-0.234375 -0.1875,-0.03125 -0.54688,-0.05469 -0.35937,-0.03125 -0.80468,-0.03125 -0.4375,0 -0.89844,0.03125 -0.46094,0.03125 -0.85156,0.101562 -0.38282,0.07031 -0.64844,0.203125 -0.25781,0.125 -0.28906,0.3125 z m -1.57032,-2.359375 q 0.0625,-0.320312 0.29688,-0.46875 0.17969,-0.109375 0.39844,-0.109375 0.0703,0 0.14062,0.0078 0.28906,0.05469 0.42188,0.15625 0.13281,0.101562 0.1875,0.25 0.0625,0.148437 0.0781,0.328125 0.0156,0.179687 0.0625,0.390625 1.05469,-0.328125 2.13281,-0.34375 0.10157,0 0.19532,-0.0078 0.98437,0 2,0.179688 0.61718,0.109375 1.09375,0.445312 0.47656,0.328125 0.77343,0.8125 0.29688,0.476563 0.40625,1.070313 0.0547,0.296875 0.0547,0.59375 0,0.296875 -0.0547,0.609375 -0.14062,0.8125 -0.61718,1.445312 -0.47657,0.632813 -1.14844,1.039063 -0.67188,0.421875 -1.45313,0.578125 -0.39062,0.07813 -0.76562,0.07813 h -0.0703 q -0.36719,0 -0.73438,-0.0625 l -2.23437,-0.304688 q -0.0703,0.382813 -0.10938,0.578125 -0.0312,0.195318 -0.0469,0.296878 -0.0156,0.10156 -0.0234,0.15625 -0.008,0.0625 -0.0234,0.16406 -0.0156,0.10156 -0.0547,0.29688 -0.0312,0.19531 -0.10156,0.57812 -0.0156,0.0859 -0.0547,0.29688 -0.0312,0.21875 -0.0781,0.45312 -0.0391,0.24219 -0.0781,0.45313 -0.0312,0.21875 -0.0469,0.29687 -0.11719,0.21875 -0.32813,0.32031 -0.20312,0.10157 -0.42187,0.0625 -0.28125,-0.0547 -0.4375,-0.25 -0.15625,-0.19531 -0.17969,-0.46875 0.0391,-0.20312 0.0859,-0.4375 0.0547,-0.22656 0.10156,-0.46875 0.0547,-0.23437 0.10156,-0.46875 0.0469,-0.23437 0.0703,-0.44531 0.0312,-0.3125 0.0781,-0.789063 0.0469,-0.484375 0.0937,-1.03125 0.0547,-0.554687 0.10156,-1.117187 0.0547,-0.570313 0.0937,-1.046875 0.0391,-0.476563 0.0625,-0.804688 0.0234,-0.335937 0.0312,-0.414062 l -0.0156,-2.796875 q 0,-0.01563 0.008,-0.03906 0,-0.01563 0,-0.03125 0.008,-0.01563 0.008,-0.03125 z m 9.4375,0.859375 q -0.13281,0 -0.22656,-0.0625 -0.0937,-0.07031 -0.15625,-0.164062 -0.0625,-0.101563 -0.0937,-0.21875 -0.0312,-0.117188 -0.0312,-0.21875 0,-0.09375 0.0312,-0.203125 0.0312,-0.109375 0.0937,-0.203125 0.0625,-0.09375 0.14063,-0.15625 0.0859,-0.0625 0.19531,-0.0625 h 5.9375 q 0.11719,0 0.35156,-0.0078 0.11719,0 0.24219,0 0.13281,-0.0078 0.27344,0 0.28125,0.0078 0.5625,0.04687 0.28906,0.03906 0.52343,0.132813 0.23438,0.09375 0.38282,0.257812 0.15625,0.164063 0.15625,0.421875 0,0.28125 -0.17969,0.476563 -0.17188,0.195312 -0.46875,0.195312 -0.53906,0 -1.07813,-0.07031 -0.53125,-0.07031 -1.08593,-0.07031 l -1.25782,-0.02344 v 1.09375 q 0,4.09375 -0.88281,5.078125 -0.17969,0.203125 -0.36719,0.203125 -0.1875,0 -0.33593,-0.04687 -0.14063,-0.04687 -0.25782,-0.140625 -0.1875,-0.148438 -0.1875,-0.367188 0,-0.07813 0.0312,-0.1875 0.57032,-2.023437 0.67969,-5.65625 z m 9.71094,5.375 q 0,-0.234375 0.0859,-0.445312 0.0937,-0.210938 0.24219,-0.367188 0.15625,-0.15625 0.36718,-0.242187 0.21094,-0.09375 0.44532,-0.09375 0.23437,0 0.44531,0.09375 0.21094,0.08594 0.36719,0.242187 0.15625,0.15625 0.24218,0.367188 0.0937,0.210937 0.0937,0.445312 0,0.234375 -0.0937,0.445313 -0.0859,0.210937 -0.24218,0.367187 -0.15625,0.148438 -0.36719,0.242188 -0.21094,0.08594 -0.44531,0.08594 -0.23438,0 -0.44532,-0.08594 -0.21093,-0.09375 -0.36718,-0.242188 -0.14844,-0.15625 -0.24219,-0.367187 -0.0859,-0.210938 -0.0859,-0.445313 z m 10.69531,0.492188 q 0,-0.226563 0.27344,-0.570313 0.27344,-0.34375 0.71875,-0.773437 0.45313,-0.4375 1.02344,-0.945313 0.57031,-0.515625 1.16406,-1.085937 0.60156,-0.570313 1.17188,-1.1875 0.57812,-0.617188 1.02343,-1.257813 0.45313,-0.640625 0.72657,-1.289062 0.27343,-0.65625 0.27343,-1.296875 0,-0.375 -0.21093,-0.632813 -0.20313,-0.265625 -0.52344,-0.429687 -0.3125,-0.164063 -0.67969,-0.234375 -0.36719,-0.07031 -0.6875,-0.07031 -0.49219,0 -0.90625,0.242188 -0.41406,0.234375 -0.75781,0.59375 -0.34375,0.359375 -0.625,0.773437 -0.28125,0.40625 -0.52344,0.75 -0.10937,0.148438 -0.25,0.195313 -0.13281,0.04687 -0.3125,0.04687 -0.26562,0 -0.46875,-0.179688 -0.19531,-0.171875 -0.19531,-0.421875 0,-0.02344 0,-0.03906 0.008,-0.08594 0.008,-0.148438 0,-0.07031 0.0391,-0.15625 0.39063,-0.539062 0.78907,-1.078125 0.39843,-0.546875 0.86718,-0.976562 0.46875,-0.429688 1.03907,-0.695313 0.57031,-0.273437 1.29687,-0.273437 0.625,0 1.25,0.171875 0.63281,0.164062 1.13281,0.507812 0.50782,0.335938 0.82032,0.859375 0.3125,0.515625 0.3125,1.226563 0,0.703125 -0.22657,1.40625 -0.22656,0.695312 -0.60937,1.367187 -0.375,0.671875 -0.86719,1.304688 -0.49219,0.632812 -1.02344,1.210937 -0.53125,0.570313 -1.0625,1.078125 -0.52343,0.507813 -0.97656,0.921875 h 0.0703 q 0.51563,-0.04687 1.01563,-0.07031 0.5,-0.02344 1.01562,-0.02344 0,-0.02344 0.13282,-0.02344 0.13281,0 0.40625,0.02344 0.33593,0.02344 0.72656,0.02344 0.39062,0 0.78906,0.07813 0.40625,0.07813 0.72656,0.210937 0.32032,0.125 0.52344,0.335938 0.21094,0.210937 0.21094,0.53125 0,0.296875 -0.17969,0.453125 -0.17969,0.171875 -0.40625,0.171875 -0.0391,0 -0.0781,-0.0078 -0.33594,-0.03906 -0.69532,-0.03906 -0.35156,0 -0.71875,-0.07031 -0.35937,-0.07031 -0.72656,-0.09375 -0.44531,-0.01563 -0.625,-0.01563 -0.0469,0 -0.0859,0 -0.0391,0.0078 -1.07031,0.0078 -0.47656,0.02344 -1.03906,0.02344 -0.54688,0 -1.03125,0.07813 -0.51563,0.05469 -1.03906,0.15625 h -0.23438 q -0.30469,0 -0.50781,-0.179687 -0.20313,-0.1875 -0.20313,-0.484375 z m 15.09375,-0.90625 0.9375,0.179687 q 0.17188,0.03125 0.23438,0.07031 0.10937,0.07813 0.1875,0.1875 0.0781,0.109375 0.11719,0.242187 0.0469,0.125 0.0469,0.234375 0,0.09375 -0.0391,0.210938 -0.0312,0.109375 -0.0937,0.210937 -0.0625,0.09375 -0.15625,0.164063 -0.0859,0.07031 -0.19531,0.07031 h -5.03125 q -0.1875,0 -0.375,-0.02344 -0.17969,-0.02344 -0.32813,-0.09375 -0.14062,-0.07813 -0.23437,-0.210938 -0.0859,-0.140625 -0.0859,-0.359375 0,-0.117187 0.0234,-0.25 0.0312,-0.132812 0.0937,-0.242187 0.0703,-0.109375 0.17187,-0.179688 0.10156,-0.07813 0.25,-0.07813 h 2.92969 V 90.90625 90.757812 q -0.26563,0.203125 -0.5625,0.398438 -0.29688,0.1875 -0.61719,0.34375 -0.3125,0.148437 -0.64844,0.242187 -0.33593,0.08594 -0.6875,0.08594 h -0.26562 q -0.24219,-0.08594 -0.34375,-0.25 -0.10156,-0.171875 -0.10156,-0.429688 0,-0.210937 0.11718,-0.367187 0.11719,-0.15625 0.30469,-0.273438 0.1875,-0.117187 0.41406,-0.203125 0.23438,-0.09375 0.46875,-0.171875 0.23438,-0.08594 0.44532,-0.164062 0.21093,-0.08594 0.35156,-0.1875 0.44531,-0.328125 0.84375,-0.726563 0.39844,-0.398437 0.76562,-0.78125 0.0781,-0.0625 0.17188,-0.08594 0.0937,-0.01563 0.19531,-0.01563 0.3125,0 0.50781,0.21875 0.19532,0.21875 0.19532,0.539062 V 89 Z m 3.02344,0.414062 q 0,-0.234375 0.0859,-0.445312 0.0937,-0.210938 0.24219,-0.367188 0.15625,-0.15625 0.36718,-0.242187 0.21094,-0.09375 0.44532,-0.09375 0.23437,0 0.44531,0.09375 0.21094,0.08594 0.36719,0.242187 0.15625,0.15625 0.24218,0.367188 0.0937,0.210937 0.0937,0.445312 0,0.234375 -0.0937,0.445313 -0.0859,0.210937 -0.24218,0.367187 -0.15625,0.148438 -0.36719,0.242188 -0.21094,0.08594 -0.44531,0.08594 -0.23438,0 -0.44532,-0.08594 -0.21093,-0.09375 -0.36718,-0.242188 -0.14844,-0.15625 -0.24219,-0.367187 -0.0859,-0.210938 -0.0859,-0.445313 z"
       id="text16"
       style="-inkscape-font-specification:Lavi"
       aria-label="Черт. 21." />
  </g>
</svg>
