<svg viewBox="0,0,600,400" width="600" height="400" xmlns="http://www.w3.org/2000/svg" xmlns:xlink="http://www.w3.org/1999/xlink"><svg width="600" height="350"><g class="venn-area venn-circle" data-venn-sets="0"><path d="&#10;M 299.9999999999948 175 &#10;m -160 0 &#10;a 160 160 0 1 0 320 0 &#10;a 160 160 0 1 0 -320 0" style="fill-opacity: 0.25; fill: rgb(31, 119, 180);"/><text class="label" text-anchor="middle" dy=".35em" x="220" y="175" style="fill: rgb(31, 119, 180);"><tspan x="220" y="175" dy="0.35em">дерево</tspan></text></g><g class="venn-area venn-circle" data-venn-sets="1"><path d="&#10;M 380.00000000000523 175 &#10;m -80 0 &#10;a 80 80 0 1 0 160 0 &#10;a 80 80 0 1 0 -160 0" style="fill-opacity: 0.25; fill: rgb(255, 0, 0);"/><text class="label" text-anchor="middle" dy=".35em" x="380" y="175" style="fill: rgb(255, 0, 0);"><tspan x="380" y="175" dy="0.35em">берёза</tspan></text></g><g class="venn-area venn-intersection" data-venn-sets="0_1"><path d="&#10;M 459.9999999999844 175.0000576953257 &#10;A 80 80 0 1 1 459.9999999999844 174.9999423046743 &#10;A 160 160 0 0 1 459.9999999999844 175.0000576953257" style="fill-opacity: 0;"/><text class="label" text-anchor="middle" dy=".35em" x="380" y="175" style="fill: rgb(68, 68, 68);"><tspan x="380" y="175" dy="0.35em"/></text></g></svg></svg>