<svg xmlns="http://www.w3.org/2000/svg" width="320" height="320"><g class="venn-area venn-circle" data-venn-sets="0"><path d="M140 175a160 160 0 1 0 320 0 160 160 0 1 0-320 0" style="fill:#1f77b4;fill-opacity:.25" transform="translate(-140 -15)"/><path d="M175.227 179.09q.062.797.546 1.391.485.578 1.204.985.734.39 1.625.64.89.25 1.765.39.89.126 1.672.173.781.047 1.313.047v-.391q-.016-.234-.016-.89.016-.673.047-1.548t.062-1.859q.032-.984.063-1.86.031-.89.031-1.546.016-.672 0-.906h-.234l-1.25-.047q-.266-.016-.547 0-.563 0-1.188.047-.937.078-1.906.343-.953.25-1.703.844-.75.594-1.188 1.61-.328.78-.328 1.906 0 .312.032.672zm-3.266 9.126v-.844q.125-.406.547-.672.437-.266.844-.266.64 0 .984.204.36.218.61.53.25.313.5.673.25.375.687.687.453.328 1.172.516.625.172 1.593.172h.329q.39 0 .875-.016.484 0 .984-.094.5-.078.969-.265.468-.172.797-.516.328-.344.484-.906.094-.328.094-.75 0-.297-.047-.625-1.016-.063-2.25-.188-1.235-.14-2.485-.422-1.25-.296-2.437-.78-1.172-.485-2.11-1.235-.921-.766-1.5-1.813-.578-1.062-.609-2.515v-.407q0-1.984.547-3.359.61-1.516 1.64-2.469 1.047-.953 2.376-1.437 1.343-.5 2.734-.703 1.406-.203 2.734-.22 1.344-.015 2.36-.015h1.312q.11.063.297.157.188.078.36.203.171.11.296.25.125.14.125.312l-.515 15.953q0 .985-.328 1.735-.313.765-.86 1.328-.531.578-1.25.953-.719.39-1.515.625-.797.25-1.641.344-.828.11-1.594.11-1.344 0-2.578-.345-1.234-.343-2.219-.922-.968-.578-1.593-1.359-.61-.766-.72-1.61zm25.375-14.657q-.516 0-1.125.11-.594.093-1.188.297-.593.187-1.156.484-.562.281-.984.672-.422.375-.688.844-.25.453-.25 1 .235 0 .97-.016.75-.031 1.718-.078.984-.063 2.047-.14 1.062-.094 1.953-.22.906-.14 1.484-.312t.578-.406q0-.672-.375-1.11-.36-.437-.89-.687-.516-.25-1.094-.344-.578-.094-1-.094zm-8.516 4.516q0-1.61.688-2.984.687-1.391 1.86-2.407 1.171-1.015 2.702-1.593 1.547-.594 3.235-.594 1.172 0 2.328.281 1.156.266 2.078.89.922.626 1.484 1.641.578 1.016.578 2.485 0 .734-.28 1.312-.282.578-.75 1.016-.47.437-1.079.75-.61.297-1.281.5-.672.203-1.36.312-.687.11-1.296.141l-5.625.313v.062q0 .781.375 1.344.375.562.953.937t1.265.563q.688.172 1.328.172.782 0 1.454-.282.687-.28 1.328-.609.64-.344 1.265-.625.64-.281 1.313-.281.64 0 1.094.375.453.36.453 1.047 0 .64-.39 1.156-.376.5-.985.906-.61.39-1.39.672-.767.281-1.532.469-.766.172-1.469.25-.703.093-1.187.093-1.797 0-3.141-.671-1.344-.688-2.234-1.829-.891-1.156-1.344-2.656-.438-1.515-.438-3.156zm20.22-1.984-.048.203-.015.14q-.016.11-.047.516-.032.39-.094.938-.047.53-.125 1.156-.063.61-.11 1.156-.046.531-.093.938-.047.39-.047.5.484.156.844.234.36.078.672.125.328.031.656.078.344.031.797.11.734.109 1.562.171l.672.031q.484 0 .969-.046.812-.079 1.578-.297.781-.235 1.406-.657.625-.437 1.063-1.093.453-.657.61-1.578.077-.422.077-.829 0-.25-.031-.484-.078-.625-.344-1.125-.265-.516-.734-.844-.469-.343-1.14-.468-.376-.063-1.094-.11-.72-.062-1.61-.062-.875 0-1.797.062-.922.063-1.703.203-.765.14-1.297.407-.515.25-.578.625zm-3.142-4.72q.125-.64.594-.937.36-.218.797-.218.14 0 .281.015.578.11.844.313t.375.5q.125.297.156.656.032.36.125.781 2.11-.656 4.266-.687.203 0 .39-.016 1.97 0 4 .36 1.235.218 2.188.89.953.656 1.547 1.625.594.953.812 2.14.11.594.11 1.188t-.11 1.219q-.28 1.625-1.234 2.89-.953 1.266-2.297 2.079-1.344.843-2.906 1.156-.781.156-1.531.156h-.14q-.735 0-1.47-.125l-4.468-.61q-.141.766-.22 1.157l-.093.594-.047.312q-.015.125-.047.329-.03.203-.11.593-.062.39-.202 1.156l-.11.594q-.062.438-.156.906-.078.485-.156.907-.063.437-.094.593-.234.438-.656.641-.406.203-.844.125-.562-.11-.875-.5-.312-.39-.36-.937.079-.407.173-.875.11-.454.203-.938.11-.469.203-.937.094-.47.14-.891l.157-1.578q.094-.969.187-2.063.11-1.109.203-2.234.11-1.14.188-2.094.078-.953.125-1.61.047-.671.062-.827l-.03-5.594q0-.031.015-.078v-.063q.015-.03.015-.062zm26.157 2.188q-.516 0-1.125.11-.594.093-1.188.297-.594.187-1.156.484-.563.281-.984.672-.422.375-.688.844-.25.453-.25 1 .234 0 .969-.016.75-.031 1.719-.078.984-.063 2.046-.14 1.063-.094 1.954-.22.906-.14 1.484-.312t.578-.406q0-.672-.375-1.11-.36-.437-.89-.687-.516-.25-1.094-.344-.578-.094-1-.094zm-8.516 4.516q0-1.61.688-2.984.687-1.391 1.859-2.407 1.172-1.015 2.703-1.593 1.547-.594 3.234-.594 1.172 0 2.329.281 1.156.266 2.078.89.922.626 1.484 1.641.578 1.016.578 2.485 0 .734-.281 1.312-.281.578-.75 1.016-.469.437-1.078.75-.61.297-1.281.5-.672.203-1.36.312-.687.11-1.297.141l-5.625.313v.062q0 .781.375 1.344.375.562.953.937.579.375 1.266.563.688.172 1.328.172.781 0 1.453-.282.688-.28 1.328-.609.641-.344 1.266-.625.64-.281 1.313-.281.64 0 1.093.375.453.36.453 1.047 0 .64-.39 1.156-.375.5-.985.906-.609.39-1.39.672-.766.281-1.531.469-.766.172-1.47.25-.702.093-1.187.093-1.797 0-3.14-.671-1.344-.688-2.235-1.829-.89-1.156-1.343-2.656-.438-1.515-.438-3.156zm17.094 3.328q.172-1.015.297-2.156.312-3.235.39-5.688h-.172q-.593 0-.921-.359-.329-.36-.329-.969 0-.531.344-.906t.875-.625q.453-.219 1.219-.375.812-.172 1.344-.219.906-.078 1.265-.093.594-.016.985-.016 1.093 0 2.015.266.953.265 1.61.812.703.563 1.078 1.39.39.844.39 2.016 0 1.235-.375 2.032-.328.687-.812 1.14.484.219.86.485.64.453.984 1.078.36.64.36 1.61v1.983q0 .594-.267 1.079-.265.484-.703.875-.5.437-1.015.718-.563.297-1.157.5-.687.235-1.156.313-.562.094-1.015.094-.875 0-1.875-.22-1-.218-1.938-.624l-.5-.219q-.094.14-.203.25-.36.406-.734.406-.375 0-.672-.093-.282-.094-.516-.282-.375-.297-.375-.734 0-.172.063-.375.093-.344.187-.719-.203-.203-.375-.422-.062-.297-.094-.343-.062-.125-.062-.329 0-.234.125-.515.11-.25.312-.438.22-.203.438-.28zm3.344-8.36v2.376q0 .828-.016 1.593.797-.203 1.547-.375.734-.156 1.39-.468.625-.297.97-.688.374-.437.374-1.062 0-.547-.187-.875-.188-.328-.516-.5t-.75-.219q-.578-.063-.922-.063-.594 0-1.187.125-.328.063-.703.157zm-.125 6.25q-.141 1.938-.422 3.329.265.14.61.297.655.297 1.374.5.688.187 1.313.187.484 0 .875-.093.5-.125.828-.313.36-.203.61-.562.233-.329.233-.797 0-.875-.359-1.36-.36-.468-.984-.781-.75-.36-1.375-.453-.032 0-.72-.14-.687.14-.718.14-.265.047-1.265.047zm12.625.063q0 1.11.234 1.906.234.797.766 1.313.53.5 1.39.75.86.234 2.094.234 1.11 0 1.984-.5.875-.515 1.485-1.312.61-.813.937-1.813.328-1.015.328-2.015 0-.938-.234-1.75-.219-.813-.719-1.407-.484-.609-1.281-.953-.781-.343-1.906-.343-1 0-1.86.39-.843.39-1.5 1.047-.656.656-1.11 1.516-.437.843-.608 1.75zm-3.188-.234q0-1.703.64-3.297.657-1.594 1.782-2.828 1.125-1.235 2.656-1.969 1.531-.75 3.313-.75 1.828 0 3.156.625 1.344.625 2.203 1.688.875 1.062 1.297 2.468.422 1.407.422 2.985 0 .765-.188 1.703-.187.922-.547 1.875-.359.953-.89 1.86-.531.905-1.219 1.609-.672.687-1.516 1.109-.828.422-1.78.422h-2.954q-1.703 0-2.922-.656-1.203-.672-1.969-1.735-.765-1.078-1.125-2.422-.359-1.343-.359-2.687z" aria-label="дерево" class="label" style="font-size:32px;font-family:Lavi;-inkscape-font-specification:Lavi;text-anchor:middle;fill:#1f77b4" transform="translate(-140 -15)"/></g><g class="venn-area venn-circle" data-venn-sets="1"><path d="M300 175a80 80 0 1 0 160 0 80 80 0 1 0-160 0" style="fill:red;fill-opacity:.25" transform="translate(-140 -15)"/><path d="M334.39 174.325q.063-1.234.079-2.563.14-.53 1.093-.78.532-.141 1.204-.141.546 0 1.187.093.672 0 1.328-.047l1.313-.125q.672-.078 1.328-.125.656-.062 1.328-.062.312 0 .594.062.281.063.5.22.218.14.343.39.141.234.141.594 0 .593-.422.921-.422.313-.969.344l-6.359.547v1.766q0 .828-.016 1.593.797-.203 1.844-.296.235-.016.5-.016.86 0 1.875.234 1.688.407 1.688.657 0 .03-.031.062.484.219.859.484.64.454.984 1.079.36.64.36 1.609v1.984q0 .594-.266 1.078-.266.485-.703.875-.5.438-1.016.72-.562.296-1.156.5-.687.234-1.156.312-.563.093-1.016.093-.875 0-1.875-.218-1-.22-1.937-.625l-.5-.22q-.094.142-.203.25-.36.407-.735.407t-.672-.094q-.281-.093-.515-.28-.375-.298-.375-.735 0-.172.062-.375 1.047-3.719 1.313-10.172zm2.563 4.969q-.11 1.547-.312 2.734-.047.313-.11.594.266.14.61.297.656.297 1.375.5.687.187 1.312.187.485 0 .875-.093.5-.125.828-.313.36-.203.61-.562.234-.329.234-.797 0-.875-.36-1.36-.359-.468-.984-.781-.75-.36-1.375-.453-.031 0-.719-.14-.687.14-.718.14-.266.047-1.266.047zm18-5.735q-.515 0-1.125.11-.594.093-1.187.297-.594.187-1.157.484-.562.281-.984.672-.422.375-.688.844-.25.453-.25 1 .235 0 .97-.016.75-.031 1.718-.078.984-.063 2.047-.14 1.062-.094 1.953-.22.906-.14 1.484-.312.579-.172.579-.406 0-.672-.375-1.11-.36-.437-.891-.687-.516-.25-1.094-.344-.578-.094-1-.094zm-8.515 4.516q0-1.61.687-2.984.688-1.391 1.86-2.407 1.171-1.015 2.702-1.593 1.547-.594 3.235-.594 1.172 0 2.328.281 1.156.266 2.078.89.922.626 1.485 1.641.578 1.016.578 2.485 0 .734-.282 1.312-.28.578-.75 1.016-.468.437-1.078.75-.61.297-1.281.5-.672.203-1.36.312-.687.11-1.296.141l-5.625.313v.062q0 .781.375 1.344.375.562.953.937t1.265.563q.688.172 1.329.172.78 0 1.453-.282.687-.28 1.328-.609.64-.344 1.265-.625.641-.281 1.313-.281.64 0 1.094.375.453.36.453 1.047 0 .64-.39 1.156-.376.5-.985.906-.61.39-1.39.672-.766.281-1.532.469-.766.172-1.469.25-.703.093-1.187.093-1.797 0-3.14-.671-1.345-.688-2.235-1.829-.89-1.156-1.344-2.656-.438-1.515-.438-3.156zm20.218-1.984-.047.203-.015.14q-.016.11-.047.516-.031.39-.094.938-.047.53-.125 1.156-.062.61-.11 1.156-.046.531-.093.938-.047.39-.047.5.485.156.844.234.36.078.672.125.328.031.656.078.344.031.797.11.734.109 1.562.171l.672.031q.485 0 .97-.046.812-.079 1.577-.297.781-.235 1.406-.657.625-.437 1.063-1.093.453-.657.61-1.578.077-.422.077-.829 0-.25-.03-.484-.079-.625-.345-1.125-.265-.516-.734-.844-.469-.343-1.14-.468-.376-.063-1.094-.11-.719-.062-1.61-.062-.875 0-1.797.062-.921.063-1.703.203-.765.14-1.297.407-.515.25-.578.625zm-3.14-4.72q.125-.64.593-.937.36-.218.797-.218.14 0 .281.015.579.11.844.313.266.203.375.5.125.297.156.656.032.36.125.781 2.11-.656 4.266-.687.203 0 .39-.016 1.97 0 4 .36 1.235.218 2.188.89.953.656 1.547 1.625.594.953.813 2.14.109.594.109 1.188t-.11 1.219q-.28 1.625-1.234 2.89-.953 1.266-2.297 2.079-1.343.843-2.906 1.156-.781.156-1.531.156h-.14q-.735 0-1.47-.125l-4.468-.61q-.14.766-.219 1.157-.063.39-.094.594l-.047.312q-.015.125-.046.329-.032.203-.11.593-.062.39-.203 1.156l-.11.594q-.062.438-.156.906-.078.485-.156.907-.062.437-.094.593-.234.438-.656.641-.406.203-.844.125-.562-.11-.875-.5-.312-.39-.359-.937.078-.407.172-.875.11-.454.203-.938.11-.469.203-.937.094-.47.14-.891l.157-1.578q.094-.969.188-2.063.109-1.109.203-2.234.109-1.14.187-2.094.078-.953.125-1.61.047-.671.063-.827l-.032-5.594q0-.031.016-.078v-.063q.016-.03.016-.062zm21.14-5.577q0-.39.14-.735.142-.359.407-.609.281-.266.61-.422.343-.156.765-.156.39 0 .735.156.359.156.625.422.265.25.406.61.156.343.156.734 0 .406-.156.75-.14.343-.406.61-.266.265-.625.405-.344.141-.735.141-.422 0-.765-.14-.329-.141-.61-.407-.265-.265-.406-.61-.14-.343-.14-.75zm5.563-.047q-.016-.313.14-.719.125-.344.391-.594.25-.265.578-.406.328-.156.719-.156.375 0 .719.156.343.14.593.406.25.25.407.594.14.344.14.719 0 .406-.14.734-.157.328-.407.594-.25.25-.593.39-.344.157-.72.157-.39 0-.718-.156-.328-.141-.578-.391-.234-.234-.39-.594-.141-.281-.141-.734zm-8.594 15.39q-.453-1.546-.453-3.156t.687-2.984q.688-1.39 1.86-2.406 1.172-1.016 2.719-1.61 1.5-.578 3.218-.578 1.172 0 2.328.266 1.125.25 2.079.906.921.625 1.5 1.64.562.985.562 2.485 0 .734-.281 1.313-.281.578-.75 1.015-.469.438-1.078.735-.688.343-1.282.515-.671.203-1.359.313-.688.109-1.297.14l-5.625.313v.062q0 .781.375 1.344.375.563.953.938.578.374 1.266.562.625.172 1.328.172.781 0 1.469-.281.61-.25 1.312-.61.86-.437 1.281-.625.641-.281 1.297-.281.641 0 1.094.375.453.375.453 1.047 0 .64-.375 1.14-.39.516-1 .907-.672.422-1.375.687-.734.266-1.547.469-.656.156-1.468.25-.844.094-1.188.094-1.797 0-3.14-.688-1.36-.703-2.235-1.812-.89-1.125-1.328-2.657zm8.063-7.671q-.516 0-1.125.109-.594.094-1.188.281-.594.203-1.156.5-.61.313-.985.656-.406.36-.671.844-.266.485-.266 1.016.234 0 .984-.016.36 0 1.719-.093.969-.047 2.031-.125.813-.063 1.969-.22.781-.109 1.469-.312.578-.172.578-.406 0-.672-.36-1.11-.343-.421-.89-.687-.5-.25-1.11-.344-.578-.093-1-.093zm14.796 2.703q.625-.297.97-.688.374-.437.374-1.062 0-.547-.187-.875-.188-.328-.516-.5t-.75-.219q-.578-.063-.922-.063-.594 0-1.187.125-.313.063-2.22.375-.78.125-1.312.125h-.109q-.64 0-.813-.187-.328-.36-.328-.969 0-.531.344-.906t.875-.625q.453-.219 1.219-.375.812-.172 1.344-.219.906-.078 1.265-.093.594-.016.985-.016 1.093 0 2.015.266.953.265 1.61.812.703.563 1.078 1.39.39.844.39 2.016 0 1.235-.375 2.032-.328.687-.812 1.14.484.219.86.485.64.453.984 1.078.359.64.359 1.61v1.983q0 .594-.266 1.079-.265.484-.703.875-.5.437-1.015.718-.563.297-1.157.5-.687.235-1.156.313-.562.094-1.015.094-.875 0-1.875-.22-1-.218-1.938-.624-2.266-1.5-2.266-2.297 0-.234.22-.422.624-.516 1.265-.531.297 0 .61.125.968.344 1.296.5.656.297 1.375.5.688.187 1.313.187.484 0 .875-.093.5-.125.828-.313.359-.203.609-.562.234-.329.234-.797 0-.875-.359-1.36-.36-.468-.984-.78-.75-.36-1.375-.454-.032 0-.72-.14-.327.062-.608.062-.454 0-.797-.156-.563-.25-.672-.875-.016-.125-.016-.235 0-.469.328-.797.875-.343 1.438-.468.734-.157 1.39-.47zm18.688-2.766q-.328-.11-1.703-.11-7.063 0-7.078 5.407 0 1.938.437 2.844.438.89 1.266 1.531.828.64 1.75.64 1.781 0 3.375-1.374 1.61-1.375 1.89-3.047zm0 4.719zm-10.422 6.031q-.734-1.094-1.063-2.515-.328-1.422-.328-3.329 0-1.921.75-3.546 1.454-3.172 5.297-4.188 1.875-.5 3.703-.5h.047q.266.016.5.016 1.407 0 1.64-.047.063-.016.142-.016.265 0 .703.14l.53.157q.438.125.876.484.453.344.453.688l.172 7.922q.015.89.406 2.187.703 2.39.703 3.172 0 .766-.406 1.235-.406.468-1.078.468-1.203 0-1.61-1.062-.328-.813-.515-1.532-1.422 1.204-2.36 1.704-1.859.968-3.625.968-1.765 0-2.984-.656-1.203-.656-1.953-1.75z" aria-label="берёза" class="label" style="font-size:32px;font-family:Lavi;-inkscape-font-specification:Lavi;text-anchor:middle;fill:red" transform="translate(-140 -15)"/></g></svg>