<?xml version="1.0" encoding="UTF-8" standalone="no"?>
<svg
   viewBox="0 0 220 100"
   version="1.1"
   id="svg3"
   sodipodi:docname="two-circles-diagram-svg.svg"
   inkscape:version="1.3.2 (091e20ef0f, 2023-11-25)"
   xmlns:inkscape="http://www.inkscape.org/namespaces/inkscape"
   xmlns:sodipodi="http://sodipodi.sourceforge.net/DTD/sodipodi-0.dtd"
   xmlns="http://www.w3.org/2000/svg"
   xmlns:svg="http://www.w3.org/2000/svg">
  <defs
     id="defs3" />
  <sodipodi:namedview
     id="namedview3"
     pagecolor="#ffffff"
     bordercolor="#000000"
     borderopacity="0.25"
     inkscape:showpageshadow="2"
     inkscape:pageopacity="0.0"
     inkscape:pagecheckerboard="0"
     inkscape:deskcolor="#d1d1d1"
     inkscape:zoom="1.4495689"
     inkscape:cx="49.66994"
     inkscape:cy="68.641097"
     inkscape:window-width="1920"
     inkscape:window-height="1009"
     inkscape:window-x="0"
     inkscape:window-y="38"
     inkscape:window-maximized="1"
     inkscape:current-layer="svg3" />
  <path
     id="circle1"
     style="fill:none;stroke:#000000;stroke-width:2"
     d="M 98,50 A 48,48 0 0 1 50,98 48,48 0 0 1 2,50 48,48 0 0 1 50,2 48,48 0 0 1 98,50 Z" />
  <path
     d="m 45.308594,28.640625 v -0.01172 -0.01172 -0.01172 l 0.808593,-3 q 0.363282,-1.300782 0.550782,-2.660157 0.199218,-1.371093 0.292968,-2.765625 0.09375,-1.394531 0.117188,-2.789062 0.01172,-1.324219 0.01172,-2.625 h -0.04687 q -0.09375,0 -0.199219,0.01172 -0.09375,0 -0.1875,0.01172 -0.09375,0.01172 -0.1875,0.03516 -0.09375,0.01172 -0.175781,0.03516 -0.375,0.09375 -0.738282,0.199219 -0.363281,0.117187 -0.703125,0.210937 -0.363281,0.09375 -0.761718,0.09375 -0.492188,0 -0.773438,-0.257812 -0.28125,-0.257813 -0.28125,-0.761719 0,-0.527344 0.46875,-0.867187 0.433594,-0.328125 1.113281,-0.550782 0.08203,-0.02344 0.164063,-0.04687 0.09375,-0.02344 0.175781,-0.04687 0.09375,-0.02344 0.1875,-0.04687 0.09375,-0.02344 0.1875,-0.04687 0.375,-0.08203 0.785156,-0.140625 0.832032,-0.128906 1.628907,-0.1875 0.808593,-0.05859 1.488281,-0.07031 0.339844,-0.01172 0.585937,-0.01172 0.128907,0 0.234375,0 0.117188,0 0.210938,0 0.773437,0 1.6875,0.07031 0.914062,0.07031 1.816406,0.234375 0.457031,0.09375 0.902344,0.210937 0.222656,0.05859 0.433594,0.128906 0.210937,0.07031 0.421875,0.152344 0.04687,0.01172 0.08203,0.03516 0.04687,0.01172 0.08203,0.03516 0.04687,0.01172 0.08203,0.03516 0.03516,0.01172 0.07031,0.03516 0.04687,0.01172 0.09375,0.03516 0.04687,0.02344 0.09375,0.04687 0.04687,0.02344 0.09375,0.04687 0.04687,0.02344 0.09375,0.04687 0.04687,0.02344 0.09375,0.04687 0.1875,0.105469 0.363281,0.222657 0.08203,0.05859 0.164063,0.128906 0.08203,0.05859 0.164062,0.117187 0.65625,0.515625 1.042969,1.265625 0.386719,0.75 0.386719,1.757813 0,0.269531 -0.03516,0.527343 -0.03516,0.246094 -0.105468,0.480469 -0.05859,0.234375 -0.164063,0.445313 -0.09375,0.210937 -0.222656,0.398437 -0.08203,0.128906 -0.1875,0.246094 -0.09375,0.105469 -0.199219,0.222656 -0.210937,0.222656 -0.445312,0.410156 -0.234375,0.175782 -0.503907,0.339844 -0.398437,0.234375 -0.855468,0.398438 -0.222657,0.08203 -0.457032,0.164062 -0.234375,0.07031 -0.480468,0.128906 -0.08203,0.02344 -0.164063,0.04687 -0.08203,0.01172 -0.164062,0.03516 -0.08203,0.01172 -0.164063,0.02344 -0.08203,0.01172 -0.164062,0.03516 -0.07031,0.01172 -0.152344,0.02344 -0.08203,0.01172 -0.164063,0.02344 -0.234375,0.03516 -0.46875,0.05859 -0.234375,0.02344 -0.46875,0.03516 l -3.796875,0.199219 -0.808593,5.109375 q -0.01172,0.05859 -0.03516,0.140625 -0.01172,0.07031 -0.02344,0.164063 -0.01172,0.09375 -0.03516,0.210937 -0.04687,0.339844 -0.128907,0.738281 -0.08203,0.398438 -0.210937,0.796875 -0.128906,0.421875 -0.328125,0.761719 -0.199219,0.351563 -0.46875,0.574219 -0.292969,0.234375 -0.667969,0.234375 -0.246094,0 -0.445312,-0.07031 -0.09375,-0.03516 -0.1875,-0.09375 -0.08203,-0.05859 -0.152344,-0.128906 -0.07031,-0.07031 -0.117188,-0.152344 -0.04687,-0.09375 -0.08203,-0.199218 -0.07031,-0.199219 -0.07031,-0.433594 z M 52.632812,14.625 q -0.679687,-0.07031 -1.289062,-0.08203 -0.621094,-0.01172 -1.054688,-0.01172 -0.01172,0 -0.02344,0 -0.01172,0 -0.02344,0 h -0.04687 q -0.02344,0 -0.07031,0 -0.01172,0 -0.03516,0 -0.01172,0 -0.03516,0 l -0.292968,0.01172 q -0.152344,0 -0.257813,0.01172 l -0.05859,0.01172 -0.02344,0.04687 q -0.01172,0.269532 -0.02344,0.503907 0,0.128906 -0.01172,0.257812 0,0.117188 0,0.234375 -0.01172,0.246094 -0.02344,0.480469 -0.01172,0.304687 -0.02344,0.632812 0,0.105469 -0.01172,0.222656 0,0.105469 -0.01172,0.210938 0,0.105469 0,0.210937 -0.01172,0.304688 -0.02344,0.585938 0,0.09375 0,0.1875 0,0.08203 0,0.164062 0,0.07031 0,0.140625 v 0.585938 q 0.175781,0 0.386718,0.01172 0.222657,0 0.503907,0 h 0.398437 0.339844 q 0.351562,0 0.738281,-0.01172 0.796875,-0.02344 1.628906,-0.128906 0.410157,-0.05859 0.785157,-0.140625 0.386718,-0.09375 0.726562,-0.210938 0.667969,-0.234375 1.078125,-0.609375 0.09375,-0.09375 0.164063,-0.1875 0.08203,-0.105469 0.128906,-0.222656 0.05859,-0.117188 0.08203,-0.246094 0.02344,-0.128906 0.02344,-0.269531 0,-0.304688 -0.08203,-0.5625 -0.07031,-0.257813 -0.222656,-0.46875 -0.04687,-0.07031 -0.105469,-0.128906 -0.05859,-0.07031 -0.128906,-0.128906 -0.05859,-0.07031 -0.128906,-0.128907 -0.02344,-0.02344 -0.04687,-0.03516 -0.02344,-0.02344 -0.04687,-0.03516 -0.02344,-0.02344 -0.04687,-0.04687 -0.07031,-0.05859 -0.152344,-0.105469 -0.03516,-0.02344 -0.08203,-0.04687 -0.03516,-0.02344 -0.08203,-0.04687 -0.257813,-0.140625 -0.5625,-0.246094 -0.292969,-0.105468 -0.621094,-0.1875 -0.222656,-0.04687 -0.445313,-0.09375 -0.117187,-0.02344 -0.234375,-0.03516 -0.105468,-0.02344 -0.222656,-0.03516 -0.105469,-0.02344 -0.210937,-0.03516 Q 52.75,14.636719 52.632812,14.625 Z"
     id="text1"
     style="font-size:24px;font-family:Lavi;-inkscape-font-specification:Lavi"
     aria-label="P" />
  <path
     id="circle2"
     style="fill:none;stroke:#000000;stroke-width:2"
     d="M 60,75 A 10,10 0 0 1 50,85 10,10 0 0 1 40,75 10,10 0 0 1 50,65 10,10 0 0 1 60,75 Z" />
  <path
     d="m 46.69043,78.851562 q -0.0752,-0.08887 -0.136719,-0.177734 -0.191406,-0.293945 -0.191406,-0.663086 0,-0.266601 0.164062,-0.458008 0.170899,-0.191406 0.464844,-0.191406 0.164062,0 0.334961,0.102539 0.157226,0.0957 0.348633,0.246094 0.18457,0.143555 0.40332,0.307617 0.21875,0.164063 0.478516,0.300781 0.266601,0.136719 0.58789,0.225586 0.314453,0.0957 0.697266,0.0957 0.0957,0 0.198242,-0.0068 0.109375,-0.0068 0.21875,-0.01367 0.116211,-0.01367 0.239258,-0.02734 0.36914,-0.04785 0.758789,-0.143555 0.396484,-0.102539 0.765625,-0.25293 0.18457,-0.0752 0.348633,-0.164062 0.164062,-0.0957 0.307617,-0.211914 0.287109,-0.21875 0.458008,-0.499024 0.08203,-0.136718 0.123047,-0.293945 0.04785,-0.157226 0.04785,-0.334961 0,-0.239258 -0.116211,-0.430664 -0.123047,-0.205078 -0.314453,-0.362305 -0.0957,-0.08203 -0.205078,-0.143554 -0.109375,-0.06836 -0.232422,-0.123047 -0.116211,-0.05469 -0.232422,-0.0957 -0.116211,-0.04785 -0.232422,-0.0752 L 48.87793,74.674805 q -0.05469,-0.01367 -0.116211,-0.02734 -0.05469,-0.02051 -0.116211,-0.04102 -0.05469,-0.02051 -0.116211,-0.03418 -0.05469,-0.02051 -0.116211,-0.04102 -0.05469,-0.02051 -0.109375,-0.04102 -0.05469,-0.02734 -0.116211,-0.04785 -0.04785,-0.02051 -0.0957,-0.04102 -0.04785,-0.02734 -0.0957,-0.04785 -0.04785,-0.02734 -0.0957,-0.04785 -0.04102,-0.02734 -0.08887,-0.05469 -0.04102,-0.02734 -0.08887,-0.05469 -0.04102,-0.02734 -0.08203,-0.05469 -0.04102,-0.02734 -0.08203,-0.06152 -0.28711,-0.211914 -0.499024,-0.499023 -0.211914,-0.28711 -0.293945,-0.65625 v -0.0068 -0.0068 0 -0.410156 q 0,-0.594727 0.191406,-1.086915 0.0957,-0.246093 0.225586,-0.458007 0.129883,-0.21875 0.300781,-0.403321 0.177735,-0.18457 0.382813,-0.334961 0.211914,-0.15039 0.458008,-0.266601 0.246093,-0.116211 0.526367,-0.191406 0.08887,-0.02734 0.18457,-0.04785 0.0957,-0.02051 0.191406,-0.03418 0.10254,-0.01367 0.198243,-0.02734 h 0.0068 q 0.02051,0 0.05469,0 0.03418,0 0.08203,0 0.05469,-0.0068 0.109375,-0.0068 0.05469,0 0.109375,0 0.116211,0 0.21875,-0.0068 0.05469,0 0.08887,-0.0068 0.02051,0 0.03418,0 0.01367,0 0.02734,0 0.177734,0 0.512695,0 0.341797,0.0068 0.758789,0.04101 0.416993,0.02734 0.840821,0.08887 0.430664,0.06152 0.786132,0.18457 0.02051,0.0068 0.04102,0.01367 0.02734,0.0068 0.04785,0.01367 0.02051,0.0068 0.04102,0.02051 0.02051,0.0068 0.04102,0.01367 0.08203,0.03418 0.150391,0.0752 0.0752,0.03418 0.136718,0.07519 0.06836,0.04102 0.123047,0.08887 0.123047,0.0957 0.18457,0.225586 0.03418,0.06152 0.04785,0.129883 0.01367,0.06152 0.01367,0.136719 0,0.06836 -0.01367,0.129882 -0.0068,0.06152 -0.02734,0.116211 -0.01367,0.02734 -0.02734,0.05469 -0.0068,0.02734 -0.02734,0.05469 -0.03418,0.05469 -0.06836,0.102539 -0.08203,0.0957 -0.205078,0.143555 -0.04102,0.01367 -0.08203,0.02734 -0.04102,0.0068 -0.08887,0.01367 -0.04102,0.0068 -0.08887,0.0068 h -0.08203 -0.0068 -0.0068 q -0.751954,-0.164063 -1.497071,-0.300782 -0.123047,-0.02051 -0.246094,-0.04102 -0.123046,-0.02051 -0.252929,-0.03418 -0.123047,-0.01367 -0.246094,-0.02734 -0.191406,-0.01367 -0.382812,-0.02051 -0.184571,-0.01367 -0.375977,-0.01367 -0.0752,0 -0.150391,0.0068 -0.06836,0 -0.136718,0.0068 -0.06836,0 -0.136719,0.0068 -0.06836,0.0068 -0.136719,0.01367 -0.136719,0.01367 -0.259766,0.04102 -0.0957,0.02051 -0.18457,0.04785 -0.02051,0.0068 -0.04785,0.01367 -0.02051,0.0068 -0.04102,0.01367 -0.02051,0.0068 -0.04102,0.01367 -0.02051,0.0068 -0.04102,0.01367 -0.02051,0.0068 -0.04102,0.02051 -0.02051,0.0068 -0.04102,0.01367 -0.02051,0.0068 -0.04102,0.02051 -0.02051,0.0068 -0.03418,0.02051 -0.0752,0.04102 -0.15039,0.08203 -0.280274,0.18457 -0.444336,0.485351 -0.08203,0.150391 -0.123047,0.341797 -0.04102,0.191406 -0.04102,0.423828 0,0.177735 0.08887,0.307617 0.0068,0.0068 0.0068,0.02051 0.0068,0.0068 0.01367,0.01367 0.0068,0.0068 0.0068,0.01367 0.01367,0.02051 0.03418,0.04102 0.02051,0.02051 0.04102,0.04102 0.02051,0.02051 0.04102,0.04102 0.02051,0.02051 0.04102,0.04102 0.02051,0.01367 0.04102,0.03418 0.04785,0.03418 0.0957,0.06836 0.05469,0.02734 0.109375,0.05469 0.02734,0.01367 0.05469,0.02734 0.02734,0.01367 0.05469,0.02734 0.177735,0.07519 0.341797,0.109375 l 2.973633,0.751953 q 0.123047,0.02734 0.239258,0.06836 0.123047,0.03418 0.246094,0.08203 0.239257,0.08203 0.478515,0.191407 0.464844,0.21875 0.820313,0.526367 0.123047,0.102539 0.225586,0.225586 0.05469,0.06152 0.102539,0.123047 0.04785,0.06152 0.0957,0.123046 0.08887,0.129883 0.164062,0.273438 0.225586,0.430664 0.225586,0.970703 0,0.191406 -0.02734,0.369141 -0.02051,0.177734 -0.0752,0.341797 -0.04785,0.164062 -0.116211,0.321289 -0.109375,0.232421 -0.259765,0.4375 -0.150391,0.205078 -0.328125,0.389648 -0.08887,0.08887 -0.191407,0.177734 -0.102539,0.08203 -0.205078,0.164063 -0.211914,0.157226 -0.451172,0.287109 -0.492187,0.259766 -1.02539,0.4375 -0.266602,0.08887 -0.540039,0.150391 -0.273438,0.06152 -0.546875,0.109375 -0.266602,0.04102 -0.526367,0.06152 -0.25293,0.02051 -0.492188,0.02051 -0.259766,0 -0.615234,-0.04101 -0.355469,-0.04785 -0.738282,-0.143555 -0.05469,-0.01367 -0.109375,-0.03418 -0.02734,-0.0068 -0.06152,-0.01367 -0.02734,-0.0068 -0.05469,-0.01367 -0.05469,-0.01367 -0.109375,-0.02734 -0.05469,-0.02051 -0.109375,-0.04102 -0.02051,-0.0068 -0.04102,-0.01367 -0.01367,-0.0068 -0.03418,-0.01367 -0.01367,-0.0068 -0.02734,-0.01367 -0.05469,-0.02051 -0.109375,-0.04101 -0.05469,-0.02051 -0.102539,-0.04102 -0.375976,-0.15039 -0.669922,-0.36914 -0.0957,-0.0752 -0.18457,-0.150391 -0.04102,-0.04102 -0.08887,-0.08203 -0.04102,-0.04785 -0.0752,-0.08887 z"
     id="text2"
     style="font-size:14px;font-family:Lavi;-inkscape-font-specification:Lavi"
     aria-label="S" />
  <path
     id="circle3"
     style="fill:none;stroke:#000000;stroke-width:2"
     d="M 218,50 A 48,48 0 0 1 170,98 48,48 0 0 1 122,50 48,48 0 0 1 170,2 48,48 0 0 1 218,50 Z" />
  <path
     d="m 177.33203,51.496094 q 0,3.480468 -1.47656,3.480468 -0.44531,0 -0.59766,-0.117187 -0.23437,-0.199219 -0.25781,-0.199219 -0.0117,-0.01172 -0.0352,-0.03516 -0.0117,-0.02344 -0.0937,-0.105469 -0.082,-0.09375 -0.082,-0.269531 V 53.5 l 0.41016,-3.503906 q 0.0586,-0.679688 0.082,-1.523438 0.0352,-0.855469 0.0586,-1.394531 0.0234,-0.539063 0.0469,-1.242188 0.0352,-0.714843 0.0469,-1.347656 0.0234,-0.644531 0.0352,-1.066406 v -2.449219 l -4.23047,4.816406 Q 171.0625,45.964844 171.03906,46 q -0.42187,0.503906 -1.04297,0.503906 -0.28125,0 -0.43359,-0.07031 -0.14063,-0.08203 -0.15234,-0.08203 -0.0117,-0.01172 -0.0352,-0.01172 -0.0117,-0.01172 -0.0469,-0.03516 -0.0937,-0.05859 -0.1289,-0.117187 -0.0352,-0.07031 -0.0586,-0.105469 -0.0234,-0.03516 -0.082,-0.117187 -0.0469,-0.09375 -0.16406,-0.269532 -0.11719,-0.1875 -0.30469,-0.480468 -0.17578,-0.304688 -0.38672,-0.632813 -0.19921,-0.339844 -0.38671,-0.632812 -0.1875,-0.292969 -0.32813,-0.527344 l -0.21094,-0.339844 q -0.1289,-0.222656 -0.53906,-0.761719 -0.41016,-0.550781 -0.52734,-0.703125 -0.16407,-0.234375 -0.19922,-0.269531 -0.0352,-0.03516 -0.0352,-0.04687 L 165.32031,47.875 v 0.01172 q -0.0117,0.02344 -0.0234,0.07031 -0.0117,0.117188 -0.0352,0.246094 -0.0234,0.128906 -0.082,0.421875 -0.0469,0.292969 -0.11719,0.644531 -0.0586,0.339844 -0.12891,0.667969 -0.0703,0.328125 -0.11718,0.550781 -0.0469,0.222656 -0.0703,0.339844 -0.0469,0.269531 -0.0703,0.339844 -0.0234,0.07031 -0.0352,0.117187 0,0.04687 -0.0234,0.117188 -0.0117,0.07031 -0.0352,0.222656 -0.49219,3.070312 -1.83984,3.070312 h -0.082 l -0.36329,-0.05859 q -0.0234,-0.01172 -0.0469,-0.02344 -0.0117,-0.01172 -0.0352,-0.01172 -0.0234,-0.01172 -0.0469,-0.02344 -0.0117,-0.01172 -0.0352,-0.02344 -0.0234,-0.01172 -0.0469,-0.02344 -0.0117,-0.01172 -0.0352,-0.02344 -0.0117,-0.01172 -0.0352,-0.02344 -0.33984,-0.234375 -0.33984,-0.84375 v -0.28125 q 0.44531,-0.902344 0.77344,-2.507813 0.33984,-1.617187 0.62109,-3.210937 0.29297,-1.605469 0.50391,-4.160156 0.21094,-2.554688 0.21094,-5.027344 v -0.539063 q 0.14062,-0.609375 0.73828,-0.855468 Q 164.66406,37 165.0625,37 q 0.35156,0 0.79687,0.527344 h 0.0117 l 3.53907,4.746093 0.0117,0.01172 0.82032,1.253906 5.44922,-6.234375 q 0.28125,-0.28125 0.44531,-0.351562 0.16406,-0.08203 0.42187,-0.08203 0.26953,0 0.41016,0.04687 0.1875,0.05859 0.21094,0.07031 0.0234,0.01172 0.0469,0.02344 0.0352,0.01172 0.0586,0.03516 0.0234,0.01172 0.0703,0.03516 0.15234,0.07031 0.19922,0.152344 0.0469,0.08203 0.0703,0.117187 0.0352,0.03516 0.0469,0.08203 0.0234,0.04687 0.0469,0.09375 0.0234,0.08203 0.0234,0.210937 v 3.398438 l -0.39844,10.160156 z"
     id="text3"
     style="font-size:24px;font-family:Lavi;-inkscape-font-specification:Lavi"
     aria-label="M" />
</svg>
