<svg xmlns="http://www.w3.org/2000/svg" width="449.272" height="320"><svg width="600" height="350" transform="translate(-75.364 -15)"><g class="venn-area venn-circle" data-venn-sets="0"><path d="M75.364 175a160 160 0 1 0 320 0 160 160 0 1 0-320 0" style="fill:#1f77b4;fill-opacity:.25"/><text x="202" y="175" class="label" dy="4.2" style="font-size:37.3333px;fill:#1f77b4" text-anchor="middle"><tspan x="202" y="176" dy="4.2" style="font-size:37.3333px">врачи</tspan></text></g><g class="venn-area venn-circle" data-venn-sets="1"><path d="M204.636 175a160 160 0 1 0 320 0 160 160 0 1 0-320 0" style="fill:red;fill-opacity:.25"/><text x="393" y="175" class="label" dy="4.2" style="font-size:37.3333px;fill:red" text-anchor="middle"><tspan x="393" y="175" dy="4.2" style="font-size:37.3333px">художники</tspan></text></g><path fill="none" d="M300 321.363a160 160 0 0 1 0-292.726 160 160 0 0 1 0 292.726" class="venn-area venn-intersection" data-venn-sets="0_1" style="fill-opacity:0"/></svg></svg>