<svg xmlns="http://www.w3.org/2000/svg" width="449.272" height="320"><g class="venn-area venn-circle" data-venn-sets="0"><path d="M75.364 175a160 160 0 1 0 320 0 160 160 0 1 0-320 0" style="fill:#1f77b4;fill-opacity:.25" transform="translate(-75.364 -15)"/><path d="M156.673 174.604q.2-1.185.347-2.516.364-3.773.455-6.635h-.2q-.693 0-1.076-.42-.383-.419-.383-1.13 0-.62.401-1.057.402-.438 1.021-.73.529-.255 1.422-.437.948-.2 1.568-.255 1.057-.091 1.476-.11.693-.018 1.149-.018 1.276 0 2.351.31 1.112.31 1.878.948.82.656 1.258 1.623.456.984.456 2.351 0 1.44-.438 2.37-.383.802-.948 1.33.565.256 1.003.566.747.528 1.148 1.258.42.747.42 1.877v2.315q0 .693-.31 1.258-.31.565-.82 1.02-.584.511-1.186.84-.656.346-1.349.583-.802.273-1.349.364-.656.11-1.184.11-1.021 0-2.188-.255-1.167-.256-2.26-.73l-.584-.255q-.109.164-.237.292-.419.474-.856.474-.438 0-.784-.11-.328-.109-.602-.328-.437-.346-.437-.856 0-.201.073-.438.109-.401.218-.838-.237-.237-.437-.493-.073-.346-.11-.4-.072-.147-.072-.384 0-.273.145-.601.128-.292.365-.51.255-.237.51-.329zm3.901-9.753v2.77q0 .967-.018 1.86.93-.237 1.805-.437.857-.183 1.622-.547.73-.346 1.13-.802.438-.51.438-1.24 0-.638-.219-1.02-.219-.383-.601-.584-.383-.2-.875-.255-.675-.073-1.076-.073-.693 0-1.385.146-.383.073-.82.182zm-.146 7.292q-.164 2.26-.492 3.883.31.164.711.346.766.346 1.604.583.802.219 1.532.219.565 0 1.02-.11.584-.145.967-.364.419-.237.71-.656.274-.383.274-.93 0-1.02-.42-1.586-.419-.547-1.148-.911-.875-.42-1.604-.529-.036 0-.838-.164-.803.164-.839.164-.31.055-1.477.055zm16.297-3.737-.054.237-.019.164q-.018.127-.054.601-.037.456-.11 1.094-.054.62-.146 1.349-.072.711-.127 1.349-.055.62-.11 1.094-.054.455-.054.583.565.182.984.274.42.09.784.145.383.037.766.091.4.037.93.128.856.128 1.822.2l.784.037q.565 0 1.13-.055.948-.09 1.841-.346.912-.273 1.641-.766.73-.51 1.24-1.276.528-.765.71-1.84.092-.493.092-.967 0-.292-.037-.565-.09-.73-.4-1.313-.31-.601-.858-.984-.546-.4-1.33-.547-.438-.073-1.276-.127-.839-.073-1.878-.073-1.02 0-2.096.073t-1.987.237q-.894.164-1.513.474-.602.291-.675.729zm-3.664-5.505q.146-.748.693-1.094.42-.255.93-.255.164 0 .328.018.674.127.984.364.31.237.438.584.145.346.182.765.036.42.146.912 2.46-.766 4.976-.802.237 0 .456-.019 2.297 0 4.667.42 1.44.255 2.552 1.039 1.112.765 1.804 1.896.693 1.112.948 2.497.128.693.128 1.385 0 .693-.128 1.422-.328 1.896-1.44 3.373-1.112 1.476-2.68 2.424-1.567.985-3.39 1.35-.911.181-1.786.181h-.165q-.856 0-1.713-.145l-5.214-.711q-.164.893-.255 1.349l-.11.692-.054.365q-.018.146-.055.383-.036.237-.127.692-.073.456-.237 1.35l-.128.692q-.073.51-.182 1.057-.091.566-.182 1.058-.073.51-.11.692-.273.51-.765.748-.474.237-.985.146-.656-.128-1.02-.584-.365-.455-.42-1.093.091-.474.2-1.021.128-.529.238-1.094.127-.547.237-1.094.109-.547.164-1.039l.182-1.841q.11-1.13.219-2.406.127-1.294.237-2.607.127-1.33.218-2.443.092-1.112.146-1.877.055-.784.073-.966l-.036-6.526q0-.037.018-.092v-.072q.018-.037.018-.073zm34.873 2.37q-.383-.128-1.987-.128-8.24 0-8.258 6.307 0 2.26.51 3.318.51 1.039 1.477 1.786.966.748 2.041.748 2.079 0 3.938-1.605 1.878-1.604 2.206-3.554zm0 5.505zm-12.16 7.036q-.856-1.276-1.239-2.935-.383-1.659-.383-3.883 0-2.242.875-4.138 1.696-3.7 6.18-4.885 2.188-.583 4.32-.583h.055q.31.018.583.018 1.641 0 1.914-.055.073-.018.164-.018.31 0 .82.164l.62.182q.511.146 1.021.565.53.401.53.802l.2 9.243q.018 1.039.474 2.552.82 2.789.82 3.7 0 .893-.474 1.44-.474.547-1.258.547-1.404 0-1.878-1.24-.382-.947-.601-1.786-1.659 1.404-2.753 1.987-2.169 1.13-4.229 1.13t-3.482-.765q-1.403-.766-2.278-2.042zm29.222-3.865-.62-.054q-1.823-.11-4.065-.802-1.531-.474-2.607-1.276-1.166-.875-1.932-2.206-.766-1.33-.766-3.336 0-1.841.875-3.3.912-1.22 1.696-1.22.09 0 .42.108.801.274.801.93 0 .401-.237.912-.656 1.44-.674 2.643v.055q0 1.13.638 1.84.601.675 1.659 1.167 1.148.547 3.536.948.747.128 1.531.2.183-3.244.237-7.09.164-.766.456-1.094.31-.346.93-.346h.036q1.222 0 1.495 1.093v5.469q0 11.448-1.969 14.219-.4.565-.82.565-.438 0-.747-.128-.329-.146-.584-.4-.42-.438-.42-1.022 0-.237.074-.528.674-3.081 1.057-7.347zm10.445-11.083q0 1.477-.164 2.935-.164 1.44-.164 2.917-.018.437-.018 1.203v.255q0 .656.037 1.422.036.911.182 1.841.146.911.437 1.677.31.747.784 1.24.492.474 1.24.474.583 0 1.148-.401t1.076-1.04q.51-.638.948-1.403.455-.784.802-1.531.364-.748.62-1.368.273-.638.4-.966.128-.273.329-.838.218-.565.474-1.258.273-.711.565-1.495l.547-1.476q.255-.711.455-1.276.2-.566.292-.839.237-.583.62-.839.383-.255 1.02-.255.766 0 1.204.401.437.401.437 1.167v.456q-.054.237-.182.747-.11.492-.255 1.13-.146.638-.31 1.331-.146.693-.292 1.33-.127.639-.237 1.15-.09.491-.127.728-.037.183-.073.693-.037.51-.091 1.221-.055.693-.146 1.532-.091.838-.219 1.677-.128.838-.292 1.64-.164.784-.4 1.404-.238.602-.53.984-.291.365-.674.365-.182 0-.456-.055-.255-.054-.51-.164-.237-.127-.42-.291-.182-.183-.182-.42v-2.497q-.565.2-.984.547-.42.346-.784.765-.364.42-.71.857-.347.42-.785.784-.419.346-.966.565-.547.219-1.312.219-1.386 0-2.37-.547-.966-.565-1.64-1.477-.657-.93-1.04-2.114-.382-1.185-.583-2.443-.2-1.258-.255-2.479-.055-1.24-.055-2.26 0-.42-.055-1.13-.054-.73-.072-1.568v-.42q0-.638.036-1.294.055-.875.273-1.568.237-.692.675-1.13.437-.456 1.185-.456.638 0 1.094.474.474.456.474 1.167z" aria-label="врачи" class="label" style="font-size:37.3333px;font-family:Lavi;-inkscape-font-specification:Lavi;text-anchor:middle;fill:#1f77b4" transform="translate(-75.364 -15)"/></g><g class="venn-area venn-circle" data-venn-sets="1"><path d="M204.636 175a160 160 0 1 0 320 0 160 160 0 1 0-320 0" style="fill:red;fill-opacity:.25" transform="translate(-75.364 -15)"/><path d="M312.783 172.565q-.657 0-1.185.474-.51.474-.985 1.184-.455.711-.911 1.55-.456.82-.966 1.531-.492.711-1.094 1.185-.583.474-1.349.474-.638 0-1.094-.401-.437-.42-.437-1.112 0-.237.09-.456l.22-.474q.802-.875 1.476-1.567.675-.711 1.294-1.368.62-.674 1.204-1.367.583-.71 1.221-1.604 0-.055.073-.146.073-.09.073-.146v-.072q0-.51-.292-.985-.292-.474-.693-.93-.4-.455-.82-.911-.401-.456-.638-.948-.091-.182-.292-.51-.182-.328-.419-.73-.219-.419-.474-.856-.237-.456-.456-.857-.218-.42-.4-.747-.165-.329-.238-.493 0-.036-.036-.127-.018-.091-.055-.183-.018-.109-.054-.182-.019-.09-.019-.127v-.073q0-.693.456-1.149.456-.455 1.148-.455.402 0 .766.182.365.182.529.583l3.062 5.414q0 .037.11.219l.255.383.291.437q.165.219.256.328l.146.164q.565-.565 1.458-1.403.911-.857 1.914-1.75 1.02-.912 2.06-1.787 1.039-.893 1.896-1.55.237-.109.455-.2.22-.109.456-.109.693 0 1.112.456.42.437.42 1.075 0 .347-.037.565-.037.22-.274.493-.765.656-1.713 1.367-.93.71-1.878 1.494-.948.766-1.84 1.605-.894.838-1.587 1.75-.055.127-.11.2-.036.073-.036.182v.073l5.943 6.216q.292.347.365.62.09.274.09.675 0 .765-.419 1.112-.4.346-1.093.346-.62 0-1.258-.364-.62-.383-1.24-.967-.62-.601-1.221-1.349-.602-.747-1.167-1.476-.565-.73-1.075-1.367-.492-.638-.912-1.04zm17.317 14.601q0-1.385.2-2.716.22-1.312.548-2.607.328-1.276.729-2.57.4-1.276.784-2.607v-.4q-1.64 0-2.826-.602-1.185-.602-2.005-1.605-.82-1.002-1.33-2.315-.511-1.33-.803-2.77-.273-1.44-.364-2.917-.091-1.477-.091-2.79 0-.419.054-.838.073-.437.255-.784.183-.346.51-.565.329-.219.858-.219.492 0 .948.329.473.31.583.802.018.164.055.729l.09 1.367q.074.802.183 1.768.11.966.273 1.969.165.984.383 1.914.237.93.547 1.659.31.71.711 1.148.42.438.93.438.984 0 1.659-.474.692-.492 1.185-1.294.51-.802.856-1.805.365-1.02.675-2.078.31-1.076.638-2.078.328-1.021.747-1.823.438-.802 1.021-1.276.583-.492 1.44-.492.784 0 1.149.528.382.51.382 1.258v.474l-5.323 13.398q-1.093 2.808-1.768 5.706-.656 2.917-.656 5.906-.055.602-.565.857-.492.274-1.04.274-.273 0-.564-.073-.292-.073-.529-.237-.219-.164-.383-.42-.146-.237-.146-.565zm17.537-16.26q.073.93.638 1.622.565.675 1.403 1.149.857.455 1.896.747 1.04.292 2.06.456 1.04.146 1.95.2.912.055 1.532.055v-.456q-.018-.273-.018-1.039.018-.784.054-1.805.037-1.02.073-2.169.037-1.148.073-2.17.037-1.038.037-1.804.018-.784 0-1.057h-.274q-.51-.018-1.458-.055-.31-.018-.638 0-.656 0-1.385.055-1.094.091-2.224.401-1.112.292-1.987.984-.875.693-1.386 1.878-.383.911-.383 2.224 0 .364.037.784zm-3.81 10.646v-.984q.146-.475.638-.785.51-.31.984-.31.748 0 1.149.237.419.256.71.62.292.365.584.784.292.438.802.802.529.383 1.367.602.73.2 1.86.2h.382q.456 0 1.021-.018.565 0 1.149-.11.583-.09 1.13-.31.547-.2.93-.6.382-.402.565-1.058.11-.383.11-.875 0-.346-.056-.73-1.185-.072-2.625-.218-1.44-.164-2.898-.492-1.458-.347-2.844-.912-1.367-.565-2.46-1.44-1.076-.893-1.75-2.114-.675-1.24-.712-2.935v-.474q0-2.315.638-3.92.711-1.768 1.914-2.88 1.222-1.112 2.771-1.677 1.568-.583 3.19-.82 1.64-.237 3.19-.255 1.568-.018 2.753-.018h1.531q.128.072.347.182.218.09.419.237.2.127.346.291.146.165.146.365l-.601 18.612q0 1.148-.383 2.023-.365.894-1.003 1.55-.62.674-1.458 1.112-.839.456-1.768.73-.93.29-1.915.4-.966.128-1.859.128-1.568 0-3.008-.401t-2.588-1.076q-1.13-.674-1.86-1.586-.71-.893-.838-1.877zm23.333-10.336q0 1.294.274 2.224.273.93.893 1.53.62.584 1.622.876 1.003.273 2.443.273 1.294 0 2.315-.583 1.02-.602 1.732-1.531.71-.948 1.094-2.115.382-1.185.382-2.351 0-1.094-.273-2.042-.255-.948-.839-1.64-.565-.712-1.494-1.113-.912-.4-2.224-.4-1.167 0-2.17.455-.984.456-1.75 1.221-.765.766-1.294 1.769-.51.984-.71 2.041zm-3.719-.274q0-1.987.748-3.846.765-1.86 2.078-3.3 1.312-1.44 3.099-2.297 1.786-.875 3.864-.875 2.133 0 3.683.73 1.567.729 2.57 1.968 1.02 1.24 1.513 2.88.492 1.641.492 3.482 0 .894-.218 1.987-.22 1.076-.638 2.188-.42 1.112-1.04 2.17-.62 1.056-1.421 1.877-.784.802-1.769 1.294-.966.492-2.078.492h-3.445q-1.987 0-3.409-.765-1.404-.784-2.297-2.024-.893-1.258-1.312-2.825-.42-1.568-.42-3.136zm30.042-4.32.675-7.11q0-.437.09-.62.128-.254.347-.437.164-.11.51-.291.948-.365 1.495-.365.748 0 .784.674v.42q0 1.458-.219 3.372-.218 3.063-.237 4.065v.675q.584-.401 1.258-.948.693-.547 1.404-1.149.71-.62 1.403-1.257.711-.638 1.35-1.222.637-.601 1.166-1.094.529-.51.893-.856.2-.31.51-.31h.566q.784 0 1.24.364.455.365.455 1.167 0 .365-.036.583-.037.2-.274.493l-.674.583q-.51.456-1.24 1.094-.71.62-1.531 1.349-.82.729-1.568 1.403-.747.675-1.33 1.24-.584.547-.82.838 1.312.693 2.35 1.495 1.04.784 1.878 1.714.857.93 1.568 2.023.71 1.094 1.367 2.406v.657q0 .729-.383 1.184-.382.456-1.166.456-.438 0-.784-.11-.346-.127-.602-.564-.364-.711-.82-1.477-.438-.784-.966-1.513-.529-.747-1.149-1.403-.62-.675-1.349-1.167-.71-.51-1.549-.802-.82-.31-1.75-.31h-.073q-.073.255-.146.893-.054.62-.146 1.404-.09.765-.255 1.604-.146.838-.437 1.531-.292.693-.748 1.149-.437.437-1.112.437-.802 0-1.185-.529-.364-.528-.364-1.276v-.638l.765-4.375q-.802.31-1.494.784-.73.51-1.35 1.185-.62.656-1.148 1.404-.528.729-.984 1.513-.438.765-.802 1.476-.255.438-.602.565-.346.11-.784.11-.783 0-1.166-.456-.383-.456-.383-1.185v-.656q.656-1.313 1.367-2.406.711-1.094 1.55-2.024.856-.93 1.895-1.713 1.04-.802 2.352-1.495-.237-.292-.82-.839-.584-.565-1.331-1.24-.747-.674-1.568-1.403-.82-.729-1.55-1.349-.71-.638-1.239-1.094-.51-.455-.656-.583-.237-.292-.273-.492-.037-.219-.037-.583 0-.802.456-1.167.455-.365 1.24-.365h.564l.51.31q.365.347.894.857.529.492 1.167 1.094.638.583 1.33 1.221.711.638 1.422 1.258.711.602 1.404 1.148.456.383.875.675zm20.563 3.956q-.365 6.125-1.951 7.893-.42.474-.857.474t-.784-.11q-.328-.109-.601-.328-.438-.346-.438-.856 0-.201.073-.438 1.459-5.177 1.623-14.857.164-.62.474-.911.328-.292.966-.292 1.312 0 1.604.912v4.557q0 .966-.018 1.841.383-.128.893-.237l3.245-.11q2.333.256 3.5.475.218-2.844.273-6.235.164-.62.474-.911.328-.292.966-.292 1.313 0 1.604.912v4.557q0 9.552-2.06 11.849-.419.474-.856.474-.438 0-.784-.11-.328-.109-.602-.328-.437-.346-.437-.856 0-.201.073-.438.729-2.589 1.13-6.307-.82.164-2.133.164-1.02 0-1.622-.018l-3.19-.347q-.31-.054-.565-.127zm17.664-8.714q0 1.477-.164 2.935-.165 1.44-.165 2.917-.018.437-.018 1.203v.255q0 .656.037 1.422.036.911.182 1.841.146.911.438 1.677.31.747.783 1.24.493.474 1.24.474.583 0 1.148-.401.566-.401 1.076-1.04.51-.638.948-1.403.456-.784.802-1.531.365-.748.62-1.368.273-.638.4-.966.128-.273.329-.838.219-.565.474-1.258.273-.711.565-1.495.292-.784.547-1.476l.456-1.276q.2-.566.291-.839.237-.583.62-.839.383-.255 1.02-.255.767 0 1.204.401.437.401.437 1.167v.456q-.054.237-.182.747-.11.492-.255 1.13-.146.638-.31 1.331-.146.693-.292 1.33-.127.639-.237 1.15-.09.491-.127.728-.037.183-.073.693-.037.51-.091 1.221-.055.693-.146 1.532-.091.838-.219 1.677-.127.838-.291 1.64-.164.784-.401 1.404-.237.602-.53.984-.29.365-.674.365-.182 0-.455-.055-.256-.054-.51-.164-.238-.127-.42-.291-.182-.183-.182-.42v-2.497q-.565.2-.985.547-.419.346-.784.765-.364.42-.71.857-.347.42-.784.784-.42.346-.966.565-.547.219-1.313.219-1.385 0-2.37-.547-.966-.565-1.64-1.477-.657-.93-1.04-2.114-.382-1.185-.583-2.443-.2-1.258-.255-2.479-.055-1.24-.055-2.26 0-.42-.054-1.13-.055-.73-.073-1.568v-.42q0-.638.036-1.294.055-.875.274-1.568.237-.692.674-1.13.438-.456 1.185-.456.638 0 1.094.474.474.456.474 1.167zm20.106.401q-.218 3.063-.237 4.065v.675q.584-.401 1.258-.948.693-.547 1.404-1.149.71-.62 1.403-1.257.711-.638 1.35-1.222.637-.601 1.166-1.094.529-.51.893-.856.2-.31.51-.31h.566q.784 0 1.24.364.455.365.455 1.167 0 .365-.036.583-.037.2-.274.493l-.674.583q-.51.456-1.24 1.094-.71.62-1.531 1.349-.82.729-1.568 1.403-.747.675-1.33 1.24-.584.547-.82.838 1.312.693 2.35 1.495 1.04.784 1.878 1.714.857.93 1.568 2.023.711 1.094 1.367 2.406v.657q0 .729-.383 1.184-.382.456-1.166.456-.438 0-.784-.11-.346-.127-.602-.564-.364-.711-.82-1.477-.437-.784-.966-1.513-.529-.747-1.149-1.403-.62-.675-1.349-1.167-.71-.51-1.549-.802-.82-.31-1.75-.31h-.073q-.073.255-.146.893-.054.62-.146 1.404-.09.765-.255 1.604-.146.838-.437 1.531-.292.693-.748 1.149-.437.437-1.112.437-.802 0-1.185-.529-.364-.528-.364-1.276v-.638l1.148-6.526q.164-.145.256-1.112l.875-9.296q0-.438.09-.62.128-.255.347-.438.164-.11.51-.291.948-.365 1.495-.365.748 0 .784.674v.42q0 1.458-.219 3.372zm16.315-.4q0 1.476-.164 2.934-.164 1.44-.164 2.917-.018.437-.018 1.203v.255q0 .656.037 1.422.036.911.182 1.841.146.911.437 1.677.31.747.784 1.24.492.474 1.24.474.583 0 1.148-.401t1.076-1.04q.51-.638.948-1.403.455-.784.802-1.531.364-.748.62-1.368.273-.638.4-.966.128-.273.329-.838.219-.565.474-1.258.273-.711.565-1.495.292-.784.547-1.476.255-.711.455-1.276.201-.566.292-.839.237-.583.62-.839.383-.255 1.02-.255.766 0 1.204.401.437.401.437 1.167v.456q-.054.237-.182.747-.11.492-.255 1.13-.146.638-.31 1.331-.146.693-.292 1.33-.127.639-.237 1.15-.09.491-.127.728-.037.183-.073.693-.037.51-.091 1.221-.055.693-.146 1.532-.091.838-.219 1.677-.128.838-.292 1.64-.164.784-.4 1.404-.238.602-.53.984-.291.365-.674.365-.182 0-.456-.055-.255-.054-.51-.164-.237-.127-.42-.291-.182-.183-.182-.42v-2.497q-.565.2-.984.547-.42.346-.784.765-.364.42-.71.857-.347.42-.785.784-.419.346-.966.565-.547.219-1.312.219-1.386 0-2.37-.547-.966-.565-1.64-1.477-.657-.93-1.04-2.114-.382-1.185-.583-2.443-.2-1.258-.255-2.479-.055-1.24-.055-2.26 0-.42-.055-1.13-.054-.73-.072-1.568v-.42q0-.638.036-1.294.055-.875.273-1.568.237-.692.675-1.13.437-.456 1.185-.456.638 0 1.094.474.474.456.474 1.167z" aria-label="художники" class="label" style="font-size:37.3333px;font-family:Lavi;-inkscape-font-specification:Lavi;text-anchor:middle;fill:red" transform="translate(-75.364 -15)"/></g><path fill="none" d="M300 321.363a160 160 0 0 1 0-292.726 160 160 0 0 1 0 292.726" class="venn-area venn-intersection" data-venn-sets="0_1" style="fill-opacity:0"/></svg>