<svg xmlns="http://www.w3.org/2000/svg" width="320" height="320"><g class="venn-area venn-circle" data-venn-sets="0"><path d="M75.364 175a160 160 0 1 0 320 0 160 160 0 1 0-320 0" style="fill:#1f77b4;fill-opacity:.25" transform="translate(-75.364 -15)"/><path d="m148.352 94.194.018-.018v-.018q1.276-2.48 2.097-5.214.838-2.752 1.348-5.596.53-2.862.73-5.76.2-2.79.2-5.47-.055 0-.11.02h-.181q-.2.017-.401.054-.183.018-.365.073l-.401.109q-.2.037-.401.091-.2.055-.401.128-.602.182-1.222.328-.62.146-1.257.146-.383 0-.675-.091-.31-.11-.528-.31-.438-.401-.438-1.203t.529-1.35q.255-.255.601-.455.164-.11.347-.182.182-.092.382-.164.401-.146.839-.256.437-.109.93-.164.145-.018.273-.036.146-.018.274-.037.145-.018.273-.036.146-.018.273-.018.146-.019.292-.019h.146q.073-.018.146-.018l.273-.018h.365q.2-.018.383-.018.364-.018.71-.018h.877q.255 0 .455.018h.383q1.987 0 4.029.437 1.002.219 1.968.547.985.31 1.914.748.948.419 1.823.947.875.51 1.696 1.112.2.146.4.31l.402.328q.383.329.729.675.346.346.656.71l.219.256q.11.128.2.255.11.128.201.255.602.784 1.076 1.66.473.856.802 1.804.346.93.51 1.95.182 1.003.182 2.079 0 .856-.09 1.659-.092.783-.292 1.53-.183.73-.456 1.404-.839 2.024-2.315 3.519-.73.765-1.623 1.403-.875.638-1.895 1.149-2.024 1.039-4.375 1.677-2.37.638-4.922.893-2.097.219-4.211.219h-.748q-.073-.018-.11-.018-.145.054-.254.072-.11.019-.2.019h-.092q-.055.018-.11.018h-.218q-.182 0-.365-.037-.164-.018-.31-.072-.31-.11-.528-.347l-.146-.146-.11-.182q-.054-.091-.09-.2-.11-.292-.11-.657v-.437zm8.039-22.075q0 4.885-1.185 12.286-.765 4.102-2.279 8.185H153q.711.037 1.677.037.985 0 1.933-.092.948-.109 1.586-.2 3.172-.51 5.104-1.604 1.932-1.112 2.99-2.26 2.223-2.389 2.223-5.761 0-3.117-2.187-5.724-.182-.219-.383-.437-.182-.237-.383-.438-1.896-1.896-4.028-2.844-.164-.073-.347-.146-2.37-1.002-4.502-1.002z" aria-label="D" class="label" style="font-size:37.3333px;font-family:Lavi;-inkscape-font-specification:Lavi;text-anchor:middle;fill:#1f77b4"/></g><path d="M18.716 61.51q.547 2.188.638 4.302.2 2.06.2 3.737v.51q-.036 1.66-.036 1.805-.055 1.368-.11 2.644-.018.62-.09 1.513l-.037.474q-.018.218-.037.419 0 .2-.018.383v.984q-.018.055-.018.091v.091q-.182.875-.984 1.258-.456.219-.839.219-.346 0-.674-.164-1.112-.547-1.112-1.55v-.145q-.019-.055.018-.146v-1.841q0-.875.018-2.516 0-.984.037-2.242v-1.294q-.383.072-.985.2-.127.018-1.86.365-3.39.674-4.265.784-.765.109-.82.109-.401.073-.766.146l-.729.146q-.346.072-.674.145-.092.019-.329.073l-.291.073q-.274.073-.529.128-.127.364-.2.528l-.237.547q-.11.292-.22.602-.491 1.258-.838 2.187L2 78.645q-.09.165-.127.238-.2.31-.583.656-.492.437-1.076.437-.364 0-.765-.2-.784-.401-.948-1.02v-.365q.018-.073.018-.165v-.072q-.055-.055 0-.092.036-.036.018-.073-.018-.036 0-.109.037-.11.018-.128-.018-.018.019-.072l.073-.766v-.018l.018-.019q1.312-2.716 1.823-4.539 1.13-4.028 1.476-5.468.383-1.604.529-2.115.091-.364.127-.547.055-.182.073-.219.037-.182.51-1.677.238-.783.274-.893.693-2.807 3.883-6.544 1.112-1.313 2.279-2.024.565-.346 1.148-.51.583-.164 1.167-.164 3.08 0 5.213 4.885 1.003 2.315 1.55 4.448zM6.685 63.424q-.456 1.13-.82 2.352-.092.292-.165.601-.073.31-.164.62l-.146.62q-.054.31-.127.62.218-.018.383-.037l.364-.036q.401-.037.748-.091.346-.055.656-.128.273-.054.492-.09.237-.056.42-.092.2-.037.346-.055.054-.018.09-.018.055-.018.092-.018.055-.018.091-.018.11-.019.182-.019.073 0 .128-.018.11-.018 1.404-.255 1.84-.328 3.044-.638 1.221-.328 1.768-.638l.091-.055q.018-.018.018-.11 0-1.294-.328-2.807-.31-1.53-.948-3.299-.638-1.695-1.33-2.643-.146-.2-.31-.365-.146-.164-.292-.291-.146-.128-.292-.201-.127-.091-.273-.128l-.255-.073q-.748.274-1.531 1.167-.784.893-1.623 2.443-.838 1.531-1.713 3.7z" aria-label="A" class="label" style="font-size:37.3333px;font-family:Lavi;-inkscape-font-specification:Lavi;text-anchor:middle;fill:#1f77b4" transform="translate(33.282 95.431)"/><path d="M151.067-122.744a160 160 0 1 0 320 0 160 160 0 1 0-320 0" class="venn-area venn-circle" data-venn-sets="1" style="fill:red;fill-opacity:.25" transform="translate(-22.825 187.207) scale(.20938)"/><path d="M84.66 205.298h-.056q-.22 0-.766-.657-.182-.218-.182-.948 0-.273.054-.565.055-.291.165-.638.218-.656.492-1.33l.073-.183q.054-.09.09-.182l.074-.182q.054-.091.09-.183l.074-.182q.036-.09.073-.164.054-.091.09-.182.092-.2.165-.365.073-.164.127-.31l.037-.146q.018-.072.036-.127.638-2.042 1.112-4.211.474-2.17.748-4.375.291-2.224.437-4.448.128-2.115.128-4.156-.547.018-1.057.11-.31.054-.62.127-.31.054-.62.127-.62.146-1.221.256-.62.127-1.258.127-.365 0-.675-.11-.31-.109-.546-.327-.237-.219-.347-.51-.127-.292-.127-.657 0-.784.747-1.294.693-.474 1.768-.766 1.076-.292 2.352-.437 1.312-.146 2.552-.2 1.221-.056 2.224-.056h1.476q3.591 0 5.943.456.292.055.565.11.146.036.274.072.127.037.273.073.091.019.164.037.091.018.164.055.091.018.164.054.091.018.164.037.091.018.164.054.073.019.146.055.219.073.438.164.109.037.218.091.11.037.2.073.201.091.384.2.182.092.346.183.346.2.62.437.292.22.529.474.255.237.437.51.182.256.328.548.274.565.401 1.166.128.602.128 1.276 0 .566-.146 1.04-.146.473-.438.856-.291.383-.656.693-.364.31-.82.565-.875.51-1.987.857-1.112.328-2.224.601l-.73.183-.692.182q-.346.091-.674.182-.711.2-1.258.474.875.31 1.804.693 1.149.456 2.243 1.003 1.112.546 2.096 1.22.492.347.93.73.437.383.82.802.255.292.474.602.219.291.401.62l.11.218q.072.11.109.237.054.11.11.219.145.346.254.71.055.183.091.384.037.182.055.383.018.127.018.273.019.128.019.273.018.128.018.256 0 .82-.183 1.53-.164.712-.51 1.295-.693 1.167-1.823 1.95-.565.383-1.203.712-.638.31-1.367.528-1.313.42-3.008.693-1.531.255-3.026.31-1.513.055-2.716.055-.711 0-1.404-.019-1.039 0-1.276-.018-.601-.073-1.403-.11-.967-.054-1.769-.163zm10.208-12.925q-.401-.164-.784-.291-.365-.146-.693-.256-.127-.036-.273-.073-.128-.036-.292-.073-.164-.036-.346-.09-.547-.147-1.04-.256-.054-.018-.109-.018l-.11-.037q-.036-.018-.09-.018-.037-.018-.091-.018l-.073-.037q-.22-.054-.401-.072-.128-.019-.2-.037l-.037.055q-.22 1.294-.493 2.698-.273 1.44-.62 2.898-.327 1.458-.747 2.88-.182.638-.4 1.276-.22.638-.438 1.185l.2.055q.091 0 .347.018h.31q.164 0 .346.018.364 0 .693.019h.51q.529-.019 1.568-.019.51 0 1.075-.018.565-.036 1.185-.073 1.221-.09 2.516-.328.419-.073.82-.164.401-.091.784-.219.091-.036.182-.054.091-.037.182-.055.092-.037.165-.073l.182-.073q.255-.11.492-.219.237-.127.437-.273.073-.037.128-.073.073-.055.128-.11l.146-.109q.09-.073.164-.146.09-.072.164-.164.62-.638.62-1.586 0-.2-.019-.4-.018-.22-.073-.42-.09-.4-.273-.765-.365-.766-.966-1.44-.62-.675-1.422-1.222-.82-.565-1.677-1.039-.42-.237-.839-.42-.419-.2-.838-.364zm-2.37-10.937h-1.221q0 .127-.019.273 0 .146-.018.346-.036.566-.091 1.277-.037.692-.091 1.476-.037.766-.091 1.477-.037.692-.055 1.24-.018.273-.037.473 0 .182-.018.31h.055q.018-.018.055-.018.054-.018.127-.018.073-.019.146-.019.037 0 .073-.018.055-.018.091-.018.292-.055.638-.128.365-.09.766-.2.802-.2 1.768-.492.984-.292 1.969-.62 1.002-.346 1.932-.747.456-.201.857-.383.42-.2.765-.401.329-.2.602-.401.273-.2.492-.401.2-.2.292-.383.11-.2.11-.383 0-.31-.092-.547-.073-.255-.219-.456-.346-.437-.93-.729-.273-.146-.62-.255-.327-.11-.728-.182-.82-.146-1.66-.219-.218-.018-.455-.018-.219-.018-.437-.018-.22-.019-.42-.019h-.711q-.164 0-.328.019-.145 0-.291.018-.146 0-.292.018h-.292q-.346.018-.638.055-.273.018-.492.036-.11.018-.2.037-.092 0-.164.018h-.128z" aria-label="B" class="label" style="font-size:37.3333px;font-family:Lavi;-inkscape-font-specification:Lavi;text-anchor:middle;fill:#1f77b4" transform="translate(65.313 -30.374)"/><path d="M3.017 312.27a160 160 0 1 0 320 0 160 160 0 1 0-320 0" class="venn-area venn-circle" data-venn-sets="1" style="fill:red;fill-opacity:.25" transform="translate(124.016 96.126) scale(.20938)"/><path d="m256.592 135.231.018.182v.073q0 2.334-5.25 4.01-2.862.912-4.448 1.094-2.333.292-3.117.292-6.234 0-9.333-5.25-2.079-3.536-2.079-8.86 0-6.215 3.227-9.916 1.495-1.768 4.102-2.862 2.442-1.02 5.705-1.02h.292l.365.017q.109 0 .473.037.365.018 1.149.073.802.054 1.732.164.93.091 1.86.273 2.898.547 3.827 1.313.091.073.2.164.766.547.766 1.367 0 1.112-1.057 1.495-.292.11-.638.11h-.51l-.019-.019q-4.393-1.568-8.44-1.568-2.46 0-3.828.547-4.065 1.659-5.213 5.45-.565 1.878-.565 3.209v.182q0 3.7.528 5.45.529 1.75.893 2.37.365.62.474.784.11.146.22.31.127.164.254.31l.256.292q2.041 2.17 5.578 2.17h.474q.237-.02.474-.02l.474-.036q.237-.036.474-.054l.473-.073q.237-.037.402-.055.182-.036.291-.055.128-.036.31-.072 2.443-.493 4.849-1.823.237-.146.547-.383 1.002-.748 1.404-.93.4-.182.765-.182 1.33 0 1.64 1.367v.073z" aria-label="C" class="label" style="font-size:37.3333px;font-family:Lavi;-inkscape-font-specification:Lavi;text-anchor:middle;fill:#1f77b4" transform="translate(29.494 34.58)"/><path d="M346.598 2.042a160 160 0 1 0 320 0 160 160 0 1 0-320 0" class="venn-area venn-circle" data-venn-sets="1" style="fill:red;fill-opacity:.25" transform="translate(167.922 161.08) scale(.20938)"/></svg>