<svg xmlns="http://www.w3.org/2000/svg" width="320" height="320"><g class="venn-area venn-circle" data-venn-sets="0"><path d="M75.364 175a160 160 0 1 0 320 0 160 160 0 1 0-320 0" style="fill:#1f77b4;fill-opacity:.25" transform="translate(-75.364 -15)"/><text x="159.253" y="95.236" class="label" style="font-size:37.3333px;fill:#1f77b4" text-anchor="middle"><tspan x="159.253" y="96.236" style="font-style:normal;font-variant:normal;font-weight:400;font-stretch:normal;font-size:37.3333px;font-family:Lavi;-inkscape-font-specification:Lavi">D</tspan></text></g><text x="10.057" y="78.703" class="label" style="font-size:37.3333px;fill:#1f77b4" text-anchor="middle" transform="translate(33.282 95.431)"><tspan x="10.057" y="79.703" style="font-style:normal;font-variant:normal;font-weight:400;font-stretch:normal;font-size:37.3333px;font-family:Lavi;-inkscape-font-specification:Lavi">A</tspan></text><path d="M151.067-122.744a160 160 0 1 0 320 0 160 160 0 1 0-320 0" class="venn-area venn-circle" data-venn-sets="1" style="fill:red;fill-opacity:.25" transform="matrix(.20938 0 0 .20938 -22.825 187.207)"/><text x="93.938" y="204.644" class="label" style="font-size:37.3333px;fill:#1f77b4" text-anchor="middle" transform="translate(65.313 -30.374)"><tspan x="93.938" y="205.644" style="font-style:normal;font-variant:normal;font-weight:400;font-stretch:normal;font-size:37.3333px;font-family:Lavi;-inkscape-font-specification:Lavi">B</tspan></text><path d="M3.017 312.27a160 160 0 1 0 320 0 160 160 0 1 0-320 0" class="venn-area venn-circle" data-venn-sets="1" style="fill:red;fill-opacity:.25" transform="matrix(.20938 0 0 .20938 124.016 96.126)"/><text x="244.597" y="139.481" class="label" style="font-size:37.3333px;fill:#1f77b4" text-anchor="middle" transform="translate(29.494 34.58)"><tspan x="244.597" y="140.481" style="font-style:normal;font-variant:normal;font-weight:400;font-stretch:normal;font-size:37.3333px;font-family:Lavi;-inkscape-font-specification:Lavi">C</tspan></text><path d="M346.598 2.042a160 160 0 1 0 320 0 160 160 0 1 0-320 0" class="venn-area venn-circle" data-venn-sets="1" style="fill:red;fill-opacity:.25" transform="matrix(.20938 0 0 .20938 167.922 161.08)"/></svg>