<?xml version="1.0" encoding="UTF-8" standalone="no"?>
<svg
   viewBox="0 0 357.56055 320"
   width="357.56055"
   height="320"
   version="1.1"
   id="svg4"
   sodipodi:docname="chart.svg"
   inkscape:version="1.3.2 (091e20ef0f, 2023-11-25)"
   xmlns:inkscape="http://www.inkscape.org/namespaces/inkscape"
   xmlns:sodipodi="http://sodipodi.sourceforge.net/DTD/sodipodi-0.dtd"
   xmlns="http://www.w3.org/2000/svg"
   xmlns:svg="http://www.w3.org/2000/svg">
  <defs
     id="defs4" />
  <sodipodi:namedview
     id="namedview4"
     pagecolor="#ffffff"
     bordercolor="#000000"
     borderopacity="0.25"
     inkscape:showpageshadow="2"
     inkscape:pageopacity="0.0"
     inkscape:pagecheckerboard="0"
     inkscape:deskcolor="#d1d1d1"
     inkscape:zoom="1.2033333"
     inkscape:cx="137.95014"
     inkscape:cy="170.36011"
     inkscape:window-width="1920"
     inkscape:window-height="1003"
     inkscape:window-x="0"
     inkscape:window-y="0"
     inkscape:window-maximized="1"
     inkscape:current-layer="svg4" />
  <g
     class="venn-area venn-circle"
     data-venn-sets="0"
     id="g1"
     transform="translate(-140,-15)">
    <path
       d="m 300,175 m -160,0 a 160,160 0 1 0 320,0 160,160 0 1 0 -320,0"
       style="fill:#1f77b4;fill-opacity:0.25"
       id="path1" />
    <text
       class="label"
       text-anchor="middle"
       dy="0.34999999em"
       x="249"
       y="175"
       style="fill:#1f77b4"
       id="text1"><tspan
         x="249"
         y="175"
         dy="0.34999999em"
         id="tspan1">P - химические элементы</tspan></text>
  </g>
  <g
     class="venn-area venn-circle"
     data-venn-sets="1"
     id="g2"
     transform="translate(-140,-15)">
    <path
       d="m 409.40356,175 m -50.59645,0 A 50.596445,50.596445 0 1 0 460,175 50.596445,50.596445 0 1 0 358.80711,175"
       style="fill:#ff0000;fill-opacity:0.25"
       id="path2" />
    <text
       class="label"
       text-anchor="middle"
       dy="0.34999999em"
       x="459"
       y="175"
       style="fill:#ff0000"
       id="text2"><tspan
         x="459"
         y="175"
         dy="0.34999999em"
         id="tspan2">S - галогены</tspan></text>
  </g>
  <g
     class="venn-area venn-intersection"
     data-venn-sets="0_1"
     id="g3">
    <path
       d="m 460,175.00021 a 50.596443,50.596443 0 1 1 0,-4.2e-4 160,160 0 0 1 0,4.2e-4"
       style="fill-opacity:0"
       id="path3" />
    <text
       class="label"
       text-anchor="middle"
       dy="0.34999999em"
       x="409"
       y="175"
       style="fill:#444444"
       id="text3"><tspan
         x="409"
         y="175"
         dy="0.34999999em"
         id="tspan3" /></text>
  </g>
</svg>
