<?xml version="1.0" encoding="UTF-8" standalone="no"?>
<svg
   width="320"
   height="320"
   version="1.1"
   id="svg2"
   sodipodi:docname="8.svg"
   inkscape:version="1.3.2 (091e20ef0f, 2023-11-25)"
   xmlns:inkscape="http://www.inkscape.org/namespaces/inkscape"
   xmlns:sodipodi="http://sodipodi.sourceforge.net/DTD/sodipodi-0.dtd"
   xmlns="http://www.w3.org/2000/svg"
   xmlns:svg="http://www.w3.org/2000/svg">
  <defs
     id="defs2" />
  <sodipodi:namedview
     id="namedview2"
     pagecolor="#ffffff"
     bordercolor="#000000"
     borderopacity="0.25"
     inkscape:showpageshadow="2"
     inkscape:pageopacity="0.0"
     inkscape:pagecheckerboard="0"
     inkscape:deskcolor="#d1d1d1"
     inkscape:zoom="1.128125"
     inkscape:cx="255.29086"
     inkscape:cy="252.63158"
     inkscape:window-width="1920"
     inkscape:window-height="1003"
     inkscape:window-x="0"
     inkscape:window-y="0"
     inkscape:window-maximized="1"
     inkscape:current-layer="text3" />
  <svg
     version="1.1"
     id="svg1"
     width="100%"
     height="100%">
    <g
       class="venn-area venn-circle"
       data-venn-sets="0"
       id="g1">
      <path
         d="m 0,160 a 160,160 0 1 0 320,0 160,160 0 1 0 -320,0"
         style="fill:#1f77b4;fill-opacity:0.25"
         id="path1" />
      <g
         id="text3"
         style="font-size:18.6667px;font-family:Lavi;-inkscape-font-specification:Lavi;text-align:center;text-anchor:middle;fill:#008eff;stroke-width:15"
         aria-label="S&#10;&#10;окружность&#10;геометрические места&#10;точек,&#10;равноудалённых&#10;&#10;P">
        <path
           style="font-size:37.3333px"
           d="m 149.72332,77.467334 q -0.20052,-0.236979 -0.36459,-0.473958 -0.51041,-0.783854 -0.51041,-1.768228 0,-0.710937 0.4375,-1.221353 0.45573,-0.510416 1.23958,-0.510416 0.4375,0 0.89323,0.273437 0.41927,0.255208 0.92968,0.656249 0.49219,0.382812 1.07552,0.820312 0.58334,0.4375 1.27604,0.802083 0.71094,0.364583 1.56771,0.601562 0.83854,0.255208 1.85937,0.255208 0.25521,0 0.52865,-0.01823 0.29167,-0.01823 0.58333,-0.03646 0.3099,-0.03646 0.63802,-0.07292 0.98438,-0.127604 2.02344,-0.382812 1.05729,-0.273438 2.04166,-0.674479 0.49219,-0.200521 0.92969,-0.4375 0.4375,-0.255208 0.82031,-0.565103 0.76563,-0.583333 1.22136,-1.330728 0.21875,-0.364583 0.32812,-0.783854 0.1276,-0.41927 0.1276,-0.893228 0,-0.638021 -0.30989,-1.148437 -0.32813,-0.546874 -0.83854,-0.966145 -0.25521,-0.21875 -0.54688,-0.382812 -0.29166,-0.182291 -0.61979,-0.328125 -0.30989,-0.145833 -0.61979,-0.255208 -0.30989,-0.127604 -0.61979,-0.20052 l -8.25781,-2.096353 q -0.14583,-0.03646 -0.30989,-0.07292 -0.14583,-0.05469 -0.3099,-0.109375 -0.14583,-0.05469 -0.30989,-0.09115 -0.14584,-0.05469 -0.3099,-0.109375 -0.14583,-0.05469 -0.29166,-0.109375 -0.14584,-0.07292 -0.3099,-0.127604 -0.1276,-0.05469 -0.25521,-0.109375 -0.1276,-0.07292 -0.25521,-0.127604 -0.1276,-0.07292 -0.2552,-0.127604 -0.10938,-0.07292 -0.23698,-0.145833 -0.10938,-0.07292 -0.23698,-0.145833 -0.10938,-0.07292 -0.21875,-0.145834 -0.10938,-0.07292 -0.21875,-0.164062 -0.76563,-0.565104 -1.33073,-1.330728 -0.5651,-0.765624 -0.78385,-1.749999 v -0.01823 -0.01823 0 -1.093749 q 0,-1.585936 0.51041,-2.898435 0.25521,-0.656249 0.60156,-1.221353 0.34636,-0.583333 0.80209,-1.07552 0.47396,-0.492187 1.02083,-0.893228 0.5651,-0.401042 1.22135,-0.710937 0.65625,-0.309896 1.40365,-0.510416 0.23698,-0.07292 0.49218,-0.127605 0.25521,-0.05469 0.51042,-0.09114 0.27344,-0.03646 0.52865,-0.07292 h 0.0182 q 0.0547,0 0.14583,0 0.0911,0 0.21875,0 0.14583,-0.01823 0.29166,-0.01823 0.14584,0 0.29167,0 0.3099,0 0.58333,-0.01823 0.14584,0 0.23698,-0.01823 0.0547,0 0.0911,0 0.0365,0 0.0729,0 0.47395,0 1.36718,0 0.91146,0.01823 2.02344,0.109375 1.11198,0.07292 2.24218,0.236979 1.14844,0.164062 2.09636,0.492187 0.0547,0.01823 0.10937,0.03646 0.0729,0.01823 0.1276,0.03646 0.0547,0.01823 0.10938,0.05469 0.0547,0.01823 0.10937,0.03646 0.21875,0.09115 0.40105,0.200521 0.20052,0.09115 0.36458,0.20052 0.18229,0.109375 0.32812,0.236979 0.32813,0.255208 0.49219,0.601562 0.0911,0.164063 0.1276,0.346354 0.0365,0.164062 0.0365,0.364583 0,0.182292 -0.0365,0.346354 -0.0182,0.164062 -0.0729,0.309896 -0.0365,0.07292 -0.0729,0.145833 -0.0182,0.07292 -0.0729,0.145833 -0.0911,0.145833 -0.18229,0.273437 -0.21875,0.255208 -0.54687,0.382812 -0.10938,0.03646 -0.21875,0.07292 -0.10938,0.01823 -0.23698,0.03646 -0.10937,0.01823 -0.23698,0.01823 h -0.21875 -0.0182 -0.0182 q -2.0052,-0.437499 -3.99218,-0.802082 -0.32813,-0.05469 -0.65625,-0.109375 -0.32813,-0.05469 -0.67448,-0.09115 -0.32812,-0.03646 -0.65625,-0.07292 -0.51041,-0.03646 -1.02083,-0.05469 -0.49219,-0.03646 -1.0026,-0.03646 -0.20053,0 -0.40105,0.01823 -0.18229,0 -0.36458,0.01823 -0.18229,0 -0.36458,0.01823 -0.18229,0.01823 -0.36458,0.03646 -0.36459,0.03646 -0.69271,0.109374 -0.25521,0.05469 -0.49219,0.127605 -0.0547,0.01823 -0.1276,0.03646 -0.0547,0.01823 -0.10938,0.03646 -0.0547,0.01823 -0.10937,0.03646 -0.0547,0.01823 -0.10938,0.03646 -0.0547,0.01823 -0.10937,0.05469 -0.0547,0.01823 -0.10938,0.03646 -0.0547,0.01823 -0.10937,0.05469 -0.0547,0.01823 -0.0911,0.05469 -0.20052,0.109375 -0.40104,0.21875 -0.7474,0.492187 -1.1849,1.29427 -0.21874,0.401041 -0.32812,0.911458 -0.10937,0.510416 -0.10937,1.130207 0,0.473958 0.23697,0.820312 0.0182,0.01823 0.0182,0.05469 0.0182,0.01823 0.0365,0.03646 0.0182,0.01823 0.0182,0.03646 0.0365,0.05469 0.0911,0.109375 0.0547,0.05469 0.10937,0.109375 0.0547,0.05469 0.10938,0.109374 0.0547,0.05469 0.10937,0.109375 0.0547,0.03646 0.10938,0.09115 0.1276,0.09115 0.2552,0.182292 0.14584,0.07292 0.29167,0.145833 0.0729,0.03646 0.14583,0.07292 0.0729,0.03646 0.14584,0.07292 0.47396,0.200521 0.91145,0.291666 l 7.92969,2.005207 q 0.32812,0.07292 0.63802,0.182292 0.32812,0.09114 0.65625,0.218749 0.63802,0.21875 1.27604,0.510417 1.23958,0.583332 2.18749,1.403644 0.32813,0.273438 0.60157,0.601562 0.14583,0.164063 0.27343,0.328125 0.12761,0.164062 0.25521,0.328125 0.23698,0.346354 0.4375,0.729166 0.60156,1.148436 0.60156,2.588539 0,0.510416 -0.0729,0.984374 -0.0547,0.473958 -0.20052,0.911458 -0.12761,0.4375 -0.3099,0.85677 -0.29167,0.619791 -0.69271,1.166666 -0.40104,0.546874 -0.875,1.039061 -0.23698,0.236979 -0.51041,0.473958 -0.27344,0.21875 -0.54688,0.4375 -0.5651,0.41927 -1.20312,0.765624 -1.3125,0.692708 -2.73437,1.166666 -0.71094,0.236979 -1.44011,0.401041 -0.72916,0.164063 -1.45833,0.291667 -0.71094,0.109375 -1.40364,0.164062 -0.67448,0.05469 -1.3125,0.05469 -0.69271,0 -1.64063,-0.109374 -0.94791,-0.127604 -1.96874,-0.382813 -0.14584,-0.03646 -0.29167,-0.09114 -0.0729,-0.01823 -0.16406,-0.03646 -0.0729,-0.01823 -0.14584,-0.03646 -0.14583,-0.03646 -0.29166,-0.07292 -0.14584,-0.05469 -0.29167,-0.109374 -0.0547,-0.01823 -0.10937,-0.03646 -0.0365,-0.01823 -0.0911,-0.03646 -0.0365,-0.01823 -0.0729,-0.03646 -0.14583,-0.05469 -0.29166,-0.109375 -0.14584,-0.05469 -0.27344,-0.109375 -1.0026,-0.401042 -1.78646,-0.984374 -0.25521,-0.200521 -0.49218,-0.401042 -0.10938,-0.109375 -0.23698,-0.218749 -0.10938,-0.127605 -0.20052,-0.236979 z"
           id="path2" />
        <path
           d="m 112.21671,129.66401 q 0,0.64714 0.13672,1.11198 0.13672,0.46485 0.44662,0.76563 0.30989,0.29167 0.81119,0.4375 0.50131,0.13672 1.22136,0.13672 0.64714,0 1.15756,-0.29167 0.51041,-0.30078 0.86588,-0.76562 0.35547,-0.47396 0.54688,-1.0573 0.1914,-0.59245 0.1914,-1.17578 0,-0.54688 -0.13671,-1.02083 -0.12761,-0.47396 -0.41928,-0.82032 -0.28255,-0.35547 -0.74739,-0.55599 -0.45573,-0.20052 -1.11198,-0.20052 -0.58334,0 -1.08464,0.22786 -0.49219,0.22787 -0.875,0.61068 -0.38282,0.38282 -0.64714,0.88412 -0.25521,0.49219 -0.35547,1.02083 z m -1.85938,-0.13672 q 0,-0.99349 0.3737,-1.92318 0.38281,-0.92969 1.03907,-1.64974 0.65625,-0.72005 1.54948,-1.14844 0.89323,-0.4375 1.93229,-0.4375 1.06641,0 1.84115,0.36459 0.78386,0.36458 1.28516,0.98437 0.51042,0.61979 0.75651,1.44011 0.2461,0.82031 0.2461,1.74089 0,0.44661 -0.10938,0.99349 -0.10937,0.53776 -0.31901,1.09375 -0.20964,0.55599 -0.51953,1.08464 -0.3099,0.52864 -0.71094,0.9388 -0.39193,0.40104 -0.88412,0.64714 -0.48307,0.24609 -1.03906,0.24609 h -1.72266 q -0.99349,0 -1.70443,-0.38281 -0.70183,-0.39193 -1.14844,-1.01172 -0.44662,-0.62891 -0.65625,-1.41276 -0.20964,-0.78386 -0.20964,-1.56772 z m 12.30471,-4.33854 q -0.10937,1.53125 -0.11849,2.03255 v 0.33724 q 0.29167,-0.20052 0.62891,-0.47396 0.34635,-0.27344 0.70182,-0.57422 0.35547,-0.30989 0.70183,-0.62891 0.35547,-0.31901 0.67448,-0.61067 0.31901,-0.30079 0.58333,-0.54688 0.26433,-0.25521 0.44662,-0.42839 0.10026,-0.15494 0.25521,-0.15494 h 0.28255 q 0.39193,0 0.61979,0.18229 0.22787,0.18229 0.22787,0.58333 0,0.18229 -0.0182,0.29167 -0.0182,0.10026 -0.13672,0.24609 -0.0729,0.0638 -0.33724,0.29167 -0.25521,0.22787 -0.61979,0.54688 -0.35547,0.30989 -0.76563,0.67448 -0.41016,0.36458 -0.78386,0.70182 -0.37369,0.33724 -0.66536,0.61979 -0.29167,0.27344 -0.41016,0.41928 0.65625,0.34635 1.17579,0.74739 0.51953,0.39193 0.9388,0.85678 0.42839,0.46484 0.78385,1.01172 0.35547,0.54687 0.6836,1.20312 v 0.32813 q 0,0.36458 -0.19141,0.59245 -0.1914,0.22786 -0.58333,0.22786 -0.21875,0 -0.39193,-0.0547 -0.17318,-0.0638 -0.30078,-0.28256 -0.18229,-0.35547 -0.41016,-0.73828 -0.21875,-0.39193 -0.48307,-0.75651 -0.26433,-0.3737 -0.57422,-0.70183 -0.3099,-0.33724 -0.67448,-0.58333 -0.35547,-0.25521 -0.77474,-0.40104 -0.41016,-0.15495 -0.875,-0.15495 h -0.0365 q -0.0365,0.1276 -0.0729,0.44661 -0.0273,0.3099 -0.0729,0.70183 -0.0456,0.38281 -0.1276,0.80208 -0.0729,0.41928 -0.21875,0.76563 -0.14583,0.34635 -0.3737,0.57422 -0.21875,0.21875 -0.55599,0.21875 -0.40104,0 -0.59245,-0.26432 -0.18229,-0.26433 -0.18229,-0.63803 v -0.31901 l 0.57422,-3.26302 q 0.082,-0.0729 0.1276,-0.55599 l 0.4375,-4.64845 q 0,-0.21875 0.0456,-0.3099 0.0638,-0.1276 0.17317,-0.21875 0.082,-0.0547 0.25521,-0.14583 0.47396,-0.18229 0.7474,-0.18229 0.3737,0 0.39193,0.33724 v 0.20963 q 0,0.72917 -0.10938,1.68621 z m 8.5495,2.57031 -0.0274,0.11849 -0.009,0.082 q -0.009,0.0638 -0.0273,0.30079 -0.0182,0.22786 -0.0547,0.54687 -0.0274,0.3099 -0.0729,0.67448 -0.0365,0.35547 -0.0638,0.67448 -0.0273,0.3099 -0.0547,0.54688 -0.0273,0.22786 -0.0273,0.29167 0.28255,0.0911 0.49219,0.13671 0.20963,0.0456 0.39192,0.0729 0.19141,0.0182 0.38282,0.0456 0.20052,0.0182 0.46484,0.0638 0.42839,0.0638 0.91146,0.10026 0.20052,0.009 0.39193,0.0182 0.28255,0 0.56511,-0.0274 0.47395,-0.0456 0.92057,-0.17318 0.45573,-0.13671 0.82031,-0.38281 0.36459,-0.25521 0.6198,-0.63802 0.26432,-0.38281 0.35547,-0.92057 0.0456,-0.2461 0.0456,-0.48308 0,-0.14583 -0.0182,-0.28255 -0.0456,-0.36459 -0.20052,-0.65625 -0.15495,-0.30078 -0.42839,-0.49219 -0.27344,-0.20052 -0.66536,-0.27344 -0.21875,-0.0365 -0.63803,-0.0638 -0.41927,-0.0365 -0.9388,-0.0365 -0.51042,0 -1.04818,0.0365 -0.53776,0.0365 -0.99349,0.11849 -0.44662,0.082 -0.75651,0.23698 -0.30078,0.14583 -0.33724,0.36458 z m -1.83204,-2.75261 q 0.0729,-0.3737 0.34636,-0.54687 0.20963,-0.12761 0.46484,-0.12761 0.082,0 0.16407,0.009 0.33724,0.0638 0.49218,0.18229 0.15495,0.11849 0.21875,0.29167 0.0729,0.17317 0.0911,0.38281 0.0182,0.20964 0.0729,0.45573 1.23047,-0.38281 2.48828,-0.40104 0.11849,0 0.22787,-0.009 1.14844,0 2.33334,0.20964 0.72005,0.1276 1.27604,0.51953 0.55599,0.38281 0.90235,0.94792 0.34635,0.55599 0.47395,1.2487 0.0638,0.34635 0.0638,0.69271 0,0.34635 -0.0638,0.71094 -0.16406,0.94792 -0.72005,1.6862 -0.55599,0.73828 -1.33985,1.21224 -0.78385,0.49219 -1.69531,0.67448 -0.45573,0.0911 -0.89323,0.0911 h -0.082 q -0.42839,0 -0.85678,-0.0729 l -2.60677,-0.35547 q -0.082,0.44662 -0.12761,0.67448 -0.0365,0.22787 -0.0547,0.34636 -0.0182,0.11849 -0.0274,0.18229 -0.009,0.0729 -0.0273,0.1914 -0.0182,0.11849 -0.0638,0.34636 -0.0365,0.22786 -0.11849,0.67448 -0.0182,0.10026 -0.0638,0.34635 -0.0365,0.25521 -0.0911,0.52865 -0.0456,0.28255 -0.0911,0.52865 -0.0365,0.25521 -0.0547,0.34635 -0.13672,0.25521 -0.38282,0.3737 -0.23698,0.11849 -0.49219,0.0729 -0.32812,-0.0638 -0.51041,-0.29167 -0.1823,-0.22786 -0.20964,-0.54688 0.0456,-0.23697 0.10026,-0.51041 0.0638,-0.26433 0.11849,-0.54688 0.0638,-0.27344 0.11849,-0.54687 0.0547,-0.27344 0.082,-0.51954 0.0365,-0.36458 0.0911,-0.92057 0.0547,-0.56511 0.10937,-1.20313 0.0638,-0.64714 0.11849,-1.30339 0.0638,-0.66536 0.10938,-1.22135 0.0456,-0.55599 0.0729,-0.93881 0.0273,-0.39192 0.0365,-0.48307 l -0.0182,-3.26303 q 0,-0.0182 0.009,-0.0456 0,-0.0182 0,-0.0365 0.009,-0.0182 0.009,-0.0365 z m 13.27997,12.63284 q 0,-0.69271 0.10027,-1.35808 0.10937,-0.65625 0.27343,-1.30338 0.16407,-0.63803 0.36459,-1.28516 0.20052,-0.63803 0.39193,-1.30339 v -0.20052 q -0.82032,0 -1.41277,-0.30078 -0.59245,-0.30079 -1.0026,-0.80209 -0.41016,-0.5013 -0.66537,-1.15755 -0.25521,-0.66537 -0.40104,-1.38542 -0.13672,-0.72006 -0.18229,-1.45834 -0.0456,-0.73828 -0.0456,-1.39453 0,-0.20964 0.0274,-0.41927 0.0365,-0.21875 0.1276,-0.39193 0.0911,-0.17318 0.25521,-0.28255 0.16406,-0.10938 0.42839,-0.10938 0.24609,0 0.47396,0.16406 0.23697,0.15495 0.29166,0.40105 0.009,0.082 0.0273,0.36458 0.0182,0.27344 0.0456,0.6836 0.0365,0.40104 0.0911,0.88411 0.0547,0.48308 0.13671,0.98438 0.082,0.49219 0.19141,0.95703 0.11849,0.46485 0.27344,0.82943 0.15495,0.35547 0.35547,0.57422 0.20963,0.21875 0.46484,0.21875 0.49219,0 0.82943,-0.23698 0.34636,-0.24609 0.59245,-0.64714 0.25521,-0.40104 0.42839,-0.90234 0.18229,-0.51042 0.33724,-1.03907 0.15495,-0.53776 0.31901,-1.03906 0.16406,-0.51042 0.3737,-0.91146 0.21875,-0.40104 0.51041,-0.63802 0.29167,-0.2461 0.72006,-0.2461 0.39193,0 0.57422,0.26433 0.1914,0.25521 0.1914,0.6289 v 0.23698 l -2.66146,6.69923 q -0.54688,1.40365 -0.88412,2.85287 -0.32812,1.45834 -0.32812,2.95313 -0.0273,0.30079 -0.28255,0.42839 -0.2461,0.13672 -0.51954,0.13672 -0.13671,0 -0.28255,-0.0365 -0.14583,-0.0365 -0.26432,-0.11849 -0.10938,-0.082 -0.19141,-0.20963 -0.0729,-0.11849 -0.0729,-0.28256 z m 11.78518,-10.27216 0.33724,-3.55469 q 0,-0.21875 0.0456,-0.3099 0.0638,-0.1276 0.17317,-0.21875 0.082,-0.0547 0.25521,-0.14583 0.47396,-0.18229 0.7474,-0.18229 0.3737,0 0.39193,0.33724 v 0.20963 q 0,0.72917 -0.10938,1.68621 -0.10937,1.53125 -0.11849,2.03255 v 0.33724 q 0.29167,-0.20052 0.62891,-0.47396 0.34635,-0.27344 0.70182,-0.57422 0.35547,-0.30989 0.70183,-0.62891 0.35547,-0.31901 0.67448,-0.61067 0.31901,-0.30079 0.58333,-0.54688 0.26433,-0.25521 0.44662,-0.42839 0.10026,-0.15494 0.25521,-0.15494 h 0.28255 q 0.39193,0 0.61979,0.18229 0.22787,0.18229 0.22787,0.58333 0,0.18229 -0.0182,0.29167 -0.0182,0.10026 -0.13672,0.24609 -0.0729,0.0638 -0.33724,0.29167 -0.25521,0.22787 -0.61979,0.54688 -0.35547,0.30989 -0.76563,0.67448 -0.41016,0.36458 -0.78386,0.70182 -0.37369,0.33724 -0.66536,0.61979 -0.29167,0.27344 -0.41016,0.41928 0.65625,0.34635 1.17578,0.74739 0.51954,0.39193 0.93881,0.85678 0.42838,0.46484 0.78385,1.01172 0.35547,0.54687 0.6836,1.20312 v 0.32813 q 0,0.36458 -0.19141,0.59245 -0.1914,0.22786 -0.58333,0.22786 -0.21875,0 -0.39193,-0.0547 -0.17318,-0.0638 -0.30078,-0.28256 -0.18229,-0.35547 -0.41016,-0.73828 -0.21875,-0.39193 -0.48307,-0.75651 -0.26433,-0.3737 -0.57422,-0.70183 -0.3099,-0.33724 -0.67448,-0.58333 -0.35547,-0.25521 -0.77474,-0.40104 -0.41016,-0.15495 -0.875,-0.15495 h -0.0365 q -0.0365,0.1276 -0.0729,0.44661 -0.0273,0.3099 -0.0729,0.70183 -0.0456,0.38281 -0.1276,0.80208 -0.0729,0.41928 -0.21875,0.76563 -0.14584,0.34635 -0.3737,0.57422 -0.21875,0.21875 -0.55599,0.21875 -0.40104,0 -0.59245,-0.26432 -0.18229,-0.26433 -0.18229,-0.63803 v -0.31901 l 0.38281,-2.1875 q -0.40104,0.15495 -0.7474,0.39193 -0.36458,0.25521 -0.67448,0.59245 -0.30989,0.32812 -0.57422,0.70182 -0.26432,0.36458 -0.49218,0.75651 -0.21875,0.38282 -0.40105,0.73829 -0.1276,0.21875 -0.30078,0.28255 -0.17318,0.0547 -0.39193,0.0547 -0.39192,0 -0.58333,-0.22787 -0.19141,-0.22786 -0.19141,-0.59245 v -0.32812 q 0.32813,-0.65626 0.6836,-1.20313 0.35547,-0.54688 0.77474,-1.01172 0.42838,-0.46485 0.94792,-0.85677 0.51953,-0.40105 1.17578,-0.7474 -0.11849,-0.14584 -0.41016,-0.41927 -0.29166,-0.28256 -0.66536,-0.6198 -0.3737,-0.33724 -0.78386,-0.70182 -0.41015,-0.36458 -0.77474,-0.67448 -0.35547,-0.31901 -0.61979,-0.54688 -0.25521,-0.22786 -0.32813,-0.29166 -0.11849,-0.14584 -0.13672,-0.2461 -0.0182,-0.10937 -0.0182,-0.29167 0,-0.40104 0.22787,-0.58333 0.22786,-0.18229 0.61979,-0.18229 h 0.28255 l 0.25521,0.15495 q 0.1823,0.17317 0.44662,0.42838 0.26432,0.2461 0.58333,0.54688 0.31901,0.29167 0.66537,0.61068 0.35547,0.31901 0.71094,0.6289 0.35547,0.30079 0.70182,0.57422 0.22787,0.19141 0.4375,0.33724 z m 10.28127,1.97787 q -0.18229,3.06251 -0.97526,3.94662 -0.20964,0.23698 -0.42839,0.23698 -0.21875,0 -0.39193,-0.0547 -0.16406,-0.0547 -0.30078,-0.16407 -0.21875,-0.17317 -0.21875,-0.42838 0,-0.10026 0.0365,-0.21875 0.72917,-2.58855 0.8112,-7.4284 0.082,-0.3099 0.23698,-0.45573 0.16406,-0.14584 0.48307,-0.14584 0.65625,0 0.80209,0.45573 v 2.27865 q 0,0.48308 -0.009,0.92058 0.19141,-0.0638 0.44662,-0.11849 l 1.6224,-0.0547 q 1.16667,0.12761 1.75,0.23698 0.10938,-1.42188 0.13672,-3.11719 0.082,-0.3099 0.23698,-0.45573 0.16406,-0.14584 0.48307,-0.14584 0.65625,0 0.80209,0.45573 v 2.27865 q 0,4.77605 -1.02995,5.92449 -0.20964,0.23698 -0.42839,0.23698 -0.21875,0 -0.39193,-0.0547 -0.16406,-0.0547 -0.30078,-0.16407 -0.21875,-0.17317 -0.21875,-0.42838 0,-0.10026 0.0365,-0.21875 0.36458,-1.29428 0.5651,-3.15365 -0.41015,0.082 -1.0664,0.082 -0.51042,0 -0.8112,-0.009 l -1.59506,-0.17318 q -0.15495,-0.0273 -0.28255,-0.0638 z m 8.44012,0.31901 q 0,0.64714 0.13672,1.11198 0.13672,0.46485 0.44661,0.76563 0.3099,0.29167 0.8112,0.4375 0.50131,0.13672 1.22136,0.13672 0.64714,0 1.15755,-0.29167 0.51042,-0.30078 0.86589,-0.76562 0.35547,-0.47396 0.54688,-1.0573 0.1914,-0.59245 0.1914,-1.17578 0,-0.54688 -0.13671,-1.02083 -0.12761,-0.47396 -0.41928,-0.82032 -0.28255,-0.35547 -0.74739,-0.55599 -0.45573,-0.20052 -1.11198,-0.20052 -0.58334,0 -1.08464,0.22786 -0.49219,0.22787 -0.875,0.61068 -0.38282,0.38282 -0.64714,0.88412 -0.25521,0.49219 -0.35547,1.02083 z m -1.85938,-0.13672 q 0,-0.99349 0.3737,-1.92318 0.38281,-0.92969 1.03906,-1.64974 0.65626,-0.72005 1.54949,-1.14844 0.89323,-0.4375 1.93229,-0.4375 1.06641,0 1.84115,0.36459 0.78386,0.36458 1.28516,0.98437 0.51042,0.61979 0.75651,1.44011 0.2461,0.82031 0.2461,1.74089 0,0.44661 -0.10938,0.99349 -0.10937,0.53776 -0.31901,1.09375 -0.20964,0.55599 -0.51953,1.08464 -0.3099,0.52864 -0.71094,0.9388 -0.39193,0.40104 -0.88412,0.64714 -0.48307,0.24609 -1.03906,0.24609 h -1.72266 q -0.99349,0 -1.70443,-0.38281 -0.70183,-0.39193 -1.14844,-1.01172 -0.44662,-0.62891 -0.65625,-1.41276 -0.20964,-0.78386 -0.20964,-1.56772 z m 9.69794,-0.88411 q 0,-0.97526 0.27344,-1.76823 0.28255,-0.79297 0.8112,-1.35808 0.53776,-0.5651 1.3125,-0.86589 0.77474,-0.30989 1.77735,-0.30989 1.02083,0 1.99609,0.21875 0.97527,0.21875 1.91407,0.5651 0.59245,0.30078 0.59245,0.95704 0,0.40104 -0.27344,0.64713 -0.27344,0.23698 -0.64714,0.23698 -0.44661,0 -0.88411,-0.10026 -0.42839,-0.10026 -0.86589,-0.21875 -0.42838,-0.1276 -0.875,-0.22786 -0.4375,-0.10938 -0.89323,-0.10938 -1.15756,0 -1.75,0.54688 -0.58334,0.54687 -0.58334,1.75911 0,0.62891 0.13672,1.21225 0.13672,0.58333 0.4375,1.02995 0.3099,0.4375 0.80209,0.71093 0.49218,0.26433 1.19401,0.26433 0.47396,0 0.89323,-0.17318 0.42839,-0.17318 0.82031,-0.38281 0.40105,-0.20964 0.79297,-0.38282 0.39193,-0.17317 0.8112,-0.17317 0.40105,0 0.67448,0.23698 0.28256,0.22786 0.28256,0.64713 0,0.39193 -0.23698,0.71094 -0.23698,0.31901 -0.6198,0.56511 -0.37369,0.24609 -0.85677,0.41927 -0.47396,0.17318 -0.95703,0.29167 -0.47396,0.10937 -0.91146,0.16406 -0.4375,0.0547 -0.72917,0.0547 -1.11198,0 -1.95052,-0.41928 -0.82943,-0.42838 -1.38542,-1.13932 -0.54688,-0.71094 -0.82943,-1.64063 -0.27344,-0.9388 -0.27344,-1.96875 z m 10.0534,-2.63412 q -0.15495,0 -0.26432,-0.0729 -0.10938,-0.082 -0.1823,-0.1914 -0.0729,-0.11849 -0.10937,-0.25521 -0.0365,-0.13672 -0.0365,-0.25521 0,-0.10938 0.0365,-0.23698 0.0365,-0.12761 0.10937,-0.23698 0.0729,-0.10938 0.16407,-0.18229 0.10026,-0.0729 0.22786,-0.0729 h 6.9271 q 0.13672,0 0.41015,-0.009 0.13672,0 0.28256,0 0.15495,-0.009 0.31901,0 0.32812,0.009 0.65625,0.0547 0.33724,0.0456 0.61068,0.15495 0.27344,0.10938 0.44661,0.30078 0.1823,0.19141 0.1823,0.49219 0,0.32813 -0.20964,0.55599 -0.20052,0.22787 -0.54688,0.22787 -0.6289,0 -1.25781,-0.082 -0.61979,-0.082 -1.26693,-0.082 l -1.46745,-0.0273 v 1.27604 q 0,4.77605 -1.02995,5.92449 -0.20964,0.23698 -0.42839,0.23698 -0.21875,0 -0.39192,-0.0547 -0.16407,-0.0547 -0.30079,-0.16407 -0.21875,-0.17317 -0.21875,-0.42838 0,-0.0911 0.0365,-0.21875 0.66537,-2.36068 0.79297,-6.59897 z m 17.39066,2.94401 q 0.37369,0.26433 0.57422,0.62891 0.20963,0.3737 0.20963,0.93881 v 1.15755 q 0,0.34635 -0.15495,0.62891 -0.15495,0.28255 -0.41015,0.51042 -0.29167,0.2552 -0.59245,0.41927 -0.32813,0.17317 -0.67448,0.29166 -0.40105,0.13672 -0.67448,0.1823 -0.32813,0.0547 -0.59245,0.0547 -0.51042,0 -1.09375,-0.1276 -0.58334,-0.12761 -1.13021,-0.36458 l -0.29167,-0.12761 q -0.0547,0.082 -0.11849,0.14583 -0.20964,0.23698 -0.42839,0.23698 -0.21875,0 -0.39193,-0.0547 -0.16406,-0.0547 -0.30078,-0.16407 -0.21875,-0.17317 -0.21875,-0.42838 0,-0.10026 0.0365,-0.21875 0.0547,-0.20052 0.10938,-0.41927 -0.11849,-0.11849 -0.21875,-0.2461 -0.0365,-0.17318 -0.0547,-0.20052 -0.0365,-0.0729 -0.0365,-0.19141 0,-0.13672 0.0729,-0.30078 0.0638,-0.14583 0.18229,-0.25521 0.1276,-0.11849 0.25521,-0.16406 l 0.0729,-0.0273 q 0.10026,-0.59245 0.17318,-1.25782 0.18229,-1.88672 0.22787,-3.31771 0.14583,-1.79558 0.59244,-1.88673 0.47396,-0.10026 0.8112,-0.1276 h 0.009 q 0.20052,0 0.20963,0.6836 0,0.40104 -0.0729,1.02995 v 1.38541 q 0,0.48308 -0.009,0.92969 0.44662,-0.11849 1.01172,-0.11849 0.0273,0.009 0.0456,0.009 0.58333,0 1.17578,0.10026 0.59245,0.10026 1.19401,0.38281 0.28256,0.12761 0.50131,0.28255 z m -3.9922,0.67449 q -0.082,1.13021 -0.24609,1.9414 0.15495,0.082 0.35547,0.17318 0.38281,0.17318 0.80208,0.29167 0.40104,0.10937 0.76563,0.10937 0.28255,0 0.51042,-0.0547 0.29166,-0.0729 0.48307,-0.18229 0.20963,-0.11849 0.35547,-0.32813 0.13672,-0.19141 0.13672,-0.46485 0,-0.51041 -0.20964,-0.79297 -0.20963,-0.27343 -0.57422,-0.45573 -0.4375,-0.20963 -0.80208,-0.26432 -0.0182,0 -0.41927,-0.082 -0.40105,0.082 -0.41928,0.082 -0.15494,0.0273 -0.73828,0.0273 z"
           id="path3" />
        <path
           d="m 68.808429,149.89843 0.04557,0.80208 q 0.0091,0.17318 0.0091,0.36458 0,0.0182 0,0.0365 0,0.0182 0,0.0365 0,0.0182 0,0.0365 0,0.72005 -0.164063,1.75 -0.227865,1.50391 -0.875001,3.70053 -0.07292,0.23698 -0.428387,0.23698 -0.21875,0 -0.391927,-0.0547 -0.164063,-0.0547 -0.300782,-0.16406 -0.21875,-0.17318 -0.21875,-0.42839 0,-0.0911 0.03646,-0.21875 0.473959,-1.66797 0.67448,-4.27474 0.109375,-1.46746 0.136719,-3.15366 0.08203,-0.30989 0.638022,-0.45573 0.309897,-0.082 0.701824,-0.082 0.319011,0 0.69271,0.0547 0.391928,0 0.774741,-0.0273 0.382813,-0.0365 0.765626,-0.0729 0.391928,-0.0456 0.774741,-0.0729 0.382814,-0.0365 0.774741,-0.0365 0.182292,0 0.346355,0.0365 0.164063,0.0365 0.291667,0.12761 0.127605,0.082 0.200522,0.22786 0.08203,0.13672 0.08203,0.34636 0,0.54687 -0.291667,0.75651 -0.246094,0.17318 -0.565105,0.20052 z m 10.290384,-0.28256 q -0.300782,0 -0.656251,0.0638 -0.346355,0.0547 -0.69271,0.17318 -0.346354,0.10938 -0.67448,0.28255 -0.328126,0.16407 -0.57422,0.39193 -0.246094,0.21875 -0.401042,0.49219 -0.145834,0.26432 -0.145834,0.58334 0.136719,0 0.565105,-0.009 0.437501,-0.0182 1.002606,-0.0456 0.57422,-0.0365 1.194013,-0.082 0.619793,-0.0547 1.139325,-0.12761 0.528647,-0.082 0.865887,-0.18229 0.33724,-0.10026 0.33724,-0.23698 0,-0.39193 -0.21875,-0.64714 -0.209636,-0.25521 -0.519533,-0.40104 -0.300781,-0.14583 -0.638022,-0.20052 -0.33724,-0.0547 -0.583334,-0.0547 z m -4.967457,2.63412 q 0,-0.9388 0.401043,-1.74089 0.401042,-0.8112 1.084637,-1.40365 0.683595,-0.59244 1.576826,-0.92968 0.902345,-0.34636 1.886722,-0.34636 0.683595,0 1.358075,0.16406 0.674481,0.15495 1.212242,0.51954 0.537761,0.36458 0.865887,0.95703 0.33724,0.59245 0.33724,1.44922 0,0.42839 -0.164063,0.76563 -0.164062,0.33724 -0.4375,0.59245 -0.273438,0.2552 -0.628908,0.4375 -0.355469,0.17317 -0.747397,0.29166 -0.391928,0.11849 -0.79297,0.1823 -0.401043,0.0638 -0.756512,0.082 l -3.281256,0.18229 v 0.0365 q 0,0.45573 0.218751,0.78385 0.21875,0.32813 0.55599,0.54688 0.33724,0.21875 0.738283,0.32812 0.401042,0.10027 0.774741,0.10027 0.45573,0 0.847657,-0.16407 0.401043,-0.16406 0.774741,-0.35547 0.373699,-0.20052 0.738283,-0.36458 0.373699,-0.16406 0.765626,-0.16406 0.373699,0 0.638022,0.21875 0.264324,0.20963 0.264324,0.61067 0,0.3737 -0.227865,0.67449 -0.218751,0.29166 -0.57422,0.52864 -0.355469,0.22787 -0.811199,0.39193 -0.446616,0.16406 -0.893231,0.27344 -0.446616,0.10026 -0.856773,0.14583 -0.410157,0.0547 -0.692709,0.0547 -1.048179,0 -1.832035,-0.39193 -0.783855,-0.40104 -1.303387,-1.06641 -0.519533,-0.67448 -0.783856,-1.54948 -0.255209,-0.88412 -0.255209,-1.84115 z m 11.010437,0.7474 q 0,0.64714 0.136719,1.11198 0.136719,0.46484 0.446615,0.76563 0.309896,0.29166 0.811199,0.4375 0.501303,0.13672 1.221357,0.13672 0.647136,0 1.157554,-0.29167 0.510418,-0.30078 0.865887,-0.76563 0.355469,-0.47396 0.546876,-1.05729 0.191407,-0.59245 0.191407,-1.17578 0,-0.54688 -0.136719,-1.02084 -0.127605,-0.47396 -0.419272,-0.82031 -0.282553,-0.35547 -0.747397,-0.55599 -0.45573,-0.20053 -1.111981,-0.20053 -0.583335,0 -1.084638,0.22787 -0.492188,0.22786 -0.875001,0.61068 -0.382814,0.38281 -0.647137,0.88411 -0.255209,0.49219 -0.355469,1.02084 z m -1.859379,-0.13672 q 0,-0.99349 0.373699,-1.92318 0.382813,-0.92969 1.039064,-1.64974 0.656251,-0.72006 1.549482,-1.14844 0.893231,-0.4375 1.932295,-0.4375 1.066409,0 1.84115,0.36458 0.783855,0.36458 1.285158,0.98438 0.510418,0.61979 0.756512,1.4401 0.246094,0.82032 0.246094,1.74089 0,0.44662 -0.109375,0.99349 -0.109375,0.53777 -0.319011,1.09376 -0.209636,0.55599 -0.519532,1.08463 -0.309897,0.52865 -0.710939,0.93881 -0.391928,0.40104 -0.884116,0.64713 -0.483074,0.2461 -1.039065,0.2461 h -1.722659 q -0.993491,0 -1.70443,-0.38282 -0.701824,-0.39192 -1.14844,-1.01172 -0.446615,-0.6289 -0.656251,-1.41276 -0.209636,-0.78385 -0.209636,-1.56771 z m 11.821637,-1.76823 q -0.04557,4.42969 -1.02995,5.53256 -0.209636,0.23698 -0.428386,0.23698 -0.218751,0 -0.391928,-0.0547 -0.164063,-0.0547 -0.300782,-0.16406 -0.21875,-0.17318 -0.21875,-0.42839 0,-0.10026 0.03646,-0.21875 0.729168,-2.58854 0.811199,-7.4284 0,-0.0547 0,-0.10937 0,-0.63802 0.209636,-0.84766 0.227865,-0.22786 0.501303,-0.22786 0.273438,0 0.45573,0.0911 0.182292,0.0911 0.264324,0.29167 l 1.531252,2.70703 q 0,0.0182 0.05469,0.10938 0.05469,0.082 0.127604,0.19141 0.07292,0.10937 0.145834,0.21875 0.08203,0.10937 0.127604,0.16406 l 0.07292,0.082 q 0.282553,-0.28255 0.729168,-0.70182 0.45573,-0.42839 0.957033,-0.875 0.510418,-0.45573 1.02995,-0.89324 0.519535,-0.44661 0.947915,-0.77474 0.11849,-0.0547 0.22787,-0.10026 0.10937,-0.0547 0.22786,-0.0547 0.34636,0 0.55599,0.21875 0.14584,0.15494 0.19141,0.35547 v 0.009 q 0.0182,0.0911 0.0182,0.18229 0,0.17318 -0.0182,2.09636 0,4.77605 -1.02995,5.92449 -0.20964,0.23698 -0.42839,0.23698 -0.21875,0 -0.39192,-0.0547 -0.164066,-0.0547 -0.300785,-0.16406 -0.218751,-0.17318 -0.218751,-0.42839 0,-0.10026 0.03646,-0.21875 0.592447,-2.11458 0.756507,-5.72397 -0.17317,0.13672 -0.35546,0.28256 -0.473964,0.39192 -0.920579,0.8112 -0.446616,0.41927 -1.895837,2.30599 -1.476565,-1.88672 -1.677086,-2.11459 l -0.401043,-0.45573 q -0.0091,0 -0.0091,-0.009 z m 12.723979,-1.47657 q -0.30078,0 -0.65625,0.0638 -0.34636,0.0547 -0.69271,0.17318 -0.34635,0.10938 -0.67448,0.28255 -0.32813,0.16407 -0.57422,0.39193 -0.24609,0.21875 -0.40104,0.49219 -0.14584,0.26432 -0.14584,0.58334 0.13672,0 0.56511,-0.009 0.4375,-0.0182 1.0026,-0.0456 0.57422,-0.0365 1.19402,-0.082 0.61979,-0.0547 1.13932,-0.12761 0.52865,-0.082 0.86589,-0.18229 0.33724,-0.10026 0.33724,-0.23698 0,-0.39193 -0.21875,-0.64714 -0.20964,-0.25521 -0.51953,-0.40104 -0.30078,-0.14583 -0.63803,-0.20052 -0.33724,-0.0547 -0.58333,-0.0547 z m -4.96746,2.63412 q 0,-0.9388 0.40105,-1.74089 0.40104,-0.8112 1.08463,-1.40365 0.6836,-0.59244 1.57683,-0.92968 0.90234,-0.34636 1.88672,-0.34636 0.6836,0 1.35808,0.16406 0.67448,0.15495 1.21224,0.51954 0.53776,0.36458 0.86589,0.95703 0.33724,0.59245 0.33724,1.44922 0,0.42839 -0.16407,0.76563 -0.16406,0.33724 -0.4375,0.59245 -0.27344,0.2552 -0.62891,0.4375 -0.35546,0.17317 -0.74739,0.29166 -0.39193,0.11849 -0.79297,0.1823 -0.40105,0.0638 -0.75651,0.082 l -3.28126,0.18229 v 0.0365 q 0,0.45573 0.21875,0.78385 0.21875,0.32813 0.55599,0.54688 0.33724,0.21875 0.73828,0.32812 0.40105,0.10027 0.77474,0.10027 0.45573,0 0.84766,-0.16407 0.40104,-0.16406 0.77474,-0.35547 0.3737,-0.20052 0.73829,-0.36458 0.37369,-0.16406 0.76562,-0.16406 0.3737,0 0.63802,0.21875 0.26433,0.20963 0.26433,0.61067 0,0.3737 -0.22787,0.67449 -0.21875,0.29166 -0.57422,0.52864 -0.35547,0.22787 -0.8112,0.39193 -0.44661,0.16406 -0.89323,0.27344 -0.44661,0.10026 -0.85677,0.14583 -0.41016,0.0547 -0.69271,0.0547 -1.04818,0 -1.83203,-0.39193 -0.78386,-0.40104 -1.30339,-1.06641 -0.51953,-0.67448 -0.78386,-1.54948 -0.25521,-0.88412 -0.25521,-1.84115 z m 9.89846,-2.90756 q -0.15495,0 -0.26432,-0.0729 -0.10938,-0.082 -0.1823,-0.19141 -0.0729,-0.11849 -0.10937,-0.25521 -0.0365,-0.13672 -0.0365,-0.25521 0,-0.10937 0.0365,-0.23698 0.0365,-0.1276 0.10937,-0.23698 0.0729,-0.10937 0.16407,-0.18229 0.10026,-0.0729 0.22786,-0.0729 h 6.9271 q 0.13672,0 0.41015,-0.009 0.13672,0 0.28256,0 0.15495,-0.009 0.31901,0 0.32812,0.009 0.65625,0.0547 0.33724,0.0456 0.61068,0.15495 0.27344,0.10937 0.44661,0.30078 0.18229,0.19141 0.18229,0.49219 0,0.32812 -0.20963,0.55599 -0.20052,0.22786 -0.54688,0.22786 -0.6289,0 -1.25781,-0.082 -0.61979,-0.082 -1.26693,-0.082 l -1.46745,-0.0273 v 1.27604 q 0,4.77605 -1.02995,5.92449 -0.20964,0.23698 -0.42839,0.23698 -0.21875,0 -0.39193,-0.0547 -0.16406,-0.0547 -0.30078,-0.16406 -0.21875,-0.17318 -0.21875,-0.42839 0,-0.0911 0.0365,-0.21875 0.66537,-2.36068 0.79297,-6.59897 z m 13.34377,1.75001 -0.0273,0.11849 -0.009,0.082 q -0.009,0.0638 -0.0273,0.30078 -0.0182,0.22787 -0.0547,0.54688 -0.0273,0.30989 -0.0729,0.67448 -0.0365,0.35547 -0.0638,0.67448 -0.0273,0.30989 -0.0547,0.54687 -0.0274,0.22787 -0.0274,0.29167 0.28256,0.0911 0.49219,0.13672 0.20964,0.0456 0.39193,0.0729 0.19141,0.0182 0.38281,0.0456 0.20052,0.0182 0.46485,0.0638 0.42838,0.0638 0.91146,0.10026 0.20052,0.009 0.39192,0.0182 0.28256,0 0.56511,-0.0273 0.47396,-0.0456 0.92057,-0.17318 0.45573,-0.13672 0.82032,-0.38281 0.36458,-0.25521 0.61979,-0.63802 0.26432,-0.38282 0.35547,-0.92058 0.0456,-0.24609 0.0456,-0.48307 0,-0.14584 -0.0182,-0.28256 -0.0456,-0.36458 -0.20052,-0.65625 -0.15495,-0.30078 -0.42838,-0.49219 -0.27344,-0.20052 -0.66537,-0.27343 -0.21875,-0.0365 -0.63802,-0.0638 -0.41927,-0.0365 -0.9388,-0.0365 -0.51042,0 -1.04818,0.0365 -0.53777,0.0365 -0.9935,0.11849 -0.44661,0.082 -0.75651,0.23698 -0.30078,0.14584 -0.33724,0.36459 z m -1.83203,-2.75261 q 0.0729,-0.3737 0.34635,-0.54688 0.20964,-0.1276 0.46485,-0.1276 0.082,0 0.16406,0.009 0.33724,0.0638 0.49219,0.18229 0.15495,0.11849 0.21875,0.29167 0.0729,0.17318 0.0911,0.38282 0.0182,0.20963 0.0729,0.45573 1.23047,-0.38282 2.48829,-0.40105 0.11849,0 0.22786,-0.009 1.14844,0 2.33334,0.20963 0.72005,0.12761 1.27604,0.51954 0.55599,0.38281 0.90235,0.94791 0.34635,0.556 0.47396,1.2487 0.0638,0.34636 0.0638,0.69271 0,0.34636 -0.0638,0.71094 -0.16406,0.94792 -0.72005,1.6862 -0.556,0.73829 -1.33985,1.21225 -0.78386,0.49218 -1.69532,0.67448 -0.45573,0.0911 -0.89323,0.0911 h -0.082 q -0.42838,0 -0.85677,-0.0729 l -2.60678,-0.35547 q -0.082,0.44661 -0.1276,0.67448 -0.0365,0.22786 -0.0547,0.34635 -0.0182,0.11849 -0.0273,0.18229 -0.009,0.0729 -0.0274,0.19141 -0.0182,0.11849 -0.0638,0.34635 -0.0365,0.22787 -0.11849,0.67448 -0.0182,0.10027 -0.0638,0.34636 -0.0365,0.25521 -0.0911,0.52865 -0.0456,0.28255 -0.0911,0.52864 -0.0365,0.25521 -0.0547,0.34636 -0.13672,0.25521 -0.38281,0.3737 -0.23698,0.11849 -0.49219,0.0729 -0.32813,-0.0638 -0.51042,-0.29166 -0.18229,-0.22787 -0.20963,-0.54688 0.0456,-0.23698 0.10026,-0.51042 0.0638,-0.26432 0.11849,-0.54687 0.0638,-0.27344 0.11849,-0.54688 0.0547,-0.27344 0.082,-0.51953 0.0365,-0.36459 0.0911,-0.92058 0.0547,-0.5651 0.10938,-1.20312 0.0638,-0.64714 0.11849,-1.30339 0.0638,-0.66537 0.10937,-1.22136 0.0456,-0.55599 0.0729,-0.9388 0.0273,-0.39193 0.0365,-0.48307 l -0.0182,-3.26303 q 0,-0.0182 0.009,-0.0456 0,-0.0182 0,-0.0365 0.009,-0.0182 0.009,-0.0365 z m 12.51434,-0.0182 q 0,0.73828 -0.082,1.46745 -0.082,0.72005 -0.082,1.45834 -0.009,0.21875 -0.009,0.60156 v 0.1276 q 0,0.32813 0.0182,0.71094 0.0182,0.45573 0.0911,0.92058 0.0729,0.45573 0.21875,0.83854 0.15495,0.3737 0.39193,0.61979 0.24609,0.23698 0.61979,0.23698 0.29167,0 0.57422,-0.20052 0.28255,-0.20052 0.53776,-0.51953 0.25521,-0.31901 0.47396,-0.70182 0.22787,-0.39193 0.40104,-0.76563 0.1823,-0.3737 0.3099,-0.6836 0.13672,-0.31901 0.20052,-0.48307 0.0638,-0.13672 0.16406,-0.41927 0.10938,-0.28255 0.23698,-0.62891 0.13672,-0.35547 0.28256,-0.7474 0.14583,-0.39192 0.27343,-0.73828 0.12761,-0.35547 0.22787,-0.63802 0.10026,-0.28255 0.14583,-0.41927 0.11849,-0.29167 0.3099,-0.41927 0.19141,-0.12761 0.51042,-0.12761 0.38281,0 0.60156,0.20052 0.21875,0.20052 0.21875,0.58334 v 0.22786 q -0.0273,0.11849 -0.0911,0.3737 -0.0547,0.2461 -0.12761,0.56511 -0.0729,0.31901 -0.15495,0.66536 -0.0729,0.34636 -0.14583,0.66537 -0.0638,0.31901 -0.11849,0.57422 -0.0456,0.24609 -0.0638,0.36458 -0.0182,0.0911 -0.0365,0.34636 -0.0182,0.25521 -0.0456,0.61067 -0.0273,0.34636 -0.0729,0.76563 -0.0456,0.41927 -0.10938,0.83854 -0.0638,0.41928 -0.14583,0.82032 -0.082,0.39193 -0.20052,0.70182 -0.11849,0.30078 -0.26432,0.49219 -0.14584,0.18229 -0.33724,0.18229 -0.0911,0 -0.22787,-0.0273 -0.1276,-0.0273 -0.25521,-0.082 -0.11849,-0.0638 -0.20963,-0.14584 -0.0911,-0.0911 -0.0911,-0.20963 v -1.2487 q -0.28255,0.10026 -0.49219,0.27344 -0.20963,0.17317 -0.39193,0.38281 -0.18229,0.20963 -0.35547,0.42839 -0.17317,0.20963 -0.39192,0.39192 -0.20964,0.17318 -0.48308,0.28256 -0.27344,0.10937 -0.65625,0.10937 -0.69271,0 -1.1849,-0.27344 -0.48307,-0.28255 -0.82031,-0.73828 -0.32813,-0.46484 -0.51953,-1.05729 -0.19141,-0.59245 -0.29167,-1.22136 -0.10026,-0.62891 -0.1276,-1.23959 -0.0273,-0.61979 -0.0273,-1.13021 0,-0.20963 -0.0273,-0.5651 -0.0274,-0.36458 -0.0365,-0.78386 v -0.20963 q 0,-0.31901 0.0182,-0.64714 0.0273,-0.4375 0.13672,-0.78385 0.11849,-0.34636 0.33724,-0.56511 0.21875,-0.22786 0.59245,-0.22786 0.31901,0 0.54687,0.23697 0.23698,0.22787 0.23698,0.58334 z m 12.6693,5.54168 -0.3099,-0.0274 q -0.91146,-0.0547 -2.03256,-0.40104 -0.76562,-0.23698 -1.30338,-0.63802 -0.58334,-0.4375 -0.96615,-1.10287 -0.38281,-0.66536 -0.38281,-1.66797 0,-0.92058 0.4375,-1.64974 0.45573,-0.61068 0.84765,-0.61068 0.0456,0 0.20964,0.0547 0.40104,0.13672 0.40104,0.46484 0,0.20052 -0.11849,0.45573 -0.32812,0.72005 -0.33724,1.32162 0,0.0182 0,0.0273 0,0.56511 0.31901,0.92058 0.30079,0.33724 0.82943,0.58333 0.57422,0.27344 1.76823,0.47396 0.3737,0.0638 0.76563,0.10026 0.0911,-1.6224 0.11849,-3.54558 0.082,-0.38281 0.22787,-0.54687 0.15494,-0.17318 0.46484,-0.17318 0.009,0 0.0182,0 0.61068,0 0.7474,0.54687 v 2.73438 q 0,5.72397 -0.98438,7.10939 -0.20052,0.28255 -0.41016,0.28255 -0.21875,0 -0.3737,-0.0638 -0.16406,-0.0729 -0.29166,-0.20052 -0.20964,-0.21875 -0.20964,-0.51042 0,-0.11849 0.0365,-0.26432 0.33724,-1.54037 0.52865,-3.67318 z m 7.96616,-4.24741 q -0.30078,0 -0.65625,0.0638 -0.34636,0.0547 -0.69271,0.17318 -0.34636,0.10938 -0.67448,0.28255 -0.32813,0.16407 -0.57422,0.39193 -0.2461,0.21875 -0.40105,0.49219 -0.14583,0.26432 -0.14583,0.58334 0.13672,0 0.56511,-0.009 0.4375,-0.0182 1.0026,-0.0456 0.57422,-0.0365 1.19401,-0.082 0.6198,-0.0547 1.13933,-0.12761 0.52865,-0.082 0.86589,-0.18229 0.33724,-0.10026 0.33724,-0.23698 0,-0.39193 -0.21875,-0.64714 -0.20964,-0.25521 -0.51954,-0.40104 -0.30078,-0.14583 -0.63802,-0.20052 -0.33724,-0.0547 -0.58333,-0.0547 z m -4.96746,2.63412 q 0,-0.9388 0.40104,-1.74089 0.40105,-0.8112 1.08464,-1.40365 0.6836,-0.59244 1.57683,-0.92968 0.90234,-0.34636 1.88672,-0.34636 0.68359,0 1.35807,0.16406 0.67448,0.15495 1.21225,0.51954 0.53776,0.36458 0.86588,0.95703 0.33724,0.59245 0.33724,1.44922 0,0.42839 -0.16406,0.76563 -0.16406,0.33724 -0.4375,0.59245 -0.27344,0.2552 -0.62891,0.4375 -0.35547,0.17317 -0.7474,0.29166 -0.39192,0.11849 -0.79297,0.1823 -0.40104,0.0638 -0.75651,0.082 l -3.28125,0.18229 v 0.0365 q 0,0.45573 0.21875,0.78385 0.21875,0.32813 0.55599,0.54688 0.33724,0.21875 0.73828,0.32812 0.40104,0.10027 0.77474,0.10027 0.45573,0 0.84766,-0.16407 0.40104,-0.16406 0.77474,-0.35547 0.3737,-0.20052 0.73828,-0.36458 0.3737,-0.16406 0.76563,-0.16406 0.3737,0 0.63802,0.21875 0.26432,0.20963 0.26432,0.61067 0,0.3737 -0.22786,0.67449 -0.21875,0.29166 -0.57422,0.52864 -0.35547,0.22787 -0.8112,0.39193 -0.44662,0.16406 -0.89323,0.27344 -0.44662,0.10026 -0.85677,0.14583 -0.41016,0.0547 -0.69271,0.0547 -1.04818,0 -1.83204,-0.39193 -0.78385,-0.40104 -1.30338,-1.06641 -0.51954,-0.67448 -0.78386,-1.54948 -0.25521,-0.88412 -0.25521,-1.84115 z m 9.16018,-0.27344 q 0,-0.97526 0.27344,-1.76823 0.28255,-0.79297 0.81119,-1.35807 0.53777,-0.56511 1.31251,-0.86589 0.77474,-0.3099 1.77734,-0.3099 1.02084,0 1.9961,0.21875 0.97526,0.21875 1.91407,0.56511 0.59245,0.30078 0.59245,0.95703 0,0.40104 -0.27344,0.64714 -0.27344,0.23698 -0.64714,0.23698 -0.44661,0 -0.88411,-0.10026 -0.42839,-0.10026 -0.86589,-0.21875 -0.42839,-0.12761 -0.875,-0.22787 -0.4375,-0.10937 -0.89323,-0.10937 -1.15756,0 -1.75001,0.54687 -0.58333,0.54688 -0.58333,1.75912 0,0.62891 0.13672,1.21224 0.13672,0.58334 0.4375,1.02995 0.30989,0.4375 0.80208,0.71094 0.49219,0.26432 1.19402,0.26432 0.47395,0 0.89323,-0.17317 0.42838,-0.17318 0.82031,-0.38282 0.40104,-0.20963 0.79297,-0.38281 0.39193,-0.17318 0.8112,-0.17318 0.40104,0 0.67448,0.23698 0.28255,0.22787 0.28255,0.64714 0,0.39193 -0.23698,0.71094 -0.23698,0.31901 -0.61979,0.5651 -0.3737,0.2461 -0.85677,0.41927 -0.47396,0.17318 -0.95703,0.29167 -0.47396,0.10938 -0.91146,0.16406 -0.43751,0.0547 -0.72917,0.0547 -1.11198,0 -1.95053,-0.41927 -0.82943,-0.42839 -1.38542,-1.13932 -0.54687,-0.71094 -0.82942,-1.64063 -0.27344,-0.93881 -0.27344,-1.96876 z m 11.92189,-3.45443 q -0.10938,1.53125 -0.11849,2.03256 v 0.33724 q 0.29167,-0.20052 0.62891,-0.47396 0.34635,-0.27344 0.70182,-0.57422 0.35547,-0.3099 0.70183,-0.62891 0.35546,-0.31901 0.67448,-0.61068 0.31901,-0.30078 0.58333,-0.54687 0.26432,-0.25521 0.44662,-0.42839 0.10026,-0.15495 0.2552,-0.15495 h 0.28256 q 0.39192,0 0.61979,0.18229 0.22786,0.1823 0.22786,0.58334 0,0.18229 -0.0182,0.29167 -0.0182,0.10026 -0.13672,0.24609 -0.0729,0.0638 -0.33724,0.29167 -0.25521,0.22786 -0.6198,0.54687 -0.35547,0.3099 -0.76562,0.67448 -0.41016,0.36459 -0.78386,0.70183 -0.3737,0.33724 -0.66536,0.61979 -0.29167,0.27344 -0.41016,0.41927 0.65625,0.34636 1.17578,0.7474 0.51953,0.39193 0.93881,0.85677 0.42838,0.46485 0.78385,1.01172 0.35547,0.54688 0.6836,1.20313 v 0.32812 q 0,0.36459 -0.19141,0.59245 -0.19141,0.22787 -0.58333,0.22787 -0.21875,0 -0.39193,-0.0547 -0.17318,-0.0638 -0.30078,-0.28255 -0.1823,-0.35547 -0.41016,-0.73828 -0.21875,-0.39193 -0.48307,-0.75652 -0.26433,-0.37369 -0.57422,-0.70182 -0.3099,-0.33724 -0.67448,-0.58333 -0.35547,-0.25521 -0.77475,-0.40105 -0.41015,-0.15495 -0.875,-0.15495 h -0.0365 q -0.0365,0.12761 -0.0729,0.44662 -0.0273,0.3099 -0.0729,0.70182 -0.0456,0.38282 -0.1276,0.80209 -0.0729,0.41927 -0.21875,0.76563 -0.14584,0.34635 -0.3737,0.57422 -0.21875,0.21875 -0.55599,0.21875 -0.40105,0 -0.59245,-0.26433 -0.18229,-0.26432 -0.18229,-0.63802 v -0.31901 l 0.57422,-3.26303 q 0.082,-0.0729 0.1276,-0.55599 l 0.4375,-4.64844 q 0,-0.21875 0.0456,-0.3099 0.0638,-0.1276 0.17318,-0.21875 0.082,-0.0547 0.25521,-0.14583 0.47396,-0.1823 0.7474,-0.1823 0.3737,0 0.39192,0.33724 v 0.20964 q 0,0.72917 -0.10937,1.6862 z m 8.15757,-0.20052 q 0,0.73828 -0.082,1.46745 -0.082,0.72005 -0.082,1.45834 -0.009,0.21875 -0.009,0.60156 v 0.1276 q 0,0.32813 0.0182,0.71094 0.0182,0.45573 0.0911,0.92058 0.0729,0.45573 0.21875,0.83854 0.15495,0.3737 0.39193,0.61979 0.24609,0.23698 0.61979,0.23698 0.29167,0 0.57422,-0.20052 0.28255,-0.20052 0.53776,-0.51953 0.25521,-0.31901 0.47396,-0.70182 0.22787,-0.39193 0.40104,-0.76563 0.18229,-0.3737 0.3099,-0.6836 0.13672,-0.31901 0.20052,-0.48307 0.0638,-0.13672 0.16406,-0.41927 0.10938,-0.28255 0.23698,-0.62891 0.13672,-0.35547 0.28256,-0.7474 0.14583,-0.39192 0.27343,-0.73828 0.12761,-0.35547 0.22787,-0.63802 0.10026,-0.28255 0.14583,-0.41927 0.11849,-0.29167 0.3099,-0.41927 0.19141,-0.12761 0.51042,-0.12761 0.38281,0 0.60156,0.20052 0.21875,0.20052 0.21875,0.58334 v 0.22786 q -0.0273,0.11849 -0.0911,0.3737 -0.0547,0.2461 -0.1276,0.56511 -0.0729,0.31901 -0.15495,0.66536 -0.0729,0.34636 -0.14583,0.66537 -0.0638,0.31901 -0.11849,0.57422 -0.0456,0.24609 -0.0638,0.36458 -0.0182,0.0911 -0.0365,0.34636 -0.0182,0.25521 -0.0456,0.61067 -0.0273,0.34636 -0.0729,0.76563 -0.0456,0.41927 -0.10938,0.83854 -0.0638,0.41928 -0.14583,0.82032 -0.082,0.39193 -0.20052,0.70182 -0.11849,0.30078 -0.26433,0.49219 -0.14583,0.18229 -0.33724,0.18229 -0.0911,0 -0.22786,-0.0273 -0.12761,-0.0273 -0.25521,-0.082 -0.11849,-0.0638 -0.20964,-0.14584 -0.0911,-0.0911 -0.0911,-0.20963 v -1.2487 q -0.28255,0.10026 -0.49219,0.27344 -0.20964,0.17317 -0.39193,0.38281 -0.18229,0.20963 -0.35547,0.42839 -0.17317,0.20963 -0.39192,0.39192 -0.20964,0.17318 -0.48308,0.28256 -0.27344,0.10937 -0.65625,0.10937 -0.69271,0 -1.1849,-0.27344 -0.48307,-0.28255 -0.82031,-0.73828 -0.32813,-0.46484 -0.51953,-1.05729 -0.19141,-0.59245 -0.29167,-1.22136 -0.10026,-0.62891 -0.12761,-1.23959 -0.0273,-0.61979 -0.0273,-1.13021 0,-0.20963 -0.0273,-0.5651 -0.0273,-0.36458 -0.0365,-0.78386 v -0.20963 q 0,-0.31901 0.0182,-0.64714 0.0273,-0.4375 0.13672,-0.78385 0.11849,-0.34636 0.33724,-0.56511 0.21875,-0.22786 0.59245,-0.22786 0.31901,0 0.54687,0.23697 0.23698,0.22787 0.23698,0.58334 z m 12.43232,1.29427 q -0.30079,0 -0.65626,0.0638 -0.34635,0.0547 -0.6927,0.17318 -0.34636,0.10938 -0.67449,0.28255 -0.32812,0.16407 -0.57422,0.39193 -0.24609,0.21875 -0.40104,0.49219 -0.14583,0.26432 -0.14583,0.58334 0.13672,0 0.5651,-0.009 0.4375,-0.0182 1.00261,-0.0456 0.57422,-0.0365 1.19401,-0.082 0.6198,-0.0547 1.13933,-0.12761 0.52864,-0.082 0.86588,-0.18229 0.33724,-0.10026 0.33724,-0.23698 0,-0.39193 -0.21875,-0.64714 -0.20963,-0.25521 -0.51953,-0.40104 -0.30078,-0.14583 -0.63802,-0.20052 -0.33724,-0.0547 -0.58333,-0.0547 z m -4.96746,2.63412 q 0,-0.9388 0.40104,-1.74089 0.40104,-0.8112 1.08464,-1.40365 0.68359,-0.59244 1.57682,-0.92968 0.90235,-0.34636 1.88673,-0.34636 0.68359,0 1.35807,0.16406 0.67448,0.15495 1.21224,0.51954 0.53777,0.36458 0.86589,0.95703 0.33724,0.59245 0.33724,1.44922 0,0.42839 -0.16406,0.76563 -0.16406,0.33724 -0.4375,0.59245 -0.27344,0.2552 -0.62891,0.4375 -0.35547,0.17317 -0.7474,0.29166 -0.39193,0.11849 -0.79297,0.1823 -0.40104,0.0638 -0.75651,0.082 l -3.28126,0.18229 v 0.0365 q 0,0.45573 0.21876,0.78385 0.21875,0.32813 0.55599,0.54688 0.33724,0.21875 0.73828,0.32812 0.40104,0.10027 0.77474,0.10027 0.45573,0 0.84766,-0.16407 0.40104,-0.16406 0.77474,-0.35547 0.3737,-0.20052 0.73828,-0.36458 0.3737,-0.16406 0.76563,-0.16406 0.3737,0 0.63802,0.21875 0.26432,0.20963 0.26432,0.61067 0,0.3737 -0.22786,0.67449 -0.21875,0.29166 -0.57422,0.52864 -0.35547,0.22787 -0.8112,0.39193 -0.44662,0.16406 -0.89323,0.27344 -0.44662,0.10026 -0.85677,0.14583 -0.41016,0.0547 -0.69271,0.0547 -1.04818,0 -1.83204,-0.39193 -0.78385,-0.40104 -1.30339,-1.06641 -0.51953,-0.67448 -0.78385,-1.54948 -0.25521,-0.88412 -0.25521,-1.84115 z m 17.11721,-1.15755 q -0.0456,4.42969 -1.02995,5.53256 -0.20963,0.23698 -0.42838,0.23698 -0.21875,0 -0.39193,-0.0547 -0.16406,-0.0547 -0.30078,-0.16406 -0.21875,-0.17318 -0.21875,-0.42839 0,-0.10026 0.0365,-0.21875 0.72916,-2.58854 0.81119,-7.4284 0,-0.0547 0,-0.10937 0,-0.63802 0.20964,-0.84766 0.22787,-0.22786 0.5013,-0.22786 0.27344,0 0.45573,0.0911 0.1823,0.0911 0.26433,0.29167 l 1.53125,2.70703 q 0,0.0182 0.0547,0.10938 0.0547,0.082 0.1276,0.19141 0.0729,0.10937 0.14584,0.21875 0.082,0.10937 0.1276,0.16406 l 0.0729,0.082 q 0.28255,-0.28255 0.72916,-0.70182 0.45573,-0.42839 0.95704,-0.875 0.51042,-0.45573 1.02995,-0.89324 0.51953,-0.44661 0.94792,-0.77474 0.11849,-0.0547 0.22786,-0.10026 0.10938,-0.0547 0.22787,-0.0547 0.34635,0 0.55599,0.21875 0.14583,0.15494 0.1914,0.35547 v 0.009 q 0.0182,0.0911 0.0182,0.18229 0,0.17318 -0.0182,2.09636 0,4.77605 -1.02995,5.92449 -0.20963,0.23698 -0.42838,0.23698 -0.21875,0 -0.39193,-0.0547 -0.16406,-0.0547 -0.30078,-0.16406 -0.21875,-0.17318 -0.21875,-0.42839 0,-0.10026 0.0365,-0.21875 0.59244,-2.11458 0.75651,-5.72397 -0.17318,0.13672 -0.35547,0.28256 -0.47396,0.39192 -0.92058,0.8112 -0.44661,0.41927 -1.89583,2.30599 -1.47657,-1.88672 -1.67709,-2.11459 l -0.40104,-0.45573 q -0.009,0 -0.009,-0.009 z m 12.72399,-1.47657 q -0.30078,0 -0.65625,0.0638 -0.34636,0.0547 -0.69271,0.17318 -0.34636,0.10938 -0.67448,0.28255 -0.32813,0.16407 -0.57422,0.39193 -0.2461,0.21875 -0.40105,0.49219 -0.14583,0.26432 -0.14583,0.58334 0.13672,0 0.56511,-0.009 0.4375,-0.0182 1.0026,-0.0456 0.57422,-0.0365 1.19401,-0.082 0.6198,-0.0547 1.13933,-0.12761 0.52865,-0.082 0.86589,-0.18229 0.33724,-0.10026 0.33724,-0.23698 0,-0.39193 -0.21875,-0.64714 -0.20964,-0.25521 -0.51954,-0.40104 -0.30078,-0.14583 -0.63802,-0.20052 -0.33724,-0.0547 -0.58333,-0.0547 z m -4.96746,2.63412 q 0,-0.9388 0.40104,-1.74089 0.40104,-0.8112 1.08464,-1.40365 0.68359,-0.59244 1.57683,-0.92968 0.90234,-0.34636 1.88672,-0.34636 0.68359,0 1.35807,0.16406 0.67448,0.15495 1.21224,0.51954 0.53777,0.36458 0.86589,0.95703 0.33724,0.59245 0.33724,1.44922 0,0.42839 -0.16406,0.76563 -0.16406,0.33724 -0.4375,0.59245 -0.27344,0.2552 -0.62891,0.4375 -0.35547,0.17317 -0.7474,0.29166 -0.39192,0.11849 -0.79297,0.1823 -0.40104,0.0638 -0.75651,0.082 l -3.28125,0.18229 v 0.0365 q 0,0.45573 0.21875,0.78385 0.21875,0.32813 0.55599,0.54688 0.33724,0.21875 0.73828,0.32812 0.40104,0.10027 0.77474,0.10027 0.45573,0 0.84766,-0.16407 0.40104,-0.16406 0.77474,-0.35547 0.3737,-0.20052 0.73828,-0.36458 0.3737,-0.16406 0.76563,-0.16406 0.3737,0 0.63802,0.21875 0.26432,0.20963 0.26432,0.61067 0,0.3737 -0.22786,0.67449 -0.21875,0.29166 -0.57422,0.52864 -0.35547,0.22787 -0.8112,0.39193 -0.44662,0.16406 -0.89323,0.27344 -0.44662,0.10026 -0.85677,0.14583 -0.41016,0.0547 -0.69271,0.0547 -1.04818,0 -1.83204,-0.39193 -0.78385,-0.40104 -1.30339,-1.06641 -0.51953,-0.67448 -0.78385,-1.54948 -0.25521,-0.88412 -0.25521,-1.84115 z m 9.16018,-0.27344 q 0,-0.97526 0.27343,-1.76823 0.28256,-0.79297 0.8112,-1.35807 0.53777,-0.56511 1.31251,-0.86589 0.77474,-0.3099 1.77734,-0.3099 1.02084,0 1.9961,0.21875 0.97526,0.21875 1.91407,0.56511 0.59245,0.30078 0.59245,0.95703 0,0.40104 -0.27344,0.64714 -0.27344,0.23698 -0.64714,0.23698 -0.44661,0 -0.88412,-0.10026 -0.42838,-0.10026 -0.86588,-0.21875 -0.42839,-0.12761 -0.875,-0.22787 -0.4375,-0.10937 -0.89323,-0.10937 -1.15756,0 -1.75001,0.54687 -0.58333,0.54688 -0.58333,1.75912 0,0.62891 0.13672,1.21224 0.13672,0.58334 0.4375,1.02995 0.30989,0.4375 0.80208,0.71094 0.49219,0.26432 1.19402,0.26432 0.47395,0 0.89323,-0.17317 0.42838,-0.17318 0.82031,-0.38282 0.40104,-0.20963 0.79297,-0.38281 0.39193,-0.17318 0.8112,-0.17318 0.40104,0 0.67448,0.23698 0.28255,0.22787 0.28255,0.64714 0,0.39193 -0.23698,0.71094 -0.23698,0.31901 -0.61979,0.5651 -0.3737,0.2461 -0.85677,0.41927 -0.47396,0.17318 -0.95704,0.29167 -0.47395,0.10938 -0.91146,0.16406 -0.4375,0.0547 -0.72916,0.0547 -1.11198,0 -1.95053,-0.41927 -0.82943,-0.42839 -1.38542,-1.13932 -0.54687,-0.71094 -0.82943,-1.64063 -0.27343,-0.93881 -0.27343,-1.96876 z m 10.05339,-2.63412 q -0.15495,0 -0.26432,-0.0729 -0.10938,-0.082 -0.1823,-0.19141 -0.0729,-0.11849 -0.10937,-0.25521 -0.0365,-0.13672 -0.0365,-0.25521 0,-0.10937 0.0365,-0.23698 0.0365,-0.1276 0.10937,-0.23698 0.0729,-0.10937 0.16407,-0.18229 0.10026,-0.0729 0.22786,-0.0729 h 6.9271 q 0.13672,0 0.41015,-0.009 0.13672,0 0.28256,0 0.15494,-0.009 0.31901,0 0.32812,0.009 0.65625,0.0547 0.33724,0.0456 0.61068,0.15495 0.27343,0.10937 0.44661,0.30078 0.18229,0.19141 0.18229,0.49219 0,0.32812 -0.20963,0.55599 -0.20052,0.22786 -0.54688,0.22786 -0.62891,0 -1.25781,-0.082 -0.6198,-0.082 -1.26693,-0.082 l -1.46745,-0.0273 v 1.27604 q 0,4.77605 -1.02995,5.92449 -0.20964,0.23698 -0.42839,0.23698 -0.21875,0 -0.39193,-0.0547 -0.16406,-0.0547 -0.30078,-0.16406 -0.21875,-0.17318 -0.21875,-0.42839 0,-0.0911 0.0365,-0.21875 0.66537,-2.36068 0.79297,-6.59897 z m 17.87373,0.1823 q -0.19141,-0.0638 -0.99349,-0.0638 -4.1198,0 -4.12892,3.15366 0,1.13021 0.25521,1.65885 0.25521,0.51954 0.73828,0.89323 0.48308,0.3737 1.02084,0.3737 1.03906,0 1.96875,-0.80208 0.93881,-0.80209 1.10287,-1.77735 z m 0,2.75261 z m -6.07944,3.51823 q -0.42839,-0.63802 -0.61979,-1.46745 -0.19141,-0.82943 -0.19141,-1.94141 0,-1.12109 0.4375,-2.06901 0.84766,-1.85027 3.08985,-2.44272 1.09375,-0.29166 2.16016,-0.29166 0.0182,0 0.0273,0 0.15495,0.009 0.29167,0.009 0.82032,0 0.95704,-0.0273 0.0364,-0.009 0.082,-0.009 0.15494,0 0.41015,0.082 l 0.3099,0.0911 q 0.25521,0.0729 0.51042,0.28255 0.26432,0.20052 0.26432,0.40105 l 0.10026,4.6211 q 0.009,0.51953 0.23698,1.27604 0.41016,1.39454 0.41016,1.85027 0,0.44661 -0.23698,0.72005 -0.23698,0.27344 -0.62891,0.27344 -0.70182,0 -0.9388,-0.6198 -0.19141,-0.47396 -0.30078,-0.89323 -0.82943,0.70183 -1.37631,0.99349 -1.08464,0.56511 -2.11459,0.56511 -1.02995,0 -1.74088,-0.38281 -0.70183,-0.38282 -1.13933,-1.02084 z"
           id="path4" />
        <path
           d="m 134.10542,172.67581 q -0.15495,0 -0.26432,-0.0729 -0.10938,-0.082 -0.18229,-0.1914 -0.0729,-0.11849 -0.10938,-0.25521 -0.0365,-0.13672 -0.0365,-0.25521 0,-0.10938 0.0365,-0.23698 0.0365,-0.1276 0.10938,-0.23698 0.0729,-0.10938 0.16406,-0.18229 0.10026,-0.0729 0.22786,-0.0729 h 6.9271 q 0.13672,0 0.41016,-0.009 0.13672,0 0.28255,0 0.15495,-0.009 0.31901,0 0.32813,0.009 0.65625,0.0547 0.33724,0.0456 0.61068,0.15495 0.27344,0.10938 0.44662,0.30078 0.18229,0.19141 0.18229,0.49219 0,0.32813 -0.20964,0.55599 -0.20052,0.22787 -0.54687,0.22787 -0.62891,0 -1.25782,-0.082 -0.61979,-0.082 -1.26693,-0.082 l -1.46745,-0.0274 v 1.27605 q 0,4.77605 -1.02995,5.92449 -0.20963,0.23697 -0.42838,0.23697 -0.21875,0 -0.39193,-0.0547 -0.16407,-0.0547 -0.30078,-0.16407 -0.21875,-0.17317 -0.21875,-0.42838 0,-0.0911 0.0365,-0.21875 0.66537,-2.36068 0.79297,-6.59897 z m 12.55992,3.65495 q 0,0.64714 0.13672,1.11199 0.13672,0.46484 0.44661,0.76562 0.3099,0.29167 0.8112,0.4375 0.50131,0.13672 1.22136,0.13672 0.64714,0 1.15755,-0.29167 0.51042,-0.30078 0.86589,-0.76562 0.35547,-0.47396 0.54688,-1.0573 0.1914,-0.59244 0.1914,-1.17578 0,-0.54687 -0.13671,-1.02083 -0.12761,-0.47396 -0.41928,-0.82032 -0.28255,-0.35547 -0.74739,-0.55599 -0.45573,-0.20052 -1.11198,-0.20052 -0.58334,0 -1.08464,0.22787 -0.49219,0.22786 -0.875,0.61067 -0.38282,0.38282 -0.64714,0.88412 -0.25521,0.49219 -0.35547,1.02083 z m -1.85938,-0.13671 q 0,-0.9935 0.3737,-1.92319 0.38281,-0.92968 1.03907,-1.64974 0.65625,-0.72005 1.54948,-1.14844 0.89323,-0.4375 1.93229,-0.4375 1.06641,0 1.84115,0.36459 0.78386,0.36458 1.28516,0.98437 0.51042,0.6198 0.75651,1.44011 0.2461,0.82031 0.2461,1.74089 0,0.44661 -0.10938,0.99349 -0.10937,0.53776 -0.31901,1.09375 -0.20964,0.55599 -0.51953,1.08464 -0.3099,0.52865 -0.71094,0.9388 -0.39193,0.40105 -0.88412,0.64714 -0.48307,0.24609 -1.03906,0.24609 h -1.72266 q -0.99349,0 -1.70443,-0.38281 -0.70183,-0.39193 -1.14844,-1.01172 -0.44662,-0.62891 -0.65625,-1.41276 -0.20964,-0.78386 -0.20964,-1.56771 z m 14.9206,1.0026 -0.30989,-0.0273 q -0.91146,-0.0547 -2.03256,-0.40104 -0.76563,-0.23698 -1.30339,-0.63803 -0.58333,-0.4375 -0.96615,-1.10286 -0.38281,-0.66537 -0.38281,-1.66798 0,-0.92057 0.4375,-1.64974 0.45573,-0.61068 0.84766,-0.61068 0.0456,0 0.20964,0.0547 0.40104,0.13672 0.40104,0.46485 0,0.20052 -0.11849,0.45573 -0.32813,0.72005 -0.33724,1.32161 0,0.0182 0,0.0274 0,0.5651 0.31901,0.92057 0.30078,0.33724 0.82943,0.58334 0.57422,0.27343 1.76823,0.47396 0.3737,0.0638 0.76563,0.10026 0.0911,-1.6224 0.11849,-3.54558 0.082,-0.38282 0.22786,-0.54688 0.15495,-0.17318 0.46485,-0.17318 0.009,0 0.0182,0 0.61067,0 0.74739,0.54688 v 2.73438 q 0,5.72397 -0.98437,7.10939 -0.20053,0.28255 -0.41016,0.28255 -0.21875,0 -0.3737,-0.0638 -0.16406,-0.0729 -0.29167,-0.20052 -0.20963,-0.21875 -0.20963,-0.51042 0,-0.11849 0.0365,-0.26432 0.33724,-1.54037 0.52864,-3.67319 z m 7.96616,-4.2474 q -0.30078,0 -0.65625,0.0638 -0.34635,0.0547 -0.69271,0.17318 -0.34635,0.10937 -0.67448,0.28255 -0.32812,0.16406 -0.57422,0.39193 -0.24609,0.21875 -0.40104,0.49219 -0.14583,0.26432 -0.14583,0.58333 0.13672,0 0.5651,-0.009 0.4375,-0.0182 1.00261,-0.0456 0.57422,-0.0365 1.19401,-0.082 0.61979,-0.0547 1.13932,-0.1276 0.52865,-0.082 0.86589,-0.18229 0.33724,-0.10027 0.33724,-0.23698 0,-0.39193 -0.21875,-0.64714 -0.20963,-0.25521 -0.51953,-0.40104 -0.30078,-0.14584 -0.63802,-0.20052 -0.33724,-0.0547 -0.58334,-0.0547 z m -4.96745,2.63412 q 0,-0.93881 0.40104,-1.74089 0.40104,-0.8112 1.08464,-1.40365 0.68359,-0.59245 1.57682,-0.92969 0.90235,-0.34635 1.88672,-0.34635 0.6836,0 1.35808,0.16406 0.67448,0.15495 1.21224,0.51953 0.53776,0.36459 0.86589,0.95703 0.33724,0.59245 0.33724,1.44923 0,0.42838 -0.16406,0.76562 -0.16407,0.33724 -0.43751,0.59245 -0.27343,0.25521 -0.6289,0.4375 -0.35547,0.17318 -0.7474,0.29167 -0.39193,0.11849 -0.79297,0.18229 -0.40104,0.0638 -0.75651,0.082 l -3.28126,0.18229 v 0.0365 q 0,0.45573 0.21875,0.78386 0.21875,0.32812 0.55599,0.54687 0.33724,0.21875 0.73829,0.32813 0.40104,0.10026 0.77474,0.10026 0.45573,0 0.84765,-0.16406 0.40105,-0.16406 0.77475,-0.35547 0.37369,-0.20052 0.73828,-0.36459 0.3737,-0.16406 0.76562,-0.16406 0.3737,0 0.63803,0.21875 0.26432,0.20964 0.26432,0.61068 0,0.3737 -0.22787,0.67448 -0.21875,0.29167 -0.57422,0.52865 -0.35546,0.22786 -0.81119,0.39193 -0.44662,0.16406 -0.89324,0.27343 -0.44661,0.10026 -0.85677,0.14584 -0.41015,0.0547 -0.69271,0.0547 -1.04818,0 -1.83203,-0.39192 -0.78386,-0.40105 -1.30339,-1.06641 -0.51953,-0.67448 -0.78386,-1.54948 -0.2552,-0.88412 -0.2552,-1.84115 z m 11.76694,-3.72787 q -0.10937,1.53125 -0.11849,2.03255 v 0.33724 q 0.29167,-0.20052 0.62891,-0.47396 0.34636,-0.27344 0.70183,-0.57422 0.35547,-0.30989 0.70182,-0.6289 0.35547,-0.31902 0.67448,-0.61068 0.31901,-0.30078 0.58334,-0.54688 0.26432,-0.25521 0.44661,-0.42838 0.10026,-0.15495 0.25521,-0.15495 h 0.28255 q 0.39193,0 0.61979,0.18229 0.22787,0.18229 0.22787,0.58333 0,0.1823 -0.0182,0.29167 -0.0182,0.10026 -0.13672,0.24609 -0.0729,0.0638 -0.33724,0.29167 -0.25521,0.22787 -0.61979,0.54688 -0.35547,0.30989 -0.76563,0.67448 -0.41015,0.36458 -0.78385,0.70182 -0.3737,0.33724 -0.66537,0.6198 -0.29167,0.27343 -0.41016,0.41927 0.65625,0.34635 1.17579,0.74739 0.51953,0.39193 0.9388,0.85678 0.42839,0.46484 0.78386,1.01172 0.35547,0.54687 0.68359,1.20312 v 0.32813 q 0,0.36458 -0.19141,0.59245 -0.1914,0.22786 -0.58333,0.22786 -0.21875,0 -0.39193,-0.0547 -0.17317,-0.0638 -0.30078,-0.28256 -0.18229,-0.35547 -0.41016,-0.73828 -0.21875,-0.39193 -0.48307,-0.75651 -0.26432,-0.3737 -0.57422,-0.70182 -0.3099,-0.33725 -0.67448,-0.58334 -0.35547,-0.25521 -0.77474,-0.40104 -0.41016,-0.15495 -0.875,-0.15495 h -0.0365 q -0.0365,0.1276 -0.0729,0.44662 -0.0273,0.30989 -0.0729,0.70182 -0.0456,0.38281 -0.12761,0.80208 -0.0729,0.41928 -0.21875,0.76563 -0.14583,0.34636 -0.3737,0.57422 -0.21875,0.21875 -0.55599,0.21875 -0.40104,0 -0.59245,-0.26432 -0.18229,-0.26433 -0.18229,-0.63802 v -0.31902 l 0.57422,-3.26302 q 0.082,-0.0729 0.1276,-0.55599 l 0.43751,-4.64845 q 0,-0.21875 0.0456,-0.30989 0.0638,-0.12761 0.17318,-0.21876 0.082,-0.0547 0.2552,-0.14583 0.47396,-0.18229 0.7474,-0.18229 0.3737,0 0.39193,0.33724 v 0.20964 q 0,0.72916 -0.10938,1.6862 z m 6.26174,10.15366 q 0.41015,-0.47396 0.68359,-0.92969 0.27344,-0.45573 0.44662,-0.92057 0.17317,-0.46485 0.27343,-0.94792 0.10026,-0.49219 0.17318,-1.02084 0.0456,-0.29166 0.28255,-0.45573 0.23698,-0.16406 0.51042,-0.16406 0.29167,0 0.48308,0.11849 0.20052,0.11849 0.30989,0.39193 v 0.53776 q 0,0.29167 -0.0729,0.72005 -0.0638,0.42839 -0.20052,0.90235 -0.13672,0.46484 -0.33724,0.92057 -0.20052,0.46485 -0.46484,0.82943 -0.25521,0.3737 -0.57422,0.60156 -0.31901,0.22787 -0.69271,0.22787 -0.18229,0 -0.36458,-0.0911 -0.1823,-0.0911 -0.31902,-0.21875 -0.1276,-0.1276 -0.18229,-0.26432 -0.0456,-0.13672 0.0456,-0.23698 z"
           id="path5" />
        <path
           d="m 94.29285,197.75919 -0.02734,0.11849 -0.0091,0.082 q -0.0091,0.0638 -0.02734,0.30078 -0.01823,0.22787 -0.05469,0.54688 -0.02734,0.30989 -0.07292,0.67448 -0.03646,0.35547 -0.0638,0.67448 -0.02734,0.30989 -0.05469,0.54687 -0.02734,0.22787 -0.02734,0.29167 0.282553,0.0911 0.492189,0.13672 0.209635,0.0456 0.391927,0.0729 0.191407,0.0182 0.382814,0.0456 0.200521,0.0182 0.464844,0.0638 0.428386,0.0638 0.91146,0.10026 0.200521,0.009 0.391928,0.0182 0.282553,0 0.565105,-0.0273 0.473959,-0.0456 0.920575,-0.17318 0.45573,-0.13672 0.820314,-0.38281 0.364584,-0.25521 0.619793,-0.63802 0.264321,-0.38282 0.355471,-0.92058 0.0456,-0.24609 0.0456,-0.48307 0,-0.14584 -0.0182,-0.28256 -0.0456,-0.36458 -0.20052,-0.65625 -0.154948,-0.30078 -0.428386,-0.49218 -0.273438,-0.20053 -0.665365,-0.27344 -0.218751,-0.0365 -0.638022,-0.0638 -0.419272,-0.0365 -0.938804,-0.0365 -0.510418,0 -1.048179,0.0365 -0.537762,0.0365 -0.993492,0.11849 -0.446615,0.082 -0.756511,0.23697 -0.300782,0.14584 -0.337241,0.36459 z m -1.832034,-2.75261 q 0.07292,-0.3737 0.346355,-0.54688 0.209635,-0.1276 0.464844,-0.1276 0.08203,0 0.164063,0.009 0.33724,0.0638 0.492188,0.1823 0.154949,0.11849 0.218751,0.29166 0.07292,0.17318 0.09115,0.38282 0.01823,0.20963 0.07292,0.45573 1.230471,-0.38282 2.488285,-0.40105 0.11849,0 0.227865,-0.009 1.14844,0 2.333338,0.20963 0.720052,0.12761 1.276042,0.51954 0.55599,0.38281 0.90235,0.94792 0.34635,0.55599 0.47396,1.2487 0.0638,0.34635 0.0638,0.69271 0,0.34635 -0.0638,0.71093 -0.16407,0.94792 -0.72006,1.6862 -0.55599,0.73829 -1.339843,1.21225 -0.783856,0.49219 -1.695316,0.67448 -0.45573,0.0911 -0.89323,0.0911 h -0.08203 q -0.428386,0 -0.856772,-0.0729 l -2.606776,-0.35547 q -0.08203,0.44661 -0.127604,0.67448 -0.03646,0.22786 -0.05469,0.34635 -0.01823,0.11849 -0.02734,0.18229 -0.0091,0.0729 -0.02734,0.19141 -0.01823,0.11849 -0.0638,0.34636 -0.03646,0.22786 -0.118489,0.67448 -0.01823,0.10026 -0.0638,0.34635 -0.03646,0.25521 -0.09115,0.52865 -0.04557,0.28255 -0.09115,0.52864 -0.03646,0.25521 -0.05469,0.34636 -0.136719,0.25521 -0.382813,0.3737 -0.23698,0.11849 -0.492189,0.0729 -0.328125,-0.0638 -0.510417,-0.29166 -0.182292,-0.22787 -0.209636,-0.54688 0.04557,-0.23698 0.100261,-0.51042 0.0638,-0.26432 0.118489,-0.54687 0.0638,-0.27344 0.11849,-0.54688 0.05469,-0.27344 0.08203,-0.51953 0.03646,-0.36458 0.09115,-0.92058 0.05469,-0.5651 0.109375,-1.20312 0.0638,-0.64714 0.11849,-1.30339 0.0638,-0.66537 0.109375,-1.22136 0.04557,-0.55599 0.07292,-0.9388 0.02734,-0.39193 0.03646,-0.48307 l -0.01823,-3.26303 q 0,-0.0182 0.0091,-0.0456 0,-0.0182 0,-0.0365 0.0091,-0.0182 0.0091,-0.0365 z m 17.436234,1.1849 q -0.19141,-0.0638 -0.9935,-0.0638 -4.1198,0 -4.12891,3.15365 0,1.13021 0.25521,1.65885 0.25521,0.51954 0.73828,0.89323 0.48308,0.3737 1.02084,0.3737 1.03906,0 1.96875,-0.80208 0.9388,-0.80209 1.10287,-1.77735 z m 0,2.75261 z m -6.07944,3.51823 q -0.42839,-0.63802 -0.6198,-1.46745 -0.1914,-0.82943 -0.1914,-1.94141 0,-1.12109 0.4375,-2.06901 0.84766,-1.85027 3.08985,-2.44272 1.09375,-0.29166 2.16016,-0.29166 0.0182,0 0.0273,0 0.15495,0.009 0.29167,0.009 0.82031,0 0.95703,-0.0273 0.0365,-0.009 0.082,-0.009 0.15495,0 0.41016,0.082 l 0.3099,0.0911 q 0.25521,0.0729 0.51041,0.28255 0.26433,0.20053 0.26433,0.40105 l 0.10026,4.6211 q 0.009,0.51953 0.23698,1.27604 0.41016,1.39454 0.41016,1.85027 0,0.44661 -0.23698,0.72005 -0.23698,0.27344 -0.62891,0.27344 -0.70183,0 -0.93881,-0.6198 -0.1914,-0.47395 -0.30078,-0.89323 -0.82943,0.70183 -1.3763,0.9935 -1.08464,0.5651 -2.11459,0.5651 -1.02995,0 -1.74089,-0.38281 -0.70182,-0.38282 -1.13932,-1.02084 z m 10.19923,-1.60417 q 0.10026,-0.59245 0.17318,-1.25781 0.18229,-1.88672 0.22787,-3.31772 h -0.10026 q -0.34636,0 -0.53777,-0.20963 -0.1914,-0.20964 -0.1914,-0.56511 0,-0.30989 0.20052,-0.52864 0.20052,-0.21875 0.51042,-0.36459 0.26432,-0.1276 0.71094,-0.21875 0.47395,-0.10026 0.78385,-0.1276 0.52865,-0.0456 0.73828,-0.0547 0.34636,-0.009 0.57422,-0.009 0.63802,0 1.17579,0.15495 0.55599,0.15495 0.9388,0.47396 0.41016,0.32813 0.62891,0.8112 0.22786,0.49219 0.22786,1.17578 0,0.72006 -0.21875,1.1849 -0.1914,0.40105 -0.47396,0.66537 0.28256,0.1276 0.50131,0.28255 0.37369,0.26432 0.57422,0.62891 0.20963,0.3737 0.20963,0.9388 v 1.15756 q 0,0.34635 -0.15495,0.6289 -0.15494,0.28256 -0.41015,0.51042 -0.29167,0.25521 -0.59245,0.41927 -0.32813,0.17318 -0.67448,0.29167 -0.40105,0.13672 -0.67448,0.18229 -0.32813,0.0547 -0.59245,0.0547 -0.51042,0 -1.09375,-0.1276 -0.58334,-0.12761 -1.13021,-0.36459 l -0.29167,-0.1276 q -0.0547,0.082 -0.11849,0.14583 -0.20964,0.23698 -0.42839,0.23698 -0.21875,0 -0.39193,-0.0547 -0.16406,-0.0547 -0.30078,-0.16406 -0.21875,-0.17318 -0.21875,-0.42839 0,-0.10026 0.0365,-0.21875 0.0547,-0.20052 0.10938,-0.41927 -0.11849,-0.11849 -0.21875,-0.24609 -0.0365,-0.17318 -0.0547,-0.20052 -0.0365,-0.0729 -0.0365,-0.19141 0,-0.13672 0.0729,-0.30078 0.0638,-0.14584 0.18229,-0.25521 0.1276,-0.11849 0.25521,-0.16406 z m 1.95053,-4.87631 v 1.38542 q 0,0.48307 -0.009,0.92969 0.46485,-0.11849 0.90235,-0.21875 0.42838,-0.0911 0.8112,-0.27344 0.36458,-0.17318 0.5651,-0.40104 0.21875,-0.25521 0.21875,-0.61979 0,-0.31901 -0.10937,-0.51042 -0.10938,-0.19141 -0.30078,-0.29167 -0.19141,-0.10026 -0.4375,-0.1276 -0.33724,-0.0365 -0.53777,-0.0365 -0.34635,0 -0.69271,0.0729 -0.1914,0.0365 -0.41015,0.0911 z m -0.0729,3.64584 q -0.082,1.13021 -0.24609,1.94141 0.15495,0.082 0.35547,0.17318 0.38281,0.17318 0.80208,0.29167 0.40104,0.10937 0.76563,0.10937 0.28255,0 0.51042,-0.0547 0.29166,-0.0729 0.48307,-0.18229 0.20963,-0.11849 0.35547,-0.32812 0.13672,-0.19141 0.13672,-0.46485 0,-0.51042 -0.20964,-0.79297 -0.20963,-0.27344 -0.57422,-0.45573 -0.4375,-0.20963 -0.80208,-0.26432 -0.0182,0 -0.41927,-0.082 -0.40105,0.082 -0.41928,0.082 -0.15494,0.0273 -0.73828,0.0273 z m 8.03908,-0.28255 q -0.18229,3.0625 -0.97526,3.94662 -0.20964,0.23698 -0.42839,0.23698 -0.21875,0 -0.39193,-0.0547 -0.16406,-0.0547 -0.30078,-0.16406 -0.21875,-0.17318 -0.21875,-0.42839 0,-0.10026 0.0365,-0.21875 0.72917,-2.58854 0.8112,-7.4284 0.082,-0.30989 0.23698,-0.45573 0.16406,-0.14583 0.48307,-0.14583 0.65625,0 0.80209,0.45573 v 2.27865 q 0,0.48307 -0.009,0.92058 0.19141,-0.0638 0.44662,-0.11849 l 1.6224,-0.0547 q 1.16666,0.1276 1.75,0.23698 0.10937,-1.42188 0.13672,-3.1172 0.082,-0.30989 0.23698,-0.45573 0.16406,-0.14583 0.48307,-0.14583 0.65625,0 0.80209,0.45573 v 2.27865 q 0,4.77605 -1.02995,5.92449 -0.20964,0.23698 -0.42839,0.23698 -0.21875,0 -0.39193,-0.0547 -0.16406,-0.0547 -0.30078,-0.16406 -0.21875,-0.17318 -0.21875,-0.42839 0,-0.10026 0.0365,-0.21875 0.36458,-1.29427 0.5651,-3.15365 -0.41015,0.082 -1.0664,0.082 -0.51042,0 -0.8112,-0.009 l -1.59506,-0.17318 q -0.15495,-0.0273 -0.28255,-0.0638 z m 8.44012,0.31901 q 0,0.64714 0.13672,1.11198 0.13672,0.46485 0.44661,0.76563 0.3099,0.29166 0.8112,0.4375 0.50131,0.13672 1.22136,0.13672 0.64714,0 1.15755,-0.29167 0.51042,-0.30078 0.86589,-0.76563 0.35547,-0.47396 0.54688,-1.05729 0.1914,-0.59245 0.1914,-1.17578 0,-0.54688 -0.13672,-1.02084 -0.1276,-0.47396 -0.41927,-0.82031 -0.28255,-0.35547 -0.74739,-0.55599 -0.45573,-0.20052 -1.11199,-0.20052 -0.58333,0 -1.08463,0.22786 -0.49219,0.22787 -0.875,0.61068 -0.38282,0.38281 -0.64714,0.88412 -0.25521,0.49218 -0.35547,1.02083 z m -1.85938,-0.13672 q 0,-0.99349 0.3737,-1.92318 0.38281,-0.92969 1.03906,-1.64974 0.65626,-0.72006 1.54949,-1.14844 0.89323,-0.4375 1.93229,-0.4375 1.06641,0 1.84115,0.36458 0.78386,0.36459 1.28516,0.98438 0.51042,0.61979 0.75651,1.44011 0.24609,0.82031 0.24609,1.74088 0,0.44662 -0.10937,0.99349 -0.10938,0.53777 -0.31901,1.09376 -0.20964,0.55599 -0.51953,1.08463 -0.3099,0.52865 -0.71094,0.93881 -0.39193,0.40104 -0.88412,0.64713 -0.48307,0.2461 -1.03906,0.2461 h -1.72266 q -0.99349,0 -1.70443,-0.38281 -0.70183,-0.39193 -1.14844,-1.01172 -0.44662,-0.62891 -0.65625,-1.41277 -0.20964,-0.78385 -0.20964,-1.56771 z m 12.70575,8.11199 q 0,-0.6927 0.10026,-1.35807 0.10938,-0.65625 0.27344,-1.30339 0.16406,-0.63802 0.36459,-1.28516 0.20052,-0.63802 0.39192,-1.30338 v -0.20053 q -0.82031,0 -1.41276,-0.30078 -0.59245,-0.30078 -1.00261,-0.80208 -0.41015,-0.50131 -0.66536,-1.15756 -0.25521,-0.66536 -0.40104,-1.38542 -0.13672,-0.72005 -0.1823,-1.45833 -0.0456,-0.73828 -0.0456,-1.39454 0,-0.20963 0.0273,-0.41927 0.0365,-0.21875 0.1276,-0.39192 0.0911,-0.17318 0.25521,-0.28256 0.16406,-0.10937 0.42838,-0.10937 0.2461,0 0.47396,0.16406 0.23698,0.15495 0.29167,0.40104 0.009,0.082 0.0273,0.36459 0.0182,0.27343 0.0456,0.68359 0.0365,0.40104 0.0911,0.88412 0.0547,0.48307 0.13672,0.98437 0.082,0.49219 0.19141,0.95704 0.11849,0.46484 0.27344,0.82943 0.15495,0.35547 0.35547,0.57422 0.20963,0.21875 0.46484,0.21875 0.49219,0 0.82943,-0.23698 0.34636,-0.2461 0.59245,-0.64714 0.25521,-0.40104 0.42839,-0.90235 0.18229,-0.51041 0.33724,-1.03906 0.15494,-0.53776 0.31901,-1.03906 0.16406,-0.51042 0.3737,-0.91146 0.21875,-0.40105 0.51041,-0.63803 0.29167,-0.24609 0.72006,-0.24609 0.39192,0 0.57422,0.26432 0.1914,0.25521 0.1914,0.62891 v 0.23698 l -2.66146,6.69923 q -0.54688,1.40365 -0.88412,2.85287 -0.32812,1.45834 -0.32812,2.95313 -0.0274,0.30078 -0.28255,0.42839 -0.2461,0.13672 -0.51954,0.13672 -0.13672,0 -0.28255,-0.0365 -0.14583,-0.0365 -0.26432,-0.11849 -0.10938,-0.082 -0.19141,-0.20964 -0.0729,-0.11849 -0.0729,-0.28255 z m 8.76825,-8.13022 q 0.0365,0.46485 0.31901,0.8112 0.28255,0.33724 0.70182,0.57422 0.42839,0.22787 0.94792,0.3737 0.51953,0.14583 1.02995,0.22786 0.51953,0.0729 0.97526,0.10027 0.45573,0.0273 0.76563,0.0273 v -0.22787 q -0.009,-0.13672 -0.009,-0.51953 0.009,-0.39193 0.0273,-0.90234 0.0182,-0.51042 0.0365,-1.08464 0.0182,-0.57422 0.0365,-1.08464 0.0182,-0.51953 0.0182,-0.90234 0.009,-0.39193 0,-0.52865 h -0.13672 q -0.25521,-0.009 -0.72917,-0.0273 -0.15495,-0.009 -0.31901,0 -0.32813,0 -0.69271,0.0273 -0.54688,0.0456 -1.11198,0.20052 -0.55599,0.14583 -0.99349,0.49219 -0.4375,0.34635 -0.69271,0.9388 -0.19141,0.45573 -0.19141,1.11198 0,0.1823 0.0182,0.39193 z m -1.90495,5.32293 v -0.10026 -0.14584 -0.14583 -0.10026 q 0.0729,-0.23698 0.31901,-0.39193 0.25521,-0.15495 0.49219,-0.15495 0.3737,0 0.57422,0.11849 0.20963,0.12761 0.35547,0.3099 0.14583,0.18229 0.29166,0.39193 0.14584,0.21875 0.40105,0.40104 0.26432,0.19141 0.68359,0.30078 0.36458,0.10026 0.92969,0.10026 h 0.0911 0.10026 q 0.22786,0 0.51041,-0.009 0.28256,0 0.57422,-0.0547 0.29167,-0.0456 0.56511,-0.15495 0.27344,-0.10026 0.46484,-0.30078 0.19141,-0.20052 0.28256,-0.52865 0.0547,-0.1914 0.0547,-0.4375 0,-0.17317 -0.0273,-0.36458 -0.59245,-0.0365 -1.3125,-0.10938 -0.72006,-0.082 -1.44922,-0.24609 -0.72917,-0.17318 -1.42188,-0.45573 -0.6836,-0.28255 -1.23047,-0.72005 -0.53776,-0.44662 -0.875,-1.0573 -0.33724,-0.61979 -0.35547,-1.46745 v -0.23698 q 0,-1.15755 0.31901,-1.95964 0.35547,-0.88411 0.95703,-1.4401 0.61068,-0.55599 1.38542,-0.83855 0.78386,-0.29166 1.59506,-0.41015 0.82031,-0.11849 1.59505,-0.12761 0.78386,-0.009 1.3763,-0.009 h 0.76563 q 0.0638,0.0365 0.17318,0.0911 0.10937,0.0456 0.20963,0.11849 0.10026,0.0638 0.17318,0.14584 0.0729,0.082 0.0729,0.18229 l -0.30078,9.30601 q 0,0.57421 -0.19141,1.01172 -0.18229,0.44661 -0.5013,0.77474 -0.3099,0.33724 -0.72917,0.55599 -0.41927,0.22786 -0.88412,0.36458 -0.46484,0.14583 -0.95703,0.20052 -0.48307,0.0638 -0.92969,0.0638 -0.78385,0 -1.50391,-0.20052 -0.72005,-0.20052 -1.29427,-0.53776 -0.56511,-0.33724 -0.92969,-0.79297 -0.35547,-0.44661 -0.41927,-0.9388 z m 16.9805,-8.64064 q -0.19141,-0.0638 -0.99349,-0.0638 -4.1198,0 -4.12892,3.15365 0,1.13021 0.25521,1.65885 0.25521,0.51954 0.73829,0.89323 0.48307,0.3737 1.02083,0.3737 1.03906,0 1.96875,-0.80208 0.93881,-0.80209 1.10287,-1.77735 z m 0,2.75261 z m -6.07944,3.51823 q -0.42839,-0.63802 -0.61979,-1.46745 -0.19141,-0.82943 -0.19141,-1.94141 0,-1.12109 0.4375,-2.06901 0.84766,-1.85027 3.08985,-2.44272 1.09375,-0.29166 2.16016,-0.29166 0.0182,0 0.0273,0 0.15494,0.009 0.29166,0.009 0.82032,0 0.95704,-0.0273 0.0365,-0.009 0.082,-0.009 0.15495,0 0.41015,0.082 l 0.3099,0.0911 q 0.25521,0.0729 0.51042,0.28255 0.26432,0.20053 0.26432,0.40105 l 0.10026,4.6211 q 0.009,0.51953 0.23698,1.27604 0.41016,1.39454 0.41016,1.85027 0,0.44661 -0.23698,0.72005 -0.23698,0.27344 -0.62891,0.27344 -0.70182,0 -0.9388,-0.6198 -0.19141,-0.47395 -0.30078,-0.89323 -0.82943,0.70183 -1.37631,0.9935 -1.08464,0.5651 -2.11459,0.5651 -1.02995,0 -1.74088,-0.38281 -0.70183,-0.38282 -1.13933,-1.02084 z m 9.88934,0.66537 v -1.58594 q 0,-2.04167 0.98437,-3.91017 0.98438,-1.8776 2.99871,-3.65495 0.0729,-0.0638 0.27344,0.0547 0.20963,0.10937 0.49218,0.36458 0.28256,0.2461 0.61068,0.61979 0.33724,0.36459 0.67448,0.8112 0.34636,0.44662 0.65625,0.95704 0.31902,0.5013 0.56511,1.02083 0.24609,0.51042 0.39193,1.02084 0.14583,0.51041 0.14583,0.97526 0,0.19141 0.0182,0.57422 0.0182,0.38281 0.0182,0.84766 0,0.45573 -0.0456,0.9388 -0.0365,0.47396 -0.16407,0.875 -0.11849,0.39193 -0.34635,0.63802 -0.21875,0.25521 -0.58334,0.25521 -0.36458,0 -0.61067,-0.23698 -0.23698,-0.23698 -0.23698,-0.61068 0,-0.41015 0.0365,-0.81119 0.0364,-0.40105 0.082,-0.80209 0.0547,-0.41016 0.0911,-0.8112 0.0365,-0.40104 0.0365,-0.8112 0,-0.33724 -0.13672,-0.7474 -0.13672,-0.41015 -0.35547,-0.82031 -0.20963,-0.41016 -0.46484,-0.78385 -0.25521,-0.38282 -0.49219,-0.65626 -0.23698,-0.27343 -0.42839,-0.40104 -0.18229,-0.13672 -0.26432,-0.0547 -0.44662,0.46485 -0.79297,1.0573 -0.34636,0.59245 -0.61068,1.23958 -0.26432,0.64714 -0.44661,1.31251 -0.1823,0.65625 -0.29167,1.26692 -0.10938,0.60157 -0.15495,1.13022 -0.0365,0.4375 -0.0365,0.76562 v 0.12761 q -0.0273,0.11849 -0.10937,0.22786 -0.082,0.10938 -0.20052,0.18229 -0.11849,0.0729 -0.25521,0.11849 -0.12761,0.0456 -0.2461,0.0456 -0.32812,0 -0.51953,-0.20964 -0.19141,-0.21875 -0.28255,-0.51953 z m 10.76434,-11.37502 q 0,-0.22787 0.082,-0.42839 0.082,-0.20963 0.23698,-0.35547 0.16406,-0.15495 0.35546,-0.24609 0.20053,-0.0911 0.44662,-0.0911 0.22787,0 0.42839,0.0911 0.20963,0.0911 0.36458,0.24609 0.15495,0.14584 0.23698,0.35547 0.0911,0.20052 0.0911,0.42839 0,0.23698 -0.0911,0.4375 -0.082,0.20052 -0.23698,0.35547 -0.15495,0.15495 -0.36458,0.23698 -0.20052,0.082 -0.42839,0.082 -0.24609,0 -0.44662,-0.082 -0.1914,-0.082 -0.35546,-0.23698 -0.15495,-0.15495 -0.23698,-0.35547 -0.082,-0.20052 -0.082,-0.4375 z m 3.2448,-0.0273 q -0.009,-0.18229 0.082,-0.41927 0.0729,-0.20052 0.22787,-0.34635 0.14583,-0.15495 0.33724,-0.23698 0.1914,-0.0911 0.41927,-0.0911 0.21875,0 0.41927,0.0911 0.20052,0.082 0.34636,0.23698 0.14583,0.14583 0.23698,0.34635 0.082,0.20052 0.082,0.41927 0,0.23698 -0.082,0.42839 -0.0911,0.19141 -0.23698,0.34635 -0.14584,0.14584 -0.34636,0.22787 -0.20052,0.0912 -0.41927,0.0912 -0.22787,0 -0.41927,-0.0912 -0.19141,-0.082 -0.33724,-0.22787 -0.13672,-0.13671 -0.22787,-0.34635 -0.082,-0.16406 -0.082,-0.42839 z m -5.01303,8.97788 q -0.26432,-0.90234 -0.26432,-1.84114 0,-0.93881 0.40104,-1.74089 0.40104,-0.8112 1.08464,-1.40365 0.68359,-0.59245 1.58594,-0.93881 0.875,-0.33724 1.87761,-0.33724 0.68359,0 1.35807,0.15495 0.65625,0.14584 1.21224,0.52865 0.53776,0.36458 0.875,0.95703 0.32813,0.57422 0.32813,1.44922 0,0.42839 -0.16406,0.76563 -0.16407,0.33724 -0.4375,0.59245 -0.27344,0.25521 -0.62891,0.42839 -0.40104,0.20052 -0.7474,0.30078 -0.39193,0.11849 -0.79297,0.18229 -0.40104,0.0638 -0.75651,0.082 l -3.28126,0.18229 v 0.0365 q 0,0.45573 0.21875,0.78386 0.21876,0.32812 0.556,0.54687 0.33724,0.21875 0.73828,0.32813 0.36458,0.10026 0.77474,0.10026 0.45573,0 0.85677,-0.16406 0.35547,-0.14584 0.76563,-0.35547 0.5013,-0.25521 0.74739,-0.36459 0.3737,-0.16406 0.75652,-0.16406 0.3737,0 0.63802,0.21875 0.26432,0.21875 0.26432,0.61068 0,0.3737 -0.21875,0.66536 -0.22786,0.30079 -0.58333,0.52865 -0.39193,0.24609 -0.80209,0.40104 -0.42838,0.15495 -0.90234,0.27344 -0.38282,0.0911 -0.85678,0.14583 -0.49218,0.0547 -0.6927,0.0547 -1.04818,0 -1.83204,-0.40104 -0.79297,-0.41016 -1.30339,-1.05729 -0.51953,-0.65625 -0.77474,-1.54949 z m 4.70314,-4.47526 q -0.30079,0 -0.65626,0.0638 -0.34635,0.0547 -0.69271,0.16406 -0.34635,0.11849 -0.67448,0.29167 -0.35547,0.18229 -0.57422,0.38281 -0.23698,0.20964 -0.39192,0.49219 -0.15495,0.28255 -0.15495,0.59245 0.13672,0 0.57422,-0.009 0.20963,0 1.0026,-0.0547 0.56511,-0.0273 1.1849,-0.0729 0.47396,-0.0365 1.14844,-0.1276 0.45573,-0.0638 0.85677,-0.1823 0.33724,-0.10026 0.33724,-0.23698 0,-0.39192 -0.20963,-0.64713 -0.20052,-0.2461 -0.51953,-0.40105 -0.29167,-0.14583 -0.64714,-0.20052 -0.33724,-0.0547 -0.58333,-0.0547 z m 6.69011,3.11719 q -0.18229,3.0625 -0.97526,3.94662 -0.20964,0.23698 -0.42839,0.23698 -0.21875,0 -0.39193,-0.0547 -0.16406,-0.0547 -0.30078,-0.16406 -0.21875,-0.17318 -0.21875,-0.42839 0,-0.10026 0.0365,-0.21875 0.72917,-2.58854 0.8112,-7.4284 0.082,-0.30989 0.23698,-0.45573 0.16406,-0.14583 0.48307,-0.14583 0.65625,0 0.80209,0.45573 v 2.27865 q 0,0.48307 -0.009,0.92058 0.19141,-0.0638 0.44662,-0.11849 l 1.6224,-0.0547 q 1.16667,0.1276 1.75,0.23698 0.10938,-1.42188 0.13672,-3.1172 0.082,-0.30989 0.23698,-0.45573 0.16406,-0.14583 0.48307,-0.14583 0.65625,0 0.80209,0.45573 v 2.27865 q 0,4.77605 -1.02995,5.92449 -0.20964,0.23698 -0.42839,0.23698 -0.21875,0 -0.39193,-0.0547 -0.16406,-0.0547 -0.30078,-0.16406 -0.21875,-0.17318 -0.21875,-0.42839 0,-0.10026 0.0365,-0.21875 0.36458,-1.29427 0.56511,-3.15365 -0.41016,0.082 -1.06641,0.082 -0.51042,0 -0.8112,-0.009 l -1.59506,-0.17318 q -0.15495,-0.0273 -0.28255,-0.0638 z m 9.1146,0 q -0.18229,3.0625 -0.97526,3.94662 -0.20964,0.23698 -0.42839,0.23698 -0.21875,0 -0.39192,-0.0547 -0.16407,-0.0547 -0.30079,-0.16406 -0.21875,-0.17318 -0.21875,-0.42839 0,-0.10026 0.0365,-0.21875 0.72917,-2.58854 0.8112,-7.4284 0.082,-0.30989 0.23698,-0.45573 0.16406,-0.14583 0.48307,-0.14583 0.65626,0 0.80209,0.45573 v 2.27865 q 0,0.48307 -0.009,0.92058 0.19141,-0.0638 0.44662,-0.11849 l 1.6224,-0.0547 q 1.16667,0.1276 1.75,0.23698 0.10938,-1.42188 0.13672,-3.1172 0.082,-0.30989 0.23698,-0.45573 0.16406,-0.14583 0.48307,-0.14583 0.65626,0 0.80209,0.45573 v 2.27865 q 0,4.77605 -1.02995,5.92449 -0.20964,0.23698 -0.42839,0.23698 -0.21875,0 -0.39192,-0.0547 -0.16407,-0.0547 -0.30079,-0.16406 -0.21875,-0.17318 -0.21875,-0.42839 0,-0.10026 0.0365,-0.21875 0.36459,-1.29427 0.56511,-3.15365 -0.41016,0.082 -1.06641,0.082 -0.51042,0 -0.8112,-0.009 l -1.59506,-0.17318 q -0.15494,-0.0273 -0.28255,-0.0638 z m 16.38805,-4.71225 q 0.65625,0 0.80209,0.45573 v 2.27865 q 0,4.77605 -1.02995,5.92449 -0.20964,0.23698 -0.42839,0.23698 -0.21875,0 -0.39193,-0.0547 -0.16406,-0.0547 -0.30078,-0.16406 -0.21875,-0.17318 -0.21875,-0.42839 0,-0.10026 0.0365,-0.21875 0.72917,-2.58854 0.8112,-7.4284 0.082,-0.30989 0.23698,-0.45573 0.16406,-0.14583 0.48307,-0.14583 z m -3.11719,4.32032 q 0.3737,0.26432 0.57422,0.62891 0.20964,0.3737 0.20964,0.9388 v 1.15756 q 0,0.34635 -0.15495,0.6289 -0.15495,0.28256 -0.41016,0.51042 -0.29167,0.25521 -0.59245,0.41927 -0.32812,0.17318 -0.67448,0.29167 -0.40104,0.13672 -0.67448,0.18229 -0.32812,0.0547 -0.59245,0.0547 -0.51042,0 -1.09375,-0.1276 -0.58333,-0.12761 -1.13021,-0.36459 l -0.29167,-0.1276 q -0.0547,0.082 -0.11849,0.14583 -0.20963,0.23698 -0.42838,0.23698 -0.21875,0 -0.39193,-0.0547 -0.16406,-0.0547 -0.30078,-0.16406 -0.21875,-0.17318 -0.21875,-0.42839 0,-0.10026 0.0365,-0.21875 0.0547,-0.20052 0.10938,-0.41927 -0.11849,-0.11849 -0.21875,-0.24609 -0.0365,-0.17318 -0.0547,-0.20052 -0.0365,-0.0729 -0.0365,-0.19141 0,-0.13672 0.0729,-0.30078 0.0638,-0.14584 0.18229,-0.25521 0.12761,-0.11849 0.25521,-0.16406 l 0.0729,-0.0274 q 0.10026,-0.59245 0.17318,-1.25781 0.18229,-1.88672 0.22786,-3.31772 0.14583,-1.79557 0.59245,-1.88672 0.47396,-0.10026 0.8112,-0.1276 h 0.009 q 0.20052,0 0.20964,0.68359 0,0.40104 -0.0729,1.02995 v 1.38542 q 0,0.48307 -0.009,0.92969 0.44661,-0.11849 1.01172,-0.11849 0.0273,0.009 0.0456,0.009 0.58334,0 1.17578,0.10027 0.59245,0.10026 1.19402,0.38281 0.28255,0.1276 0.5013,0.28255 z m -3.99219,0.67448 q -0.082,1.13021 -0.2461,1.94141 0.15495,0.082 0.35547,0.17318 0.38281,0.17318 0.80209,0.29167 0.40104,0.10937 0.76562,0.10937 0.28255,0 0.51042,-0.0547 0.29167,-0.0729 0.48307,-0.18229 0.20964,-0.11849 0.35547,-0.32812 0.13672,-0.19141 0.13672,-0.46485 0,-0.51042 -0.20963,-0.79297 -0.20964,-0.27344 -0.57422,-0.45573 -0.4375,-0.20963 -0.80209,-0.26432 -0.0182,0 -0.41927,-0.082 -0.40104,0.082 -0.41927,0.082 -0.15495,0.0273 -0.73828,0.0273 z m 13.37111,0.71094 q -0.32813,0 -0.59245,0.23698 -0.25521,0.23698 -0.49219,0.59245 -0.22786,0.35547 -0.45573,0.77474 -0.22786,0.41016 -0.48307,0.76563 -0.2461,0.35547 -0.54688,0.59245 -0.29166,0.23697 -0.67448,0.23697 -0.31901,0 -0.54687,-0.20052 -0.21875,-0.20963 -0.21875,-0.55599 0,-0.11849 0.0456,-0.22786 0.0547,-0.11849 0.10937,-0.23698 0.40105,-0.4375 0.73829,-0.78386 0.33724,-0.35547 0.64713,-0.68359 0.3099,-0.33724 0.60157,-0.6836 0.29166,-0.35547 0.61067,-0.80208 0,-0.0274 0.0365,-0.0729 0.0365,-0.0456 0.0365,-0.0729 v -0.0365 q 0,-0.25521 -0.14583,-0.49219 -0.14584,-0.23698 -0.34636,-0.46485 -0.20052,-0.22786 -0.41015,-0.45573 -0.20052,-0.22786 -0.31901,-0.47396 -0.0456,-0.0911 -0.14584,-0.2552 -0.0911,-0.16407 -0.20963,-0.36459 -0.10938,-0.20963 -0.23698,-0.42838 -0.11849,-0.22787 -0.22787,-0.42839 -0.10937,-0.20964 -0.20052,-0.3737 -0.082,-0.16406 -0.11849,-0.24609 0,-0.0182 -0.0182,-0.0638 -0.009,-0.0456 -0.0273,-0.0911 -0.009,-0.0547 -0.0273,-0.0911 -0.009,-0.0456 -0.009,-0.0638 v -0.0365 q 0,-0.34635 0.22786,-0.57422 0.22787,-0.22786 0.57422,-0.22786 0.20052,0 0.38282,0.0911 0.18229,0.0911 0.26432,0.29167 l 1.53125,2.70704 q 0,0.0182 0.0547,0.10937 0.0547,0.082 0.12761,0.19141 0.0729,0.10937 0.14583,0.21875 0.082,0.10937 0.1276,0.16406 l 0.0729,0.082 q 0.28255,-0.28255 0.72917,-0.70182 0.45573,-0.42839 0.95703,-0.875 0.51042,-0.45573 1.02995,-0.89323 0.51953,-0.44662 0.94792,-0.77475 0.11849,-0.0547 0.22786,-0.10026 0.10938,-0.0547 0.22787,-0.0547 0.34635,0 0.55599,0.22786 0.20964,0.21875 0.20964,0.53776 0,0.17318 -0.0182,0.28256 -0.0182,0.10937 -0.13672,0.24609 -0.38282,0.32813 -0.85678,0.68359 -0.46484,0.35547 -0.9388,0.7474 -0.47396,0.38282 -0.92057,0.80209 -0.44662,0.41927 -0.79297,0.875 -0.0273,0.0638 -0.0547,0.10026 -0.0182,0.0365 -0.0182,0.0911 v 0.0365 l 2.97136,3.10808 q 0.14583,0.17318 0.18229,0.3099 0.0456,0.13672 0.0456,0.33724 0,0.38281 -0.20963,0.55599 -0.20052,0.17318 -0.54688,0.17318 -0.30989,0 -0.62891,-0.1823 -0.30989,-0.1914 -0.61979,-0.48307 -0.30989,-0.30078 -0.61068,-0.67448 -0.30078,-0.3737 -0.58333,-0.73828 -0.28255,-0.36459 -0.53776,-0.6836 -0.2461,-0.31901 -0.45573,-0.51953 z"
           id="path6" />
        <path
           style="font-size:37.3333px"
           d="m 151.39128,265.08213 v -0.0182 -0.0182 -0.0182 l 1.25781,-4.66666 q 0.56511,-2.02344 0.85677,-4.13802 0.3099,-2.13281 0.45573,-4.30208 0.14584,-2.16927 0.1823,-4.33854 0.0182,-2.05989 0.0182,-4.08333 h -0.0729 q -0.14584,0 -0.3099,0.0182 -0.14583,0 -0.29166,0.0182 -0.14584,0.0182 -0.29167,0.0547 -0.14583,0.0182 -0.27344,0.0547 -0.58333,0.14583 -1.14843,0.30989 -0.56511,0.18229 -1.09375,0.32813 -0.56511,0.14583 -1.1849,0.14583 -0.76562,0 -1.20312,-0.40104 -0.4375,-0.40104 -0.4375,-1.1849 0,-0.82031 0.72916,-1.34895 0.67448,-0.51042 1.73177,-0.85677 0.12761,-0.0365 0.25521,-0.0729 0.14583,-0.0365 0.27344,-0.0729 0.14583,-0.0365 0.29167,-0.0729 0.14583,-0.0365 0.29166,-0.0729 0.58333,-0.1276 1.22135,-0.21875 1.29427,-0.20052 2.53386,-0.29167 1.25781,-0.0911 2.3151,-0.10937 0.52864,-0.0182 0.91146,-0.0182 0.20052,0 0.36458,0 0.18229,0 0.32812,0 1.20313,0 2.625,0.10938 1.42188,0.10937 2.82552,0.36458 0.71094,0.14583 1.40364,0.32812 0.34636,0.0911 0.67448,0.20052 0.32813,0.10938 0.65625,0.23698 0.0729,0.0182 0.12761,0.0547 0.0729,0.0182 0.1276,0.0547 0.0729,0.0182 0.12761,0.0547 0.0547,0.0182 0.10937,0.0547 0.0729,0.0182 0.14583,0.0547 0.0729,0.0365 0.14584,0.0729 0.0729,0.0365 0.14583,0.0729 0.0729,0.0365 0.14583,0.0729 0.0729,0.0365 0.14584,0.0729 0.29166,0.16406 0.5651,0.34635 0.1276,0.0911 0.25521,0.20052 0.1276,0.0911 0.25521,0.18229 1.02083,0.80209 1.62239,1.96875 0.60156,1.16667 0.60156,2.73437 0,0.41927 -0.0547,0.82032 -0.0547,0.38281 -0.16407,0.74739 -0.0911,0.36458 -0.25521,0.69271 -0.14583,0.32812 -0.34635,0.61979 -0.1276,0.20052 -0.29167,0.38281 -0.14583,0.16406 -0.30989,0.34636 -0.32813,0.34635 -0.69271,0.63802 -0.36458,0.27343 -0.78385,0.52864 -0.61979,0.36458 -1.33073,0.61979 -0.34635,0.12761 -0.71094,0.25521 -0.36458,0.10938 -0.74739,0.20052 -0.12761,0.0365 -0.25521,0.0729 -0.1276,0.0182 -0.25521,0.0547 -0.1276,0.0182 -0.25521,0.0365 -0.1276,0.0182 -0.25521,0.0547 -0.10937,0.0182 -0.23697,0.0365 -0.12761,0.0182 -0.25521,0.0365 -0.36459,0.0547 -0.72917,0.0911 -0.36458,0.0365 -0.72916,0.0547 l -5.90625,0.3099 -1.25781,7.94791 q -0.0182,0.0911 -0.0547,0.21875 -0.0182,0.10937 -0.0365,0.2552 -0.0182,0.14584 -0.0547,0.32813 -0.0729,0.52864 -0.20052,1.14844 -0.12761,0.61979 -0.32813,1.23958 -0.20052,0.65625 -0.51042,1.18489 -0.30989,0.54688 -0.72916,0.89323 -0.45573,0.36458 -1.03906,0.36458 -0.38282,0 -0.69271,-0.10937 -0.14583,-0.0547 -0.29167,-0.14583 -0.1276,-0.0911 -0.23698,-0.20052 -0.10937,-0.10938 -0.18229,-0.23698 -0.0729,-0.14584 -0.1276,-0.3099 -0.10938,-0.30989 -0.10938,-0.67448 z m 11.39322,-21.80207 q -1.05729,-0.10937 -2.0052,-0.1276 -0.96615,-0.0182 -1.64063,-0.0182 -0.0182,0 -0.0365,0 -0.0182,0 -0.0365,0 h -0.0729 q -0.0365,0 -0.10938,0 -0.0182,0 -0.0547,0 -0.0182,0 -0.0547,0 l -0.45573,0.0182 q -0.23698,0 -0.40104,0.0182 l -0.0911,0.0182 -0.0365,0.0729 q -0.0182,0.41927 -0.0365,0.78385 0,0.20052 -0.0182,0.40104 0,0.18229 0,0.36458 -0.0182,0.38282 -0.0365,0.7474 -0.0182,0.47396 -0.0365,0.98437 0,0.16406 -0.0182,0.34636 0,0.16406 -0.0182,0.32812 0,0.16406 0,0.32813 -0.0182,0.47395 -0.0365,0.91145 0,0.14584 0,0.29167 0,0.1276 0,0.25521 0,0.10937 0,0.21875 v 0.91146 q 0.27344,0 0.60157,0.0182 0.34635,0 0.78385,0 h 0.61979 0.52865 q 0.54687,0 1.14843,-0.0182 1.23959,-0.0365 2.53386,-0.20053 0.63802,-0.0911 1.22135,-0.21875 0.60156,-0.14583 1.13021,-0.32812 1.03906,-0.36458 1.67708,-0.94792 0.14583,-0.14583 0.25521,-0.29166 0.1276,-0.16406 0.20052,-0.34636 0.0911,-0.18229 0.1276,-0.38281 0.0365,-0.20052 0.0365,-0.41927 0,-0.47396 -0.12761,-0.875 -0.10937,-0.40104 -0.34635,-0.72916 -0.0729,-0.10938 -0.16406,-0.20052 -0.0911,-0.10938 -0.20052,-0.20053 -0.0911,-0.10937 -0.20052,-0.20052 -0.0365,-0.0365 -0.0729,-0.0547 -0.0365,-0.0365 -0.0729,-0.0547 -0.0365,-0.0365 -0.0729,-0.0729 -0.10938,-0.0911 -0.23698,-0.16406 -0.0547,-0.0365 -0.12761,-0.0729 -0.0547,-0.0365 -0.1276,-0.0729 -0.40104,-0.21875 -0.875,-0.38282 -0.45573,-0.16406 -0.96614,-0.29166 -0.34636,-0.0729 -0.69271,-0.14584 -0.18229,-0.0365 -0.36458,-0.0547 -0.16407,-0.0365 -0.34636,-0.0547 -0.16406,-0.0365 -0.32812,-0.0547 -0.16407,-0.0182 -0.34636,-0.0365 z"
           id="path7" />
      </g>
    </g>
  </svg>
</svg>
