<?xml version="1.0" encoding="UTF-8" standalone="no"?>
<svg
   viewBox="0 0 301 132.9281"
   version="1.1"
   id="svg11"
   sodipodi:docname="venn-diagrams-svg (1).svg"
   inkscape:version="1.3.2 (091e20ef0f, 2023-11-25)"
   width="301"
   height="132.9281"
   xmlns:inkscape="http://www.inkscape.org/namespaces/inkscape"
   xmlns:sodipodi="http://sodipodi.sourceforge.net/DTD/sodipodi-0.dtd"
   xmlns="http://www.w3.org/2000/svg"
   xmlns:svg="http://www.w3.org/2000/svg">
  <defs
     id="defs11" />
  <sodipodi:namedview
     id="namedview11"
     pagecolor="#ffffff"
     bordercolor="#000000"
     borderopacity="0.25"
     inkscape:showpageshadow="2"
     inkscape:pageopacity="0.0"
     inkscape:pagecheckerboard="0"
     inkscape:deskcolor="#d1d1d1"
     inkscape:zoom="1.125"
     inkscape:cx="124.88889"
     inkscape:cy="55.555556"
     inkscape:window-width="1920"
     inkscape:window-height="1009"
     inkscape:window-x="0"
     inkscape:window-y="38"
     inkscape:window-maximized="1"
     inkscape:current-layer="svg11" />
  <!-- Diagram 9 -->
  <path
     id="circle1"
     style="fill:none;stroke:#000000"
     d="m 100.5,50.5 a 50,50 0 0 1 -50,50 50,50 0 0 1 -50,-50 50,50 0 0 1 50,-50 50,50 0 0 1 50,50 z" />
  <path
     id="circle2"
     style="fill:none;stroke:#000000"
     d="m 150.5,50.5 a 50,50 0 0 1 -50,50 50,50 0 0 1 -50,-50 50,50 0 0 1 50,-50 50,50 0 0 1 50,50 z" />
  <!-- Black intersection -->
  <path
     d="m 75.5,7 a 52.113478,51.17647 0 0 1 0,87 52.113478,51.17647 0 0 1 0,-87"
     fill="#000000"
     id="path2"
     style="stroke-width:1.03285" />
  <path
     d="m 31.091797,23.515625 q -0.06445,-0.07617 -0.117188,-0.152344 -0.164062,-0.251953 -0.164062,-0.568359 0,-0.228516 0.140625,-0.392578 0.146484,-0.164063 0.398437,-0.164063 0.140625,0 0.28711,0.08789 0.134765,0.08203 0.298828,0.210937 0.158203,0.123047 0.345703,0.263672 0.1875,0.140625 0.410156,0.257813 0.228516,0.117187 0.503906,0.193359 0.269532,0.08203 0.597657,0.08203 0.08203,0 0.169922,-0.0059 0.09375,-0.0059 0.1875,-0.01172 0.09961,-0.01172 0.205078,-0.02344 0.316406,-0.04102 0.65039,-0.123047 0.339844,-0.08789 0.65625,-0.216797 0.158203,-0.06445 0.298828,-0.140625 0.140625,-0.08203 0.263672,-0.181641 0.246094,-0.1875 0.392578,-0.427734 0.07031,-0.117188 0.105469,-0.251953 0.04102,-0.134766 0.04102,-0.28711 0,-0.205078 -0.09961,-0.36914 -0.105468,-0.175781 -0.269531,-0.310547 -0.08203,-0.07031 -0.175781,-0.123047 -0.09375,-0.05859 -0.199219,-0.105469 -0.09961,-0.04687 -0.199219,-0.08203 -0.09961,-0.04102 -0.199218,-0.06445 l -2.654297,-0.673828 q -0.04687,-0.01172 -0.09961,-0.02344 -0.04687,-0.01758 -0.09961,-0.03516 -0.04687,-0.01758 -0.09961,-0.0293 -0.04687,-0.01758 -0.09961,-0.03516 -0.04687,-0.01758 -0.09375,-0.03516 -0.04687,-0.02344 -0.09961,-0.04102 -0.04102,-0.01758 -0.08203,-0.03516 -0.04102,-0.02344 -0.08203,-0.04102 -0.04102,-0.02344 -0.08203,-0.04102 -0.03516,-0.02344 -0.07617,-0.04687 -0.03516,-0.02344 -0.07617,-0.04687 -0.03516,-0.02344 -0.07031,-0.04687 -0.03516,-0.02344 -0.07031,-0.05273 -0.246093,-0.18164 -0.427734,-0.427734 -0.181641,-0.246094 -0.251953,-0.5625 v -0.0059 -0.0059 0 -0.351562 q 0,-0.509766 0.164062,-0.931641 0.08203,-0.210938 0.19336,-0.392578 0.111328,-0.1875 0.257812,-0.345703 0.152344,-0.158203 0.328125,-0.28711 0.181641,-0.128906 0.392578,-0.228515 0.210938,-0.09961 0.451172,-0.164063 0.07617,-0.02344 0.158203,-0.04102 0.08203,-0.01758 0.164063,-0.0293 0.08789,-0.01172 0.169922,-0.02344 h 0.0059 q 0.01758,0 0.04687,0 0.0293,0 0.07031,0 0.04687,-0.0059 0.09375,-0.0059 0.04687,0 0.09375,0 0.09961,0 0.1875,-0.0059 0.04687,0 0.07617,-0.0059 0.01758,0 0.0293,0 0.01172,0 0.02344,0 0.152344,0 0.439453,0 0.292969,0.0059 0.650391,0.03516 0.357422,0.02344 0.720703,0.07617 0.36914,0.05273 0.673828,0.158203 0.01758,0.0059 0.03516,0.01172 0.02344,0.0059 0.04102,0.01172 0.01758,0.0059 0.03516,0.01758 0.01758,0.0059 0.03516,0.01172 0.07031,0.0293 0.128907,0.06445 0.06445,0.0293 0.117187,0.06445 0.05859,0.03516 0.105469,0.07617 0.105469,0.08203 0.158203,0.193359 0.0293,0.05273 0.04102,0.111328 0.01172,0.05273 0.01172,0.117188 0,0.05859 -0.01172,0.111328 -0.0059,0.05273 -0.02344,0.09961 -0.01172,0.02344 -0.02344,0.04687 -0.0059,0.02344 -0.02344,0.04687 -0.0293,0.04687 -0.05859,0.08789 -0.07031,0.08203 -0.175781,0.123047 -0.03516,0.01172 -0.07031,0.02344 -0.03516,0.0059 -0.07617,0.01172 -0.03516,0.0059 -0.07617,0.0059 h -0.07031 -0.0059 -0.0059 q -0.644532,-0.140625 -1.283204,-0.257812 -0.105468,-0.01758 -0.210937,-0.03516 -0.105469,-0.01758 -0.216797,-0.0293 -0.105469,-0.01172 -0.210937,-0.02344 -0.164063,-0.01172 -0.328125,-0.01758 -0.158204,-0.01172 -0.322266,-0.01172 -0.06445,0 -0.128906,0.0059 -0.05859,0 -0.117188,0.0059 -0.05859,0 -0.117187,0.0059 -0.05859,0.0059 -0.117188,0.01172 -0.117187,0.01172 -0.222656,0.03516 -0.08203,0.01758 -0.158203,0.04102 -0.01758,0.0059 -0.04102,0.01172 -0.01758,0.0059 -0.03516,0.01172 -0.01758,0.0059 -0.03516,0.01172 -0.01758,0.0059 -0.03516,0.01172 -0.01758,0.0059 -0.03516,0.01758 -0.01758,0.0059 -0.03516,0.01172 -0.01758,0.0059 -0.03516,0.01758 -0.01758,0.0059 -0.0293,0.01758 -0.06445,0.03516 -0.128906,0.07031 -0.240235,0.158203 -0.38086,0.416015 -0.07031,0.128907 -0.105469,0.292969 -0.03516,0.164063 -0.03516,0.363281 0,0.152344 0.07617,0.263672 0.0059,0.0059 0.0059,0.01758 0.0059,0.0059 0.01172,0.01172 0.0059,0.0059 0.0059,0.01172 0.01172,0.01758 0.0293,0.03516 0.01758,0.01758 0.03516,0.03516 0.01758,0.01758 0.03516,0.03516 0.01758,0.01758 0.03516,0.03516 0.01758,0.01172 0.03516,0.0293 0.04102,0.0293 0.08203,0.05859 0.04687,0.02344 0.09375,0.04687 0.02344,0.01172 0.04687,0.02344 0.02344,0.01172 0.04687,0.02344 0.152343,0.06445 0.292968,0.09375 l 2.548829,0.644531 q 0.105468,0.02344 0.205078,0.05859 0.105468,0.0293 0.210937,0.07031 0.205078,0.07031 0.410156,0.164063 0.398438,0.1875 0.703125,0.451171 0.105469,0.08789 0.19336,0.19336 0.04687,0.05273 0.08789,0.105469 0.04102,0.05273 0.08203,0.105468 0.07617,0.111328 0.140625,0.234375 0.193359,0.369141 0.193359,0.832032 0,0.164062 -0.02344,0.316406 -0.01758,0.152344 -0.06445,0.292969 -0.04102,0.140625 -0.09961,0.27539 -0.09375,0.199219 -0.222656,0.375 -0.128906,0.175781 -0.28125,0.333985 -0.07617,0.07617 -0.164063,0.152343 -0.08789,0.07031 -0.175781,0.140625 -0.181641,0.134766 -0.386719,0.246094 -0.421875,0.222656 -0.878906,0.375 -0.228516,0.07617 -0.462891,0.128906 -0.234375,0.05273 -0.46875,0.09375 -0.228515,0.03516 -0.451171,0.05273 -0.216797,0.01758 -0.421875,0.01758 -0.222657,0 -0.527344,-0.03516 -0.304688,-0.04102 -0.632813,-0.123047 -0.04687,-0.01172 -0.09375,-0.0293 -0.02344,-0.0059 -0.05273,-0.01172 -0.02344,-0.0059 -0.04687,-0.01172 -0.04687,-0.01172 -0.09375,-0.02344 -0.04687,-0.01758 -0.09375,-0.03516 -0.01758,-0.0059 -0.03516,-0.01172 -0.01172,-0.0059 -0.0293,-0.01172 -0.01172,-0.0059 -0.02344,-0.01172 -0.04687,-0.01758 -0.09375,-0.03516 -0.04687,-0.01758 -0.08789,-0.03516 -0.322266,-0.128906 -0.574219,-0.316406 -0.08203,-0.06445 -0.158203,-0.128907 -0.03516,-0.03516 -0.07617,-0.07031 -0.03516,-0.04102 -0.06445,-0.07617 z"
     id="text2"
     style="font-size:12px;font-family:Lavi;-inkscape-font-specification:Lavi"
     aria-label="S" />
  <path
     d="m 109.6543,87.82031 v -0.006 -0.006 -0.006 l 0.40429,-1.5 q 0.18164,-0.65039 0.27539,-1.33007 0.0996,-0.68555 0.14649,-1.38282 0.0469,-0.69726 0.0586,-1.39453 0.006,-0.66211 0.006,-1.3125 h -0.0234 q -0.0469,0 -0.0996,0.006 -0.0469,0 -0.0937,0.006 -0.0469,0.006 -0.0937,0.0176 -0.0469,0.006 -0.0879,0.0176 -0.1875,0.0469 -0.36914,0.0996 -0.18164,0.0586 -0.35156,0.10547 -0.18164,0.0469 -0.38086,0.0469 -0.24609,0 -0.38672,-0.12891 -0.14062,-0.1289 -0.14062,-0.38086 0,-0.26367 0.23437,-0.43359 0.2168,-0.16406 0.55664,-0.27539 0.041,-0.0117 0.082,-0.0234 0.0469,-0.0117 0.0879,-0.0234 0.0469,-0.0117 0.0937,-0.0234 0.0469,-0.0117 0.0937,-0.0234 0.1875,-0.041 0.39257,-0.0703 0.41602,-0.0645 0.81446,-0.0937 0.40429,-0.0293 0.74414,-0.0352 0.16992,-0.006 0.29297,-0.006 0.0645,0 0.11718,0 0.0586,0 0.10547,0 0.38672,0 0.84375,0.0352 0.45703,0.0352 0.90821,0.11719 0.22851,0.0469 0.45117,0.10546 0.11133,0.0293 0.21679,0.0645 0.10547,0.0351 0.21094,0.0762 0.0234,0.006 0.041,0.0176 0.0234,0.006 0.041,0.0176 0.0234,0.006 0.041,0.0176 0.0176,0.006 0.0352,0.0176 0.0234,0.006 0.0469,0.0176 0.0234,0.0117 0.0469,0.0234 0.0234,0.0117 0.0469,0.0234 0.0234,0.0117 0.0469,0.0234 0.0234,0.0117 0.0469,0.0234 0.0937,0.0527 0.18164,0.11133 0.041,0.0293 0.082,0.0644 0.041,0.0293 0.082,0.0586 0.32813,0.25781 0.52149,0.63281 0.19336,0.375 0.19336,0.8789 0,0.13477 -0.0176,0.26368 -0.0176,0.12304 -0.0527,0.24023 -0.0293,0.11719 -0.082,0.22266 -0.0469,0.10547 -0.11133,0.19922 -0.041,0.0644 -0.0937,0.12304 -0.0469,0.0527 -0.0996,0.11133 -0.10547,0.11133 -0.22266,0.20508 -0.11719,0.0879 -0.25195,0.16992 -0.19922,0.11719 -0.42774,0.19922 -0.11133,0.041 -0.22851,0.082 -0.11719,0.0352 -0.24024,0.0645 -0.041,0.0117 -0.082,0.0234 -0.041,0.006 -0.082,0.0176 -0.041,0.006 -0.082,0.0117 -0.041,0.006 -0.082,0.0176 -0.0352,0.006 -0.0762,0.0117 -0.041,0.006 -0.082,0.0117 -0.11718,0.0176 -0.23437,0.0293 -0.11719,0.0117 -0.23438,0.0176 l -1.89843,0.0996 -0.4043,2.55469 q -0.006,0.0293 -0.0176,0.0703 -0.006,0.0351 -0.0117,0.082 -0.006,0.0469 -0.0176,0.10547 -0.0234,0.16992 -0.0644,0.36914 -0.041,0.19922 -0.10547,0.39844 -0.0644,0.21093 -0.16406,0.38086 -0.0996,0.17578 -0.23438,0.2871 -0.14648,0.11719 -0.33398,0.11719 -0.12305,0 -0.22266,-0.0352 -0.0469,-0.0176 -0.0937,-0.0469 -0.041,-0.0293 -0.0762,-0.0644 -0.0352,-0.0352 -0.0586,-0.0762 -0.0234,-0.0469 -0.041,-0.0996 -0.0351,-0.0996 -0.0351,-0.2168 z m 3.66211,-7.00781 q -0.33985,-0.0352 -0.64454,-0.041 -0.31054,-0.006 -0.52734,-0.006 -0.006,0 -0.0117,0 -0.006,0 -0.0117,0 h -0.0234 q -0.0117,0 -0.0352,0 -0.006,0 -0.0176,0 -0.006,0 -0.0176,0 l -0.14648,0.006 q -0.0762,0 -0.12891,0.006 l -0.0293,0.006 -0.0117,0.0234 q -0.006,0.13477 -0.0117,0.25195 0,0.0645 -0.006,0.12891 0,0.0586 0,0.11719 -0.006,0.12304 -0.0117,0.24023 -0.006,0.15235 -0.0117,0.31641 0,0.0527 -0.006,0.11133 0,0.0527 -0.006,0.10546 0,0.0527 0,0.10547 -0.006,0.15235 -0.0117,0.29297 0,0.0469 0,0.0937 0,0.041 0,0.082 0,0.0352 0,0.0703 v 0.29296 q 0.0879,0 0.19336,0.006 0.11133,0 0.25196,0 h 0.19922 0.16992 q 0.17578,0 0.36914,-0.006 0.39844,-0.0117 0.81445,-0.0645 0.20508,-0.0293 0.39258,-0.0703 0.19336,-0.0469 0.36328,-0.10547 0.33398,-0.11719 0.53906,-0.30469 0.0469,-0.0469 0.082,-0.0937 0.041,-0.0527 0.0645,-0.11133 0.0293,-0.0586 0.041,-0.12304 0.0117,-0.0645 0.0117,-0.13477 0,-0.15234 -0.041,-0.28125 -0.0352,-0.1289 -0.11133,-0.23437 -0.0234,-0.0352 -0.0527,-0.0645 -0.0293,-0.0351 -0.0645,-0.0644 -0.0293,-0.0352 -0.0644,-0.0644 -0.0117,-0.0117 -0.0234,-0.0176 -0.0117,-0.0117 -0.0234,-0.0176 -0.0117,-0.0117 -0.0234,-0.0234 -0.0352,-0.0293 -0.0762,-0.0527 -0.0176,-0.0117 -0.041,-0.0234 -0.0176,-0.0117 -0.041,-0.0234 -0.1289,-0.0703 -0.28125,-0.12304 -0.14648,-0.0527 -0.31055,-0.0937 -0.11132,-0.0234 -0.22265,-0.0469 -0.0586,-0.0117 -0.11719,-0.0176 -0.0527,-0.0117 -0.11133,-0.0176 -0.0527,-0.0117 -0.10547,-0.0176 -0.0527,-0.006 -0.11132,-0.0117 z"
     id="text3"
     style="font-size:12px;font-family:Lavi;-inkscape-font-specification:Lavi"
     aria-label="P" />
  <path
     d="m 8.296875,52.63379 q 0,-0.37109 0.05371,-0.72754 0.05859,-0.35156 0.146484,-0.69824 0.08789,-0.3418 0.195313,-0.68848 0.107422,-0.341796 0.209961,-0.698241 v -0.107422 q -0.439453,0 -0.756836,-0.161133 Q 7.828124,49.391602 7.608397,49.123047 7.388671,48.854492 7.251952,48.50293 7.115233,48.146484 7.037108,47.760742 6.963868,47.375 6.939448,46.979492 q -0.02441,-0.395508 -0.02441,-0.74707 0,-0.112305 0.01465,-0.22461 0.01953,-0.117187 0.06836,-0.20996 0.04883,-0.09277 0.136719,-0.151368 0.08789,-0.05859 0.229492,-0.05859 0.131836,0 0.253906,0.08789 0.126953,0.08301 0.15625,0.214844 0.0049,0.04394 0.01465,0.195312 0.0098,0.146485 0.02441,0.366211 0.01953,0.214844 0.04883,0.473633 0.0293,0.258789 0.07324,0.527344 0.04395,0.263672 0.102539,0.512695 0.06348,0.249024 0.146484,0.444336 0.08301,0.19043 0.19043,0.307617 0.112305,0.117188 0.249023,0.117188 0.263672,0 0.444336,-0.126953 0.185547,-0.131836 0.317383,-0.34668 0.136719,-0.214844 0.229492,-0.483398 0.09766,-0.273438 0.180664,-0.556641 0.08301,-0.288086 0.170899,-0.556641 0.08789,-0.273437 0.200195,-0.488281 0.117188,-0.214844 0.273438,-0.341797 0.15625,-0.131836 0.385742,-0.131836 0.209961,0 0.307617,0.141602 0.102539,0.136719 0.102539,0.336914 v 0.126953 l -1.425781,3.588867 q -0.292969,0.751947 -0.473633,1.528317 -0.175781,0.78125 -0.175781,1.58203 -0.01465,0.16113 -0.151367,0.22949 -0.131836,0.0733 -0.278321,0.0733 -0.07324,0 -0.151367,-0.0195 -0.07813,-0.0195 -0.141601,-0.0635 -0.05859,-0.044 -0.10254,-0.11231 -0.03906,-0.0635 -0.03906,-0.15136 z m 6.259766,-3.808595 -0.166016,-0.01465 q -0.488281,-0.0293 -1.088867,-0.214844 -0.410156,-0.126953 -0.698242,-0.341797 -0.3125,-0.234375 -0.517579,-0.59082 -0.205078,-0.356445 -0.205078,-0.893555 0,-0.493164 0.234375,-0.883789 0.244141,-0.327148 0.454102,-0.327148 0.02441,0 0.112305,0.0293 0.214843,0.07324 0.214843,0.249023 0,0.107422 -0.06348,0.244141 -0.175781,0.385742 -0.180664,0.708007 0,0.0098 0,0.01465 0,0.302734 0.170898,0.493164 0.161133,0.180664 0.444336,0.3125 0.307617,0.146484 0.947266,0.253906 0.200195,0.03418 0.410156,0.05371 0.04883,-0.86914 0.06348,-1.899414 0.04394,-0.205078 0.12207,-0.292969 0.08301,-0.09277 0.249023,-0.09277 0.0049,0 0.0098,0 0.327148,0 0.400391,0.292969 v 1.464843 q 0,3.066407 -0.527344,3.808588 -0.107422,0.15137 -0.219727,0.15137 -0.117187,0 -0.200195,-0.0342 -0.08789,-0.0391 -0.15625,-0.10742 -0.112305,-0.11719 -0.112305,-0.27344 0,-0.0635 0.01953,-0.1416 0.180665,-0.825193 0.283204,-1.967771 z m 4.267578,-2.27539 q -0.161133,0 -0.351563,0.03418 -0.185547,0.0293 -0.371094,0.09277 -0.185546,0.05859 -0.361328,0.151367 -0.175781,0.08789 -0.307617,0.209961 -0.131836,0.117187 -0.214844,0.263672 -0.07813,0.141601 -0.07813,0.3125 0.07324,0 0.302735,-0.0049 0.234375,-0.0098 0.537109,-0.02441 0.307617,-0.01953 0.639649,-0.04395 0.332031,-0.0293 0.610351,-0.06836 0.283203,-0.04394 0.463867,-0.09766 0.180664,-0.05371 0.180664,-0.126953 0,-0.209961 -0.117187,-0.34668 -0.112305,-0.136719 -0.27832,-0.214844 -0.161133,-0.07813 -0.341797,-0.107421 -0.180664,-0.0293 -0.3125,-0.0293 z m -2.661133,1.411132 q 0,-0.502929 0.214844,-0.932617 0.214843,-0.43457 0.581054,-0.751953 0.366211,-0.317383 0.844727,-0.498047 0.483398,-0.185547 1.010742,-0.185547 0.366211,0 0.727539,0.08789 0.361328,0.08301 0.649414,0.27832 0.288086,0.195313 0.463867,0.512696 0.180664,0.317382 0.180664,0.776367 0,0.229492 -0.08789,0.410156 -0.08789,0.180664 -0.234375,0.317383 -0.146485,0.136719 -0.336914,0.234375 -0.19043,0.09277 -0.400391,0.15625 -0.209961,0.06348 -0.424805,0.09766 -0.214843,0.03418 -0.405273,0.04395 l -1.757812,0.09766 V 48.625 q 0,0.244141 0.117187,0.419922 0.117188,0.175781 0.297852,0.292969 0.180664,0.117187 0.395507,0.175781 0.214844,0.05371 0.415039,0.05371 0.244141,0 0.454102,-0.08789 0.214844,-0.08789 0.415039,-0.19043 0.200195,-0.107421 0.395508,-0.195312 0.200195,-0.08789 0.410156,-0.08789 0.200195,0 0.341797,0.117188 0.141602,0.112305 0.141602,0.327148 0,0.200196 -0.122071,0.361328 -0.117187,0.15625 -0.307617,0.283204 -0.19043,0.12207 -0.43457,0.20996 -0.239258,0.08789 -0.478516,0.146485 -0.239258,0.05371 -0.458984,0.07813 -0.219727,0.0293 -0.371094,0.0293 -0.561523,0 -0.981445,-0.209954 -0.419922,-0.214844 -0.698242,-0.571289 -0.278321,-0.361328 -0.419922,-0.830078 -0.136719,-0.473633 -0.136719,-0.986329 z m 6.259766,0.229493 q -0.09766,1.640625 -0.522461,2.114257 -0.112305,0.126954 -0.229493,0.126954 -0.117187,0 -0.209961,-0.0293 -0.08789,-0.0293 -0.161132,-0.08789 -0.117188,-0.09277 -0.117188,-0.229492 0,-0.05371 0.01953,-0.117188 0.390625,-1.386718 0.434571,-3.979492 0.04394,-0.166015 0.126953,-0.24414 0.08789,-0.07813 0.258789,-0.07813 0.351562,0 0.429687,0.24414 v 1.220703 q 0,0.258789 -0.0049,0.493164 0.102539,-0.03418 0.239257,-0.06348 l 0.869141,-0.0293 q 0.625,0.06836 0.9375,0.126953 0.05859,-0.761719 0.07324,-1.669922 0.04395,-0.166015 0.126953,-0.24414 0.08789,-0.07813 0.258789,-0.07813 0.351563,0 0.429688,0.24414 v 1.220703 q 0,2.558594 -0.551758,3.173828 -0.112305,0.126954 -0.229492,0.126954 -0.117188,0 -0.209961,-0.0293 -0.08789,-0.0293 -0.161133,-0.08789 -0.117187,-0.09277 -0.117187,-0.229492 0,-0.05371 0.01953,-0.117188 0.195312,-0.693359 0.302734,-1.689453 -0.219726,0.04395 -0.571289,0.04395 -0.273437,0 -0.43457,-0.0049 l -0.854492,-0.09277 q -0.08301,-0.01465 -0.151367,-0.03418 z m 8.779296,-2.524414 q 0.351563,0 0.429688,0.24414 v 1.220703 q 0,2.558594 -0.551758,3.173828 -0.112305,0.126954 -0.229492,0.126954 -0.117188,0 -0.209961,-0.0293 -0.08789,-0.0293 -0.161133,-0.08789 -0.117187,-0.09277 -0.117187,-0.229492 0,-0.05371 0.01953,-0.117188 0.390625,-1.386718 0.43457,-3.979492 0.04395,-0.166015 0.126953,-0.24414 0.08789,-0.07813 0.258789,-0.07813 z m -1.669921,2.314453 q 0.200195,0.141601 0.307617,0.336914 0.112304,0.200195 0.112304,0.502929 v 0.620118 q 0,0.185547 -0.08301,0.336914 -0.08301,0.151367 -0.219727,0.273437 -0.15625,0.136719 -0.317383,0.22461 -0.175781,0.09277 -0.361328,0.15625 -0.214844,0.07324 -0.361328,0.09766 -0.175781,0.0293 -0.317383,0.0293 -0.273437,0 -0.585937,-0.06836 -0.3125,-0.06836 -0.605469,-0.195312 l -0.15625,-0.06836 q -0.0293,0.04395 -0.06348,0.07813 -0.112304,0.126954 -0.229492,0.126954 -0.117187,0 -0.209961,-0.0293 -0.08789,-0.0293 -0.161133,-0.08789 -0.117187,-0.09277 -0.117187,-0.229492 0,-0.05371 0.01953,-0.117188 0.0293,-0.107421 0.05859,-0.224609 -0.06348,-0.06348 -0.117188,-0.131836 -0.01953,-0.09277 -0.0293,-0.107422 -0.01953,-0.03906 -0.01953,-0.102539 0,-0.07324 0.03906,-0.161133 0.03418,-0.07813 0.09766,-0.136718 0.06836,-0.06348 0.136719,-0.08789 l 0.03906,-0.01465 q 0.05371,-0.317383 0.09277,-0.673829 0.09766,-1.010742 0.12207,-1.777343 0.07813,-0.961914 0.317383,-1.010743 0.253906,-0.05371 0.43457,-0.06836 h 0.0049 q 0.107422,0 0.112305,0.366211 0,0.214844 -0.03906,0.551758 v 0.742187 q 0,0.258789 -0.0049,0.498047 0.239258,-0.06348 0.541993,-0.06348 0.01465,0.0049 0.02441,0.0049 0.3125,0 0.629882,0.05371 0.317383,0.05371 0.639649,0.205079 0.151367,0.06836 0.268555,0.151367 z m -2.138672,0.361328 q -0.04395,0.605469 -0.131836,1.040039 0.08301,0.04394 0.190429,0.09277 0.205079,0.09277 0.429688,0.15625 0.214844,0.05859 0.410156,0.05859 0.151367,0 0.273438,-0.0293 0.15625,-0.03906 0.258789,-0.09766 0.112304,-0.06348 0.190429,-0.175781 0.07324,-0.102539 0.07324,-0.249024 0,-0.273437 -0.112305,-0.424804 -0.112305,-0.146485 -0.307617,-0.244141 -0.234375,-0.112305 -0.429688,-0.141602 -0.0098,0 -0.224609,-0.04394 -0.214844,0.04394 -0.22461,0.04394 -0.08301,0.01465 -0.395507,0.01465 z m 7.578125,-1.791992 q -0.161133,0 -0.351563,0.03418 -0.185547,0.0293 -0.371094,0.09277 -0.185546,0.05859 -0.361328,0.151367 -0.175781,0.08789 -0.307617,0.209961 -0.131836,0.117187 -0.214844,0.263672 -0.07813,0.141601 -0.07813,0.3125 0.07324,0 0.302735,-0.0049 0.234375,-0.0098 0.537109,-0.02441 0.307617,-0.01953 0.639649,-0.04395 0.332031,-0.0293 0.610351,-0.06836 0.283203,-0.04394 0.463867,-0.09766 0.180664,-0.05371 0.180664,-0.126953 0,-0.209961 -0.117187,-0.34668 -0.112305,-0.136719 -0.27832,-0.214844 -0.161133,-0.07813 -0.341797,-0.107421 -0.180664,-0.0293 -0.3125,-0.0293 z m -2.661133,1.411132 q 0,-0.502929 0.214844,-0.932617 0.214843,-0.43457 0.581054,-0.751953 0.366211,-0.317383 0.844727,-0.498047 0.483398,-0.185547 1.010742,-0.185547 0.366211,0 0.727539,0.08789 0.361328,0.08301 0.649414,0.27832 0.288086,0.195313 0.463867,0.512696 0.180664,0.317382 0.180664,0.776367 0,0.229492 -0.08789,0.410156 -0.08789,0.180664 -0.234375,0.317383 -0.146485,0.136719 -0.336914,0.234375 -0.19043,0.09277 -0.400391,0.15625 -0.209961,0.06348 -0.424805,0.09766 -0.214843,0.03418 -0.405273,0.04395 l -1.757813,0.09766 V 48.625 q 0,0.244141 0.117188,0.419922 0.117187,0.175781 0.297852,0.292969 0.180664,0.117187 0.395507,0.175781 0.214844,0.05371 0.415039,0.05371 0.244141,0 0.454102,-0.08789 0.214844,-0.08789 0.415039,-0.19043 0.200195,-0.107421 0.395508,-0.195312 0.200195,-0.08789 0.410156,-0.08789 0.200195,0 0.341797,0.117188 0.141602,0.112305 0.141602,0.327148 0,0.200196 -0.122071,0.361328 -0.117187,0.15625 -0.307617,0.283204 -0.19043,0.12207 -0.43457,0.20996 -0.239258,0.08789 -0.478516,0.146485 -0.239258,0.05371 -0.458984,0.07813 -0.219727,0.0293 -0.371094,0.0293 -0.561523,0 -0.981445,-0.209954 -0.419922,-0.214844 -0.698243,-0.571289 -0.27832,-0.361328 -0.419921,-0.830078 -0.136719,-0.473633 -0.136719,-0.986329 z"
     id="text4"
     style="font-size:10px;font-family:Lavi;-inkscape-font-specification:Lavi"
     aria-label="ученые" />
  <g
     id="text5"
     style="font-size:8px;font-family:Lavi;-inkscape-font-specification:Lavi"
     aria-label="авторы&#10;учебников"
     transform="translate(-49.5,-49.5)">
    <path
       d="m 157.21875,92.800781 q -0.082,-0.02734 -0.42578,-0.02734 -1.76563,0 -1.76953,1.351563 0,0.484375 0.10937,0.710937 0.10938,0.222657 0.31641,0.382813 0.20703,0.160156 0.4375,0.160156 0.44531,0 0.84375,-0.34375 0.40234,-0.34375 0.47265,-0.761719 z m 0,1.179688 z m -2.60547,1.507812 q -0.18359,-0.273437 -0.26562,-0.628906 -0.082,-0.355469 -0.082,-0.832031 0,-0.480469 0.1875,-0.886719 0.36329,-0.792969 1.32422,-1.046875 0.46875,-0.125 0.92578,-0.125 0.008,0 0.0117,0 0.0664,0.0039 0.125,0.0039 0.35157,0 0.41016,-0.01172 0.0156,-0.0039 0.0352,-0.0039 0.0664,0 0.17578,0.03516 l 0.13281,0.03906 q 0.10937,0.03125 0.21875,0.121094 0.11328,0.08594 0.11328,0.171875 l 0.043,1.980468 q 0.004,0.222657 0.10156,0.546875 0.17578,0.597657 0.17578,0.792969 0,0.191406 -0.10156,0.308594 -0.10156,0.117187 -0.26953,0.117187 -0.30078,0 -0.40234,-0.265625 -0.082,-0.203125 -0.12891,-0.382812 -0.35547,0.300781 -0.58984,0.425781 -0.46485,0.242188 -0.90625,0.242188 -0.44141,0 -0.7461,-0.164063 -0.30078,-0.164062 -0.48828,-0.4375 z m 4.37109,-0.6875 q 0.043,-0.253906 0.0742,-0.539062 0.0781,-0.808594 0.0977,-1.421875 h -0.043 q -0.14844,0 -0.23047,-0.08984 -0.082,-0.08984 -0.082,-0.242188 0,-0.132812 0.0859,-0.226562 0.0859,-0.09375 0.21875,-0.15625 0.11328,-0.05469 0.30469,-0.09375 0.20312,-0.04297 0.33593,-0.05469 0.22657,-0.01953 0.31641,-0.02344 0.14844,-0.0039 0.24609,-0.0039 0.27344,0 0.50391,0.06641 0.23828,0.06641 0.40234,0.203125 0.17578,0.140625 0.26953,0.347656 0.0977,0.210938 0.0977,0.503906 0,0.308594 -0.0937,0.507813 -0.082,0.171875 -0.20312,0.285156 0.12109,0.05469 0.21484,0.121094 0.16016,0.113281 0.24609,0.269531 0.0898,0.160156 0.0898,0.402344 v 0.496094 q 0,0.148437 -0.0664,0.269531 -0.0664,0.121094 -0.17578,0.21875 -0.125,0.109375 -0.25391,0.179687 -0.14062,0.07422 -0.28906,0.125 -0.17187,0.05859 -0.28906,0.07813 -0.14063,0.02344 -0.25391,0.02344 -0.21875,0 -0.46875,-0.05469 -0.25,-0.05469 -0.48437,-0.15625 l -0.125,-0.05469 q -0.0234,0.03516 -0.0508,0.0625 -0.0898,0.101562 -0.1836,0.101562 -0.0937,0 -0.16797,-0.02344 -0.0703,-0.02344 -0.1289,-0.07031 -0.0937,-0.07422 -0.0937,-0.183593 0,-0.04297 0.0156,-0.09375 0.0234,-0.08594 0.0469,-0.179688 -0.0508,-0.05078 -0.0937,-0.105469 -0.0156,-0.07422 -0.0234,-0.08594 -0.0156,-0.03125 -0.0156,-0.08203 0,-0.05859 0.0312,-0.128907 0.0273,-0.0625 0.0781,-0.109375 0.0547,-0.05078 0.10937,-0.07031 z m 0.83594,-2.089844 v 0.59375 q 0,0.207032 -0.004,0.398438 0.19921,-0.05078 0.38671,-0.09375 0.1836,-0.03906 0.34766,-0.117188 0.15625,-0.07422 0.24219,-0.171875 0.0937,-0.109375 0.0937,-0.265625 0,-0.136718 -0.0469,-0.21875 -0.0469,-0.08203 -0.1289,-0.125 -0.082,-0.04297 -0.1875,-0.05469 -0.14453,-0.01563 -0.23047,-0.01563 -0.14844,0 -0.29688,0.03125 -0.082,0.01563 -0.17578,0.03906 z m -0.0312,1.5625 q -0.0352,0.484375 -0.10547,0.832032 0.0664,0.03516 0.15235,0.07422 0.16406,0.07422 0.34375,0.125 0.17187,0.04687 0.32812,0.04687 0.1211,0 0.21875,-0.02344 0.125,-0.03125 0.20703,-0.07813 0.0898,-0.05078 0.15235,-0.140625 0.0586,-0.08203 0.0586,-0.199219 0,-0.21875 -0.0898,-0.339844 -0.0898,-0.117187 -0.2461,-0.195312 -0.1875,-0.08984 -0.34375,-0.113281 -0.008,0 -0.17968,-0.03516 -0.17188,0.03516 -0.17969,0.03516 -0.0664,0.01172 -0.31641,0.01172 z m 2.67969,-1.550781 q -0.0664,0 -0.11328,-0.03125 -0.0469,-0.03516 -0.0781,-0.08203 -0.0312,-0.05078 -0.0469,-0.109375 -0.0156,-0.05859 -0.0156,-0.109375 0,-0.04687 0.0156,-0.101563 0.0156,-0.05469 0.0469,-0.101562 0.0312,-0.04687 0.0703,-0.07813 0.043,-0.03125 0.0977,-0.03125 h 2.96875 q 0.0586,0 0.17578,-0.0039 0.0586,0 0.1211,0 0.0664,-0.0039 0.13672,0 0.14062,0.0039 0.28125,0.02344 0.14453,0.01953 0.26171,0.06641 0.11719,0.04687 0.19141,0.128907 0.0781,0.08203 0.0781,0.210937 0,0.140625 -0.0898,0.238281 -0.0859,0.09766 -0.23437,0.09766 -0.26953,0 -0.53907,-0.03516 -0.26562,-0.03516 -0.54296,-0.03516 l -0.62891,-0.01172 v 0.546875 q 0,2.046875 -0.44141,2.539063 -0.0898,0.101562 -0.18359,0.101562 -0.0937,0 -0.16797,-0.02344 -0.0703,-0.02344 -0.12891,-0.07031 -0.0937,-0.07422 -0.0937,-0.183593 0,-0.03906 0.0156,-0.09375 0.28516,-1.011719 0.33984,-2.828125 z m 5.38281,1.566406 q 0,0.277344 0.0586,0.476563 0.0586,0.199219 0.1914,0.328125 0.13281,0.125 0.34766,0.1875 0.21484,0.05859 0.52344,0.05859 0.27734,0 0.49609,-0.125 0.21875,-0.128907 0.37109,-0.328125 0.15235,-0.203125 0.23438,-0.453125 0.082,-0.253907 0.082,-0.503907 0,-0.234375 -0.0586,-0.4375 -0.0547,-0.203125 -0.17969,-0.351562 -0.1211,-0.152344 -0.32031,-0.238281 -0.19532,-0.08594 -0.47657,-0.08594 -0.25,0 -0.46484,0.09766 -0.21094,0.09766 -0.375,0.261719 -0.16406,0.164063 -0.27734,0.378906 -0.10938,0.210938 -0.15235,0.4375 z m -0.79687,-0.05859 q 0,-0.425782 0.16015,-0.824219 0.16407,-0.398438 0.44532,-0.707031 0.28125,-0.308594 0.66406,-0.492188 0.38281,-0.1875 0.82812,-0.1875 0.45703,0 0.78907,0.15625 0.33593,0.15625 0.55078,0.421875 0.21875,0.265625 0.32422,0.617188 0.10546,0.351562 0.10546,0.746093 0,0.191407 -0.0469,0.425782 -0.0469,0.230468 -0.13672,0.46875 -0.0898,0.238281 -0.22266,0.464843 -0.13281,0.226563 -0.30468,0.402344 -0.16797,0.171875 -0.37891,0.277344 -0.20703,0.105469 -0.44531,0.105469 h -0.73828 q -0.42578,0 -0.73047,-0.164063 -0.30078,-0.167969 -0.49219,-0.433594 -0.19141,-0.269531 -0.28125,-0.605468 -0.0898,-0.335938 -0.0898,-0.671875 z m 5.28515,-0.757813 -0.0117,0.05078 -0.004,0.03516 q -0.004,0.02734 -0.0117,0.128906 -0.008,0.09766 -0.0234,0.234375 -0.0117,0.132812 -0.0312,0.289062 -0.0156,0.152344 -0.0273,0.289063 -0.0117,0.132812 -0.0234,0.234375 -0.0117,0.09766 -0.0117,0.125 0.1211,0.03906 0.21094,0.05859 0.0898,0.01953 0.16797,0.03125 0.082,0.0078 0.16406,0.01953 0.0859,0.0078 0.19922,0.02734 0.18359,0.02734 0.39062,0.04297 0.0859,0.0039 0.16797,0.0078 0.1211,0 0.24219,-0.01172 0.20313,-0.01953 0.39453,-0.07422 0.19531,-0.05859 0.35156,-0.164062 0.15625,-0.109375 0.26563,-0.273438 0.11328,-0.164062 0.15234,-0.394531 0.0195,-0.105469 0.0195,-0.207031 0,-0.0625 -0.008,-0.121094 -0.0195,-0.15625 -0.0859,-0.28125 -0.0664,-0.128906 -0.18359,-0.210937 -0.11719,-0.08594 -0.28516,-0.117188 -0.0937,-0.01563 -0.27343,-0.02734 -0.17969,-0.01563 -0.40235,-0.01563 -0.21875,0 -0.44922,0.01563 -0.23046,0.01563 -0.42578,0.05078 -0.1914,0.03516 -0.32422,0.101562 -0.1289,0.0625 -0.14453,0.15625 z m -0.78515,-1.179687 q 0.0312,-0.160157 0.14843,-0.234375 0.0898,-0.05469 0.19922,-0.05469 0.0352,0 0.0703,0.0039 0.14453,0.02734 0.21093,0.07813 0.0664,0.05078 0.0937,0.125 0.0312,0.07422 0.0391,0.164063 0.008,0.08984 0.0312,0.195312 0.52734,-0.164062 1.0664,-0.171875 0.0508,0 0.0977,-0.0039 0.49219,0 1,0.08984 0.30859,0.05469 0.54687,0.222656 0.23828,0.164063 0.38672,0.40625 0.14844,0.238281 0.20313,0.535156 0.0273,0.148438 0.0273,0.296875 0,0.148438 -0.0273,0.304688 -0.0703,0.40625 -0.3086,0.722656 -0.23828,0.316406 -0.57422,0.519531 -0.33593,0.210938 -0.72656,0.289063 -0.19531,0.03906 -0.38281,0.03906 h -0.0352 q -0.18359,0 -0.36718,-0.03125 l -1.11719,-0.152343 q -0.0352,0.191406 -0.0547,0.289062 -0.0156,0.09766 -0.0234,0.148438 -0.008,0.05078 -0.0117,0.07813 -0.004,0.03125 -0.0117,0.08203 -0.008,0.05078 -0.0273,0.148437 -0.0156,0.09766 -0.0508,0.289063 -0.008,0.04297 -0.0273,0.148437 -0.0156,0.109375 -0.0391,0.226563 -0.0195,0.121094 -0.0391,0.226562 -0.0156,0.109375 -0.0234,0.148438 -0.0586,0.109375 -0.16406,0.160156 -0.10156,0.05078 -0.21094,0.03125 -0.14062,-0.02734 -0.21875,-0.125 -0.0781,-0.09766 -0.0898,-0.234375 0.0195,-0.101562 0.043,-0.21875 0.0273,-0.113281 0.0508,-0.234375 0.0273,-0.117187 0.0508,-0.234375 0.0234,-0.117187 0.0352,-0.222656 0.0156,-0.15625 0.0391,-0.394531 0.0234,-0.242188 0.0469,-0.515625 0.0273,-0.277344 0.0508,-0.558594 0.0273,-0.285156 0.0469,-0.523438 0.0195,-0.238281 0.0312,-0.402343 0.0117,-0.167969 0.0156,-0.207032 l -0.008,-1.398437 q 0,-0.0078 0.004,-0.01953 0,-0.0078 0,-0.01563 0.004,-0.0078 0.004,-0.01563 z m 8.60156,-0.160157 q 0.28125,0 0.34375,0.195313 v 0.976562 q 0,2.046875 -0.44141,2.539063 -0.0898,0.101562 -0.18359,0.101562 -0.0937,0 -0.16797,-0.02344 -0.0703,-0.02344 -0.12891,-0.07031 -0.0937,-0.07422 -0.0937,-0.183593 0,-0.04297 0.0156,-0.09375 0.3125,-1.109375 0.34766,-3.183594 0.0352,-0.132813 0.10156,-0.195313 0.0703,-0.0625 0.20703,-0.0625 z m -1.33594,1.851563 q 0.16016,0.113281 0.2461,0.269531 0.0898,0.160156 0.0898,0.402344 v 0.496094 q 0,0.148437 -0.0664,0.269531 -0.0664,0.121094 -0.17578,0.21875 -0.125,0.109375 -0.2539,0.179687 -0.14063,0.07422 -0.28907,0.125 -0.17187,0.05859 -0.28906,0.07813 -0.14062,0.02344 -0.25391,0.02344 -0.21875,0 -0.46875,-0.05469 -0.25,-0.05469 -0.48437,-0.15625 l -0.125,-0.05469 q -0.0234,0.03516 -0.0508,0.0625 -0.0898,0.101562 -0.1836,0.101562 -0.0937,0 -0.16796,-0.02344 -0.0703,-0.02344 -0.12891,-0.07031 -0.0937,-0.07422 -0.0937,-0.183593 0,-0.04297 0.0156,-0.09375 0.0234,-0.08594 0.0469,-0.179688 -0.0508,-0.05078 -0.0937,-0.105469 -0.0156,-0.07422 -0.0234,-0.08594 -0.0156,-0.03125 -0.0156,-0.08203 0,-0.05859 0.0312,-0.128907 0.0273,-0.0625 0.0781,-0.109375 0.0547,-0.05078 0.10938,-0.07031 l 0.0312,-0.01172 q 0.043,-0.253906 0.0742,-0.539062 0.0781,-0.808594 0.0977,-1.421875 0.0625,-0.769532 0.25391,-0.808594 0.20312,-0.04297 0.34765,-0.05469 h 0.004 q 0.0859,0 0.0898,0.292969 0,0.171875 -0.0312,0.441406 v 0.59375 q 0,0.207032 -0.004,0.398438 0.1914,-0.05078 0.43359,-0.05078 0.0117,0.0039 0.0195,0.0039 0.25,0 0.50391,0.04297 0.25391,0.04297 0.51172,0.164062 0.12109,0.05469 0.21484,0.121094 z m -1.71094,0.289062 q -0.0352,0.484375 -0.10546,0.832032 0.0664,0.03516 0.15234,0.07422 0.16406,0.07422 0.34375,0.125 0.17187,0.04687 0.32812,0.04687 0.1211,0 0.21875,-0.02344 0.125,-0.03125 0.20704,-0.07813 0.0898,-0.05078 0.15234,-0.140625 0.0586,-0.08203 0.0586,-0.199219 0,-0.21875 -0.0898,-0.339844 -0.0898,-0.117187 -0.24609,-0.195312 -0.1875,-0.08984 -0.34375,-0.113281 -0.008,0 -0.17969,-0.03516 -0.17188,0.03516 -0.17969,0.03516 -0.0664,0.01172 -0.31641,0.01172 z"
       id="path12" />
    <path
       d="m 155.4375,107.70703 q 0,-0.29687 0.043,-0.58203 0.0469,-0.28125 0.11719,-0.55859 0.0703,-0.27344 0.15625,-0.55078 0.0859,-0.27344 0.16796,-0.5586 v -0.0859 q -0.35156,0 -0.60546,-0.1289 -0.25391,-0.12891 -0.42969,-0.34375 -0.17578,-0.21485 -0.28516,-0.4961 -0.10937,-0.28515 -0.17187,-0.59375 -0.0586,-0.30859 -0.0781,-0.625 -0.0195,-0.3164 -0.0195,-0.59765 0,-0.0898 0.0117,-0.17969 0.0156,-0.0937 0.0547,-0.16797 0.0391,-0.0742 0.10937,-0.12109 0.0703,-0.0469 0.1836,-0.0469 0.10546,0 0.20312,0.0703 0.10156,0.0664 0.125,0.17187 0.004,0.0352 0.0117,0.15625 0.008,0.11719 0.0195,0.29297 0.0156,0.17187 0.0391,0.37891 0.0234,0.20703 0.0586,0.42187 0.0352,0.21094 0.082,0.41016 0.0508,0.19922 0.11719,0.35547 0.0664,0.15234 0.15234,0.24609 0.0898,0.0937 0.19922,0.0937 0.21094,0 0.35547,-0.10156 0.14843,-0.10547 0.2539,-0.27735 0.10938,-0.17187 0.1836,-0.38672 0.0781,-0.21875 0.14453,-0.44531 0.0664,-0.23047 0.13672,-0.44531 0.0703,-0.21875 0.16015,-0.39063 0.0937,-0.17187 0.21875,-0.27343 0.125,-0.10547 0.3086,-0.10547 0.16797,0 0.24609,0.11328 0.082,0.10937 0.082,0.26953 v 0.10156 l -1.14062,2.8711 q -0.23438,0.60156 -0.37891,1.22265 -0.14062,0.625 -0.14062,1.26563 -0.0117,0.1289 -0.1211,0.18359 -0.10547,0.0586 -0.22265,0.0586 -0.0586,0 -0.1211,-0.0156 -0.0625,-0.0156 -0.11328,-0.0508 -0.0469,-0.0352 -0.082,-0.0898 -0.0312,-0.0508 -0.0312,-0.1211 z m 5.00781,-3.04687 -0.13281,-0.0117 q -0.39063,-0.0234 -0.87109,-0.17188 -0.32813,-0.10156 -0.5586,-0.27343 -0.25,-0.1875 -0.41406,-0.47266 -0.16406,-0.28516 -0.16406,-0.71484 0,-0.39454 0.1875,-0.70704 0.19531,-0.26171 0.36328,-0.26171 0.0195,0 0.0898,0.0234 0.17188,0.0586 0.17188,0.19922 0,0.0859 -0.0508,0.19531 -0.14063,0.3086 -0.14454,0.56641 0,0.008 0,0.0117 0,0.24219 0.13672,0.39453 0.12891,0.14453 0.35547,0.25 0.2461,0.11719 0.75781,0.20313 0.16016,0.0273 0.32813,0.043 0.0391,-0.69531 0.0508,-1.51953 0.0352,-0.16406 0.0977,-0.23437 0.0664,-0.0742 0.19922,-0.0742 0.004,0 0.008,0 0.26172,0 0.32031,0.23437 v 1.17188 q 0,2.45312 -0.42187,3.04687 -0.0859,0.1211 -0.17579,0.1211 -0.0937,0 -0.16015,-0.0273 -0.0703,-0.0312 -0.125,-0.0859 -0.0898,-0.0937 -0.0898,-0.21875 0,-0.0508 0.0156,-0.11328 0.14453,-0.66016 0.22656,-1.57422 z m 3.41406,-1.82032 q -0.1289,0 -0.28125,0.0273 -0.14843,0.0234 -0.29687,0.0742 -0.14844,0.0469 -0.28906,0.12109 -0.14063,0.0703 -0.2461,0.16797 -0.10547,0.0937 -0.17187,0.21094 -0.0625,0.11328 -0.0625,0.25 0.0586,0 0.24219,-0.004 0.1875,-0.008 0.42968,-0.0195 0.2461,-0.0156 0.51172,-0.0352 0.26563,-0.0234 0.48828,-0.0547 0.22657,-0.0352 0.3711,-0.0781 0.14453,-0.043 0.14453,-0.10156 0,-0.16797 -0.0937,-0.27735 -0.0898,-0.10937 -0.22266,-0.17187 -0.1289,-0.0625 -0.27344,-0.0859 -0.14453,-0.0234 -0.25,-0.0234 z m -2.1289,1.12891 q 0,-0.40234 0.17187,-0.74609 0.17188,-0.34766 0.46485,-0.60157 0.29297,-0.2539 0.67578,-0.39843 0.38672,-0.14844 0.80859,-0.14844 0.29297,0 0.58203,0.0703 0.28907,0.0664 0.51953,0.22266 0.23047,0.15625 0.3711,0.41015 0.14453,0.25391 0.14453,0.6211 0,0.18359 -0.0703,0.32812 -0.0703,0.14453 -0.1875,0.25391 -0.11719,0.10937 -0.26953,0.1875 -0.15235,0.0742 -0.32032,0.125 -0.16797,0.0508 -0.33984,0.0781 -0.17188,0.0273 -0.32422,0.0352 l -1.40625,0.0781 V 104.5 q 0,0.19531 0.0937,0.33594 0.0937,0.14062 0.23828,0.23437 0.14453,0.0937 0.31641,0.14063 0.17187,0.043 0.33203,0.043 0.19531,0 0.36328,-0.0703 0.17188,-0.0703 0.33203,-0.15234 0.16016,-0.0859 0.31641,-0.15625 0.16015,-0.0703 0.32812,-0.0703 0.16016,0 0.27344,0.0937 0.11328,0.0898 0.11328,0.26172 0,0.16015 -0.0977,0.28906 -0.0937,0.125 -0.2461,0.22656 -0.15234,0.0977 -0.34765,0.16797 -0.19141,0.0703 -0.38282,0.11719 -0.1914,0.043 -0.36718,0.0625 -0.17579,0.0234 -0.29688,0.0234 -0.44922,0 -0.78516,-0.16797 -0.33593,-0.17188 -0.55859,-0.45703 -0.22266,-0.28907 -0.33594,-0.66407 -0.10937,-0.3789 -0.10937,-0.78906 z m 4.4375,-0.9375 q 0.0156,-0.30859 0.0195,-0.64062 0.0352,-0.13282 0.27344,-0.19532 0.13281,-0.0352 0.30078,-0.0352 0.13672,0 0.29687,0.0234 0.16797,0 0.33203,-0.0117 0.16407,-0.0156 0.32813,-0.0312 0.16797,-0.0195 0.33203,-0.0312 0.16406,-0.0156 0.33203,-0.0156 0.0781,0 0.14844,0.0156 0.0703,0.0156 0.125,0.0547 0.0547,0.0352 0.0859,0.0977 0.0352,0.0586 0.0352,0.14844 0,0.14843 -0.10547,0.23047 -0.10546,0.0781 -0.24218,0.0859 l -1.58985,0.13672 v 0.44141 q 0,0.20703 -0.004,0.39844 0.19922,-0.0508 0.46093,-0.0742 0.0586,-0.004 0.125,-0.004 0.21485,0 0.46875,0.0586 0.42188,0.10157 0.42188,0.16407 0,0.008 -0.008,0.0156 0.12109,0.0547 0.21484,0.1211 0.16016,0.11328 0.24609,0.26953 0.0898,0.16015 0.0898,0.40234 v 0.49609 q 0,0.14844 -0.0664,0.26954 -0.0664,0.12109 -0.17578,0.21875 -0.125,0.10937 -0.25391,0.17968 -0.14062,0.0742 -0.28906,0.125 -0.17187,0.0586 -0.28906,0.0781 -0.14063,0.0234 -0.25391,0.0234 -0.21875,0 -0.46875,-0.0547 -0.25,-0.0547 -0.48437,-0.15625 l -0.125,-0.0547 q -0.0234,0.0352 -0.0508,0.0625 -0.0898,0.10156 -0.1836,0.10156 -0.0937,0 -0.16797,-0.0234 -0.0703,-0.0234 -0.1289,-0.0703 -0.0937,-0.0742 -0.0937,-0.18359 0,-0.043 0.0156,-0.0937 0.26172,-0.92969 0.32813,-2.54297 z m 0.64062,1.24219 q -0.0273,0.38672 -0.0781,0.68359 -0.0117,0.0781 -0.0273,0.14844 0.0664,0.0352 0.15235,0.0742 0.16406,0.0742 0.34375,0.125 0.17187,0.0469 0.32812,0.0469 0.1211,0 0.21875,-0.0234 0.125,-0.0312 0.20703,-0.0781 0.0898,-0.0508 0.15235,-0.14062 0.0586,-0.082 0.0586,-0.19922 0,-0.21875 -0.0898,-0.33985 -0.0898,-0.11718 -0.2461,-0.19531 -0.1875,-0.0898 -0.34375,-0.11328 -0.008,0 -0.17968,-0.0352 -0.17188,0.0352 -0.17969,0.0352 -0.0664,0.0117 -0.31641,0.0117 z m 3.44532,-0.1211 q -0.0781,1.3125 -0.41797,1.69141 -0.0898,0.10156 -0.1836,0.10156 -0.0937,0 -0.16797,-0.0234 -0.0703,-0.0234 -0.1289,-0.0703 -0.0937,-0.0742 -0.0937,-0.18359 0,-0.043 0.0156,-0.0937 0.3125,-1.10938 0.34766,-3.18359 0.0352,-0.13282 0.10156,-0.19532 0.0703,-0.0625 0.20703,-0.0625 0.28125,0 0.34375,0.19532 v 0.97656 q 0,0.20703 -0.004,0.39453 0.082,-0.0273 0.1914,-0.0508 l 0.69532,-0.0234 q 0.5,0.0547 0.75,0.10156 0.0469,-0.60937 0.0586,-1.33593 0.0352,-0.13282 0.10156,-0.19532 0.0703,-0.0625 0.20703,-0.0625 0.28125,0 0.34375,0.19532 v 0.97656 q 0,2.04687 -0.4414,2.53906 -0.0898,0.10156 -0.1836,0.10156 -0.0937,0 -0.16797,-0.0234 -0.0703,-0.0234 -0.1289,-0.0703 -0.0937,-0.0742 -0.0937,-0.18359 0,-0.043 0.0156,-0.0937 0.15625,-0.55469 0.24219,-1.35156 -0.17578,0.0352 -0.45703,0.0352 -0.21875,0 -0.34766,-0.004 l -0.68359,-0.0742 q -0.0664,-0.0117 -0.12109,-0.0273 z m 3.78515,-1.86718 q 0,0.3164 -0.0352,0.6289 -0.0352,0.3086 -0.0352,0.625 -0.004,0.0937 -0.004,0.25782 v 0.0547 q 0,0.14063 0.008,0.30469 0.008,0.19531 0.0391,0.39453 0.0312,0.19531 0.0937,0.35938 0.0664,0.16015 0.16797,0.26562 0.10547,0.10156 0.26562,0.10156 0.125,0 0.2461,-0.0859 0.12109,-0.0859 0.23046,-0.22266 0.10938,-0.13672 0.20313,-0.30078 0.0977,-0.16797 0.17187,-0.32813 0.0781,-0.16015 0.13282,-0.29296 0.0586,-0.13672 0.0859,-0.20704 0.0273,-0.0586 0.0703,-0.17968 0.0469,-0.1211 0.10156,-0.26953 0.0586,-0.15235 0.12109,-0.32032 0.0625,-0.16797 0.11719,-0.3164 0.0547,-0.15235 0.0977,-0.27344 0.043,-0.12109 0.0625,-0.17969 0.0508,-0.125 0.13281,-0.17969 0.082,-0.0547 0.21875,-0.0547 0.16406,0 0.25781,0.0859 0.0937,0.0859 0.0937,0.25 V 102.5 q -0.0117,0.0508 -0.0391,0.16016 -0.0234,0.10547 -0.0547,0.24218 -0.0312,0.13672 -0.0664,0.28516 -0.0312,0.14844 -0.0625,0.28516 -0.0273,0.13672 -0.0508,0.24609 -0.0195,0.10547 -0.0273,0.15625 -0.008,0.0391 -0.0156,0.14844 -0.008,0.10937 -0.0195,0.26172 -0.0117,0.14843 -0.0312,0.32812 -0.0195,0.17969 -0.0469,0.35938 -0.0273,0.17968 -0.0625,0.35156 -0.0352,0.16797 -0.0859,0.30078 -0.0508,0.12891 -0.11328,0.21094 -0.0625,0.0781 -0.14453,0.0781 -0.0391,0 -0.0977,-0.0117 -0.0547,-0.0117 -0.10937,-0.0352 -0.0508,-0.0273 -0.0898,-0.0625 -0.0391,-0.0391 -0.0391,-0.0898 v -0.53515 q -0.12109,0.043 -0.21094,0.11719 -0.0898,0.0742 -0.16796,0.16406 -0.0781,0.0898 -0.15235,0.18359 -0.0742,0.0898 -0.16797,0.16797 -0.0898,0.0742 -0.20703,0.12109 -0.11719,0.0469 -0.28125,0.0469 -0.29687,0 -0.50781,-0.11719 -0.20703,-0.12109 -0.35156,-0.3164 -0.14063,-0.19922 -0.22266,-0.45313 -0.082,-0.25391 -0.125,-0.52344 -0.043,-0.26953 -0.0547,-0.53125 -0.0117,-0.26562 -0.0117,-0.48437 0,-0.0898 -0.0117,-0.24219 -0.0117,-0.15625 -0.0156,-0.33594 v -0.0898 q 0,-0.13672 0.008,-0.27734 0.0117,-0.1875 0.0586,-0.33594 0.0508,-0.14844 0.14453,-0.24219 0.0937,-0.0977 0.2539,-0.0977 0.13672,0 0.23438,0.10157 0.10156,0.0977 0.10156,0.25 z m 4.3086,0.0859 q -0.0469,0.65625 -0.0508,0.8711 v 0.14453 q 0.125,-0.0859 0.26954,-0.20313 0.14843,-0.11718 0.30078,-0.24609 0.15234,-0.13281 0.30078,-0.26953 0.15234,-0.13672 0.28906,-0.26172 0.13672,-0.12891 0.25,-0.23437 0.11328,-0.10938 0.19141,-0.1836 0.043,-0.0664 0.10937,-0.0664 h 0.1211 q 0.16796,0 0.26562,0.0781 0.0977,0.0781 0.0977,0.25 0,0.0781 -0.008,0.125 -0.008,0.043 -0.0586,0.10547 -0.0312,0.0273 -0.14453,0.125 -0.10938,0.0977 -0.26563,0.23437 -0.15234,0.13282 -0.32812,0.28907 -0.17578,0.15625 -0.33594,0.30078 -0.16015,0.14453 -0.28515,0.26562 -0.125,0.11719 -0.17579,0.17969 0.28125,0.14844 0.50391,0.32031 0.22266,0.16797 0.40234,0.36719 0.1836,0.19922 0.33594,0.43359 0.15235,0.23438 0.29297,0.51563 v 0.14062 q 0,0.15625 -0.082,0.25391 -0.082,0.0977 -0.25,0.0977 -0.0937,0 -0.16797,-0.0234 -0.0742,-0.0273 -0.12891,-0.12109 -0.0781,-0.15235 -0.17578,-0.31641 -0.0937,-0.16797 -0.20703,-0.32422 -0.11328,-0.16016 -0.24609,-0.30078 -0.13281,-0.14453 -0.28906,-0.25 -0.15235,-0.10938 -0.33204,-0.17188 -0.17578,-0.0664 -0.375,-0.0664 h -0.0156 q -0.0156,0.0547 -0.0312,0.1914 -0.0117,0.13282 -0.0312,0.30079 -0.0195,0.16406 -0.0547,0.34375 -0.0312,0.17968 -0.0937,0.32812 -0.0625,0.14844 -0.16015,0.24609 -0.0937,0.0937 -0.23829,0.0937 -0.17187,0 -0.2539,-0.11328 -0.0781,-0.11328 -0.0781,-0.27343 v -0.13672 l 0.2461,-1.39844 q 0.0352,-0.0312 0.0547,-0.23828 l 0.1875,-1.99219 q 0,-0.0937 0.0195,-0.13281 0.0273,-0.0547 0.0742,-0.0937 0.0352,-0.0234 0.10938,-0.0625 0.20312,-0.0781 0.32031,-0.0781 0.16016,0 0.16797,0.14453 v 0.0898 q 0,0.3125 -0.0469,0.72265 z m 3.32812,1.91797 q 0,0.27735 0.0586,0.47657 0.0586,0.19921 0.19141,0.32812 0.13281,0.125 0.34766,0.1875 0.21484,0.0586 0.52343,0.0586 0.27735,0 0.4961,-0.125 0.21875,-0.1289 0.37109,-0.32812 0.15235,-0.20313 0.23438,-0.45313 0.082,-0.2539 0.082,-0.5039 0,-0.23438 -0.0586,-0.4375 -0.0547,-0.20313 -0.17968,-0.35156 -0.1211,-0.15235 -0.32032,-0.23829 -0.19531,-0.0859 -0.47656,-0.0859 -0.25,0 -0.46484,0.0977 -0.21094,0.0977 -0.375,0.26172 -0.16406,0.16406 -0.27735,0.37891 -0.10937,0.21094 -0.15234,0.4375 z m -0.79687,-0.0586 q 0,-0.42578 0.16015,-0.82422 0.16406,-0.39844 0.44531,-0.70703 0.28125,-0.30859 0.66407,-0.49219 0.38281,-0.1875 0.82812,-0.1875 0.45703,0 0.78906,0.15625 0.33594,0.15625 0.55079,0.42188 0.21875,0.26562 0.32421,0.61718 0.10547,0.35157 0.10547,0.7461 0,0.1914 -0.0469,0.42578 -0.0469,0.23047 -0.13672,0.46875 -0.0898,0.23828 -0.22266,0.46484 -0.13281,0.22657 -0.30468,0.40235 -0.16797,0.17187 -0.37891,0.27734 -0.20703,0.10547 -0.44531,0.10547 h -0.73828 q -0.42579,0 -0.73047,-0.16406 -0.30078,-0.16797 -0.49219,-0.4336 -0.19141,-0.26953 -0.28125,-0.60547 -0.0898,-0.33593 -0.0898,-0.67187 z m 4.5039,0.57031 q 0.043,-0.2539 0.0742,-0.53906 0.0781,-0.80859 0.0977,-1.42188 h -0.043 q -0.14844,0 -0.23047,-0.0898 -0.082,-0.0898 -0.082,-0.24219 0,-0.13281 0.0859,-0.22656 0.0859,-0.0937 0.21875,-0.15625 0.11328,-0.0547 0.30468,-0.0937 0.20313,-0.043 0.33594,-0.0547 0.22656,-0.0195 0.31641,-0.0234 0.14843,-0.004 0.24609,-0.004 0.27344,0 0.50391,0.0664 0.23828,0.0664 0.40234,0.20312 0.17578,0.14063 0.26953,0.34766 0.0977,0.21093 0.0977,0.5039 0,0.3086 -0.0937,0.50782 -0.082,0.17187 -0.20313,0.28515 0.1211,0.0547 0.21485,0.1211 0.16015,0.11328 0.24609,0.26953 0.0898,0.16015 0.0898,0.40234 v 0.49609 q 0,0.14844 -0.0664,0.26954 -0.0664,0.12109 -0.17578,0.21875 -0.125,0.10937 -0.25391,0.17968 -0.14062,0.0742 -0.28906,0.125 -0.17188,0.0586 -0.28906,0.0781 -0.14063,0.0234 -0.25391,0.0234 -0.21875,0 -0.46875,-0.0547 -0.25,-0.0547 -0.48438,-0.15625 l -0.125,-0.0547 q -0.0234,0.0352 -0.0508,0.0625 -0.0898,0.10156 -0.18359,0.10156 -0.0937,0 -0.16797,-0.0234 -0.0703,-0.0234 -0.12891,-0.0703 -0.0937,-0.0742 -0.0937,-0.18359 0,-0.043 0.0156,-0.0937 0.0234,-0.0859 0.0469,-0.17969 -0.0508,-0.0508 -0.0937,-0.10547 -0.0156,-0.0742 -0.0234,-0.0859 -0.0156,-0.0312 -0.0156,-0.082 0,-0.0586 0.0312,-0.1289 0.0273,-0.0625 0.0781,-0.10938 0.0547,-0.0508 0.10937,-0.0703 z m 0.83594,-2.08984 v 0.59375 q 0,0.20703 -0.004,0.39844 0.19922,-0.0508 0.38672,-0.0937 0.1836,-0.0391 0.34766,-0.11719 0.15625,-0.0742 0.24219,-0.17188 0.0937,-0.10937 0.0937,-0.26562 0,-0.13672 -0.0469,-0.21875 -0.0469,-0.082 -0.12891,-0.125 -0.082,-0.043 -0.1875,-0.0547 -0.14453,-0.0156 -0.23046,-0.0156 -0.14844,0 -0.29688,0.0312 -0.082,0.0156 -0.17578,0.0391 z m -0.0312,1.5625 q -0.0352,0.48437 -0.10547,0.83203 0.0664,0.0352 0.15234,0.0742 0.16407,0.0742 0.34375,0.125 0.17188,0.0469 0.32813,0.0469 0.12109,0 0.21875,-0.0234 0.125,-0.0312 0.20703,-0.0781 0.0898,-0.0508 0.15234,-0.14062 0.0586,-0.082 0.0586,-0.19922 0,-0.21875 -0.0898,-0.33985 -0.0898,-0.11718 -0.24609,-0.19531 -0.1875,-0.0898 -0.34375,-0.11328 -0.008,0 -0.17969,-0.0352 -0.17187,0.0352 -0.17968,0.0352 -0.0664,0.0117 -0.31641,0.0117 z"
       id="path13" />
  </g>
  <!-- Diagram 10 -->
  <path
     id="circle5"
     style="fill:none;stroke:#000000"
     d="m 300.5,50.5 a 50,50 0 0 1 -50,50 50,50 0 0 1 -50,-50 50,50 0 0 1 50,-50 50,50 0 0 1 50,50 z" />
  <path
     id="circle6"
     style="fill:none;stroke:#000000"
     d="m 280.5,66.5 a 30,30 0 0 1 -30,30 30,30 0 0 1 -30,-30 30,30 0 0 1 30,-30 30,30 0 0 1 30,30 z" />
  <path
     d="m 245.0918,11.515625 q -0.0645,-0.07617 -0.11719,-0.152344 -0.16406,-0.251953 -0.16406,-0.568359 0,-0.228516 0.14062,-0.392578 0.14649,-0.164063 0.39844,-0.164063 0.14062,0 0.28711,0.08789 0.13476,0.08203 0.29883,0.210937 0.1582,0.123047 0.3457,0.263672 0.1875,0.140625 0.41016,0.257813 0.22851,0.117187 0.5039,0.193359 0.26953,0.08203 0.59766,0.08203 0.082,0 0.16992,-0.0059 0.0937,-0.0059 0.1875,-0.01172 0.0996,-0.01172 0.20508,-0.02344 0.3164,-0.04102 0.65039,-0.123047 0.33984,-0.08789 0.65625,-0.216797 0.1582,-0.06445 0.29883,-0.140625 0.14062,-0.08203 0.26367,-0.181641 0.24609,-0.1875 0.39258,-0.427734 0.0703,-0.117188 0.10547,-0.251953 0.041,-0.134766 0.041,-0.28711 0,-0.205078 -0.0996,-0.36914 -0.10547,-0.175781 -0.26953,-0.310547 -0.082,-0.07031 -0.17578,-0.123047 -0.0937,-0.05859 -0.19922,-0.105469 -0.0996,-0.04687 -0.19922,-0.08203 -0.0996,-0.04102 -0.19922,-0.06445 L 246.9668,7.935504 q -0.0469,-0.01172 -0.0996,-0.02344 -0.0469,-0.01758 -0.0996,-0.03516 -0.0469,-0.01758 -0.0996,-0.0293 -0.0469,-0.01758 -0.0996,-0.03516 -0.0469,-0.01758 -0.0937,-0.03516 -0.0469,-0.02344 -0.0996,-0.04102 -0.041,-0.01758 -0.082,-0.03516 -0.041,-0.02344 -0.082,-0.04102 -0.041,-0.02344 -0.082,-0.04102 -0.0352,-0.02344 -0.0762,-0.04687 -0.0351,-0.02344 -0.0762,-0.04687 -0.0351,-0.02344 -0.0703,-0.04687 -0.0352,-0.02344 -0.0703,-0.05273 -0.2461,-0.18164 -0.42774,-0.427734 -0.18164,-0.246094 -0.25195,-0.5625 v -0.0059 -0.0059 0 -0.351562 q 0,-0.509766 0.16406,-0.931641 0.082,-0.210938 0.19336,-0.392578 0.11133,-0.1875 0.25781,-0.345703 0.15235,-0.158203 0.32813,-0.28711 0.18164,-0.128906 0.39258,-0.228515 0.21093,-0.09961 0.45117,-0.164063 0.0762,-0.02344 0.1582,-0.04102 0.082,-0.01758 0.16406,-0.0293 0.0879,-0.01172 0.16993,-0.02344 h 0.006 q 0.0176,0 0.0469,0 0.0293,0 0.0703,0 0.0469,-0.0059 0.0937,-0.0059 0.0469,0 0.0937,0 0.0996,0 0.1875,-0.0059 0.0469,0 0.0762,-0.0059 0.0176,0 0.0293,0 0.0117,0 0.0234,0 0.15234,0 0.43945,0 0.29297,0.0059 0.65039,0.03516 0.35743,0.02344 0.72071,0.07617 0.36914,0.05273 0.67382,0.158203 0.0176,0.0059 0.0352,0.01172 0.0234,0.0059 0.041,0.01172 0.0176,0.0059 0.0352,0.01758 0.0176,0.0059 0.0352,0.01172 0.0703,0.0293 0.12891,0.06445 0.0645,0.0293 0.11718,0.06445 0.0586,0.03516 0.10547,0.07617 0.10547,0.08203 0.1582,0.193359 0.0293,0.05273 0.041,0.111328 0.0117,0.05273 0.0117,0.117188 0,0.05859 -0.0117,0.111328 -0.006,0.05273 -0.0234,0.09961 -0.0117,0.02344 -0.0234,0.04687 -0.006,0.02344 -0.0234,0.04687 -0.0293,0.04687 -0.0586,0.08789 -0.0703,0.08203 -0.17578,0.123047 -0.0352,0.01172 -0.0703,0.02344 -0.0352,0.0059 -0.0762,0.01172 -0.0352,0.0059 -0.0762,0.0059 h -0.0703 -0.006 -0.006 q -0.64454,-0.140625 -1.28321,-0.257812 -0.10547,-0.01758 -0.21094,-0.03516 -0.10546,-0.01758 -0.21679,-0.0293 -0.10547,-0.01172 -0.21094,-0.02344 -0.16406,-0.01172 -0.32812,-0.01758 -0.15821,-0.01172 -0.32227,-0.01172 -0.0645,0 -0.12891,0.0059 -0.0586,0 -0.11718,0.0059 -0.0586,0 -0.11719,0.0059 -0.0586,0.0059 -0.11719,0.01172 -0.11719,0.01172 -0.22266,0.03516 -0.082,0.01758 -0.1582,0.04102 -0.0176,0.0059 -0.041,0.01172 -0.0176,0.0059 -0.0352,0.01172 -0.0176,0.0059 -0.0352,0.01172 -0.0176,0.0059 -0.0351,0.01172 -0.0176,0.0059 -0.0352,0.01758 -0.0176,0.0059 -0.0352,0.01172 -0.0176,0.0059 -0.0351,0.01758 -0.0176,0.0059 -0.0293,0.01758 -0.0644,0.03516 -0.1289,0.07031 -0.24024,0.158203 -0.38086,0.416015 -0.0703,0.128907 -0.10547,0.292969 -0.0352,0.164063 -0.0352,0.363281 0,0.152344 0.0762,0.263672 0.006,0.0059 0.006,0.01758 0.006,0.0059 0.0117,0.01172 0.006,0.0059 0.006,0.01172 0.0117,0.01758 0.0293,0.03516 0.0176,0.01758 0.0351,0.03516 0.0176,0.01758 0.0352,0.03516 0.0176,0.01758 0.0352,0.03516 0.0176,0.01172 0.0351,0.0293 0.041,0.0293 0.082,0.05859 0.0469,0.02344 0.0937,0.04687 0.0234,0.01172 0.0469,0.02344 0.0234,0.01172 0.0469,0.02344 0.15235,0.06445 0.29297,0.09375 l 2.54883,0.644531 q 0.10547,0.02344 0.20508,0.05859 0.10547,0.0293 0.21094,0.07031 0.20507,0.07031 0.41015,0.164063 0.39844,0.1875 0.70313,0.451171 0.10547,0.08789 0.19336,0.19336 0.0469,0.05273 0.0879,0.105469 0.041,0.05273 0.082,0.105468 0.0762,0.111328 0.14062,0.234375 0.19336,0.369141 0.19336,0.832032 0,0.164062 -0.0234,0.316406 -0.0176,0.152344 -0.0645,0.292969 -0.041,0.140625 -0.0996,0.27539 -0.0937,0.199219 -0.22265,0.375 -0.12891,0.175781 -0.28125,0.333985 -0.0762,0.07617 -0.16407,0.152343 -0.0879,0.07031 -0.17578,0.140625 -0.18164,0.134766 -0.38672,0.246094 -0.42187,0.222656 -0.8789,0.375 -0.22852,0.07617 -0.46289,0.128906 -0.23438,0.05273 -0.46875,0.09375 -0.22852,0.03516 -0.45117,0.05273 -0.2168,0.01758 -0.42188,0.01758 -0.22266,0 -0.52734,-0.03516 -0.30469,-0.04102 -0.63282,-0.123047 -0.0469,-0.01172 -0.0937,-0.0293 -0.0234,-0.0059 -0.0527,-0.01172 -0.0234,-0.0059 -0.0469,-0.01172 -0.0469,-0.01172 -0.0937,-0.02344 -0.0469,-0.01758 -0.0937,-0.03516 -0.0176,-0.0059 -0.0351,-0.01172 -0.0117,-0.0059 -0.0293,-0.01172 -0.0117,-0.0059 -0.0234,-0.01172 -0.0469,-0.01758 -0.0937,-0.03516 -0.0469,-0.01758 -0.0879,-0.03516 -0.32226,-0.128906 -0.57422,-0.316406 -0.082,-0.06445 -0.1582,-0.128907 -0.0351,-0.03516 -0.0762,-0.07031 -0.0352,-0.04102 -0.0645,-0.07617 z"
     id="text6"
     style="font-size:12px;font-family:Lavi;-inkscape-font-specification:Lavi"
     aria-label="S" />
  <path
     d="m 248.6543,64.82031 v -0.006 -0.006 -0.006 l 0.40429,-1.5 q 0.18164,-0.65039 0.27539,-1.33007 0.0996,-0.68555 0.14649,-1.38282 0.0469,-0.69726 0.0586,-1.39453 0.006,-0.66211 0.006,-1.3125 h -0.0234 q -0.0469,0 -0.0996,0.006 -0.0469,0 -0.0937,0.006 -0.0469,0.006 -0.0937,0.0176 -0.0469,0.006 -0.0879,0.0176 -0.1875,0.0469 -0.36914,0.0996 -0.18164,0.0586 -0.35156,0.10547 -0.18164,0.0469 -0.38086,0.0469 -0.24609,0 -0.38672,-0.12891 -0.14062,-0.1289 -0.14062,-0.38085 0,-0.26368 0.23437,-0.4336 0.2168,-0.16406 0.55664,-0.27539 0.041,-0.0117 0.082,-0.0234 0.0469,-0.0117 0.0879,-0.0234 0.0469,-0.0117 0.0937,-0.0234 0.0469,-0.0117 0.0937,-0.0234 0.1875,-0.041 0.39257,-0.0703 0.41602,-0.0644 0.81446,-0.0937 0.40429,-0.0293 0.74414,-0.0352 0.16992,-0.006 0.29297,-0.006 0.0644,0 0.11718,0 0.0586,0 0.10547,0 0.38672,0 0.84375,0.0352 0.45703,0.0352 0.90821,0.11719 0.22851,0.0469 0.45117,0.10547 0.11133,0.0293 0.21679,0.0644 0.10547,0.0352 0.21094,0.0762 0.0234,0.006 0.041,0.0176 0.0234,0.006 0.041,0.0176 0.0234,0.006 0.041,0.0176 0.0176,0.006 0.0351,0.0176 0.0234,0.006 0.0469,0.0176 0.0234,0.0117 0.0469,0.0234 0.0234,0.0117 0.0469,0.0234 0.0234,0.0117 0.0469,0.0234 0.0234,0.0117 0.0469,0.0234 0.0937,0.0527 0.18164,0.11133 0.041,0.0293 0.082,0.0645 0.041,0.0293 0.082,0.0586 0.32813,0.25781 0.52149,0.63281 0.19336,0.375 0.19336,0.8789 0,0.13477 -0.0176,0.26368 -0.0176,0.12304 -0.0527,0.24023 -0.0293,0.11719 -0.082,0.22266 -0.0469,0.10547 -0.11133,0.19922 -0.041,0.0644 -0.0937,0.12304 -0.0469,0.0527 -0.0996,0.11133 -0.10547,0.11133 -0.22266,0.20508 -0.11719,0.0879 -0.25195,0.16992 -0.19922,0.11719 -0.42774,0.19922 -0.11133,0.041 -0.22851,0.082 -0.11719,0.0352 -0.24024,0.0644 -0.041,0.0117 -0.082,0.0234 -0.041,0.006 -0.082,0.0176 -0.041,0.006 -0.082,0.0117 -0.041,0.006 -0.082,0.0176 -0.0352,0.006 -0.0762,0.0117 -0.041,0.006 -0.082,0.0117 -0.11718,0.0176 -0.23437,0.0293 -0.11719,0.0117 -0.23438,0.0176 l -1.89843,0.0996 -0.4043,2.55469 q -0.006,0.0293 -0.0176,0.0703 -0.006,0.0352 -0.0117,0.082 -0.006,0.0469 -0.0176,0.10547 -0.0234,0.16992 -0.0645,0.36914 -0.041,0.19922 -0.10547,0.39844 -0.0645,0.21093 -0.16406,0.38086 -0.0996,0.17578 -0.23438,0.28711 -0.14648,0.11718 -0.33398,0.11718 -0.12305,0 -0.22266,-0.0352 -0.0469,-0.0176 -0.0937,-0.0469 -0.041,-0.0293 -0.0762,-0.0645 -0.0351,-0.0352 -0.0586,-0.0762 -0.0234,-0.0469 -0.041,-0.0996 -0.0352,-0.0996 -0.0352,-0.2168 z m 3.66211,-7.00781 q -0.33985,-0.0352 -0.64454,-0.041 -0.31054,-0.006 -0.52734,-0.006 -0.006,0 -0.0117,0 -0.006,0 -0.0117,0 h -0.0234 q -0.0117,0 -0.0352,0 -0.006,0 -0.0176,0 -0.006,0 -0.0176,0 l -0.14648,0.006 q -0.0762,0 -0.12891,0.006 l -0.0293,0.006 -0.0117,0.0234 q -0.006,0.13477 -0.0117,0.25195 0,0.0645 -0.006,0.12891 0,0.0586 0,0.11719 -0.006,0.12304 -0.0117,0.24023 -0.006,0.15235 -0.0117,0.31641 0,0.0527 -0.006,0.11133 0,0.0527 -0.006,0.10547 0,0.0527 0,0.10546 -0.006,0.15235 -0.0117,0.29297 0,0.0469 0,0.0937 0,0.041 0,0.082 0,0.0352 0,0.0703 v 0.29297 q 0.0879,0 0.19336,0.006 0.11133,0 0.25196,0 h 0.19922 0.16992 q 0.17578,0 0.36914,-0.006 0.39844,-0.0117 0.81445,-0.0645 0.20508,-0.0293 0.39258,-0.0703 0.19336,-0.0469 0.36328,-0.10547 0.33398,-0.11719 0.53906,-0.30469 0.0469,-0.0469 0.082,-0.0937 0.041,-0.0527 0.0645,-0.11132 0.0293,-0.0586 0.041,-0.12305 0.0117,-0.0644 0.0117,-0.13477 0,-0.15234 -0.041,-0.28125 -0.0352,-0.1289 -0.11133,-0.23437 -0.0234,-0.0352 -0.0527,-0.0645 -0.0293,-0.0352 -0.0644,-0.0644 -0.0293,-0.0352 -0.0645,-0.0645 -0.0117,-0.0117 -0.0234,-0.0176 -0.0117,-0.0117 -0.0234,-0.0176 -0.0117,-0.0117 -0.0234,-0.0234 -0.0351,-0.0293 -0.0762,-0.0527 -0.0176,-0.0117 -0.041,-0.0234 -0.0176,-0.0117 -0.041,-0.0234 -0.1289,-0.0703 -0.28125,-0.12305 -0.14648,-0.0527 -0.31055,-0.0937 -0.11132,-0.0234 -0.22265,-0.0469 -0.0586,-0.0117 -0.11719,-0.0176 -0.0527,-0.0117 -0.11133,-0.0176 -0.0527,-0.0117 -0.10547,-0.0176 -0.0527,-0.006 -0.11132,-0.0117 z"
     id="text7"
     style="font-size:12px;font-family:Lavi;-inkscape-font-specification:Lavi"
     aria-label="P" />
  <path
     d="m 228.22559,18.300781 q -0.24903,0.06836 -0.62989,0.06836 -0.37597,0 -0.54687,-0.0049 l -0.92285,-0.102539 v 0.917968 q 0,2.578125 -0.57618,3.208008 -0.12207,0.141602 -0.21484,0.141602 -0.0879,0 -0.12695,-0.0049 -0.19043,-0.01465 -0.32715,-0.12207 -0.13184,-0.107422 -0.13184,-0.219727 0,-0.112305 0.0195,-0.180664 0.39063,-1.37207 0.43457,-3.969726 0.0488,-0.185547 0.14161,-0.273438 0.0976,-0.08789 0.34179,-0.136719 l 0.58106,-0.112304 0.91308,-0.0293 1.52344,0.15625 q 0.35156,0.03418 0.43945,0.3125 v 1.230468 q 0,2.573243 -0.5664,3.208008 -0.12207,0.141602 -0.22461,0.141602 -0.27832,0 -0.43457,-0.117188 -0.15137,-0.117187 -0.15137,-0.229492 0,-0.112305 0.0244,-0.180664 0.37597,-1.303711 0.43457,-3.701172 z m 2.73925,-0.444336 q 0,0.395508 -0.0439,0.786133 -0.0439,0.385742 -0.0439,0.78125 -0.005,0.117188 -0.005,0.322266 v 0.06836 q 0,0.175781 0.01,0.380859 0.01,0.244141 0.0488,0.493165 0.0391,0.24414 0.11719,0.449218 0.083,0.200196 0.20996,0.332032 0.13184,0.126953 0.33203,0.126953 0.15625,0 0.30762,-0.107422 0.15137,-0.107422 0.28809,-0.278321 0.13672,-0.170898 0.2539,-0.375976 0.12207,-0.209961 0.21485,-0.410156 0.0977,-0.200196 0.16601,-0.366211 0.0732,-0.170899 0.10742,-0.258789 0.0342,-0.07324 0.0879,-0.22461 0.0586,-0.151367 0.12696,-0.336914 0.0732,-0.190429 0.15137,-0.40039 0.0781,-0.209961 0.14648,-0.395508 0.0684,-0.19043 0.12207,-0.341797 0.0537,-0.151367 0.0781,-0.224609 0.0635,-0.15625 0.16602,-0.22461 0.10254,-0.06836 0.27344,-0.06836 0.20508,0 0.32226,0.107422 0.11719,0.107422 0.11719,0.3125 V 18.125 q -0.0146,0.06348 -0.0488,0.200195 -0.0293,0.131836 -0.0684,0.302735 -0.0391,0.170898 -0.083,0.356445 -0.0391,0.185547 -0.0781,0.356445 -0.0342,0.170899 -0.0635,0.307617 -0.0244,0.131836 -0.0342,0.195313 -0.01,0.04883 -0.0195,0.185547 -0.01,0.136719 -0.0244,0.327148 -0.0146,0.185547 -0.0391,0.410157 -0.0244,0.224609 -0.0586,0.449218 -0.0342,0.22461 -0.0781,0.439453 -0.0439,0.209961 -0.10742,0.375977 -0.0635,0.161133 -0.14161,0.263672 -0.0781,0.09766 -0.18066,0.09766 -0.0488,0 -0.12207,-0.01465 -0.0684,-0.01465 -0.13672,-0.04395 -0.0635,-0.03418 -0.1123,-0.07813 -0.0488,-0.04883 -0.0488,-0.112304 v -0.668946 q -0.15137,0.05371 -0.26367,0.146485 -0.11231,0.09277 -0.20996,0.205078 -0.0977,0.112305 -0.19043,0.229492 -0.0928,0.112305 -0.20996,0.209961 -0.11231,0.09277 -0.25879,0.151367 -0.14649,0.05859 -0.35157,0.05859 -0.37109,0 -0.63476,-0.146484 -0.25879,-0.151368 -0.43946,-0.395508 -0.17578,-0.249024 -0.27832,-0.566407 -0.10253,-0.317382 -0.15625,-0.654296 -0.0537,-0.336914 -0.0684,-0.664063 -0.0147,-0.332031 -0.0147,-0.605469 0,-0.112304 -0.0146,-0.302734 -0.0147,-0.195313 -0.0195,-0.419922 v -0.112305 q 0,-0.170898 0.01,-0.346679 0.0146,-0.234375 0.0732,-0.419922 0.0635,-0.185547 0.18067,-0.302735 0.11719,-0.12207 0.31738,-0.12207 0.1709,0 0.29297,0.126953 0.12695,0.122071 0.12695,0.3125 z m 3.98926,1.958008 q 0,-0.522461 0.14649,-0.947266 0.15136,-0.424804 0.43457,-0.727539 0.28808,-0.302734 0.70312,-0.463867 0.41504,-0.166015 0.95215,-0.166015 0.54687,0 1.06934,0.117187 0.52246,0.117188 1.02539,0.302734 0.31738,0.161133 0.31738,0.512696 0,0.214844 -0.14649,0.346679 -0.14648,0.126954 -0.34668,0.126954 -0.23925,0 -0.47363,-0.05371 -0.22949,-0.05371 -0.46387,-0.117188 -0.22949,-0.06836 -0.46875,-0.12207 -0.23437,-0.05859 -0.47851,-0.05859 -0.62012,0 -0.9375,0.292969 -0.3125,0.292969 -0.3125,0.942383 0,0.336914 0.0732,0.649414 0.0732,0.3125 0.23438,0.551758 0.16601,0.234375 0.42968,0.380859 0.26368,0.141601 0.63965,0.141601 0.25391,0 0.47852,-0.09277 0.22949,-0.09277 0.43945,-0.205078 0.21484,-0.112305 0.42481,-0.205078 0.20996,-0.09277 0.43457,-0.09277 0.21484,0 0.36132,0.126953 0.15137,0.122071 0.15137,0.34668 0,0.209961 -0.12695,0.38086 -0.12695,0.170898 -0.33203,0.302734 -0.2002,0.131836 -0.45899,0.224609 -0.2539,0.09277 -0.51269,0.15625 -0.25391,0.05859 -0.48828,0.08789 -0.23438,0.0293 -0.39063,0.0293 -0.5957,0 -1.04492,-0.22461 -0.44434,-0.229492 -0.74219,-0.610351 -0.29297,-0.38086 -0.44433,-0.878906 -0.14649,-0.50293 -0.14649,-1.054688 z m 8.82813,-1.313476 q -0.10254,-0.03418 -0.53223,-0.03418 -2.20703,0 -2.21191,1.689453 0,0.605469 0.13671,0.888672 0.13672,0.27832 0.39551,0.478515 0.25879,0.200196 0.54688,0.200196 0.55664,0 1.05468,-0.429688 0.50293,-0.429687 0.59083,-0.952148 z m 0,1.474609 z m -3.25684,1.884766 q -0.22949,-0.341797 -0.33203,-0.786133 -0.10254,-0.444336 -0.10254,-1.040039 0,-0.600586 0.23438,-1.108399 0.4541,-0.991211 1.65527,-1.308594 0.58594,-0.15625 1.15723,-0.15625 0.01,0 0.0146,0 0.083,0.0049 0.15625,0.0049 0.43946,0 0.5127,-0.01465 0.0195,-0.0049 0.0439,-0.0049 0.083,0 0.21973,0.04395 l 0.16602,0.04883 q 0.13672,0.03906 0.27343,0.151368 0.14161,0.107422 0.14161,0.214843 l 0.0537,2.475586 q 0.005,0.278321 0.12695,0.683594 0.21973,0.74707 0.21973,0.991211 0,0.239258 -0.12696,0.385742 -0.12695,0.146485 -0.33691,0.146485 -0.37598,0 -0.50293,-0.332032 -0.10254,-0.253906 -0.16113,-0.478515 -0.44434,0.375976 -0.73731,0.532226 -0.58105,0.302735 -1.13281,0.302735 -0.55176,0 -0.93262,-0.205078 -0.37597,-0.205079 -0.61035,-0.546875 z m 5.42481,-3.457032 q -0.083,0 -0.14161,-0.03906 -0.0586,-0.04395 -0.0976,-0.102539 -0.0391,-0.06348 -0.0586,-0.136719 -0.0195,-0.07324 -0.0195,-0.136719 0,-0.05859 0.0195,-0.126953 0.0195,-0.06836 0.0586,-0.126953 0.0391,-0.05859 0.0879,-0.09766 0.0537,-0.03906 0.12207,-0.03906 h 3.71094 q 0.0732,0 0.21972,-0.0049 0.0732,0 0.15137,0 0.083,-0.0049 0.1709,0 0.17578,0.0049 0.35156,0.0293 0.18066,0.02441 0.32715,0.08301 0.14648,0.05859 0.23926,0.161133 0.0977,0.102539 0.0977,0.263672 0,0.175781 -0.1123,0.297851 -0.10742,0.122071 -0.29297,0.122071 -0.33691,0 -0.67383,-0.04395 -0.33203,-0.04395 -0.67871,-0.04395 l -0.78613,-0.01465 v 0.683593 q 0,2.558594 -0.55176,3.173828 -0.1123,0.126954 -0.22949,0.126954 -0.11719,0 -0.20996,-0.0293 -0.0879,-0.0293 -0.16114,-0.08789 -0.11718,-0.09277 -0.11718,-0.229492 0,-0.04883 0.0195,-0.117188 0.35644,-1.264648 0.4248,-3.535156 z m 8.4082,0.146485 q -0.16113,0 -0.35156,0.03418 -0.18555,0.0293 -0.3711,0.09277 -0.18554,0.05859 -0.36133,0.151367 -0.17578,0.08789 -0.30761,0.209961 -0.13184,0.117187 -0.21485,0.263672 -0.0781,0.141601 -0.0781,0.3125 0.0732,0 0.30273,-0.0049 0.23438,-0.0098 0.53711,-0.02441 0.30762,-0.01953 0.63965,-0.04395 0.33203,-0.0293 0.61035,-0.06836 0.2832,-0.04394 0.46387,-0.09766 0.18066,-0.05371 0.18066,-0.126953 0,-0.209961 -0.11718,-0.34668 -0.11231,-0.136719 -0.27832,-0.214844 -0.16114,-0.07813 -0.3418,-0.107421 -0.18067,-0.0293 -0.3125,-0.0293 z m -2.66113,1.411132 q 0,-0.502929 0.21484,-0.932617 0.21484,-0.43457 0.58105,-0.751953 0.36621,-0.317383 0.84473,-0.498047 0.4834,-0.185547 1.01074,-0.185547 0.36621,0 0.72754,0.08789 0.36133,0.08301 0.64942,0.27832 0.28808,0.195313 0.46386,0.512696 0.18067,0.317382 0.18067,0.776367 0,0.229492 -0.0879,0.410156 -0.0879,0.180664 -0.23438,0.317383 -0.14648,0.136719 -0.33691,0.234375 -0.19043,0.09277 -0.40039,0.15625 -0.20996,0.06348 -0.42481,0.09766 -0.21484,0.03418 -0.40527,0.04395 l -1.75781,0.09766 V 20.625 q 0,0.244141 0.11718,0.419922 0.11719,0.175781 0.29786,0.292969 0.18066,0.117187 0.3955,0.175781 0.21485,0.05371 0.41504,0.05371 0.24414,0 0.4541,-0.08789 0.21485,-0.08789 0.41504,-0.19043 0.2002,-0.107421 0.39551,-0.195312 0.2002,-0.08789 0.41016,-0.08789 0.20019,0 0.34179,0.117188 0.14161,0.112305 0.14161,0.327148 0,0.200196 -0.12208,0.361328 -0.11718,0.15625 -0.30761,0.283204 -0.19043,0.12207 -0.43457,0.20996 -0.23926,0.08789 -0.47852,0.146485 -0.23926,0.05371 -0.45898,0.07813 -0.21973,0.0293 -0.3711,0.0293 -0.56152,0 -0.98144,-0.209961 -0.41992,-0.214844 -0.69824,-0.571289 -0.27832,-0.361328 -0.41993,-0.830078 -0.13671,-0.473633 -0.13671,-0.986329 z m 5.17578,2.25586 v -0.84961 q 0,-1.09375 0.52734,-2.094726 0.52734,-1.005859 1.60645,-1.958008 0.0391,-0.03418 0.14648,0.0293 0.1123,0.05859 0.26367,0.195312 0.15137,0.131836 0.32715,0.332032 0.18066,0.195312 0.36133,0.43457 0.18555,0.239258 0.35156,0.512695 0.1709,0.268555 0.30274,0.546875 0.13183,0.273438 0.20996,0.546875 0.0781,0.273438 0.0781,0.522461 0,0.102539 0.01,0.307617 0.01,0.205079 0.01,0.454102 0,0.244141 -0.0244,0.50293 -0.0195,0.253906 -0.0879,0.46875 -0.0635,0.209961 -0.18555,0.341797 -0.11719,0.136718 -0.3125,0.136718 -0.19531,0 -0.32715,-0.126953 -0.12695,-0.126953 -0.12695,-0.327148 0,-0.219727 0.0195,-0.434571 0.0195,-0.214843 0.0439,-0.429687 0.0293,-0.219727 0.0488,-0.43457 0.0195,-0.214844 0.0195,-0.434571 0,-0.180664 -0.0733,-0.40039 -0.0732,-0.219727 -0.19043,-0.439453 -0.1123,-0.219727 -0.24902,-0.419922 -0.13672,-0.205078 -0.26367,-0.351563 -0.12695,-0.146484 -0.22949,-0.214844 -0.0977,-0.07324 -0.14161,-0.0293 -0.23925,0.249023 -0.4248,0.566406 -0.18555,0.317383 -0.32715,0.664062 -0.1416,0.34668 -0.23926,0.703125 -0.0976,0.351563 -0.15625,0.678711 -0.0586,0.322266 -0.083,0.605469 -0.0195,0.234375 -0.0195,0.410156 v 0.06836 q -0.0146,0.06348 -0.0586,0.12207 -0.0439,0.05859 -0.10742,0.09766 -0.0635,0.03906 -0.13672,0.06348 -0.0684,0.02441 -0.13184,0.02441 -0.17578,0 -0.27832,-0.112305 -0.10254,-0.117187 -0.15136,-0.27832 z m 5.86425,-4.360352 q 0,0.395508 -0.0439,0.786133 -0.0439,0.385742 -0.0439,0.78125 -0.005,0.117188 -0.005,0.322266 v 0.06836 q 0,0.175781 0.01,0.380859 0.01,0.244141 0.0488,0.493165 0.0391,0.24414 0.11719,0.449218 0.083,0.200196 0.20996,0.332032 0.13184,0.126953 0.33203,0.126953 0.15625,0 0.30762,-0.107422 0.15137,-0.107422 0.28809,-0.278321 0.13672,-0.170898 0.2539,-0.375976 0.12207,-0.209961 0.21485,-0.410156 0.0976,-0.200196 0.16601,-0.366211 0.0733,-0.170899 0.10743,-0.258789 0.0342,-0.07324 0.0879,-0.22461 0.0586,-0.151367 0.12695,-0.336914 0.0732,-0.190429 0.15137,-0.40039 0.0781,-0.209961 0.14648,-0.395508 0.0684,-0.19043 0.12207,-0.341797 0.0537,-0.151367 0.0781,-0.224609 0.0635,-0.15625 0.16601,-0.22461 0.10254,-0.06836 0.27344,-0.06836 0.20508,0 0.32226,0.107422 0.11719,0.107422 0.11719,0.3125 V 18.125 q -0.0147,0.06348 -0.0488,0.200195 -0.0293,0.131836 -0.0684,0.302735 -0.0391,0.170898 -0.083,0.356445 -0.0391,0.185547 -0.0781,0.356445 -0.0342,0.170899 -0.0635,0.307617 -0.0244,0.131836 -0.0342,0.195313 -0.01,0.04883 -0.0195,0.185547 -0.01,0.136719 -0.0244,0.327148 -0.0147,0.185547 -0.0391,0.410157 -0.0244,0.224609 -0.0586,0.449218 -0.0342,0.22461 -0.0781,0.439453 -0.0439,0.209961 -0.10742,0.375977 -0.0635,0.161133 -0.1416,0.263672 -0.0781,0.09766 -0.18067,0.09766 -0.0488,0 -0.12207,-0.01465 -0.0684,-0.01465 -0.13672,-0.04395 -0.0635,-0.03418 -0.1123,-0.07813 -0.0488,-0.04883 -0.0488,-0.112304 v -0.668946 q -0.15137,0.05371 -0.26367,0.146485 -0.11231,0.09277 -0.20996,0.205078 -0.0977,0.112305 -0.19043,0.229492 -0.0928,0.112305 -0.20996,0.209961 -0.11231,0.09277 -0.25879,0.151367 -0.14649,0.05859 -0.35157,0.05859 -0.37109,0 -0.63476,-0.146484 -0.25879,-0.151368 -0.43945,-0.395508 -0.17579,-0.249024 -0.27832,-0.566407 -0.10254,-0.317382 -0.15625,-0.654296 -0.0537,-0.336914 -0.0684,-0.664063 -0.0147,-0.332031 -0.0147,-0.605469 0,-0.112304 -0.0147,-0.302734 -0.0146,-0.195313 -0.0195,-0.419922 v -0.112305 q 0,-0.170898 0.01,-0.346679 0.0147,-0.234375 0.0733,-0.419922 0.0635,-0.185547 0.18066,-0.302735 0.11719,-0.12207 0.31738,-0.12207 0.1709,0 0.29297,0.126953 0.12695,0.122071 0.12695,0.3125 z"
     id="text8"
     style="font-size:10px;font-family:Lavi;-inkscape-font-specification:Lavi"
     aria-label="писатели" />
  <path
     d="m 226.63672,76.72266 q 0.0156,0.19922 0.13672,0.34765 0.12109,0.14453 0.30078,0.2461 0.18359,0.0977 0.40625,0.16015 0.22265,0.0625 0.4414,0.0977 0.22266,0.0312 0.41797,0.043 0.19532,0.0117 0.32813,0.0117 v -0.0977 q -0.004,-0.0586 -0.004,-0.22266 0.004,-0.16796 0.0117,-0.38671 0.008,-0.21875 0.0156,-0.46485 0.008,-0.24609 0.0156,-0.46484 0.008,-0.22266 0.008,-0.38672 0.004,-0.16797 0,-0.22656 h -0.0586 q -0.10938,-0.004 -0.3125,-0.0117 -0.0664,-0.004 -0.13672,0 -0.14062,0 -0.29687,0.0117 -0.23438,0.0195 -0.47657,0.0859 -0.23828,0.0625 -0.42578,0.21094 -0.1875,0.14844 -0.29687,0.40235 -0.082,0.19531 -0.082,0.47656 0,0.0781 0.008,0.16797 z m -0.81641,2.28125 v -0.043 -0.0625 -0.0625 -0.043 q 0.0312,-0.10156 0.13672,-0.16797 0.10938,-0.0664 0.21094,-0.0664 0.16015,0 0.24609,0.0508 0.0899,0.0547 0.15235,0.13282 0.0625,0.0781 0.125,0.16797 0.0625,0.0937 0.17187,0.17187 0.11328,0.082 0.29297,0.12891 0.15625,0.043 0.39844,0.043 h 0.0391 0.043 q 0.0976,0 0.21875,-0.004 0.12109,0 0.24609,-0.0234 0.125,-0.0195 0.24219,-0.0664 0.11719,-0.043 0.19922,-0.12891 0.082,-0.0859 0.12109,-0.22656 0.0234,-0.082 0.0234,-0.1875 0,-0.0742 -0.0117,-0.15625 -0.25391,-0.0156 -0.5625,-0.0469 -0.30859,-0.0352 -0.62109,-0.10547 -0.3125,-0.0742 -0.60938,-0.19531 -0.29297,-0.12109 -0.52734,-0.30859 -0.23047,-0.19141 -0.375,-0.45313 -0.14453,-0.26562 -0.15235,-0.6289 v -0.10157 q 0,-0.49609 0.13672,-0.83984 0.15235,-0.37891 0.41016,-0.61719 0.26172,-0.23828 0.59375,-0.35937 0.33594,-0.125 0.68359,-0.17578 0.35157,-0.0508 0.6836,-0.0547 0.33593,-0.004 0.58984,-0.004 h 0.32813 q 0.0273,0.0156 0.0742,0.0391 0.0469,0.0195 0.0899,0.0508 0.043,0.0273 0.0742,0.0625 0.0312,0.0352 0.0312,0.0781 l -0.12891,3.98828 q 0,0.2461 -0.082,0.4336 -0.0781,0.1914 -0.21484,0.33203 -0.13282,0.14453 -0.3125,0.23828 -0.17969,0.0977 -0.37891,0.15625 -0.19922,0.0625 -0.41016,0.0859 -0.20703,0.0273 -0.39843,0.0273 -0.33594,0 -0.64454,-0.0859 -0.30859,-0.0859 -0.55468,-0.23047 -0.24219,-0.14453 -0.39844,-0.33984 -0.15234,-0.19141 -0.17969,-0.40234 z m 5.33594,-3.03125 -0.0117,0.0508 -0.004,0.0352 q -0.004,0.0273 -0.0117,0.12891 -0.008,0.0977 -0.0234,0.23438 -0.0117,0.13281 -0.0312,0.28906 -0.0156,0.15234 -0.0274,0.28906 -0.0117,0.13281 -0.0234,0.23438 -0.0117,0.0977 -0.0117,0.125 0.12109,0.0391 0.21094,0.0586 0.0898,0.0195 0.16796,0.0312 0.082,0.008 0.16407,0.0195 0.0859,0.008 0.19922,0.0273 0.18359,0.0273 0.39062,0.043 0.0859,0.004 0.16797,0.008 0.12109,0 0.24219,-0.0117 0.20312,-0.0195 0.39453,-0.0742 0.19531,-0.0586 0.35156,-0.16406 0.15625,-0.10938 0.26563,-0.27344 0.11328,-0.16406 0.15234,-0.39453 0.0195,-0.10547 0.0195,-0.20703 0,-0.0625 -0.008,-0.1211 -0.0195,-0.15625 -0.0859,-0.28125 -0.0664,-0.1289 -0.18359,-0.21094 -0.11719,-0.0859 -0.28516,-0.11718 -0.0937,-0.0156 -0.27344,-0.0273 -0.17968,-0.0156 -0.40234,-0.0156 -0.21875,0 -0.44922,0.0156 -0.23047,0.0156 -0.42578,0.0508 -0.19141,0.0352 -0.32422,0.10157 -0.12891,0.0625 -0.14453,0.15625 z m -0.78516,-1.17969 q 0.0312,-0.16016 0.14844,-0.23438 0.0898,-0.0547 0.19922,-0.0547 0.0352,0 0.0703,0.004 0.14453,0.0273 0.21094,0.0781 0.0664,0.0508 0.0937,0.125 0.0312,0.0742 0.0391,0.16406 0.008,0.0898 0.0312,0.19531 0.52735,-0.16406 1.06641,-0.17187 0.0508,0 0.0976,-0.004 0.49219,0 1,0.0898 0.3086,0.0547 0.54688,0.22265 0.23828,0.16406 0.38672,0.40625 0.14844,0.23828 0.20312,0.53516 0.0274,0.14844 0.0274,0.29687 0,0.14844 -0.0274,0.30469 -0.0703,0.40625 -0.30859,0.72266 -0.23828,0.3164 -0.57422,0.51953 -0.33594,0.21094 -0.72656,0.28906 -0.19531,0.0391 -0.38281,0.0391 h -0.0352 q -0.18359,0 -0.36719,-0.0312 l -1.11719,-0.15234 q -0.0351,0.19141 -0.0547,0.28906 -0.0156,0.0977 -0.0234,0.14844 -0.008,0.0508 -0.0117,0.0781 -0.004,0.0312 -0.0117,0.082 -0.008,0.0508 -0.0273,0.14844 -0.0156,0.0977 -0.0508,0.28906 -0.008,0.043 -0.0274,0.14844 -0.0156,0.10938 -0.0391,0.22656 -0.0195,0.1211 -0.0391,0.22657 -0.0156,0.10937 -0.0234,0.14843 -0.0586,0.10938 -0.16406,0.16016 -0.10156,0.0508 -0.21094,0.0312 -0.14062,-0.0273 -0.21875,-0.125 -0.0781,-0.0977 -0.0898,-0.23437 0.0195,-0.10157 0.043,-0.21875 0.0273,-0.11329 0.0508,-0.23438 0.0273,-0.11719 0.0508,-0.23437 0.0234,-0.11719 0.0351,-0.22266 0.0156,-0.15625 0.0391,-0.39453 0.0234,-0.24219 0.0469,-0.51563 0.0274,-0.27734 0.0508,-0.55859 0.0274,-0.28516 0.0469,-0.52344 0.0195,-0.23828 0.0312,-0.40234 0.0117,-0.16797 0.0156,-0.20703 l -0.008,-1.39844 q 0,-0.008 0.004,-0.0195 0,-0.008 0,-0.0156 0.004,-0.008 0.004,-0.0156 z m 7.47266,0.50781 q -0.082,-0.0273 -0.42578,-0.0273 -1.76563,0 -1.76953,1.35156 0,0.48438 0.10937,0.71094 0.10938,0.22265 0.31641,0.38281 0.20703,0.16016 0.4375,0.16016 0.44531,0 0.84375,-0.34375 0.40234,-0.34375 0.47265,-0.76172 z m 0,1.17969 z m -2.60547,1.50781 q -0.18359,-0.27344 -0.26562,-0.6289 -0.082,-0.35547 -0.082,-0.83204 0,-0.48046 0.1875,-0.88671 0.36329,-0.79297 1.32422,-1.04688 0.46875,-0.125 0.92578,-0.125 0.008,0 0.0117,0 0.0664,0.004 0.125,0.004 0.35157,0 0.41016,-0.0117 0.0156,-0.004 0.0352,-0.004 0.0664,0 0.17578,0.0352 l 0.13281,0.0391 q 0.10937,0.0312 0.21875,0.12109 0.11328,0.0859 0.11328,0.17188 l 0.043,1.98047 q 0.004,0.22265 0.10156,0.54687 0.17578,0.59766 0.17578,0.79297 0,0.19141 -0.10156,0.3086 -0.10156,0.11718 -0.26953,0.11718 -0.30078,0 -0.40234,-0.26562 -0.082,-0.20313 -0.12891,-0.38281 -0.35547,0.30078 -0.58984,0.42578 -0.46485,0.24218 -0.90625,0.24218 -0.44141,0 -0.7461,-0.16406 -0.30078,-0.16406 -0.48828,-0.4375 z m 4.93359,-2.01562 q -0.0195,1.89843 -0.4414,2.37109 -0.0899,0.10156 -0.1836,0.10156 -0.0937,0 -0.16796,-0.0234 -0.0703,-0.0234 -0.12891,-0.0703 -0.0937,-0.0742 -0.0937,-0.18359 0,-0.043 0.0156,-0.0937 0.3125,-1.10938 0.34766,-3.18359 0,-0.0234 0,-0.0469 0,-0.27344 0.0898,-0.36328 0.0977,-0.0977 0.21485,-0.0977 0.11719,0 0.19531,0.0391 0.0781,0.0391 0.11328,0.125 l 0.65625,1.16015 q 0,0.008 0.0234,0.0469 0.0234,0.0352 0.0547,0.082 0.0312,0.0469 0.0625,0.0937 0.0351,0.0469 0.0547,0.0703 l 0.0312,0.0352 q 0.1211,-0.1211 0.3125,-0.30078 0.19532,-0.1836 0.41016,-0.375 0.21875,-0.19532 0.44141,-0.38282 0.22265,-0.1914 0.40625,-0.33203 0.0508,-0.0234 0.0976,-0.043 0.0469,-0.0234 0.0977,-0.0234 0.14844,0 0.23828,0.0937 0.0625,0.0664 0.082,0.15234 v 0.004 q 0.008,0.0391 0.008,0.0781 0,0.0742 -0.008,0.89844 0,2.04687 -0.4414,2.53906 -0.0899,0.10156 -0.1836,0.10156 -0.0937,0 -0.16797,-0.0234 -0.0703,-0.0234 -0.1289,-0.0703 -0.0937,-0.0742 -0.0937,-0.18359 0,-0.043 0.0156,-0.0937 0.25391,-0.90625 0.32422,-2.45313 -0.0742,0.0586 -0.15234,0.1211 -0.20313,0.16797 -0.39453,0.34765 -0.19141,0.17969 -0.8125,0.98829 -0.63282,-0.8086 -0.71875,-0.90625 l -0.17188,-0.19532 q -0.004,0 -0.004,-0.004 z m 6.38672,-0.67188 q -0.082,-0.0273 -0.42578,-0.0273 -1.76562,0 -1.76953,1.35156 0,0.48438 0.10938,0.71094 0.10937,0.22265 0.3164,0.38281 0.20703,0.16016 0.4375,0.16016 0.44531,0 0.84375,-0.34375 0.40235,-0.34375 0.47266,-0.76172 z m 0,1.17969 z m -2.60547,1.50781 q -0.18359,-0.27344 -0.26562,-0.6289 -0.082,-0.35547 -0.082,-0.83204 0,-0.48046 0.1875,-0.88671 0.36328,-0.79297 1.32422,-1.04688 0.46875,-0.125 0.92578,-0.125 0.008,0 0.0117,0 0.0664,0.004 0.125,0.004 0.35156,0 0.41015,-0.0117 0.0156,-0.004 0.0352,-0.004 0.0664,0 0.17578,0.0352 l 0.13281,0.0391 q 0.10938,0.0312 0.21875,0.12109 0.11328,0.0859 0.11328,0.17188 l 0.043,1.98047 q 0.004,0.22265 0.10157,0.54687 0.17578,0.59766 0.17578,0.79297 0,0.19141 -0.10157,0.3086 -0.10156,0.11718 -0.26953,0.11718 -0.30078,0 -0.40234,-0.26562 -0.082,-0.20313 -0.12891,-0.38281 -0.35547,0.30078 -0.58984,0.42578 -0.46484,0.24218 -0.90625,0.24218 -0.44141,0 -0.74609,-0.16406 -0.30079,-0.16406 -0.48829,-0.4375 z m 4.33985,-2.76562 q -0.0664,0 -0.11328,-0.0312 -0.0469,-0.0352 -0.0781,-0.082 -0.0312,-0.0508 -0.0469,-0.10938 -0.0156,-0.0586 -0.0156,-0.10937 0,-0.0469 0.0156,-0.10157 0.0156,-0.0547 0.0469,-0.10156 0.0312,-0.0469 0.0703,-0.0781 0.043,-0.0312 0.0977,-0.0312 h 2.96875 q 0.0586,0 0.17578,-0.004 0.0586,0 0.1211,0 0.0664,-0.004 0.13671,0 0.14063,0.004 0.28125,0.0234 0.14454,0.0195 0.26172,0.0664 0.11719,0.0469 0.19141,0.12891 0.0781,0.082 0.0781,0.21094 0,0.14062 -0.0898,0.23828 -0.0859,0.0977 -0.23437,0.0977 -0.26954,0 -0.53907,-0.0352 -0.26562,-0.0352 -0.54297,-0.0352 l -0.6289,-0.0117 v 0.54688 q 0,2.04687 -0.44141,2.53906 -0.0898,0.10156 -0.18359,0.10156 -0.0937,0 -0.16797,-0.0234 -0.0703,-0.0234 -0.12891,-0.0703 -0.0937,-0.0742 -0.0937,-0.18359 0,-0.0391 0.0156,-0.0937 0.28515,-1.01172 0.33984,-2.82813 z m 5.8789,4.98437 q 0,-0.29687 0.043,-0.58203 0.0469,-0.28125 0.11719,-0.55859 0.0703,-0.27344 0.15625,-0.55079 0.0859,-0.27343 0.16797,-0.55859 v -0.0859 q -0.35156,0 -0.60547,-0.1289 -0.25391,-0.12891 -0.42969,-0.34375 -0.17578,-0.21485 -0.28515,-0.4961 -0.10938,-0.28515 -0.17188,-0.59375 -0.0586,-0.30859 -0.0781,-0.625 -0.0195,-0.3164 -0.0195,-0.59765 0,-0.0898 0.0117,-0.17969 0.0156,-0.0937 0.0547,-0.16797 0.0391,-0.0742 0.10938,-0.12109 0.0703,-0.0469 0.18359,-0.0469 0.10547,0 0.20313,0.0703 0.10156,0.0664 0.125,0.17187 0.004,0.0352 0.0117,0.15625 0.008,0.11719 0.0195,0.29297 0.0156,0.17187 0.0391,0.37891 0.0234,0.20703 0.0586,0.42187 0.0352,0.21094 0.082,0.41016 0.0508,0.19922 0.11719,0.35547 0.0664,0.15234 0.15234,0.24609 0.0899,0.0937 0.19922,0.0937 0.21094,0 0.35547,-0.10156 0.14844,-0.10547 0.25391,-0.27735 0.10937,-0.17187 0.18359,-0.38672 0.0781,-0.21875 0.14453,-0.44531 0.0664,-0.23047 0.13672,-0.44531 0.0703,-0.21875 0.16016,-0.39063 0.0937,-0.17187 0.21875,-0.27343 0.125,-0.10547 0.30859,-0.10547 0.16797,0 0.2461,0.11328 0.082,0.10937 0.082,0.26953 v 0.10156 l -1.14063,2.8711 q -0.23437,0.60156 -0.3789,1.22265 -0.14063,0.625 -0.14063,1.26563 -0.0117,0.1289 -0.12109,0.18359 -0.10547,0.0586 -0.22266,0.0586 -0.0586,0 -0.12109,-0.0156 -0.0625,-0.0156 -0.11328,-0.0508 -0.0469,-0.0352 -0.082,-0.0898 -0.0312,-0.0508 -0.0312,-0.12109 z m 3.89844,-4.23437 -0.0117,0.0508 -0.004,0.0352 q -0.004,0.0273 -0.0117,0.12891 -0.008,0.0977 -0.0234,0.23438 -0.0117,0.13281 -0.0312,0.28906 -0.0156,0.15234 -0.0273,0.28906 -0.0117,0.13281 -0.0234,0.23438 -0.0117,0.0977 -0.0117,0.125 0.12109,0.0391 0.21094,0.0586 0.0898,0.0195 0.16797,0.0312 0.082,0.008 0.16406,0.0195 0.0859,0.008 0.19922,0.0273 0.18359,0.0273 0.39062,0.043 0.0859,0.004 0.16797,0.008 0.1211,0 0.24219,-0.0117 0.20312,-0.0195 0.39453,-0.0742 0.19531,-0.0586 0.35156,-0.16406 0.15625,-0.10938 0.26563,-0.27344 0.11328,-0.16406 0.15234,-0.39453 0.0195,-0.10547 0.0195,-0.20703 0,-0.0625 -0.008,-0.1211 -0.0195,-0.15625 -0.0859,-0.28125 -0.0664,-0.1289 -0.18359,-0.21094 -0.11719,-0.0859 -0.28516,-0.11718 -0.0937,-0.0156 -0.27343,-0.0273 -0.17969,-0.0156 -0.40235,-0.0156 -0.21875,0 -0.44922,0.0156 -0.23047,0.0156 -0.42578,0.0508 -0.1914,0.0352 -0.32422,0.10157 -0.1289,0.0625 -0.14453,0.15625 z m -0.78515,-1.17969 q 0.0312,-0.16016 0.14843,-0.23438 0.0899,-0.0547 0.19922,-0.0547 0.0352,0 0.0703,0.004 0.14454,0.0273 0.21094,0.0781 0.0664,0.0508 0.0937,0.125 0.0312,0.0742 0.0391,0.16406 0.008,0.0898 0.0312,0.19531 0.52735,-0.16406 1.06641,-0.17187 0.0508,0 0.0977,-0.004 0.49218,0 1,0.0898 0.30859,0.0547 0.54687,0.22265 0.23828,0.16406 0.38672,0.40625 0.14844,0.23828 0.20313,0.53516 0.0273,0.14844 0.0273,0.29687 0,0.14844 -0.0273,0.30469 -0.0703,0.40625 -0.3086,0.72266 -0.23828,0.3164 -0.57422,0.51953 -0.33593,0.21094 -0.72656,0.28906 -0.19531,0.0391 -0.38281,0.0391 h -0.0352 q -0.18359,0 -0.36719,-0.0312 l -1.11718,-0.15234 q -0.0352,0.19141 -0.0547,0.28906 -0.0156,0.0977 -0.0234,0.14844 -0.008,0.0508 -0.0117,0.0781 -0.004,0.0312 -0.0117,0.082 -0.008,0.0508 -0.0273,0.14844 -0.0156,0.0977 -0.0508,0.28906 -0.008,0.043 -0.0273,0.14844 -0.0156,0.10938 -0.0391,0.22656 -0.0195,0.1211 -0.0391,0.22657 -0.0156,0.10937 -0.0234,0.14843 -0.0586,0.10938 -0.16406,0.16016 -0.10156,0.0508 -0.21094,0.0312 -0.14062,-0.0273 -0.21875,-0.125 -0.0781,-0.0977 -0.0898,-0.23437 0.0195,-0.10157 0.043,-0.21875 0.0273,-0.11329 0.0508,-0.23438 0.0273,-0.11719 0.0508,-0.23437 0.0234,-0.11719 0.0352,-0.22266 0.0156,-0.15625 0.0391,-0.39453 0.0234,-0.24219 0.0469,-0.51563 0.0274,-0.27734 0.0508,-0.55859 0.0273,-0.28516 0.0469,-0.52344 0.0195,-0.23828 0.0312,-0.40234 0.0117,-0.16797 0.0156,-0.20703 l -0.008,-1.39844 q 0,-0.008 0.004,-0.0195 0,-0.008 0,-0.0156 0.004,-0.008 0.004,-0.0156 z m 5.64453,0.66797 0.0195,0.34375 q 0.004,0.0742 0.004,0.15625 0,0.008 0,0.0156 0,0.008 0,0.0156 0,0.008 0,0.0156 0,0.3086 -0.0703,0.75 -0.0976,0.64453 -0.375,1.58594 -0.0312,0.10156 -0.18359,0.10156 -0.0937,0 -0.16797,-0.0234 -0.0703,-0.0234 -0.12891,-0.0703 -0.0937,-0.0742 -0.0937,-0.18359 0,-0.0391 0.0156,-0.0937 0.20312,-0.71484 0.28906,-1.83203 0.0469,-0.62891 0.0586,-1.35156 0.0352,-0.13282 0.27344,-0.19532 0.13281,-0.0352 0.30078,-0.0352 0.13672,0 0.29688,0.0234 0.16797,0 0.33203,-0.0117 0.16406,-0.0156 0.32812,-0.0312 0.16797,-0.0195 0.33204,-0.0312 0.16406,-0.0156 0.33203,-0.0156 0.0781,0 0.14843,0.0156 0.0703,0.0156 0.125,0.0547 0.0547,0.0352 0.0859,0.0977 0.0352,0.0586 0.0352,0.14844 0,0.23437 -0.125,0.32422 -0.10547,0.0742 -0.24219,0.0859 z m 3.23437,-0.67578 q 0,0.3164 -0.0351,0.6289 -0.0352,0.3086 -0.0352,0.625 -0.004,0.0937 -0.004,0.25782 v 0.0547 q 0,0.14063 0.008,0.30469 0.008,0.19531 0.0391,0.39453 0.0312,0.19531 0.0937,0.35938 0.0664,0.16015 0.16797,0.26562 0.10547,0.10156 0.26562,0.10156 0.125,0 0.2461,-0.0859 0.12109,-0.0859 0.23046,-0.22266 0.10938,-0.13672 0.20313,-0.30078 0.0977,-0.16797 0.17187,-0.32813 0.0781,-0.16015 0.13282,-0.29296 0.0586,-0.13672 0.0859,-0.20704 0.0274,-0.0586 0.0703,-0.17968 0.0469,-0.1211 0.10156,-0.26953 0.0586,-0.15235 0.12109,-0.32032 0.0625,-0.16797 0.11719,-0.3164 0.0547,-0.15235 0.0977,-0.27344 0.043,-0.12109 0.0625,-0.17969 0.0508,-0.125 0.13281,-0.17969 0.082,-0.0547 0.21875,-0.0547 0.16406,0 0.25781,0.0859 0.0937,0.0859 0.0937,0.25 V 75 q -0.0117,0.0508 -0.0391,0.16016 -0.0234,0.10547 -0.0547,0.24218 -0.0312,0.13672 -0.0664,0.28516 -0.0312,0.14844 -0.0625,0.28516 -0.0274,0.13672 -0.0508,0.24609 -0.0195,0.10547 -0.0273,0.15625 -0.008,0.0391 -0.0156,0.14844 -0.008,0.10937 -0.0195,0.26172 -0.0117,0.14843 -0.0312,0.32812 -0.0195,0.17969 -0.0469,0.35938 -0.0273,0.17968 -0.0625,0.35156 -0.0352,0.16797 -0.0859,0.30078 -0.0508,0.12891 -0.11328,0.21094 -0.0625,0.0781 -0.14453,0.0781 -0.0391,0 -0.0977,-0.0117 -0.0547,-0.0117 -0.10937,-0.0352 -0.0508,-0.0273 -0.0899,-0.0625 -0.0391,-0.0391 -0.0391,-0.0898 v -0.53515 q -0.12109,0.043 -0.21094,0.11719 -0.0898,0.0742 -0.16796,0.16406 -0.0781,0.0898 -0.15235,0.18359 -0.0742,0.0898 -0.16797,0.16797 -0.0898,0.0742 -0.20703,0.12109 -0.11719,0.0469 -0.28125,0.0469 -0.29687,0 -0.50781,-0.11719 -0.20703,-0.12109 -0.35156,-0.3164 -0.14063,-0.19922 -0.22266,-0.45313 -0.082,-0.25391 -0.125,-0.52344 -0.043,-0.26953 -0.0547,-0.53125 -0.0117,-0.26562 -0.0117,-0.48437 0,-0.0898 -0.0117,-0.24219 -0.0117,-0.15625 -0.0156,-0.33594 v -0.0898 q 0,-0.13672 0.008,-0.27734 0.0117,-0.1875 0.0586,-0.33594 0.0508,-0.14844 0.14453,-0.24219 0.0937,-0.0977 0.2539,-0.0977 0.13672,0 0.23438,0.10157 0.10156,0.0977 0.10156,0.25 z"
     id="text9"
     style="font-size:8px;font-family:Lavi;-inkscape-font-specification:Lavi"
     aria-label="драматурги" />
  <!-- Labels -->
  <path
     d="m 57.33984,129.93164 v -0.0644 l 0.45118,-3.00586 v -0.0234 -0.0176 q -0.0527,-0.0176 -0.46289,-0.0762 -1.41797,-0.2168 -1.81641,-0.35156 -0.87891,-0.29297 -1.17188,-0.49219 -0.28711,-0.20508 -0.5332,-0.45117 -0.24023,-0.2461 -0.42773,-0.70899 -0.1875,-0.46289 -0.1875,-1.03125 0,-0.99609 0.65625,-1.61718 0.082,-0.0645 0.1875,-0.0645 0.19922,0 0.375,0.22266 0.28125,0.36328 0.28125,0.58008 0,0 0,0.006 0.006,0.15234 -0.12305,0.33984 -0.12891,0.18164 -0.13477,0.56836 0,0.006 0,0.0117 0,1.41797 2.36133,1.73437 0.47461,0.0645 1.05469,0.0645 0.24023,-1.7168 0.32227,-3.29297 0.0234,-0.32227 0.30468,-0.45117 0.0937,-0.041 0.16992,-0.041 0.33399,0 0.51563,0.23438 0.0586,0.0703 0.0586,0.1582 v 0.006 q -0.082,1.7168 -0.28125,4.0957 -0.19336,2.37305 -0.28125,3.12305 -0.0879,0.75 -0.1875,0.86133 -0.0937,0.10547 -0.16406,0.18164 -0.082,0.0644 -0.15234,0.0586 -0.12305,-0.006 -0.28711,-0.006 -0.16406,0 -0.34571,-0.14062 -0.18164,-0.14063 -0.18164,-0.41016 z m 5.64258,-4.17187 q -0.19336,0 -0.42187,0.041 -0.22266,0.0352 -0.44532,0.11133 -0.22265,0.0703 -0.43359,0.18164 -0.21094,0.10547 -0.36914,0.25195 -0.1582,0.14063 -0.25781,0.31641 -0.0937,0.16992 -0.0937,0.375 0.0879,0 0.36328,-0.006 0.28125,-0.0117 0.64453,-0.0293 0.36914,-0.0234 0.76758,-0.0527 0.39844,-0.0352 0.73242,-0.082 0.33984,-0.0527 0.55664,-0.11719 0.2168,-0.0644 0.2168,-0.15234 0,-0.25196 -0.14063,-0.41602 -0.13476,-0.16406 -0.33398,-0.25781 -0.19336,-0.0937 -0.41016,-0.12891 -0.21679,-0.0351 -0.375,-0.0351 z m -3.19336,1.69335 q 0,-0.60351 0.25782,-1.11914 0.25781,-0.52148 0.69726,-0.90234 0.43945,-0.38086 1.01367,-0.59766 0.58008,-0.22265 1.21289,-0.22265 0.43946,0 0.87305,0.10547 0.43359,0.0996 0.7793,0.33398 0.3457,0.23438 0.55664,0.61524 0.21679,0.38085 0.21679,0.93164 0,0.27539 -0.10546,0.49218 -0.10547,0.2168 -0.28125,0.38086 -0.17579,0.16407 -0.4043,0.28125 -0.22852,0.11133 -0.48047,0.1875 -0.25195,0.0762 -0.50977,0.11719 -0.25781,0.041 -0.48632,0.0527 l -2.10938,0.11719 v 0.0234 q 0,0.29297 0.14063,0.50391 0.14062,0.21093 0.35742,0.35156 0.2168,0.14062 0.47461,0.21094 0.25781,0.0645 0.49804,0.0645 0.29297,0 0.54493,-0.10547 0.25781,-0.10547 0.49804,-0.22852 0.24024,-0.1289 0.47461,-0.23437 0.24024,-0.10547 0.49219,-0.10547 0.24023,0 0.41016,0.14063 0.16992,0.13476 0.16992,0.39257 0,0.24024 -0.14649,0.4336 -0.14062,0.1875 -0.36914,0.33984 -0.22851,0.14649 -0.52148,0.25195 -0.28711,0.10547 -0.57422,0.17579 -0.28711,0.0645 -0.55078,0.0937 -0.26367,0.0352 -0.44531,0.0352 -0.67383,0 -1.17774,-0.25195 -0.5039,-0.25781 -0.83789,-0.68555 -0.33398,-0.43359 -0.5039,-0.99609 -0.16407,-0.56836 -0.16407,-1.1836 z m 7.58203,-0.74414 -0.0176,0.0762 -0.006,0.0527 q -0.006,0.041 -0.0176,0.19336 -0.0117,0.14648 -0.0352,0.35156 -0.0176,0.19922 -0.0469,0.4336 -0.0234,0.22851 -0.041,0.43359 -0.0176,0.19922 -0.0352,0.35156 -0.0176,0.14649 -0.0176,0.1875 0.18164,0.0586 0.3164,0.0879 0.13477,0.0293 0.25196,0.0469 0.12304,0.0117 0.24609,0.0293 0.12891,0.0117 0.29883,0.041 0.27539,0.041 0.58594,0.0645 0.1289,0.006 0.25195,0.0117 0.18164,0 0.36328,-0.0176 0.30469,-0.0293 0.5918,-0.11132 0.29297,-0.0879 0.52734,-0.2461 0.23438,-0.16406 0.39844,-0.41015 0.16992,-0.2461 0.22851,-0.5918 0.0293,-0.1582 0.0293,-0.31055 0,-0.0937 -0.0117,-0.18164 -0.0293,-0.23437 -0.1289,-0.42187 -0.0996,-0.19336 -0.27539,-0.31641 -0.17579,-0.12891 -0.42774,-0.17578 -0.14062,-0.0234 -0.41016,-0.041 -0.26953,-0.0234 -0.60351,-0.0234 -0.32813,0 -0.67383,0.0234 -0.3457,0.0234 -0.63867,0.0762 -0.28711,0.0527 -0.48633,0.15234 -0.19336,0.0937 -0.2168,0.23437 z m -1.17773,-1.76953 q 0.0469,-0.24023 0.22266,-0.35156 0.13476,-0.082 0.29882,-0.082 0.0527,0 0.10547,0.006 0.2168,0.041 0.31641,0.11719 0.0996,0.0762 0.14062,0.1875 0.0469,0.11132 0.0586,0.24609 0.0117,0.13477 0.0469,0.29297 0.79102,-0.2461 1.59961,-0.25781 0.0762,0 0.14649,-0.006 0.73828,0 1.5,0.13476 0.46289,0.082 0.82031,0.33399 0.35742,0.24609 0.58008,0.60937 0.22265,0.35742 0.30468,0.80274 0.041,0.22265 0.041,0.44531 0,0.22265 -0.041,0.45703 -0.10546,0.60937 -0.46289,1.08398 -0.35742,0.47461 -0.86132,0.7793 -0.50391,0.31641 -1.08985,0.43359 -0.29297,0.0586 -0.57422,0.0586 h -0.0527 q -0.27539,0 -0.55078,-0.0469 l -1.67578,-0.22851 q -0.0527,0.28711 -0.082,0.43359 -0.0234,0.14649 -0.0352,0.22266 -0.0117,0.0762 -0.0176,0.11719 -0.006,0.0469 -0.0176,0.12304 -0.0117,0.0762 -0.041,0.22266 -0.0234,0.14648 -0.0762,0.43359 -0.0117,0.0645 -0.041,0.22266 -0.0234,0.16406 -0.0586,0.33984 -0.0293,0.18164 -0.0586,0.33985 -0.0234,0.16406 -0.0352,0.22265 -0.0879,0.16406 -0.2461,0.24024 -0.15234,0.0762 -0.3164,0.0469 -0.21094,-0.041 -0.32813,-0.1875 -0.11719,-0.14648 -0.13476,-0.35156 0.0293,-0.15234 0.0644,-0.32813 0.041,-0.16992 0.0762,-0.35156 0.041,-0.17578 0.0762,-0.35156 0.0352,-0.17578 0.0527,-0.33399 0.0234,-0.23437 0.0586,-0.59179 0.0352,-0.36328 0.0703,-0.77344 0.041,-0.41602 0.0762,-0.83789 0.041,-0.42773 0.0703,-0.78516 0.0293,-0.35742 0.0469,-0.60351 0.0176,-0.25196 0.0234,-0.31055 l -0.0117,-2.09766 q 0,-0.0117 0.006,-0.0293 0,-0.0117 0,-0.0234 0.006,-0.0117 0.006,-0.0234 z m 7.07812,0.64453 q -0.0996,0 -0.16992,-0.0469 -0.0703,-0.0527 -0.11718,-0.12305 -0.0469,-0.0762 -0.0703,-0.16406 -0.0234,-0.0879 -0.0234,-0.16406 0,-0.0703 0.0234,-0.15235 0.0234,-0.082 0.0703,-0.15234 0.0469,-0.0703 0.10546,-0.11719 0.0645,-0.0469 0.14649,-0.0469 h 4.45312 q 0.0879,0 0.26368,-0.006 0.0879,0 0.18164,0 0.0996,-0.006 0.20507,0 0.21094,0.006 0.42188,0.0351 0.2168,0.0293 0.39258,0.0996 0.17578,0.0703 0.28711,0.19336 0.11718,0.12305 0.11718,0.31641 0,0.21094 -0.13476,0.35742 -0.12891,0.14649 -0.35156,0.14649 -0.4043,0 -0.8086,-0.0527 -0.39844,-0.0527 -0.81445,-0.0527 l -0.94336,-0.0176 v 0.82031 q 0,3.07031 -0.66211,3.80859 -0.13477,0.15235 -0.27539,0.15235 -0.14063,0 -0.25195,-0.0352 -0.10547,-0.0352 -0.19336,-0.10547 -0.14063,-0.11132 -0.14063,-0.27539 0,-0.0586 0.0234,-0.14062 0.42773,-1.51758 0.50977,-4.24219 z m 7.28321,4.03125 q 0,-0.17578 0.0644,-0.33398 0.0703,-0.1582 0.18164,-0.27539 0.11719,-0.11719 0.27539,-0.18164 0.1582,-0.0703 0.33399,-0.0703 0.17578,0 0.33398,0.0703 0.1582,0.0644 0.27539,0.18164 0.11719,0.11719 0.18164,0.27539 0.0703,0.1582 0.0703,0.33398 0,0.17579 -0.0703,0.33399 -0.0644,0.1582 -0.18164,0.27539 -0.11719,0.11133 -0.27539,0.18164 -0.1582,0.0644 -0.33398,0.0644 -0.17579,0 -0.33399,-0.0644 -0.1582,-0.0703 -0.27539,-0.18164 -0.11133,-0.11719 -0.18164,-0.27539 -0.0644,-0.1582 -0.0644,-0.33399 z m 13.96875,-2.95312 q -0.10547,0.76172 -0.44532,1.45312 -0.33984,0.68555 -0.86718,1.20704 -0.52735,0.52148 -1.22461,0.83203 -0.69141,0.30468 -1.50586,0.30468 -0.11719,0 -0.28711,0.0176 -0.16992,0.0117 -0.35742,0.0176 -0.18164,0.006 -0.36914,-0.006 -0.1875,-0.0176 -0.33399,-0.0703 -0.14648,-0.0527 -0.24023,-0.1582 -0.0879,-0.10547 -0.0879,-0.28711 0,-0.22266 0.1582,-0.35743 0.1582,-0.13476 0.36914,-0.13476 0.28711,0 0.56836,-0.0352 0.28125,-0.0352 0.58008,-0.0352 0.35742,0 0.7207,-0.0996 0.36328,-0.0996 0.69141,-0.28125 0.33398,-0.18164 0.62109,-0.4336 0.29297,-0.25195 0.50391,-0.55664 0.21094,-0.31054 0.33398,-0.66211 0.12305,-0.35156 0.12305,-0.73242 v -0.0879 q -0.23438,0.17578 -0.52734,0.33984 -0.29297,0.15821 -0.61524,0.27539 -0.31641,0.11719 -0.65039,0.1875 -0.32812,0.0703 -0.63281,0.0703 -0.65039,0 -1.13086,-0.25196 -0.48047,-0.25195 -0.80274,-0.67382 -0.3164,-0.42188 -0.47461,-0.97852 -0.1582,-0.55664 -0.1582,-1.16602 0,-0.375 0.12891,-0.73242 0.13476,-0.36328 0.36328,-0.68554 0.23437,-0.32813 0.54492,-0.60352 0.31055,-0.28125 0.66797,-0.48047 0.35742,-0.20508 0.74414,-0.3164 0.38672,-0.11719 0.76758,-0.11719 0.62695,0 1.07812,0.1875 0.45703,0.18164 0.76758,0.5039 0.31641,0.31641 0.50977,0.75 0.19336,0.4336 0.29297,0.9375 0.10546,0.49805 0.14062,1.04297 0.0352,0.54492 0.0352,1.08399 z m -1.04883,-1.62305 q 0,-0.49219 -0.0762,-0.95508 -0.0762,-0.46289 -0.26953,-0.82031 -0.19336,-0.35742 -0.52735,-0.57422 -0.33398,-0.21679 -0.84961,-0.21679 h -0.33398 q -0.29883,0.0703 -0.63867,0.25195 -0.33985,0.18164 -0.62696,0.43359 -0.28125,0.25196 -0.46875,0.55664 -0.1875,0.30469 -0.1875,0.62696 0,0.41601 0.0762,0.78515 0.082,0.36914 0.25781,0.65039 0.18164,0.27539 0.48047,0.43946 0.29882,0.16406 0.73828,0.16406 0.15234,0 0.39258,-0.0469 0.24023,-0.0527 0.50976,-0.14062 0.26953,-0.0937 0.53906,-0.2168 0.26954,-0.1289 0.48633,-0.27539 0.22266,-0.15234 0.35742,-0.3164 0.14063,-0.16993 0.14063,-0.34571 z m 2.10937,4.57617 q 0,-0.17578 0.0645,-0.33398 0.0703,-0.1582 0.18164,-0.27539 0.11719,-0.11719 0.27539,-0.18164 0.1582,-0.0703 0.33398,-0.0703 0.17578,0 0.33399,0.0703 0.1582,0.0644 0.27539,0.18164 0.11719,0.11719 0.18164,0.27539 0.0703,0.1582 0.0703,0.33398 0,0.17579 -0.0703,0.33399 -0.0644,0.1582 -0.18164,0.27539 -0.11719,0.11133 -0.27539,0.18164 -0.15821,0.0644 -0.33399,0.0644 -0.17578,0 -0.33398,-0.0644 -0.1582,-0.0703 -0.27539,-0.18164 -0.11133,-0.11719 -0.18164,-0.27539 -0.0645,-0.1582 -0.0645,-0.33399 z"
     id="text10"
     style="font-size:12px;font-family:Lavi;-inkscape-font-specification:Lavi"
     aria-label="Черт. 9." />
  <path
     d="m 227.33984,129.93164 v -0.0644 l 0.45118,-3.00586 v -0.0234 -0.0176 q -0.0527,-0.0176 -0.4629,-0.0762 -1.41796,-0.2168 -1.8164,-0.35156 -0.87891,-0.29297 -1.17188,-0.49219 -0.28711,-0.20508 -0.5332,-0.45117 -0.24023,-0.2461 -0.42773,-0.70899 -0.1875,-0.46289 -0.1875,-1.03125 0,-0.99609 0.65625,-1.61718 0.082,-0.0645 0.1875,-0.0645 0.19921,0 0.375,0.22266 0.28125,0.36328 0.28125,0.58008 0,0 0,0.006 0.006,0.15234 -0.12305,0.33984 -0.12891,0.18164 -0.13477,0.56836 0,0.006 0,0.0117 0,1.41797 2.36133,1.73437 0.47461,0.0645 1.05469,0.0645 0.24023,-1.7168 0.32226,-3.29297 0.0234,-0.32227 0.30469,-0.45117 0.0937,-0.041 0.16992,-0.041 0.33399,0 0.51563,0.23438 0.0586,0.0703 0.0586,0.1582 v 0.006 q -0.082,1.7168 -0.28125,4.0957 -0.19336,2.37305 -0.28125,3.12305 -0.0879,0.75 -0.1875,0.86133 -0.0937,0.10547 -0.16406,0.18164 -0.082,0.0644 -0.15234,0.0586 -0.12305,-0.006 -0.28711,-0.006 -0.16407,0 -0.34571,-0.14062 -0.18164,-0.14063 -0.18164,-0.41016 z m 5.64258,-4.17187 q -0.19336,0 -0.42187,0.041 -0.22266,0.0352 -0.44532,0.11133 -0.22265,0.0703 -0.43359,0.18164 -0.21094,0.10547 -0.36914,0.25195 -0.1582,0.14063 -0.25781,0.31641 -0.0937,0.16992 -0.0937,0.375 0.0879,0 0.36328,-0.006 0.28125,-0.0117 0.64453,-0.0293 0.36914,-0.0234 0.76758,-0.0527 0.39844,-0.0352 0.73242,-0.082 0.33984,-0.0527 0.55664,-0.11719 0.2168,-0.0644 0.2168,-0.15234 0,-0.25196 -0.14063,-0.41602 -0.13476,-0.16406 -0.33398,-0.25781 -0.19336,-0.0937 -0.41016,-0.12891 -0.2168,-0.0351 -0.375,-0.0351 z m -3.19336,1.69335 q 0,-0.60351 0.25781,-1.11914 0.25782,-0.52148 0.69727,-0.90234 0.43945,-0.38086 1.01367,-0.59766 0.58008,-0.22265 1.21289,-0.22265 0.43946,0 0.87305,0.10547 0.43359,0.0996 0.7793,0.33398 0.3457,0.23438 0.55664,0.61524 0.21679,0.38085 0.21679,0.93164 0,0.27539 -0.10546,0.49218 -0.10547,0.2168 -0.28125,0.38086 -0.17579,0.16407 -0.4043,0.28125 -0.22852,0.11133 -0.48047,0.1875 -0.25195,0.0762 -0.50977,0.11719 -0.25781,0.041 -0.48632,0.0527 l -2.10938,0.11719 v 0.0234 q 0,0.29297 0.14063,0.50391 0.14062,0.21093 0.35742,0.35156 0.21679,0.14062 0.47461,0.21094 0.25781,0.0645 0.49804,0.0645 0.29297,0 0.54493,-0.10547 0.25781,-0.10547 0.49804,-0.22852 0.24024,-0.1289 0.47461,-0.23437 0.24024,-0.10547 0.49219,-0.10547 0.24023,0 0.41016,0.14063 0.16992,0.13476 0.16992,0.39257 0,0.24024 -0.14649,0.4336 -0.14062,0.1875 -0.36914,0.33984 -0.22851,0.14649 -0.52148,0.25195 -0.28711,0.10547 -0.57422,0.17579 -0.28711,0.0645 -0.55078,0.0937 -0.26367,0.0352 -0.44531,0.0352 -0.67383,0 -1.17774,-0.25195 -0.5039,-0.25781 -0.83789,-0.68555 -0.33398,-0.43359 -0.50391,-0.99609 -0.16406,-0.56836 -0.16406,-1.1836 z m 7.58203,-0.74414 -0.0176,0.0762 -0.006,0.0527 q -0.006,0.041 -0.0176,0.19336 -0.0117,0.14648 -0.0352,0.35156 -0.0176,0.19922 -0.0469,0.4336 -0.0234,0.22851 -0.041,0.43359 -0.0176,0.19922 -0.0352,0.35156 -0.0176,0.14649 -0.0176,0.1875 0.18164,0.0586 0.3164,0.0879 0.13477,0.0293 0.25196,0.0469 0.12304,0.0117 0.24609,0.0293 0.12891,0.0117 0.29883,0.041 0.27539,0.041 0.58594,0.0645 0.1289,0.006 0.25195,0.0117 0.18164,0 0.36328,-0.0176 0.30469,-0.0293 0.5918,-0.11132 0.29297,-0.0879 0.52734,-0.2461 0.23438,-0.16406 0.39844,-0.41015 0.16992,-0.2461 0.22851,-0.5918 0.0293,-0.1582 0.0293,-0.31055 0,-0.0937 -0.0117,-0.18164 -0.0293,-0.23437 -0.1289,-0.42187 -0.0996,-0.19336 -0.2754,-0.31641 -0.17578,-0.12891 -0.42773,-0.17578 -0.14062,-0.0234 -0.41016,-0.041 -0.26953,-0.0234 -0.60351,-0.0234 -0.32813,0 -0.67383,0.0234 -0.3457,0.0234 -0.63867,0.0762 -0.28711,0.0527 -0.48633,0.15234 -0.19336,0.0937 -0.2168,0.23437 z m -1.17773,-1.76953 q 0.0469,-0.24023 0.22266,-0.35156 0.13476,-0.082 0.29882,-0.082 0.0527,0 0.10547,0.006 0.2168,0.041 0.31641,0.11719 0.0996,0.0762 0.14062,0.1875 0.0469,0.11132 0.0586,0.24609 0.0117,0.13477 0.0469,0.29297 0.79102,-0.2461 1.59961,-0.25781 0.0762,0 0.14649,-0.006 0.73828,0 1.5,0.13476 0.46289,0.082 0.82031,0.33399 0.35742,0.24609 0.58008,0.60937 0.22265,0.35742 0.30468,0.80274 0.041,0.22265 0.041,0.44531 0,0.22265 -0.041,0.45703 -0.10546,0.60937 -0.46289,1.08398 -0.35742,0.47461 -0.86132,0.7793 -0.50391,0.31641 -1.08985,0.43359 -0.29297,0.0586 -0.57422,0.0586 h -0.0527 q -0.27539,0 -0.55078,-0.0469 l -1.67578,-0.22851 q -0.0527,0.28711 -0.082,0.43359 -0.0234,0.14649 -0.0351,0.22266 -0.0117,0.0762 -0.0176,0.11719 -0.006,0.0469 -0.0176,0.12304 -0.0117,0.0762 -0.041,0.22266 -0.0234,0.14648 -0.0762,0.43359 -0.0117,0.0645 -0.041,0.22266 -0.0234,0.16406 -0.0586,0.33984 -0.0293,0.18164 -0.0586,0.33985 -0.0234,0.16406 -0.0351,0.22265 -0.0879,0.16406 -0.2461,0.24024 -0.15234,0.0762 -0.3164,0.0469 -0.21094,-0.041 -0.32813,-0.1875 -0.11719,-0.14648 -0.13477,-0.35156 0.0293,-0.15234 0.0645,-0.32813 0.041,-0.16992 0.0762,-0.35156 0.041,-0.17578 0.0762,-0.35156 0.0352,-0.17578 0.0527,-0.33399 0.0234,-0.23437 0.0586,-0.59179 0.0352,-0.36328 0.0703,-0.77344 0.041,-0.41602 0.0762,-0.83789 0.041,-0.42773 0.0703,-0.78516 0.0293,-0.35742 0.0469,-0.60351 0.0176,-0.25196 0.0234,-0.31055 l -0.0117,-2.09766 q 0,-0.0117 0.006,-0.0293 0,-0.0117 0,-0.0234 0.006,-0.0117 0.006,-0.0234 z m 7.07812,0.64453 q -0.0996,0 -0.16992,-0.0469 -0.0703,-0.0527 -0.11719,-0.12305 -0.0469,-0.0762 -0.0703,-0.16406 -0.0234,-0.0879 -0.0234,-0.16406 0,-0.0703 0.0234,-0.15235 0.0234,-0.082 0.0703,-0.15234 0.0469,-0.0703 0.10547,-0.11719 0.0645,-0.0469 0.14649,-0.0469 h 4.45312 q 0.0879,0 0.26367,-0.006 0.0879,0 0.18165,0 0.0996,-0.006 0.20507,0 0.21094,0.006 0.42188,0.0351 0.2168,0.0293 0.39258,0.0996 0.17578,0.0703 0.28711,0.19336 0.11718,0.12305 0.11718,0.31641 0,0.21094 -0.13476,0.35742 -0.12891,0.14649 -0.35156,0.14649 -0.4043,0 -0.8086,-0.0527 -0.39844,-0.0527 -0.81445,-0.0527 l -0.94336,-0.0176 v 0.82031 q 0,3.07031 -0.66211,3.80859 -0.13477,0.15235 -0.27539,0.15235 -0.14063,0 -0.25195,-0.0352 -0.10547,-0.0352 -0.19336,-0.10547 -0.14063,-0.11132 -0.14063,-0.27539 0,-0.0586 0.0234,-0.14062 0.42773,-1.51758 0.50976,-4.24219 z m 7.28321,4.03125 q 0,-0.17578 0.0645,-0.33398 0.0703,-0.1582 0.18164,-0.27539 0.11719,-0.11719 0.27539,-0.18164 0.1582,-0.0703 0.33399,-0.0703 0.17578,0 0.33398,0.0703 0.1582,0.0644 0.27539,0.18164 0.11719,0.11719 0.18164,0.27539 0.0703,0.1582 0.0703,0.33398 0,0.17579 -0.0703,0.33399 -0.0644,0.1582 -0.18164,0.27539 -0.11719,0.11133 -0.27539,0.18164 -0.1582,0.0644 -0.33398,0.0644 -0.17579,0 -0.33399,-0.0644 -0.1582,-0.0703 -0.27539,-0.18164 -0.11133,-0.11719 -0.18164,-0.27539 -0.0645,-0.1582 -0.0645,-0.33399 z m 11.63672,-0.31054 0.70312,0.13476 q 0.12891,0.0234 0.17578,0.0527 0.082,0.0586 0.14063,0.14062 0.0586,0.082 0.0879,0.18164 0.0351,0.0937 0.0351,0.17578 0,0.0703 -0.0293,0.15821 -0.0234,0.082 -0.0703,0.1582 -0.0469,0.0703 -0.11718,0.12305 -0.0645,0.0527 -0.14649,0.0527 h -3.77343 q -0.14063,0 -0.28125,-0.0176 -0.13477,-0.0176 -0.2461,-0.0703 -0.10547,-0.0586 -0.17578,-0.1582 -0.0645,-0.10547 -0.0645,-0.26953 0,-0.0879 0.0176,-0.1875 0.0234,-0.0996 0.0703,-0.18164 0.0527,-0.082 0.1289,-0.13477 0.0762,-0.0586 0.1875,-0.0586 h 2.19727 v -5.72461 -0.11133 q -0.19922,0.15234 -0.42188,0.29883 -0.22265,0.14062 -0.46289,0.25781 -0.23437,0.11133 -0.48632,0.18164 -0.25196,0.0645 -0.51563,0.0645 h -0.19922 q -0.18164,-0.0645 -0.25781,-0.1875 -0.0762,-0.1289 -0.0762,-0.32226 0,-0.15821 0.0879,-0.27539 0.0879,-0.11719 0.22851,-0.20508 0.14063,-0.0879 0.31055,-0.15234 0.17578,-0.0703 0.35156,-0.12891 0.17578,-0.0645 0.33399,-0.12305 0.1582,-0.0644 0.26367,-0.14062 0.33398,-0.2461 0.63281,-0.54492 0.29883,-0.29883 0.57422,-0.58594 0.0586,-0.0469 0.12891,-0.0645 0.0703,-0.0117 0.14648,-0.0117 0.23438,0 0.38086,0.16406 0.14649,0.16406 0.14649,0.4043 v 0.0527 z m 2.32031,-3.29883 q 0,-0.38672 0.0937,-1.08399 0.0644,-0.45703 0.28711,-1.03125 0.1875,-0.49804 0.46875,-0.92578 0.28711,-0.43359 0.66797,-0.74414 0.38086,-0.3164 0.85547,-0.49804 0.48046,-0.18164 1.05468,-0.18164 0.56836,0 1.00782,0.22265 0.44531,0.2168 0.77929,0.58594 0.33399,0.36914 0.56836,0.85547 0.23438,0.48633 0.38086,1.01953 0.14649,0.52734 0.21094,1.07226 0.0644,0.53907 0.0644,1.0254 0,0.44531 -0.0762,0.91406 -0.0703,0.46875 -0.22266,0.91992 -0.15234,0.44531 -0.38672,0.85547 -0.23437,0.41015 -0.55078,0.73828 -0.3164,0.32812 -0.7207,0.55664 -0.4043,0.22266 -0.89648,0.30469 h -0.51563 q -0.66211,0 -1.14844,-0.16406 -0.48632,-0.16407 -0.82617,-0.4629 -0.33984,-0.29882 -0.55664,-0.7207 -0.21094,-0.42187 -0.35742,-0.93164 -0.14063,-0.50976 -0.16406,-1.0957 -0.0176,-0.5918 -0.0176,-1.23047 z m 1.00195,0.0352 q 0,0.49218 0.006,0.94921 0.006,0.45118 0.0703,0.84961 0.0703,0.39258 0.19336,0.72071 0.12891,0.32226 0.35742,0.55664 0.23438,0.23437 0.58008,0.36328 0.35157,0.1289 0.86133,0.1289 0.41016,0 0.74414,-0.14062 0.33399,-0.14648 0.59766,-0.39258 0.26367,-0.24609 0.45703,-0.56836 0.19336,-0.32812 0.31641,-0.6914 0.1289,-0.36329 0.1875,-0.73829 0.0703,-0.40429 0.0703,-0.62695 0,-0.0644 -0.006,-0.11133 -0.0293,-0.23437 -0.0293,-0.75 0,-0.41015 -0.10547,-0.82617 -0.0996,-0.41601 -0.24609,-0.80859 -0.14649,-0.39844 -0.375,-0.70313 -0.22266,-0.30468 -0.53906,-0.48633 -0.31055,-0.1875 -0.73243,-0.1875 -0.43359,0 -0.78515,0.14649 -0.3457,0.14062 -0.61524,0.39258 -0.26953,0.25195 -0.46289,0.59179 -0.1875,0.33399 -0.31054,0.72071 -0.12891,0.42773 -0.17578,0.79687 -0.0586,0.47461 -0.0586,0.81446 z m 6.94922,3.57421 q 0,-0.17578 0.0644,-0.33398 0.0703,-0.1582 0.18164,-0.27539 0.11719,-0.11719 0.27539,-0.18164 0.15821,-0.0703 0.33399,-0.0703 0.17578,0 0.33398,0.0703 0.15821,0.0644 0.27539,0.18164 0.11719,0.11719 0.18164,0.27539 0.0703,0.1582 0.0703,0.33398 0,0.17579 -0.0703,0.33399 -0.0645,0.1582 -0.18164,0.27539 -0.11718,0.11133 -0.27539,0.18164 -0.1582,0.0644 -0.33398,0.0644 -0.17578,0 -0.33399,-0.0644 -0.1582,-0.0703 -0.27539,-0.18164 -0.11132,-0.11719 -0.18164,-0.27539 -0.0644,-0.1582 -0.0644,-0.33399 z"
     id="text11"
     style="font-size:12px;font-family:Lavi;-inkscape-font-specification:Lavi"
     aria-label="Черт. 10." />
</svg>
