<?xml version="1.0" encoding="UTF-8" standalone="no"?>
<svg
   width="449.272"
   height="320"
   version="1.1"
   id="svg4"
   sodipodi:docname="3.svg"
   inkscape:version="1.3.2 (091e20ef0f, 2023-11-25)"
   xmlns:inkscape="http://www.inkscape.org/namespaces/inkscape"
   xmlns:sodipodi="http://sodipodi.sourceforge.net/DTD/sodipodi-0.dtd"
   xmlns="http://www.w3.org/2000/svg"
   xmlns:svg="http://www.w3.org/2000/svg">
  <defs
     id="defs4" />
  <sodipodi:namedview
     id="namedview4"
     pagecolor="#ffffff"
     bordercolor="#000000"
     borderopacity="0.25"
     inkscape:showpageshadow="2"
     inkscape:pageopacity="0.0"
     inkscape:pagecheckerboard="0"
     inkscape:deskcolor="#d1d1d1"
     inkscape:zoom="0.80352213"
     inkscape:cx="100.80618"
     inkscape:cy="316.10828"
     inkscape:window-width="1920"
     inkscape:window-height="1003"
     inkscape:window-x="0"
     inkscape:window-y="0"
     inkscape:window-maximized="1"
     inkscape:current-layer="svg4" />
  <g
     class="venn-area venn-circle"
     data-venn-sets="0"
     id="g1"
     transform="translate(-75.364,-15)">
    <path
       d="m 75.364,175 a 160,160 0 1 0 320,0 160,160 0 1 0 -320,0"
       style="fill:#1f77b4;fill-opacity:0.25"
       id="path1" />
    <text
       x="202"
       y="175"
       class="label"
       dy="4.1999998"
       style="font-size:37.3333px;fill:#1f77b4"
       text-anchor="middle"
       id="text1"><tspan
         x="202"
         y="176"
         dy="4.1999998"
         style="font-size:37.3333px"
         id="tspan1">врачи</tspan></text>
  </g>
  <g
     class="venn-area venn-circle"
     data-venn-sets="1"
     id="g2"
     transform="translate(-75.363997,-15)">
    <path
       d="m 204.636,175 a 160,160 0 1 0 320,0 160,160 0 1 0 -320,0"
       style="fill:#ff0000;fill-opacity:0.25"
       id="path2" />
    <text
       x="393"
       y="175"
       class="label"
       dy="4.1999998"
       style="font-size:37.3333px;fill:#ff0000"
       text-anchor="middle"
       id="text2"><tspan
         x="393"
         y="175"
         dy="4.1999998"
         style="font-size:37.3333px"
         id="tspan2">художники</tspan></text>
  </g>
  <path
     fill="none"
     d="m 300,321.363 a 160,160 0 0 1 0,-292.726 160,160 0 0 1 0,292.726"
     class="venn-area venn-intersection"
     data-venn-sets="0_1"
     style="fill-opacity:0"
     id="path3" />
</svg>
