<svg xmlns="http://www.w3.org/2000/svg" width="320" height="320"><g class="venn-area venn-circle" data-venn-sets="0"><path d="M75.364 175a160 160 0 1 0 320 0 160 160 0 1 0-320 0" style="fill:#1f77b4;fill-opacity:.25" transform="translate(-75.364 -15)"/><path d="m129.749 83.78-3.938-.036q-.4.018-1.786.018-1.367 0-3.591.237h-.31q-.711 0-.912-.328-.2-.346-.2-.984t.164-1.35q.291-1.239.638-2.15 1.677-4.594 2.497-10.063.2-1.404.255-2.534l.401-8.13q.073-1.076.967-1.513.291-.146.528-.146 1.076 0 1.64.784.183.255.183.583v2.771l-.638 7.93q-.474 5.87-2.643 11.685 1.75-.274 3.445-.274h.584l6.033.037q1.787.073 2.553.182.09-.492.218-1.294.128-.82.328-1.987.22-1.185.438-2.26 1.094-5.579 1.185-6.636.11-1.076.146-1.458.036-.401.09-1.058.238-2.88.256-3.244.018-.365.018-.438.018-.073.018-.164.091-1.86.091-3.5v-.018q.073-1.167.967-1.55.291-.127.656-.127 1.294 0 1.64 1.367v1.349q0 4.63-1.02 13.161-.438 3.7-.784 5.287-.328 1.586-.328 2.114 0 .51.638.948.62.438.62.948 0 .547-.766 1.495.073.565.073 1.659 0 1.112-.438 2.26-.419 1.167-1.276 1.969-1.713 1.604-4.484 1.604-1.896 0-3.792-.492l-.693-1.477.711-1.695h.274q1.75.656 3.026.656 3.61 0 3.627-2.552 0-.765-.072-1.604h-3.391q-1.914.018-3.846.018zm15.112-5.14q.2-1.185.346-2.516.365-3.773.456-6.635h-.2q-.693 0-1.076-.42-.383-.419-.383-1.13 0-.62.401-1.057.401-.438 1.02-.73.53-.254 1.423-.437.948-.2 1.567-.255 1.058-.091 1.477-.11.693-.018 1.148-.018 1.276 0 2.352.31 1.112.31 1.878.948.82.656 1.257 1.623.456.984.456 2.351 0 1.44-.437 2.37-.383.802-.948 1.33.565.256 1.002.566.748.528 1.149 1.258.419.747.419 1.877v2.315q0 .693-.31 1.258-.31.565-.82 1.021-.584.51-1.185.838-.656.347-1.35.584-.801.273-1.348.364-.656.11-1.185.11-1.02 0-2.187-.255-1.167-.256-2.26-.73l-.584-.255q-.11.164-.237.292-.42.474-.857.474t-.784-.11q-.328-.109-.601-.328-.438-.346-.438-.856 0-.201.073-.438.11-.401.219-.838-.237-.237-.438-.493-.073-.346-.11-.4-.072-.147-.072-.384 0-.273.146-.601.127-.292.364-.51.256-.237.51-.329zm3.9-9.753v2.77q0 .967-.017 1.86.93-.237 1.804-.437.857-.182 1.623-.547.729-.346 1.13-.802.437-.51.437-1.24 0-.638-.218-1.02-.22-.383-.602-.584-.383-.2-.875-.255-.674-.073-1.076-.073-.692 0-1.385.146-.383.073-.82.182zm-.145 7.292q-.164 2.26-.492 3.883.31.164.71.346.766.346 1.605.583.802.219 1.531.219.565 0 1.02-.11.584-.145.967-.364.42-.237.711-.656.273-.383.273-.93 0-1.02-.419-1.586-.42-.547-1.148-.911-.875-.42-1.604-.529-.037 0-.839-.164-.802.164-.839.164-.31.055-1.476.055zm21-6.69q-.602 0-1.313.127-.692.11-1.385.347-.693.218-1.349.565-.656.328-1.148.784-.493.437-.803.984-.291.529-.291 1.167.273 0 1.13-.019.875-.036 2.005-.09 1.149-.074 2.388-.165 1.24-.11 2.279-.255 1.057-.164 1.732-.365.674-.2.674-.474 0-.783-.437-1.294-.42-.51-1.04-.802-.601-.292-1.275-.401-.675-.11-1.167-.11zm-9.935 5.268q0-1.878.802-3.482.802-1.622 2.17-2.807 1.367-1.185 3.153-1.86 1.805-.692 3.773-.692 1.368 0 2.717.328 1.349.31 2.424 1.039 1.076.73 1.732 1.914.674 1.185.674 2.898 0 .857-.328 1.532-.328.674-.875 1.185-.547.51-1.258.875-.71.346-1.494.583t-1.586.364q-.802.128-1.513.165l-6.563.364v.073q0 .912.438 1.568.437.656 1.112 1.094.674.437 1.476.656.802.2 1.55.2.911 0 1.695-.328.802-.328 1.55-.71.747-.402 1.476-.73.747-.328 1.531-.328.748 0 1.276.437.529.42.529 1.222 0 .747-.456 1.349-.437.583-1.148 1.057-.711.456-1.623.784-.893.328-1.786.547-.893.2-1.714.291-.82.11-1.385.11-2.096 0-3.664-.784-1.568-.802-2.607-2.133-1.039-1.349-1.568-3.099-.51-1.768-.51-3.682Zm19.797-5.815q-.31 0-.529-.146-.219-.164-.364-.383-.146-.237-.22-.51-.072-.274-.072-.51 0-.22.073-.475t.219-.474q.145-.218.328-.364.2-.146.455-.146h13.855q.273 0 .82-.018h.565q.31-.018.638 0 .656.018 1.313.11.674.09 1.22.309.548.219.894.602.365.382.365.984 0 .656-.42 1.112-.4.456-1.093.456-1.258 0-2.516-.164-1.24-.164-2.534-.164l-2.935-.055v2.552q0 9.552-2.06 11.849-.419.474-.856.474-.438 0-.784-.11-.328-.109-.602-.328-.437-.346-.437-.856 0-.183.073-.438 1.33-4.721 1.586-13.198z" aria-label="Цвет" class="label" style="font-size:37.3333px;font-family:Lavi;-inkscape-font-specification:Lavi;text-anchor:middle;fill:#000"/><path d="M70.054 22.494h7.944v279.063h-7.944z" style="fill:#008eff;stroke-width:15.4151"/></g><path d="M-210.72 39.891q.072-1.44.09-2.99.165-.62 1.277-.91.62-.165 1.403-.165.638 0 1.386.11.784 0 1.55-.055l1.53-.146q.784-.091 1.55-.146.766-.073 1.55-.073.364 0 .692.073.328.073.583.255.256.164.401.456.165.273.165.693 0 .692-.493 1.075-.492.365-1.13.401l-7.42.638v2.06q0 .966-.017 1.86.93-.237 2.15-.347.274-.018.584-.018 1.003 0 2.188.273 1.968.474 1.968.766 0 .037-.036.073.565.255 1.002.565.748.529 1.149 1.258.42.747.42 1.878v2.315q0 .692-.31 1.257-.31.566-.821 1.021-.583.51-1.185.839-.656.346-1.349.583-.802.274-1.349.365-.656.11-1.185.11-1.02 0-2.187-.256-1.167-.255-2.26-.73l-.584-.254q-.11.164-.237.291-.42.474-.857.474t-.784-.11q-.328-.109-.601-.327-.438-.347-.438-.857 0-.2.073-.438 1.222-4.338 1.531-11.867zm2.99 5.797q-.129 1.805-.366 3.19-.054.365-.127.693.31.164.71.346.766.347 1.605.584.802.218 1.531.218.565 0 1.021-.11.583-.145.966-.364.42-.237.711-.656.274-.383.274-.93 0-1.02-.42-1.586-.419-.546-1.148-.911-.875-.42-1.604-.529-.037 0-.839-.164-.802.164-.838.164-.31.055-1.477.055zm21-6.69q-.603 0-1.313.128-.693.109-1.386.346-.693.219-1.349.565-.656.328-1.148.784-.492.437-.802.984-.292.529-.292 1.167.273 0 1.13-.018.875-.037 2.005-.091 1.149-.073 2.388-.165 1.24-.109 2.28-.255 1.056-.164 1.73-.364.675-.2.675-.474 0-.784-.437-1.295-.42-.51-1.04-.802-.6-.291-1.275-.4-.675-.11-1.167-.11zm-9.936 5.268q0-1.877.802-3.482.802-1.622 2.17-2.807 1.367-1.185 3.153-1.86 1.805-.692 3.774-.692 1.367 0 2.716.328 1.349.31 2.424 1.04 1.076.728 1.732 1.913.674 1.185.674 2.899 0 .856-.328 1.531-.328.674-.875 1.185-.547.51-1.257.875-.711.346-1.495.583-.784.237-1.586.365-.802.127-1.513.164l-6.563.364v.073q0 .912.438 1.568.437.656 1.112 1.094.674.437 1.476.656.802.2 1.55.2.911 0 1.695-.328.802-.328 1.55-.71.747-.402 1.476-.73.748-.328 1.531-.328.748 0 1.276.438.53.419.53 1.221 0 .747-.457 1.349-.437.583-1.148 1.057-.711.456-1.622.784-.894.328-1.787.547-.893.2-1.713.292-.82.11-1.386.11-2.096 0-3.664-.785-1.568-.802-2.607-2.133-1.039-1.349-1.567-3.099-.51-1.768-.51-3.682zm19.323 8.422v-3.172q0-4.083 1.969-7.82 1.969-3.755 5.997-7.31.146-.128.547.11.42.218.984.729.566.492 1.222 1.24.674.728 1.349 1.621.692.894 1.312 1.915.638 1.002 1.13 2.041.493 1.021.784 2.042.292 1.02.292 1.95 0 .383.037 1.149.036.765.036 1.695 0 .912-.091 1.878-.073.948-.328 1.75-.237.784-.693 1.276-.437.51-1.167.51-.729 0-1.221-.474-.474-.474-.474-1.221 0-.82.073-1.622.073-.803.164-1.605.11-.82.182-1.622.073-.802.073-1.622 0-.675-.273-1.495-.274-.82-.711-1.64-.42-.821-.93-1.569-.51-.765-.984-1.312t-.857-.802q-.365-.274-.529-.11-.893.93-1.586 2.115-.692 1.185-1.22 2.48-.53 1.293-.894 2.624-.365 1.313-.583 2.534-.22 1.203-.31 2.26-.073.875-.073 1.532v.255q-.055.237-.219.456-.164.218-.401.364-.237.146-.51.237-.256.091-.493.091-.656 0-1.039-.419-.383-.437-.565-1.039zm37.005-16.99q1.313 0 1.604.912v4.557q0 9.552-2.06 11.85-.419.473-.856.473-.438 0-.784-.11-.328-.109-.602-.327-.437-.347-.437-.857 0-.2.073-.438 1.458-5.177 1.622-14.856.164-.62.474-.912.328-.292.966-.292zm-6.234 8.641q.747.529 1.148 1.258.42.747.42 1.878v2.315q0 .692-.31 1.257-.31.566-.82 1.021-.584.51-1.186.839-.656.346-1.348.583-.803.274-1.35.365-.656.11-1.184.11-1.021 0-2.188-.256-1.166-.255-2.26-.73l-.584-.254q-.109.164-.237.291-.419.474-.856.474-.438 0-.784-.11-.328-.109-.602-.327-.437-.347-.437-.857 0-.2.073-.438.109-.4.218-.838-.237-.237-.437-.492-.073-.347-.11-.401-.072-.146-.072-.383 0-.274.145-.602.128-.291.365-.51.255-.237.51-.328l.146-.055q.2-1.185.347-2.516.364-3.773.455-6.635.292-3.591 1.185-3.773.948-.201 1.623-.256h.018q.4 0 .42 1.367 0 .803-.147 2.06v2.771q0 .966-.018 1.86.893-.237 2.024-.237.054.018.09.018 1.167 0 2.352.2 1.185.2 2.388.766.565.255 1.003.565zm-7.984 1.35q-.165 2.26-.493 3.882.31.164.711.346.766.347 1.604.584.803.218 1.532.218.565 0 1.02-.11.584-.145.967-.364.419-.237.71-.656.274-.383.274-.93 0-1.02-.42-1.586-.419-.546-1.148-.911-.875-.42-1.604-.529-.036 0-.838-.164-.802.164-.839.164-.31.055-1.476.055zm23.005-18.777q.054-.036.146-.036.291 0 .947.364.256.146.985 1.458.547 1.003 2.224 1.495.784.219 1.513.219 1.823 0 3.336-1.385 1.075-.985 1.531-.985h.073q.71.128.984.328.456.328.274 1.04-.183.656-.529 1.057l-.838.747q-.493.346-1.386.711-.893.383-1.24.456-.346.09-1.002.219-.638.145-1.221.182-.237.018-.51.018-.675 0-1.514-.128-1.495-.237-1.877-.546-.93-.766-1.386-1.24-.674-.693-.948-1.604-.291-.912-.4-1.677zm-.2 9.497q0 1.477-.165 2.935-.164 1.44-.164 2.917-.018.437-.018 1.203v.255q0 .657.036 1.422.037.912.183 1.841.145.912.437 1.677.31.748.784 1.24.492.474 1.24.474.583 0 1.148-.401t1.076-1.04q.51-.637.947-1.403.456-.784.803-1.531.364-.747.62-1.367.273-.638.4-.966.128-.274.328-.839.22-.565.474-1.258.274-.71.566-1.495.291-.783.546-1.476.256-.711.456-1.276.2-.565.292-.839.237-.583.62-.838.382-.255 1.02-.255.766 0 1.204.4.437.402.437 1.167v.456q-.055.237-.182.747-.11.493-.255 1.13-.146.639-.31 1.331-.146.693-.292 1.331-.128.638-.237 1.149-.091.492-.128.729-.036.182-.072.692-.037.51-.092 1.222-.054.692-.145 1.531-.092.839-.22 1.677-.127.839-.29 1.64-.165.785-.402 1.404-.237.602-.529.985-.291.364-.674.364-.182 0-.456-.054-.255-.055-.51-.164-.237-.128-.42-.292-.182-.182-.182-.42v-2.497q-.565.2-.984.547-.42.346-.784.766-.365.419-.71.856-.347.42-.785.784-.419.347-.966.565-.547.22-1.312.22-1.386 0-2.37-.548-.966-.565-1.64-1.476-.657-.93-1.04-2.115t-.583-2.443q-.2-1.257-.255-2.479-.055-1.24-.055-2.26 0-.42-.055-1.13-.054-.73-.073-1.568v-.42q0-.637.037-1.294.055-.875.273-1.567.237-.693.675-1.13.437-.456 1.185-.456.638 0 1.093.474.474.455.474 1.166z" aria-label="белый" class="label" style="font-size:37.3333px;font-family:Lavi;-inkscape-font-specification:Lavi;direction:rtl;text-anchor:middle;fill:#000" transform="rotate(-90)"/><path d="M102.344-240.993q-.365 6.125-1.95 7.893-.42.474-.857.474-.438 0-.784-.11-.328-.109-.602-.327-.437-.347-.437-.857 0-.2.073-.438 1.458-5.177 1.622-14.856.164-.62.474-.912.328-.291.966-.291 1.313 0 1.604.911v4.557q0 .966-.018 1.841.383-.127.893-.237l3.245-.109q2.333.255 3.5.474.219-2.844.274-6.234.164-.62.474-.912.328-.291.966-.291 1.312 0 1.604.911v4.557q0 9.552-2.06 11.85-.42.473-.857.473t-.784-.11q-.328-.109-.601-.327-.438-.347-.438-.857 0-.2.073-.438.73-2.588 1.13-6.307-.82.164-2.132.164-1.021 0-1.623-.018l-3.19-.346q-.31-.055-.565-.128zm23.151-6.125q-.602 0-1.313.128-.692.109-1.385.346-.693.219-1.349.565-.656.328-1.148.784-.492.437-.802.984-.292.529-.292 1.167.273 0 1.13-.018.875-.037 2.005-.091 1.149-.073 2.388-.164 1.24-.11 2.279-.256 1.057-.164 1.732-.364.674-.2.674-.474 0-.784-.437-1.294-.42-.51-1.04-.802-.6-.292-1.275-.402-.675-.109-1.167-.109zm-9.935 5.268q0-1.877.802-3.482.802-1.622 2.17-2.807 1.367-1.185 3.153-1.86 1.805-.692 3.774-.692 1.367 0 2.716.328 1.349.31 2.424 1.04 1.076.728 1.732 1.913.674 1.185.674 2.899 0 .857-.328 1.531-.328.675-.875 1.185-.547.51-1.258.875-.71.346-1.494.583t-1.586.365q-.802.127-1.513.164l-6.563.364v.073q0 .912.438 1.568.437.656 1.112 1.094.674.437 1.476.656.802.2 1.55.2.911 0 1.695-.328.802-.328 1.55-.71.747-.402 1.476-.73.747-.328 1.531-.328.748 0 1.276.438.529.419.529 1.221 0 .748-.456 1.35-.437.582-1.148 1.056-.711.456-1.623.784-.893.328-1.786.547-.893.2-1.714.292-.82.11-1.385.11-2.096 0-3.664-.785-1.568-.802-2.607-2.133-1.039-1.348-1.567-3.098-.51-1.769-.51-3.683zm32.375-4.375q.073-1.44.091-2.99.164-.62 1.276-.91.62-.165 1.404-.165.638 0 1.385.11.784 0 1.55-.055l1.531-.146q.784-.091 1.55-.146.765-.073 1.549-.073.365 0 .693.073.328.073.583.255.255.164.401.456.164.274.164.693 0 .692-.492 1.075-.492.365-1.13.401l-7.42.638v2.06q0 .966-.018 1.86.93-.237 2.151-.347.274-.018.584-.018 1.002 0 2.187.274 1.969.473 1.969.765 0 .037-.037.073.565.255 1.003.565.747.529 1.148 1.258.42.747.42 1.878v2.315q0 .692-.31 1.257-.31.566-.82 1.021-.584.51-1.185.839-.657.346-1.35.583-.801.274-1.348.365-.657.11-1.185.11-1.021 0-2.188-.256-1.166-.255-2.26-.73l-.583-.254q-.11.164-.237.291-.42.474-.857.474-.438 0-.784-.11-.328-.109-.602-.327-.437-.347-.437-.857 0-.2.073-.438 1.221-4.338 1.531-11.867zm2.99 5.797q-.128 1.805-.365 3.19-.055.365-.128.693.31.164.711.346.766.347 1.605.584.802.218 1.53.218.566 0 1.022-.109.583-.146.966-.365.42-.237.71-.656.274-.383.274-.93 0-1.02-.42-1.585-.418-.547-1.148-.912-.875-.42-1.604-.529-.036 0-.838-.164-.802.164-.839.164-.31.055-1.476.055zm21-6.69q-.602 0-1.313.128-.693.109-1.385.346-.693.219-1.35.565-.655.328-1.148.784-.492.437-.802.984-.291.529-.291 1.167.273 0 1.13-.018.875-.037 2.005-.091 1.148-.073 2.388-.164 1.24-.11 2.279-.256 1.057-.164 1.731-.364.675-.2.675-.474 0-.784-.438-1.294-.419-.51-1.039-.802-.601-.292-1.276-.402-.674-.109-1.166-.109zm-9.935 5.268q0-1.877.802-3.482.802-1.622 2.17-2.807 1.366-1.185 3.153-1.86 1.804-.692 3.773-.692 1.367 0 2.716.328 1.35.31 2.425 1.04 1.075.728 1.732 1.913.674 1.185.674 2.899 0 .857-.328 1.531-.328.675-.875 1.185-.547.51-1.258.875-.71.346-1.495.583-.784.237-1.586.365-.802.127-1.513.164l-6.562.364v.073q0 .912.437 1.568.438.656 1.112 1.094.675.437 1.477.656.802.2 1.55.2.91 0 1.695-.328.802-.328 1.55-.71.747-.402 1.476-.73.747-.328 1.531-.328.747 0 1.276.438.529.419.529 1.221 0 .748-.456 1.35-.438.582-1.148 1.056-.711.456-1.623.784-.893.328-1.786.547-.894.2-1.714.292-.82.11-1.385.11-2.097 0-3.664-.785-1.568-.802-2.607-2.133-1.04-1.348-1.568-3.098-.51-1.769-.51-3.683zm19.323 8.422v-3.172q0-4.083 1.968-7.82 1.97-3.755 5.998-7.31.146-.128.547.11.419.218.984.729.565.492 1.221 1.24.675.728 1.35 1.622.692.893 1.312 1.914.638 1.002 1.13 2.041.492 1.021.784 2.042.292 1.02.292 1.95 0 .383.036 1.149.037.766.037 1.695 0 .912-.092 1.878-.072.948-.328 1.75-.237.784-.692 1.276-.438.51-1.167.51-.73 0-1.221-.474-.474-.474-.474-1.221 0-.82.073-1.622.072-.803.164-1.605.109-.82.182-1.622.073-.802.073-1.622 0-.675-.274-1.495-.273-.82-.71-1.64-.42-.821-.93-1.569-.51-.765-.985-1.312-.474-.547-.856-.802-.365-.274-.529-.11-.893.93-1.586 2.115-.693 1.185-1.221 2.48-.529 1.294-.894 2.624-.364 1.313-.583 2.534-.219 1.203-.31 2.26-.073.876-.073 1.532v.255q-.054.237-.218.456-.165.218-.401.364-.237.146-.51.237-.256.091-.493.091-.656 0-1.04-.419-.382-.437-.564-1.039zm37.005-16.99q1.312 0 1.604.912v4.557q0 9.552-2.06 11.85-.42.473-.857.473t-.784-.11q-.328-.109-.601-.327-.438-.347-.438-.857 0-.2.073-.438 1.459-5.177 1.623-14.856.164-.62.474-.912.328-.291.966-.291zm-6.235 8.641q.748.529 1.149 1.258.42.747.42 1.878v2.315q0 .692-.31 1.257-.31.566-.821 1.021-.583.51-1.185.839-.656.346-1.349.583-.802.274-1.349.365-.656.11-1.185.11-1.02 0-2.187-.256-1.167-.255-2.26-.73l-.584-.254q-.11.164-.237.291-.42.474-.857.474t-.784-.11q-.328-.109-.601-.327-.438-.347-.438-.857 0-.2.073-.438.11-.4.219-.838-.237-.237-.438-.492-.072-.347-.109-.401-.073-.146-.073-.383 0-.274.146-.602.128-.291.365-.51.255-.237.51-.328l.146-.055q.2-1.185.346-2.516.365-3.773.456-6.635.292-3.591 1.185-3.773.948-.201 1.622-.256h.018q.401 0 .42 1.368 0 .802-.146 2.06v2.77q0 .966-.018 1.86.893-.237 2.023-.237.055.018.091.018 1.167 0 2.352.2 1.185.2 2.388.766.565.255 1.002.565zm-7.984 1.35q-.164 2.26-.492 3.882.31.164.71.346.766.347 1.605.584.802.218 1.531.218.565 0 1.021-.109.583-.146.966-.365.42-.237.711-.656.274-.383.274-.93 0-1.02-.42-1.585-.419-.547-1.148-.912-.875-.42-1.604-.529-.037 0-.839-.164-.802.164-.838.164-.31.055-1.477.055zm23.005-18.777q.055-.036.146-.036.292 0 .948.364.255.146.984 1.458.547 1.003 2.224 1.495.784.219 1.513.219 1.823 0 3.336-1.385 1.076-.985 1.532-.985h.072q.711.128.985.328.456.328.273 1.04-.182.656-.528 1.057l-.839.747q-.492.346-1.385.711-.894.383-1.24.456-.346.09-1.003.219-.638.145-1.22.182-.238.018-.511.018-.675 0-1.513-.128-1.495-.237-1.878-.546-.93-.766-1.385-1.24-.675-.693-.948-1.604-.292-.912-.401-1.677zm-.2 9.497q0 1.477-.164 2.935-.164 1.44-.164 2.917-.019.438-.019 1.203v.255q0 .657.037 1.422.036.912.182 1.841.146.912.438 1.677.31.748.784 1.24.492.474 1.24.474.582 0 1.148-.401.565-.401 1.075-1.04.51-.637.948-1.403.456-.784.802-1.531.365-.747.62-1.367.273-.638.4-.966.129-.274.33-.839.218-.565.473-1.258.273-.71.565-1.494.292-.784.547-1.477l.456-1.276q.2-.565.291-.839.237-.583.62-.838t1.021-.255q.766 0 1.203.4.438.402.438 1.167v.456q-.055.237-.183.747-.109.493-.255 1.13-.146.639-.31 1.331-.146.693-.291 1.331-.128.638-.237 1.149-.091.492-.128.729-.036.182-.073.692-.036.51-.091 1.222-.055.693-.146 1.531-.091.839-.219 1.677-.127.839-.291 1.64-.164.785-.401 1.404-.237.602-.529.985-.292.364-.675.364-.182 0-.455-.054-.255-.055-.51-.164-.238-.128-.42-.292-.182-.182-.182-.42v-2.497q-.565.2-.985.547-.419.346-.783.766-.365.419-.711.857-.347.419-.784.783-.42.347-.966.565-.547.22-1.313.22-1.385 0-2.37-.548-.966-.565-1.64-1.476-.657-.93-1.04-2.115-.382-1.185-.583-2.442-.2-1.258-.255-2.48-.055-1.24-.055-2.26 0-.42-.054-1.13-.055-.73-.073-1.568v-.42q0-.637.036-1.294.055-.875.274-1.567.237-.693.674-1.13.438-.456 1.185-.456.638 0 1.094.474.474.456.474 1.166z" aria-label="не белый" class="label" style="font-size:37.3333px;font-family:Lavi;-inkscape-font-specification:Lavi;text-anchor:middle" transform="translate(60.945 407.507)"/></svg>