<svg xmlns="http://www.w3.org/2000/svg" width="320" height="320"><svg><g class="venn-area venn-circle" data-venn-sets="0"><path d="M0 160a160 160 0 1 0 320 0 160 160 0 1 0-320 0" style="fill:#1f77b4;fill-opacity:.25"/><g aria-label="Sокружность геометрические места точек, равноудалённыхP" style="font-size:18.6667px;font-family:Lavi;-inkscape-font-specification:Lavi;text-align:center;text-anchor:middle;fill:#008eff;stroke-width:15"><path d="M149.723 77.467q-.2-.237-.364-.474-.51-.783-.51-1.768 0-.71.437-1.221.456-.51 1.24-.51.437 0 .893.273.419.255.93.656.491.383 1.075.82.583.438 1.276.802.71.365 1.568.602.838.255 1.859.255.255 0 .529-.018l.583-.036q.31-.037.638-.073.984-.128 2.023-.383 1.058-.274 2.042-.675.492-.2.93-.437.437-.255.82-.565.766-.584 1.221-1.331.22-.365.329-.784.127-.42.127-.893 0-.638-.31-1.149-.328-.546-.838-.966-.256-.218-.547-.382-.292-.183-.62-.329-.31-.145-.62-.255-.31-.127-.62-.2l-8.257-2.097q-.146-.036-.31-.073-.146-.054-.31-.109-.146-.055-.31-.091-.146-.055-.31-.11l-.292-.109q-.145-.073-.31-.127l-.255-.11q-.127-.073-.255-.127-.128-.073-.255-.128-.11-.073-.237-.146-.11-.073-.237-.146l-.219-.146q-.11-.072-.219-.164-.765-.565-1.33-1.33-.565-.766-.784-1.75v-1.131q0-1.585.51-2.898.255-.656.602-1.221.346-.584.802-1.076.474-.492 1.02-.893.566-.401 1.222-.711.656-.31 1.404-.51.237-.073.492-.128.255-.055.51-.091l.529-.073h.383q.146-.018.291-.018h.292q.31 0 .583-.019.146 0 .237-.018h1.532q.911.018 2.023.11 1.112.072 2.242.237 1.149.164 2.097.492l.109.036q.073.018.128.037.054.018.109.054l.11.037q.218.091.4.2.2.091.365.2.182.11.328.238.328.255.492.601.091.164.128.347.036.164.036.364 0 .183-.036.347-.018.164-.073.31l-.073.145q-.018.073-.073.146-.091.146-.182.274-.219.255-.547.382l-.219.073q-.11.019-.237.037-.11.018-.237.018h-.255q-2.005-.437-3.992-.802l-.656-.11q-.328-.054-.675-.09l-.656-.073q-.51-.037-1.02-.055-.493-.037-1.003-.037-.201 0-.402.019-.182 0-.364.018-.182 0-.365.018l-.364.037q-.365.036-.693.109-.255.055-.492.128-.055.018-.128.036l-.11.036-.109.037-.109.036q-.055.019-.11.055l-.109.037q-.054.018-.109.054-.055.018-.091.055l-.401.219q-.748.492-1.185 1.294-.219.401-.328.911-.11.51-.11 1.13 0 .475.237.82.019.02.019.056l.036.036q.018.018.018.037.037.054.091.109l.11.11.11.109.109.109q.054.036.109.091l.255.182.292.146.146.073.145.073q.474.2.912.292l7.93 2.005q.328.073.638.182.328.091.656.22.638.218 1.276.51 1.24.583 2.187 1.403.329.274.602.602.146.164.273.328l.256.328q.237.346.437.73.602 1.148.602 2.588 0 .51-.073.984-.055.474-.2.911-.128.438-.31.857-.292.62-.693 1.167-.401.547-.875 1.039-.237.237-.51.474l-.548.437q-.565.42-1.203.766-1.312.693-2.734 1.167-.711.237-1.44.4-.73.165-1.459.292-.71.11-1.403.164-.675.055-1.313.055-.692 0-1.64-.11-.948-.127-1.97-.382-.145-.036-.29-.091-.074-.018-.165-.037l-.146-.036-.291-.073-.292-.11-.11-.036q-.036-.018-.09-.036l-.073-.037-.292-.11q-.146-.054-.273-.109-1.003-.4-1.787-.984-.255-.2-.492-.4-.11-.11-.237-.22-.11-.127-.2-.237z" style="font-size:37.3333px"/><path d="M112.217 129.664q0 .647.136 1.112.137.465.447.766.31.291.811.437.502.137 1.222.137.647 0 1.157-.292.51-.3.866-.765.356-.474.547-1.058.191-.592.191-1.176 0-.546-.136-1.02-.128-.474-.42-.82-.282-.356-.747-.557-.456-.2-1.112-.2-.583 0-1.085.228-.492.228-.875.61-.382.383-.647.884-.255.493-.355 1.021zm-1.86-.137q0-.993.374-1.923.383-.93 1.04-1.65.655-.72 1.549-1.148.893-.438 1.932-.438 1.066 0 1.841.365.784.365 1.285.984.51.62.757 1.44.246.82.246 1.741 0 .447-.11.994-.109.538-.319 1.094-.21.556-.52 1.084-.309.529-.71.94-.392.4-.884.646-.483.246-1.04.246h-1.722q-.993 0-1.704-.383-.702-.391-1.149-1.011-.446-.63-.656-1.413-.21-.784-.21-1.568zm12.305-4.338q-.11 1.531-.118 2.032v.338q.291-.201.628-.474.347-.274.702-.575.356-.31.702-.629.356-.319.675-.61.319-.301.583-.547.264-.255.447-.428.1-.155.255-.155h.282q.392 0 .62.182.228.182.228.583 0 .182-.018.292-.018.1-.137.246l-.337.292q-.255.227-.62.546-.355.31-.766.675-.41.365-.783.702-.374.337-.666.62-.292.273-.41.419.656.346 1.176.747.52.392.939.857.428.465.783 1.012.356.547.684 1.203v.328q0 .365-.191.592-.192.228-.584.228-.218 0-.392-.054-.173-.064-.3-.283-.183-.355-.41-.738-.22-.392-.484-.757-.264-.373-.574-.702-.31-.337-.674-.583-.356-.255-.775-.4-.41-.156-.875-.156h-.037q-.036.128-.072.447-.028.31-.073.702-.046.382-.128.802-.073.419-.219.765-.146.347-.373.574-.22.22-.556.22-.401 0-.593-.265-.182-.264-.182-.638v-.32l.574-3.262q.082-.073.128-.556l.437-4.649q0-.218.046-.31.064-.127.173-.218.082-.055.255-.146.474-.182.748-.182.373 0 .391.337v.21q0 .729-.109 1.686zm8.55 2.57-.028.119-.009.082q-.009.063-.027.3-.018.228-.055.547-.027.31-.073.675-.036.355-.064.674-.027.31-.054.547-.028.228-.028.292.283.09.493.136.21.046.392.073.191.019.382.046.2.018.465.064.429.064.912.1l.392.018q.282 0 .565-.027.474-.046.92-.173.456-.137.82-.383.365-.255.62-.638.265-.383.356-.92.045-.247.045-.484 0-.146-.018-.282-.045-.365-.2-.657-.155-.3-.429-.492-.273-.2-.665-.273-.219-.037-.638-.064-.42-.037-.939-.037-.51 0-1.048.037-.538.036-.994.118-.446.082-.756.237-.3.146-.337.365zm-1.832-2.753q.072-.373.346-.546.21-.128.465-.128.082 0 .164.009.337.064.492.182.155.119.219.292.073.173.09.383.019.21.074.455 1.23-.382 2.488-.4.118 0 .228-.01 1.148 0 2.333.21.72.128 1.276.52.556.382.903.948.346.556.474 1.248.063.347.063.693t-.063.71q-.165.949-.72 1.687-.557.738-1.34 1.212-.784.493-1.696.675-.455.09-.893.09h-.082q-.428 0-.857-.072l-2.606-.355q-.082.446-.128.674l-.055.346-.027.183-.027.191q-.019.119-.064.346-.037.228-.119.675l-.064.346q-.036.255-.09.529-.046.282-.092.529-.036.255-.054.346-.137.255-.383.374-.237.118-.492.072-.329-.063-.51-.291-.183-.228-.21-.547.045-.237.1-.51.064-.265.118-.547.064-.274.119-.547.054-.274.082-.52l.09-.92q.056-.565.11-1.203.064-.648.119-1.304.063-.665.11-1.221.045-.556.072-.939.027-.392.036-.483l-.018-3.263q0-.018.01-.046v-.036q.008-.018.008-.037zm13.28 12.633q0-.692.1-1.358.11-.656.273-1.303.164-.638.365-1.285.2-.638.392-1.304v-.2q-.82 0-1.413-.301-.593-.3-1.003-.802-.41-.501-.665-1.158-.255-.665-.401-1.385-.137-.72-.182-1.458-.046-.739-.046-1.395 0-.21.027-.42.037-.218.128-.391.091-.173.255-.283.164-.11.429-.11.246 0 .474.165.237.155.291.401.01.082.028.365l.045.683q.037.401.091.884.055.483.137.985.082.492.191.957.119.465.274.83.155.355.355.573.21.22.465.22.492 0 .83-.238.346-.246.592-.647.255-.401.428-.902.183-.51.338-1.04.155-.537.319-1.038.164-.51.373-.912.22-.401.51-.638.292-.246.72-.246.393 0 .575.264.191.255.191.63v.236l-2.661 6.7q-.547 1.403-.884 2.852-.328 1.459-.328 2.953-.028.301-.283.429-.246.137-.52.137-.136 0-.282-.037-.146-.036-.264-.118-.11-.082-.192-.21-.073-.119-.073-.283zm11.785-10.272.337-3.555q0-.218.045-.31.064-.127.174-.218.082-.055.255-.146.474-.182.747-.182.374 0 .392.337v.21q0 .729-.11 1.686-.109 1.531-.118 2.032v.338q.292-.201.63-.474.346-.274.701-.575.356-.31.702-.629.355-.319.674-.61l.584-.547q.264-.255.446-.428.1-.155.256-.155h.282q.392 0 .62.182.228.182.228.583 0 .182-.018.292-.019.1-.137.246l-.337.292q-.256.227-.62.546-.356.31-.766.675-.41.365-.784.702-.373.337-.665.62-.292.273-.41.419.656.346 1.176.747.52.392.938.857.429.465.784 1.012.356.547.684 1.203v.328q0 .365-.192.592-.191.228-.583.228-.219 0-.392-.054-.173-.064-.3-.283-.183-.355-.41-.738-.22-.392-.484-.757-.264-.373-.574-.702-.31-.337-.675-.583-.355-.255-.774-.4-.41-.156-.875-.156h-.037q-.036.128-.073.447-.027.31-.073.702-.045.382-.127.802-.073.419-.219.765-.146.347-.374.574-.218.22-.556.22-.4 0-.592-.265-.182-.264-.182-.638v-.32l.382-2.187q-.4.155-.747.392-.365.256-.674.593-.31.328-.575.702-.264.364-.492.756-.219.383-.4.738-.128.22-.302.283-.173.055-.392.055-.392 0-.583-.228-.191-.228-.191-.593v-.328q.328-.656.683-1.203.356-.547.775-1.012.428-.465.948-.856.52-.401 1.176-.748-.119-.146-.41-.42-.292-.282-.666-.619-.374-.337-.784-.702-.41-.364-.774-.674-.356-.32-.62-.547l-.328-.292q-.119-.146-.137-.246-.018-.11-.018-.292 0-.4.228-.583.227-.182.62-.182h.282l.255.155.447.428q.264.246.583.547.32.292.665.61.356.32.711.63.356.3.702.574.228.191.438.337zm10.28 1.978q-.181 3.063-.974 3.947-.21.237-.429.237-.218 0-.392-.055-.164-.055-.3-.164-.22-.173-.22-.429 0-.1.037-.218.73-2.589.812-7.429.082-.31.236-.455.165-.146.484-.146.656 0 .802.455v2.28q0 .482-.01.92.192-.064.447-.119l1.623-.055q1.166.128 1.75.237.109-1.421.136-3.117.082-.31.237-.455.164-.146.483-.146.657 0 .803.455v2.28q0 4.775-1.03 5.924-.21.237-.429.237t-.392-.055q-.164-.055-.3-.164-.22-.173-.22-.429 0-.1.037-.218.365-1.295.565-3.154-.41.082-1.066.082-.51 0-.811-.009l-1.595-.173q-.155-.027-.283-.064zm8.441.319q0 .647.137 1.112.136.465.446.766.31.291.812.437.5.137 1.22.137.648 0 1.158-.292.51-.3.866-.765.356-.474.547-1.058.192-.592.192-1.176 0-.546-.137-1.02-.128-.474-.42-.82-.282-.356-.747-.557-.455-.2-1.112-.2-.583 0-1.084.228-.493.228-.875.61-.383.383-.647.884-.256.493-.356 1.021zm-1.86-.137q0-.993.374-1.923.383-.93 1.04-1.65.656-.72 1.549-1.148.893-.438 1.932-.438 1.067 0 1.841.365.784.365 1.286.984.51.62.756 1.44t.246 1.741q0 .447-.11.994-.109.538-.318 1.094-.21.556-.52 1.084-.31.529-.71.94-.393.4-.885.646-.483.246-1.039.246h-1.723q-.993 0-1.704-.383-.702-.391-1.148-1.011-.447-.63-.657-1.413-.21-.784-.21-1.568zm9.699-.884q0-.975.273-1.768.283-.793.811-1.358.538-.565 1.313-.866.774-.31 1.777-.31 1.02 0 1.996.219.975.219 1.914.565.593.3.593.957 0 .401-.274.647-.273.237-.647.237-.446 0-.884-.1-.428-.1-.866-.219-.428-.128-.875-.228-.437-.11-.893-.11-1.158 0-1.75.548-.583.547-.583 1.759 0 .629.136 1.212.137.583.438 1.03.31.438.802.711.492.264 1.194.264.474 0 .893-.173.428-.173.82-.383.401-.21.793-.383.392-.173.812-.173.4 0 .674.237.283.228.283.647 0 .392-.237.711-.237.32-.62.565-.374.247-.857.42-.474.173-.957.291-.474.11-.911.164-.438.055-.73.055-1.112 0-1.95-.42-.83-.427-1.386-1.138-.546-.711-.829-1.641-.273-.939-.273-1.969zm10.053-2.634q-.155 0-.264-.073-.11-.082-.183-.191-.073-.119-.109-.255-.036-.137-.036-.256 0-.109.036-.237.037-.127.11-.237.072-.109.163-.182.1-.073.228-.073h6.927q.137 0 .41-.009h.283q.155-.009.32 0 .327.01.655.055.338.045.611.155.273.11.447.3.182.192.182.493 0 .328-.21.556-.2.228-.547.228-.628 0-1.257-.082-.62-.082-1.267-.082l-1.468-.028v1.276q0 4.776-1.03 5.925-.21.237-.428.237-.219 0-.392-.055-.164-.055-.3-.164-.22-.173-.22-.428 0-.091.037-.219.665-2.36.793-6.599zm17.39 2.944q.374.264.575.629.21.374.21.939v1.157q0 .347-.155.63-.155.282-.41.51-.292.255-.593.419-.328.173-.675.292-.4.136-.674.182-.328.055-.592.055-.51 0-1.094-.128-.584-.128-1.13-.365l-.292-.127q-.055.082-.119.146-.21.237-.428.237-.219 0-.392-.055-.164-.055-.3-.164-.22-.173-.22-.429 0-.1.037-.218.055-.2.11-.42-.119-.118-.22-.246-.036-.173-.054-.2-.036-.073-.036-.192 0-.136.072-.3.064-.146.183-.256.127-.118.255-.164l.073-.027q.1-.592.173-1.258.182-1.886.228-3.317.146-1.796.592-1.887.474-.1.811-.128h.01q.2 0 .21.684 0 .4-.074 1.03v1.385q0 .483-.009.93.447-.119 1.012-.119.027.01.046.01.583 0 1.175.1.593.1 1.194.382.283.128.502.283zm-3.992.675q-.082 1.13-.246 1.941.155.082.356.173.383.173.802.292.401.11.766.11.282 0 .51-.056.292-.072.483-.182.21-.118.356-.328.136-.191.136-.465 0-.51-.21-.793-.209-.273-.574-.455-.437-.21-.802-.265-.018 0-.419-.082-.401.082-.42.082-.154.027-.738.027zm-135.648 20.27.046.803q.01.173.01.364v.11q0 .72-.165 1.75-.228 1.503-.875 3.7-.073.237-.428.237-.22 0-.392-.055-.164-.054-.301-.164-.219-.173-.219-.428 0-.091.037-.219.474-1.668.674-4.275.11-1.467.137-3.153.082-.31.638-.456.31-.082.702-.082.319 0 .692.055.392 0 .775-.028l.766-.072q.392-.046.775-.073.382-.037.774-.037.183 0 .347.037.164.036.291.127.128.082.2.228.083.137.083.346 0 .547-.292.757-.246.173-.565.2zm10.29-.282q-.3 0-.655.064-.347.054-.693.173-.347.11-.675.282-.328.164-.574.392-.246.22-.4.493-.147.264-.147.583.137 0 .565-.01.438-.017 1.003-.045.574-.036 1.194-.082.62-.054 1.14-.127.528-.082.865-.183.337-.1.337-.237 0-.392-.218-.647-.21-.255-.52-.4-.3-.147-.638-.201-.337-.055-.583-.055zm-4.967 2.634q0-.939.401-1.74.401-.812 1.085-1.405.684-.592 1.577-.93.902-.346 1.887-.346.683 0 1.358.164.674.155 1.212.52.538.365.866.957.337.592.337 1.45 0 .428-.164.765t-.438.592q-.273.256-.628.438-.356.173-.748.292-.392.118-.793.182-.4.064-.756.082l-3.282.182v.037q0 .455.22.783.218.329.555.547.337.22.738.328.401.1.775.1.456 0 .848-.163.4-.164.775-.356.373-.2.738-.364.374-.164.765-.164.374 0 .639.218.264.21.264.61 0 .375-.228.675-.219.292-.574.53-.356.227-.811.391-.447.164-.894.273-.446.1-.856.146-.41.055-.693.055-1.048 0-1.832-.392-.784-.401-1.304-1.066-.52-.675-.783-1.55-.256-.884-.256-1.841zm11.01.747q0 .648.138 1.112.136.465.446.766.31.292.811.437.502.137 1.222.137.647 0 1.157-.291.51-.301.866-.766.356-.474.547-1.057.191-.593.191-1.176 0-.547-.136-1.021-.128-.474-.42-.82-.282-.356-.747-.556-.456-.2-1.112-.2-.583 0-1.085.227-.492.228-.875.61-.382.384-.647.885-.255.492-.355 1.02zm-1.859-.136q0-.994.374-1.924.383-.93 1.04-1.65.655-.72 1.549-1.148.893-.437 1.932-.437 1.066 0 1.841.364.784.365 1.285.985.51.62.757 1.44.246.82.246 1.74 0 .447-.11.994-.109.538-.319 1.094-.21.556-.52 1.085-.309.528-.71.938-.392.401-.884.648-.483.246-1.04.246h-1.722q-.993 0-1.704-.383-.702-.392-1.149-1.012-.446-.629-.656-1.413-.21-.783-.21-1.567zm11.822-1.769q-.046 4.43-1.03 5.533-.21.237-.428.237-.219 0-.392-.055-.164-.054-.301-.164-.219-.173-.219-.428 0-.1.037-.219.729-2.588.81-7.428v-.11q0-.638.21-.847.228-.228.502-.228.273 0 .456.09.182.092.264.293l1.531 2.707q0 .018.055.109l.127.191.146.22q.082.108.128.163l.073.082q.282-.282.729-.702.456-.428.957-.875.51-.455 1.03-.893.52-.446.948-.775.118-.054.228-.1.11-.055.228-.055.346 0 .556.22.145.154.191.355v.009q.018.09.018.182 0 .173-.018 2.096 0 4.776-1.03 5.925-.21.237-.428.237-.22 0-.392-.055-.164-.055-.301-.164-.219-.173-.219-.428 0-.1.037-.22.592-2.114.756-5.723l-.355.282q-.474.392-.92.812-.447.419-1.897 2.306-1.476-1.887-1.677-2.115l-.4-.456q-.01 0-.01-.009zm12.724-1.476q-.3 0-.656.064-.347.054-.693.173-.346.11-.674.282-.329.164-.575.392-.246.22-.4.493-.147.264-.147.583.137 0 .566-.01.437-.017 1.002-.045.574-.036 1.194-.082.62-.054 1.14-.127.528-.082.865-.183.338-.1.338-.237 0-.392-.22-.647-.209-.255-.519-.4-.3-.147-.638-.201-.337-.055-.583-.055zm-4.967 2.634q0-.939.4-1.74.402-.812 1.085-1.405.684-.592 1.577-.93.902-.346 1.887-.346.683 0 1.358.164.674.155 1.212.52.538.365.866.957.337.592.337 1.45 0 .428-.164.765t-.437.592q-.274.256-.63.438-.355.173-.747.292-.392.118-.793.182-.4.064-.756.082l-3.281.182v.037q0 .455.218.783.22.329.556.547.338.22.739.328.4.1.774.1.456 0 .848-.163.401-.164.775-.356.373-.2.738-.364.374-.164.766-.164.373 0 .638.218.264.21.264.61 0 .375-.228.675-.219.292-.574.53-.356.227-.811.391-.447.164-.893.273-.447.1-.857.146-.41.055-.693.055-1.048 0-1.832-.392-.784-.401-1.303-1.066-.52-.675-.784-1.55-.255-.884-.255-1.841zm9.898-2.908q-.155 0-.264-.072-.11-.082-.183-.192-.072-.118-.109-.255-.036-.137-.036-.255 0-.11.036-.237.037-.128.11-.237.072-.11.163-.183.1-.072.228-.072h6.927q.137 0 .41-.01h.283q.155-.008.32 0 .327.01.655.055.338.046.611.155.274.11.447.301.182.191.182.492 0 .328-.21.556-.2.228-.547.228-.628 0-1.257-.082-.62-.082-1.267-.082l-1.468-.027v1.276q0 4.776-1.03 5.924-.21.237-.428.237-.219 0-.392-.054-.164-.055-.3-.165-.22-.173-.22-.428 0-.091.037-.219.665-2.36.793-6.599zm13.344 1.75-.027.119-.01.082q-.008.064-.027.3-.018.229-.054.548-.028.31-.073.674-.037.356-.064.675-.027.31-.055.546-.027.228-.027.292.282.091.492.137.21.045.392.073.191.018.383.045.2.019.464.064.429.064.912.1l.392.019q.282 0 .565-.028.474-.045.92-.173.456-.137.82-.383.365-.255.62-.638.265-.383.356-.92.046-.246.046-.483 0-.146-.018-.283-.046-.365-.201-.656-.155-.301-.428-.492-.274-.2-.666-.274-.219-.036-.638-.064-.419-.036-.939-.036-.51 0-1.048.036-.538.037-.993.119-.447.082-.757.237-.3.146-.337.364zm-1.832-2.752q.073-.374.346-.547.21-.128.465-.128.082 0 .164.01.337.063.492.182.155.118.219.291.073.173.091.383.018.21.073.456 1.23-.383 2.488-.401.119 0 .228-.01 1.149 0 2.333.21.72.128 1.277.52.555.383.902.948.346.556.474 1.249.064.346.064.692 0 .347-.064.711-.164.948-.72 1.686-.556.739-1.34 1.213-.784.492-1.695.674-.456.091-.894.091h-.082q-.428 0-.856-.073l-2.607-.355q-.082.447-.128.674l-.054.347-.028.182q-.009.073-.027.191-.018.119-.064.347-.036.228-.118.674l-.064.347q-.037.255-.091.528-.046.283-.091.529-.037.255-.055.346-.137.255-.383.374-.237.118-.492.073-.328-.064-.51-.292-.183-.228-.21-.547.045-.237.1-.51.064-.264.119-.547.063-.273.118-.547.055-.273.082-.52l.091-.92q.055-.565.11-1.203.063-.647.118-1.303.064-.666.11-1.222.045-.556.072-.939.028-.392.037-.483l-.018-3.263q0-.018.009-.045v-.037q.009-.018.009-.036zm12.514-.018q0 .738-.082 1.467-.082.72-.082 1.458-.009.22-.009.602v.128q0 .328.018.71.019.456.091.921.073.456.22.839.154.373.391.62.246.236.62.236.292 0 .574-.2.283-.2.538-.52.255-.319.474-.701.228-.392.4-.766.183-.374.31-.684.137-.319.201-.483.064-.136.164-.419.11-.283.237-.629.137-.355.283-.747.146-.392.273-.739.128-.355.228-.638.1-.282.146-.419.119-.292.31-.42.191-.127.51-.127.383 0 .602.2.219.201.219.584v.228l-.091.374-.128.565q-.073.319-.155.665-.073.346-.146.665-.064.32-.118.575-.046.246-.064.364-.018.091-.037.347l-.045.61q-.028.347-.073.766-.046.42-.11.838-.063.42-.145.82-.082.393-.2.703-.12.3-.265.492-.146.182-.337.182-.092 0-.228-.027-.128-.028-.256-.082-.118-.064-.21-.146-.09-.091-.09-.21v-1.248q-.283.1-.492.273-.21.173-.392.383-.183.21-.356.428-.173.21-.392.392-.21.173-.483.283-.273.11-.656.11-.693 0-1.185-.274-.483-.283-.82-.739-.328-.464-.52-1.057-.191-.592-.291-1.221-.1-.63-.128-1.24-.027-.62-.027-1.13 0-.21-.028-.565-.027-.365-.036-.784v-.21q0-.319.018-.647.027-.437.137-.784.118-.346.337-.565.219-.228.592-.228.32 0 .547.237.237.228.237.584zm12.67 5.541-.31-.027q-.912-.055-2.033-.401-.766-.237-1.303-.638-.584-.438-.967-1.103-.382-.665-.382-1.668 0-.92.437-1.65.456-.61.848-.61.045 0 .21.054.4.137.4.465 0 .2-.118.456-.328.72-.337 1.321v.028q0 .565.319.92.3.338.83.584.573.273 1.767.474.374.063.766.1.091-1.622.118-3.546.082-.382.228-.547.155-.173.465-.173h.018q.611 0 .748.547v2.735q0 5.723-.985 7.109-.2.282-.41.282-.218 0-.373-.063-.164-.073-.292-.2-.21-.22-.21-.511 0-.119.037-.265.337-1.54.528-3.673zm7.966-4.247q-.301 0-.657.064-.346.054-.692.173-.347.11-.675.282-.328.164-.574.392-.246.22-.401.493-.146.264-.146.583.137 0 .565-.01.438-.017 1.003-.045.574-.036 1.194-.082.62-.054 1.14-.127.528-.082.865-.183.337-.1.337-.237 0-.392-.219-.647-.21-.255-.52-.4-.3-.147-.637-.201-.337-.055-.583-.055zm-4.968 2.634q0-.939.401-1.74.401-.812 1.085-1.405.683-.592 1.577-.93.902-.346 1.886-.346.684 0 1.358.164.675.155 1.213.52.537.365.866.957.337.593.337 1.45 0 .428-.164.765t-.438.592q-.273.256-.629.438-.355.173-.747.292-.392.118-.793.182t-.757.082l-3.28.182v.037q0 .455.218.783.219.329.556.547.337.22.738.328.401.1.775.1.456 0 .848-.163.4-.164.774-.356.374-.2.739-.364.373-.164.765-.164.374 0 .638.218.265.21.265.611 0 .374-.228.674-.219.292-.574.53-.356.227-.812.391-.446.164-.893.273-.447.1-.857.146-.41.055-.692.055-1.049 0-1.832-.392-.784-.401-1.304-1.066-.52-.675-.784-1.55-.255-.884-.255-1.841zm9.16-.273q0-.976.274-1.769.282-.793.81-1.358.539-.565 1.313-.866.775-.31 1.778-.31 1.02 0 1.996.22.975.218 1.914.564.592.301.592.957 0 .401-.273.648-.273.237-.647.237-.447 0-.884-.1-.429-.101-.866-.22-.429-.127-.875-.227-.438-.11-.893-.11-1.158 0-1.75.547-.584.547-.584 1.76 0 .628.137 1.211.137.584.437 1.03.31.438.803.711.492.265 1.194.265.474 0 .893-.173.428-.174.82-.383.401-.21.793-.383.392-.173.811-.173.401 0 .675.237.282.228.282.647 0 .392-.237.71-.237.32-.62.566-.373.246-.856.42-.474.172-.957.29-.474.11-.912.165-.437.055-.729.055-1.112 0-1.95-.42-.83-.428-1.386-1.139-.547-.711-.83-1.64-.273-.94-.273-1.97zm11.922-3.455q-.11 1.531-.118 2.033v.337q.291-.2.629-.474.346-.273.701-.574.356-.31.702-.63.356-.318.675-.61l.583-.547q.264-.255.447-.428.1-.155.255-.155h.282q.392 0 .62.182.228.183.228.584 0 .182-.018.291-.018.1-.137.246l-.337.292q-.255.228-.62.547-.355.31-.765.674-.41.365-.784.702-.374.337-.666.62-.291.273-.41.42.656.346 1.176.747.52.392.939.856.428.465.784 1.012.355.547.683 1.203v.328q0 .365-.191.593-.192.228-.584.228-.218 0-.392-.055-.173-.064-.3-.283-.183-.355-.41-.738-.22-.392-.484-.756-.264-.374-.574-.702-.31-.337-.674-.583-.356-.256-.775-.402-.41-.154-.875-.154h-.036q-.037.127-.073.446-.028.31-.073.702-.046.383-.128.802-.073.42-.219.766-.145.346-.373.574-.22.219-.556.219-.401 0-.593-.265-.182-.264-.182-.638v-.319l.574-3.263q.082-.073.128-.556l.437-4.648q0-.219.046-.31.064-.128.173-.219.082-.055.255-.146.474-.182.748-.182.373 0 .392.337v.21q0 .73-.11 1.686zm8.158-.2q0 .738-.082 1.467-.082.72-.082 1.458-.01.22-.01.602v.128q0 .328.019.71.018.456.091.921.073.456.219.839.155.373.392.62.246.236.62.236.291 0 .574-.2.282-.2.538-.52.255-.319.473-.701.228-.392.402-.766.182-.374.31-.684.136-.319.2-.483.064-.136.164-.419.11-.283.237-.629.137-.355.283-.747l.273-.739q.128-.355.228-.638.1-.282.146-.419.118-.292.31-.42.191-.127.51-.127.383 0 .602.2.218.201.218.584v.228q-.027.118-.09.374l-.128.565q-.073.319-.155.665-.073.346-.146.665-.064.32-.119.575-.045.246-.063.364-.019.091-.037.347-.018.255-.046.61-.027.347-.072.766-.046.42-.11.838-.064.42-.146.82-.082.393-.2.703-.119.3-.265.492-.145.182-.337.182-.09 0-.228-.027-.127-.028-.255-.082-.118-.064-.21-.146-.09-.091-.09-.21v-1.248q-.283.1-.493.273-.21.173-.392.383-.182.21-.355.428-.173.21-.392.392-.21.173-.483.283-.274.11-.656.11-.693 0-1.185-.274-.483-.283-.82-.739-.329-.464-.52-1.057-.192-.592-.292-1.221-.1-.63-.127-1.24-.028-.62-.028-1.13 0-.21-.027-.565-.027-.365-.037-.784v-.21q0-.319.019-.647.027-.437.136-.784.119-.346.338-.565.218-.228.592-.228.32 0 .547.237.237.228.237.584zm12.432 1.294q-.3 0-.656.064-.347.054-.693.173-.346.11-.674.282-.329.164-.575.392-.246.22-.4.493-.146.264-.146.583.136 0 .565-.01.437-.017 1.002-.045.574-.036 1.194-.082.62-.054 1.14-.127.528-.082.865-.183.338-.1.338-.237 0-.392-.219-.647-.21-.255-.52-.4-.3-.147-.638-.201-.337-.055-.583-.055zm-4.967 2.634q0-.939.4-1.74.402-.812 1.085-1.405.684-.592 1.577-.93.902-.346 1.887-.346.683 0 1.358.164.674.155 1.212.52.538.365.866.957.337.593.337 1.45 0 .428-.164.765t-.437.592q-.274.256-.63.438-.355.173-.747.292-.392.118-.793.182-.4.064-.756.082l-3.281.182v.037q0 .455.218.783.22.329.556.547.338.22.739.328.4.1.774.1.456 0 .848-.163.401-.164.775-.356.374-.2.738-.364.374-.164.766-.164.373 0 .638.218.264.21.264.611 0 .374-.228.674-.219.292-.574.53-.355.227-.811.391-.447.164-.893.273-.447.1-.857.146-.41.055-.693.055-1.048 0-1.832-.392-.784-.401-1.303-1.066-.52-.675-.784-1.55-.255-.884-.255-1.841zm17.117-1.158q-.046 4.43-1.03 5.533-.21.237-.429.237-.218 0-.391-.055-.165-.054-.301-.164-.219-.173-.219-.428 0-.1.037-.219.729-2.588.81-7.428v-.11q0-.638.21-.847.228-.228.502-.228.273 0 .455.09.183.092.265.293l1.531 2.707q0 .018.055.109l.127.191.146.22q.082.109.128.163l.073.082q.282-.282.729-.702.455-.428.957-.875.51-.455 1.03-.893.52-.446.948-.775.118-.054.228-.1.109-.055.227-.055.347 0 .556.22.146.154.192.355v.009q.018.09.018.182 0 .173-.018 2.096 0 4.776-1.03 5.925-.21.237-.429.237-.218 0-.391-.055-.165-.055-.301-.164-.219-.173-.219-.428 0-.1.037-.22.592-2.114.756-5.723l-.355.282q-.474.392-.921.812-.447.419-1.896 2.306-1.476-1.887-1.677-2.115l-.401-.456q-.009 0-.009-.009zm12.724-1.476q-.301 0-.656.064-.347.054-.693.173-.347.11-.675.282-.328.164-.574.392-.246.22-.4.493-.147.264-.147.583.137 0 .565-.01.438-.017 1.003-.045.574-.036 1.194-.082.62-.054 1.14-.127.528-.082.865-.183.337-.1.337-.237 0-.392-.218-.647-.21-.255-.52-.4-.3-.147-.638-.201-.337-.055-.583-.055zm-4.968 2.634q0-.939.401-1.74.401-.812 1.085-1.405.684-.592 1.577-.93.902-.346 1.887-.346.683 0 1.358.164.674.155 1.212.52.538.365.866.957.337.593.337 1.45 0 .428-.164.765t-.438.592q-.273.256-.628.438-.356.173-.748.292-.392.118-.793.182-.4.064-.756.082l-3.282.182v.037q0 .455.22.783.218.329.555.547.337.22.738.328.401.1.775.1.456 0 .848-.163.4-.164.775-.356.373-.2.738-.364.374-.164.765-.164.374 0 .639.218.264.21.264.611 0 .374-.228.674-.219.292-.574.53-.356.227-.811.391-.447.164-.894.273-.446.1-.856.146-.41.055-.693.055-1.048 0-1.832-.392-.784-.401-1.304-1.066-.52-.675-.783-1.55-.256-.884-.256-1.841zm9.16-.273q0-.976.274-1.769.283-.793.811-1.358.538-.565 1.313-.866.774-.31 1.777-.31 1.02 0 1.996.22.975.218 1.914.564.593.301.593.957 0 .401-.274.648-.273.237-.647.237-.447 0-.884-.1-.428-.101-.866-.22-.428-.127-.875-.227-.437-.11-.893-.11-1.158 0-1.75.547-.584.547-.584 1.76 0 .628.137 1.211.137.584.438 1.03.31.438.802.711.492.265 1.194.265.474 0 .893-.173.428-.174.82-.383.401-.21.793-.383.392-.173.812-.173.4 0 .674.237.283.228.283.647 0 .392-.237.71-.237.32-.62.566-.374.246-.857.42-.474.172-.957.29-.474.11-.911.165-.438.055-.73.055-1.112 0-1.95-.42-.83-.428-1.386-1.139-.546-.711-.829-1.64-.273-.94-.273-1.97zm10.054-2.635q-.155 0-.264-.072-.11-.082-.183-.192-.073-.118-.11-.255-.036-.137-.036-.255 0-.11.037-.237.036-.128.11-.237.072-.11.163-.183.1-.072.228-.072h6.927q.137 0 .41-.01h.283q.155-.008.319 0 .328.01.656.055.338.046.611.155.273.11.447.301.182.191.182.492 0 .328-.21.556-.2.228-.547.228-.629 0-1.257-.082-.62-.082-1.267-.082l-1.468-.027v1.276q0 4.776-1.03 5.924-.21.237-.428.237-.219 0-.392-.054-.164-.055-.3-.164-.22-.174-.22-.429 0-.091.037-.219.665-2.36.793-6.599zm17.874.183q-.192-.064-.994-.064-4.12 0-4.129 3.154 0 1.13.255 1.658.256.52.739.894.483.373 1.02.373 1.04 0 1.97-.802.938-.802 1.102-1.777zm0 2.752zm-6.08 3.519q-.428-.638-.62-1.468-.191-.83-.191-1.941 0-1.121.438-2.07.847-1.85 3.09-2.442 1.093-.292 2.16-.292h.027q.155.01.291.01.82 0 .958-.028.036-.009.082-.009.154 0 .41.082l.31.091q.255.073.51.283.264.2.264.4l.1 4.622q.01.52.238 1.276.41 1.394.41 1.85 0 .447-.237.72-.237.274-.63.274-.701 0-.938-.62-.191-.474-.3-.893-.83.701-1.377.993-1.085.565-2.115.565-1.03 0-1.74-.383-.702-.382-1.14-1.02zm-110.934 16.88q-.155 0-.264-.073-.11-.082-.182-.191-.073-.119-.11-.256-.036-.136-.036-.255 0-.11.036-.237.037-.127.11-.237.073-.11.164-.182.1-.073.228-.073h6.927q.137 0 .41-.01h.283q.154-.008.319 0 .328.01.656.056.337.045.61.155.274.109.447.3.182.192.182.493 0 .328-.21.556-.2.227-.546.227-.629 0-1.258-.082-.62-.082-1.267-.082l-1.467-.027v1.276q0 4.776-1.03 5.925-.21.237-.429.237-.218 0-.392-.055-.164-.055-.3-.164-.22-.173-.22-.429 0-.09.037-.218.666-2.361.793-6.6zm12.56 3.655q0 .647.137 1.112.137.465.447.765.31.292.81.438.502.137 1.222.137.647 0 1.158-.292.51-.3.866-.766.355-.474.547-1.057.19-.592.19-1.176 0-.547-.136-1.02-.127-.475-.419-.82-.283-.356-.747-.557-.456-.2-1.112-.2-.584 0-1.085.227-.492.228-.875.611t-.647.884q-.255.492-.356 1.021zm-1.859-.137q0-.993.374-1.923.382-.93 1.039-1.65.656-.72 1.55-1.148.892-.438 1.932-.438 1.066 0 1.84.365.785.364 1.286.984.51.62.756 1.44t.246 1.741q0 .447-.109.994-.11.537-.319 1.093-.21.556-.52 1.085-.31.529-.71.939-.392.4-.885.647-.483.246-1.039.246h-1.722q-.994 0-1.705-.383-.702-.392-1.148-1.011-.447-.63-.656-1.413-.21-.784-.21-1.568zm14.92 1.003-.31-.028q-.91-.054-2.032-.4-.766-.238-1.303-.639-.584-.437-.966-1.103-.383-.665-.383-1.668 0-.92.437-1.65.456-.61.848-.61.046 0 .21.055.4.136.4.465 0 .2-.118.455-.328.72-.337 1.322v.027q0 .565.319.92.3.338.83.584.574.274 1.768.474.373.064.765.1.091-1.622.119-3.545.082-.383.228-.547.154-.173.464-.173h.019q.61 0 .747.547v2.734q0 5.724-.984 7.11-.2.282-.41.282-.22 0-.374-.064-.164-.073-.292-.2-.21-.22-.21-.51 0-.12.037-.265.337-1.54.529-3.673zm7.967-4.248q-.301 0-.657.064-.346.055-.692.173-.347.11-.675.283-.328.164-.574.392-.246.218-.401.492-.146.264-.146.583.137 0 .565-.009.438-.018 1.003-.045.574-.037 1.194-.082.62-.055 1.14-.128.528-.082.865-.182.337-.1.337-.237 0-.392-.218-.647-.21-.256-.52-.401-.3-.146-.638-.2-.337-.056-.583-.056zm-4.968 2.634q0-.938.401-1.74.401-.812 1.085-1.404.684-.593 1.577-.93.902-.346 1.886-.346.684 0 1.359.164.674.155 1.212.52.538.364.866.956.337.593.337 1.45 0 .428-.164.765-.164.338-.438.593-.273.255-.629.437-.355.173-.747.292-.392.118-.793.182-.4.064-.756.082l-3.282.182v.037q0 .456.22.784.218.328.555.547.337.218.738.328.401.1.775.1.456 0 .848-.164.4-.164.775-.355.373-.201.738-.365.373-.164.765-.164.374 0 .638.219.265.21.265.61 0 .374-.228.675-.219.291-.574.528-.356.228-.812.392-.446.164-.893.274-.446.1-.857.146-.41.054-.692.054-1.048 0-1.832-.392-.784-.4-1.304-1.066-.52-.674-.784-1.55-.255-.884-.255-1.84zm11.767-3.727q-.11 1.53-.118 2.032v.337q.291-.2.629-.474.346-.273.701-.574.356-.31.702-.629.356-.319.675-.61.319-.301.583-.547.264-.256.447-.429.1-.155.255-.155h.282q.392 0 .62.183.228.182.228.583 0 .182-.018.292-.018.1-.137.246l-.337.291q-.255.228-.62.547-.355.31-.765.675-.41.364-.784.702-.374.337-.666.62-.291.273-.41.419.656.346 1.176.747.52.392.939.857.428.465.784 1.012.355.546.683 1.203v.328q0 .364-.191.592-.192.228-.584.228-.218 0-.391-.055-.174-.063-.301-.282-.183-.356-.41-.738-.22-.392-.483-.757-.265-.374-.575-.702-.31-.337-.674-.583-.356-.255-.775-.401-.41-.155-.875-.155h-.036q-.037.127-.073.446-.028.31-.073.702-.046.383-.128.802-.073.42-.219.766-.145.346-.373.574-.219.219-.556.219-.401 0-.593-.264-.182-.265-.182-.638v-.32l.574-3.262q.082-.073.128-.556l.437-4.649q0-.219.046-.31.064-.127.173-.218.082-.055.255-.146.474-.183.748-.183.373 0 .392.338v.21q0 .728-.11 1.685zm6.262 10.153q.41-.474.684-.93.273-.455.446-.92t.274-.948q.1-.492.173-1.02.045-.293.282-.457.237-.164.51-.164.292 0 .484.119.2.118.31.392v.538q0 .291-.073.72-.064.428-.2.902-.137.465-.338.92-.2.465-.465.83-.255.374-.574.601-.319.228-.693.228-.182 0-.364-.09-.183-.092-.32-.22-.127-.127-.182-.264-.045-.137.046-.237zM94.293 197.76l-.027.118-.01.082q-.009.063-.027.3-.018.228-.055.547-.027.31-.073.675-.036.355-.063.674-.028.31-.055.547-.027.228-.027.292.282.09.492.137.21.045.392.072.191.019.383.046.2.018.464.064.429.064.912.1l.392.018q.282 0 .565-.027.474-.046.92-.173.456-.137.82-.383.365-.255.62-.638.265-.383.356-.92.046-.247.046-.484 0-.145-.019-.282-.045-.365-.2-.656-.155-.301-.428-.493-.274-.2-.666-.273-.219-.037-.638-.064-.42-.036-.939-.036-.51 0-1.048.036-.538.037-.993.119-.447.082-.757.237-.3.145-.337.364zm-1.832-2.753q.073-.374.346-.547.21-.128.465-.128.082 0 .164.01.337.063.492.181.155.119.219.292.073.173.091.383.018.21.073.456 1.23-.383 2.488-.401.119 0 .228-.01 1.149 0 2.334.21.72.128 1.276.52.556.383.902.948.346.556.474 1.248.064.347.064.693t-.064.711q-.164.948-.72 1.686-.556.738-1.34 1.212-.784.493-1.695.675-.456.091-.894.091h-.082q-.428 0-.856-.073l-2.607-.355q-.082.446-.128.674l-.054.346-.028.183q-.009.073-.027.191-.018.119-.064.347-.036.227-.118.674l-.064.346q-.037.256-.091.529-.046.283-.091.529-.037.255-.055.346-.137.255-.383.374-.237.118-.492.073-.328-.064-.51-.292-.183-.228-.21-.547.045-.237.1-.51.064-.265.119-.547.063-.274.118-.547.055-.274.082-.52l.091-.92q.055-.565.11-1.203.063-.647.118-1.304.064-.665.11-1.221.045-.556.072-.939.028-.392.037-.483l-.018-3.263q0-.018.009-.046v-.036q.009-.018.009-.037zm17.436 1.184q-.191-.063-.993-.063-4.12 0-4.13 3.153 0 1.13.256 1.66.255.519.738.892.483.374 1.021.374 1.039 0 1.969-.802.939-.802 1.103-1.777zm0 2.753zm-6.08 3.518q-.428-.638-.62-1.467-.19-.83-.19-1.942 0-1.12.437-2.069.848-1.85 3.09-2.442 1.094-.292 2.16-.292h.027q.155.01.292.01.82 0 .957-.028.036-.01.082-.01.155 0 .41.083l.31.09q.255.074.51.283.265.2.265.401l.1 4.622q.009.52.237 1.276.41 1.394.41 1.85 0 .446-.237.72-.237.273-.629.273-.702 0-.939-.62-.191-.473-.3-.893-.83.702-1.377.994-1.084.565-2.114.565-1.03 0-1.741-.383-.702-.383-1.14-1.02zm10.2-1.604q.1-.592.173-1.258.182-1.886.228-3.317h-.1q-.347 0-.538-.21-.192-.21-.192-.565 0-.31.201-.529.2-.219.51-.364.265-.128.711-.22.474-.1.784-.127.529-.045.738-.054.347-.01.575-.01.638 0 1.175.156.556.154.94.474.41.328.628.81.228.493.228 1.176 0 .72-.219 1.185-.191.401-.474.666.283.127.502.282.373.265.574.63.21.373.21.938v1.158q0 .346-.155.628-.155.283-.41.51-.292.256-.593.42-.328.173-.675.292-.4.137-.674.182-.328.055-.592.055-.51 0-1.094-.128-.584-.127-1.13-.364l-.292-.128q-.055.082-.119.146-.21.237-.428.237-.219 0-.392-.055-.164-.055-.3-.164-.22-.173-.22-.428 0-.1.037-.22.055-.2.11-.418-.119-.119-.22-.246-.036-.174-.054-.2-.036-.074-.036-.192 0-.137.072-.301.064-.146.183-.255.127-.119.255-.164zm1.95-4.876v1.385q0 .483-.009.93.465-.119.903-.219.428-.09.81-.273.365-.173.566-.401.219-.255.219-.62 0-.32-.11-.51-.109-.192-.3-.292-.192-.1-.438-.128-.337-.036-.538-.036-.346 0-.692.073-.192.036-.41.09zm-.073 3.646q-.082 1.13-.246 1.941.155.082.356.173.383.173.802.292.401.11.766.11.282 0 .51-.055.292-.073.483-.183.21-.118.356-.328.136-.191.136-.465 0-.51-.21-.793-.209-.273-.574-.455-.437-.21-.802-.265-.018 0-.419-.082-.401.082-.42.082-.154.028-.738.028zm8.04-.283q-.183 3.063-.976 3.947-.21.237-.428.237-.219 0-.392-.055-.164-.055-.3-.164-.22-.173-.22-.428 0-.1.037-.22.73-2.588.811-7.428.082-.31.237-.455.164-.146.483-.146.656 0 .802.456v2.278q0 .483-.009.92.192-.063.447-.118l1.622-.054q1.167.127 1.75.237.11-1.422.137-3.118.082-.31.237-.455.164-.146.483-.146.656 0 .802.456v2.278q0 4.776-1.03 5.925-.21.237-.428.237-.219 0-.392-.055-.164-.055-.3-.164-.22-.173-.22-.428 0-.1.037-.22.364-1.293.565-3.153-.41.082-1.066.082-.51 0-.812-.009l-1.595-.173q-.155-.027-.282-.064zm8.44.32q0 .646.136 1.111.137.465.447.766.31.291.811.437.502.137 1.222.137.647 0 1.157-.292.51-.3.866-.765.355-.474.547-1.058.191-.592.191-1.175 0-.547-.136-1.021-.128-.474-.42-.82-.282-.356-.747-.557-.456-.2-1.112-.2-.583 0-1.085.228-.492.228-.875.61-.383.383-.647.885-.255.492-.355 1.02zm-1.86-.138q0-.993.374-1.923.383-.93 1.04-1.65.655-.72 1.549-1.148.893-.437 1.932-.437 1.066 0 1.841.364.784.365 1.285.985.51.62.757 1.44.246.82.246 1.74 0 .447-.11.994-.109.538-.319 1.094-.21.556-.52 1.084-.31.529-.71.94-.392.4-.884.646-.483.246-1.04.246h-1.722q-.993 0-1.704-.382-.702-.392-1.149-1.012-.446-.629-.656-1.413-.21-.784-.21-1.568zm12.706 8.112q0-.692.1-1.358.11-.656.274-1.303.164-.638.364-1.285.2-.638.392-1.304v-.2q-.82 0-1.413-.3-.592-.302-1.002-.803-.41-.501-.665-1.158-.256-.665-.402-1.385-.136-.72-.182-1.458-.045-.739-.045-1.395 0-.21.027-.42.036-.218.127-.391.092-.173.256-.283.164-.109.428-.109.246 0 .474.164.237.155.292.401.009.082.027.365l.046.683q.036.401.09.884.055.484.137.985.082.492.192.957.118.465.273.83.155.355.356.574.21.218.465.218.492 0 .829-.237.346-.246.592-.647.256-.4.429-.902.182-.51.337-1.04.155-.537.32-1.038.163-.51.373-.912.219-.4.51-.638.292-.246.72-.246.392 0 .574.264.192.256.192.63v.236l-2.662 6.7q-.546 1.403-.884 2.852-.328 1.459-.328 2.954-.027.3-.282.428-.246.137-.52.137-.137 0-.282-.037-.146-.036-.265-.118-.11-.082-.191-.21-.073-.118-.073-.283zm8.768-8.13q.037.465.32.811.282.338.701.575.429.227.948.373.52.146 1.03.228.52.073.975.1.456.028.766.028v-.228q-.01-.137-.01-.52.01-.392.028-.902l.037-1.085q.018-.574.036-1.084.018-.52.018-.903.01-.392 0-.528h-.136l-.73-.028q-.154-.009-.319 0-.328 0-.692.028-.547.045-1.112.2-.556.146-.994.492-.437.347-.692.94-.192.455-.192 1.111 0 .183.018.392zm-1.905 5.323v-.492q.073-.237.32-.392.255-.155.492-.155.373 0 .574.119.21.127.355.31.146.182.292.391.146.22.4.401.265.192.685.301.364.1.93.1h.19q.228 0 .511-.009.283 0 .574-.054.292-.046.565-.155.274-.1.465-.301.192-.2.283-.529.054-.191.054-.437 0-.173-.027-.365-.592-.036-1.312-.11-.72-.081-1.45-.245-.729-.173-1.421-.456-.684-.282-1.23-.72-.539-.447-.876-1.057-.337-.62-.355-1.468v-.237q0-1.157.319-1.96.355-.883.957-1.44.61-.555 1.385-.838.784-.292 1.595-.41.82-.119 1.595-.128.784-.009 1.376-.009h.766q.064.037.173.091.11.046.21.119.1.064.173.146.073.082.073.182l-.3 9.306q0 .574-.192 1.012-.183.446-.502.774-.31.338-.729.556-.419.228-.884.365-.465.146-.957.2-.483.064-.93.064-.783 0-1.503-.2-.72-.2-1.295-.538-.565-.337-.93-.793-.355-.447-.419-.939zm16.98-8.64q-.19-.064-.993-.064-4.12 0-4.129 3.153 0 1.13.256 1.66.255.519.738.892.483.374 1.02.374 1.04 0 1.97-.802.938-.802 1.102-1.777zm0 2.752zm-6.079 3.518q-.428-.638-.62-1.467-.19-.83-.19-1.942 0-1.12.437-2.069.847-1.85 3.09-2.442 1.093-.292 2.16-.292h.027q.155.01.292.01.82 0 .957-.028.036-.01.082-.01.155 0 .41.083l.31.09q.255.074.51.283.265.2.265.401l.1 4.622q.009.52.237 1.276.41 1.394.41 1.85 0 .446-.237.72-.237.273-.629.273-.702 0-.939-.62-.191-.473-.3-.893-.83.702-1.377.994-1.085.565-2.114.565-1.03 0-1.741-.383-.702-.383-1.14-1.02zm9.89.666v-1.586q0-2.042.984-3.91.984-1.878 2.999-3.655.073-.064.273.054.21.11.492.365.283.246.611.62.337.364.675.81.346.448.656.958.319.501.565 1.02.246.511.392 1.022.146.51.146.975 0 .191.018.574.018.383.018.848 0 .455-.045.939-.037.474-.165.875-.118.391-.346.638-.219.255-.583.255-.365 0-.61-.237-.238-.237-.238-.61 0-.411.037-.812.036-.401.082-.802.054-.41.09-.811.037-.401.037-.812 0-.337-.137-.747-.136-.41-.355-.82-.21-.41-.465-.784-.255-.383-.492-.656-.237-.274-.428-.401-.183-.137-.265-.055-.446.465-.793 1.057-.346.593-.61 1.24-.265.647-.447 1.312-.182.657-.292 1.267-.109.602-.155 1.13-.036.438-.036.766v.128q-.027.118-.11.227-.081.11-.2.183-.118.073-.255.118-.128.046-.246.046-.328 0-.52-.21-.191-.219-.282-.52zm10.764-11.375q0-.228.082-.429.082-.21.237-.355.164-.155.356-.246.2-.091.446-.091.228 0 .429.09.21.092.364.247.155.146.237.355.091.2.091.429 0 .237-.09.437-.083.2-.238.356-.155.155-.364.237-.201.082-.429.082-.246 0-.446-.082-.192-.082-.356-.237-.155-.155-.237-.356-.082-.2-.082-.437zm3.245-.028q-.01-.182.082-.419.073-.2.228-.346.146-.155.337-.237.191-.091.42-.091.218 0 .419.09.2.083.346.238.146.146.237.346.082.2.082.42 0 .236-.082.428-.091.191-.237.346-.146.146-.346.228-.201.091-.42.091-.228 0-.419-.091-.191-.082-.337-.228-.137-.137-.228-.346-.082-.164-.082-.429zm-5.013 8.978q-.264-.902-.264-1.84 0-.94.4-1.742.402-.811 1.085-1.403.684-.593 1.586-.94.875-.336 1.878-.336.683 0 1.358.154.656.146 1.212.53.538.364.875.956.328.574.328 1.45 0 .428-.164.765t-.437.592q-.274.256-.63.429-.4.2-.747.3-.392.12-.793.183-.4.064-.756.082l-3.281.182v.037q0 .455.218.784.22.328.556.546.338.22.739.329.364.1.774.1.456 0 .857-.164.356-.146.766-.356.501-.255.747-.364.374-.164.757-.164.373 0 .638.218.264.22.264.611 0 .374-.219.665-.228.301-.583.53-.392.245-.802.4-.429.155-.902.274-.383.09-.857.145-.492.055-.693.055-1.048 0-1.832-.401-.793-.41-1.303-1.057-.52-.656-.775-1.55zm4.703-4.475q-.3 0-.656.064-.347.054-.693.164-.346.118-.674.292-.356.182-.575.382-.237.21-.392.493-.155.282-.155.592.137 0 .575-.009.21 0 1.002-.055.565-.027 1.185-.073.474-.036 1.149-.127.455-.064.856-.183.338-.1.338-.237 0-.391-.21-.647-.2-.246-.52-.4-.291-.147-.647-.201-.337-.055-.583-.055zm6.69 3.117q-.182 3.063-.975 3.947-.21.237-.429.237-.218 0-.391-.055-.165-.055-.301-.164-.219-.173-.219-.428 0-.1.036-.22.73-2.588.812-7.428.082-.31.237-.455.164-.146.483-.146.656 0 .802.456v2.278q0 .483-.01.92.192-.063.447-.118l1.623-.054q1.167.127 1.75.237.11-1.422.137-3.118.082-.31.237-.455.164-.146.483-.146.656 0 .802.456v2.278q0 4.776-1.03 5.925-.21.237-.429.237-.218 0-.392-.055-.164-.055-.3-.164-.22-.173-.22-.428 0-.1.037-.22.365-1.293.566-3.153-.41.082-1.067.082-.51 0-.811-.009l-1.595-.173q-.155-.027-.283-.064zm9.115 0q-.183 3.063-.976 3.947-.21.237-.428.237-.219 0-.392-.055-.164-.055-.3-.164-.22-.173-.22-.428 0-.1.037-.22.73-2.588.811-7.428.082-.31.237-.455.164-.146.483-.146.657 0 .802.456v2.278q0 .483-.009.92.192-.063.447-.118l1.622-.054q1.167.127 1.75.237.11-1.422.137-3.118.082-.31.237-.455.164-.146.483-.146.656 0 .802.456v2.278q0 4.776-1.03 5.925-.21.237-.428.237-.219 0-.392-.055-.164-.055-.3-.164-.22-.173-.22-.428 0-.1.037-.22.365-1.293.565-3.153-.41.082-1.066.082-.51 0-.811-.009l-1.596-.173q-.154-.027-.282-.064zm16.388-4.712q.656 0 .802.456v2.278q0 4.776-1.03 5.925-.21.237-.429.237-.218 0-.391-.055-.164-.055-.301-.164-.219-.173-.219-.428 0-.1.037-.22.729-2.588.81-7.428.083-.31.238-.455.164-.146.483-.146zm-3.117 4.32q.373.265.574.63.21.373.21.938v1.158q0 .346-.156.628-.154.283-.41.51-.291.256-.592.42-.328.173-.675.292-.4.136-.674.182-.328.055-.593.055-.51 0-1.093-.128-.584-.127-1.13-.364l-.292-.128q-.055.082-.119.146-.21.237-.428.237-.219 0-.392-.055-.164-.055-.3-.164-.22-.173-.22-.428 0-.1.037-.22.055-.2.11-.418-.12-.119-.22-.246-.036-.174-.054-.201-.037-.073-.037-.191 0-.137.073-.301.064-.146.183-.255.127-.119.255-.164l.073-.028q.1-.592.173-1.258.182-1.886.228-3.317.146-1.796.592-1.887.474-.1.811-.128h.01q.2 0 .209.684 0 .4-.073 1.03v1.385q0 .483-.009.93.447-.119 1.012-.119.027.01.045.01.584 0 1.176.1.593.1 1.194.383.283.127.502.282zm-3.993.675q-.082 1.13-.246 1.941.155.082.356.173.383.173.802.292.4.11.765.11.283 0 .51-.055.293-.073.484-.183.21-.118.355-.328.137-.191.137-.465 0-.51-.21-.793-.21-.273-.574-.455-.437-.21-.802-.265-.018 0-.42-.082-.4.082-.418.082-.155.028-.739.028zm13.371.71q-.328 0-.592.238-.255.237-.492.592-.228.356-.456.775-.228.41-.483.765-.246.356-.547.593-.291.237-.674.237-.32 0-.547-.2-.219-.21-.219-.557 0-.118.046-.227l.109-.237q.401-.438.738-.784l.647-.684q.31-.337.602-.684.292-.355.61-.802 0-.027.037-.072.037-.046.037-.073v-.037q0-.255-.146-.492t-.346-.465q-.201-.228-.41-.456-.201-.228-.32-.474-.045-.09-.145-.255-.092-.164-.21-.364-.11-.21-.237-.429-.119-.228-.228-.428-.11-.21-.2-.374-.082-.164-.119-.246 0-.018-.018-.064-.01-.045-.027-.09-.01-.056-.028-.092-.009-.046-.009-.064v-.036q0-.347.228-.574.228-.228.574-.228.2 0 .383.09.182.092.264.292l1.532 2.707q0 .019.054.11l.128.191.146.219q.082.11.127.164l.073.082q.283-.283.73-.702.455-.428.957-.875.51-.456 1.03-.893.519-.447.947-.775.119-.054.228-.1.11-.055.228-.055.346 0 .556.228.21.219.21.538 0 .173-.018.282-.019.11-.137.247-.383.328-.857.683-.465.356-.939.748-.474.382-.92.802-.447.419-.793.875-.028.063-.055.1-.018.036-.018.091v.036l2.971 3.109q.146.173.182.31.046.136.046.337 0 .383-.21.556-.2.173-.546.173-.31 0-.63-.182-.31-.192-.62-.483-.309-.301-.61-.675-.3-.374-.583-.738-.283-.365-.538-.684-.246-.319-.456-.52z"/><path d="M151.391 265.082v-.054l1.258-4.667q.565-2.024.857-4.138.31-2.133.456-4.302.145-2.17.182-4.339.018-2.06.018-4.083h-.073q-.146 0-.31.018-.146 0-.291.018-.146.019-.292.055-.146.018-.273.055-.584.146-1.149.31-.565.182-1.094.328-.565.146-1.185.146-.765 0-1.203-.401-.437-.402-.437-1.185 0-.82.729-1.35.674-.51 1.732-.856l.255-.073q.146-.037.273-.073l.292-.073.292-.073q.583-.127 1.221-.218 1.294-.201 2.534-.292 1.258-.091 2.315-.11.529-.018.912-.018h.692q1.203 0 2.625.11t2.826.364q.71.146 1.403.328.347.091.675.2.328.11.656.238.073.018.128.055.073.018.127.054.073.018.128.055.055.018.11.055.072.018.145.054l.146.073.146.073.146.073.145.073q.292.164.566.346.127.091.255.2l.255.183q1.02.802 1.622 1.969.602 1.167.602 2.734 0 .42-.055.82-.054.383-.164.748-.09.365-.255.693-.146.328-.346.62-.128.2-.292.382l-.31.347q-.328.346-.693.638-.364.273-.784.528-.62.365-1.33.62-.347.128-.711.255-.365.11-.748.2l-.255.074q-.127.018-.255.054l-.255.037q-.128.018-.255.055-.11.018-.237.036l-.256.037q-.364.054-.729.09-.364.037-.729.055l-5.906.31-1.258 7.948q-.018.091-.055.219-.018.11-.036.255-.018.146-.055.328-.073.529-.2 1.149-.128.62-.329 1.24-.2.656-.51 1.184-.31.547-.73.893-.455.365-1.038.365-.383 0-.693-.11-.146-.054-.292-.145-.127-.091-.237-.2-.109-.11-.182-.238-.073-.146-.127-.31-.11-.31-.11-.674zm11.394-21.802q-1.058-.11-2.006-.128-.966-.018-1.64-.018h-.365l-.456.018q-.237 0-.4.019l-.092.018-.036.073-.037.784q0 .2-.018.4v.365l-.037.748-.036.984q0 .164-.018.346 0 .164-.018.328v.329l-.037.911v1.677q.273 0 .602.018h1.932q.547 0 1.148-.018 1.24-.036 2.534-.2.638-.091 1.222-.22.601-.145 1.13-.327 1.039-.365 1.677-.948.146-.146.255-.292.128-.164.2-.346.092-.182.128-.383.037-.2.037-.42 0-.473-.128-.874-.11-.401-.346-.73-.073-.109-.164-.2-.091-.11-.2-.2-.092-.11-.201-.201-.037-.037-.073-.055-.037-.036-.073-.054l-.073-.073q-.11-.091-.237-.164-.055-.037-.128-.073-.054-.037-.127-.073-.401-.219-.875-.383-.456-.164-.966-.292l-.693-.145q-.182-.037-.365-.055-.164-.037-.346-.055-.164-.036-.328-.055l-.347-.036z" style="font-size:37.3333px"/></g></g></svg></svg>