<svg xmlns="http://www.w3.org/2000/svg" width="574.052" height="477.735"><g color="#000"><path fill="#fc0" stroke="#000" stroke-width="10" d="M229.514 112.893a127 127 0 0 0 0 254 127 127 0 0 0 0-254zm0 38c50 0 89 40 89 89s-39 89-89 89a89 89 0 0 1 0-178z"/><path fill="#ff0101" stroke="#000" stroke-width="10" d="m286 8-74 91 54-15 1 117v17H82l13-56-87 77 88 79-14-58h185v17l1 117-56-14 76 90 73-90-52 14-1-117v-17h185l-14 58 88-79-88-77 14 56H308v-17l-1-117 54 15z" font-family="sans-serif" font-weight="400" overflow="visible" style="line-height:normal;text-indent:0;text-align:start;text-decoration-line:none;text-decoration-style:solid;text-decoration-color:#000;text-transform:none;white-space:normal;isolation:auto;mix-blend-mode:normal;solid-color:#000;solid-opacity:1" transform="translate(-.486 -.107)"/><path fill="#fff" stroke="#000" stroke-width="10" d="M345.514 112.893a127 127 0 0 0 0 254 127 127 0 0 0 0-254zm0 38a89 89 0 0 1 0 178 89 89 0 0 1 0-178z"/><path fill="#fc0" d="M115 500H75a88 88 0 0 1-81 52 89 89 0 0 1-81-52h-40A127 127 0 0 0-6 590a127 127 0 0 0 121-90z" style="-inkscape-stroke:none" transform="translate(235.514 -223.107)"/><path d="M-92 500a94 94 0 0 0 172 0H69a84 84 0 0 1-151 0z" style="-inkscape-stroke:none" transform="translate(235.514 -223.107)"/><path d="M120 500h-10a122 122 0 0 1-232 0h-11a132 132 0 0 0 253 0z" style="-inkscape-stroke:none" transform="translate(235.514 -223.107)"/></g></svg>