<svg xmlns="http://www.w3.org/2000/svg" baseProfile="tiny" version="1.2" viewBox="0 0 512 512"><g fill="none" stroke-width="2"><path stroke="#9c9ca2" d="M512 342.81q-13.47-14.25-30-24.85" vector-effect="non-scaling-stroke"/><path stroke="#feeed1" d="M482 317.96q1.53-14.07 2.5-39.21 3.66-95.22 1.11-179-.94-31.19-3.11-56.5-.71-8.33-7.24-12.32-2.62-1.6-7.28-2.66-3.82-.87-7.73-1.26-39.18-3.9-78.49-5.96-35.59-1.88-71.21-3.22a1.15.64-58.2 0 0-.74.41q-.31.33-.81.3" vector-effect="non-scaling-stroke"/><path stroke="#9c9ca2" d="M309 18.54q-17.87-8.25-34.81-11.23-21.36-3.75-45.94-2.47-28.46 1.49-53.75 14.45" vector-effect="non-scaling-stroke"/><path stroke="#feeed1" d="M174.5 19.29q-.58-.01-.99-.35a1.46.81 53.6 0 0-.83-.38q-19.73.1-39.43 1.12-39.07 2.04-78 5.83-4.43.43-8.84.97-4.56.57-8.77 2.2-4.8 1.87-7.43 4.85-3.47 3.94-3.96 9.47-3.44 38.95-4.33 81.5-.17 8.27-.17 19.99v42.76q0 10.94.22 20Q23.55 272.72 29 338q.12 1.38 1.29 2.75" vector-effect="non-scaling-stroke"/><path stroke="#9c9ca2" d="M30.29 340.75q-11.73 17.6-17.79 37.87-3.31 11.09-3.25 21.13.11 18.88 12.67 33.38a1.3 1.28 24.5 0 1 .33.86q.12 8.23 2.5 18.51 2.14 9.23 8.69 14.43 4.06 3.22 11.37 5.13 5.82 1.53 12.44 2.19 22.35 2.24 37 3.04" vector-effect="non-scaling-stroke"/><path stroke="#b8d5e6" d="M94.25 477.29q6.39.78 12.82.93 5.61.13 9.35.42 4.66.35 9.33.57" vector-effect="non-scaling-stroke"/><path stroke="#a3a9ac" d="m125.75 479.21 11.75.75" vector-effect="non-scaling-stroke"/><path stroke="#a4c2d0" d="m137.5 479.96 15 .75" vector-effect="non-scaling-stroke"/><path stroke="#a2aebd" d="M152.5 480.71q44.95 1.17 54.25 1.29 86.7 1.16 173.25-4.21" vector-effect="non-scaling-stroke"/><path stroke="#9c9ca2" d="m380 477.79 23-1.08" vector-effect="non-scaling-stroke"/><path stroke="#aecad8" d="M403 476.71q4.89.31 9.75-.42" vector-effect="non-scaling-stroke"/><path stroke="#9c9ca2" d="M412.75 476.29q8.34-.49 16.67-1.18.1-.01 13.67-1.02 10.6-.78 17.41-2.34 8.3-1.9 14.19-9.31 4.23-5.33 6.05-9.54a.72.44-66.1 0 1 .69-.48q.38.18.27 1.1-.75 6.28-2.96 12.2-.17.47.22.16 6.69-5.34 9.23-9.69 14.77-25.35 7.79-54.19-.96-3.98-1.71-7.89-.12-.63.32-.17 10.61 11.28 12.22 26.25.13 1.19.38 0 2.86-13.93-3.14-26.75-7.19-15.36-19.37-27.15a1.13 1.12 23.3 0 1-.34-.85q.72-16.73-5.5-32.18-.87-2.16.89-.64 12.89 11.11 22.96 24.69 5.8 7.83 8.47 14.95.09.23.09.49.07 2.93.75-.44" vector-effect="non-scaling-stroke"/><path stroke="#9b8c74" d="M309 18.54q21.65 10.32 37.86 27.49 6.4 6.78 12.25 15.76 13.61 20.85 21.45 44.69 3.95 12.01 8.7 23.73 10.87 26.86 16.51 55.29 3.98 20.1 2.98 41.25-.65 13.7-5.32 26.03a.87.84-54.6 0 0 .13.85q16.48 20.46 35.64 38.44 1.96 1.84 4.33 3.12Q463 305.67 482 317.96" vector-effect="non-scaling-stroke"/><path stroke="#4b687b" d="M412.75 476.29q-.82-.13-.48-.99 2.3-5.95 2.69-12.3" vector-effect="non-scaling-stroke"/><path stroke="#4c5b6a" d="M414.96 463q.35-4.59-.83-9.03a.4.39-22.1 0 0-.58-.24q-1.71.96-2.79 2.59a.92.87 49.3 0 0-.04.87q1.58 3.32 1.57 7.06" vector-effect="non-scaling-stroke"/><path stroke="#4b687b" d="M412.29 464.25q-2.59 5.07-6.85 8.19-2.3 1.68-2.44 4.27" vector-effect="non-scaling-stroke"/><path stroke="#3e4c5f" d="M380 477.79q-.63.05-.15-1.29.27-.76.34-1.57.21-2.52 1.6-3.68" vector-effect="non-scaling-stroke"/><path stroke="#987e7d" d="M381.79 471.25q9.66 1.28 19.39 1.43a.64.62 7.4 0 0 .63-.47q3.13-11.9 12.19-20.21 1.74-1.6 7.24-8.6.05-.07 3.83-4.53 3.93-4.64 6.22-10.37" vector-effect="non-scaling-stroke"/><path stroke="#9b9493" d="M431.29 428.5q3.44-6.93 4.46-11.25 1.27-5.4-.26-9.45-.66-1.74.08-3.45 1.55-3.52 1.14-6.75-.25-2.02-2.56-6.02-3.87-6.72-7.55-13.55-1.26-2.35-2.28-3.09-1.78-1.3-4.07-.69-6.74 1.81-16 6.29" vector-effect="non-scaling-stroke"/><path stroke="#406073" d="M404.25 380.54q-1.26-.06 2.34-1.77a1.7 1.69-4.7 0 0 .93-1.09l14.62-52.44a1.88 1.87-68 0 0-.91-2.15q-3.78-2.08-7.7-3.77-.53-.23-1.01-.75-.44-.47-.96-.84-.7-.49-1.75-.44-17.31.82-34.56 2.51-15.26 1.49-30.19 5.03Q335.9 327 320.5 333q-9.54 3.72-15.71 9.28-1.74 1.57-3.58 2.05-12.07 3.18-24.19-.12-.1-.03-1.86-.66-3.09-1.1-3.2 2.14-.06 2-.07 2.12-1.06 10.1-1.39 12.19-4.73 29.51-9.29 59.05-.71 4.58-3.19 19.74-2.39 14.57-4.31 29.21" vector-effect="non-scaling-stroke"/><path stroke="#3e4c5f" d="m253.71 468-1.9 11.25a1.06.74 88.8 0 1-.49.74q-.81.36-.66-.72.87-6.38 1.55-12.77" vector-effect="non-scaling-stroke"/><path stroke="#406073" d="M252.21 466.5q7.45-46.59 14.97-93.17 2.28-14.07 3.69-28.9a.47.46 12.4 0 0-.32-.49q-26.43-8.96-54.3-10.94-30.13-2.14-63.72 1.52-.08.01-4.07.05-3.89.04-6.5 3.18" vector-effect="non-scaling-stroke"/><path stroke="#35424c" d="M141.96 337.75q-.59-.29-.5-1" vector-effect="non-scaling-stroke"/><path stroke="#557288" d="M141.46 336.75q2.16-1.93 4.74-3.16 3.58-1.7 4.89-2.69 4.81-3.6 6.6-5.96 2.27-3.01 6.01-3.76a1.23 1.23-13.5 0 0 .95-1.54q-3.25-11.51-10.59-21.45-2.72-3.69-5.96-5.54-2.08-1.18-5.06-.89-14.53 1.42-27.48 9.55-2.68 1.68-4.04 3.76a.29.27 19.1 0 0 .23.43l1.51.15q.54.05.1.41-6.39 5.14-8.88 12.44-.4 1.18-2.97 14.51-8.46 43.85-3.26 87.24 1.56 13.01 2.1 21.48.31 4.89.28 5.54-.15 3.11-1.69 5.42-4.81 7.19-4.79 14.81.01 4.17.38 8.32.02.22.22.7.25.63-.5.77" vector-effect="non-scaling-stroke"/><path stroke="#9b8c74" d="M30.29 340.75q1.15-1.21.96-3.75-1.21-16.27 4.5-33.25 6.23-18.52 19.47-39.74 9.2-14.76 18.72-29.32 13.27-20.31 23.31-48.19 1.9-5.28 6.41-21.55 1.04-3.76 1.21-8.06 1.02-27.41 8.94-56.58 11.91-43.86 46.13-71.62 6.05-4.91 14.56-9.4" vector-effect="non-scaling-stroke"/><path stroke="#72686a" d="M345.69 64.67q-1.56 3.09-.5 6.35 3.84 11.85 8.68 23.32 2.76 6.52 5.57 8.97 4.92 4.3 7.09.03.99-1.95 1.17-5.45.19-3.56-.45-6.64-2.8-13.42-12.25-23.99-2.53-2.84-5.59-4.01-2.5-.97-3.72 1.42M133.8 101.33q3.04.12 5-2.74 8.67-12.62 12.08-27.56 1.42-6.22-3.12-5.67-1.88.22-3.46 1.77-1.34 1.3-2.61 3.06-7.4 10.21-9.68 22.21-.7 3.67-.01 7.37a1.92 1.92-4 0 0 1.8 1.56m49.55-29.48q-3.34-.64-5.72 2.32-7.16 8.89-7.97 20.32-.33 4.57 2.87 5.06 2.08.31 4.26-1.66 4.39-3.97 6.93-9.3 1.83-3.85 2.46-6.64.79-3.52.07-7.21-.48-2.42-2.9-2.89m150.16 7.51q-.45 3.47 1.43 7.2 3.11 6.19 4.76 9.03.87 1.5 1.8 2.16 1.9 1.35 3.16-.33.82-1.09.9-3.17.35-8.98-5.75-16.31-2.13-2.56-4.28-1.65-1.72.73-2.02 3.07M215.67 96.31q1.13.36 2.21.18.97-.16 1.85-1.06 4.86-4.93 3.46-12.12-.62-3.15-2.88-1.5-6.11 4.46-6.48 11.83-.1 2.04 1.84 2.67m53.0836 1.6771a6.62 3.62 91.7 0 0 3.8148-6.5097 6.62 3.62 91.7 0 0-3.422-6.7245 6.62 3.62 91.7 0 0-3.8148 6.5097 6.62 3.62 91.7 0 0 3.422 6.7245m18.357.5367a6.93 3.67 82.7 0 0 2.7597-7.3401 6.93 3.67 82.7 0 0-4.5209-6.4075 6.93 3.67 82.7 0 0-2.7597 7.3401 6.93 3.67 82.7 0 0 4.5209 6.4075" vector-effect="non-scaling-stroke"/><path stroke="#9b9493" d="m216.75 140.54 17.75.42" vector-effect="non-scaling-stroke"/><path stroke="#967d7b" d="m234.5 140.96 3.74.55a.4.36 86.9 0 0 .4-.49q-3.17-13.87-3.36-27.77-.14-10.25.22-20.52.08-2.18-.62-.11-8.42 24.81-24.74 45.53-1.21 1.54-2.6 2.7-.58.49.17.43l9.04-.74" vector-effect="non-scaling-stroke"/><path stroke="#f8d8ca" d="M234.5 140.96q-2.15-3.38-2.78-7.25-.34-2.07-.87-3.83-.58-1.89-.85-3.88-.27-2-1.25-.25-3.24 5.77-7.52 10.8-.07.08-1.12 1.67-1.02 1.56-3.12 1.35a1.13.86 20.5 0 0-.86.26q-.8.81.62.71" vector-effect="non-scaling-stroke"/><path stroke="#967d7b" d="m307.29 124.98-1.08 19.83a.6.57-83.4 0 0 .47.62l4.75.81a.37.36 89.2 0 0 .41-.44l-4.26-20.84q-.23-1.12-.29.02" vector-effect="non-scaling-stroke"/><path stroke="#9b9594" d="M187.29 168.25q-.66 2.48-.04 4.96" vector-effect="non-scaling-stroke"/><path stroke="#45414a" d="m187.25 173.21-.21 2.04" vector-effect="non-scaling-stroke"/><path stroke="#9b9594" d="M187.04 175.25q1.22 24.86 14.5 45.75" vector-effect="non-scaling-stroke"/><path stroke="#988585" d="m201.54 221 3.92 5.5" vector-effect="non-scaling-stroke"/><path stroke="#9b9594" d="M205.46 226.5q4.76 6.6 11.19 11.75.65.53-.18.4-2.96-.45-5.62-2.27-8.73-5.99-14.72-14.44-1.06-1.5-.63.29l6.5 27.56" vector-effect="non-scaling-stroke"/><path stroke="#997f7d" d="M202 249.79q1.5 5.2 6.9 7.74a2.09 2.08-80.5 0 1 1.19 1.68q.96 9.35-.74 17.77a2.12 2.1 36.2 0 0 .23 1.44q8.37 15 14.53 30.25 1.78 4.41 2.96 9.03a1.77 1.76-5 0 0 1.59 1.33q14.58.96 28.65 6.16 3.09 1.14 5.69-1.73" vector-effect="non-scaling-stroke"/><path stroke="#3f424b" d="M263 323.46q.17 1.72-.33 2.14a1.29 1.29-52.3 0 0 .27 2.16q7.42 3.5 13.75 8.05 2.85 2.06 5.85.89a.74.7 79 0 0 .45-.71q-.1-3.03-.99-6.99-3-13.35-8.2-25.14-1.45-3.3-4.71-8.84-2.55-4.33-4.87-8.78-1.85-3.54-2.17-.02-.06.62.01 1.56.38 5.08.04 10.16a.72.68 14 0 0 .43.68q1.99.84 3.04 2.6 1.66 2.78 1.7 2.84 3.62 5.03 3.72 11.44.08 5.33-.05 6.69-.23 2.29-1.55.88a.97.85-61.1 0 1-.19-.87q.62-2.38.77-4.83.1-1.83-.94-4-1.37-2.83-2.24-5.87" vector-effect="non-scaling-stroke"/><path stroke="#72686a" d="M266.79 307.5q-.86-3.96-3.63-6.84a.56.54-22 0 0-.39-.16h-.23" vector-effect="non-scaling-stroke"/><path stroke="#997f7d" d="M262.54 300.5q-2.4-1.11-2.54-4-.42-8.87 2.14-16.79.27-.81-.09-.94a.95.23-46.6 0 0-.72.47q-.34.34-1.08.26-11.09-1.16-19.96-6.75" vector-effect="non-scaling-stroke"/><path stroke="#9b9594" d="M240.29 272.75q7.8 2.67 15.83 4.48 2.61.59 4.82.39 2.43-.22 4.82-.81 16.78-4.17 32.57-11.2 10.97-4.88 18.36-11.67 7.02-6.46 9.85-16.69" vector-effect="non-scaling-stroke"/><path stroke="#988585" d="m326.54 237.25 4-15" vector-effect="non-scaling-stroke"/><path stroke="#9b9594" d="M330.54 222.25q3.99-16.29 11-31.5" vector-effect="non-scaling-stroke"/><path stroke="#967d7b" d="M341.54 190.75q3.3-7.42 6.06-15.06.1-.28.09-.53-.01-1.2-.82.4-3.22 6.43-10.08 9.93a.37.37 53.8 0 0-.09.59q1.85 1.8 3.55 3.32.18.15.41.24 1.39.54-.41.65" vector-effect="non-scaling-stroke"/><path stroke="#9b9594" d="M340.25 190.29q-4.69-.95-4.36 3.4a1.83 1.09 69.5 0 1-.17.94q-.61 1.11-1.91 2.09a1.3 1.3 66.3 0 0-.49 1.26q.15.85.08 1.21-.19.97-.47-.24-.5-2.2.77-4.05a.84.76-43.2 0 0 .07-.83q-1.41-2.72-2.92-5.37-4.88-8.6-14.85-9.24" vector-effect="non-scaling-stroke"/><path stroke="#404859" d="M316 179.46q-4.07-.49-9 .04-4.03.43-6.46 3.25" vector-effect="non-scaling-stroke"/><path stroke="#7e8895" d="m300.54 182.75-.04.21" vector-effect="non-scaling-stroke"/><path stroke="#9b9594" d="m300.5 182.96-4.73 1.56q-.44.14-.14-.21 2.51-2.91 5.94-4.73.49-.26.54-.6a.54.38-1.3 0 0-.61-.41q-3.97.47-6.94-1.88-8.91-7.07-14.16-17.68-.36-.74-.61-.21-.11.24-.04.7 1.59 10.96 8.38 20.08.53.7-.28.36-1.31-.57-2.86-.89-11.29-2.32-19.53-10.3" vector-effect="non-scaling-stroke"/><path stroke="#967d7b" d="M265.46 168.75q-8.49-9.04-13.15-20.57-.66-1.64-.54.12.53 7.56 2.44 15.2" vector-effect="non-scaling-stroke"/><path stroke="#9b9594" d="M254.21 163.5q1.59 7.16 5.47 13.64.38.63-.26.26-3.7-2.16-6.2-5.11-4.97-5.86-8.76-12.54" vector-effect="non-scaling-stroke"/><path stroke="#967d7b" d="M244.46 159.75q-3-7.14-4.9-15.24a1.69 1.41 85.1 0 0-1.26-1.27l-4.01-.49" vector-effect="non-scaling-stroke"/><path stroke="#9b9594" d="M234.29 142.75q-7.5-.8-15.04-.46" vector-effect="non-scaling-stroke"/><path stroke="#997f7d" d="M219.25 142.29q-6.56-.51-12.95.91a1.63 1.57-74.3 0 0-.82.48q-7.68 8.31-16.82 15.03a2.6 2.13-20.2 0 0-1.05 1.79l-.32 7.75" vector-effect="non-scaling-stroke"/><path stroke="#fcdbcd" d="M219.25 142.29q-1.2 1.13-2.5 2.16-1.41 1.11-2.42 2.21-10.93 11.95-24.61 20.65-.07.04-.74.6-.68.58-1.69.34" vector-effect="non-scaling-stroke"/><path stroke="#f9d9cb" d="m234.29 142.75-.49 1.11a1.24.65-56.2 0 0-.09.86l8.05 19.15a1.83 1.77 84 0 0 1.29 1.08q3.53.73 2.64-.64-1.77-2.71-1.88-3.62-.09-.82.65-.94m9.75 3.75q1.65-1.28 1.75 1 .2 4.92 4.45 5.01.66.01 2.51-.41 1.25-.29 2.54-.35" vector-effect="non-scaling-stroke"/><path stroke="#e1e4e5" d="M300.5 182.96q2.88-.2 1.04 1.79" vector-effect="non-scaling-stroke"/><path stroke="#a3a4a9" d="M301.54 184.75q-10.07 12.28-1 25.25" vector-effect="non-scaling-stroke"/><path stroke="#aec4cb" d="M300.54 210q6.67 8.68 15.71 2.25" vector-effect="non-scaling-stroke"/><path stroke="#a3a4a9" d="M316.25 212.25q7.65-6.66 7.5-17.25-.13-8.84-6.66-13.89-.28-.21-.89-.42-1.05-.36-.2-1.23" vector-effect="non-scaling-stroke"/><path stroke="#f9d9cb" d="m340.25 190.29 1.29.46" vector-effect="non-scaling-stroke"/><path stroke="#fbe1d5" d="M330.54 222.25q0-.89-.19-.66-.09.1-.12.35-.21 2.21-1.22.73a.73.72-22.7 0 0-.75-.3q-1.48.31-2.92-.25-4.37-1.7-8.86-.51a.96.89 55.9 0 1-.85-.2q-1.15-.96-2.13-.66-4.57 1.38-4.02 6.22.37 3.33 1.71 5.59 1.61 2.72 5.05 2.49 4.25-.28 8.52-.52a.95.89-19.1 0 1 .8.36q.76 1.06.98 2.36" vector-effect="non-scaling-stroke"/><path stroke="#fcdbcd" d="M240.29 272.75q-7.74-4.51-15.64-8.72-7.73-4.12-14.58-9.59-3.17-2.53-6.66-4.58-.65-.39-1.41-.07" vector-effect="non-scaling-stroke"/><path stroke="#fbe1d5" d="m205.46 226.5 2.36 1a.85.76 36.3 0 0 .82-.08q1.33-1.02 2.92-.94 2.51.11 2.9.07 2.1-.23 4.23-.14a1.25.71 12.9 0 0 .9-.27l3.08-3.28a1.32.8 72.7 0 0 .23-.93q-.47-5.32-4.75-8.56-1.31-.99-2.72-.35a1.27 1.08-43.5 0 1-.9.05q-4.13-1.51-8.29-.58-2.86.64-4.24 2.12-2.09 2.26.06 5.58.57.87-.52.81" vector-effect="non-scaling-stroke"/><path stroke="#a89d9a" d="M187.04 175.25q1.37.6 1.36 1.86-.01 1.7.01 1.78.86 4.73 2.26 9.33a.77.63 79.6 0 0 .64.54q.78 0 .69-.97" vector-effect="non-scaling-stroke"/><path stroke="#f9d9cb" d="M192 187.79q1.45-1.1.59-2.19a1.15.15 17.7 0 0-.83-.39q-.49-.18-.3-.96" vector-effect="non-scaling-stroke"/><path stroke="#a89d9a" d="M191.46 184.25q4.16-5.87 7.6-8.69 6.52-5.33 15.94-4.52" vector-effect="non-scaling-stroke"/><path stroke="#a3a4a9" d="M215 171.04q.82.73.7 1.63-.09.62-.92 1.25-10.86 8.2-7.64 22.05 1.42 6.1 6.3 9.34 3.44 2.29 7.81 1.4" vector-effect="non-scaling-stroke"/><path stroke="#c7d5de" d="M221.25 206.71q5.2.29 8.29-3.71" vector-effect="non-scaling-stroke"/><path stroke="#a3a4a9" d="M229.54 203q6.95-9.25 4.77-21.31-.77-4.28-3.93-6.54-.07-.05-.67-.33-.57-.27-.21-.86" vector-effect="non-scaling-stroke"/><path stroke="#a89d9a" d="M229.5 173.96q3.89 2.1 8.91 3.27.6.14.29-.4-1.7-2.92-4.3-5.02-.41-.33.08-.44 1.23-.27 2.51-.08 3.21.49 1.45-.98-2.3-1.9-7.88-2.87-6.82-1.19-17.11-5.34-.41-.17-.81-.23-2.99-.44-.2 1.19 2.1 1.23-.19 1.44-3.69.34-7.34.93-2.93.48-5.98 2.11-5.72 3.07-11.68 5.67" vector-effect="non-scaling-stroke"/><path stroke="#6c88a3" d="m316.25 212.25 1.98-2.45q1.24-1.54 1.02-3.34-.74-5.83-3.17-9.36a1.47 1.46-32.4 0 0-1.95-.43q-2.61 1.54-5.09 4.49a.42.4-41 0 1-.67-.03l-2.49-4.36a.41.39 56.5 0 0-.58-.13l-4.95 3.77a1.62.93 15.2 0 1-.92.24q-2.29-.07-1.68 2.35.73 2.91 3.5 6.96" vector-effect="non-scaling-stroke"/><path stroke="#537790" d="m301.25 209.96-.71.04" vector-effect="non-scaling-stroke"/><path stroke="#8697aa" d="M301.54 184.75q.16 1.72 1.56 2.48.47.25.74.61 2.02 2.68 5.67.26 1.61-1.07.85-2.84-1.17-2.73-3.86-2.56-2.98.18-5.96.05" vector-effect="non-scaling-stroke"/><path stroke="#6c88a3" d="M229.54 203q-.04-1.34 1.73-3.18 1.19-1.25.87-2.95-1.05-5.61-4.88-7.96a1.68 1.68 30.2 0 0-2.35.62q-3.52 6.41-5.45-.45a.6.59-20.9 0 0-.84-.37q-5.93 3.01-9.78 7.16a1.06.99-29.7 0 0-.27.86q1.43 8.51 9.93 9.52 2.27.27 2.75.46" vector-effect="non-scaling-stroke"/><path stroke="#d2ada2" d="M262.54 300.5q-.18 2.26 1.65 3.56.81.58 2.52 3.94" vector-effect="non-scaling-stroke"/><path stroke="#a08783" d="M266.71 308q.2 2.09.49 4.18.32 2.36-.23 4.11-1.23 3.96-3.97 7.17" vector-effect="non-scaling-stroke"/><path stroke="#4d505f" d="M229.5 173.96q-.75-1.43-3.44-2.27-6.35-1.98-11.06-.65" vector-effect="non-scaling-stroke"/><path stroke="#a28581" d="M191.46 184.25q-.92 1.97.54 3.54" vector-effect="non-scaling-stroke"/><path stroke="#76a7c4" d="M316.25 212.25q-8.66 5-15-2.29" vector-effect="non-scaling-stroke"/><path stroke="#797070" d="m266.71 308 .08-.5" vector-effect="non-scaling-stroke"/><path stroke="#9a8b73" d="M386.19 170.44q-.44 18.47-6.29 37.33a1.5 1.45 44.1 0 0 .03.96q6.33 17.22 14.89 33.47.85 1.61 1.74.02 3.92-6.98 5.02-14.91.56-4.04.69-11.14.1-5.59-.46-11.18-2.62-25.67-11.37-49.93-1.91-5.28-4.18-8.9-.26-.42-.25.1.37 15.93.18 24.18" vector-effect="non-scaling-stroke"/><path stroke="#72686a" d="m301.71 169.25-.42 1.5" vector-effect="non-scaling-stroke"/><path stroke="#9b9493" d="m301.29 170.75-1.15 3.7a.34.3 1.2 0 0 .41.38q4.91-1.1 12.2-1.83.97-.1 1.29-1.25" vector-effect="non-scaling-stroke"/><path stroke="#967d7b" d="M314.04 171.75q.18-9.3-1.11-18.52-.01-.07-.11-2.48-.14-3.29-4.07-3.21" vector-effect="non-scaling-stroke"/><path stroke="#9b9493" d="M308.75 147.54q-1.28-.38-2.52-.15a.68.64 87.4 0 0-.52.61q-.96 10.83-4 21.25" vector-effect="non-scaling-stroke"/><path stroke="#f8d8ca" d="M308.75 147.54q.12 1.04-.71 1.03a1.02 1.01 86.8 0 0-1.02 1.15q.37 2.92 1.16 4.04.52.73.77 1.7l3.05 12" vector-effect="non-scaling-stroke"/><path stroke="#d4c3b9" d="M312 167.46q-4.77 1.97-9.96 2.22a.3.26-5.6 0 1-.3-.21l-.03-.22" vector-effect="non-scaling-stroke"/><path stroke="#f8d8ca" d="M314.04 171.75q-.12-.98-.77-.79a.77.52-21.8 0 1-.77-.17q-.38-.58-.5-1.33" vector-effect="non-scaling-stroke"/><path stroke="#cfaca1" d="M312 169.46q2.47-1.03 0-2" vector-effect="non-scaling-stroke"/><path stroke="#d4c3b9" d="m312 169.46-10.71 1.29" vector-effect="non-scaling-stroke"/><path stroke="#72686a" d="M337.67 150.09q-1.32 1.98-.08 3.11a.39.39 31.3 0 0 .62-.15q.58-1.48-.25-2.95a.17.17 46.6 0 0-.29-.01" vector-effect="non-scaling-stroke"/><path stroke="#967d7b" d="M337.2 154.94q-1.47.96-1.73 1.8-3.68 12.24-15.75 18.31-.59.3.06.24 3.01-.26 5.37.63 4.59 1.73 8.46 4.76a.44.43 34.5 0 0 .65-.11q2.09-3.47 2.99-8.57 1.46-8.28.94-16.56a.64.64-18.2 0 0-.99-.5" vector-effect="non-scaling-stroke"/><path stroke="#45414a" d="M254.48 171.65q2.29 2.61.26-1.21a.75.69 70.8 0 0-.73-.39q-1.32.19-.19 1.01.41.31.66.59" vector-effect="non-scaling-stroke"/><path stroke="#9a8b73" d="M65.35 256.39q-13.47 24.19-18.65 51.4-.96 5.06-1.21 10.46-.11 2.27 1.25.45 4.56-6.13 9.81-12.9Q70 288.45 79.52 268.66q16.7-34.7 21.73-72.91.14-1.04-.18-1.62-.27-.49-.52.07-3.58 7.98-5.86 11.74-15.15 24.94-29.34 50.45" vector-effect="non-scaling-stroke"/><path stroke="#524c50" d="M85.49 217.28q-4.64 8.1-9.25 16.21-.95 1.67.02.85.17-.14.3-.36 5.18-8.4 9.95-17.05a.71.61-54.4 0 0-.07-.81q-.57-.54-.71.45-.07.41-.24.71" vector-effect="non-scaling-stroke"/><path stroke="#988973" d="M417.46 294.25q12.64 16.97 27.75 31.8 13.24 13 27.42 26.29.66.62.53-.27-2.72-18.51-14.8-31.17-9.32-9.77-21.17-18.59-9.76-7.26-21.44-17.35" vector-effect="non-scaling-stroke"/><path stroke="#938673" d="M415.75 284.96q-9.4-9.27-17.59-19.62-.13-.16-.35-.62-.23-.47-.61-.43a.41.34 66.3 0 0-.17.62l20.43 29.34" vector-effect="non-scaling-stroke"/><path stroke="#f3d6a2" d="M415.75 284.96q-1.27.19-.69 1.23.62 1.1 2.88 2.62 1.44.97.88 3.39a1.19.77-14.6 0 1-.6.66q-.76.4-.76 1.39" vector-effect="non-scaling-stroke"/><path stroke="#3f424b" d="m294.46 334.5-.78.13a.77.52 73.4 0 1-.66-.54q-1.82-5.07-3.44-10.2-2.14-6.74-3.56-10.13-5.06-12.09-12.27-23.05-1.38-2.1-2.96-2.93-1.79-.96-4.09-1.38-1.27-.24-.76.95 1.26 2.98 2.94 5.62 2.84 4.47 3.31 5.37 9.22 17.57 12.43 37.93a.72.68-.3 0 0 .61.57l6.09.77a1.12 1-60.6 0 0 .85-.29q1.57-1.45 3.33-.11" vector-effect="non-scaling-stroke"/><path stroke="#4b687b" d="M295.5 337.21q1.85 1.39 4.02.91a1.65 1.26-68.7 0 0 .81-.49q6.56-7.4 15.26-12.74a.73.73-23.8 0 0 .32-.82q-3.08-10.8-8.2-20.19-1.21-2.21-2.54-3.27-1.48-1.19-3.61-2.17-13.8-6.39-30.63-13.25-.64-.27-1.33-.36-1.68-.23-2.03-.05-.62.3.8.57 3.56.69 5.19 3.09 13.75 20.19 20.9 46.06" vector-effect="non-scaling-stroke"/><path stroke="#527081" d="m295.5 337.21-1.04-2.71" vector-effect="non-scaling-stroke"/><path stroke="#4c5b6a" d="M170.78 319.26q-.22.01-.43-.07-.31-.11-.53-.55-6.5-12.91-8.07-15.39-3.64-5.75-8.31-10.69-1.88-1.98-4.48-2.66-1.38-.35-.58.14 2.25 1.37 3.93 3.34.54.62 3.02 4.11 7.12 9.96 10.51 22.09a.98.91-9.5 0 0 1 .66l6.06-.48a.91.87-12.7 0 0 .79-1.19q-4.02-10.21-10.2-19.25-3.44-5.03-8.17-8.87-1.26-1.02-2.93-1.48-.7-.19-.2.33 7.06 7.45 11.76 16.21 3.28 6.1 3.38 6.28 1.93 3.47 3.67 7.02a.31.28 74.6 0 1-.22.45" vector-effect="non-scaling-stroke"/><path stroke="#5d4953" d="m316.28 308.83-4.22-.95q-.54-.12-.34.41l5.28 14.56a.59.48 69 0 0 .68.39l4.48-1.92a.8.72 65.1 0 0 .33-1.06l-5.53-10.91a1 .97-6.8 0 0-.68-.52" vector-effect="non-scaling-stroke"/><path stroke="#4c5b6a" d="M331.79 317.5q.93-1.8-1.1-2.94-5-2.79-10.1-4.45-.85-.28-.53.56 1.6 4.24 3.38 8.39.59 1.38 1.81 1.65" vector-effect="non-scaling-stroke"/><path stroke="#9b9ba0" d="M325.25 320.71q-1.31.94-7.19 3.85-8.62 4.27-16.41 12.88a.79.67-39.4 0 0-.15.83q.45.87 1.5 1.23a3.07.78 21.1 0 0 2.56.31q12.05-8.17 25.79-12.6 6.27-2.02 13.81-3.9 6.53-1.63 14.09-2.81 22.16-3.46 42-4 1.69-.05 3.79-.75" vector-effect="non-scaling-stroke"/><path stroke="#7e8895" d="M405.04 315.75h3.85q.87 0 .09-.39-2.45-1.22-3.98-.32" vector-effect="non-scaling-stroke"/><path stroke="#9b9ba0" d="M405 315.04q-5.85-3.12-12.51-2.71-4.24.26-8.49.46" vector-effect="non-scaling-stroke"/><path stroke="#524c50" d="M384 312.79q-.58-.47-.75-1.25" vector-effect="non-scaling-stroke"/><path stroke="#9b9ba0" d="m383.25 311.54 13.67-.28a.37.36-9.9 0 0 .34-.48q-.86-2.54-2.7-3.01-.04-.01-3.62-.05-30.44-.31-59.15 9.78" vector-effect="non-scaling-stroke"/><path stroke="#b4adac" d="M383.25 311.54q-19.4.72-38.19 5.52-9.16 2.35-17.81 6.15" vector-effect="non-scaling-stroke"/><path stroke="#a7a3a6" d="M327.25 323.21q-6.74 2.83-12.86 6.84-.24.16-.36.33-.44.6.61.38.27-.06.56-.22 6.33-3.44 12.8-6.58" vector-effect="non-scaling-stroke"/><path stroke="#b4adac" d="M328 323.96q15.89-5.79 27.5-7.96 10.59-1.98 28.5-3.21" vector-effect="non-scaling-stroke"/><path stroke="#e0eaf1" d="m405 315.04.04.71" vector-effect="non-scaling-stroke"/><path stroke="#aebdc6" d="m325.25 320.71 6.54-3.21" vector-effect="non-scaling-stroke"/><path stroke="#5e5455" d="M328 323.96q-.12-.58-.75-.75" vector-effect="non-scaling-stroke"/><path stroke="#9b9ba0" d="M256.44 331.81q8.67 2.89 17.08 7.99a1.01.87 46.7 0 0 .88.09q1.34-.6 1.93-1.93a.67.62 31.3 0 0-.22-.76Q258.8 323.96 238 321.25q-27.11-3.53-56.75-1.25-10.32.79-19.07 2.78-.99.23-1.75.72-3.9 2.52 1.49 2.31.88-.03 2.16-.22 27.03-4.08 54.18-2.02 9.82.74 19.31 2.94 9.83 2.29 18.87 5.3" vector-effect="non-scaling-stroke"/><path stroke="#9b9ba0" d="M150.43 332.45q-1.05 1.13.48.95 34.8-4.11 70.08-1.24 23.95 1.95 46.67 9.73 1.99.68 4.09.61 2.93-.1.44-1.69-6.54-4.15-13.7-6.92-5.39-2.07-14.57-4.54-21.13-5.69-43.17-5.59-18.22.09-36.2 2.87-6.06.94-7.56 1.46-3.74 1.3-6.56 4.36" vector-effect="non-scaling-stroke"/><path stroke="#72686a" d="M157.17 327.14q.32-.02.54-.27a.45.41 30.1 0 0-.21-.67q-.63-.25-.77.36a.47.43-84.5 0 0 .44.58" vector-effect="non-scaling-stroke"/><path stroke="#9b9ba0" d="M276.44 342.81q13.04 3.19 26.07-.06 1.71-.43.45-1.66-2.02-1.97-4.9-1.96-1.89.01-2 0-8-.46-16.02-.39-1.45.01-2.46.52-1.15.58-2.14 1.43-1.71 1.46 1 2.12M28.71 367.5q-4.93 5.04-7.49 11.44-1.29 3.23-1 6.93.72 9.26 4.78 17.67" vector-effect="non-scaling-stroke"/><path stroke="#9b8c74" d="M25 403.54q.49 1.62 1.78 2.61a.35.33-64.4 0 0 .53-.2q5.16-20.53 14.79-39.46a1.5 1.41 48.2 0 0 .03-1.23l-3.95-9.54q-.19-.46-.48-.08l-8.99 11.86" vector-effect="non-scaling-stroke"/><path stroke="#fdedd0" d="M25 403.54q1.66-1.45 1.5-4.04-.83-13.3.76-28.18a1.83 1.5-27.3 0 1 .38-.88q1.02-1.29 1.07-2.94" vector-effect="non-scaling-stroke"/><path stroke="#938673" d="M461.69 437.69q-.81 15.37-6.94 30.79-.19.47.29.27 4.17-1.72 5.9-5.56 6.86-15.24 5.85-31.78-.5-8.24-3.28-19.71-3.15-13.03-8.88-25.26-.63-1.36-.84-.23-.05.27.04.58 5.63 19.4 7.17 33.71 1.07 9.92.69 17.19" vector-effect="non-scaling-stroke"/><path stroke="#fccb90" d="M439.12 95.08q-2.13-1.96-4.88-3.17-1.66-.74-3.03.46-10.4 9.11-17.95 21.21a1.63 1.37-34.6 0 0-.25.91q.13 2.67 2.21 3.7 1.46.72 4.09.05 11.36-2.84 22.32-6.99 2.92-1.1 4.82-2.49 1.72-1.25.81-3.17-1.72-3.6-4.17-6.36-2.33-2.64-3.97-4.15m-18.98 32.23q-1.97 4.77 2.97 6.23 11.83 3.47 24 5.52.03.01 2.27.49 4.97 1.08 5.17-3.73.12-2.96.14-3.15.66-6.26-.44-9.67-1.04-3.23-4.62-2.55-2.18.42-2.3.44-12.68 1.53-25.1 4.61a3.08 3.08 4.1 0 0-2.09 1.81" vector-effect="non-scaling-stroke"/><path stroke="#d5c4ba" d="M240.6 165.58q-4.25-1.48-8.53-2.9-8.33-2.76-17.02-1.68-.62.08-.11.38.62.38 1.81.37 9.52-.07 19.5 4.25 1.71.74 4.44.91a.67.52 5.4 0 0 .69-.44q.1-.59-.78-.89" vector-effect="non-scaling-stroke"/><path stroke="#f9d9cb" d="M276.74 218.31q.22 1.21 1.06.92a.51.39 67.5 0 0 .17-.65l-.84-1.85a.37.29 56.8 0 0-.53-.18q-.3.35-.15.81.27.82.29.95" vector-effect="non-scaling-stroke"/><path stroke="#d5c4ba" d="M269.28 251.68q.34 1.41 1 .26a1.26 1.18-38.8 0 0 .13-.93q-.26-.93-.91-.22a1.02.95 61 0 0-.22.89" vector-effect="non-scaling-stroke"/><path stroke="#a3a4a9" d="M220.5976 177.2275a3.6 3.27-20.7 0 0-4.5235-1.7864 3.6 3.27-20.7 0 0-2.2117 4.3314 3.6 3.27-20.7 0 0 4.5235 1.7864 3.6 3.27-20.7 0 0 2.2117-4.3314" vector-effect="non-scaling-stroke"/><path stroke="#f6c9bc" d="M215.19 214.81q.58 1.91.96 8.18.1 1.57.24 0 .38-4.44-.81-8.71-.09-.31-.28-.5-.61-.6-.11 1.03" vector-effect="non-scaling-stroke"/><path stroke="#f8cabe" d="M320.43 223.63q-.06 3.93-.55 7.81-.07.56.41.33 1.24-.6 1.03-2.28-.35-2.83.32-5.56.12-.49.09-.87-.14-1.96-1.09-.27-.2.37-.21.84" vector-effect="non-scaling-stroke"/><path stroke="#f6c9bc" d="M316.44 224.92q-.77 3.81.67 7.3.27.66.55.13.17-.32.09-.85-.51-3.61-.7-6.54-.15-2.29-.61-.04" vector-effect="non-scaling-stroke"/><path stroke="#517b90" d="M141.46 336.75q-.46-.06-.9-.81-5.92-10.13-15.62-24.13-2.78-4-7.58-6.65-.19-.11-.38-.12-.87-.07.12.6 2.38 1.6 4.17 3.84 7.25 9.11 13.1 19.17 2.67 4.58 5.58 9.01 1.17 1.8 1.41 3.47.26 1.91.13 3.83-.26 4.02-.26 4.09-.14 10.19-.79 21.14a.67.67-84.2 0 1-.77.63q-4.52-.71-8.61-.03-1.11.18-.81 1" vector-effect="non-scaling-stroke"/><path stroke="#b7cdd7" d="M130.25 371.79q-.68.19-1.04.71" vector-effect="non-scaling-stroke"/><path stroke="#5c7f93" d="M129.21 372.5q-.54-.65-1.21-2.75-5.77-18.1-11.56-36.19-.36-1.12-.98-1.7-.42-.39-.32.19.5 3.01 1.37 5.95 5.1 16.98 10.86 34.35a1.76 1.76-26.7 0 1-.66 1.98q-6.84 4.75-12.8 9.61-4.14 3.36-3.86 8.82.2 3.9.34 7.81.05 1.34-.4 2.66-.44 1.31-.84 2.62-.61 1.96-.51 4.02.78 16.16 6.36 31.38-5.78 3.72-8.06 6.19-3.36 3.62-3.63 7.63-.17 2.61-1.86 4.61-2.75 3.25.78 5.4 8.96 5.45 18.89 8.92 2.69.93 3.5 3.67.3 1 1.13 1.54" vector-effect="non-scaling-stroke"/><path stroke="#3d697b" d="M141.96 337.75q.9 3.42.79 8-.34 14.57-1.15 24.45a.65.64 12.4 0 0 .43.66q7.25 2.72 14.57 5.22 3.04 1.04 4.92 3.65 3.34 4.63 7.76 8.21 2.43 1.96 2.28 4.75-.24 4.7-5.31 4.27" vector-effect="non-scaling-stroke"/><path stroke="#4e5558" d="M166.25 396.96q.14-.97 1.25-.92" vector-effect="non-scaling-stroke"/><path stroke="#948785" d="M167.5 396.04q2.49-.36 3-2.29.83-3.17-2.19-5.06-1.91-1.2-8-8.75-1.36-1.69-4.56-2.73" vector-effect="non-scaling-stroke"/><path stroke="#979d9b" d="M155.75 377.21q-8.87-3.68-18.26-5.67-3.66-.78-7.24.25" vector-effect="non-scaling-stroke"/><path stroke="#a3bbc2" d="M404.25 380.54q-.15.3-.5.25" vector-effect="non-scaling-stroke"/><path stroke="#4d6878" d="M403.75 380.79q-3.01.5-5.31 2.9-7.59 7.9-13.23 16.26-3.2 4.73 2 7.99a.64.55-57.1 0 1 .12.85l-3.08 4.42" vector-effect="non-scaling-stroke"/><path stroke="#5a727e" d="M384.25 413.21q-4.81 6.97 3.2 8.78a.85.84 21 0 1 .56 1.24q-3.96 7.07 3.92 7.56.48.03.93.28 1.72.95 3.65.55a1.44.5-18.4 0 1 .96.01l3.28 1.58" vector-effect="non-scaling-stroke"/><path stroke="#a0a5ab" d="M400.75 433.21q-3.09.29-5.89-.59a1.05 1.02-71.8 0 0-1.29.68l-8.78 26.2" vector-effect="non-scaling-stroke"/><path stroke="#46728e" d="M384.79 459.5q-.81-2.71-2.6-4.19-8.14-6.7-19.18-8.17-28.28-3.77-54.14 7.9-12.78 5.78-20.06 16.27-2.29 3.31-3.63 4.66a1.28 1.13 70.7 0 0-.34.84q0 1.14-.84 1.67-.45.28-.36-.29.62-3.76 3.36-17.44 8.67-43.32 19.46-106.26.16-.92-.09-.95a.76.33-76.1 0 0-.48.63q-.83 3.1-1.62 6.21-.74 2.95-1.32 6.29-9.22 52.75-19.66 105.28a.49.49 55.4 0 1-.58.38q-3.79-.86-5.96-.58-8.96 1.17-14.5.5-3.62-.44-7.14-3.66a1.49.54-.5 0 0-.86-.3q-.32-.04-.54-.29" vector-effect="non-scaling-stroke"/><path stroke="#a2a19e" d="M129.21 372.5q.16.78-.45 1.26-6.79 5.35-13.78 10.45-2.69 1.96-3.23 4.54-.92 4.38-.45 10.02.2 2.47-.15 3.92-.38 1.59-1.15 3.81-.98 2.84-.31 6.19 1.05 5.32 1.1 5.72 1.31 11.57 5.17 22.59" vector-effect="non-scaling-stroke"/><path stroke="#9f8b87" d="m115.96 441 1.79 8.77q.64 3.1-.76 5.77-2.6 4.98-3.88 12.27a1.15 1.14 12.8 0 0 .82 1.3q11.6 3.15 22.89 2.72a.56.54-88.2 0 0 .53-.52l3.32-38.83a.2.16-85.2 0 0-.14-.22l-.16-.02a.54.31-71.9 0 0-.41.37q-.44 1.15-1.61 1.25-1.46.11-1.55.13-2.92.55-5.55-.78" vector-effect="non-scaling-stroke"/><path stroke="#a2a19e" d="M131.25 433.21q4.51-2.58 9.75-2.92" vector-effect="non-scaling-stroke"/><path stroke="#9f8b87" d="M141 430.29q5.26-.67 9.32.01 2.48.42 4.93-.16 5.63-1.34 5.29-6.89" vector-effect="non-scaling-stroke"/><path stroke="#476d7d" d="M160.54 423.25q1.58 3-.48 5.56-2.49 3.11-6.81 2.98-4.54-.13-9.96-.55a1.44 1.43 3.9 0 0-1.55 1.34q-1.46 23.71-4.24 47.38" vector-effect="non-scaling-stroke"/><path stroke="#527585" d="m115 441.25-.01.94a1.07.82-21.1 0 1-.48.78q-4.71 3.14-8.19 7.6-1.5 1.92-1.66 4.9-.01.25.17.07l10.3-10.2a1.14.84-31.5 0 0 .34-.84l-.47-3.25" vector-effect="non-scaling-stroke"/><path stroke="#536874" d="m103.28 464.16 3.72 2.64a.55.51-57.8 0 0 .76-.2q4.85-8.52 7.34-17.35 1.08-3.82-1.33-1.24-3.16 3.38-6.46 6.61-1.84 1.79-2.72 3.12-1.12 1.7-2 3.66-.77 1.72.69 2.76" vector-effect="non-scaling-stroke"/><path stroke="#46728e" d="M252.21 466.5q-4.81-3.31-7.52-4.44-25.67-10.69-53.23-6.06-6.66 1.12-15.52 4.44-14.05 5.25-22.49 16.31-.2.27-.81 1.48-.4.8-1.15 1.32a.37.31-46.1 0 0-.04.58l1.05.58" vector-effect="non-scaling-stroke"/><path stroke="#a0a5ab" d="M160.54 423.25q.13-1.07-.58-1.75" vector-effect="non-scaling-stroke"/><path stroke="#5a727e" d="M159.96 421.5q.6-.67 1.4-.76 1.2-.14 1.27-.16 7.26-2.11 5.43-9.53a1.41.42 34.8 0 0-.57-.72l-.88-.74a.64.49-50.3 0 1 .03-.79q4.73-5.91-1.02-10.85-.41-.36-.47-.63-.16-.6 1.1-.36" vector-effect="non-scaling-stroke"/><path stroke="#9e9198" d="m384.79 459.5-3 11.75" vector-effect="non-scaling-stroke"/><path stroke="#fad9cc" d="M155.75 377.21q-.36 5.63-3.92 9.91a1.08.84 63.6 0 0-.17.85q.15.68-.41 1.07" vector-effect="non-scaling-stroke"/><path stroke="#b4a79f" d="m151.25 389.04-16.5-3.46a1.03.9-58.5 0 0-.86.27q-3.03 2.86-7.18 3.42-.45.06-.72.27-1 .81 1.08.71 10.43-.46 20.68 1.54" vector-effect="non-scaling-stroke"/><path stroke="#fbdacc" d="M147.75 391.79q-.17 1.02-1.2 1.22a.59.55-6.8 0 0-.47.56q.11 3.74-.27 6.49-.29 2.07.4 3.69" vector-effect="non-scaling-stroke"/><path stroke="#b4a79f" d="M146.21 403.75q-9.46-.6-18.91-.02-.34.02-.55.16-.5.35-.04.69.23.17.63.18 8.95.18 17.91.28" vector-effect="non-scaling-stroke"/><path stroke="#fbdacc" d="M145.25 405.04q.81.36.25.96-.47 6.19-2.75 11.96" vector-effect="non-scaling-stroke"/><path stroke="#bfa4a2" d="M142.75 417.96q-11.57-.08-15.25.79-1.98.47-.69 1.26a1.78 1.12-20.2 0 0 .94.2l13.75-.75" vector-effect="non-scaling-stroke"/><path stroke="#fad9cc" d="M141.5 419.46q.8.52.38 1.22a1.43.88-43.8 0 0-.23.88q.64 4.24-1.49 7.92-.05.08-.38.48-.46.54 1.22.33m-9.75 2.92q-.94.26-1.19.85-2.69 6.41-8.56 7.94-2.32.6-5.54-1m315.33-12.5q-.76-1.03-1.03.05-.11.45-.28.72-2.47 3.84-5.68 7.06a.98.92-60.9 0 1-.86.27q-2.97-.57-5.31-2.52a1.61 1.21-83 0 1-.47-.82q-.45-2.04-2.47-3.45-4.55-3.16-7.5-4.82a1.86 1.24-23 0 0-.95-.18q-1.52.09-2.74-.85" vector-effect="non-scaling-stroke"/><path stroke="#b4a79f" d="M404 423.96q9.99-.6 19.72-2.83 1.25-.29.48-.7-.23-.12-.53-.09-11.39 1.24-22.63 3.41" vector-effect="non-scaling-stroke"/><path stroke="#fad9cc" d="M401.04 423.75q-.56-.77-.1-1.35.48-.61.55-.81 1.22-3.54-.74-6.8" vector-effect="non-scaling-stroke"/><path stroke="#b4a79f" d="M400.75 414.79q8.95-3.32 18.24-5.58 2.55-.62 4.81-1.91.9-.51.21-.74-.22-.07-.52-.01-10.26 1.97-19.99 5.74" vector-effect="non-scaling-stroke"/><path stroke="#fad9cc" d="M403.5 412.29q-1.1-.24-1.75-1.79-.62-1.49-1.11-3.03a1.61.9-56.5 0 1 .07-.92l2.25-6.55" vector-effect="non-scaling-stroke"/><path stroke="#a79c99" d="M402.96 400q9.27-4.29 19.15-6.55.8-.18.1-.61-1.92-1.19-2.24-2.18a1.47 1.46 74.3 0 0-1.72-.97q-7.32 1.7-13.25 5.85" vector-effect="non-scaling-stroke"/><path stroke="#f8d8ca" d="M405 395.54q-.16-3.25-1.56-5.73-2.32-4.08.55-7.56.73-.89-.24-1.29" vector-effect="non-scaling-stroke"/><path stroke="#a79c99" d="M403.75 380.96v-.17" vector-effect="non-scaling-stroke"/><path stroke="#b19188" d="M167.5 396.04q-5.05.22-9.36-2.02-.87-.45-3.2-2.69-1.57-1.51-3.69-2.29" vector-effect="non-scaling-stroke"/><path stroke="#a28581" d="M403.75 380.96q-4.93 2.58-9.31 8.23-5.05 6.51-7.22 9.43-1.68 2.25-1.86 4.31-.37 4.18 3.53 4.16 2.33-.01 5.19-1.9 6.1-4.05 10.92-9.65" vector-effect="non-scaling-stroke"/><path stroke="#a48682" d="M402.96 400q-2.62.83-5.02 2.94-4.1 3.59-9.63 6.37-1.62.82-3.56 3.73" vector-effect="non-scaling-stroke"/><path stroke="#5e5455" d="m384.75 413.04-.5.17" vector-effect="non-scaling-stroke"/><path stroke="#b19188" d="M159.96 421.5q-8.45-2.27-17.21-2.29" vector-effect="non-scaling-stroke"/><path stroke="#765b5f" d="M142.75 419.21q-.56-1.18 1-1" vector-effect="non-scaling-stroke"/><path stroke="#b29188" d="M143.75 418.21q6.32.02 12.51 1.25 4.09.81 7.24-.21 5.05-1.64 4.27-6.95a1.52 1.47-72.2 0 0-.42-.85q-1.59-1.61-3.8-2.16-.42-.1.01-.17 3.62-.59 4.44-3.62 1.19-4.4-3.16-6.75-3.94-2.12-7.91-4.17-4.33-2.22-9.18-2.79" vector-effect="non-scaling-stroke"/><path stroke="#bd8e8c" d="M143.75 418.21q-.43-.34-1-.25" vector-effect="non-scaling-stroke"/><path stroke="#b29188" d="M145.25 405.04q10.87.85.96-1.29" vector-effect="non-scaling-stroke"/><path stroke="#b19188" d="M403.5 412.29q-6.61 3.55-12.37 8.39a1.61 1.51-65.9 0 1-.88.37q-9.44.79-5.5-8.01" vector-effect="non-scaling-stroke"/><path stroke="#b19188" d="M400.75 414.79q-7.11 3.25-11.96 9.25-1.27 1.58-1.34 2.83-.11 2.25 2.86 2.57 7.09.76 8.94 1.06.54.09 2.18 1.38a1.39 1.35 63.1 0 0 .88.3q5.47-.06 10.94-.18.49-.01.73.25.38.41-.29.54-6.43 1.25-12.94.42" vector-effect="non-scaling-stroke"/><path stroke="#b19188" d="M401.04 423.75q-.48.84.96.52 1-.23 2-.31" vector-effect="non-scaling-stroke"/><path stroke="#bc8e8c" d="M142.75 419.21q-.69-.09-1.25.25" vector-effect="non-scaling-stroke"/><path stroke="#5e8aa0" d="M414.96 463q-1.71-.07-2.67 1.25" vector-effect="non-scaling-stroke"/></g><path fill="#fffeff" d="M0 0h512v342.81q-13.47-14.25-30-24.85 1.53-14.07 2.5-39.21 3.66-95.22 1.11-179-.94-31.19-3.11-56.5-.71-8.33-7.24-12.32-2.62-1.6-7.28-2.66-3.82-.87-7.73-1.26-39.18-3.9-78.49-5.96-35.59-1.88-71.21-3.22a1.15.64-58.2 0 0-.74.41q-.31.33-.81.3-17.87-8.25-34.81-11.23-21.36-3.75-45.94-2.47-28.46 1.49-53.75 14.45-.58-.01-.99-.35a1.46.81 53.6 0 0-.83-.38q-19.73.1-39.43 1.12-39.07 2.04-78 5.83-4.43.43-8.84.97-4.56.57-8.77 2.2-4.8 1.87-7.43 4.85-3.47 3.94-3.96 9.47-3.44 38.95-4.33 81.5-.17 8.27-.17 19.99v42.76q0 10.94.22 20Q23.55 272.72 29 338q.12 1.38 1.29 2.75-11.73 17.6-17.79 37.87-3.31 11.09-3.25 21.13.11 18.88 12.67 33.38a1.3 1.28 24.5 0 1 .33.86q.12 8.23 2.5 18.51 2.14 9.23 8.69 14.43 4.06 3.22 11.37 5.13 5.82 1.53 12.44 2.19 22.35 2.24 37 3.04 6.39.78 12.82.93 5.61.13 9.35.42 4.66.35 9.33.57l11.75.75 15 .75q44.95 1.17 54.25 1.29 86.7 1.16 173.25-4.21l23-1.08q4.89.31 9.75-.42 8.34-.49 16.67-1.18.1-.01 13.67-1.02 10.6-.78 17.41-2.34 8.3-1.9 14.19-9.31 4.23-5.33 6.05-9.54a.72.44-66.1 0 1 .69-.48q.38.18.27 1.1-.75 6.28-2.96 12.2-.17.47.22.16 6.69-5.34 9.23-9.69 14.77-25.35 7.79-54.19-.96-3.98-1.71-7.89-.12-.63.32-.17 10.61 11.28 12.22 26.25.13 1.19.38 0 2.86-13.93-3.14-26.75-7.19-15.36-19.37-27.15a1.13 1.12 23.3 0 1-.34-.85q.72-16.73-5.5-32.18-.87-2.16.89-.64 12.89 11.11 22.96 24.69 5.8 7.83 8.47 14.95.09.23.09.49.07 2.93.75-.44V512H0V0Z"/><path fill="#383944" d="M309 18.54q21.65 10.32 37.86 27.49 6.4 6.78 12.25 15.76 13.61 20.85 21.45 44.69 3.95 12.01 8.7 23.73 10.87 26.86 16.51 55.29 3.98 20.1 2.98 41.25-.65 13.7-5.32 26.03a.87.84-54.6 0 0 .13.85q16.48 20.46 35.64 38.44 1.96 1.84 4.33 3.12Q463 305.67 482 317.96q16.53 10.6 30 24.85v29.5q-.68 3.37-.75.44 0-.26-.09-.49-2.67-7.12-8.47-14.95-10.07-13.58-22.96-24.69-1.76-1.52-.89.64 6.22 15.45 5.5 32.18a1.13 1.12 23.3 0 0 .34.85q12.18 11.79 19.37 27.15 6 12.82 3.14 26.75-.25 1.19-.38 0-1.61-14.97-12.22-26.25-.44-.46-.32.17.75 3.91 1.71 7.89 6.98 28.84-7.79 54.19-2.54 4.35-9.23 9.69-.39.31-.22-.16 2.21-5.92 2.96-12.2.11-.92-.27-1.1a.72.44-66.1 0 0-.69.48q-1.82 4.21-6.05 9.54-5.89 7.41-14.19 9.31-6.81 1.56-17.41 2.34-13.57 1.01-13.67 1.02-8.33.69-16.67 1.18-.82-.13-.48-.99 2.3-5.95 2.69-12.3.35-4.59-.83-9.03a.4.39-22.1 0 0-.58-.24q-1.71.96-2.79 2.59a.92.87 49.3 0 0-.04.87q1.58 3.32 1.57 7.06-2.59 5.07-6.85 8.19-2.3 1.68-2.44 4.27l-23 1.08q-.63.05-.15-1.29.27-.76.34-1.57.21-2.52 1.6-3.68 9.66 1.28 19.39 1.43a.64.62 7.4 0 0 .63-.47q3.13-11.9 12.19-20.21 1.74-1.6 7.24-8.6.05-.07 3.83-4.53 3.93-4.64 6.22-10.37 3.44-6.93 4.46-11.25 1.27-5.4-.26-9.45-.66-1.74.08-3.45 1.55-3.52 1.14-6.75-.25-2.02-2.56-6.02-3.87-6.72-7.55-13.55-1.26-2.35-2.28-3.09-1.78-1.3-4.07-.69-6.74 1.81-16 6.29-1.26-.06 2.34-1.77a1.7 1.69-4.7 0 0 .93-1.09l14.62-52.44a1.88 1.87-68 0 0-.91-2.15q-3.78-2.08-7.7-3.77-.53-.23-1.01-.75-.44-.47-.96-.84-.7-.49-1.75-.44-17.31.82-34.56 2.51-15.26 1.49-30.19 5.03Q335.9 327 320.5 333q-9.54 3.72-15.71 9.28-1.74 1.57-3.58 2.05-12.07 3.18-24.19-.12-.1-.03-1.86-.66-3.09-1.1-3.2 2.14-.06 2-.07 2.12-1.06 10.1-1.39 12.19-4.73 29.51-9.29 59.05-.71 4.58-3.19 19.74-2.39 14.57-4.31 29.21l-1.9 11.25a1.06.74 88.8 0 1-.49.74q-.81.36-.66-.72.87-6.38 1.55-12.77 7.45-46.59 14.97-93.17 2.28-14.07 3.69-28.9a.47.46 12.4 0 0-.32-.49q-26.43-8.96-54.3-10.94-30.13-2.14-63.72 1.52-.08.01-4.07.05-3.89.04-6.5 3.18-.59-.29-.5-1 2.16-1.93 4.74-3.16 3.58-1.7 4.89-2.69 4.81-3.6 6.6-5.96 2.27-3.01 6.01-3.76a1.23 1.23-13.5 0 0 .95-1.54q-3.25-11.51-10.59-21.45-2.72-3.69-5.96-5.54-2.08-1.18-5.06-.89-14.53 1.42-27.48 9.55-2.68 1.68-4.04 3.76a.29.27 19.1 0 0 .23.43l1.51.15q.54.05.1.41-6.39 5.14-8.88 12.44-.4 1.18-2.97 14.51-8.46 43.85-3.26 87.24 1.56 13.01 2.1 21.48.31 4.89.28 5.54-.15 3.11-1.69 5.42-4.81 7.19-4.79 14.81.01 4.17.38 8.32.02.22.22.7.25.63-.5.77-14.65-.8-37-3.04-6.62-.66-12.44-2.19-7.31-1.91-11.37-5.13-6.55-5.2-8.69-14.43-2.38-10.28-2.5-18.51a1.3 1.28 24.5 0 0-.33-.86q-12.56-14.5-12.67-33.38-.06-10.04 3.25-21.13 6.06-20.27 17.79-37.87 1.15-1.21.96-3.75-1.21-16.27 4.5-33.25 6.23-18.52 19.47-39.74 9.2-14.76 18.72-29.32 13.27-20.31 23.31-48.19 1.9-5.28 6.41-21.55 1.04-3.76 1.21-8.06 1.02-27.41 8.94-56.58 11.91-43.86 46.13-71.62 6.05-4.91 14.56-9.4 25.29-12.96 53.75-14.45 24.58-1.28 45.94 2.47 16.94 2.98 34.81 11.23Zm36.69 46.13q-1.56 3.09-.5 6.35 3.84 11.85 8.68 23.32 2.76 6.52 5.57 8.97 4.92 4.3 7.09.03.99-1.95 1.17-5.45.19-3.56-.45-6.64-2.8-13.42-12.25-23.99-2.53-2.84-5.59-4.01-2.5-.97-3.72 1.42ZM133.8 101.33q3.04.12 5-2.74 8.67-12.62 12.08-27.56 1.42-6.22-3.12-5.67-1.88.22-3.46 1.77-1.34 1.3-2.61 3.06-7.4 10.21-9.68 22.21-.7 3.67-.01 7.37a1.92 1.92-4 0 0 1.8 1.56Zm49.55-29.48q-3.34-.64-5.72 2.32-7.16 8.89-7.97 20.32-.33 4.57 2.87 5.06 2.08.31 4.26-1.66 4.39-3.97 6.93-9.3 1.83-3.85 2.46-6.64.79-3.52.07-7.21-.48-2.42-2.9-2.89Zm150.16 7.51q-.45 3.47 1.43 7.2 3.11 6.19 4.76 9.03.87 1.5 1.8 2.16 1.9 1.35 3.16-.33.82-1.09.9-3.17.35-8.98-5.75-16.31-2.13-2.56-4.28-1.65-1.72.73-2.02 3.07ZM215.67 96.31q1.13.36 2.21.18.97-.16 1.85-1.06 4.86-4.93 3.46-12.12-.62-3.15-2.88-1.5-6.11 4.46-6.48 11.83-.1 2.04 1.84 2.67Zm53.0836 1.6771a6.62 3.62 91.7 0 0 3.8148-6.5097 6.62 3.62 91.7 0 0-3.422-6.7245 6.62 3.62 91.7 0 0-3.8148 6.5097 6.62 3.62 91.7 0 0 3.422 6.7245Zm18.357.5367a6.93 3.67 82.7 0 0 2.7597-7.3401 6.93 3.67 82.7 0 0-4.5209-6.4075 6.93 3.67 82.7 0 0-2.7597 7.3401 6.93 3.67 82.7 0 0 4.5209 6.4075ZM216.75 140.54l17.75.42 3.74.55a.4.36 86.9 0 0 .4-.49q-3.17-13.87-3.36-27.77-.14-10.25.22-20.52.08-2.18-.62-.11-8.42 24.81-24.74 45.53-1.21 1.54-2.6 2.7-.58.49.17.43l9.04-.74Zm90.54-15.56-1.08 19.83a.6.57-83.4 0 0 .47.62l4.75.81a.37.36 89.2 0 0 .41-.44l-4.26-20.84q-.23-1.12-.29.02Zm-120 43.27q-.66 2.48-.04 4.96l-.21 2.04q1.22 24.86 14.5 45.75l3.92 5.5q4.76 6.6 11.19 11.75.65.53-.18.4-2.96-.45-5.62-2.27-8.73-5.99-14.72-14.44-1.06-1.5-.63.29l6.5 27.56q1.5 5.2 6.9 7.74a2.09 2.08-80.5 0 1 1.19 1.68q.96 9.35-.74 17.77a2.12 2.1 36.2 0 0 .23 1.44q8.37 15 14.53 30.25 1.78 4.41 2.96 9.03a1.77 1.76-5 0 0 1.59 1.33q14.58.96 28.65 6.16 3.09 1.14 5.69-1.73.17 1.72-.33 2.14a1.29 1.29-52.3 0 0 .27 2.16q7.42 3.5 13.75 8.05 2.85 2.06 5.85.89a.74.7 79 0 0 .45-.71q-.1-3.03-.99-6.99-3-13.35-8.2-25.14-1.45-3.3-4.71-8.84-2.55-4.33-4.87-8.78-1.85-3.54-2.17-.02-.06.62.01 1.56.38 5.08.04 10.16a.72.68 14 0 0 .43.68q1.99.84 3.04 2.6 1.66 2.78 1.7 2.84 3.62 5.03 3.72 11.44.08 5.33-.05 6.69-.23 2.29-1.55.88a.97.85-61.1 0 1-.19-.87q.62-2.38.77-4.83.1-1.83-.94-4-1.37-2.83-2.24-5.87-.86-3.96-3.63-6.84a.56.54-22 0 0-.39-.16h-.23q-2.4-1.11-2.54-4-.42-8.87 2.14-16.79.27-.81-.09-.94a.95.23-46.6 0 0-.72.47q-.34.34-1.08.26-11.09-1.16-19.96-6.75 7.8 2.67 15.83 4.48 2.61.59 4.82.39 2.43-.22 4.82-.81 16.78-4.17 32.57-11.2 10.97-4.88 18.36-11.67 7.02-6.46 9.85-16.69l4-15q3.99-16.29 11-31.5 3.3-7.42 6.06-15.06.1-.28.09-.53-.01-1.2-.82.4-3.22 6.43-10.08 9.93a.37.37 53.8 0 0-.09.59q1.85 1.8 3.55 3.32.18.15.41.24 1.39.54-.41.65-4.69-.95-4.36 3.4a1.83 1.09 69.5 0 1-.17.94q-.61 1.11-1.91 2.09a1.3 1.3 66.3 0 0-.49 1.26q.15.85.08 1.21-.19.97-.47-.24-.5-2.2.77-4.05a.84.76-43.2 0 0 .07-.83q-1.41-2.72-2.92-5.37-4.88-8.6-14.85-9.24-4.07-.49-9 .04-4.03.43-6.46 3.25l-.04.21-4.73 1.56q-.44.14-.14-.21 2.51-2.91 5.94-4.73.49-.26.54-.6a.54.38-1.3 0 0-.61-.41q-3.97.47-6.94-1.88-8.91-7.07-14.16-17.68-.36-.74-.61-.21-.11.24-.04.7 1.59 10.96 8.38 20.08.53.7-.28.36-1.31-.57-2.86-.89-11.29-2.32-19.53-10.3-8.49-9.04-13.15-20.57-.66-1.64-.54.12.53 7.56 2.44 15.2 1.59 7.16 5.47 13.64.38.63-.26.26-3.7-2.16-6.2-5.11-4.97-5.86-8.76-12.54-3-7.14-4.9-15.24a1.69 1.41 85.1 0 0-1.26-1.27l-4.01-.49q-7.5-.8-15.04-.46-6.56-.51-12.95.91a1.63 1.57-74.3 0 0-.82.48q-7.68 8.31-16.82 15.03a2.6 2.13-20.2 0 0-1.05 1.79l-.32 7.75Zm198.9 2.19q-.44 18.47-6.29 37.33a1.5 1.45 44.1 0 0 .03.96q6.33 17.22 14.89 33.47.85 1.61 1.74.02 3.92-6.98 5.02-14.91.56-4.04.69-11.14.1-5.59-.46-11.18-2.62-25.67-11.37-49.93-1.91-5.28-4.18-8.9-.26-.42-.25.1.37 15.93.18 24.18Zm-84.48-1.19-.42 1.5-1.15 3.7a.34.3 1.2 0 0 .41.38q4.91-1.1 12.2-1.83.97-.1 1.29-1.25.18-9.3-1.11-18.52-.01-.07-.11-2.48-.14-3.29-4.07-3.21-1.28-.38-2.52-.15a.68.64 87.4 0 0-.52.61q-.96 10.83-4 21.25Zm35.96-19.16q-1.32 1.98-.08 3.11a.39.39 31.3 0 0 .62-.15q.58-1.48-.25-2.95a.17.17 46.6 0 0-.29-.01Zm-.47 4.85q-1.47.96-1.73 1.8-3.68 12.24-15.75 18.31-.59.3.06.24 3.01-.26 5.37.63 4.59 1.73 8.46 4.76a.44.43 34.5 0 0 .65-.11q2.09-3.47 2.99-8.57 1.46-8.28.94-16.56a.64.64-18.2 0 0-.99-.5Zm-82.72 16.71q2.29 2.61.26-1.21a.75.69 70.8 0 0-.73-.39q-1.32.19-.19 1.01.41.31.66.59ZM65.35 256.39q-13.47 24.19-18.65 51.4-.96 5.06-1.21 10.46-.11 2.27 1.25.45 4.56-6.13 9.81-12.9Q70 288.45 79.52 268.66q16.7-34.7 21.73-72.91.14-1.04-.18-1.62-.27-.49-.52.07-3.58 7.98-5.86 11.74-15.15 24.94-29.34 50.45Zm20.14-39.11q-4.64 8.1-9.25 16.21-.95 1.67.02.85.17-.14.3-.36 5.18-8.4 9.95-17.05a.71.61-54.4 0 0-.07-.81q-.57-.54-.71.45-.07.41-.24.71Zm331.97 76.97q12.64 16.97 27.75 31.8 13.24 13 27.42 26.29.66.62.53-.27-2.72-18.51-14.8-31.17-9.32-9.77-21.17-18.59-9.76-7.26-21.44-17.35-9.4-9.27-17.59-19.62-.13-.16-.35-.62-.23-.47-.61-.43a.41.34 66.3 0 0-.17.62l20.43 29.34Zm-123 40.25-.78.13a.77.52 73.4 0 1-.66-.54q-1.82-5.07-3.44-10.2-2.14-6.74-3.56-10.13-5.06-12.09-12.27-23.05-1.38-2.1-2.96-2.93-1.79-.96-4.09-1.38-1.27-.24-.76.95 1.26 2.98 2.94 5.62 2.84 4.47 3.31 5.37 9.22 17.57 12.43 37.93a.72.68-.3 0 0 .61.57l6.09.77a1.12 1-60.6 0 0 .85-.29q1.57-1.45 3.33-.11 1.85 1.39 4.02.91a1.65 1.26-68.7 0 0 .81-.49q6.56-7.4 15.26-12.74a.73.73-23.8 0 0 .32-.82q-3.08-10.8-8.2-20.19-1.21-2.21-2.54-3.27-1.48-1.19-3.61-2.17-13.8-6.39-30.63-13.25-.64-.27-1.33-.36-1.68-.23-2.03-.05-.62.3.8.57 3.56.69 5.19 3.09 13.75 20.19 20.9 46.06Zm-123.68-15.24q-.22.01-.43-.07-.31-.11-.53-.55-6.5-12.91-8.07-15.39-3.64-5.75-8.31-10.69-1.88-1.98-4.48-2.66-1.38-.35-.58.14 2.25 1.37 3.93 3.34.54.62 3.02 4.11 7.12 9.96 10.51 22.09a.98.91-9.5 0 0 1 .66l6.06-.48a.91.87-12.7 0 0 .79-1.19q-4.02-10.21-10.2-19.25-3.44-5.03-8.17-8.87-1.26-1.02-2.93-1.48-.7-.19-.2.33 7.06 7.45 11.76 16.21 3.28 6.1 3.38 6.28 1.93 3.47 3.67 7.02a.31.28 74.6 0 1-.22.45Zm145.5-10.43-4.22-.95q-.54-.12-.34.41l5.28 14.56a.59.48 69 0 0 .68.39l4.48-1.92a.8.72 65.1 0 0 .33-1.06l-5.53-10.91a1 .97-6.8 0 0-.68-.52Zm15.51 8.67q.93-1.8-1.1-2.94-5-2.79-10.1-4.45-.85-.28-.53.56 1.6 4.24 3.38 8.39.59 1.38 1.81 1.65-1.31.94-7.19 3.85-8.62 4.27-16.41 12.88a.79.67-39.4 0 0-.15.83q.45.87 1.5 1.23a3.07.78 21.1 0 0 2.56.31q12.05-8.17 25.79-12.6 6.27-2.02 13.81-3.9 6.53-1.63 14.09-2.81 22.16-3.46 42-4 1.69-.05 3.79-.75h3.85q.87 0 .09-.39-2.45-1.22-3.98-.32-5.85-3.12-12.51-2.71-4.24.26-8.49.46-.58-.47-.75-1.25l13.67-.28a.37.36-9.9 0 0 .34-.48q-.86-2.54-2.7-3.01-.04-.01-3.62-.05-30.44-.31-59.15 9.78Zm-75.35 14.31q8.67 2.89 17.08 7.99a1.01.87 46.7 0 0 .88.09q1.34-.6 1.93-1.93a.67.62 31.3 0 0-.22-.76Q258.8 323.96 238 321.25q-27.11-3.53-56.75-1.25-10.32.79-19.07 2.78-.99.23-1.75.72-3.9 2.52 1.49 2.31.88-.03 2.16-.22 27.03-4.08 54.18-2.02 9.82.74 19.31 2.94 9.83 2.29 18.87 5.3Zm-106.01.64q-1.05 1.13.48.95 34.8-4.11 70.08-1.24 23.95 1.95 46.67 9.73 1.99.68 4.09.61 2.93-.1.44-1.69-6.54-4.15-13.7-6.92-5.39-2.07-14.57-4.54-21.13-5.69-43.17-5.59-18.22.09-36.2 2.87-6.06.94-7.56 1.46-3.74 1.3-6.56 4.36Zm6.74-5.31q.32-.02.54-.27a.45.41 30.1 0 0-.21-.67q-.63-.25-.77.36a.47.43-84.5 0 0 .44.58Zm119.27 15.67q13.04 3.19 26.07-.06 1.71-.43.45-1.66-2.02-1.97-4.9-1.96-1.89.01-2 0-8-.46-16.02-.39-1.45.01-2.46.52-1.15.58-2.14 1.43-1.71 1.46 1 2.12ZM28.71 367.5q-4.93 5.04-7.49 11.44-1.29 3.23-1 6.93.72 9.26 4.78 17.67.49 1.62 1.78 2.61a.35.33-64.4 0 0 .53-.2q5.16-20.53 14.79-39.46a1.5 1.41 48.2 0 0 .03-1.23l-3.95-9.54q-.19-.46-.48-.08l-8.99 11.86Zm432.98 70.19q-.81 15.37-6.94 30.79-.19.47.29.27 4.17-1.72 5.9-5.56 6.86-15.24 5.85-31.78-.5-8.24-3.28-19.71-3.15-13.03-8.88-25.26-.63-1.36-.84-.23-.05.27.04.58 5.63 19.4 7.17 33.71 1.07 9.92.69 17.19Z"/><path fill="#fddea3" d="M482 317.96q-19-12.29-38.47-22.77-2.37-1.28-4.33-3.12-19.16-17.98-35.64-38.44a.87.84-54.6 0 1-.13-.85q4.67-12.33 5.32-26.03 1-21.15-2.98-41.25-5.64-28.43-16.51-55.29-4.75-11.72-8.7-23.73-7.84-23.84-21.45-44.69-5.85-8.98-12.25-15.76Q330.65 28.86 309 18.54q.5.03.81-.3a1.15.64-58.2 0 1 .74-.41q35.62 1.34 71.21 3.22 39.31 2.06 78.49 5.96 3.91.39 7.73 1.26 4.66 1.06 7.28 2.66 6.53 3.99 7.24 12.32 2.17 25.31 3.11 56.5 2.55 83.78-1.11 179-.97 25.14-2.5 39.21ZM439.12 95.08q-2.13-1.96-4.88-3.17-1.66-.74-3.03.46-10.4 9.11-17.95 21.21a1.63 1.37-34.6 0 0-.25.91q.13 2.67 2.21 3.7 1.46.72 4.09.05 11.36-2.84 22.32-6.99 2.92-1.1 4.82-2.49 1.72-1.25.81-3.17-1.72-3.6-4.17-6.36-2.33-2.64-3.97-4.15Zm-18.98 32.23q-1.97 4.77 2.97 6.23 11.83 3.47 24 5.52.03.01 2.27.49 4.97 1.08 5.17-3.73.12-2.96.14-3.15.66-6.26-.44-9.67-1.04-3.23-4.62-2.55-2.18.42-2.3.44-12.68 1.53-25.1 4.61a3.08 3.08 4.1 0 0-2.09 1.81ZM174.5 19.29q-8.51 4.49-14.56 9.4-34.22 27.76-46.13 71.62-7.92 29.17-8.94 56.58-.17 4.3-1.21 8.06-4.51 16.27-6.41 21.55-10.04 27.88-23.31 48.19-9.52 14.56-18.72 29.32-13.24 21.22-19.47 39.74-5.71 16.98-4.5 33.25.19 2.54-.96 3.75-1.17-1.37-1.29-2.75-5.45-65.28-7.03-130.75-.22-9.06-.22-20v-42.76q0-11.72.17-19.99.89-42.55 4.33-81.5.49-5.53 3.96-9.47 2.63-2.98 7.43-4.85 4.21-1.63 8.77-2.2 4.41-.54 8.84-.97 38.93-3.79 78-5.83 19.7-1.02 39.43-1.12a1.46.81 53.6 0 1 .83.38q.41.34.99.35Z"/><path fill="#ab968f" d="M345.69 64.67q1.22-2.39 3.72-1.42 3.06 1.17 5.59 4.01 9.45 10.57 12.25 23.99.64 3.08.45 6.64-.18 3.5-1.17 5.45-2.17 4.27-7.09-.03-2.81-2.45-5.57-8.97-4.84-11.47-8.68-23.32-1.06-3.26.5-6.35ZM133.8 101.33a1.92 1.92-4 0 1-1.8-1.56q-.69-3.7.01-7.37 2.28-12 9.68-22.21 1.27-1.76 2.61-3.06 1.58-1.55 3.46-1.77 4.54-.55 3.12 5.67-3.41 14.94-12.08 27.56-1.96 2.86-5 2.74Zm49.55-29.48q2.42.47 2.9 2.89.72 3.69-.07 7.21-.63 2.79-2.46 6.64-2.54 5.33-6.93 9.3-2.18 1.97-4.26 1.66-3.2-.49-2.87-5.06.81-11.43 7.97-20.32 2.38-2.96 5.72-2.32Zm152.18 4.44q2.15-.91 4.28 1.65 6.1 7.33 5.75 16.31-.08 2.08-.9 3.17-1.26 1.68-3.16.33-.93-.66-1.8-2.16-1.65-2.84-4.76-9.03-1.88-3.73-1.43-7.2.3-2.34 2.02-3.07ZM215.67 96.31q-1.94-.63-1.84-2.67.37-7.37 6.48-11.83 2.26-1.65 2.88 1.5 1.4 7.19-3.46 12.12-.88.9-1.85 1.06-1.08.18-2.21-.18Zm53.0836 1.6771a6.62 3.62 91.7 0 1-3.422-6.7245 6.62 3.62 91.7 0 1 3.8148-6.5097 6.62 3.62 91.7 0 1 3.422 6.7245 6.62 3.62 91.7 0 1-3.8148 6.5097Z"/><path fill="#ab968f" d="M287.1106 98.5238a6.93 3.67 82.7 0 1-4.5209-6.4075 6.93 3.67 82.7 0 1 2.7597-7.3401 6.93 3.67 82.7 0 1 4.5209 6.4075 6.93 3.67 82.7 0 1-2.7597 7.3401Z"/><path fill="#fbb77d" d="M443.09 99.23q2.45 2.76 4.17 6.36.91 1.92-.81 3.17-1.9 1.39-4.82 2.49-10.96 4.15-22.32 6.99-2.63.67-4.09-.05-2.08-1.03-2.21-3.7a1.63 1.37-34.6 0 1 .25-.91q7.55-12.1 17.95-21.21 1.37-1.2 3.03-.46 2.75 1.21 4.88 3.17 1.64 1.51 3.97 4.15Z"/><path fill="#f3c1b2" d="M234.5 140.96q-2.15-3.38-2.78-7.25-.34-2.07-.87-3.83-.58-1.89-.85-3.88-.27-2-1.25-.25-3.24 5.77-7.52 10.8-.07.08-1.12 1.67-1.02 1.56-3.12 1.35a1.13.86 20.5 0 0-.86.26q-.8.81.62.71l-9.04.74q-.75.06-.17-.43 1.39-1.16 2.6-2.7 16.32-20.72 24.74-45.53.7-2.07.62.11-.36 10.27-.22 20.52.19 13.9 3.36 27.77a.4.36 86.9 0 1-.4.49l-3.74-.55Z"/><path fill="#fbb77d" d="M420.14 127.31a3.08 3.08 4.1 0 1 2.09-1.81q12.42-3.08 25.1-4.61.12-.02 2.3-.44 3.58-.68 4.62 2.55 1.1 3.41.44 9.67-.02.19-.14 3.15-.2 4.81-5.17 3.73-2.24-.48-2.27-.49-12.17-2.05-24-5.52-4.94-1.46-2.97-6.23Z"/><path fill="#f3c1b2" d="M307.29 124.98q.06-1.14.29-.02l4.26 20.84a.37.36 89.2 0 1-.41.44l-4.75-.81a.6.57-83.4 0 1-.47-.62l1.08-19.83Z"/><path fill="#fdefe2" d="m234.5 140.96-17.75-.42q-1.42.1-.62-.71a1.13.86 20.5 0 1 .86-.26q2.1.21 3.12-1.35 1.05-1.59 1.12-1.67 4.28-5.03 7.52-10.8.98-1.75 1.25.25.27 1.99.85 3.88.53 1.76.87 3.83.63 3.87 2.78 7.25Z"/><path fill="#f9c4b5" d="M219.25 142.29q-1.2 1.13-2.5 2.16-1.41 1.11-2.42 2.21-10.93 11.95-24.61 20.65-.07.04-.74.6-.68.58-1.69.34l.32-7.75a2.6 2.13-20.2 0 1 1.05-1.79q9.14-6.72 16.82-15.03a1.63 1.57-74.3 0 1 .82-.48q6.39-1.42 12.95-.91Z"/><path fill="#fef1e4" d="M219.25 142.29q7.54-.34 15.04.46l-.49 1.11a1.24.65-56.2 0 0-.09.86l8.05 19.15a1.83 1.77 84 0 0 1.29 1.08q3.53.73 2.64-.64-1.77-2.71-1.88-3.62-.09-.82.65-.94 3.79 6.68 8.76 12.54 2.5 2.95 6.2 5.11.64.37.26-.26-3.88-6.48-5.47-13.64 1.65-1.28 1.75 1 .2 4.92 4.45 5.01.66.01 2.51-.41 1.25-.29 2.54-.35 8.24 7.98 19.53 10.3 1.55.32 2.86.89.81.34.28-.36-6.79-9.12-8.38-20.08-.07-.46.04-.7.25-.53.61.21 5.25 10.61 14.16 17.68 2.97 2.35 6.94 1.88a.54.38-1.3 0 1 .61.41q-.05.34-.54.6-3.43 1.82-5.94 4.73-.3.35.14.21l4.73-1.56q2.88-.2 1.04 1.79-10.07 12.28-1 25.25 6.67 8.68 15.71 2.25 7.65-6.66 7.5-17.25-.13-8.84-6.66-13.89-.28-.21-.89-.42-1.05-.36-.2-1.23 9.97.64 14.85 9.24 1.51 2.65 2.92 5.37a.84.76-43.2 0 1-.07.83q-1.27 1.85-.77 4.05.28 1.21.47.24.07-.36-.08-1.21a1.3 1.3 66.3 0 1 .49-1.26q1.3-.98 1.91-2.09a1.83 1.09 69.5 0 0 .17-.94q-.33-4.35 4.36-3.4l1.29.46q-7.01 15.21-11 31.5 0-.89-.19-.66-.09.1-.12.35-.21 2.21-1.22.73a.73.72-22.7 0 0-.75-.3q-1.48.31-2.92-.25-4.37-1.7-8.86-.51a.96.89 55.9 0 1-.85-.2q-1.15-.96-2.13-.66-4.57 1.38-4.02 6.22.37 3.33 1.71 5.59 1.61 2.72 5.05 2.49 4.25-.28 8.52-.52a.95.89-19.1 0 1 .8.36q.76 1.06.98 2.36-2.83 10.23-9.85 16.69-7.39 6.79-18.36 11.67-15.79 7.03-32.57 11.2-2.39.59-4.82.81-2.21.2-4.82-.39-8.03-1.81-15.83-4.48-7.74-4.51-15.64-8.72-7.73-4.12-14.58-9.59-3.17-2.53-6.66-4.58-.65-.39-1.41-.07l-6.5-27.56q-.43-1.79.63-.29 5.99 8.45 14.72 14.44 2.66 1.82 5.62 2.27.83.13.18-.4-6.43-5.15-11.19-11.75l2.36 1a.85.76 36.3 0 0 .82-.08q1.33-1.02 2.92-.94 2.51.11 2.9.07 2.1-.23 4.23-.14a1.25.71 12.9 0 0 .9-.27l3.08-3.28a1.32.8 72.7 0 0 .23-.93q-.47-5.32-4.75-8.56-1.31-.99-2.72-.35a1.27 1.08-43.5 0 1-.9.05q-4.13-1.51-8.29-.58-2.86.64-4.24 2.12-2.09 2.26.06 5.58.57.87-.52.81-13.28-20.89-14.5-45.75 1.37.6 1.36 1.86-.01 1.7.01 1.78.86 4.73 2.26 9.33a.77.63 79.6 0 0 .64.54q.78 0 .69-.97 1.45-1.1.59-2.19a1.15.15 17.7 0 0-.83-.39q-.49-.18-.3-.96 4.16-5.87 7.6-8.69 6.52-5.33 15.94-4.52.82.73.7 1.63-.09.62-.92 1.25-10.86 8.2-7.64 22.05 1.42 6.1 6.3 9.34 3.44 2.29 7.81 1.4 5.2.29 8.29-3.71 6.95-9.25 4.77-21.31-.77-4.28-3.93-6.54-.07-.05-.67-.33-.57-.27-.21-.86 3.89 2.1 8.91 3.27.6.14.29-.4-1.7-2.92-4.3-5.02-.41-.33.08-.44 1.23-.27 2.51-.08 3.21.49 1.45-.98-2.3-1.9-7.88-2.87-6.82-1.19-17.11-5.34-.41-.17-.81-.23-2.99-.44-.2 1.19 2.1 1.23-.19 1.44-3.69.34-7.34.93-2.93.48-5.98 2.11-5.72 3.07-11.68 5.67-.62-2.48.04-4.96 1.01.24 1.69-.34.67-.56.74-.6 13.68-8.7 24.61-20.65 1.01-1.1 2.42-2.21 1.3-1.03 2.5-2.16Zm21.35 23.29q-4.25-1.48-8.53-2.9-8.33-2.76-17.02-1.68-.62.08-.11.38.62.38 1.81.37 9.52-.07 19.5 4.25 1.71.74 4.44.91a.67.52 5.4 0 0 .69-.44q.1-.59-.78-.89Zm36.14 52.73q.22 1.21 1.06.92a.51.39 67.5 0 0 .17-.65l-.84-1.85a.37.29 56.8 0 0-.53-.18q-.3.35-.15.81.27.82.29.95Zm-7.46 33.37q.34 1.41 1 .26a1.26 1.18-38.8 0 0 .13-.93q-.26-.93-.91-.22a1.02.95 61 0 0-.22.89Z"/><path fill="#f3c1b2" d="m234.29 142.75 4.01.49a1.69 1.41 85.1 0 1 1.26 1.27q1.9 8.1 4.9 15.24-.74.12-.65.94.11.91 1.88 3.62.89 1.37-2.64.64a1.83 1.77 84 0 1-1.29-1.08l-8.05-19.15a1.24.65-56.2 0 1 .09-.86l.49-1.11Z"/><path fill="#fbdca2" d="M386.19 170.44q.19-8.25-.18-24.18-.01-.52.25-.1 2.27 3.62 4.18 8.9 8.75 24.26 11.37 49.93.56 5.59.46 11.18-.13 7.1-.69 11.14-1.1 7.93-5.02 14.91-.89 1.59-1.74-.02-8.56-16.25-14.89-33.47a1.5 1.45 44.1 0 1-.03-.96q5.85-18.86 6.29-37.33Z"/><path fill="#fdefe2" d="M308.75 147.54q.12 1.04-.71 1.03a1.02 1.01 86.8 0 0-1.02 1.15q.37 2.92 1.16 4.04.52.73.77 1.7l3.05 12q-4.77 1.97-9.96 2.22a.3.26-5.6 0 1-.3-.21l-.03-.22q3.04-10.42 4-21.25a.68.64 87.4 0 1 .52-.61q1.24-.23 2.52.15Z"/><path fill="#f3c1b2" d="M308.75 147.54q3.93-.08 4.07 3.21.1 2.41.11 2.48 1.29 9.22 1.11 18.52-.12-.98-.77-.79a.77.52-21.8 0 1-.77-.17q-.38-.58-.5-1.33 2.47-1.03 0-2l-3.05-12q-.25-.97-.77-1.7-.79-1.12-1.16-4.04a1.02 1.01 86.8 0 1 1.02-1.15q.83.01.71-1.03Zm-43.29 21.21q-1.29.06-2.54.35-1.85.42-2.51.41-4.25-.09-4.45-5.01-.1-2.28-1.75-1-1.91-7.64-2.44-15.2-.12-1.76.54-.12 4.66 11.53 13.15 20.57Z"/><path fill="#ab968f" d="M337.67 150.09a.17.17 46.6 0 1 .29.01q.83 1.47.25 2.95a.39.39 31.3 0 1-.62.15q-1.24-1.13.08-3.11Z"/><path fill="#f3c1b2" d="M337.2 154.94a.64.64-18.2 0 1 .99.5q.52 8.28-.94 16.56-.9 5.1-2.99 8.57a.44.43 34.5 0 1-.65.11q-3.87-3.03-8.46-4.76-2.36-.89-5.37-.63-.65.06-.06-.24 12.07-6.07 15.75-18.31.26-.84 1.73-1.8Z"/><path fill="#ab968f" d="M240.6 165.58q.88.3.78.89a.67.52 5.4 0 1-.69.44q-2.73-.17-4.44-.91-9.98-4.32-19.5-4.25-1.19.01-1.81-.37-.51-.3.11-.38 8.69-1.08 17.02 1.68 4.28 1.42 8.53 2.9Z"/><path fill="#51494f" d="M229.5 173.96q-.75-1.43-3.44-2.27-6.35-1.98-11.06-.65-9.42-.81-15.94 4.52-3.44 2.82-7.6 8.69-.92 1.97.54 3.54.09.97-.69.97a.77.63 79.6 0 1-.64-.54q-1.4-4.6-2.26-9.33-.02-.08-.01-1.78.01-1.26-1.36-1.86l.21-2.04q5.96-2.6 11.68-5.67 3.05-1.63 5.98-2.11 3.65-.59 7.34-.93 2.29-.21.19-1.44-2.79-1.63.2-1.19.4.06.81.23 10.29 4.15 17.11 5.34 5.58.97 7.88 2.87 1.76 1.47-1.45.98-1.28-.19-2.51.08-.49.11-.08.44 2.6 2.1 4.3 5.02.31.54-.29.4-5.02-1.17-8.91-3.27Z"/><path fill="#ab968f" d="M312 167.46q2.47.97 0 2l-10.71 1.29.42-1.5.03.22a.3.26-5.6 0 0 .3.21q5.19-.25 9.96-2.22Z"/><path fill="#fdefe2" d="M312 169.46q.12.75.5 1.33a.77.52-21.8 0 0 .77.17q.65-.19.77.79-.32 1.15-1.29 1.25-7.29.73-12.2 1.83a.34.3 1.2 0 1-.41-.38l1.15-3.7 10.71-1.29Z"/><path fill="#51494f" d="M253.82 171.06q-1.13-.82.19-1.01a.75.69 70.8 0 1 .73.39q2.03 3.82-.26 1.21-.25-.28-.66-.59Z"/><path fill="#48576e" d="M229.5 173.96q-.36.59.21.86.6.28.67.33 3.16 2.26 3.93 6.54 2.18 12.06-4.77 21.31-.04-1.34 1.73-3.18 1.19-1.25.87-2.95-1.05-5.61-4.88-7.96a1.68 1.68 30.2 0 0-2.35.62q-3.52 6.41-5.45-.45a.6.59-20.9 0 0-.84-.37q-5.93 3.01-9.78 7.16a1.06.99-29.7 0 0-.27.86q1.43 8.51 9.93 9.52 2.27.27 2.75.46-4.37.89-7.81-1.4-4.88-3.24-6.3-9.34-3.22-13.85 7.64-22.05.83-.63.92-1.25.12-.9-.7-1.63 4.71-1.33 11.06.65 2.69.84 3.44 2.27Zm-8.9024 3.2675a3.6 3.27-20.7 0 0-4.5235-1.7864 3.6 3.27-20.7 0 0-2.2117 4.3314 3.6 3.27-20.7 0 0 4.5235 1.7864 3.6 3.27-20.7 0 0 2.2117-4.3314Z"/><path fill="#f3c1b2" d="m341.54 190.75-1.29-.46q1.8-.11.41-.65-.23-.09-.41-.24-1.7-1.52-3.55-3.32a.37.37 53.8 0 1 .09-.59q6.86-3.5 10.08-9.93.81-1.6.82-.4.01.25-.09.53-2.76 7.64-6.06 15.06Z"/><path fill="#fef1e4" d="M220.5976 177.2275a3.6 3.27-20.7 0 1-2.2117 4.3314 3.6 3.27-20.7 0 1-4.5235-1.7864 3.6 3.27-20.7 0 1 2.2117-4.3314 3.6 3.27-20.7 0 1 4.5235 1.7864Z"/><path fill="#48576e" d="M316 179.46q-.85.87.2 1.23.61.21.89.42 6.53 5.05 6.66 13.89.15 10.59-7.5 17.25l1.98-2.45q1.24-1.54 1.02-3.34-.74-5.83-3.17-9.36a1.47 1.46-32.4 0 0-1.95-.43q-2.61 1.54-5.09 4.49a.42.4-41 0 1-.67-.03l-2.49-4.36a.41.39 56.5 0 0-.58-.13l-4.95 3.77a1.62.93 15.2 0 1-.92.24q-2.29-.07-1.68 2.35.73 2.91 3.5 6.96l-.71.04q-9.07-12.97 1-25.25.16 1.72 1.56 2.48.47.25.74.61 2.02 2.68 5.67.26 1.61-1.07.85-2.84-1.17-2.73-3.86-2.56-2.98.18-5.96.05 2.43-2.82 6.46-3.25 4.93-.53 9-.04Z"/><path fill="#c3d7e5" d="M300.54 182.75q2.98.13 5.96-.05 2.69-.17 3.86 2.56.76 1.77-.85 2.84-3.65 2.42-5.67-.26-.27-.36-.74-.61-1.4-.76-1.56-2.48 1.84-1.99-1.04-1.79l.04-.21Z"/><path fill="#f3c1b2" d="M191.46 184.25q-.19.78.3.96a1.15.15 17.7 0 1 .83.39q.86 1.09-.59 2.19-1.46-1.57-.54-3.54Z"/><path fill="#8fb8d7" d="M229.54 203q-3.09 4-8.29 3.71-.48-.19-2.75-.46-8.5-1.01-9.93-9.52a1.06.99-29.7 0 1 .27-.86q3.85-4.15 9.78-7.16a.6.59-20.9 0 1 .84.37q1.93 6.86 5.45.45a1.68 1.68 30.2 0 1 2.35-.62q3.83 2.35 4.88 7.96.32 1.7-.87 2.95-1.77 1.84-1.73 3.18Z"/><path fill="#fbdca2" d="M65.35 256.39q14.19-25.51 29.34-50.45 2.28-3.76 5.86-11.74.25-.56.52-.07.32.58.18 1.62-5.03 38.21-21.73 72.91Q70 288.45 56.55 305.8q-5.25 6.77-9.81 12.9-1.36 1.82-1.25-.45.25-5.4 1.21-10.46 5.18-27.21 18.65-51.4Z"/><path fill="#8fb8d7" d="M316.25 212.25q-8.66 5-15-2.29-2.77-4.05-3.5-6.96-.61-2.42 1.68-2.35a1.62.93 15.2 0 0 .92-.24l4.95-3.77a.41.39 56.5 0 1 .58.13l2.49 4.36a.42.4-41 0 0 .67.03q2.48-2.95 5.09-4.49a1.47 1.46-32.4 0 1 1.95.43q2.43 3.53 3.17 9.36.22 1.8-1.02 3.34l-1.98 2.45Z"/><path fill="#5d96b1" d="m300.54 210 .71-.04q6.34 7.29 15 2.29-9.04 6.43-15.71-2.25Z"/><path fill="#f8d0c6" d="m205.46 226.5-3.92-5.5q1.09.06.52-.81-2.15-3.32-.06-5.58 1.38-1.48 4.24-2.12 4.16-.93 8.29.58a1.27 1.08-43.5 0 0 .9-.05q1.41-.64 2.72.35 4.28 3.24 4.75 8.56a1.32.8 72.7 0 1-.23.93l-3.08 3.28a1.25.71 12.9 0 1-.9.27q-2.13-.09-4.23.14-.39.04-2.9-.07-1.59-.08-2.92.94a.85.76 36.3 0 1-.82.08l-2.36-1Zm9.73-11.69q.58 1.91.96 8.18.1 1.57.24 0 .38-4.44-.81-8.71-.09-.31-.28-.5-.61-.6-.11 1.03Z"/><path fill="#f3c1b2" d="M215.19 214.81q-.5-1.63.11-1.03.19.19.28.5 1.19 4.27.81 8.71-.14 1.57-.24 0-.38-6.27-.96-8.18Z"/><path fill="#6b5e5b" d="M85.73 216.57q.14-.99.71-.45a.71.61-54.4 0 1 .07.81q-4.77 8.65-9.95 17.05-.13.22-.3.36-.97.82-.02-.85 4.61-8.11 9.25-16.21.17-.3.24-.71Z"/><path fill="#f3c1b2" d="M276.45 217.36q-.15-.46.15-.81a.37.29 56.8 0 1 .53.18l.84 1.85a.51.39 67.5 0 1-.17.65q-.84.29-1.06-.92-.02-.13-.29-.95Z"/><path fill="#f8d0c6" d="m330.54 222.25-4 15q-.22-1.3-.98-2.36a.95.89-19.1 0 0-.8-.36q-4.27.24-8.52.52-3.44.23-5.05-2.49-1.34-2.26-1.71-5.59-.55-4.84 4.02-6.22.98-.3 2.13.66a.96.89 55.9 0 0 .85.2q4.49-1.19 8.86.51 1.44.56 2.92.25a.73.72-22.7 0 1 .75.3q1.01 1.48 1.22-.73.03-.25.12-.35.19-.23.19.66Zm-10.11 1.38q-.06 3.93-.55 7.81-.07.56.41.33 1.24-.6 1.03-2.28-.35-2.83.32-5.56.12-.49.09-.87-.14-1.96-1.09-.27-.2.37-.21.84Zm-3.99 1.29q-.77 3.81.67 7.3.27.66.55.13.17-.32.09-.85-.51-3.61-.7-6.54-.15-2.29-.61-.04Z"/><path fill="#f7c3b5" d="M320.64 222.79q.95-1.69 1.09.27.03.38-.09.87-.67 2.73-.32 5.56.21 1.68-1.03 2.28-.48.23-.41-.33.49-3.88.55-7.81.01-.47.21-.84Z"/><path fill="#f3c1b2" d="M316.44 224.92q.46-2.25.61.04.19 2.93.7 6.54.08.53-.09.85-.28.53-.55-.13-1.44-3.49-.67-7.3Z"/><path fill="#f9c4b5" d="M240.29 272.75q8.87 5.59 19.96 6.75.74.08 1.08-.26a.95.23-46.6 0 1 .72-.47q.36.13.09.94-2.56 7.92-2.14 16.79.14 2.89 2.54 4-.18 2.26 1.65 3.56.81.58 2.52 3.94.2 2.09.49 4.18.32 2.36-.23 4.11-1.23 3.96-3.97 7.17-2.6 2.87-5.69 1.73-14.07-5.2-28.65-6.16a1.77 1.76-5 0 1-1.59-1.33q-1.18-4.62-2.96-9.03-6.16-15.25-14.53-30.25a2.12 2.1 36.2 0 1-.23-1.44q1.7-8.42.74-17.77a2.09 2.08-80.5 0 0-1.19-1.68q-5.4-2.54-6.9-7.74.76-.32 1.41.07 3.49 2.05 6.66 4.58 6.85 5.47 14.58 9.59 7.9 4.21 15.64 8.72Z"/><path fill="#ab968f" d="M269.5 250.79q.65-.71.91.22a1.26 1.18-38.8 0 1-.13.93q-.66 1.15-1-.26a1.02.95 61 0 1 .22-.89Z"/><path fill="#edd3a1" d="M415.75 284.96q-1.27.19-.69 1.23.62 1.1 2.88 2.62 1.44.97.88 3.39a1.19.77-14.6 0 1-.6.66q-.76.4-.76 1.39l-20.43-29.34a.41.34 66.3 0 1 .17-.62q.38-.04.61.43.22.46.35.62 8.19 10.35 17.59 19.62Z"/><path fill="#464a51" d="M263 323.46q2.74-3.21 3.97-7.17.55-1.75.23-4.11-.29-2.09-.49-4.18l.08-.5q.87 3.04 2.24 5.87 1.04 2.17.94 4-.15 2.45-.77 4.83a.97.85-61.1 0 0 .19.87q1.32 1.41 1.55-.88.13-1.36.05-6.69-.1-6.41-3.72-11.44-.04-.06-1.7-2.84-1.05-1.76-3.04-2.6a.72.68 14 0 1-.43-.68q.34-5.08-.04-10.16-.07-.94-.01-1.56.32-3.52 2.17.02 2.32 4.45 4.87 8.78 3.26 5.54 4.71 8.84Q279 315.65 282 329q.89 3.96.99 6.99a.74.7 79 0 1-.45.71q-3 1.17-5.85-.89-6.33-4.55-13.75-8.05a1.29 1.29-52.3 0 1-.27-2.16q.5-.42.33-2.14Z"/><path fill="#5d96b1" d="m295.5 337.21-1.04-2.71q-7.15-25.87-20.9-46.06-1.63-2.4-5.19-3.09-1.42-.27-.8-.57.35-.18 2.03.05.69.09 1.33.36 16.83 6.86 30.63 13.25 2.13.98 3.61 2.17 1.33 1.06 2.54 3.27 5.12 9.39 8.2 20.19a.73.73-23.8 0 1-.32.82q-8.7 5.34-15.26 12.74a1.65 1.26-68.7 0 1-.81.49q-2.17.48-4.02-.91Z"/><path fill="#f8d9a2" d="M415.75 284.96q11.68 10.09 21.44 17.35 11.85 8.82 21.17 18.59 12.08 12.66 14.8 31.17.13.89-.53.27-14.18-13.29-27.42-26.29-15.11-14.83-27.75-31.8 0-.99.76-1.39a1.19.77-14.6 0 0 .6-.66q.56-2.42-.88-3.39-2.26-1.52-2.88-2.62-.58-1.04.69-1.23Z"/><path fill="#464a51" d="m294.46 334.5 1.04 2.71q-1.76-1.34-3.33.11a1.12 1-60.6 0 1-.85.29l-6.09-.77a.72.68-.3 0 1-.61-.57q-3.21-20.36-12.43-37.93-.47-.9-3.31-5.37-1.68-2.64-2.94-5.62-.51-1.19.76-.95 2.3.42 4.09 1.38 1.58.83 2.96 2.93 7.21 10.96 12.27 23.05 1.42 3.39 3.56 10.13 1.62 5.13 3.44 10.2a.77.52 73.4 0 0 .66.54l.78-.13Z"/><path fill="#5f7d8f" d="M171 318.81q-1.74-3.55-3.67-7.02-.1-.18-3.38-6.28-4.7-8.76-11.76-16.21-.5-.52.2-.33 1.67.46 2.93 1.48 4.73 3.84 8.17 8.87 6.18 9.04 10.2 19.25a.91.87-12.7 0 1-.79 1.19l-6.06.48a.98.91-9.5 0 1-1-.66q-3.39-12.13-10.51-22.09-2.48-3.49-3.02-4.11-1.68-1.97-3.93-3.34-.8-.49.58-.14 2.6.68 4.48 2.66 4.67 4.94 8.31 10.69 1.57 2.48 8.07 15.39.22.44.53.55.21.08.43.07a.31.28 74.6 0 0 .22-.45Z"/><path fill="#71abcc" d="M141.46 336.75q-.46-.06-.9-.81-5.92-10.13-15.62-24.13-2.78-4-7.58-6.65-.19-.11-.38-.12-.87-.07.12.6 2.38 1.6 4.17 3.84 7.25 9.11 13.1 19.17 2.67 4.58 5.58 9.01 1.17 1.8 1.41 3.47.26 1.91.13 3.83-.26 4.02-.26 4.09-.14 10.19-.79 21.14a.67.67-84.2 0 1-.77.63q-4.52-.71-8.61-.03-1.11.18-.81 1-.68.19-1.04.71-.54-.65-1.21-2.75-5.77-18.1-11.56-36.19-.36-1.12-.98-1.7-.42-.39-.32.19.5 3.01 1.37 5.95 5.1 16.98 10.86 34.35a1.76 1.76-26.7 0 1-.66 1.98q-6.84 4.75-12.8 9.61-4.14 3.36-3.86 8.82.2 3.9.34 7.81.05 1.34-.4 2.66-.44 1.31-.84 2.62-.61 1.96-.51 4.02.78 16.16 6.36 31.38-5.78 3.72-8.06 6.19-3.36 3.62-3.63 7.63-.17 2.61-1.86 4.61-2.75 3.25.78 5.4 8.96 5.45 18.89 8.92 2.69.93 3.5 3.67.3 1 1.13 1.54-4.67-.22-9.33-.57-3.74-.29-9.35-.42-6.43-.15-12.82-.93.75-.14.5-.77-.2-.48-.22-.7-.37-4.15-.38-8.32-.02-7.62 4.79-14.81 1.54-2.31 1.69-5.42.03-.65-.28-5.54-.54-8.47-2.1-21.48-5.2-43.39 3.26-87.24 2.57-13.33 2.97-14.51 2.49-7.3 8.88-12.44.44-.36-.1-.41l-1.51-.15a.29.27 19.1 0 1-.23-.43q1.36-2.08 4.04-3.76 12.95-8.13 27.48-9.55 2.98-.29 5.06.89 3.24 1.85 5.96 5.54 7.34 9.94 10.59 21.45a1.23 1.23-13.5 0 1-.95 1.54q-3.74.75-6.01 3.76-1.79 2.36-6.6 5.96-1.31.99-4.89 2.69-2.58 1.23-4.74 3.16Z"/><path fill="#ab968f" d="M262.54 300.5h.23a.56.54-22 0 1 .39.16q2.77 2.88 3.63 6.84l-.08.5q-1.71-3.36-2.52-3.94-1.83-1.3-1.65-3.56Z"/><path fill="#314b54" d="M141.46 336.75q-.09.71.5 1 .9 3.42.79 8-.34 14.57-1.15 24.45a.65.64 12.4 0 0 .43.66q7.25 2.72 14.57 5.22 3.04 1.04 4.92 3.65 3.34 4.63 7.76 8.21 2.43 1.96 2.28 4.75-.24 4.7-5.31 4.27.14-.97 1.25-.92 2.49-.36 3-2.29.83-3.17-2.19-5.06-1.91-1.2-8-8.75-1.36-1.69-4.56-2.73-8.87-3.68-18.26-5.67-3.66-.78-7.24.25-.3-.82.81-1 4.09-.68 8.61.03a.67.67-84.2 0 0 .77-.63q.65-10.95.79-21.14 0-.07.26-4.09.13-1.92-.13-3.83-.24-1.67-1.41-3.47-2.91-4.43-5.58-9.01-5.85-10.06-13.1-19.17-1.79-2.24-4.17-3.84-.99-.67-.12-.6.19.01.38.12 4.8 2.65 7.58 6.65 9.7 14 15.62 24.13.44.75.9.81Z"/><path fill="#815862" d="M316.28 308.83a1 .97-6.8 0 1 .68.52l5.53 10.91a.8.72 65.1 0 1-.33 1.06l-4.48 1.92a.59.48 69 0 1-.68-.39l-5.28-14.56q-.2-.53.34-.41l4.22.95Z"/><path fill="#fdfcfc" d="M383.25 311.54q-19.4.72-38.19 5.52-9.16 2.35-17.81 6.15-6.74 2.83-12.86 6.84-.24.16-.36.33-.44.6.61.38.27-.06.56-.22 6.33-3.44 12.8-6.58 15.89-5.79 27.5-7.96 10.59-1.98 28.5-3.21 4.25-.2 8.49-.46 6.66-.41 12.51 2.71l.04.71q-2.1.7-3.79.75-19.84.54-42 4-7.56 1.18-14.09 2.81-7.54 1.88-13.81 3.9-13.74 4.43-25.79 12.6a3.07.78 21.1 0 1-2.56-.31q-1.05-.36-1.5-1.23a.79.67-39.4 0 1 .15-.83q7.79-8.61 16.41-12.88 5.88-2.91 7.19-3.85l6.54-3.21q28.71-10.09 59.15-9.78 3.58.04 3.62.05 1.84.47 2.7 3.01a.37.36-9.9 0 1-.34.48l-13.67.28Z"/><path fill="#5f7d8f" d="m331.79 317.5-6.54 3.21q-1.22-.27-1.81-1.65-1.78-4.15-3.38-8.39-.32-.84.53-.56 5.1 1.66 10.1 4.45 2.03 1.14 1.1 2.94Z"/><path fill="#6b5e5b" d="M383.25 311.54q.17.78.75 1.25-17.91 1.23-28.5 3.21-11.61 2.17-27.5 7.96-.12-.58-.75-.75 8.65-3.8 17.81-6.15 18.79-4.8 38.19-5.52Z"/><path fill="#c3d7e5" d="m405.04 315.75-.04-.71q1.53-.9 3.98.32.78.39-.09.39h-3.85Z"/><path fill="#4886a1" d="M404.25 380.54q-.15.3-.5.25-3.01.5-5.31 2.9-7.59 7.9-13.23 16.26-3.2 4.73 2 7.99a.64.55-57.1 0 1 .12.85l-3.08 4.42q-4.81 6.97 3.2 8.78a.85.84 21 0 1 .56 1.24q-3.96 7.07 3.92 7.56.48.03.93.28 1.72.95 3.65.55a1.44.5-18.4 0 1 .96.01l3.28 1.58q-3.09.29-5.89-.59a1.05 1.02-71.8 0 0-1.29.68l-8.78 26.2q-.81-2.71-2.6-4.19-8.14-6.7-19.18-8.17-28.28-3.77-54.14 7.9-12.78 5.78-20.06 16.27-2.29 3.31-3.63 4.66a1.28 1.13 70.7 0 0-.34.84q0 1.14-.84 1.67-.45.28-.36-.29.62-3.76 3.36-17.44 8.67-43.32 19.46-106.26.16-.92-.09-.95a.76.33-76.1 0 0-.48.63q-.83 3.1-1.62 6.21-.74 2.95-1.32 6.29-9.22 52.75-19.66 105.28a.49.49 55.4 0 1-.58.38q-3.79-.86-5.96-.58-8.96 1.17-14.5.5-3.62-.44-7.14-3.66a1.49.54-.5 0 0-.86-.3q-.32-.04-.54-.29 1.92-14.64 4.31-29.21 2.48-15.16 3.19-19.74 4.56-29.54 9.29-59.05.33-2.09 1.39-12.19.01-.12.07-2.12.11-3.24 3.2-2.14 1.76.63 1.86.66 12.12 3.3 24.19.12 1.84-.48 3.58-2.05 6.17-5.56 15.71-9.28 15.4-6 24.56-8.17 14.93-3.54 30.19-5.03 17.25-1.69 34.56-2.51 1.05-.05 1.75.44.52.37.96.84.48.52 1.01.75 3.92 1.69 7.7 3.77a1.88 1.87-68 0 1 .91 2.15l-14.62 52.44a1.7 1.69-4.7 0 1-.93 1.09q-3.6 1.71-2.34 1.77Z"/><path fill="#fdfcfc" d="M256.44 331.81q-9.04-3.01-18.87-5.3-9.49-2.2-19.31-2.94-27.15-2.06-54.18 2.02-1.28.19-2.16.22-5.39.21-1.49-2.31.76-.49 1.75-.72 8.75-1.99 19.07-2.78 29.64-2.28 56.75 1.25 20.8 2.71 38.11 15.95a.67.62 31.3 0 1 .22.76q-.59 1.33-1.93 1.93a1.01.87 46.7 0 1-.88-.09q-8.41-5.1-17.08-7.99Z"/><path fill="#51494f" d="M327.25 323.21q.63.17.75.75-6.47 3.14-12.8 6.58-.29.16-.56.22-1.05.22-.61-.38.12-.17.36-.33 6.12-4.01 12.86-6.84Z"/><path fill="#fdfcfc" d="M150.43 332.45q2.82-3.06 6.56-4.36 1.5-.52 7.56-1.46 17.98-2.78 36.2-2.87 22.04-.1 43.17 5.59 9.18 2.47 14.57 4.54 7.16 2.77 13.7 6.92 2.49 1.59-.44 1.69-2.1.07-4.09-.61-22.72-7.78-46.67-9.73-35.28-2.87-70.08 1.24-1.53.18-.48-.95Z"/><path fill="#ab968f" d="M156.73 326.56q.14-.61.77-.36a.45.41 30.1 0 1 .21.67q-.22.25-.54.27a.47.43-84.5 0 1-.44-.58Z"/><path fill="#465359" d="M129.21 372.5q.16.78-.45 1.26-6.79 5.35-13.78 10.45-2.69 1.96-3.23 4.54-.92 4.38-.45 10.02.2 2.47-.15 3.92-.38 1.59-1.15 3.81-.98 2.84-.31 6.19 1.05 5.32 1.1 5.72 1.31 11.57 5.17 22.59l1.79 8.77q.64 3.1-.76 5.77-2.6 4.98-3.88 12.27a1.15 1.14 12.8 0 0 .82 1.3q11.6 3.15 22.89 2.72a.56.54-88.2 0 0 .53-.52l3.32-38.83a.2.16-85.2 0 0-.14-.22l-.16-.02a.54.31-71.9 0 0-.41.37q-.44 1.15-1.61 1.25-1.46.11-1.55.13-2.92.55-5.55-.78 4.51-2.58 9.75-2.92 5.26-.67 9.32.01 2.48.42 4.93-.16 5.63-1.34 5.29-6.89 1.58 3-.48 5.56-2.49 3.11-6.81 2.98-4.54-.13-9.96-.55a1.44 1.43 3.9 0 0-1.55 1.34q-1.46 23.71-4.24 47.38l-11.75-.75q-.83-.54-1.13-1.54-.81-2.74-3.5-3.67-9.93-3.47-18.89-8.92-3.53-2.15-.78-5.4 1.69-2 1.86-4.61.27-4.01 3.63-7.63 2.28-2.47 8.06-6.19l-.01.94a1.07.82-21.1 0 1-.48.78q-4.71 3.14-8.19 7.6-1.5 1.92-1.66 4.9-.01.25.17.07l10.3-10.2a1.14.84-31.5 0 0 .34-.84l-.47-3.25q-5.58-15.22-6.36-31.38-.1-2.06.51-4.02.4-1.31.84-2.62.45-1.32.4-2.66-.14-3.91-.34-7.81-.28-5.46 3.86-8.82 5.96-4.86 12.8-9.61a1.76 1.76-26.7 0 0 .66-1.98q-5.76-17.37-10.86-34.35-.87-2.94-1.37-5.95-.1-.58.32-.19.62.58.98 1.7 5.79 18.09 11.56 36.19.67 2.1 1.21 2.75Zm-25.93 91.66 3.72 2.64a.55.51-57.8 0 0 .76-.2q4.85-8.52 7.34-17.35 1.08-3.82-1.33-1.24-3.16 3.38-6.46 6.61-1.84 1.79-2.72 3.12-1.12 1.7-2 3.66-.77 1.72.69 2.76Z"/><path fill="#4886a1" d="M252.21 466.5q-4.81-3.31-7.52-4.44-25.67-10.69-53.23-6.06-6.66 1.12-15.52 4.44-14.05 5.25-22.49 16.31-.2.27-.81 1.48-.4.8-1.15 1.32a.37.31-46.1 0 0-.04.58l1.05.58-15-.75q2.78-23.67 4.24-47.38a1.44 1.43 3.9 0 1 1.55-1.34q5.42.42 9.96.55 4.32.13 6.81-2.98 2.06-2.56.48-5.56.13-1.07-.58-1.75.6-.67 1.4-.76 1.2-.14 1.27-.16 7.26-2.11 5.43-9.53a1.41.42 34.8 0 0-.57-.72l-.88-.74a.64.49-50.3 0 1 .03-.79q4.73-5.91-1.02-10.85-.41-.36-.47-.63-.16-.6 1.1-.36 5.07.43 5.31-4.27.15-2.79-2.28-4.75-4.42-3.58-7.76-8.21-1.88-2.61-4.92-3.65-7.32-2.5-14.57-5.22a.65.64 12.4 0 1-.43-.66q.81-9.88 1.15-24.45.11-4.58-.79-8 2.61-3.14 6.5-3.18 3.99-.04 4.07-.05 33.59-3.66 63.72-1.52 27.87 1.98 54.3 10.94a.47.46 12.4 0 1 .32.49q-1.41 14.83-3.69 28.9-7.52 46.58-14.97 93.17Z"/><path fill="#fdfcfc" d="M276.44 342.81q-2.71-.66-1-2.12.99-.85 2.14-1.43 1.01-.51 2.46-.52 8.02-.07 16.02.39.11.01 2 0 2.88-.01 4.9 1.96 1.26 1.23-.45 1.66-13.03 3.25-26.07.06Z"/><path fill="#445e7a" d="m384.79 459.5-3 11.75q-1.39 1.16-1.6 3.68-.07.81-.34 1.57-.48 1.34.15 1.29-86.55 5.37-173.25 4.21-9.3-.12-54.25-1.29l-1.05-.58a.37.31-46.1 0 1 .04-.58q.75-.52 1.15-1.32.61-1.21.81-1.48 8.44-11.06 22.49-16.31 8.86-3.32 15.52-4.44 27.56-4.63 53.23 6.06 2.71 1.13 7.52 4.44-.68 6.39-1.55 12.77-.15 1.08.66.72a1.06.74 88.8 0 0 .49-.74l1.9-11.25q.22.25.54.29a1.49.54-.5 0 1 .86.3q3.52 3.22 7.14 3.66 5.54.67 14.5-.5 2.17-.28 5.96.58a.49.49 45 0 0 .58-.38q10.44-52.53 19.66-105.28.58-3.34 1.32-6.29.79-3.11 1.62-6.21a.76.33-76.1 0 1 .48-.63q.25.03.09.95-10.79 62.94-19.46 106.26-2.74 13.68-3.36 17.44-.09.57.36.29.84-.53.84-1.67a1.28 1.13 70.7 0 1 .34-.84q1.34-1.35 3.63-4.66 7.28-10.49 20.06-16.27 25.86-11.67 54.14-7.9 11.04 1.47 19.18 8.17 1.79 1.48 2.6 4.19Z"/><path fill="#fddea3" d="M25 403.54q1.66-1.45 1.5-4.04-.83-13.3.76-28.18a1.83 1.5-27.3 0 1 .38-.88q1.02-1.29 1.07-2.94l8.99-11.86q.29-.38.48.08l3.95 9.54a1.5 1.41 48.2 0 1-.03 1.23q-9.63 18.93-14.79 39.46a.35.33-64.4 0 1-.53.2q-1.29-.99-1.78-2.61Z"/><path fill="#fdfcfc" d="M28.71 367.5q-.05 1.65-1.07 2.94a1.83 1.5-27.3 0 0-.38.88q-1.59 14.88-.76 28.18.16 2.59-1.5 4.04-4.06-8.41-4.78-17.67-.29-3.7 1-6.93 2.56-6.4 7.49-11.44Z"/><path fill="#fdefe2" d="M155.75 377.21q-.36 5.63-3.92 9.91a1.08.84 63.6 0 0-.17.85q.15.68-.41 1.07l-16.5-3.46a1.03.9-58.5 0 0-.86.27q-3.03 2.86-7.18 3.42-.45.06-.72.27-1 .81 1.08.71 10.43-.46 20.68 1.54-.17 1.02-1.2 1.22a.59.55-6.8 0 0-.47.56q.11 3.74-.27 6.49-.29 2.07.4 3.69-9.46-.6-18.91-.02-.34.02-.55.16-.5.35-.04.69.23.17.63.18 8.95.18 17.91.28.81.36.25.96-.47 6.19-2.75 11.96-11.57-.08-15.25.79-1.98.47-.69 1.26a1.78 1.12-20.2 0 0 .94.2l13.75-.75q.8.52.38 1.22a1.43.88-43.8 0 0-.23.88q.64 4.24-1.49 7.92-.05.08-.38.48-.46.54 1.22.33-5.24.34-9.75 2.92-.94.26-1.19.85-2.69 6.41-8.56 7.94-2.32.6-5.54-1-3.86-11.02-5.17-22.59-.05-.4-1.1-5.72-.67-3.35.31-6.19.77-2.22 1.15-3.81.35-1.45.15-3.92-.47-5.64.45-10.02.54-2.58 3.23-4.54 6.99-5.1 13.78-10.45.61-.48.45-1.26.36-.52 1.04-.71 3.58-1.03 7.24-.25 9.39 1.99 18.26 5.67Zm275.54 51.29q-.76-1.03-1.03.05-.11.45-.28.72-2.47 3.84-5.68 7.06a.98.92-60.9 0 1-.86.27q-2.97-.57-5.31-2.52a1.61 1.21-83 0 1-.47-.82q-.45-2.04-2.47-3.45-4.55-3.16-7.5-4.82a1.86 1.24-23 0 0-.95-.18q-1.52.09-2.74-.85 9.99-.6 19.72-2.83 1.25-.29.48-.7-.23-.12-.53-.09-11.39 1.24-22.63 3.41-.56-.77-.1-1.35.48-.61.55-.81 1.22-3.54-.74-6.8 8.95-3.32 18.24-5.58 2.55-.62 4.81-1.91.9-.51.21-.74-.22-.07-.52-.01-10.26 1.97-19.99 5.74-1.1-.24-1.75-1.79-.62-1.49-1.11-3.03a1.61.9-56.5 0 1 .07-.92l2.25-6.55q9.27-4.29 19.15-6.55.8-.18.1-.61-1.92-1.19-2.24-2.18a1.47 1.46 74.3 0 0-1.72-.97q-7.32 1.7-13.25 5.85-.16-3.25-1.56-5.73-2.32-4.08.55-7.56.73-.89-.24-1.29v-.17q.35.05.5-.25 9.26-4.48 16-6.29 2.29-.61 4.07.69 1.02.74 2.28 3.09 3.68 6.83 7.55 13.55 2.31 4 2.56 6.02.41 3.23-1.14 6.75-.74 1.71-.08 3.45 1.53 4.05.26 9.45-1.02 4.32-4.46 11.25Z"/><path fill="#f7c3b5" d="M155.75 377.21q3.2 1.04 4.56 2.73 6.09 7.55 8 8.75 3.02 1.89 2.19 5.06-.51 1.93-3 2.29-5.05.22-9.36-2.02-.87-.45-3.2-2.69-1.57-1.51-3.69-2.29.56-.39.41-1.07a1.08.84 63.6 0 1 .17-.85q3.56-4.28 3.92-9.91Z"/><path fill="#51494f" d="M403.75 380.79v.17q-4.93 2.58-9.31 8.23-5.05 6.51-7.22 9.43-1.68 2.25-1.86 4.31-.37 4.18 3.53 4.16 2.33-.01 5.19-1.9 6.1-4.05 10.92-9.65 5.93-4.15 13.25-5.85a1.47 1.46 74.3 0 1 1.72.97q.32.99 2.24 2.18.7.43-.1.61-9.88 2.26-19.15 6.55-2.62.83-5.02 2.94-4.1 3.59-9.63 6.37-1.62.82-3.56 3.73l-.5.17 3.08-4.42a.64.55-57.1 0 0-.12-.85q-5.2-3.26-2-7.99 5.64-8.36 13.23-16.26 2.3-2.4 5.31-2.9Z"/><path fill="#f3c1b2" d="M403.75 380.96q.97.4.24 1.29-2.87 3.48-.55 7.56 1.4 2.48 1.56 5.73-4.82 5.6-10.92 9.65-2.86 1.89-5.19 1.9-3.9.02-3.53-4.16.18-2.06 1.86-4.31 2.17-2.92 7.22-9.43 4.38-5.65 9.31-8.23Z"/><path fill="#6b5e5b" d="M151.25 389.04q2.12.78 3.69 2.29 2.33 2.24 3.2 2.69 4.31 2.24 9.36 2.02-1.11-.05-1.25.92-1.26-.24-1.1.36.06.27.47.63 5.75 4.94 1.02 10.85a.64.49-50.3 0 0-.03.79l.88.74a1.41.42 34.8 0 1 .57.72q1.83 7.42-5.43 9.53-.07.02-1.27.16-.8.09-1.4.76-8.45-2.27-17.21-2.29-.56-1.18 1-1 6.32.02 12.51 1.25 4.09.81 7.24-.21 5.05-1.64 4.27-6.95a1.52 1.47-72.2 0 0-.42-.85q-1.59-1.61-3.8-2.16-.42-.1.01-.17 3.62-.59 4.44-3.62 1.19-4.4-3.16-6.75-3.94-2.12-7.91-4.17-4.33-2.22-9.18-2.79-10.25-2-20.68-1.54-2.08.1-1.08-.71.27-.21.72-.27 4.15-.56 7.18-3.42a1.03.9-58.5 0 1 .86-.27l16.5 3.46Z"/><path fill="#edd3a1" d="M461.69 437.69q.38-7.27-.69-17.19-1.54-14.31-7.17-33.71-.09-.31-.04-.58.21-1.13.84.23 5.73 12.23 8.88 25.26 2.78 11.47 3.28 19.71 1.01 16.54-5.85 31.78-1.73 3.84-5.9 5.56-.48.2-.29-.27 6.13-15.42 6.94-30.79Z"/><path fill="#f9c4b5" d="M147.75 391.79q4.85.57 9.18 2.79 3.97 2.05 7.91 4.17 4.35 2.35 3.16 6.75-.82 3.03-4.44 3.62-.43.07-.01.17 2.21.55 3.8 2.16a1.52 1.47-72.2 0 1 .42.85q.78 5.31-4.27 6.95-3.15 1.02-7.24.21-6.19-1.23-12.51-1.25-.43-.34-1-.25 2.28-5.77 2.75-11.96.56-.6-.25-.96 10.87.85.96-1.29-.69-1.62-.4-3.69.38-2.75.27-6.49a.59.55-6.8 0 1 .47-.56q1.03-.2 1.2-1.22Z"/><path fill="#f7c3b5" d="m402.96 400-2.25 6.55a1.61.9-56.5 0 0-.07.92q.49 1.54 1.11 3.03.65 1.55 1.75 1.79-6.61 3.55-12.37 8.39a1.61 1.51-65.9 0 1-.88.37q-9.44.79-5.5-8.01 1.94-2.91 3.56-3.73 5.53-2.78 9.63-6.37 2.4-2.11 5.02-2.94Z"/><path fill="#6b5e5b" d="M146.21 403.75q9.91 2.14-.96 1.29-8.96-.1-17.91-.28-.4-.01-.63-.18-.46-.34.04-.69.21-.14.55-.16 9.45-.58 18.91.02Zm254.54 11.04q-7.11 3.25-11.96 9.25-1.27 1.58-1.34 2.83-.11 2.25 2.86 2.57 7.09.76 8.94 1.06.54.09 2.18 1.38a1.39 1.35 63.1 0 0 .88.3q5.47-.06 10.94-.18.49-.01.73.25.38.41-.29.54-6.43 1.25-12.94.42l-3.28-1.58a1.44.5-18.4 0 0-.96-.01q-1.93.4-3.65-.55-.45-.25-.93-.28-7.88-.49-3.92-7.56a.85.84 21 0 0-.56-1.24q-8.01-1.81-3.2-8.78l.5-.17q-3.94 8.8 5.5 8.01a1.61 1.51-65.9 0 0 .88-.37q5.76-4.84 12.37-8.39 9.73-3.77 19.99-5.74.3-.06.52.01.69.23-.21.74-2.26 1.29-4.81 1.91-9.29 2.26-18.24 5.58Z"/><path fill="#f7c3b5" d="M400.75 414.79q1.96 3.26.74 6.8-.07.2-.55.81-.46.58.1 1.35-.48.84.96.52 1-.23 2-.31 1.22.94 2.74.85a1.86 1.24-23 0 1 .95.18q2.95 1.66 7.5 4.82 2.02 1.41 2.47 3.45a1.61 1.21-83 0 0 .47.82q2.34 1.95 5.31 2.52a.98.92-60.9 0 0 .86-.27q3.21-3.22 5.68-7.06.17-.27.28-.72.27-1.08 1.03-.05-2.29 5.73-6.22 10.37-3.78 4.46-3.83 4.53-5.5 7-7.24 8.6-9.06 8.31-12.19 20.21a.64.62 7.4 0 1-.63.47q-9.73-.15-19.39-1.43l3-11.75 8.78-26.2a1.05 1.02-71.8 0 1 1.29-.68q2.8.88 5.89.59 6.51.83 12.94-.42.67-.13.29-.54-.24-.26-.73-.25-5.47.12-10.94.18a1.39 1.35 63.1 0 1-.88-.3q-1.64-1.29-2.18-1.38-1.85-.3-8.94-1.06-2.97-.32-2.86-2.57.07-1.25 1.34-2.83 4.85-6 11.96-9.25Z"/><path fill="#815862" d="M142.75 417.96q.57-.09 1 .25-1.56-.18-1 1-.69-.09-1.25.25l-13.75.75a1.78 1.12-20.2 0 1-.94-.2q-1.29-.79.69-1.26 3.68-.87 15.25-.79Z"/><path fill="#f7c3b5" d="M142.75 419.21q8.76.02 17.21 2.29.71.68.58 1.75.34 5.55-5.29 6.89-2.45.58-4.93.16-4.06-.68-9.32-.01-1.68.21-1.22-.33.33-.4.38-.48 2.13-3.68 1.49-7.92a1.43.88-43.8 0 1 .23-.88q.42-.7-.38-1.22.56-.34 1.25-.25Z"/><path fill="#6b5e5b" d="M404 423.96q-1 .08-2 .31-1.44.32-.96-.52 11.24-2.17 22.63-3.41.3-.03.53.09.77.41-.48.7-9.73 2.23-19.72 2.83Z"/><path fill="#f7c3b5" d="M115.96 441q3.22 1.6 5.54 1 5.87-1.53 8.56-7.94.25-.59 1.19-.85 2.63 1.33 5.55.78.09-.02 1.55-.13 1.17-.1 1.61-1.25a.54.31-71.9 0 1 .41-.37l.16.02a.2.16-85.2 0 1 .14.22l-3.32 38.83a.56.54-88.2 0 1-.53.52q-11.29.43-22.89-2.72a1.15 1.14 12.8 0 1-.82-1.3q1.28-7.29 3.88-12.27 1.4-2.67.76-5.77l-1.79-8.77Z"/><path fill="#5d96b1" d="m115 441.25.47 3.25a1.14.84-31.5 0 1-.34.84l-10.3 10.2q-.18.18-.17-.07.16-2.98 1.66-4.9 3.48-4.46 8.19-7.6a1.07.82-21.1 0 0 .48-.78l.01-.94Z"/><path fill="#5f7d8f" d="M103.28 464.16q-1.46-1.04-.69-2.76.88-1.96 2-3.66.88-1.33 2.72-3.12 3.3-3.23 6.46-6.61 2.41-2.58 1.33 1.24-2.49 8.83-7.34 17.35a.55.51-57.8 0 1-.76.2l-3.72-2.64ZM414.96 463q-1.71-.07-2.67 1.25.01-3.74-1.57-7.06a.92.87 49.3 0 1 .04-.87q1.08-1.63 2.79-2.59a.4.39-22.1 0 1 .58.24q1.18 4.44.83 9.03Z"/><path fill="#5d96b1" d="M414.96 463q-.39 6.35-2.69 12.3-.34.86.48.99-4.86.73-9.75.42.14-2.59 2.44-4.27 4.26-3.12 6.85-8.19.96-1.32 2.67-1.25Z"/></svg>