<svg xmlns="http://www.w3.org/2000/svg" xmlns:xlink="http://www.w3.org/1999/xlink" width="64" height="64" viewBox="0 0 16.933 16.933"><g transform="translate(-5.62 -148.5)"><image xlink:href="favicon.png" width="16.933" height="16.933" x="5.62" y="148.501" preserveAspectRatio="none"/><path d="M7.208 165.434h-.53v-2.117h1.06v2.117zm6.35 0H8.795v-6.35h1.059v5.292h1.058V161.2h1.058v3.175h1.06v-7.408h1.058v5.292h1.058v-3.175h1.058v3.175h1.058v-7.408h1.058v5.291h1.06v-3.175h1.058v3.175h1.058v-7.408h1.058v9.525h-3.175v1.059H18.32v2.116zM9.324 154.85h-.529v-1.058H5.62v-2.116h3.175v-1.059h1.059v-2.116h8.466v2.116h-1.058v-1.059h-3.175v3.176h-1.058v-1.058H9.854v3.175zm12.7-4.234h-.529V148.5h1.059v2.116z" style="fill:#fff;stroke-width:.35277775"/><path d="M6.15 165.434h-.53v-11.641h3.175v3.174h2.117v2.117H8.795v6.35H7.737v-2.117H6.679v2.117zm8.466-3.175h-.529v-5.292h1.058v-2.116H13.03v-2.117h1.058v-3.175h3.175v3.175h2.117v2.117h-2.117v7.408h-1.058v-3.175h-1.06v3.175z" style="fill:#b52591;stroke-width:.35277775"/><path d="M20.966 165.434H19.38v-2.117h3.175v2.117zm-10.583-1.058h-.53v-5.292h1.06v-2.117H8.795v-2.116h1.059v-3.175h3.175v3.175h2.116v2.116H13.03v7.409h-1.06V161.2h-1.058v3.175zm8.466-4.234h-.529v-5.291h1.06v-2.117h-2.117v-2.117h1.058v-2.116h3.175v2.116h1.058v2.117h-1.059v7.408h-1.058v-3.175h-1.058v3.175zm-11.641-9.525H5.62v-2.116h3.175v2.116z" style="fill:#7c5c90;stroke-width:.35277775"/><path d="M18.85 165.434h-.53v-2.117h1.06v-1.059h3.175v1.06H19.38v2.116zM7.207 151.676H5.62v-1.059h3.175v-2.116h1.059v2.116H8.795v1.059z" style="fill:#000;stroke-width:.35277775"/></g></svg>