<svg xmlns="http://www.w3.org/2000/svg" width="218" height="218"><defs><linearGradient id="h" x1="64.092" x2="64.092" y1="123" y2="4.536" gradientUnits="userSpaceOnUse"><stop offset=".002" stop-color="#9E9E9E"/><stop offset=".286" stop-color="#ADADAD"/><stop offset=".64" stop-color="#B9B9B9"/><stop offset="1" stop-color="#BDBDBD"/></linearGradient><linearGradient id="i" x1="64.092" x2="64.092" y1="123.03" y2="4.503" gradientUnits="userSpaceOnUse"><stop offset=".008" stop-color="#616161"/><stop offset=".593" stop-color="#888"/><stop offset="1" stop-color="#9E9E9E"/></linearGradient></defs><radialGradient id="a" cx="67.07" cy="67.368" r="62.259" gradientTransform="translate(6.76 6.368)" gradientUnits="userSpaceOnUse"><stop offset=".175" stop-color="#BDBDBD"/><stop offset=".517" stop-color="#E0E0E0"/><stop offset=".853" stop-color="#fff"/></radialGradient><path d="M59.19 59.698c-4.52-3.2-11.39-9.92-16.55-17.73-4.15-6.27-8.4-15.12-5.08-21.62 1.39-2.72 3.28-3.29 4.62-3.29 1.44 0 2.98.64 4.66 1.95.08-2.16.6-3.78 1.56-4.88.9-1.03 2.16-1.57 3.67-1.57.55 0 1.14.07 1.77.22 7.12 1.63 11.16 10.58 13.3 17.8 2.66 8.98 3.39 18.56 2.93 24.08l-.1 1.2-1.19.17c-2.89.4-5.56 1.64-7.72 3.58l-.89.8z" style="fill:url(#a)"/><path d="M52.06 14.058c.43 0 .91.06 1.43.18 11.46 2.63 16.04 28.63 15.07 40.29-3.16.44-6.13 1.82-8.51 3.95-9.55-6.76-26.51-26.97-21.16-37.44.88-1.71 2-2.47 3.28-2.47 1.86 0 4.08 1.59 6.39 4.15-.71-5.11.1-8.66 3.5-8.66m0-3c-1.95 0-3.61.72-4.8 2.09-.76.88-1.3 1.98-1.61 3.33-1.19-.61-2.35-.91-3.48-.91-1.44 0-4.13.53-5.95 4.1-2.89 5.66-1.1 13.65 5.16 23.13 5.27 7.96 12.3 14.84 16.94 18.12l1.95 1.38 1.78-1.6c1.94-1.74 4.34-2.85 6.93-3.21l2.38-.33.2-2.39c.47-5.66-.27-15.47-2.99-24.63-3.23-10.9-8.21-17.41-14.4-18.83-.74-.17-1.45-.25-2.11-.25z" style="fill:#bdbdbd"/><radialGradient id="b" cx="68.242" cy="66.072" r="62.141" gradientTransform="translate(6.76 6.368)" gradientUnits="userSpaceOnUse"><stop offset=".175" stop-color="#BDBDBD"/><stop offset=".517" stop-color="#E0E0E0"/><stop offset=".853" stop-color="#fff"/></radialGradient><path d="M46 71.678c-11.08 0-30.73-2.78-34.1-13.18-.65-2.02-.49-3.72.47-5.04.98-1.34 2.67-2.16 5.14-2.46-1.65-1.78-2.43-3.45-2.36-5.08.07-1.69 1.05-3.13 2.89-4.29 1.8-1.13 3.98-1.7 6.49-1.7 11.85 0 28.57 12.71 34.6 19.83l.78.92-.73.96c-.87 1.14-1.56 2.42-2.06 3.8-.49 1.35-.78 2.76-.85 4.19l-.06 1.2-1.18.2c-2.53.42-5.65.65-9.03.65z" style="fill:url(#b)"/><path d="M24.53 41.428c10.95 0 27.12 11.83 33.45 19.3-.94 1.24-1.72 2.65-2.28 4.19-.56 1.53-.86 3.08-.94 4.62-2.4.41-5.43.64-8.77.64-12.71 0-29.8-3.28-32.67-12.14-1.33-4.12 1.64-5.68 6.64-5.68.45 0 .91.01 1.39.04-4.65-3.52-6.52-6.98-2.52-9.49 1.64-1.03 3.57-1.48 5.7-1.48m0-3c-2.8 0-5.25.65-7.29 1.92-2.85 1.79-3.53 3.97-3.59 5.49-.06 1.39.34 2.77 1.22 4.18-1.64.53-2.87 1.38-3.72 2.54-.87 1.2-1.69 3.27-.69 6.39 3.4 10.5 21.26 14.22 35.52 14.22 3.47 0 6.68-.23 9.27-.68l2.36-.4.13-2.4c.07-1.28.33-2.54.77-3.76.45-1.24 1.07-2.38 1.85-3.4l1.46-1.92-1.56-1.84c-7.04-8.31-23.82-20.34-35.73-20.34z" style="fill:#bdbdbd"/><radialGradient id="c" cx="63.86" cy="67.43" r="63.471" gradientTransform="translate(6.76 6.368)" gradientUnits="userSpaceOnUse"><stop offset=".175" stop-color="#BDBDBD"/><stop offset=".517" stop-color="#E0E0E0"/><stop offset=".853" stop-color="#fff"/></radialGradient><path d="M79.53 58.818c-1.15-.87-2.43-1.57-3.8-2.06-1.35-.49-2.76-.78-4.19-.86l-1.2-.06-.2-1.18c-.93-5.46-1.04-15.08.83-24.24 1.5-7.37 4.75-16.63 11.7-18.87.8-.26 1.57-.39 2.27-.39 1.35 0 2.52.49 3.41 1.42.97 1.02 1.58 2.54 1.83 4.59 1.7-1.58 3.32-2.36 4.88-2.36 1.22 0 2.98.5 4.48 2.89 3.88 6.19.41 15.37-3.18 21.99-4.46 8.23-10.73 15.52-14.95 19.1l-.92.78z" style="fill:url(#c)"/><path d="M84.93 12.648c3.08 0 4.09 3.39 3.84 8.35 2.18-2.89 4.35-4.71 6.28-4.71 1.17 0 2.26.67 3.21 2.19 6.24 9.97-8.9 31.58-17.83 39.15-1.24-.94-2.65-1.72-4.19-2.28a15.77 15.77 0 0 0-4.63-.94c-1.97-11.54.32-37.82 11.51-41.43.67-.23 1.27-.33 1.81-.33m0-3c-.86 0-1.78.16-2.73.47-6.04 1.95-10.44 8.87-12.7 20-1.91 9.35-1.79 19.19-.84 24.79l.4 2.36 2.39.13c1.29.07 2.55.33 3.76.77 1.23.45 2.38 1.07 3.41 1.85l1.92 1.45 1.83-1.55c4.33-3.67 10.74-11.13 15.3-19.53 5.42-9.99 6.5-18.12 3.13-23.5-1.86-2.97-4.16-3.6-5.75-3.6-1.3 0-2.6.41-3.92 1.23-.39-1.21-.96-2.21-1.7-2.99-1.18-1.23-2.73-1.88-4.5-1.88z" style="fill:#bdbdbd"/><radialGradient id="d" cx="62.514" cy="66.247" r="62.183" gradientTransform="translate(6.76 6.368)" gradientUnits="userSpaceOnUse"><stop offset=".175" stop-color="#BDBDBD"/><stop offset=".517" stop-color="#E0E0E0"/><stop offset=".853" stop-color="#fff"/></radialGradient><path d="M89.94 69.828c-1.23 0-2.39-.04-3.44-.13l-1.2-.1-.17-1.19c-.4-2.88-1.64-5.55-3.58-7.72l-.79-.89.69-.98c5.8-8.19 22.14-22.82 34.08-22.82 1.95 0 3.72.4 5.26 1.18 1.94.99 3.03 2.34 3.25 4.02.21 1.61-.42 3.35-1.91 5.26 2.56.1 4.39.82 5.46 2.15.98 1.23 1.24 2.85.79 4.84-2.81 12.26-27.58 16.38-38.44 16.38z" style="fill:url(#d)"/><path d="M115.53 37.508c1.66 0 3.2.32 4.58 1.02 4.21 2.15 2.65 5.76-1.68 9.67 1.12-.16 2.16-.24 3.1-.24 3.95 0 6.24 1.45 5.38 5.17-2.41 10.48-24.33 15.2-36.98 15.2-1.19 0-2.31-.04-3.31-.13-.44-3.16-1.82-6.13-3.95-8.51 5.88-8.3 21.89-22.18 32.86-22.18m0-3c-12.46 0-29.35 15.03-35.31 23.45l-1.38 1.95 1.6 1.78c1.74 1.94 2.85 4.34 3.21 6.92l.33 2.38 2.39.2c1.09.09 2.28.14 3.56.14 11.71 0 36.86-4.28 39.91-17.53.7-3.05-.2-5.01-1.08-6.11-.94-1.19-2.31-1.99-4.09-2.4.75-1.48 1.04-2.9.85-4.28-.2-1.51-1.06-3.63-4.06-5.16-1.74-.89-3.73-1.34-5.93-1.34z" style="fill:#bdbdbd"/><radialGradient id="e" cx="66.901" cy="61.644" r="62.132" gradientTransform="translate(6.76 6.368)" gradientUnits="userSpaceOnUse"><stop offset=".175" stop-color="#BDBDBD"/><stop offset=".517" stop-color="#E0E0E0"/><stop offset=".853" stop-color="#fff"/></radialGradient><path d="M56.59 129.648c-1.35 0-2.52-.49-3.41-1.42-.97-1.02-1.58-2.54-1.83-4.58-1.7 1.58-3.32 2.36-4.88 2.36-1.22 0-2.98-.5-4.48-2.89-3.88-6.19-.41-15.37 3.18-21.99 4.46-8.23 10.73-15.52 14.95-19.1l.92-.78.96.72a14.59 14.59 0 0 0 7.99 2.93l1.2.07.2 1.18c.93 5.46 1.04 15.08-.83 24.24-1.5 7.37-4.75 16.63-11.7 18.88-.81.24-1.57.38-2.27.38z" style="fill:url(#e)"/><path d="M61.09 83.168c1.24.94 2.65 1.72 4.19 2.28 1.53.56 3.08.86 4.62.94 1.97 11.54-.32 37.82-11.51 41.43-.67.22-1.27.32-1.81.32-3.08 0-4.09-3.39-3.84-8.35-2.18 2.89-4.35 4.71-6.28 4.71-1.17 0-2.26-.67-3.21-2.19-6.24-9.96 8.91-31.58 17.84-39.14m-.11-3.84-1.83 1.55c-4.33 3.67-10.74 11.13-15.3 19.53-5.42 9.99-6.5 18.12-3.13 23.5 1.86 2.97 4.16 3.6 5.75 3.6 1.3 0 2.6-.41 3.92-1.23.39 1.21.96 2.2 1.7 2.99 1.17 1.23 2.73 1.88 4.49 1.88.86 0 1.78-.16 2.73-.47 6.04-1.95 10.43-8.87 12.7-20 1.91-9.35 1.8-19.19.84-24.79l-.4-2.36-2.39-.13c-1.29-.07-2.55-.33-3.76-.77-1.23-.45-2.38-1.07-3.41-1.85z" style="fill:#bdbdbd"/><radialGradient id="g" cx="62.451" cy="63.027" r="62.468" gradientUnits="userSpaceOnUse"><stop offset="0" stop-color="#C4C4C4"/><stop offset=".092" stop-color="#CCCDCF"/><stop offset=".362" stop-color="#E0E0E2"/><stop offset=".753" stop-color="#F7F7F7"/><stop offset="1" stop-color="#fff"/></radialGradient><radialGradient id="f" cx="68.177" cy="62.845" r="63.194" gradientTransform="translate(6.76 6.368)" gradientUnits="userSpaceOnUse"><stop offset=".175" stop-color="#BDBDBD"/><stop offset=".517" stop-color="#E0E0E0"/><stop offset=".853" stop-color="#fff"/></radialGradient><path d="M25.98 104.788c-1.95 0-3.72-.4-5.26-1.18-1.94-.99-3.03-2.34-3.25-4.02-.21-1.61.42-3.35 1.91-5.26-2.56-.1-4.4-.82-5.46-2.15-.98-1.23-1.24-2.85-.79-4.84 2.82-12.25 27.59-16.37 38.45-16.37 1.24 0 2.39.04 3.44.13l1.2.1.17 1.19c.4 2.88 1.64 5.55 3.58 7.72l.8.89-.69.98c-5.81 8.18-22.15 22.81-34.1 22.81z" style="fill:url(#f)"/><path d="M51.58 72.468c1.19 0 2.31.04 3.31.13.44 3.16 1.82 6.13 3.95 8.51-5.87 8.3-21.89 22.18-32.86 22.18-1.66 0-3.2-.32-4.58-1.02-4.2-2.15-2.65-5.76 1.69-9.67-1.12.16-2.16.24-3.1.24-3.95 0-6.24-1.45-5.39-5.17 2.41-10.48 24.33-15.2 36.98-15.2m0-3c-11.71 0-36.86 4.28-39.91 17.53-.7 3.05.2 5.01 1.07 6.11.94 1.19 2.31 1.99 4.09 2.4-.75 1.48-1.04 2.9-.86 4.27.2 1.51 1.06 3.63 4.05 5.16 1.75.9 3.75 1.35 5.94 1.35 12.46 0 29.35-15.03 35.31-23.45l1.38-1.95-1.6-1.78a13.07 13.07 0 0 1-3.21-6.92l-.33-2.38-2.39-.2c-1.06-.1-2.26-.14-3.54-.14z" style="fill:#bdbdbd"/><radialGradient id="j" cx="63.673" cy="61.704" r="62.469" gradientUnits="userSpaceOnUse"><stop offset=".175" stop-color="#BDBDBD"/><stop offset=".517" stop-color="#E0E0E0"/><stop offset=".853" stop-color="#fff"/></radialGradient><radialGradient id="k" cx="64" cy="64.026" r="16.724" gradientTransform="translate(6.76 6.368)" gradientUnits="userSpaceOnUse"><stop offset=".003" stop-color="#FF8F00"/><stop offset="1" stop-color="#FFB300"/></radialGradient><path d="M110.23 94.49c-11.85 0-28.57-12.71-34.6-19.83l-.78-.92.72-.96c.88-1.16 1.57-2.43 2.07-3.8.49-1.35.78-2.76.86-4.19l.06-1.2 1.18-.2c2.51-.43 5.63-.66 9.01-.66 11.08 0 30.73 2.78 34.1 13.18.65 2.02.5 3.72-.47 5.04-.98 1.34-2.67 2.16-5.14 2.46 1.65 1.78 2.43 3.45 2.36 5.08-.07 1.69-1.05 3.13-2.89 4.28-1.79 1.15-3.97 1.72-6.48 1.72z" style="fill:url(#g)" transform="translate(6.76 6.368)"/><path d="M88.76 64.24c12.71 0 29.81 3.28 32.67 12.15 1.34 4.12-1.64 5.69-6.64 5.69-.45 0-.91-.01-1.39-.04 4.65 3.51 6.52 6.98 2.52 9.49-1.63 1.02-3.56 1.47-5.7 1.47-10.95 0-27.12-11.83-33.45-19.3.94-1.24 1.72-2.65 2.28-4.19.56-1.53.86-3.08.94-4.63 2.4-.41 5.43-.64 8.77-.64m0-3c-3.47 0-6.67.23-9.27.68l-2.36.4-.13 2.4a13.111 13.111 0 0 1-2.62 7.17l-1.45 1.92 1.55 1.83C81.53 83.96 98.31 96 110.22 96c2.8 0 5.25-.65 7.29-1.93 2.85-1.78 3.52-3.97 3.59-5.49.06-1.39-.34-2.77-1.22-4.18 1.64-.53 2.87-1.38 3.72-2.54.87-1.2 1.69-3.27.68-6.39-3.39-10.5-21.26-14.23-35.52-14.23z" style="fill:#bdbdbd" transform="translate(6.76 6.368)"/><path d="M123.17 59.68c-.15-2.76-.43-5.5-1.03-8.19-.48-2.14-1.91-3.4-4.08-3.67-3.01-.38-6.02-.78-9.03-1.16-.3-.04-.46-.15-.56-.45-.18-.53-.4-1.04-.64-1.55-.11-.24-.09-.4.07-.61 1.87-2.42 3.74-4.85 5.6-7.28 1.36-1.76 1.45-3.66.24-5.51-2.21-3.41-4.86-6.45-7.72-9.32-2.9-2.91-5.99-5.61-9.44-7.87-1.94-1.27-3.79-1.18-5.64.24-2.4 1.84-4.8 3.68-7.19 5.53-.24.19-.43.21-.71.08-.49-.24-1-.44-1.51-.62-.25-.09-.37-.21-.41-.5-.39-3.11-.8-6.22-1.21-9.33-.24-1.85-1.67-3.41-3.37-3.76-7.97-1.67-16.61-1.42-24.75-.06-2.15.36-3.43 2.03-3.69 3.98-.4 3.07-.8 6.18-1.22 9.25-.02.12-.14.28-.25.33-.6.27-1.21.54-1.83.76-.13.05-.36-.02-.49-.12-2.44-1.87-4.88-3.74-7.32-5.62-1.7-1.31-3.62-1.41-5.42-.24-3.42 2.21-6.48 4.87-9.36 7.74-2.93 2.92-5.65 6.02-7.92 9.5-1.23 1.9-1.14 3.78.24 5.58 1.86 2.42 3.72 4.84 5.58 7.25.16.21.18.37.07.61-.25.53-.47 1.07-.67 1.61-.09.23-.2.34-.45.37-1.84.23-3.68.47-5.52.72-1.36.18-2.72.34-4.08.54-1.73.26-3.16 1.64-3.56 3.4-.54 2.37-.84 4.78-.99 7.2-.1 1.61.01 3.23-.05 4.84 0 .11.1.22.1.34v.15c0 .4-.1.81-.09 1.21.07 3.6.28 7.18 1.01 10.72.49 2.37 1.83 3.62 4.24 3.93 3 .38 5.98.78 8.98 1.16.21.03.32.1.4.32.19.52.39 1.05.64 1.55.16.32.13.53-.09.8-1.87 2.41-3.73 4.83-5.58 7.25-1.31 1.7-1.4 3.62-.23 5.42 2.22 3.43 4.89 6.49 7.77 9.38 2.91 2.91 5.99 5.61 9.45 7.87 1.91 1.24 3.78 1.16 5.58-.22 2.42-1.86 4.84-3.71 7.25-5.58.22-.18.4-.19.65-.08.54.25 1.11.45 1.65.7.13.06.27.23.29.37.42 3.13.83 6.27 1.24 9.4.26 1.97 1.67 3.42 3.7 3.85 3.16.66 6.35.95 9.57 1.07.33.01.66.06.98.06h3.28c.92 0 1.85-.09 2.77-.14 2.71-.17 5.42-.45 8.07-1.06 1.84-.43 3.17-1.94 3.41-3.81.4-3.14.82-6.27 1.24-9.4a.49.49 0 0 1 .24-.32c.6-.27 1.21-.53 1.83-.75.13-.05.34.01.46.1 2.44 1.86 4.86 3.73 7.29 5.59 1.8 1.38 3.67 1.47 5.58.23 3.49-2.27 6.6-5 9.53-7.94 2.81-2.83 5.42-5.82 7.61-9.17 1.28-1.96 1.21-3.8-.23-5.67-1.84-2.4-3.68-4.8-5.54-7.19-.18-.23-.21-.41-.08-.67.24-.51.46-1.05.65-1.58.09-.23.21-.33.45-.37 3.11-.4 6.22-.81 9.33-1.21 1.91-.25 3.39-1.57 3.82-3.45.54-2.34.82-4.73.99-7.12.25-3.15.27-6.28.1-9.41zM64.01 83.15c-10.73-.02-19.4-8.71-19.4-19.45 0-10.66 8.73-19.37 19.4-19.38 10.71 0 19.42 8.71 19.42 19.44 0 10.7-8.73 19.41-19.42 19.39z" style="fill:url(#h)" transform="translate(73.379 84.98)"/><path d="M61.79 4.5c1.55 0 3.08.05 4.63.05.09.02.2 0 .28 0 1.07.06 2.13.1 3.2.18 2.27.18 4.53.45 6.74.98 1.82.44 3.12 1.91 3.37 3.76.41 3.11.82 6.22 1.21 9.33.04.29.16.41.41.5.51.19 1.02.39 1.51.62.28.14.47.11.71-.08 2.39-1.85 4.79-3.69 7.19-5.53 1.85-1.42 3.69-1.5 5.64-.24 3.45 2.25 6.54 4.96 9.44 7.87 2.86 2.87 5.51 5.91 7.72 9.32 1.21 1.86 1.11 3.75-.24 5.51-1.87 2.43-3.73 4.86-5.6 7.28-.16.21-.18.37-.07.61.24.51.45 1.02.64 1.55.1.29.26.41.56.45 3.01.38 6.02.78 9.03 1.16 2.17.27 3.6 1.53 4.08 3.67.6 2.7.88 5.44 1.03 8.19.17 3.13.15 6.25-.08 9.37-.18 2.39-.46 4.78-.99 7.12-.43 1.87-1.91 3.2-3.82 3.45-3.11.4-6.22.81-9.33 1.21-.25.03-.37.13-.45.37-.19.54-.41 1.07-.65 1.58-.13.26-.1.44.08.67 1.86 2.39 3.7 4.79 5.54 7.19 1.43 1.87 1.51 3.7.23 5.67-2.19 3.35-4.79 6.34-7.61 9.17-2.93 2.94-6.04 5.67-9.53 7.94-1.9 1.24-3.78 1.15-5.58-.23-2.43-1.86-4.85-3.73-7.29-5.59-.11-.09-.33-.15-.46-.1-.62.22-1.23.48-1.83.75-.11.05-.23.2-.24.32-.42 3.13-.83 6.27-1.24 9.41-.24 1.87-1.57 3.38-3.41 3.81-2.66.62-5.36.9-8.07 1.07-.92.06-1.85.11-2.77.15h-3.28c-.33-.02-.66-.06-.98-.07-3.22-.12-6.41-.42-9.57-1.08-2.03-.43-3.44-1.88-3.7-3.85-.42-3.14-.82-6.27-1.24-9.4-.02-.14-.16-.31-.29-.37-.54-.25-1.1-.45-1.65-.7-.25-.12-.42-.1-.65.08-2.41 1.87-4.83 3.72-7.25 5.58-1.8 1.38-3.67 1.46-5.58.22-3.46-2.25-6.54-4.95-9.45-7.87-2.88-2.89-5.54-5.95-7.77-9.38-1.17-1.8-1.08-3.72.23-5.42 1.86-2.42 3.71-4.84 5.58-7.25.22-.28.25-.49.09-.8-.25-.5-.45-1.02-.64-1.55-.08-.21-.2-.29-.41-.32-3-.39-5.99-.78-8.99-1.16-2.4-.31-3.78-1.56-4.27-3.93-.73-3.53-1.01-7.11-1.08-10.72-.01-.4-.04-.81-.05-1.21v-.15c.01-.11.04-.22.04-.34.06-1.61.09-3.23.19-4.84.15-2.42.45-4.83.99-7.2.4-1.76 1.83-3.14 3.56-3.4 1.36-.21 2.72-.37 4.08-.54l5.52-.72c.25-.03.36-.13.45-.37.2-.55.42-1.09.67-1.61.11-.24.09-.4-.07-.61-1.87-2.41-3.72-4.83-5.58-7.25-1.39-1.8-1.48-3.68-.24-5.58 2.27-3.48 4.98-6.58 7.92-9.5 2.88-2.87 5.93-5.52 9.36-7.74 1.8-1.16 3.72-1.06 5.42.24 2.44 1.88 4.88 3.75 7.32 5.62.13.09.35.17.49.12.62-.22 1.23-.48 1.83-.75.11-.05.23-.2.25-.32.42-3.07.82-6.14 1.22-9.22.28-2.17 1.56-3.6 3.69-4.06 2.51-.55 5.06-.83 7.62-.99.72 0 1.48-.05 2.24-.1zm-5.16 9.37c-.01.03-.03.07-.03.1-.38 2.91-.78 5.82-1.14 8.73-.24 1.95-1.23 3.31-3.1 3.96-2.13.73-4.2 1.59-6.22 2.58-1.67.81-3.29.63-4.77-.49-1.67-1.26-3.33-2.55-4.99-3.83-.75-.58-1.51-1.16-2.28-1.75-3.97 3.12-7.5 6.64-10.6 10.6.1.14.18.24.26.34 1.77 2.31 3.55 4.61 5.32 6.92 1.1 1.44 1.33 3.03.55 4.66a68.415 68.415 0 0 0-2.7 6.5c-.58 1.65-1.82 2.62-3.54 2.87-2.93.42-5.87.79-8.8 1.15-.35.04-.45.18-.47.48-.13 2.14-.31 4.28-.38 6.43-.08 2.57.09 5.13.38 7.69.03.23.01.46.36.51 2.8.35 5.59.75 8.39 1.07 2.12.25 3.55 1.3 4.22 3.35.66 2.04 1.52 4.01 2.47 5.94.84 1.71.65 3.35-.5 4.86-1.63 2.13-3.27 4.25-4.9 6.38-.22.28-.43.56-.65.85 3.12 3.97 6.64 7.49 10.6 10.59.14-.11.26-.19.39-.28 2.3-1.77 4.59-3.54 6.89-5.29 1.41-1.08 2.98-1.32 4.59-.57 2.16 1.02 4.36 1.93 6.61 2.74 1.59.57 2.55 1.78 2.81 3.46.29 1.88.51 3.78.76 5.66.16 1.2.32 2.39.47 3.58.07.03.12.05.17.05.78.08 1.57.18 2.35.24 4.05.3 8.1.26 12.14-.21.24-.03.34-.09.38-.35.36-2.86.75-5.72 1.11-8.58.25-1.97 1.26-3.31 3.15-3.96 2.07-.7 4.08-1.53 6.04-2.51 1.75-.87 3.41-.69 4.97.5l5.17 3.97c.67.51 1.34 1.03 2 1.54l.1-.05c3.86-3.03 7.3-6.47 10.35-10.31.19-.23.08-.35-.05-.51-1.81-2.35-3.62-4.68-5.41-7.04-1.04-1.38-1.26-2.93-.53-4.49 1.03-2.19 1.94-4.41 2.77-6.68.59-1.62 1.84-2.55 3.56-2.79 2.74-.38 5.49-.72 8.23-1.08.9-.12.9-.12 1.02-1.03.01-.1.03-.2.04-.3.32-3.19.4-6.39.22-9.59-.07-1.28-.21-2.56-.32-3.84-.02-.2-.04-.37-.33-.41-2.91-.37-5.82-.75-8.73-1.13-1.86-.24-3.16-1.24-3.78-3-.75-2.15-1.61-4.24-2.61-6.29-.81-1.67-.62-3.28.5-4.77.92-1.22 1.86-2.42 2.79-3.63.93-1.21 1.86-2.42 2.8-3.64-3.12-3.96-6.64-7.5-10.6-10.6-.14.1-.24.18-.34.26-2.31 1.77-4.61 3.55-6.92 5.32-1.39 1.06-2.94 1.34-4.52.61a91.449 91.449 0 0 0-6.79-2.81c-1.55-.57-2.47-1.77-2.71-3.41-.34-2.27-.61-4.56-.91-6.84-.11-.81-.21-1.63-.32-2.43-3.22-.63-12.64-.62-14.99 0z" style="fill:url(#i)" transform="translate(73.379 84.98)"/><path d="M64.13 94.36c-16.89 0-30.64-13.74-30.63-30.63.01-16.9 13.74-30.61 30.65-30.61 16.87.01 30.6 13.76 30.59 30.62-.02 16.89-13.75 30.62-30.61 30.62Zm-.04-50.01c-10.68 0-19.4 8.71-19.4 19.38 0 10.74 8.66 19.43 19.4 19.45 10.69.02 19.42-8.69 19.43-19.38-.01-10.74-8.72-19.46-19.43-19.45Z" style="fill:#757575" transform="translate(73.379 84.98)"/><g style="opacity:.2"><path d="M64.62 7.54c4.01 0 7.81.37 11.31 1.1.42.09.93.6 1.01 1.22.41 3.1.82 6.21 1.21 9.31.17 1.39 1.03 2.46 2.36 2.95.36.13.82.3 1.23.5.53.26 1.08.39 1.63.39.8 0 1.55-.26 2.23-.79 1.82-1.41 3.65-2.81 5.47-4.22l1.7-1.31c.44-.34.82-.51 1.12-.51.28 0 .64.14 1.05.41 2.94 1.92 5.79 4.3 8.96 7.48 3.11 3.12 5.44 5.93 7.33 8.83.51.78.48 1.28-.11 2.05l-1.14 1.48c-1.49 1.93-2.97 3.87-4.45 5.78-.86 1.1-1.02 2.45-.43 3.73.22.46.39.87.52 1.27.48 1.37 1.59 2.26 3.01 2.43 1.37.17 2.73.35 4.1.53 1.65.21 3.29.43 4.94.64.93.12 1.33.47 1.53 1.35.49 2.19.8 4.64.97 7.71.17 3.01.14 6.04-.08 8.98-.2 2.67-.49 4.79-.93 6.68-.15.65-.6 1.05-1.28 1.14l-3.53.46-5.8.75c-1.36.18-2.41 1.01-2.89 2.32-.16.45-.35.9-.54 1.31-.61 1.28-.46 2.66.42 3.8 1.64 2.12 3.27 4.24 4.9 6.36l.63.81c.66.86.68 1.31.1 2.2-1.85 2.83-4.21 5.67-7.22 8.7-3.2 3.21-6.07 5.61-9.04 7.55-.39.26-.73.39-1.02.39-.31 0-.67-.16-1.09-.48l-1.34-1.03c-1.98-1.53-3.97-3.05-5.95-4.56a3.63 3.63 0 0 0-2.18-.74c-.4 0-.79.07-1.13.2-.64.23-1.31.51-2.07.85-1.04.48-1.8 1.52-1.96 2.64-.42 3.14-.83 6.28-1.24 9.42-.08.64-.51 1.13-1.11 1.27-2.69.62-5.47.86-7.58.99l-.69.05c-.67.05-1.3.09-1.9.09h-3.28c-.11 0-.22-.01-.32-.02-.18-.02-.36-.03-.55-.04-3.52-.13-6.4-.45-9.06-1.01-.55-.11-1.22-.43-1.34-1.31l-.47-3.54c-.26-1.96-.51-3.91-.78-5.87-.15-1.15-.94-2.21-2-2.69-.32-.15-.65-.28-.98-.42-.23-.09-.46-.18-.67-.28-.5-.23-1.02-.35-1.54-.35-.55 0-1.38.14-2.2.78l-5.37 4.14-1.87 1.44c-.41.32-.78.48-1.08.48-.29 0-.63-.13-1.03-.39-2.93-1.91-5.78-4.28-8.96-7.47-3.14-3.15-5.48-5.97-7.38-8.89-.47-.73-.45-1.26.09-1.96l.24-.32c1.77-2.31 3.55-4.62 5.33-6.92.93-1.2 1.07-2.65.4-3.99-.17-.34-.32-.75-.49-1.21-.46-1.28-1.5-2.11-2.84-2.27-1.19-.15-2.37-.31-3.55-.46-1.81-.24-3.61-.47-5.43-.7-1.13-.14-1.44-.44-1.68-1.56-.71-3.56-.87-7.15-.93-10.19 0-.08.02-.17.03-.25.02-.25.06-.55.06-.92v-.15c0-.28-.04-.53-.09-.75.01-.62.01-1.22 0-1.81-.01-.85-.02-1.66.03-2.43.16-2.48.46-4.68.92-6.72.13-.56.58-1.03 1.08-1.1.95-.14 1.9-.26 2.9-.39l1.16-.15c1.82-.24 3.65-.48 5.47-.71 1.36-.17 2.42-1.01 2.9-2.31.17-.48.37-.94.57-1.38.58-1.26.43-2.61-.42-3.71-1.37-1.77-2.73-3.53-4.09-5.3l-1.49-1.94c-.61-.8-.64-1.29-.11-2.11 1.92-2.96 4.31-5.82 7.52-9.01 3.14-3.13 5.96-5.47 8.87-7.34.34-.22.65-.33.93-.33.31 0 .66.14 1.03.43 2.44 1.88 4.88 3.75 7.35 5.64.62.46 1.42.73 2.18.73.38 0 .76-.06 1.11-.19.74-.27 1.45-.58 2.04-.84 1.06-.47 1.84-1.52 2-2.67.29-2.13.57-4.27.84-6.41l.37-2.85c.07-.56.34-1.27 1.21-1.41 4.24-.72 8.38-1.08 12.34-1.08m-.58 78.61c12.34 0 22.39-10.04 22.39-22.38 0-5.99-2.33-11.62-6.57-15.86S70 41.33 64.01 41.33c-12.35 0-22.4 10.04-22.4 22.37 0 12.36 10.04 22.43 22.39 22.45h.04m.58-81.61c-4.3 0-8.63.41-12.82 1.11-2.15.36-3.43 2.03-3.69 3.98-.4 3.07-.8 6.18-1.22 9.25-.02.12-.14.28-.25.33-.6.27-1.21.54-1.83.76-.03.01-.06.02-.1.02-.13 0-.29-.06-.39-.13-2.44-1.87-4.88-3.74-7.32-5.62-.91-.7-1.88-1.05-2.86-1.05-.86 0-1.72.27-2.56.81-3.42 2.21-6.48 4.87-9.36 7.74-2.93 2.92-5.65 6.02-7.92 9.5-1.23 1.9-1.14 3.78.24 5.58 1.86 2.42 3.72 4.84 5.58 7.25.16.21.18.37.07.61-.25.53-.47 1.07-.67 1.61-.09.23-.2.34-.45.37-1.84.23-3.68.47-5.52.72-1.36.18-2.72.34-4.08.54-1.73.26-3.16 1.64-3.56 3.4-.54 2.37-.84 4.78-.99 7.2-.1 1.61.01 3.23-.05 4.84 0 .11.1.22.1.34v.15c0 .4-.1.81-.09 1.21.07 3.6.28 7.18 1.01 10.72.49 2.37 1.83 3.62 4.24 3.93 3 .38 5.98.78 8.98 1.16.21.03.32.1.4.32.19.52.39 1.05.64 1.55.16.32.13.53-.09.8-1.87 2.41-3.73 4.83-5.58 7.25-1.31 1.7-1.4 3.62-.23 5.42 2.22 3.43 4.89 6.49 7.77 9.38 2.91 2.91 5.99 5.61 9.45 7.87.9.58 1.79.87 2.67.87.99 0 1.96-.37 2.91-1.1 2.42-1.86 4.84-3.71 7.25-5.58.13-.1.24-.15.36-.15.09 0 .18.03.28.07.54.25 1.11.45 1.65.7.13.06.27.23.29.37.42 3.13.83 6.27 1.24 9.4.26 1.97 1.67 3.42 3.7 3.85 3.16.66 6.35.95 9.57 1.07.33.01.66.06.98.06h3.28c.92 0 1.85-.09 2.77-.14 2.71-.17 5.42-.45 8.07-1.06 1.84-.43 3.17-1.94 3.41-3.81.4-3.14.82-6.27 1.24-9.4a.49.49 0 0 1 .24-.32c.6-.27 1.21-.53 1.83-.75a.36.36 0 0 1 .11-.02c.12 0 .26.05.35.12 2.44 1.86 4.86 3.73 7.29 5.59.95.73 1.93 1.1 2.92 1.1.88 0 1.76-.29 2.66-.87 3.49-2.27 6.6-5 9.53-7.94 2.81-2.83 5.42-5.82 7.61-9.17 1.28-1.96 1.21-3.8-.23-5.67-1.84-2.4-3.68-4.8-5.54-7.19-.18-.23-.21-.41-.08-.67.24-.51.46-1.05.65-1.58.09-.23.21-.33.45-.37 3.11-.4 6.22-.81 9.33-1.21 1.91-.25 3.39-1.57 3.82-3.45.54-2.34.82-4.73.99-7.12.23-3.12.25-6.25.08-9.37-.15-2.76-.43-5.5-1.03-8.19-.48-2.14-1.91-3.4-4.08-3.67-3.01-.38-6.02-.78-9.03-1.16-.3-.04-.46-.15-.56-.45-.18-.53-.4-1.04-.64-1.55-.11-.24-.09-.4.07-.61 1.87-2.42 3.74-4.85 5.6-7.28 1.36-1.76 1.45-3.66.24-5.51-2.21-3.41-4.86-6.45-7.72-9.32-2.9-2.91-5.99-5.61-9.44-7.87-.91-.6-1.81-.89-2.69-.89-.99 0-1.97.38-2.95 1.13-2.4 1.84-4.8 3.68-7.19 5.53-.14.11-.26.16-.39.16-.1 0-.2-.03-.32-.09-.49-.24-1-.44-1.51-.62-.25-.09-.37-.21-.41-.5-.39-3.11-.8-6.22-1.21-9.33-.24-1.85-1.67-3.41-3.37-3.76-3.84-.84-7.86-1.2-11.9-1.2Zm-.58 78.61h-.03c-10.73-.02-19.4-8.71-19.4-19.45 0-10.66 8.73-19.37 19.4-19.38h.01c10.71 0 19.41 8.72 19.41 19.44 0 10.69-8.71 19.39-19.39 19.39z" style="fill:#424242" transform="translate(73.379 84.98)"/></g><path d="M82.7 121.86c-.55 0-1.14-.07-1.76-.21-7.12-1.63-11.16-10.58-13.3-17.8-2.66-8.98-3.39-18.56-2.93-24.08l.1-1.2L66 78.4c2.89-.4 5.56-1.64 7.72-3.58l.89-.8.98.69c4.52 3.2 11.39 9.92 16.55 17.72 4.15 6.28 8.4 15.12 5.08 21.62-1.39 2.72-3.28 3.29-4.62 3.29-1.44 0-2.98-.64-4.66-1.95-.08 2.16-.6 3.77-1.56 4.88-.91 1.05-2.18 1.59-3.68 1.59z" style="fill:url(#j)" transform="translate(6.76 6.368)"/><path d="M74.71 75.94c9.55 6.76 26.51 26.97 21.16 37.44-.88 1.72-2 2.47-3.28 2.47-1.86 0-4.08-1.59-6.39-4.15.72 5.12-.09 8.67-3.5 8.67-.43 0-.91-.06-1.43-.18-11.47-2.63-16.04-28.64-15.08-40.29 3.17-.45 6.14-1.83 8.52-3.96m-.22-3.83-1.78 1.6a13.036 13.036 0 0 1-6.92 3.21l-2.38.33-.2 2.39c-.47 5.66.27 15.47 2.99 24.63 3.23 10.9 8.21 17.41 14.4 18.84.73.17 1.44.25 2.1.25 1.95 0 3.61-.72 4.8-2.09.76-.88 1.3-1.98 1.61-3.33 1.19.61 2.35.91 3.47.91 1.44 0 4.13-.53 5.95-4.11 2.89-5.66 1.1-13.65-5.16-23.13-5.27-7.97-12.3-14.84-16.94-18.12Z" style="fill:#bdbdbd" transform="translate(6.76 6.368)"/><circle cx="70.759" cy="70.398" r="16.72" stroke-miterlimit="10" style="fill:url(#k);stroke:#a67c52;stroke-width:3;stroke-miterlimit:10"/></svg>