<?xml version="1.0" encoding="UTF-8" standalone="no"?>
<svg
   xmlns:dc="http://purl.org/dc/elements/1.1/"
   xmlns:cc="http://creativecommons.org/ns#"
   xmlns:rdf="http://www.w3.org/1999/02/22-rdf-syntax-ns#"
   xmlns:svg="http://www.w3.org/2000/svg"
   xmlns="http://www.w3.org/2000/svg"
   xmlns:sodipodi="http://sodipodi.sourceforge.net/DTD/sodipodi-0.dtd"
   xmlns:inkscape="http://www.inkscape.org/namespaces/inkscape"
   viewBox="0 0 218.00001 217.99999"
   version="1.1"
   id="svg109"
   sodipodi:docname="lojbo.svg"
   width="218"
   height="218"
   inkscape:version="0.92.5 (2060ec1f9f, 2020-04-08)"
   inkscape:export-filename="/home/user/lojban/lojban-made-easy/public/vreji/img/lojbo-16.png"
   inkscape:export-xdpi="7.4288669"
   inkscape:export-ydpi="7.4288669">
  <metadata
     id="metadata115">
    <rdf:RDF>
      <cc:Work
         rdf:about="">
        <dc:format>image/svg+xml</dc:format>
        <dc:type
           rdf:resource="http://purl.org/dc/dcmitype/StillImage" />
        <dc:title></dc:title>
      </cc:Work>
    </rdf:RDF>
  </metadata>
  <defs
     id="defs113">
    <linearGradient
       id="f-3"
       gradientUnits="userSpaceOnUse"
       x1="64.092003"
       x2="64.092003"
       y1="123"
       y2="4.5359998">
      <stop
         offset=".0022919"
         stop-color="#9E9E9E"
         id="stop117" />
      <stop
         offset=".2862"
         stop-color="#ADADAD"
         id="stop119" />
      <stop
         offset=".6397"
         stop-color="#B9B9B9"
         id="stop121" />
      <stop
         offset="1"
         stop-color="#BDBDBD"
         id="stop123" />
    </linearGradient>
    <linearGradient
       id="e-6"
       gradientUnits="userSpaceOnUse"
       x1="64.092003"
       x2="64.092003"
       y1="123.03"
       y2="4.5029998">
      <stop
         offset=".0075335"
         stop-color="#616161"
         id="stop128" />
      <stop
         offset=".5931"
         stop-color="#888"
         id="stop130" />
      <stop
         offset="1"
         stop-color="#9E9E9E"
         id="stop132" />
    </linearGradient>
  </defs>
  <sodipodi:namedview
     pagecolor="#ffffff"
     bordercolor="#666666"
     borderopacity="1"
     objecttolerance="10"
     gridtolerance="10"
     guidetolerance="10"
     inkscape:pageopacity="0"
     inkscape:pageshadow="2"
     inkscape:window-width="1866"
     inkscape:window-height="1016"
     id="namedview111"
     showgrid="false"
     fit-margin-top="10"
     fit-margin-left="10"
     fit-margin-right="10"
     fit-margin-bottom="10"
     inkscape:zoom="1.1573349"
     inkscape:cx="-34.461163"
     inkscape:cy="217.15894"
     inkscape:window-x="54"
     inkscape:window-y="27"
     inkscape:window-maximized="1"
     inkscape:current-layer="svg109" />
  <radialGradient
     id="h"
     cx="67.07"
     cy="67.367996"
     gradientUnits="userSpaceOnUse"
     r="62.258999"
     gradientTransform="translate(6.7590577,6.3676898)">
    <stop
       offset=".175"
       stop-color="#BDBDBD"
       id="stop10" />
    <stop
       offset=".5168"
       stop-color="#E0E0E0"
       id="stop12" />
    <stop
       offset=".8526"
       stop-color="#fff"
       id="stop14" />
  </radialGradient>
  <path
     d="m 59.189058,59.69769 c -4.52,-3.2 -11.39,-9.92 -16.55,-17.73 -4.15,-6.27 -8.4,-15.12 -5.08,-21.62 1.39,-2.72 3.28,-3.29 4.62,-3.29 1.44,0 2.98,0.64 4.66,1.95 0.08,-2.16 0.6,-3.78 1.56,-4.88 0.9,-1.03 2.16,-1.57 3.67,-1.57 0.55,0 1.14,0.07 1.77,0.22 7.12,1.63 11.16,10.58 13.3,17.8 2.66,8.98 3.39,18.56 2.93,24.08 l -0.1,1.2 -1.19,0.17 c -2.89,0.4 -5.56,1.64 -7.72,3.58 l -0.89,0.8 z"
     id="path17"
     inkscape:connector-curvature="0"
     style="fill:url(#h)" />
  <path
     d="m 52.059058,14.05769 c 0.43,0 0.91,0.06 1.43,0.18 11.46,2.63 16.04,28.63 15.07,40.29 -3.16,0.44 -6.13,1.82 -8.51,3.95 -9.55,-6.76 -26.51,-26.97 -21.16,-37.44 0.88,-1.71 2,-2.47 3.28,-2.47 1.86,0 4.08,1.59 6.39,4.15 -0.71,-5.11 0.1,-8.66 3.5,-8.66 m 0,-3 c -1.95,0 -3.61,0.72 -4.8,2.09 -0.76,0.88 -1.3,1.98 -1.61,3.33 -1.19,-0.61 -2.35,-0.91 -3.48,-0.91 -1.44,0 -4.13,0.53 -5.95,4.1 -2.89,5.66 -1.1,13.65 5.16,23.13 5.27,7.96 12.3,14.84 16.94,18.12 l 1.95,1.38 1.78,-1.6 c 1.94,-1.74 4.34,-2.85 6.93,-3.21 l 2.38,-0.33 0.2,-2.39 c 0.47,-5.66 -0.27,-15.47 -2.99,-24.63 -3.23,-10.9 -8.21,-17.41 -14.4,-18.83 -0.74,-0.17 -1.45,-0.25 -2.11,-0.25 z"
     id="path19"
     inkscape:connector-curvature="0"
     style="fill:#bdbdbd" />
  <radialGradient
     id="g"
     cx="68.241997"
     cy="66.071999"
     gradientUnits="userSpaceOnUse"
     r="62.140999"
     gradientTransform="translate(6.7590577,6.3676898)">
    <stop
       offset=".175"
       stop-color="#BDBDBD"
       id="stop21" />
    <stop
       offset=".5168"
       stop-color="#E0E0E0"
       id="stop23" />
    <stop
       offset=".8526"
       stop-color="#fff"
       id="stop25" />
  </radialGradient>
  <path
     d="m 45.999058,71.67769 c -11.08,0 -30.73,-2.78 -34.1,-13.18 -0.65,-2.02 -0.49,-3.72 0.47,-5.04 0.98,-1.34 2.67,-2.16 5.14,-2.46 -1.65,-1.78 -2.43,-3.45 -2.36,-5.08 0.07,-1.69 1.05,-3.13 2.89,-4.29 1.8,-1.13 3.98,-1.7 6.49,-1.7 11.85,0 28.57,12.71 34.6,19.83 l 0.78,0.92 -0.73,0.96 c -0.87,1.14 -1.56,2.42 -2.06,3.8 -0.49,1.35 -0.78,2.76 -0.85,4.19 l -0.06,1.2 -1.18,0.2 c -2.53,0.42 -5.65,0.65 -9.03,0.65 z"
     id="path28"
     inkscape:connector-curvature="0"
     style="fill:url(#g)" />
  <path
     d="m 24.529058,41.42769 c 10.95,0 27.12,11.83 33.45,19.3 -0.94,1.24 -1.72,2.65 -2.28,4.19 -0.56,1.53 -0.86,3.08 -0.94,4.62 -2.4,0.41 -5.43,0.64 -8.77,0.64 -12.71,0 -29.8,-3.28 -32.67,-12.14 -1.33,-4.12 1.64,-5.68 6.64,-5.68 0.45,0 0.91,0.01 1.39,0.04 -4.65,-3.52 -6.52,-6.98 -2.52,-9.49 1.64,-1.03 3.57,-1.48 5.7,-1.48 m 0,-3 c -2.8,0 -5.25,0.65 -7.29,1.92 -2.85,1.79 -3.53,3.97 -3.59,5.49 -0.06,1.39 0.34,2.77 1.22,4.18 -1.64,0.53 -2.87,1.38 -3.72,2.54 -0.87,1.2 -1.6900003,3.27 -0.69,6.39 3.4,10.5 21.26,14.22 35.52,14.22 3.47,0 6.68,-0.23 9.27,-0.68 l 2.36,-0.4 0.13,-2.4 c 0.07,-1.28 0.33,-2.54 0.77,-3.76 0.45,-1.24 1.07,-2.38 1.85,-3.4 l 1.46,-1.92 -1.56,-1.84 c -7.04,-8.31 -23.82,-20.34 -35.73,-20.34 z"
     id="path30"
     inkscape:connector-curvature="0"
     style="fill:#bdbdbd" />
  <radialGradient
     id="f"
     cx="63.860001"
     cy="67.43"
     gradientUnits="userSpaceOnUse"
     r="63.471001"
     gradientTransform="translate(6.7590577,6.3676898)">
    <stop
       offset=".175"
       stop-color="#BDBDBD"
       id="stop32" />
    <stop
       offset=".5168"
       stop-color="#E0E0E0"
       id="stop34" />
    <stop
       offset=".8526"
       stop-color="#fff"
       id="stop36" />
  </radialGradient>
  <path
     d="m 79.529058,58.81769 c -1.15,-0.87 -2.43,-1.57 -3.8,-2.06 -1.35,-0.49 -2.76,-0.78 -4.19,-0.86 l -1.2,-0.06 -0.2,-1.18 c -0.93,-5.46 -1.04,-15.08 0.83,-24.24 1.5,-7.37 4.75,-16.63 11.7,-18.87 0.8,-0.26 1.57,-0.39 2.27,-0.39 1.35,0 2.52,0.49 3.41,1.42 0.97,1.02 1.58,2.54 1.83,4.59 1.7,-1.58 3.32,-2.36 4.88,-2.36 1.22,0 2.98,0.5 4.48,2.89 3.880002,6.19 0.41,15.37 -3.18,21.99 -4.46,8.23 -10.73,15.52 -14.95,19.1 l -0.92,0.78 z"
     id="path39"
     inkscape:connector-curvature="0"
     style="fill:url(#f)" />
  <path
     d="m 84.929058,12.64769 c 3.08,0 4.09,3.39 3.84,8.35 2.18,-2.89 4.35,-4.71 6.28,-4.71 1.17,0 2.26,0.67 3.21,2.19 6.240002,9.97 -8.9,31.58 -17.83,39.15 -1.24,-0.94 -2.65,-1.72 -4.19,-2.28 -1.53,-0.56 -3.08,-0.86 -4.63,-0.94 -1.97,-11.54 0.32,-37.82 11.51,-41.43 0.67,-0.23 1.27,-0.33 1.81,-0.33 m 0,-3.0000002 c -0.86,0 -1.78,0.16 -2.73,0.4700002 -6.04,1.95 -10.44,8.87 -12.7,20 -1.91,9.35 -1.79,19.19 -0.84,24.79 l 0.4,2.36 2.39,0.13 c 1.29,0.07 2.55,0.33 3.76,0.77 1.23,0.45 2.38,1.07 3.41,1.85 l 1.92,1.45 1.83,-1.55 c 4.33,-3.67 10.74,-11.13 15.3,-19.53 5.420002,-9.99 6.500002,-18.12 3.130002,-23.5 -1.860002,-2.97 -4.160002,-3.6 -5.750002,-3.6 -1.3,0 -2.6,0.41 -3.92,1.23 -0.39,-1.21 -0.96,-2.21 -1.7,-2.99 -1.18,-1.23 -2.73,-1.8800002 -4.5,-1.8800002 z"
     id="path41"
     inkscape:connector-curvature="0"
     style="fill:#bdbdbd" />
  <radialGradient
     id="e"
     cx="62.514"
     cy="66.247002"
     gradientUnits="userSpaceOnUse"
     r="62.182999"
     gradientTransform="translate(6.7590577,6.3676898)">
    <stop
       offset=".175"
       stop-color="#BDBDBD"
       id="stop43" />
    <stop
       offset=".5168"
       stop-color="#E0E0E0"
       id="stop45" />
    <stop
       offset=".8526"
       stop-color="#fff"
       id="stop47" />
  </radialGradient>
  <path
     d="m 89.939058,69.82769 c -1.23,0 -2.39,-0.04 -3.44,-0.13 l -1.2,-0.1 -0.17,-1.19 c -0.4,-2.88 -1.64,-5.55 -3.58,-7.72 l -0.79,-0.89 0.69,-0.98 c 5.8,-8.19 22.140002,-22.82 34.080002,-22.82 1.95,0 3.72,0.4 5.26,1.18 1.94,0.99 3.03,2.34 3.25,4.02 0.21,1.61 -0.42,3.35 -1.91,5.26 2.56,0.1 4.39,0.82 5.46,2.15 0.98,1.23 1.24,2.85 0.79,4.84 -2.81,12.26 -27.58,16.38 -38.440002,16.38 z"
     id="path50"
     inkscape:connector-curvature="0"
     style="fill:url(#e)" />
  <path
     d="m 115.52906,37.50769 c 1.66,0 3.2,0.32 4.58,1.02 4.21,2.15 2.65,5.76 -1.68,9.67 1.12,-0.16 2.16,-0.24 3.1,-0.24 3.95,0 6.24,1.45 5.38,5.17 -2.41,10.48 -24.33,15.2 -36.980002,15.2 -1.19,0 -2.31,-0.04 -3.31,-0.13 -0.44,-3.16 -1.82,-6.13 -3.95,-8.51 5.88,-8.3 21.890002,-22.18 32.860002,-22.18 m 0,-3 c -12.46,0 -29.350002,15.03 -35.310002,23.45 l -1.38,1.95 1.6,1.78 c 1.74,1.94 2.85,4.34 3.21,6.92 l 0.33,2.38 2.39,0.2 c 1.09,0.09 2.28,0.14 3.56,0.14 11.710002,0 36.860002,-4.28 39.910002,-17.53 0.7,-3.05 -0.2,-5.01 -1.08,-6.11 -0.94,-1.19 -2.31,-1.99 -4.09,-2.4 0.75,-1.48 1.04,-2.9 0.85,-4.28 -0.2,-1.51 -1.06,-3.63 -4.06,-5.16 -1.74,-0.89 -3.73,-1.34 -5.93,-1.34 z"
     id="path52"
     inkscape:connector-curvature="0"
     style="fill:#bdbdbd" />
  <radialGradient
     id="d"
     cx="66.901001"
     cy="61.644001"
     gradientUnits="userSpaceOnUse"
     r="62.132"
     gradientTransform="translate(6.7590577,6.3676898)">
    <stop
       offset=".175"
       stop-color="#BDBDBD"
       id="stop54" />
    <stop
       offset=".5168"
       stop-color="#E0E0E0"
       id="stop56" />
    <stop
       offset=".8526"
       stop-color="#fff"
       id="stop58" />
  </radialGradient>
  <path
     d="m 56.589058,129.64769 c -1.35,0 -2.52,-0.49 -3.41,-1.42 -0.97,-1.02 -1.58,-2.54 -1.83,-4.58 -1.7,1.58 -3.32,2.36 -4.88,2.36 -1.22,0 -2.98,-0.5 -4.48,-2.89 -3.88,-6.19 -0.41,-15.37 3.18,-21.99 4.46,-8.23 10.73,-15.52 14.95,-19.1 l 0.92,-0.78 0.96,0.72 c 1.15,0.87 2.43,1.57 3.8,2.07 1.34,0.49 2.75,0.78 4.19,0.86 l 1.2,0.07 0.2,1.18 c 0.93,5.46 1.04,15.08 -0.83,24.24 -1.5,7.37 -4.75,16.63 -11.7,18.88 -0.81,0.24 -1.57,0.38 -2.27,0.38 z"
     id="path61"
     inkscape:connector-curvature="0"
     style="fill:url(#d)" />
  <path
     d="m 61.089058,83.16769 c 1.24,0.94 2.65,1.72 4.19,2.28 1.53,0.56 3.08,0.86 4.62,0.94 1.97,11.54 -0.32,37.82 -11.51,41.43 -0.67,0.22 -1.27,0.32 -1.81,0.32 -3.08,0 -4.09,-3.39 -3.84,-8.35 -2.18,2.89 -4.35,4.71 -6.28,4.71 -1.17,0 -2.26,-0.67 -3.21,-2.19 -6.24,-9.96 8.91,-31.58 17.84,-39.14 m -0.11,-3.84 -1.83,1.55 c -4.33,3.67 -10.74,11.13 -15.3,19.53 -5.42,9.99 -6.5,18.12 -3.13,23.5 1.86,2.97 4.16,3.6 5.75,3.6 1.3,0 2.6,-0.41 3.92,-1.23 0.39,1.21 0.96,2.2 1.7,2.99 1.17,1.23 2.73,1.88 4.49,1.88 0.86,0 1.78,-0.16 2.73,-0.47 6.04,-1.95 10.43,-8.87 12.7,-20 1.91,-9.35 1.8,-19.19 0.84,-24.79 l -0.4,-2.36 -2.39,-0.13 c -1.29,-0.07 -2.55,-0.33 -3.76,-0.77 -1.23,-0.45 -2.38,-1.07 -3.41,-1.85 z"
     id="path63"
     inkscape:connector-curvature="0"
     style="fill:#bdbdbd" />
  <radialGradient
     id="c"
     cx="62.451"
     cy="63.027"
     gradientUnits="userSpaceOnUse"
     r="62.467999">
    <stop
       offset=".00045042"
       stop-color="#C4C4C4"
       id="stop65" />
    <stop
       offset=".0921"
       stop-color="#CCCDCF"
       id="stop67" />
    <stop
       offset=".3624"
       stop-color="#E0E0E2"
       id="stop69" />
    <stop
       offset=".7532"
       stop-color="#F7F7F7"
       id="stop71" />
    <stop
       offset="1"
       stop-color="#fff"
       id="stop73" />
  </radialGradient>
  <radialGradient
     id="b"
     cx="68.177002"
     cy="62.845001"
     gradientUnits="userSpaceOnUse"
     r="63.194"
     gradientTransform="translate(6.7590577,6.3676898)">
    <stop
       offset=".175"
       stop-color="#BDBDBD"
       id="stop80" />
    <stop
       offset=".5168"
       stop-color="#E0E0E0"
       id="stop82" />
    <stop
       offset=".8526"
       stop-color="#fff"
       id="stop84" />
  </radialGradient>
  <path
     d="m 25.979058,104.78769 c -1.95,0 -3.72,-0.4 -5.26,-1.18 -1.94,-0.99 -3.03,-2.34 -3.25,-4.02 -0.21,-1.61 0.42,-3.35 1.91,-5.26 -2.56,-0.1 -4.4,-0.82 -5.46,-2.15 -0.98,-1.23 -1.24,-2.85 -0.79,-4.84 2.82,-12.25 27.59,-16.37 38.45,-16.37 1.24,0 2.39,0.04 3.44,0.13 l 1.2,0.1 0.17,1.19 c 0.4,2.88 1.64,5.55 3.58,7.72 l 0.8,0.89 -0.69,0.98 c -5.81,8.18 -22.15,22.81 -34.1,22.81 z"
     id="path87"
     inkscape:connector-curvature="0"
     style="fill:url(#b)" />
  <path
     d="m 51.579058,72.46769 c 1.19,0 2.31,0.04 3.31,0.13 0.44,3.16 1.82,6.13 3.95,8.51 -5.87,8.3 -21.89,22.18 -32.86,22.18 -1.66,0 -3.2,-0.32 -4.58,-1.02 -4.2,-2.15 -2.65,-5.76 1.69,-9.67 -1.12,0.16 -2.16,0.24 -3.1,0.24 -3.95,0 -6.24,-1.45 -5.39,-5.17 2.41,-10.48 24.33,-15.2 36.98,-15.2 m 0,-3 c -11.71,0 -36.86,4.28 -39.91,17.53 -0.7,3.05 0.2,5.01 1.07,6.11 0.94,1.19 2.31,1.99 4.09,2.4 -0.75,1.48 -1.04,2.9 -0.86,4.27 0.2,1.51 1.06,3.63 4.05,5.16 1.75,0.9 3.75,1.35 5.94,1.35 12.46,0 29.35,-15.03 35.31,-23.45 l 1.38,-1.95 -1.6,-1.78 c -1.74,-1.95 -2.85,-4.34 -3.21,-6.92 l -0.33,-2.38 -2.39,-0.2 c -1.06,-0.1 -2.26,-0.14 -3.54,-0.14 z"
     id="path89"
     inkscape:connector-curvature="0"
     style="fill:#bdbdbd" />
  <radialGradient
     id="a"
     cx="63.673"
     cy="61.703999"
     gradientUnits="userSpaceOnUse"
     r="62.469002">
    <stop
       offset=".175"
       stop-color="#BDBDBD"
       id="stop91" />
    <stop
       offset=".5168"
       stop-color="#E0E0E0"
       id="stop93" />
    <stop
       offset=".8526"
       stop-color="#fff"
       id="stop95" />
  </radialGradient>
  <radialGradient
     id="i"
     cx="64"
     cy="64.026001"
     gradientUnits="userSpaceOnUse"
     r="16.724001"
     gradientTransform="translate(6.7590577,6.3676898)">
    <stop
       offset=".0031064"
       stop-color="#FF8F00"
       id="stop102" />
    <stop
       offset="1"
       stop-color="#FFB300"
       id="stop104" />
  </radialGradient>
  <g
     id="g217"
     transform="translate(6.7590577,6.3676898)">
    <path
       id="path76"
       d="m 110.23,94.49 c -11.85,0 -28.57,-12.71 -34.6,-19.83 l -0.78,-0.92 0.72,-0.96 c 0.88,-1.16 1.57,-2.43 2.07,-3.8 0.49,-1.35 0.78,-2.76 0.86,-4.19 l 0.06,-1.2 1.18,-0.2 c 2.51,-0.43 5.63,-0.66 9.01,-0.66 11.08,0 30.73,2.78 34.1,13.18 0.65,2.02 0.5,3.72 -0.47,5.04 -0.98,1.34 -2.67,2.16 -5.14,2.46 1.65,1.78 2.43,3.45 2.36,5.08 -0.07,1.69 -1.05,3.13 -2.89,4.28 -1.79,1.15 -3.97,1.72 -6.48,1.72 z"
       inkscape:connector-curvature="0"
       style="fill:url(#c)" />
    <path
       id="path78"
       d="m 88.76,64.24 c 12.71,0 29.81,3.28 32.67,12.15 1.34,4.12 -1.64,5.69 -6.64,5.69 -0.45,0 -0.91,-0.01 -1.39,-0.04 4.65,3.51 6.52,6.98 2.52,9.49 -1.63,1.02 -3.56,1.47 -5.7,1.47 C 99.27,93 83.1,81.17 76.77,73.7 c 0.94,-1.24 1.72,-2.65 2.28,-4.19 0.56,-1.53 0.86,-3.08 0.94,-4.63 2.4,-0.41 5.43,-0.64 8.77,-0.64 m 0,-3 c -3.47,0 -6.67,0.23 -9.27,0.68 l -2.36,0.4 -0.13,2.4 c -0.07,1.28 -0.33,2.55 -0.77,3.76 -0.45,1.23 -1.07,2.37 -1.85,3.41 l -1.45,1.92 1.55,1.83 C 81.53,83.96 98.31,96 110.22,96 c 2.8,0 5.25,-0.65 7.29,-1.93 2.85,-1.78 3.52,-3.97 3.59,-5.49 0.06,-1.39 -0.34,-2.77 -1.22,-4.18 1.64,-0.53 2.87,-1.38 3.72,-2.54 0.87,-1.2 1.69,-3.27 0.68,-6.39 -3.39,-10.5 -21.26,-14.23 -35.52,-14.23 z"
       inkscape:connector-curvature="0"
       style="fill:#bdbdbd" />
  </g>
  <g
     transform="translate(73.378651,84.980005)"
     id="g156">
    <path
       style="fill:url(#f-3)"
       inkscape:connector-curvature="0"
       id="path126"
       d="m 123.17,59.68 c -0.15,-2.76 -0.43,-5.5 -1.03,-8.19 -0.48,-2.14 -1.91,-3.4 -4.08,-3.67 -3.01,-0.38 -6.02,-0.78 -9.03,-1.16 -0.3,-0.04 -0.46,-0.15 -0.56,-0.45 -0.18,-0.53 -0.4,-1.04 -0.64,-1.55 -0.11,-0.24 -0.09,-0.4 0.07,-0.61 1.87,-2.42 3.74,-4.85 5.6,-7.28 1.36,-1.76 1.45,-3.66 0.24,-5.51 -2.21,-3.41 -4.86,-6.45 -7.72,-9.32 -2.9,-2.91 -5.99,-5.61 -9.44,-7.87 -1.94,-1.27 -3.79,-1.18 -5.64,0.24 -2.4,1.84 -4.8,3.68 -7.19,5.53 -0.24,0.19 -0.43,0.21 -0.71,0.08 -0.49,-0.24 -1,-0.44 -1.51,-0.62 C 81.28,19.21 81.16,19.09 81.12,18.8 80.73,15.69 80.32,12.58 79.91,9.47 79.67,7.62 78.24,6.06 76.54,5.71 68.57,4.04 59.93,4.29 51.79,5.65 49.64,6.01 48.36,7.68 48.1,9.63 c -0.4,3.07 -0.8,6.18 -1.22,9.25 -0.02,0.12 -0.14,0.28 -0.25,0.33 -0.6,0.27 -1.21,0.54 -1.83,0.76 -0.13,0.05 -0.36,-0.02 -0.49,-0.12 -2.44,-1.87 -4.88,-3.74 -7.32,-5.62 -1.7,-1.31 -3.62,-1.41 -5.42,-0.24 -3.42,2.21 -6.48,4.87 -9.36,7.74 -2.93,2.92 -5.65,6.02 -7.92,9.5 -1.23,1.9 -1.14,3.78 0.24,5.58 1.86,2.42 3.72,4.84 5.58,7.25 0.16,0.21 0.18,0.37 0.07,0.61 -0.25,0.53 -0.47,1.07 -0.67,1.61 -0.09,0.23 -0.2,0.34 -0.45,0.37 -1.84,0.23 -3.68,0.47 -5.52,0.72 -1.36,0.18 -2.72,0.34 -4.08,0.54 -1.73,0.26 -3.16,1.64 -3.56,3.4 -0.54,2.37 -0.84,4.78 -0.99,7.2 -0.1,1.61 0.01,3.23 -0.05,4.84 0,0.11 0.1,0.22 0.1,0.34 v 0.15 c 0,0.4 -0.1,0.81 -0.09,1.21 0.07,3.6 0.28,7.18 1.01,10.72 0.49,2.37 1.83,3.62 4.24,3.93 3,0.38 5.98,0.78 8.98,1.16 0.21,0.03 0.32,0.1 0.4,0.32 0.19,0.52 0.39,1.05 0.64,1.55 0.16,0.32 0.13,0.53 -0.09,0.8 -1.87,2.41 -3.73,4.83 -5.58,7.25 -1.31,1.7 -1.4,3.62 -0.23,5.42 2.22,3.43 4.89,6.49 7.77,9.38 2.91,2.91 5.99,5.61 9.45,7.87 1.91,1.24 3.78,1.16 5.58,-0.22 2.42,-1.86 4.84,-3.71 7.25,-5.58 0.22,-0.18 0.4,-0.19 0.65,-0.08 0.54,0.25 1.11,0.45 1.65,0.7 0.13,0.06 0.27,0.23 0.29,0.37 0.42,3.13 0.83,6.27 1.24,9.4 0.26,1.97 1.67,3.42 3.7,3.85 3.16,0.66 6.35,0.95 9.57,1.07 0.33,0.01 0.66,0.06 0.98,0.06 h 3.28 c 0.92,0 1.85,-0.09 2.77,-0.14 2.71,-0.17 5.42,-0.45 8.07,-1.06 1.84,-0.43 3.17,-1.94 3.41,-3.81 0.4,-3.14 0.82,-6.27 1.24,-9.4 0.02,-0.12 0.13,-0.27 0.24,-0.32 0.6,-0.27 1.21,-0.53 1.83,-0.75 0.13,-0.05 0.34,0.01 0.46,0.1 2.44,1.86 4.86,3.73 7.29,5.59 1.8,1.38 3.67,1.47 5.58,0.23 3.49,-2.27 6.6,-5 9.53,-7.94 2.81,-2.83 5.42,-5.82 7.61,-9.17 1.28,-1.96 1.21,-3.8 -0.23,-5.67 -1.84,-2.4 -3.68,-4.8 -5.54,-7.19 -0.18,-0.23 -0.21,-0.41 -0.08,-0.67 0.24,-0.51 0.46,-1.05 0.65,-1.58 0.09,-0.23 0.21,-0.33 0.45,-0.37 3.11,-0.4 6.22,-0.81 9.33,-1.21 1.91,-0.25 3.39,-1.57 3.82,-3.45 0.54,-2.34 0.82,-4.73 0.99,-7.12 0.25,-3.15 0.27,-6.28 0.1,-9.41 z M 64.01,83.15 C 53.28,83.13 44.61,74.44 44.61,63.7 c 0,-10.66 8.73,-19.37 19.4,-19.38 10.71,0 19.42,8.71 19.42,19.44 0,10.7 -8.73,19.41 -19.42,19.39 z" />
    <path
       style="fill:url(#e-6)"
       inkscape:connector-curvature="0"
       id="path135"
       d="m 61.79,4.5 c 1.55,0 3.08,0.05 4.63,0.05 0.09,0.02 0.2,0 0.28,0 1.07,0.06 2.13,0.1 3.2,0.18 2.27,0.18 4.53,0.45 6.74,0.98 1.82,0.44 3.12,1.91 3.37,3.76 0.41,3.11 0.82,6.22 1.21,9.33 0.04,0.29 0.16,0.41 0.41,0.5 0.51,0.19 1.02,0.39 1.51,0.62 0.28,0.14 0.47,0.11 0.71,-0.08 2.39,-1.85 4.79,-3.69 7.19,-5.53 1.85,-1.42 3.69,-1.5 5.64,-0.24 3.45,2.25 6.54,4.96 9.44,7.87 2.86,2.87 5.51,5.91 7.72,9.32 1.21,1.86 1.11,3.75 -0.24,5.51 -1.87,2.43 -3.73,4.86 -5.6,7.28 -0.16,0.21 -0.18,0.37 -0.07,0.61 0.24,0.51 0.45,1.02 0.64,1.55 0.1,0.29 0.26,0.41 0.56,0.45 3.01,0.38 6.02,0.78 9.03,1.16 2.17,0.27 3.6,1.53 4.08,3.67 0.6,2.7 0.88,5.44 1.03,8.19 0.17,3.13 0.15,6.25 -0.08,9.37 -0.18,2.39 -0.46,4.78 -0.99,7.12 -0.43,1.87 -1.91,3.2 -3.82,3.45 -3.11,0.4 -6.22,0.81 -9.33,1.21 -0.25,0.03 -0.37,0.13 -0.45,0.37 -0.19,0.54 -0.41,1.07 -0.65,1.58 -0.13,0.26 -0.1,0.44 0.08,0.67 1.86,2.39 3.7,4.79 5.54,7.19 1.43,1.87 1.51,3.7 0.23,5.67 -2.19,3.35 -4.79,6.34 -7.61,9.17 -2.93,2.94 -6.04,5.67 -9.53,7.94 -1.9,1.24 -3.78,1.15 -5.58,-0.23 -2.43,-1.86 -4.85,-3.73 -7.29,-5.59 -0.11,-0.09 -0.33,-0.15 -0.46,-0.1 -0.62,0.22 -1.23,0.48 -1.83,0.75 -0.11,0.05 -0.23,0.2 -0.24,0.32 -0.42,3.13 -0.83,6.27 -1.24,9.41 -0.24,1.87 -1.57,3.38 -3.41,3.81 -2.66,0.62 -5.36,0.9 -8.07,1.07 -0.92,0.06 -1.85,0.11 -2.77,0.15 h -3.28 c -0.33,-0.02 -0.66,-0.06 -0.98,-0.07 -3.22,-0.12 -6.41,-0.42 -9.57,-1.08 -2.03,-0.43 -3.44,-1.88 -3.7,-3.85 -0.42,-3.14 -0.82,-6.27 -1.24,-9.4 -0.02,-0.14 -0.16,-0.31 -0.29,-0.37 -0.54,-0.25 -1.1,-0.45 -1.65,-0.7 -0.25,-0.12 -0.42,-0.1 -0.65,0.08 -2.41,1.87 -4.83,3.72 -7.25,5.58 -1.8,1.38 -3.67,1.46 -5.58,0.22 -3.46,-2.25 -6.54,-4.95 -9.45,-7.87 -2.88,-2.89 -5.54,-5.95 -7.77,-9.38 -1.17,-1.8 -1.08,-3.72 0.23,-5.42 1.86,-2.42 3.71,-4.84 5.58,-7.25 0.22,-0.28 0.25,-0.49 0.09,-0.8 -0.25,-0.5 -0.45,-1.02 -0.64,-1.55 -0.08,-0.21 -0.2,-0.29 -0.41,-0.32 -3,-0.39 -5.99,-0.78 -8.99,-1.16 C 7.82,79.36 6.44,78.11 5.95,75.74 5.22,72.21 4.94,68.63 4.87,65.02 4.86,64.62 4.83,64.21 4.82,63.81 v -0.15 c 0.01,-0.11 0.04,-0.22 0.04,-0.34 0.06,-1.61 0.09,-3.23 0.19,-4.84 0.15,-2.42 0.45,-4.83 0.99,-7.2 0.4,-1.76 1.83,-3.14 3.56,-3.4 1.36,-0.21 2.72,-0.37 4.08,-0.54 1.84,-0.24 3.68,-0.48 5.52,-0.72 0.25,-0.03 0.36,-0.13 0.45,-0.37 0.2,-0.55 0.42,-1.09 0.67,-1.61 0.11,-0.24 0.09,-0.4 -0.07,-0.61 -1.87,-2.41 -3.72,-4.83 -5.58,-7.25 -1.39,-1.8 -1.48,-3.68 -0.24,-5.58 2.27,-3.48 4.98,-6.58 7.92,-9.5 2.88,-2.87 5.93,-5.52 9.36,-7.74 1.8,-1.16 3.72,-1.06 5.42,0.24 2.44,1.88 4.88,3.75 7.32,5.62 0.13,0.09 0.35,0.17 0.49,0.12 0.62,-0.22 1.23,-0.48 1.83,-0.75 0.11,-0.05 0.23,-0.2 0.25,-0.32 0.42,-3.07 0.82,-6.14 1.22,-9.22 0.28,-2.17 1.56,-3.6 3.69,-4.06 2.51,-0.55 5.06,-0.83 7.62,-0.99 0.72,0 1.48,-0.05 2.24,-0.1 z m -5.16,9.37 c -0.01,0.03 -0.03,0.07 -0.03,0.1 -0.38,2.91 -0.78,5.82 -1.14,8.73 -0.24,1.95 -1.23,3.31 -3.1,3.96 -2.13,0.73 -4.2,1.59 -6.22,2.58 -1.67,0.81 -3.29,0.63 -4.77,-0.49 -1.67,-1.26 -3.33,-2.55 -4.99,-3.83 -0.75,-0.58 -1.51,-1.16 -2.28,-1.75 -3.97,3.12 -7.5,6.64 -10.6,10.6 0.1,0.14 0.18,0.24 0.26,0.34 1.77,2.31 3.55,4.61 5.32,6.92 1.1,1.44 1.33,3.03 0.55,4.66 -1.01,2.12 -1.91,4.28 -2.7,6.5 -0.58,1.65 -1.82,2.62 -3.54,2.87 -2.93,0.42 -5.87,0.79 -8.8,1.15 -0.35,0.04 -0.45,0.18 -0.47,0.48 -0.13,2.14 -0.31,4.28 -0.38,6.43 -0.08,2.57 0.09,5.13 0.38,7.69 0.03,0.23 0.01,0.46 0.36,0.51 2.8,0.35 5.59,0.75 8.39,1.07 2.12,0.25 3.55,1.3 4.22,3.35 0.66,2.04 1.52,4.01 2.47,5.94 0.84,1.71 0.65,3.35 -0.5,4.86 -1.63,2.13 -3.27,4.25 -4.9,6.38 -0.22,0.28 -0.43,0.56 -0.65,0.85 3.12,3.97 6.64,7.49 10.6,10.59 0.14,-0.11 0.26,-0.19 0.39,-0.28 2.3,-1.77 4.59,-3.54 6.89,-5.29 1.41,-1.08 2.98,-1.32 4.59,-0.57 2.16,1.02 4.36,1.93 6.61,2.74 1.59,0.57 2.55,1.78 2.81,3.46 0.29,1.88 0.51,3.78 0.76,5.66 0.16,1.2 0.32,2.39 0.47,3.58 0.07,0.03 0.12,0.05 0.17,0.05 0.78,0.08 1.57,0.18 2.35,0.24 4.05,0.3 8.1,0.26 12.14,-0.21 0.24,-0.03 0.34,-0.09 0.38,-0.35 0.36,-2.86 0.75,-5.72 1.11,-8.58 0.25,-1.97 1.26,-3.31 3.15,-3.96 2.07,-0.7 4.08,-1.53 6.04,-2.51 1.75,-0.87 3.41,-0.69 4.97,0.5 1.72,1.32 3.45,2.65 5.17,3.97 0.67,0.51 1.34,1.03 2,1.54 l 0.1,-0.05 c 3.86,-3.03 7.3,-6.47 10.35,-10.31 0.19,-0.23 0.08,-0.35 -0.05,-0.51 -1.81,-2.35 -3.62,-4.68 -5.41,-7.04 -1.04,-1.38 -1.26,-2.93 -0.53,-4.49 1.03,-2.19 1.94,-4.41 2.77,-6.68 0.59,-1.62 1.84,-2.55 3.56,-2.79 2.74,-0.38 5.49,-0.72 8.23,-1.08 0.9,-0.12 0.9,-0.12 1.02,-1.03 0.01,-0.1 0.03,-0.2 0.04,-0.3 0.32,-3.19 0.4,-6.39 0.22,-9.59 -0.07,-1.28 -0.21,-2.56 -0.32,-3.84 -0.02,-0.2 -0.04,-0.37 -0.33,-0.41 -2.91,-0.37 -5.82,-0.75 -8.73,-1.13 -1.86,-0.24 -3.16,-1.24 -3.78,-3 -0.75,-2.15 -1.61,-4.24 -2.61,-6.29 -0.81,-1.67 -0.62,-3.28 0.5,-4.77 0.92,-1.22 1.86,-2.42 2.79,-3.63 0.93,-1.21 1.86,-2.42 2.8,-3.64 -3.12,-3.96 -6.64,-7.5 -10.6,-10.6 -0.14,0.1 -0.24,0.18 -0.34,0.26 -2.31,1.77 -4.61,3.55 -6.92,5.32 -1.39,1.06 -2.94,1.34 -4.52,0.61 -2.23,-1.03 -4.48,-1.96 -6.79,-2.81 -1.55,-0.57 -2.47,-1.77 -2.71,-3.41 -0.34,-2.27 -0.61,-4.56 -0.91,-6.84 -0.11,-0.81 -0.21,-1.63 -0.32,-2.43 -3.22,-0.63 -12.64,-0.62 -14.99,0 z" />
    <path
       style="fill:#757575"
       inkscape:connector-curvature="0"
       id="path137"
       d="M 64.13,94.36 C 47.24,94.36 33.49,80.62 33.5,63.73 33.51,46.83 47.24,33.12 64.15,33.12 81.02,33.13 94.75,46.88 94.74,63.74 94.72,80.63 80.99,94.36 64.13,94.36 Z M 64.09,44.35 c -10.68,0 -19.4,8.71 -19.4,19.38 0,10.74 8.66,19.43 19.4,19.45 C 74.78,83.2 83.51,74.49 83.52,63.8 83.51,53.06 74.8,44.34 64.09,44.35 Z" />
    <g
       style="opacity:0.2"
       id="g141">
      <path
         style="fill:#424242"
         inkscape:connector-curvature="0"
         id="path139"
         d="m 64.62,7.54 c 4.01,0 7.81,0.37 11.31,1.1 0.42,0.09 0.93,0.6 1.01,1.22 0.41,3.1 0.82,6.21 1.21,9.31 0.17,1.39 1.03,2.46 2.36,2.95 0.36,0.13 0.82,0.3 1.23,0.5 0.53,0.26 1.08,0.39 1.63,0.39 0.8,0 1.55,-0.26 2.23,-0.79 1.82,-1.41 3.65,-2.81 5.47,-4.22 l 1.7,-1.31 c 0.44,-0.34 0.82,-0.51 1.12,-0.51 0.28,0 0.64,0.14 1.05,0.41 2.94,1.92 5.79,4.3 8.96,7.48 3.11,3.12 5.44,5.93 7.33,8.83 0.51,0.78 0.48,1.28 -0.11,2.05 l -1.14,1.48 c -1.49,1.93 -2.97,3.87 -4.45,5.78 -0.86,1.1 -1.02,2.45 -0.43,3.73 0.22,0.46 0.39,0.87 0.52,1.27 0.48,1.37 1.59,2.26 3.01,2.43 1.37,0.17 2.73,0.35 4.1,0.53 1.65,0.21 3.29,0.43 4.94,0.64 0.93,0.12 1.33,0.47 1.53,1.35 0.49,2.19 0.8,4.64 0.97,7.71 0.17,3.01 0.14,6.04 -0.08,8.98 -0.2,2.67 -0.49,4.79 -0.93,6.68 -0.15,0.65 -0.6,1.05 -1.28,1.14 l -3.53,0.46 c -1.93,0.25 -3.87,0.5 -5.8,0.75 -1.36,0.18 -2.41,1.01 -2.89,2.32 -0.16,0.45 -0.35,0.9 -0.54,1.31 -0.61,1.28 -0.46,2.66 0.42,3.8 1.64,2.12 3.27,4.24 4.9,6.36 l 0.63,0.81 c 0.66,0.86 0.68,1.31 0.1,2.2 -1.85,2.83 -4.21,5.67 -7.22,8.7 -3.2,3.21 -6.07,5.61 -9.04,7.55 -0.39,0.26 -0.73,0.39 -1.02,0.39 -0.31,0 -0.67,-0.16 -1.09,-0.48 l -1.34,-1.03 c -1.98,-1.53 -3.97,-3.05 -5.95,-4.56 -0.61,-0.47 -1.4,-0.74 -2.18,-0.74 -0.4,0 -0.79,0.07 -1.13,0.2 -0.64,0.23 -1.31,0.51 -2.07,0.85 -1.04,0.48 -1.8,1.52 -1.96,2.64 -0.42,3.14 -0.83,6.28 -1.24,9.42 -0.08,0.64 -0.51,1.13 -1.11,1.27 -2.69,0.62 -5.47,0.86 -7.58,0.99 l -0.69,0.05 c -0.67,0.05 -1.3,0.09 -1.9,0.09 h -3.28 c -0.11,0 -0.22,-0.01 -0.32,-0.02 -0.18,-0.02 -0.36,-0.03 -0.55,-0.04 -3.52,-0.13 -6.4,-0.45 -9.06,-1.01 -0.55,-0.11 -1.22,-0.43 -1.34,-1.31 l -0.47,-3.54 c -0.26,-1.96 -0.51,-3.91 -0.78,-5.87 -0.15,-1.15 -0.94,-2.21 -2,-2.69 -0.32,-0.15 -0.65,-0.28 -0.98,-0.42 -0.23,-0.09 -0.46,-0.18 -0.67,-0.28 -0.5,-0.23 -1.02,-0.35 -1.54,-0.35 -0.55,0 -1.38,0.14 -2.2,0.78 l -5.37,4.14 -1.87,1.44 c -0.41,0.32 -0.78,0.48 -1.08,0.48 -0.29,0 -0.63,-0.13 -1.03,-0.39 -2.93,-1.91 -5.78,-4.28 -8.96,-7.47 -3.14,-3.15 -5.48,-5.97 -7.38,-8.89 -0.47,-0.73 -0.45,-1.26 0.09,-1.96 L 17.1,92.3 c 1.77,-2.31 3.55,-4.62 5.33,-6.92 0.93,-1.2 1.07,-2.65 0.4,-3.99 C 22.66,81.05 22.51,80.64 22.34,80.18 21.88,78.9 20.84,78.07 19.5,77.91 18.31,77.76 17.13,77.6 15.95,77.45 14.14,77.21 12.34,76.98 10.52,76.75 9.39,76.61 9.08,76.31 8.84,75.19 8.13,71.63 7.97,68.04 7.91,65 7.91,64.92 7.93,64.83 7.94,64.75 7.96,64.5 8,64.2 8,63.83 V 63.68 C 8,63.4 7.96,63.15 7.91,62.93 7.92,62.31 7.92,61.71 7.91,61.12 7.9,60.27 7.89,59.46 7.94,58.69 8.1,56.21 8.4,54.01 8.86,51.97 c 0.13,-0.56 0.58,-1.03 1.08,-1.1 0.95,-0.14 1.9,-0.26 2.9,-0.39 L 14,50.33 c 1.82,-0.24 3.65,-0.48 5.47,-0.71 1.36,-0.17 2.42,-1.01 2.9,-2.31 0.17,-0.48 0.37,-0.94 0.57,-1.38 0.58,-1.26 0.43,-2.61 -0.42,-3.71 -1.37,-1.77 -2.73,-3.53 -4.09,-5.3 l -1.49,-1.94 c -0.61,-0.8 -0.64,-1.29 -0.11,-2.11 1.92,-2.96 4.31,-5.82 7.52,-9.01 3.14,-3.13 5.96,-5.47 8.87,-7.34 0.34,-0.22 0.65,-0.33 0.93,-0.33 0.31,0 0.66,0.14 1.03,0.43 2.44,1.88 4.88,3.75 7.35,5.64 0.62,0.46 1.42,0.73 2.18,0.73 0.38,0 0.76,-0.06 1.11,-0.19 0.74,-0.27 1.45,-0.58 2.04,-0.84 1.06,-0.47 1.84,-1.52 2,-2.67 0.29,-2.13 0.57,-4.27 0.84,-6.41 l 0.37,-2.85 C 51.14,9.47 51.41,8.76 52.28,8.62 56.52,7.9 60.66,7.54 64.62,7.54 m -0.58,78.61 c 12.34,0 22.39,-10.04 22.39,-22.38 0,-5.99 -2.33,-11.62 -6.57,-15.86 -4.24,-4.24 -9.86,-6.58 -15.85,-6.58 -12.35,0 -22.4,10.04 -22.4,22.37 0,12.36 10.04,22.43 22.39,22.45 h 0.04 M 64.62,4.54 c -4.3,0 -8.63,0.41 -12.82,1.11 -2.15,0.36 -3.43,2.03 -3.69,3.98 -0.4,3.07 -0.8,6.18 -1.22,9.25 -0.02,0.12 -0.14,0.28 -0.25,0.33 -0.6,0.27 -1.21,0.54 -1.83,0.76 -0.03,0.01 -0.06,0.02 -0.1,0.02 -0.13,0 -0.29,-0.06 -0.39,-0.13 -2.44,-1.87 -4.88,-3.74 -7.32,-5.62 -0.91,-0.7 -1.88,-1.05 -2.86,-1.05 -0.86,0 -1.72,0.27 -2.56,0.81 -3.42,2.21 -6.48,4.87 -9.36,7.74 -2.93,2.92 -5.65,6.02 -7.92,9.5 -1.23,1.9 -1.14,3.78 0.24,5.58 1.86,2.42 3.72,4.84 5.58,7.25 0.16,0.21 0.18,0.37 0.07,0.61 -0.25,0.53 -0.47,1.07 -0.67,1.61 -0.09,0.23 -0.2,0.34 -0.45,0.37 -1.84,0.23 -3.68,0.47 -5.52,0.72 -1.36,0.18 -2.72,0.34 -4.08,0.54 -1.73,0.26 -3.16,1.64 -3.56,3.4 -0.54,2.37 -0.84,4.78 -0.99,7.2 -0.1,1.61 0.01,3.23 -0.05,4.84 0,0.11 0.1,0.22 0.1,0.34 v 0.15 c 0,0.4 -0.1,0.81 -0.09,1.21 0.07,3.6 0.28,7.18 1.01,10.72 0.49,2.37 1.83,3.62 4.24,3.93 3,0.38 5.98,0.78 8.98,1.16 0.21,0.03 0.32,0.1 0.4,0.32 0.19,0.52 0.39,1.05 0.64,1.55 0.16,0.32 0.13,0.53 -0.09,0.8 -1.87,2.41 -3.73,4.83 -5.58,7.25 -1.31,1.7 -1.4,3.62 -0.23,5.42 2.22,3.43 4.89,6.49 7.77,9.38 2.91,2.91 5.99,5.61 9.45,7.87 0.9,0.58 1.79,0.87 2.67,0.87 0.99,0 1.96,-0.37 2.91,-1.1 2.42,-1.86 4.84,-3.71 7.25,-5.58 0.13,-0.1 0.24,-0.15 0.36,-0.15 0.09,0 0.18,0.03 0.28,0.07 0.54,0.25 1.11,0.45 1.65,0.7 0.13,0.06 0.27,0.23 0.29,0.37 0.42,3.13 0.83,6.27 1.24,9.4 0.26,1.97 1.67,3.42 3.7,3.85 3.16,0.66 6.35,0.95 9.57,1.07 0.33,0.01 0.66,0.06 0.98,0.06 h 3.28 c 0.92,0 1.85,-0.09 2.77,-0.14 2.71,-0.17 5.42,-0.45 8.07,-1.06 1.84,-0.43 3.17,-1.94 3.41,-3.81 0.4,-3.14 0.82,-6.27 1.24,-9.4 0.02,-0.12 0.13,-0.27 0.24,-0.32 0.6,-0.27 1.21,-0.53 1.83,-0.75 0.03,-0.01 0.07,-0.02 0.11,-0.02 0.12,0 0.26,0.05 0.35,0.12 2.44,1.86 4.86,3.73 7.29,5.59 0.95,0.73 1.93,1.1 2.92,1.1 0.88,0 1.76,-0.29 2.66,-0.87 3.49,-2.27 6.6,-5 9.53,-7.94 2.81,-2.83 5.42,-5.82 7.61,-9.17 1.28,-1.96 1.21,-3.8 -0.23,-5.67 -1.84,-2.4 -3.68,-4.8 -5.54,-7.19 -0.18,-0.23 -0.21,-0.41 -0.08,-0.67 0.24,-0.51 0.46,-1.05 0.65,-1.58 0.09,-0.23 0.21,-0.33 0.45,-0.37 3.11,-0.4 6.22,-0.81 9.33,-1.21 1.91,-0.25 3.39,-1.57 3.82,-3.45 0.54,-2.34 0.82,-4.73 0.99,-7.12 0.23,-3.12 0.25,-6.25 0.08,-9.37 -0.15,-2.76 -0.43,-5.5 -1.03,-8.19 -0.48,-2.14 -1.91,-3.4 -4.08,-3.67 -3.01,-0.38 -6.02,-0.78 -9.03,-1.16 -0.3,-0.04 -0.46,-0.15 -0.56,-0.45 -0.18,-0.53 -0.4,-1.04 -0.64,-1.55 -0.11,-0.24 -0.09,-0.4 0.07,-0.61 1.87,-2.42 3.74,-4.85 5.6,-7.28 1.36,-1.76 1.45,-3.66 0.24,-5.51 -2.21,-3.41 -4.86,-6.45 -7.72,-9.32 -2.9,-2.91 -5.99,-5.61 -9.44,-7.87 -0.91,-0.6 -1.81,-0.89 -2.69,-0.89 -0.99,0 -1.97,0.38 -2.95,1.13 -2.4,1.84 -4.8,3.68 -7.19,5.53 -0.14,0.11 -0.26,0.16 -0.39,0.16 -0.1,0 -0.2,-0.03 -0.32,-0.09 -0.49,-0.24 -1,-0.44 -1.51,-0.62 C 81.26,19.24 81.14,19.12 81.1,18.83 80.71,15.72 80.3,12.61 79.89,9.5 79.65,7.65 78.22,6.09 76.52,5.74 72.68,4.9 68.66,4.54 64.62,4.54 Z M 64.04,83.15 H 64.01 C 53.28,83.13 44.61,74.44 44.61,63.7 c 0,-10.66 8.73,-19.37 19.4,-19.38 h 0.01 c 10.71,0 19.41,8.72 19.41,19.44 0,10.69 -8.71,19.39 -19.39,19.39 z" />
    </g>
  </g>
  <g
     id="g221"
     transform="translate(6.7590577,6.3676898)">
    <path
       id="path98"
       d="m 82.7,121.86 c -0.55,0 -1.14,-0.07 -1.76,-0.21 -7.12,-1.63 -11.16,-10.58 -13.3,-17.8 -2.66,-8.98 -3.39,-18.56 -2.93,-24.08 l 0.1,-1.2 L 66,78.4 c 2.89,-0.4 5.56,-1.64 7.72,-3.58 l 0.89,-0.8 0.98,0.69 c 4.52,3.2 11.39,9.92 16.55,17.72 4.15,6.28 8.4,15.12 5.08,21.62 -1.39,2.72 -3.28,3.29 -4.62,3.29 -1.44,0 -2.98,-0.64 -4.66,-1.95 -0.08,2.16 -0.6,3.77 -1.56,4.88 -0.91,1.05 -2.18,1.59 -3.68,1.59 z"
       inkscape:connector-curvature="0"
       style="fill:url(#a)" />
    <path
       id="path100"
       d="m 74.71,75.94 c 9.55,6.76 26.51,26.97 21.16,37.44 -0.88,1.72 -2,2.47 -3.28,2.47 -1.86,0 -4.08,-1.59 -6.39,-4.15 0.72,5.12 -0.09,8.67 -3.5,8.67 -0.43,0 -0.91,-0.06 -1.43,-0.18 C 69.8,117.56 65.23,91.55 66.19,79.9 c 3.17,-0.45 6.14,-1.83 8.52,-3.96 m -0.22,-3.83 -1.78,1.6 c -1.94,1.74 -4.34,2.85 -6.92,3.21 l -2.38,0.33 -0.2,2.39 c -0.47,5.66 0.27,15.47 2.99,24.63 3.23,10.9 8.21,17.41 14.4,18.84 0.73,0.17 1.44,0.25 2.1,0.25 1.95,0 3.61,-0.72 4.8,-2.09 0.76,-0.88 1.3,-1.98 1.61,-3.33 1.19,0.61 2.35,0.91 3.47,0.91 1.44,0 4.13,-0.53 5.95,-4.11 2.89,-5.66 1.1,-13.65 -5.16,-23.13 C 88.1,83.64 81.07,76.77 76.43,73.49 Z"
       inkscape:connector-curvature="0"
       style="fill:#bdbdbd" />
  </g>
  <circle
     cx="70.759056"
     cy="70.39769"
     r="16.719999"
     stroke-miterlimit="10"
     id="circle107"
     style="fill:url(#i);stroke:#a67c52;stroke-width:3;stroke-miterlimit:10" />
</svg>
