<svg xmlns="http://www.w3.org/2000/svg" width="661" height="661" style="shape-rendering:geometricPrecision;text-rendering:geometricPrecision;image-rendering:optimizeQuality;fill-rule:evenodd;clip-rule:evenodd"><path fill="#020000" d="M315.5 97.5c20.095-1.856 37.928 3.477 53.5 16 18.2-9.088 37.367-11.922 57.5-8.5 12.624 3.143 23.624 9.143 33 18 26.115-3.851 48.282 3.649 66.5 22.5 60.58 104.925 121.52 253.872 133.5 319-1.707 16.913-10.04 29.413-25 37.5a297.084 297.084 0 0 1-61 20c-42.539 17.642-86.872 26.975-133 28a216.847 216.847 0 0 1-36 8c-41.887 5.924-83.72 5.424-125.5-1.5-37.528 2.14-65.11 2.73-133.5-12.5a524.594 524.594 0 0 1-110-25C12.64 510.786-1.79 490.344 1 471.5a1376.172 1376.172 0 0 1 67-206 3724.505 3724.505 0 0 1 39-89c14.167-25.81 36.001-39.977 65.5-42.5 12.529-15.771 28.863-25.104 49-28 17.929-3.567 34.929-1.067 51 7.5 13.097-8.918 27.431-14.252 43-16z" style="opacity:.983"/><path fill="#cc1818" d="M313.5 114.5c12.729-1.539 24.729.628 36 6.5a14.84 14.84 0 0 1 4 3.5 109.663 109.663 0 0 0-18 27.5c-11.196.955-21.696 4.122-31.5 9.5-2.913-13.492-8.747-25.492-17.5-36 8.349-5.445 17.349-9.112 27-11Z" style="opacity:1"/><path fill="#cb1818" d="M399.5 120.5c14.685-2.161 28.019 1.006 40 9.5l-16 10c-18.631.322-35.631 5.656-51 16a78.94 78.94 0 0 1-17-4c9.207-18.105 23.873-28.605 44-31.5ZM226.5 121.5c18.66-2.739 34.494 2.594 47.5 16 3.416 4.331 5.916 9.164 7.5 14.5l-1 1.5a56.61 56.61 0 0 0-19-5.5 208.6 208.6 0 0 0-36 1c-8.862-6.929-18.862-11.429-30-13.5 9.3-7.153 19.633-11.82 31-14Z" style="opacity:1"/><path fill="#cd1717" d="M463.5 139.5c19.558-2.762 35.725 3.238 48.5 18 62.584 113.994 107.759 228.703 128 301 1.18 14.452-4.986 24.619-18.5 30.5-10.613 4.516-21.279 8.016-32 10.5 2.609-5.756 3.442-11.756 2.5-18-24.834-114.161-81.656-243.953-115-312-7.209-10.692-16.709-18.692-28.5-24 4.784-2.768 9.784-4.768 15-6z" style="opacity:1"/><path fill="#ce1717" d="M413.5 156.5c18.287-1.74 33.454 4.26 45.5 18 48.544 96.077 93.31 215.735 114 306 2.185 11.099-1.315 19.932-10.5 26.5a213.354 213.354 0 0 1-49 17l-38 7c-3.382.824-6.716.657-10-.5a44.856 44.856 0 0 0 5.5-13c-2.362-121.057-56.881-298.784-65-325-3.649-10.147-9.482-18.813-17.5-26 2.848-2.593 6.181-4.426 10-5.5a272.004 272.004 0 0 1 15-4.5z" style="opacity:1"/><path fill="#cd1717" d="M240.5 163.5c12.704-1.537 24.704.629 36 6.5 2.69 1.698 5.023 3.698 7 6-9.003 11.84-15.503 25.007-19.5 39.5-26.293 114.037-39.95 208.924-43.5 293 .021 12.875 5.021 23.375 15 31.5-32.224-1.271-63.891-6.271-95-15-9.592-3.701-17.092-9.867-22.5-18.5a33.816 33.816 0 0 1-1.5-8.5c13.617-97.834 58.647-289.392 95-323 8.957-5.924 18.624-9.757 29-11.5z" style="opacity:1"/><path fill="#ce1717" d="M331.5 168.5c20.592-3.416 37.759 2.584 51.5 18 18.419 35.368 64.722 223.826 70.5 322.5-.997 12.337-7.33 20.67-19 25a203.35 203.35 0 0 1-37 8c-42.529 5.272-84.862 3.939-127-4-13.364-2.253-23.531-9.086-30.5-20.5-.472-102.126 31.698-295.38 57-330 9.606-9.884 21.106-16.218 34.5-19z" style="opacity:1"/><path fill="#cd1717" d="M191.5 152c5.795.612 11.128 2.445 16 5.5-15.966 10.226-27.466 24.226-34.5 42-36.718 103.573-65.804 219.742-74.5 298.5-.268 8.194 2.065 15.528 7 22a342.923 342.923 0 0 1-47-11c-13.4-3.28-24.9-9.78-34.5-19.5-4.766-6.795-5.766-14.128-3-22 17.82-79.795 86.139-272.333 121.5-305.5 16.818-11.79 26.502-11.299 49-10z" style="opacity:1"/></svg>